<?xml version="1.0" encoding="UTF-8" standalone="no"?>
<!DOCTYPE svg PUBLIC "-//W3C//DTD SVG 1.1//EN"
 "http://www.w3.org/Graphics/SVG/1.1/DTD/svg11.dtd">
<!-- Generated by graphviz version 2.38.0 (20140413.2041)
 -->
<!-- Title: Framework/include/QualityControl/Activity.h Pages: 1 -->
<svg width="3517pt" height="307pt"
 viewBox="0.00 0.00 3517.00 307.00" xmlns="http://www.w3.org/2000/svg" xmlns:xlink="http://www.w3.org/1999/xlink">
<g id="graph0" class="graph" transform="scale(1 1) rotate(0) translate(4 303)">
<title>Framework/include/QualityControl/Activity.h</title>
<!-- Node1 -->
<g id="node1" class="node"><title>Node1</title>
<polygon fill="#bfbfbf" stroke="black" points="1566.5,-268.5 1566.5,-298.5 1699.5,-298.5 1699.5,-268.5 1566.5,-268.5"/>
<text text-anchor="start" x="1574.5" y="-286.5" font-family="Helvetica,sans-Serif" font-size="10.00">Framework/include/Quality</text>
<text text-anchor="middle" x="1633" y="-275.5" font-family="Helvetica,sans-Serif" font-size="10.00">Control/Activity.h</text>
</g>
<!-- Node2 -->
<g id="node2" class="node"><title>Node2</title>
<g id="a_node2"><a xlink:href="TaskInterface_8h.html" target="_top" xlink:title="Framework/include/Quality\lControl/TaskInterface.h">
<polygon fill="none" stroke="black" points="1566.5,-201.5 1566.5,-231.5 1699.5,-231.5 1699.5,-201.5 1566.5,-201.5"/>
<text text-anchor="start" x="1574.5" y="-219.5" font-family="Helvetica,sans-Serif" font-size="10.00">Framework/include/Quality</text>
<text text-anchor="middle" x="1633" y="-208.5" font-family="Helvetica,sans-Serif" font-size="10.00">Control/TaskInterface.h</text>
</a>
</g>
</g>
<!-- Node1&#45;&gt;Node2 -->
<g id="edge1" class="edge"><title>Node1&#45;&gt;Node2</title>
<path fill="none" stroke="midnightblue" d="M1633,-258.108C1633,-249.154 1633,-239.323 1633,-231.577"/>
<polygon fill="midnightblue" stroke="midnightblue" points="1629.5,-258.396 1633,-268.396 1636.5,-258.396 1629.5,-258.396"/>
</g>
<!-- Node3 -->
<g id="node3" class="node"><title>Node3</title>
<g id="a_node3"><a xlink:href="QcInfoLogger_8h.html" target="_top" xlink:title="Framework/include/Quality\lControl/QcInfoLogger.h">
<polygon fill="none" stroke="black" points="1706.5,-134.5 1706.5,-164.5 1839.5,-164.5 1839.5,-134.5 1706.5,-134.5"/>
<text text-anchor="start" x="1714.5" y="-152.5" font-family="Helvetica,sans-Serif" font-size="10.00">Framework/include/Quality</text>
<text text-anchor="middle" x="1773" y="-141.5" font-family="Helvetica,sans-Serif" font-size="10.00">Control/QcInfoLogger.h</text>
</a>
</g>
</g>
<!-- Node2&#45;&gt;Node3 -->
<g id="edge2" class="edge"><title>Node2&#45;&gt;Node3</title>
<path fill="none" stroke="midnightblue" d="M1672.57,-197.131C1694.81,-186.802 1722.15,-174.11 1742.68,-164.577"/>
<polygon fill="midnightblue" stroke="midnightblue" points="1670.97,-194.01 1663.38,-201.396 1673.92,-200.359 1670.97,-194.01"/>
</g>
<!-- Node16 -->
<g id="node16" class="node"><title>Node16</title>
<g id="a_node16"><a xlink:href="testTaskInterface_8cxx.html" target="_top" xlink:title="Framework/test/testTaskInterface.cxx">
<polygon fill="none" stroke="black" points="670.5,-6 670.5,-25 853.5,-25 853.5,-6 670.5,-6"/>
<text text-anchor="middle" x="762" y="-13" font-family="Helvetica,sans-Serif" font-size="10.00">Framework/test/testTaskInterface.cxx</text>
</a>
</g>
</g>
<!-- Node2&#45;&gt;Node16 -->
<g id="edge44" class="edge"><title>Node2&#45;&gt;Node16</title>
<path fill="none" stroke="midnightblue" d="M1556.29,-213.907C1323.06,-208.782 635.836,-191.496 596,-165 557.849,-139.625 535.888,-103.181 564,-67 573.441,-54.8491 661.031,-35.9725 716.505,-25.0679"/>
<polygon fill="midnightblue" stroke="midnightblue" points="1556.31,-217.408 1566.38,-214.127 1556.46,-210.41 1556.31,-217.408"/>
</g>
<!-- Node24 -->
<g id="node24" class="node"><title>Node24</title>
<g id="a_node24"><a xlink:href="DatabaseFactory_8cxx.html" target="_top" xlink:title="Framework/src/DatabaseFactory.cxx">
<polygon fill="none" stroke="black" points="1125.5,-73 1125.5,-92 1304.5,-92 1304.5,-73 1125.5,-73"/>
<text text-anchor="middle" x="1215" y="-80" font-family="Helvetica,sans-Serif" font-size="10.00">Framework/src/DatabaseFactory.cxx</text>
</a>
</g>
</g>
<!-- Node2&#45;&gt;Node24 -->
<g id="edge42" class="edge"><title>Node2&#45;&gt;Node24</title>
<path fill="none" stroke="midnightblue" d="M1578.87,-198.408C1488.45,-169.852 1309.89,-113.465 1242.03,-92.0361"/>
<polygon fill="midnightblue" stroke="midnightblue" points="1578.07,-201.825 1588.66,-201.499 1580.18,-195.15 1578.07,-201.825"/>
</g>
<!-- Node36 -->
<g id="node36" class="node"><title>Node36</title>
<g id="a_node36"><a xlink:href="TaskRunner_8h.html" target="_top" xlink:title="Framework/include/Quality\lControl/TaskRunner.h">
<polygon fill="none" stroke="black" points="355.5,-67.5 355.5,-97.5 488.5,-97.5 488.5,-67.5 355.5,-67.5"/>
<text text-anchor="start" x="363.5" y="-85.5" font-family="Helvetica,sans-Serif" font-size="10.00">Framework/include/Quality</text>
<text text-anchor="middle" x="422" y="-74.5" font-family="Helvetica,sans-Serif" font-size="10.00">Control/TaskRunner.h</text>
</a>
</g>
</g>
<!-- Node2&#45;&gt;Node36 -->
<g id="edge36" class="edge"><title>Node2&#45;&gt;Node36</title>
<path fill="none" stroke="midnightblue" d="M1556.02,-215.285C1317.12,-214.171 598.61,-207.304 503,-165 470.528,-150.632 444.052,-116.843 430.933,-97.586"/>
<polygon fill="midnightblue" stroke="midnightblue" points="1556.34,-218.786 1566.36,-215.331 1556.37,-211.786 1556.34,-218.786"/>
</g>
<!-- Node40 -->
<g id="node40" class="node"><title>Node40</title>
<g id="a_node40"><a xlink:href="TaskInterface_8cxx.html" target="_top" xlink:title="Framework/src/TaskInterface.cxx">
<polygon fill="none" stroke="black" points="2287,-140 2287,-159 2451,-159 2451,-140 2287,-140"/>
<text text-anchor="middle" x="2369" y="-147" font-family="Helvetica,sans-Serif" font-size="10.00">Framework/src/TaskInterface.cxx</text>
</a>
</g>
</g>
<!-- Node2&#45;&gt;Node40 -->
<g id="edge43" class="edge"><title>Node2&#45;&gt;Node40</title>
<path fill="none" stroke="midnightblue" d="M1709.84,-211.475C1830.92,-204.683 2073.43,-189.267 2278,-165 2291.66,-163.379 2306.42,-161.211 2319.98,-159.046"/>
<polygon fill="midnightblue" stroke="midnightblue" points="1709.35,-207.996 1699.56,-212.046 1709.74,-214.985 1709.35,-207.996"/>
</g>
<!-- Node41 -->
<g id="node41" class="node"><title>Node41</title>
<g id="a_node41"><a xlink:href="DaqTask_8h.html" target="_top" xlink:title="Modules/Daq/include\l/Daq/DaqTask.h">
<polygon fill="none" stroke="black" points="605,-134.5 605,-164.5 713,-164.5 713,-134.5 605,-134.5"/>
<text text-anchor="start" x="613" y="-152.5" font-family="Helvetica,sans-Serif" font-size="10.00">Modules/Daq/include</text>
<text text-anchor="middle" x="659" y="-141.5" font-family="Helvetica,sans-Serif" font-size="10.00">/Daq/DaqTask.h</text>
</a>
</g>
</g>
<!-- Node2&#45;&gt;Node41 -->
<g id="edge45" class="edge"><title>Node2&#45;&gt;Node41</title>
<path fill="none" stroke="midnightblue" d="M1556.45,-212.546C1406.86,-206.425 1065.32,-190.739 779,-165 757.472,-163.065 733.842,-160.339 713.286,-157.773"/>
<polygon fill="midnightblue" stroke="midnightblue" points="1556.32,-216.043 1566.46,-212.953 1556.61,-209.049 1556.32,-216.043"/>
</g>
<!-- Node42 -->
<g id="node42" class="node"><title>Node42</title>
<g id="a_node42"><a xlink:href="DigitsQcTask_8h.html" target="_top" xlink:title="Modules/EMCAL/include\l/EMCAL/DigitsQcTask.h">
<polygon fill="none" stroke="black" points="1857.5,-134.5 1857.5,-164.5 1982.5,-164.5 1982.5,-134.5 1857.5,-134.5"/>
<text text-anchor="start" x="1865.5" y="-152.5" font-family="Helvetica,sans-Serif" font-size="10.00">Modules/EMCAL/include</text>
<text text-anchor="middle" x="1920" y="-141.5" font-family="Helvetica,sans-Serif" font-size="10.00">/EMCAL/DigitsQcTask.h</text>
</a>
</g>
</g>
<!-- Node2&#45;&gt;Node42 -->
<g id="edge48" class="edge"><title>Node2&#45;&gt;Node42</title>
<path fill="none" stroke="midnightblue" d="M1704.74,-199.252C1751.78,-188.598 1812.68,-174.805 1857.69,-164.611"/>
<polygon fill="midnightblue" stroke="midnightblue" points="1703.9,-195.854 1694.92,-201.476 1705.45,-202.681 1703.9,-195.854"/>
</g>
<!-- Node43 -->
<g id="node43" class="node"><title>Node43</title>
<g id="a_node43"><a xlink:href="BenchmarkTask_8h.html" target="_top" xlink:title="Modules/Example/include\l/Example/BenchmarkTask.h">
<polygon fill="none" stroke="black" points="2001,-134.5 2001,-164.5 2141,-164.5 2141,-134.5 2001,-134.5"/>
<text text-anchor="start" x="2009" y="-152.5" font-family="Helvetica,sans-Serif" font-size="10.00">Modules/Example/include</text>
<text text-anchor="middle" x="2071" y="-141.5" font-family="Helvetica,sans-Serif" font-size="10.00">/Example/BenchmarkTask.h</text>
</a>
</g>
</g>
<!-- Node2&#45;&gt;Node43 -->
<g id="edge50" class="edge"><title>Node2&#45;&gt;Node43</title>
<path fill="none" stroke="midnightblue" d="M1709.73,-205.56C1782.31,-195.95 1894.23,-180.589 1991,-165 1994.21,-164.484 1997.48,-163.943 2000.79,-163.387"/>
<polygon fill="midnightblue" stroke="midnightblue" points="1709.21,-202.099 1699.76,-206.878 1710.13,-209.038 1709.21,-202.099"/>
</g>
<!-- Node44 -->
<g id="node44" class="node"><title>Node44</title>
<g id="a_node44"><a xlink:href="ExampleCondition_8h.html" target="_top" xlink:title="Modules/Example/include\l/Example/ExampleCondition.h">
<polygon fill="none" stroke="black" points="2706.5,-134.5 2706.5,-164.5 2855.5,-164.5 2855.5,-134.5 2706.5,-134.5"/>
<text text-anchor="start" x="2714.5" y="-152.5" font-family="Helvetica,sans-Serif" font-size="10.00">Modules/Example/include</text>
<text text-anchor="middle" x="2781" y="-141.5" font-family="Helvetica,sans-Serif" font-size="10.00">/Example/ExampleCondition.h</text>
</a>
</g>
</g>
<!-- Node2&#45;&gt;Node44 -->
<g id="edge52" class="edge"><title>Node2&#45;&gt;Node44</title>
<path fill="none" stroke="midnightblue" d="M1709.67,-211.159C1919.18,-199.297 2499.37,-166.446 2706.4,-154.724"/>
<polygon fill="midnightblue" stroke="midnightblue" points="1709.47,-207.665 1699.68,-211.724 1709.87,-214.653 1709.47,-207.665"/>
</g>
<!-- Node46 -->
<g id="node46" class="node"><title>Node46</title>
<g id="a_node46"><a xlink:href="ExampleTask_8h.html" target="_top" xlink:title="Modules/Example/include\l/Example/ExampleTask.h">
<polygon fill="none" stroke="black" points="788.5,-134.5 788.5,-164.5 917.5,-164.5 917.5,-134.5 788.5,-134.5"/>
<text text-anchor="start" x="796.5" y="-152.5" font-family="Helvetica,sans-Serif" font-size="10.00">Modules/Example/include</text>
<text text-anchor="middle" x="853" y="-141.5" font-family="Helvetica,sans-Serif" font-size="10.00">/Example/ExampleTask.h</text>
</a>
</g>
</g>
<!-- Node2&#45;&gt;Node46 -->
<g id="edge54" class="edge"><title>Node2&#45;&gt;Node46</title>
<path fill="none" stroke="midnightblue" d="M1556.43,-210.557C1434.07,-202.443 1186.97,-185.169 978,-165 958.32,-163.101 936.933,-160.732 917.505,-158.463"/>
<polygon fill="midnightblue" stroke="midnightblue" points="1556.24,-214.052 1566.45,-211.22 1556.7,-207.067 1556.24,-214.052"/>
</g>
<!-- Node47 -->
<g id="node47" class="node"><title>Node47</title>
<g id="a_node47"><a xlink:href="SkeletonTask_8h.html" target="_top" xlink:title="Modules/Skeleton/include\l/Skeleton/SkeletonTask.h">
<polygon fill="none" stroke="black" points="987.5,-134.5 987.5,-164.5 1116.5,-164.5 1116.5,-134.5 987.5,-134.5"/>
<text text-anchor="start" x="995.5" y="-152.5" font-family="Helvetica,sans-Serif" font-size="10.00">Modules/Skeleton/include</text>
<text text-anchor="middle" x="1052" y="-141.5" font-family="Helvetica,sans-Serif" font-size="10.00">/Skeleton/SkeletonTask.h</text>
</a>
</g>
</g>
<!-- Node2&#45;&gt;Node47 -->
<g id="edge58" class="edge"><title>Node2&#45;&gt;Node47</title>
<path fill="none" stroke="midnightblue" d="M1556.18,-206.905C1440.68,-193.984 1224.37,-169.784 1116.54,-157.721"/>
<polygon fill="midnightblue" stroke="midnightblue" points="1556.02,-210.41 1566.35,-208.044 1556.8,-203.453 1556.02,-210.41"/>
</g>
<!-- Node48 -->
<g id="node48" class="node"><title>Node48</title>
<g id="a_node48"><a xlink:href="TOFTask_8h.html" target="_top" xlink:title="Modules/TOF/include\l/TOF/TOFTask.h">
<polygon fill="none" stroke="black" points="2159,-134.5 2159,-164.5 2269,-164.5 2269,-134.5 2159,-134.5"/>
<text text-anchor="start" x="2167" y="-152.5" font-family="Helvetica,sans-Serif" font-size="10.00">Modules/TOF/include</text>
<text text-anchor="middle" x="2214" y="-141.5" font-family="Helvetica,sans-Serif" font-size="10.00">/TOF/TOFTask.h</text>
</a>
</g>
</g>
<!-- Node2&#45;&gt;Node48 -->
<g id="edge61" class="edge"><title>Node2&#45;&gt;Node48</title>
<path fill="none" stroke="midnightblue" d="M1710.01,-211.005C1811.36,-204.398 1994.85,-190.052 2150,-165 2152.92,-164.528 2155.91,-164.002 2158.93,-163.438"/>
<polygon fill="midnightblue" stroke="midnightblue" points="1709.61,-207.523 1699.86,-211.658 1710.06,-214.508 1709.61,-207.523"/>
</g>
<!-- Node4 -->
<g id="node4" class="node"><title>Node4</title>
<g id="a_node4"><a xlink:href="Checker_8h.html" target="_top" xlink:title="Framework/include/Quality\lControl/Checker.h">
<polygon fill="none" stroke="black" points="2199.5,-67.5 2199.5,-97.5 2332.5,-97.5 2332.5,-67.5 2199.5,-67.5"/>
<text text-anchor="start" x="2207.5" y="-85.5" font-family="Helvetica,sans-Serif" font-size="10.00">Framework/include/Quality</text>
<text text-anchor="middle" x="2266" y="-74.5" font-family="Helvetica,sans-Serif" font-size="10.00">Control/Checker.h</text>
</a>
</g>
</g>
<!-- Node3&#45;&gt;Node4 -->
<g id="edge3" class="edge"><title>Node3&#45;&gt;Node4</title>
<path fill="none" stroke="midnightblue" d="M1849.59,-133.839C1998.69,-111.997 2039.09,-118.827 2185,-98 2189.67,-97.3338 2194.48,-96.5985 2199.32,-95.8228"/>
<polygon fill="midnightblue" stroke="midnightblue" points="1848.98,-130.39 1839.61,-135.32 1850.01,-137.314 1848.98,-130.39"/>
</g>
<!-- Node14 -->
<g id="node14" class="node"><title>Node14</title>
<g id="a_node14"><a xlink:href="TaskFactory_8h.html" target="_top" xlink:title="Framework/include/Quality\lControl/TaskFactory.h">
<polygon fill="none" stroke="black" points="2009.5,-67.5 2009.5,-97.5 2142.5,-97.5 2142.5,-67.5 2009.5,-67.5"/>
<text text-anchor="start" x="2017.5" y="-85.5" font-family="Helvetica,sans-Serif" font-size="10.00">Framework/include/Quality</text>
<text text-anchor="middle" x="2076" y="-74.5" font-family="Helvetica,sans-Serif" font-size="10.00">Control/TaskFactory.h</text>
</a>
</g>
</g>
<!-- Node3&#45;&gt;Node14 -->
<g id="edge13" class="edge"><title>Node3&#45;&gt;Node14</title>
<path fill="none" stroke="midnightblue" d="M1848.44,-132.316C1898.24,-121.633 1962.84,-107.775 2010.48,-97.5549"/>
<polygon fill="midnightblue" stroke="midnightblue" points="1847.42,-128.956 1838.37,-134.476 1848.89,-135.801 1847.42,-128.956"/>
</g>
<!-- Node15 -->
<g id="node15" class="node"><title>Node15</title>
<g id="a_node15"><a xlink:href="TaskRunner_8cxx.html" target="_top" xlink:title="Framework/src/TaskRunner.cxx">
<polygon fill="none" stroke="black" points="1881.5,-6 1881.5,-25 2038.5,-25 2038.5,-6 1881.5,-6"/>
<text text-anchor="middle" x="1960" y="-13" font-family="Helvetica,sans-Serif" font-size="10.00">Framework/src/TaskRunner.cxx</text>
</a>
</g>
</g>
<!-- Node3&#45;&gt;Node15 -->
<g id="edge28" class="edge"><title>Node3&#45;&gt;Node15</title>
<path fill="none" stroke="midnightblue" d="M1849.95,-134.035C1931.14,-125.578 2107.91,-146.518 2151,-98 2160.15,-87.6989 2159.41,-77.9167 2151,-67 2141.9,-55.1781 2056.93,-36.0969 2003.43,-25.0859"/>
<polygon fill="midnightblue" stroke="midnightblue" points="1849.09,-130.617 1839.61,-135.361 1849.98,-137.56 1849.09,-130.617"/>
</g>
<!-- Node3&#45;&gt;Node24 -->
<g id="edge23" class="edge"><title>Node3&#45;&gt;Node24</title>
<path fill="none" stroke="midnightblue" d="M1696.25,-140.964C1604.85,-131.783 1447.6,-115.34 1313,-98 1299.1,-96.209 1284.11,-94.0888 1270.15,-92.0304"/>
<polygon fill="midnightblue" stroke="midnightblue" points="1695.95,-144.451 1706.25,-141.966 1696.65,-137.486 1695.95,-144.451"/>
</g>
<!-- Node25 -->
<g id="node25" class="node"><title>Node25</title>
<g id="a_node25"><a xlink:href="InformationService_8cxx.html" target="_top" xlink:title="Framework/src/Information\lService.cxx">
<polygon fill="none" stroke="black" points="2351,-67.5 2351,-97.5 2485,-97.5 2485,-67.5 2351,-67.5"/>
<text text-anchor="start" x="2359" y="-85.5" font-family="Helvetica,sans-Serif" font-size="10.00">Framework/src/Information</text>
<text text-anchor="middle" x="2418" y="-74.5" font-family="Helvetica,sans-Serif" font-size="10.00">Service.cxx</text>
</a>
</g>
</g>
<!-- Node3&#45;&gt;Node25 -->
<g id="edge24" class="edge"><title>Node3&#45;&gt;Node25</title>
<path fill="none" stroke="midnightblue" d="M1849.75,-133.871C2067.56,-105.731 2126.44,-125.944 2341,-98 2344.24,-97.5784 2347.54,-97.1083 2350.88,-96.6027"/>
<polygon fill="midnightblue" stroke="midnightblue" points="1849.05,-130.432 1839.59,-135.203 1849.96,-137.373 1849.05,-130.432"/>
</g>
<!-- Node26 -->
<g id="node26" class="node"><title>Node26</title>
<g id="a_node26"><a xlink:href="MySqlDatabase_8cxx.html" target="_top" xlink:title="Framework/src/MySqlDatabase.cxx">
<polygon fill="none" stroke="black" points="1322.5,-73 1322.5,-92 1495.5,-92 1495.5,-73 1322.5,-73"/>
<text text-anchor="middle" x="1409" y="-80" font-family="Helvetica,sans-Serif" font-size="10.00">Framework/src/MySqlDatabase.cxx</text>
</a>
</g>
</g>
<!-- Node3&#45;&gt;Node26 -->
<g id="edge25" class="edge"><title>Node3&#45;&gt;Node26</title>
<path fill="none" stroke="midnightblue" d="M1696.26,-134.796C1623.9,-121.876 1517.73,-102.915 1456.77,-92.031"/>
<polygon fill="midnightblue" stroke="midnightblue" points="1695.78,-138.266 1706.24,-136.578 1697.01,-131.375 1695.78,-138.266"/>
</g>
<!-- Node27 -->
<g id="node27" class="node"><title>Node27</title>
<g id="a_node27"><a xlink:href="ObjectsManager_8cxx.html" target="_top" xlink:title="Framework/src/ObjectsManager.cxx">
<polygon fill="none" stroke="black" points="1513.5,-73 1513.5,-92 1688.5,-92 1688.5,-73 1513.5,-73"/>
<text text-anchor="middle" x="1601" y="-80" font-family="Helvetica,sans-Serif" font-size="10.00">Framework/src/ObjectsManager.cxx</text>
</a>
</g>
</g>
<!-- Node3&#45;&gt;Node27 -->
<g id="edge26" class="edge"><title>Node3&#45;&gt;Node27</title>
<path fill="none" stroke="midnightblue" d="M1726.12,-130.784C1692.77,-118.181 1649.45,-101.808 1623.51,-92.007"/>
<polygon fill="midnightblue" stroke="midnightblue" points="1725.09,-134.135 1735.68,-134.396 1727.56,-127.587 1725.09,-134.135"/>
</g>
<!-- Node28 -->
<g id="node28" class="node"><title>Node28</title>
<g id="a_node28"><a xlink:href="RepositoryBenchmark_8cxx.html" target="_top" xlink:title="Framework/src/Repository\lBenchmark.cxx">
<polygon fill="none" stroke="black" points="1707,-67.5 1707,-97.5 1839,-97.5 1839,-67.5 1707,-67.5"/>
<text text-anchor="start" x="1715" y="-85.5" font-family="Helvetica,sans-Serif" font-size="10.00">Framework/src/Repository</text>
<text text-anchor="middle" x="1773" y="-74.5" font-family="Helvetica,sans-Serif" font-size="10.00">Benchmark.cxx</text>
</a>
</g>
</g>
<!-- Node3&#45;&gt;Node28 -->
<g id="edge27" class="edge"><title>Node3&#45;&gt;Node28</title>
<path fill="none" stroke="midnightblue" d="M1773,-124.108C1773,-115.154 1773,-105.323 1773,-97.5765"/>
<polygon fill="midnightblue" stroke="midnightblue" points="1769.5,-124.396 1773,-134.396 1776.5,-124.396 1769.5,-124.396"/>
</g>
<!-- Node29 -->
<g id="node29" class="node"><title>Node29</title>
<g id="a_node29"><a xlink:href="testQcInfoLogger_8cxx.html" target="_top" xlink:title="Framework/test/testQcInfo\lLogger.cxx">
<polygon fill="none" stroke="black" points="1857,-67.5 1857,-97.5 1991,-97.5 1991,-67.5 1857,-67.5"/>
<text text-anchor="start" x="1865" y="-85.5" font-family="Helvetica,sans-Serif" font-size="10.00">Framework/test/testQcInfo</text>
<text text-anchor="middle" x="1924" y="-74.5" font-family="Helvetica,sans-Serif" font-size="10.00">Logger.cxx</text>
</a>
</g>
</g>
<!-- Node3&#45;&gt;Node29 -->
<g id="edge29" class="edge"><title>Node3&#45;&gt;Node29</title>
<path fill="none" stroke="midnightblue" d="M1815.03,-130.407C1839.14,-120.029 1868.95,-107.195 1891.3,-97.5765"/>
<polygon fill="midnightblue" stroke="midnightblue" points="1813.57,-127.227 1805.76,-134.396 1816.33,-133.657 1813.57,-127.227"/>
</g>
<!-- Node30 -->
<g id="node30" class="node"><title>Node30</title>
<g id="a_node30"><a xlink:href="DaqTask_8cxx.html" target="_top" xlink:title="Modules/Daq/src/DaqTask.cxx">
<polygon fill="none" stroke="black" points="583,-73 583,-92 735,-92 735,-73 583,-73"/>
<text text-anchor="middle" x="659" y="-80" font-family="Helvetica,sans-Serif" font-size="10.00">Modules/Daq/src/DaqTask.cxx</text>
</a>
</g>
</g>
<!-- Node3&#45;&gt;Node30 -->
<g id="edge30" class="edge"><title>Node3&#45;&gt;Node30</title>
<path fill="none" stroke="midnightblue" d="M1696.34,-144.726C1539.1,-136.884 1168.72,-117.893 858,-98 817.381,-95.3995 772.126,-92.1315 735.048,-89.3566"/>
<polygon fill="midnightblue" stroke="midnightblue" points="1696.23,-148.224 1706.39,-145.226 1696.57,-141.233 1696.23,-148.224"/>
</g>
<!-- Node31 -->
<g id="node31" class="node"><title>Node31</title>
<g id="a_node31"><a xlink:href="DigitsQcTask_8cxx.html" target="_top" xlink:title="Modules/EMCAL/src/Digits\lQcTask.cxx">
<polygon fill="none" stroke="black" points="2503,-67.5 2503,-97.5 2639,-97.5 2639,-67.5 2503,-67.5"/>
<text text-anchor="start" x="2511" y="-85.5" font-family="Helvetica,sans-Serif" font-size="10.00">Modules/EMCAL/src/Digits</text>
<text text-anchor="middle" x="2571" y="-74.5" font-family="Helvetica,sans-Serif" font-size="10.00">QcTask.cxx</text>
</a>
</g>
</g>
<!-- Node3&#45;&gt;Node31 -->
<g id="edge31" class="edge"><title>Node3&#45;&gt;Node31</title>
<path fill="none" stroke="midnightblue" d="M1849.82,-133.888C2135.16,-99.416 2211.89,-132.275 2494,-98 2496.84,-97.6555 2499.72,-97.2699 2502.64,-96.8523"/>
<polygon fill="midnightblue" stroke="midnightblue" points="1849.08,-130.452 1839.58,-135.143 1849.93,-137.4 1849.08,-130.452"/>
</g>
<!-- Node32 -->
<g id="node32" class="node"><title>Node32</title>
<g id="a_node32"><a xlink:href="BenchmarkTask_8cxx.html" target="_top" xlink:title="Modules/Example/src\l/BenchmarkTask.cxx">
<polygon fill="none" stroke="black" points="2657.5,-67.5 2657.5,-97.5 2768.5,-97.5 2768.5,-67.5 2657.5,-67.5"/>
<text text-anchor="start" x="2665.5" y="-85.5" font-family="Helvetica,sans-Serif" font-size="10.00">Modules/Example/src</text>
<text text-anchor="middle" x="2713" y="-74.5" font-family="Helvetica,sans-Serif" font-size="10.00">/BenchmarkTask.cxx</text>
</a>
</g>
</g>
<!-- Node3&#45;&gt;Node32 -->
<g id="edge32" class="edge"><title>Node3&#45;&gt;Node32</title>
<path fill="none" stroke="midnightblue" d="M1849.58,-133.933C2203.2,-93.0802 2298.46,-144.489 2648,-98 2651.09,-97.5884 2654.26,-97.1024 2657.45,-96.5621"/>
<polygon fill="midnightblue" stroke="midnightblue" points="1849.1,-130.465 1839.58,-135.105 1849.92,-137.418 1849.1,-130.465"/>
</g>
<!-- Node33 -->
<g id="node33" class="node"><title>Node33</title>
<g id="a_node33"><a xlink:href="ExampleTask_8cxx.html" target="_top" xlink:title="Modules/Example/src\l/ExampleTask.cxx">
<polygon fill="none" stroke="black" points="867.5,-67.5 867.5,-97.5 978.5,-97.5 978.5,-67.5 867.5,-67.5"/>
<text text-anchor="start" x="875.5" y="-85.5" font-family="Helvetica,sans-Serif" font-size="10.00">Modules/Example/src</text>
<text text-anchor="middle" x="923" y="-74.5" font-family="Helvetica,sans-Serif" font-size="10.00">/ExampleTask.cxx</text>
</a>
</g>
</g>
<!-- Node3&#45;&gt;Node33 -->
<g id="edge33" class="edge"><title>Node3&#45;&gt;Node33</title>
<path fill="none" stroke="midnightblue" d="M1696.1,-147.598C1554.91,-145.047 1245.12,-135.292 987,-98 984.294,-97.609 981.533,-97.1639 978.75,-96.6783"/>
<polygon fill="midnightblue" stroke="midnightblue" points="1696.32,-151.102 1706.38,-147.776 1696.45,-144.103 1696.32,-151.102"/>
</g>
<!-- Node34 -->
<g id="node34" class="node"><title>Node34</title>
<g id="a_node34"><a xlink:href="SkeletonTask_8cxx.html" target="_top" xlink:title="Modules/Skeleton/src\l/SkeletonTask.cxx">
<polygon fill="none" stroke="black" points="996.5,-67.5 996.5,-97.5 1107.5,-97.5 1107.5,-67.5 996.5,-67.5"/>
<text text-anchor="start" x="1004.5" y="-85.5" font-family="Helvetica,sans-Serif" font-size="10.00">Modules/Skeleton/src</text>
<text text-anchor="middle" x="1052" y="-74.5" font-family="Helvetica,sans-Serif" font-size="10.00">/SkeletonTask.cxx</text>
</a>
</g>
</g>
<!-- Node3&#45;&gt;Node34 -->
<g id="edge34" class="edge"><title>Node3&#45;&gt;Node34</title>
<path fill="none" stroke="midnightblue" d="M1696.35,-146.239C1573.34,-141.797 1324.5,-129.46 1116,-98 1113.3,-97.5921 1110.54,-97.1332 1107.76,-96.6364"/>
<polygon fill="midnightblue" stroke="midnightblue" points="1696.31,-149.739 1706.43,-146.595 1696.56,-142.744 1696.31,-149.739"/>
</g>
<!-- Node35 -->
<g id="node35" class="node"><title>Node35</title>
<g id="a_node35"><a xlink:href="TOFTask_8cxx.html" target="_top" xlink:title="Modules/TOF/src/TOFTask.cxx">
<polygon fill="none" stroke="black" points="2786.5,-73 2786.5,-92 2941.5,-92 2941.5,-73 2786.5,-73"/>
<text text-anchor="middle" x="2864" y="-80" font-family="Helvetica,sans-Serif" font-size="10.00">Modules/TOF/src/TOFTask.cxx</text>
</a>
</g>
</g>
<!-- Node3&#45;&gt;Node35 -->
<g id="edge35" class="edge"><title>Node3&#45;&gt;Node35</title>
<path fill="none" stroke="midnightblue" d="M1849.64,-133.933C2260.23,-87.5008 2369.26,-139.71 2777,-98 2790.86,-96.582 2805.86,-94.3399 2819.44,-92.0388"/>
<polygon fill="midnightblue" stroke="midnightblue" points="1849.11,-130.47 1839.57,-135.084 1849.91,-137.425 1849.11,-130.47"/>
</g>
<!-- Node5 -->
<g id="node5" class="node"><title>Node5</title>
<g id="a_node5"><a xlink:href="Checker_8cxx.html" target="_top" xlink:title="Framework/src/Checker.cxx">
<polygon fill="none" stroke="black" points="512,-6 512,-25 652,-25 652,-6 512,-6"/>
<text text-anchor="middle" x="582" y="-13" font-family="Helvetica,sans-Serif" font-size="10.00">Framework/src/Checker.cxx</text>
</a>
</g>
</g>
<!-- Node4&#45;&gt;Node5 -->
<g id="edge4" class="edge"><title>Node4&#45;&gt;Node5</title>
<path fill="none" stroke="midnightblue" d="M2189.12,-70.7132C2176.41,-69.244 2163.35,-67.9254 2151,-67 1490.44,-17.5036 1319.92,-99.0029 661,-31 648.1,-29.6687 634.147,-27.391 621.608,-25.0303"/>
<polygon fill="midnightblue" stroke="midnightblue" points="2188.88,-74.2089 2199.22,-71.9191 2189.71,-67.2583 2188.88,-74.2089"/>
</g>
<!-- Node6 -->
<g id="node6" class="node"><title>Node6</title>
<g id="a_node6"><a xlink:href="CheckerFactory_8cxx.html" target="_top" xlink:title="Framework/src/CheckerFactory.cxx">
<polygon fill="none" stroke="black" points="3175.5,-6 3175.5,-25 3348.5,-25 3348.5,-6 3175.5,-6"/>
<text text-anchor="middle" x="3262" y="-13" font-family="Helvetica,sans-Serif" font-size="10.00">Framework/src/CheckerFactory.cxx</text>
</a>
</g>
</g>
<!-- Node4&#45;&gt;Node6 -->
<g id="edge5" class="edge"><title>Node4&#45;&gt;Node6</title>
<path fill="none" stroke="midnightblue" d="M2342.7,-67.0565C2707.84,-25.2896 2804.44,-66.1033 3166,-31 3181.1,-29.534 3197.45,-27.3067 3212.3,-25.0345"/>
<polygon fill="midnightblue" stroke="midnightblue" points="2342.18,-63.5934 2332.64,-68.2194 2342.98,-70.547 2342.18,-63.5934"/>
</g>
<!-- Node7 -->
<g id="node7" class="node"><title>Node7</title>
<g id="a_node7"><a xlink:href="runBasic_8cxx.html" target="_top" xlink:title="This is an executable showing QC Task&#39;s usage in Data Processing Layer. ">
<polygon fill="none" stroke="black" points="3367,-6 3367,-25 3509,-25 3509,-6 3367,-6"/>
<text text-anchor="middle" x="3438" y="-13" font-family="Helvetica,sans-Serif" font-size="10.00">Framework/src/runBasic.cxx</text>
</a>
</g>
</g>
<!-- Node4&#45;&gt;Node7 -->
<g id="edge6" class="edge"><title>Node4&#45;&gt;Node7</title>
<path fill="none" stroke="midnightblue" d="M2342.66,-67.0709C2792.75,-17.4283 2912.05,-79.0621 3358,-31 3370.91,-29.6085 3384.87,-27.3445 3397.47,-25.0147"/>
<polygon fill="midnightblue" stroke="midnightblue" points="2342.19,-63.6011 2332.64,-68.188 2342.97,-70.558 2342.19,-63.6011"/>
</g>
<!-- Node8 -->
<g id="node8" class="node"><title>Node8</title>
<g id="a_node8"><a xlink:href="runMergerTest_8cxx.html" target="_top" xlink:title="This is DPL workflow to see HistoMerger in action. ">
<polygon fill="none" stroke="black" points="2056.5,-6 2056.5,-25 2223.5,-25 2223.5,-6 2056.5,-6"/>
<text text-anchor="middle" x="2140" y="-13" font-family="Helvetica,sans-Serif" font-size="10.00">Framework/src/runMergerTest.cxx</text>
</a>
</g>
</g>
<!-- Node4&#45;&gt;Node8 -->
<g id="edge7" class="edge"><title>Node4&#45;&gt;Node8</title>
<path fill="none" stroke="midnightblue" d="M2229.76,-62.8029C2205.6,-50.3418 2175,-34.5558 2156.49,-25.007"/>
<polygon fill="midnightblue" stroke="midnightblue" points="2228.17,-65.9218 2238.66,-67.396 2231.38,-59.7008 2228.17,-65.9218"/>
</g>
<!-- Node9 -->
<g id="node9" class="node"><title>Node9</title>
<g id="a_node9"><a xlink:href="runReadout_8cxx.html" target="_top" xlink:title="This is an executable showing QC Task&#39;s usage in Data Processing Layer with Readout as external data ...">
<polygon fill="none" stroke="black" points="2242,-6 2242,-25 2396,-25 2396,-6 2242,-6"/>
<text text-anchor="middle" x="2319" y="-13" font-family="Helvetica,sans-Serif" font-size="10.00">Framework/src/runReadout.cxx</text>
</a>
</g>
</g>
<!-- Node4&#45;&gt;Node9 -->
<g id="edge8" class="edge"><title>Node4&#45;&gt;Node9</title>
<path fill="none" stroke="midnightblue" d="M2284.09,-59.3163C2293.64,-47.5978 2304.83,-33.8829 2311.91,-25.1945"/>
<polygon fill="midnightblue" stroke="midnightblue" points="2281.11,-57.434 2277.5,-67.396 2286.53,-61.8576 2281.11,-57.434"/>
</g>
<!-- Node10 -->
<g id="node10" class="node"><title>Node10</title>
<g id="a_node10"><a xlink:href="testChecker_8cxx.html" target="_top" xlink:title="Framework/test/testChecker.cxx">
<polygon fill="none" stroke="black" points="2414,-6 2414,-25 2574,-25 2574,-6 2414,-6"/>
<text text-anchor="middle" x="2494" y="-13" font-family="Helvetica,sans-Serif" font-size="10.00">Framework/test/testChecker.cxx</text>
</a>
</g>
</g>
<!-- Node4&#45;&gt;Node10 -->
<g id="edge9" class="edge"><title>Node4&#45;&gt;Node10</title>
<path fill="none" stroke="midnightblue" d="M2325.03,-64.6705C2369.59,-51.967 2428.88,-35.064 2464.08,-25.0287"/>
<polygon fill="midnightblue" stroke="midnightblue" points="2323.85,-61.3684 2315.19,-67.476 2325.77,-68.1002 2323.85,-61.3684"/>
</g>
<!-- Node11 -->
<g id="node11" class="node"><title>Node11</title>
<g id="a_node11"><a xlink:href="testWorkflow_8cxx.html" target="_top" xlink:title="Framework/test/testWorkflow.cxx">
<polygon fill="none" stroke="black" points="2592,-6 2592,-25 2756,-25 2756,-6 2592,-6"/>
<text text-anchor="middle" x="2674" y="-13" font-family="Helvetica,sans-Serif" font-size="10.00">Framework/test/testWorkflow.cxx</text>
</a>
</g>
</g>
<!-- Node4&#45;&gt;Node11 -->
<g id="edge10" class="edge"><title>Node4&#45;&gt;Node11</title>
<path fill="none" stroke="midnightblue" d="M2342.68,-66.9261C2450.43,-48.7574 2479.1,-47.037 2583,-31 2595.33,-29.0964 2608.6,-27.0068 2621.08,-25.0211"/>
<polygon fill="midnightblue" stroke="midnightblue" points="2341.98,-63.4951 2332.7,-68.617 2343.14,-70.3967 2341.98,-63.4951"/>
</g>
<!-- Node12 -->
<g id="node12" class="node"><title>Node12</title>
<polygon fill="none" stroke="#bfbfbf" points="2774,-6 2774,-25 2992,-25 2992,-6 2774,-6"/>
<text text-anchor="middle" x="2883" y="-13" font-family="Helvetica,sans-Serif" font-size="10.00">Modules/EMCAL/src/runQCEMCALDigits.cxx</text>
</g>
<!-- Node4&#45;&gt;Node12 -->
<g id="edge11" class="edge"><title>Node4&#45;&gt;Node12</title>
<path fill="none" stroke="midnightblue" d="M2342.6,-67.019C2530.61,-41.5922 2580.54,-50.1761 2765,-31 2781.94,-29.2393 2800.21,-27.1075 2817.2,-25.0267"/>
<polygon fill="midnightblue" stroke="midnightblue" points="2342.1,-63.5547 2332.66,-68.3765 2343.05,-70.4903 2342.1,-63.5547"/>
</g>
<!-- Node13 -->
<g id="node13" class="node"><title>Node13</title>
<g id="a_node13"><a xlink:href="runTOF_8cxx.html" target="_top" xlink:title="This is an executable showing QC Task&#39;s usage in Data Processing Layer. ">
<polygon fill="none" stroke="black" points="3010.5,-6 3010.5,-25 3157.5,-25 3157.5,-6 3010.5,-6"/>
<text text-anchor="middle" x="3084" y="-13" font-family="Helvetica,sans-Serif" font-size="10.00">Modules/TOF/src/runTOF.cxx</text>
</a>
</g>
</g>
<!-- Node4&#45;&gt;Node13 -->
<g id="edge12" class="edge"><title>Node4&#45;&gt;Node13</title>
<path fill="none" stroke="midnightblue" d="M2342.69,-67.0465C2634.9,-32.1641 2712.84,-63.9239 3001,-31 3013.93,-29.5221 3027.91,-27.3193 3040.63,-25.0742"/>
<polygon fill="midnightblue" stroke="midnightblue" points="2342.16,-63.5854 2332.65,-68.261 2343,-70.5347 2342.16,-63.5854"/>
</g>
<!-- Node14&#45;&gt;Node15 -->
<g id="edge14" class="edge"><title>Node14&#45;&gt;Node15</title>
<path fill="none" stroke="midnightblue" d="M2042.04,-62.4727C2019.9,-50.0641 1992.07,-34.4716 1975.18,-25.007"/>
<polygon fill="midnightblue" stroke="midnightblue" points="2040.4,-65.5609 2050.83,-67.396 2043.82,-59.4543 2040.4,-65.5609"/>
</g>
<!-- Node14&#45;&gt;Node16 -->
<g id="edge15" class="edge"><title>Node14&#45;&gt;Node16</title>
<path fill="none" stroke="midnightblue" d="M1999.28,-67.0667C1495.29,-12.2502 1362.76,-75.085 862,-31 846.01,-29.5923 828.676,-27.3385 813,-25.0233"/>
<polygon fill="midnightblue" stroke="midnightblue" points="1999.04,-70.5613 2009.36,-68.1735 1999.8,-63.6031 1999.04,-70.5613"/>
</g>
<!-- Node17 -->
<g id="node17" class="node"><title>Node17</title>
<g id="a_node17"><a xlink:href="testQcDaq_8cxx.html" target="_top" xlink:title="Modules/Daq/test/testQcDaq.cxx">
<polygon fill="none" stroke="black" points="871.5,-6 871.5,-25 1034.5,-25 1034.5,-6 871.5,-6"/>
<text text-anchor="middle" x="953" y="-13" font-family="Helvetica,sans-Serif" font-size="10.00">Modules/Daq/test/testQcDaq.cxx</text>
</a>
</g>
</g>
<!-- Node14&#45;&gt;Node17 -->
<g id="edge16" class="edge"><title>Node14&#45;&gt;Node17</title>
<path fill="none" stroke="midnightblue" d="M1999.3,-67.0626C1575.78,-19.8515 1463.85,-72.2038 1044,-31 1029.51,-29.5781 1013.82,-27.3349 999.623,-25.034"/>
<polygon fill="midnightblue" stroke="midnightblue" points="1999.03,-70.5547 2009.36,-68.1965 1999.81,-63.5987 1999.03,-70.5547"/>
</g>
<!-- Node18 -->
<g id="node18" class="node"><title>Node18</title>
<g id="a_node18"><a xlink:href="testEMCAL_8cxx.html" target="_top" xlink:title="Modules/EMCAL/test\l/testEMCAL.cxx">
<polygon fill="none" stroke="black" points="1753,-0.5 1753,-30.5 1863,-30.5 1863,-0.5 1753,-0.5"/>
<text text-anchor="start" x="1761" y="-18.5" font-family="Helvetica,sans-Serif" font-size="10.00">Modules/EMCAL/test</text>
<text text-anchor="middle" x="1808" y="-7.5" font-family="Helvetica,sans-Serif" font-size="10.00">/testEMCAL.cxx</text>
</a>
</g>
</g>
<!-- Node14&#45;&gt;Node18 -->
<g id="edge17" class="edge"><title>Node14&#45;&gt;Node18</title>
<path fill="none" stroke="midnightblue" d="M2008.25,-65.069C1963.46,-54.2047 1905.47,-40.1393 1863.43,-29.9431"/>
<polygon fill="midnightblue" stroke="midnightblue" points="2007.63,-68.5203 2018.18,-67.476 2009.28,-61.7175 2007.63,-68.5203"/>
</g>
<!-- Node19 -->
<g id="node19" class="node"><title>Node19</title>
<polygon fill="none" stroke="#bfbfbf" points="1053,-0.5 1053,-30.5 1167,-30.5 1167,-0.5 1053,-0.5"/>
<text text-anchor="start" x="1061" y="-18.5" font-family="Helvetica,sans-Serif" font-size="10.00">Modules/Example/test</text>
<text text-anchor="middle" x="1110" y="-7.5" font-family="Helvetica,sans-Serif" font-size="10.00">/testFactory.cxx</text>
</g>
<!-- Node14&#45;&gt;Node19 -->
<g id="edge18" class="edge"><title>Node14&#45;&gt;Node19</title>
<path fill="none" stroke="midnightblue" d="M1999.3,-67.0595C1634.13,-25.506 1536.2,-78.077 1176,-31 1173.09,-30.6199 1170.12,-30.1758 1167.13,-29.6837"/>
<polygon fill="midnightblue" stroke="midnightblue" points="1999.02,-70.5501 2009.36,-68.2194 1999.82,-63.5962 1999.02,-70.5501"/>
</g>
<!-- Node20 -->
<g id="node20" class="node"><title>Node20</title>
<g id="a_node20"><a xlink:href="testQcExample_8cxx.html" target="_top" xlink:title="Modules/Example/test\l/testQcExample.cxx">
<polygon fill="none" stroke="black" points="1185,-0.5 1185,-30.5 1299,-30.5 1299,-0.5 1185,-0.5"/>
<text text-anchor="start" x="1193" y="-18.5" font-family="Helvetica,sans-Serif" font-size="10.00">Modules/Example/test</text>
<text text-anchor="middle" x="1242" y="-7.5" font-family="Helvetica,sans-Serif" font-size="10.00">/testQcExample.cxx</text>
</a>
</g>
</g>
<!-- Node14&#45;&gt;Node20 -->
<g id="edge19" class="edge"><title>Node14&#45;&gt;Node20</title>
<path fill="none" stroke="midnightblue" d="M1999.28,-67.0478C1692.49,-30.951 1609.93,-71.7387 1308,-31 1305.09,-30.6078 1302.13,-30.154 1299.13,-29.6542"/>
<polygon fill="midnightblue" stroke="midnightblue" points="1999.01,-70.5403 2009.35,-68.2511 1999.84,-63.5897 1999.01,-70.5403"/>
</g>
<!-- Node21 -->
<g id="node21" class="node"><title>Node21</title>
<polygon fill="none" stroke="#bfbfbf" points="1449,-0.5 1449,-30.5 1563,-30.5 1563,-0.5 1449,-0.5"/>
<text text-anchor="start" x="1457" y="-18.5" font-family="Helvetica,sans-Serif" font-size="10.00">Modules/Skeleton/test</text>
<text text-anchor="middle" x="1506" y="-7.5" font-family="Helvetica,sans-Serif" font-size="10.00">/.testEmpty.cxx</text>
</g>
<!-- Node14&#45;&gt;Node21 -->
<g id="edge20" class="edge"><title>Node14&#45;&gt;Node21</title>
<path fill="none" stroke="midnightblue" d="M1999.29,-67.0129C1809.12,-41.6944 1757.52,-59.0556 1572,-31 1569.1,-30.5615 1566.14,-30.0703 1563.15,-29.5409"/>
<polygon fill="midnightblue" stroke="midnightblue" points="1998.96,-70.4997 2009.34,-68.3727 1999.9,-63.563 1998.96,-70.4997"/>
</g>
<!-- Node22 -->
<g id="node22" class="node"><title>Node22</title>
<g id="a_node22"><a xlink:href="testQcSkeleton_8cxx.html" target="_top" xlink:title="Modules/Skeleton/test\l/testQcSkeleton.cxx">
<polygon fill="none" stroke="black" points="1317,-0.5 1317,-30.5 1431,-30.5 1431,-0.5 1317,-0.5"/>
<text text-anchor="start" x="1325" y="-18.5" font-family="Helvetica,sans-Serif" font-size="10.00">Modules/Skeleton/test</text>
<text text-anchor="middle" x="1374" y="-7.5" font-family="Helvetica,sans-Serif" font-size="10.00">/testQcSkeleton.cxx</text>
</a>
</g>
</g>
<!-- Node14&#45;&gt;Node22 -->
<g id="edge21" class="edge"><title>Node14&#45;&gt;Node22</title>
<path fill="none" stroke="midnightblue" d="M1999.29,-67.0358C1750.82,-36.3565 1683.7,-65.3995 1440,-31 1437.1,-30.5901 1434.13,-30.1219 1431.14,-29.6108"/>
<polygon fill="midnightblue" stroke="midnightblue" points="1998.99,-70.5253 2009.35,-68.2977 1999.86,-63.5798 1998.99,-70.5253"/>
</g>
<!-- Node23 -->
<g id="node23" class="node"><title>Node23</title>
<g id="a_node23"><a xlink:href="testTOF_8cxx.html" target="_top" xlink:title="Modules/TOF/test/testTOF.cxx">
<polygon fill="none" stroke="black" points="1581.5,-6 1581.5,-25 1734.5,-25 1734.5,-6 1581.5,-6"/>
<text text-anchor="middle" x="1658" y="-13" font-family="Helvetica,sans-Serif" font-size="10.00">Modules/TOF/test/testTOF.cxx</text>
</a>
</g>
</g>
<!-- Node14&#45;&gt;Node23 -->
<g id="edge22" class="edge"><title>Node14&#45;&gt;Node23</title>
<path fill="none" stroke="midnightblue" d="M1999.1,-66.9039C1884.93,-48.2321 1854.33,-48.0558 1744,-31 1732.03,-29.1495 1719.14,-27.0395 1707.08,-25.013"/>
<polygon fill="midnightblue" stroke="midnightblue" points="1998.87,-70.4121 2009.3,-68.5845 2000.01,-63.5052 1998.87,-70.4121"/>
</g>
<!-- Node36&#45;&gt;Node5 -->
<g id="edge37" class="edge"><title>Node36&#45;&gt;Node5</title>
<path fill="none" stroke="midnightblue" d="M466.009,-63.6214C496.978,-51.0403 537.037,-34.7661 561.06,-25.007"/>
<polygon fill="midnightblue" stroke="midnightblue" points="464.665,-60.3895 456.718,-67.396 467.3,-66.8748 464.665,-60.3895"/>
</g>
<!-- Node36&#45;&gt;Node15 -->
<g id="edge39" class="edge"><title>Node36&#45;&gt;Node15</title>
<path fill="none" stroke="midnightblue" d="M498.662,-73.1719C522.749,-70.828 549.46,-68.5091 574,-67 1150.02,-31.5776 1297.52,-86.0399 1872,-31 1886.18,-29.6414 1901.53,-27.3866 1915.39,-25.0553"/>
<polygon fill="midnightblue" stroke="midnightblue" points="498.121,-69.7083 488.514,-74.1756 498.81,-76.6743 498.121,-69.7083"/>
</g>
<!-- Node37 -->
<g id="node37" class="node"><title>Node37</title>
<polygon fill="none" stroke="#bfbfbf" points="350.5,-0.5 350.5,-30.5 493.5,-30.5 493.5,-0.5 350.5,-0.5"/>
<text text-anchor="start" x="358.5" y="-18.5" font-family="Helvetica,sans-Serif" font-size="10.00">Framework/src/Infrastructure</text>
<text text-anchor="middle" x="422" y="-7.5" font-family="Helvetica,sans-Serif" font-size="10.00">Generator.cxx</text>
</g>
<!-- Node36&#45;&gt;Node37 -->
<g id="edge38" class="edge"><title>Node36&#45;&gt;Node37</title>
<path fill="none" stroke="midnightblue" d="M422,-57.1081C422,-48.1539 422,-38.3227 422,-30.5765"/>
<polygon fill="midnightblue" stroke="midnightblue" points="418.5,-57.3959 422,-67.396 425.5,-57.396 418.5,-57.3959"/>
</g>
<!-- Node38 -->
<g id="node38" class="node"><title>Node38</title>
<g id="a_node38"><a xlink:href="TaskRunnerFactory_8cxx.html" target="_top" xlink:title="Framework/src/TaskRunner\lFactory.cxx">
<polygon fill="none" stroke="black" points="0,-0.5 0,-30.5 138,-30.5 138,-0.5 0,-0.5"/>
<text text-anchor="start" x="8" y="-18.5" font-family="Helvetica,sans-Serif" font-size="10.00">Framework/src/TaskRunner</text>
<text text-anchor="middle" x="69" y="-7.5" font-family="Helvetica,sans-Serif" font-size="10.00">Factory.cxx</text>
</a>
</g>
</g>
<!-- Node36&#45;&gt;Node38 -->
<g id="edge40" class="edge"><title>Node36&#45;&gt;Node38</title>
<path fill="none" stroke="midnightblue" d="M345.261,-67.4543C290.099,-57.3467 213.955,-43.3711 147,-31 144.156,-30.4745 141.253,-29.9376 138.321,-29.3947"/>
<polygon fill="midnightblue" stroke="midnightblue" points="344.842,-70.9358 355.309,-69.2953 346.104,-64.0504 344.842,-70.9358"/>
</g>
<!-- Node39 -->
<g id="node39" class="node"><title>Node39</title>
<g id="a_node39"><a xlink:href="testTaskRunner_8cxx.html" target="_top" xlink:title="Framework/test/testTaskRunner.cxx">
<polygon fill="none" stroke="black" points="156,-6 156,-25 332,-25 332,-6 156,-6"/>
<text text-anchor="middle" x="244" y="-13" font-family="Helvetica,sans-Serif" font-size="10.00">Framework/test/testTaskRunner.cxx</text>
</a>
</g>
</g>
<!-- Node36&#45;&gt;Node39 -->
<g id="edge41" class="edge"><title>Node36&#45;&gt;Node39</title>
<path fill="none" stroke="midnightblue" d="M373.929,-63.9459C339.357,-51.3213 294.251,-34.8502 267.296,-25.007"/>
<polygon fill="midnightblue" stroke="midnightblue" points="372.783,-67.2534 383.377,-67.396 375.184,-60.6781 372.783,-67.2534"/>
</g>
<!-- Node41&#45;&gt;Node17 -->
<g id="edge47" class="edge"><title>Node41&#45;&gt;Node17</title>
<path fill="none" stroke="midnightblue" d="M616.347,-129.682C585.976,-113.724 553.83,-89.8487 574,-67 616.685,-18.6472 798.144,-40.0759 862,-31 874.829,-29.1766 888.65,-27.0554 901.551,-25.0074"/>
<polygon fill="midnightblue" stroke="midnightblue" points="615.15,-132.998 625.656,-134.37 618.299,-126.746 615.15,-132.998"/>
</g>
<!-- Node41&#45;&gt;Node30 -->
<g id="edge46" class="edge"><title>Node41&#45;&gt;Node30</title>
<path fill="none" stroke="midnightblue" d="M659,-124.25C659,-113.017 659,-100.377 659,-92.1945"/>
<polygon fill="midnightblue" stroke="midnightblue" points="655.5,-124.396 659,-134.396 662.5,-124.396 655.5,-124.396"/>
</g>
<!-- Node42&#45;&gt;Node31 -->
<g id="edge49" class="edge"><title>Node42&#45;&gt;Node31</title>
<path fill="none" stroke="midnightblue" d="M1992.79,-134.024C2215.39,-104.518 2275.42,-126.323 2494,-98 2496.83,-97.6329 2499.72,-97.2285 2502.63,-96.7953"/>
<polygon fill="midnightblue" stroke="midnightblue" points="1992.19,-130.572 1982.75,-135.374 1993.13,-137.51 1992.19,-130.572"/>
</g>
<!-- Node43&#45;&gt;Node32 -->
<g id="edge51" class="edge"><title>Node43&#45;&gt;Node32</title>
<path fill="none" stroke="midnightblue" d="M2151.1,-133.96C2371.87,-106.628 2431.66,-129.773 2648,-98 2651.09,-97.5464 2654.25,-97.0272 2657.43,-96.4612"/>
<polygon fill="midnightblue" stroke="midnightblue" points="2150.63,-130.492 2141.15,-135.213 2151.51,-137.437 2150.63,-130.492"/>
</g>
<!-- Node45 -->
<g id="node45" class="node"><title>Node45</title>
<g id="a_node45"><a xlink:href="ExampleCondition_8cxx.html" target="_top" xlink:title="Modules/Example/src\l/ExampleCondition.cxx">
<polygon fill="none" stroke="black" points="2960,-67.5 2960,-97.5 3078,-97.5 3078,-67.5 2960,-67.5"/>
<text text-anchor="start" x="2968" y="-85.5" font-family="Helvetica,sans-Serif" font-size="10.00">Modules/Example/src</text>
<text text-anchor="middle" x="3019" y="-74.5" font-family="Helvetica,sans-Serif" font-size="10.00">/ExampleCondition.cxx</text>
</a>
</g>
</g>
<!-- Node44&#45;&gt;Node45 -->
<g id="edge53" class="edge"><title>Node44&#45;&gt;Node45</title>
<path fill="none" stroke="midnightblue" d="M2842.46,-131.715C2881.19,-121.137 2930.63,-107.635 2967.33,-97.6109"/>
<polygon fill="midnightblue" stroke="midnightblue" points="2841.07,-128.465 2832.35,-134.476 2842.92,-135.218 2841.07,-128.465"/>
</g>
<!-- Node46&#45;&gt;Node19 -->
<g id="edge56" class="edge"><title>Node46&#45;&gt;Node19</title>
<path fill="none" stroke="midnightblue" d="M819.346,-128.848C794.919,-112.142 769.05,-87.6509 787,-67 824.688,-23.6414 986.443,-41.0826 1043,-31 1046.16,-30.436 1049.4,-29.8297 1052.67,-29.1963"/>
<polygon fill="midnightblue" stroke="midnightblue" points="817.568,-131.867 827.852,-134.413 821.4,-126.009 817.568,-131.867"/>
</g>
<!-- Node46&#45;&gt;Node20 -->
<g id="edge57" class="edge"><title>Node46&#45;&gt;Node20</title>
<path fill="none" stroke="midnightblue" d="M842.269,-125.148C835.741,-107.058 831.061,-82.5367 845,-67 894.409,-11.9258 1102.98,-42.9557 1176,-31 1178.89,-30.5261 1181.85,-30.0064 1184.84,-29.4545"/>
<polygon fill="midnightblue" stroke="midnightblue" points="839.02,-126.45 845.979,-134.439 845.521,-123.854 839.02,-126.45"/>
</g>
<!-- Node46&#45;&gt;Node33 -->
<g id="edge55" class="edge"><title>Node46&#45;&gt;Node33</title>
<path fill="none" stroke="midnightblue" d="M875.818,-127.311C886.319,-117.561 898.49,-106.259 907.841,-97.5765"/>
<polygon fill="midnightblue" stroke="midnightblue" points="873.135,-125.027 868.189,-134.396 877.899,-130.156 873.135,-125.027"/>
</g>
<!-- Node47&#45;&gt;Node22 -->
<g id="edge60" class="edge"><title>Node47&#45;&gt;Node22</title>
<path fill="none" stroke="midnightblue" d="M977.162,-141.283C906.762,-131.703 817.73,-110.621 858,-67 892.025,-30.1446 1258.39,-38.3988 1308,-31 1310.9,-30.5674 1313.86,-30.081 1316.85,-29.5554"/>
<polygon fill="midnightblue" stroke="midnightblue" points="977.029,-144.795 987.397,-142.615 977.932,-137.854 977.029,-144.795"/>
</g>
<!-- Node47&#45;&gt;Node34 -->
<g id="edge59" class="edge"><title>Node47&#45;&gt;Node34</title>
<path fill="none" stroke="midnightblue" d="M1052,-124.108C1052,-115.154 1052,-105.323 1052,-97.5765"/>
<polygon fill="midnightblue" stroke="midnightblue" points="1048.5,-124.396 1052,-134.396 1055.5,-124.396 1048.5,-124.396"/>
</g>
<!-- Node48&#45;&gt;Node35 -->
<g id="edge62" class="edge"><title>Node48&#45;&gt;Node35</title>
<path fill="none" stroke="midnightblue" d="M2279.01,-134.008C2499.68,-102.003 2559.44,-123.921 2777,-98 2790.23,-96.4239 2804.51,-94.2444 2817.61,-92.0537"/>
<polygon fill="midnightblue" stroke="midnightblue" points="2278.44,-130.554 2269.06,-135.472 2279.46,-137.479 2278.44,-130.554"/>
</g>
</g>
</svg>
