<?xml version="1.0" encoding="UTF-8" standalone="no"?>
<!DOCTYPE svg PUBLIC "-//W3C//DTD SVG 1.1//EN"
 "http://www.w3.org/Graphics/SVG/1.1/DTD/svg11.dtd">
<!-- Generated by graphviz version 2.38.0 (20140413.2041)
 -->
<!-- Title: Modules/Example/src/BenchmarkTask.cxx Pages: 1 -->
<svg width="1295pt" height="397pt"
 viewBox="0.00 0.00 1295.00 397.00" xmlns="http://www.w3.org/2000/svg" xmlns:xlink="http://www.w3.org/1999/xlink">
<g id="graph0" class="graph" transform="scale(1 1) rotate(0) translate(4 393)">
<title>Modules/Example/src/BenchmarkTask.cxx</title>
<!-- Node1 -->
<g id="node1" class="node"><title>Node1</title>
<polygon fill="#bfbfbf" stroke="black" points="698.5,-358.5 698.5,-388.5 809.5,-388.5 809.5,-358.5 698.5,-358.5"/>
<text text-anchor="start" x="706.5" y="-376.5" font-family="Helvetica,sans-Serif" font-size="10.00">Modules/Example/src</text>
<text text-anchor="middle" x="754" y="-365.5" font-family="Helvetica,sans-Serif" font-size="10.00">/BenchmarkTask.cxx</text>
</g>
<!-- Node2 -->
<g id="node2" class="node"><title>Node2</title>
<g id="a_node2"><a xlink:href="BenchmarkTask_8h.html" target="_top" xlink:title="Example/BenchmarkTask.h">
<polygon fill="none" stroke="black" points="685.5,-302.5 685.5,-321.5 822.5,-321.5 822.5,-302.5 685.5,-302.5"/>
<text text-anchor="middle" x="754" y="-309.5" font-family="Helvetica,sans-Serif" font-size="10.00">Example/BenchmarkTask.h</text>
</a>
</g>
</g>
<!-- Node1&#45;&gt;Node2 -->
<g id="edge1" class="edge"><title>Node1&#45;&gt;Node2</title>
<path fill="none" stroke="midnightblue" d="M754,-358.399C754,-350.466 754,-340.458 754,-331.858"/>
<polygon fill="midnightblue" stroke="midnightblue" points="757.5,-331.658 754,-321.658 750.5,-331.658 757.5,-331.658"/>
</g>
<!-- Node23 -->
<g id="node23" class="node"><title>Node23</title>
<polygon fill="none" stroke="#bfbfbf" points="0,-62 0,-81 44,-81 44,-62 0,-62"/>
<text text-anchor="middle" x="22" y="-69" font-family="Helvetica,sans-Serif" font-size="10.00">thread</text>
</g>
<!-- Node1&#45;&gt;Node23 -->
<g id="edge42" class="edge"><title>Node1&#45;&gt;Node23</title>
<path fill="none" stroke="midnightblue" d="M698.314,-369.078C528.547,-357.911 29,-319.292 29,-251.5 29,-251.5 29,-251.5 29,-188 29,-153.801 25.9045,-114.01 23.8305,-91.1881"/>
<polygon fill="midnightblue" stroke="midnightblue" points="27.3104,-90.8095 22.8866,-81.1825 20.3413,-91.467 27.3104,-90.8095"/>
</g>
<!-- Node30 -->
<g id="node30" class="node"><title>Node30</title>
<g id="a_node30"><a xlink:href="QcInfoLogger_8h.html" target="_top" xlink:title="QualityControl/QcInfoLogger.h">
<polygon fill="none" stroke="black" points="518.5,-302.5 518.5,-321.5 667.5,-321.5 667.5,-302.5 518.5,-302.5"/>
<text text-anchor="middle" x="593" y="-309.5" font-family="Helvetica,sans-Serif" font-size="10.00">QualityControl/QcInfoLogger.h</text>
</a>
</g>
</g>
<!-- Node1&#45;&gt;Node30 -->
<g id="edge36" class="edge"><title>Node1&#45;&gt;Node30</title>
<path fill="none" stroke="midnightblue" d="M715.845,-358.399C688.47,-348.283 651.963,-334.791 625.874,-325.149"/>
<polygon fill="midnightblue" stroke="midnightblue" points="627.02,-321.841 616.427,-321.658 624.594,-328.407 627.02,-321.841"/>
</g>
<!-- Node32 -->
<g id="node32" class="node"><title>Node32</title>
<polygon fill="none" stroke="#bfbfbf" points="840.5,-302.5 840.5,-321.5 905.5,-321.5 905.5,-302.5 840.5,-302.5"/>
<text text-anchor="middle" x="873" y="-309.5" font-family="Helvetica,sans-Serif" font-size="10.00">TCanvas.h</text>
</g>
<!-- Node1&#45;&gt;Node32 -->
<g id="edge40" class="edge"><title>Node1&#45;&gt;Node32</title>
<path fill="none" stroke="midnightblue" d="M782.201,-358.399C801.722,-348.639 827.525,-335.737 846.635,-326.183"/>
<polygon fill="midnightblue" stroke="midnightblue" points="848.305,-329.26 855.684,-321.658 845.175,-322.999 848.305,-329.26"/>
</g>
<!-- Node33 -->
<g id="node33" class="node"><title>Node33</title>
<polygon fill="none" stroke="#bfbfbf" points="924,-302.5 924,-321.5 968,-321.5 968,-302.5 924,-302.5"/>
<text text-anchor="middle" x="946" y="-309.5" font-family="Helvetica,sans-Serif" font-size="10.00">TH1.h</text>
</g>
<!-- Node1&#45;&gt;Node33 -->
<g id="edge41" class="edge"><title>Node1&#45;&gt;Node33</title>
<path fill="none" stroke="midnightblue" d="M799.501,-358.399C834.77,-347.47 882.752,-332.6 914.043,-322.903"/>
<polygon fill="midnightblue" stroke="midnightblue" points="915.456,-326.13 923.972,-319.826 913.384,-319.443 915.456,-326.13"/>
</g>
<!-- Node3 -->
<g id="node3" class="node"><title>Node3</title>
<g id="a_node3"><a xlink:href="TaskInterface_8h.html" target="_top" xlink:title="QualityControl/TaskInterface.h">
<polygon fill="none" stroke="black" points="518,-241 518,-260 668,-260 668,-241 518,-241"/>
<text text-anchor="middle" x="593" y="-248" font-family="Helvetica,sans-Serif" font-size="10.00">QualityControl/TaskInterface.h</text>
</a>
</g>
</g>
<!-- Node2&#45;&gt;Node3 -->
<g id="edge2" class="edge"><title>Node2&#45;&gt;Node3</title>
<path fill="none" stroke="midnightblue" d="M730.933,-302.475C703.315,-292.269 656.88,-275.108 625.604,-263.549"/>
<polygon fill="midnightblue" stroke="midnightblue" points="626.618,-260.193 616.025,-260.009 624.191,-266.759 626.618,-260.193"/>
</g>
<!-- Node28 -->
<g id="node28" class="node"><title>Node28</title>
<polygon fill="none" stroke="#bfbfbf" points="1050.5,-235.5 1050.5,-265.5 1185.5,-265.5 1185.5,-235.5 1050.5,-235.5"/>
<text text-anchor="start" x="1058.5" y="-253.5" font-family="Helvetica,sans-Serif" font-size="10.00">Configuration/Configuration</text>
<text text-anchor="middle" x="1118" y="-242.5" font-family="Helvetica,sans-Serif" font-size="10.00">Factory.h</text>
</g>
<!-- Node2&#45;&gt;Node28 -->
<g id="edge34" class="edge"><title>Node2&#45;&gt;Node28</title>
<path fill="none" stroke="midnightblue" d="M809.161,-302.478C866.041,-293.624 957.285,-279.239 1036,-266 1037.47,-265.753 1038.96,-265.502 1040.45,-265.248"/>
<polygon fill="midnightblue" stroke="midnightblue" points="1041.18,-268.674 1050.45,-263.538 1040,-261.775 1041.18,-268.674"/>
</g>
<!-- Node29 -->
<g id="node29" class="node"><title>Node29</title>
<polygon fill="none" stroke="#bfbfbf" points="1204,-241 1204,-260 1248,-260 1248,-241 1204,-241"/>
<text text-anchor="middle" x="1226" y="-248" font-family="Helvetica,sans-Serif" font-size="10.00">vector</text>
</g>
<!-- Node2&#45;&gt;Node29 -->
<g id="edge35" class="edge"><title>Node2&#45;&gt;Node29</title>
<path fill="none" stroke="midnightblue" d="M822.84,-302.892C825.596,-302.587 828.324,-302.289 831,-302 992.629,-284.563 1038.24,-309.055 1195,-266 1196.93,-265.469 1198.9,-264.826 1200.85,-264.11"/>
<polygon fill="midnightblue" stroke="midnightblue" points="1202.47,-267.225 1210.3,-260.097 1199.73,-260.78 1202.47,-267.225"/>
</g>
<!-- Node4 -->
<g id="node4" class="node"><title>Node4</title>
<polygon fill="none" stroke="#bfbfbf" points="62,-62 62,-81 114,-81 114,-62 62,-62"/>
<text text-anchor="middle" x="88" y="-69" font-family="Helvetica,sans-Serif" font-size="10.00">memory</text>
</g>
<!-- Node3&#45;&gt;Node4 -->
<g id="edge3" class="edge"><title>Node3&#45;&gt;Node4</title>
<path fill="none" stroke="midnightblue" d="M544.162,-240.937C532.637,-238.953 520.39,-236.874 509,-235 324.725,-204.676 221.012,-284.386 99,-143 86.7564,-128.812 85.142,-106.773 85.8699,-91.1169"/>
<polygon fill="midnightblue" stroke="midnightblue" points="89.3665,-91.3007 86.6954,-81.0482 82.3899,-90.7287 89.3665,-91.3007"/>
</g>
<!-- Node5 -->
<g id="node5" class="node"><title>Node5</title>
<polygon fill="none" stroke="#bfbfbf" points="302.5,-179.5 302.5,-198.5 351.5,-198.5 351.5,-179.5 302.5,-179.5"/>
<text text-anchor="middle" x="327" y="-186.5" font-family="Helvetica,sans-Serif" font-size="10.00">cassert</text>
</g>
<!-- Node3&#45;&gt;Node5 -->
<g id="edge4" class="edge"><title>Node3&#45;&gt;Node5</title>
<path fill="none" stroke="midnightblue" d="M550.328,-240.956C505.59,-231.843 433.026,-216.62 361.859,-199.37"/>
<polygon fill="midnightblue" stroke="midnightblue" points="362.374,-195.893 351.83,-196.923 360.715,-202.693 362.374,-195.893"/>
</g>
<!-- Node6 -->
<g id="node6" class="node"><title>Node6</title>
<polygon fill="none" stroke="#bfbfbf" points="369.5,-179.5 369.5,-198.5 494.5,-198.5 494.5,-179.5 369.5,-179.5"/>
<text text-anchor="middle" x="432" y="-186.5" font-family="Helvetica,sans-Serif" font-size="10.00">Framework/InitContext.h</text>
</g>
<!-- Node3&#45;&gt;Node6 -->
<g id="edge5" class="edge"><title>Node3&#45;&gt;Node6</title>
<path fill="none" stroke="midnightblue" d="M569.933,-240.975C542.315,-230.769 495.88,-213.608 464.604,-202.049"/>
<polygon fill="midnightblue" stroke="midnightblue" points="465.618,-198.693 455.025,-198.509 463.191,-205.259 465.618,-198.693"/>
</g>
<!-- Node7 -->
<g id="node7" class="node"><title>Node7</title>
<polygon fill="none" stroke="#bfbfbf" points="513,-179.5 513,-198.5 673,-198.5 673,-179.5 513,-179.5"/>
<text text-anchor="middle" x="593" y="-186.5" font-family="Helvetica,sans-Serif" font-size="10.00">Framework/ProcessingContext.h</text>
</g>
<!-- Node3&#45;&gt;Node7 -->
<g id="edge6" class="edge"><title>Node3&#45;&gt;Node7</title>
<path fill="none" stroke="midnightblue" d="M593,-240.975C593,-232.58 593,-219.481 593,-208.663"/>
<polygon fill="midnightblue" stroke="midnightblue" points="596.5,-208.509 593,-198.509 589.5,-208.509 596.5,-208.509"/>
</g>
<!-- Node8 -->
<g id="node8" class="node"><title>Node8</title>
<polygon fill="none" stroke="#bfbfbf" points="424.5,-56.5 424.5,-86.5 559.5,-86.5 559.5,-56.5 424.5,-56.5"/>
<text text-anchor="start" x="432.5" y="-74.5" font-family="Helvetica,sans-Serif" font-size="10.00">Configuration/Configuration</text>
<text text-anchor="middle" x="492" y="-63.5" font-family="Helvetica,sans-Serif" font-size="10.00">Interface.h</text>
</g>
<!-- Node3&#45;&gt;Node8 -->
<g id="edge7" class="edge"><title>Node3&#45;&gt;Node8</title>
<path fill="none" stroke="midnightblue" d="M543.705,-240.942C532.31,-238.977 520.235,-236.906 509,-235 461.023,-226.861 324.454,-236.13 293,-199 249.062,-147.133 345.841,-109.331 419.279,-89.1687"/>
<polygon fill="midnightblue" stroke="midnightblue" points="420.262,-92.529 429.015,-86.5599 418.45,-85.7675 420.262,-92.529"/>
</g>
<!-- Node9 -->
<g id="node9" class="node"><title>Node9</title>
<g id="a_node9"><a xlink:href="Activity_8h.html" target="_top" xlink:title="QualityControl/Activity.h">
<polygon fill="none" stroke="black" points="691.5,-179.5 691.5,-198.5 814.5,-198.5 814.5,-179.5 691.5,-179.5"/>
<text text-anchor="middle" x="753" y="-186.5" font-family="Helvetica,sans-Serif" font-size="10.00">QualityControl/Activity.h</text>
</a>
</g>
</g>
<!-- Node3&#45;&gt;Node9 -->
<g id="edge8" class="edge"><title>Node3&#45;&gt;Node9</title>
<path fill="none" stroke="midnightblue" d="M615.924,-240.975C643.37,-230.769 689.516,-213.608 720.599,-202.049"/>
<polygon fill="midnightblue" stroke="midnightblue" points="721.965,-205.275 730.118,-198.509 719.526,-198.714 721.965,-205.275"/>
</g>
<!-- Node10 -->
<g id="node10" class="node"><title>Node10</title>
<g id="a_node10"><a xlink:href="ObjectsManager_8h.html" target="_top" xlink:title="QualityControl/ObjectsManager.h">
<polygon fill="none" stroke="black" points="832.5,-179.5 832.5,-198.5 993.5,-198.5 993.5,-179.5 832.5,-179.5"/>
<text text-anchor="middle" x="913" y="-186.5" font-family="Helvetica,sans-Serif" font-size="10.00">QualityControl/ObjectsManager.h</text>
</a>
</g>
</g>
<!-- Node3&#45;&gt;Node10 -->
<g id="edge9" class="edge"><title>Node3&#45;&gt;Node10</title>
<path fill="none" stroke="midnightblue" d="M638.848,-240.975C696.472,-230.261 795.315,-211.882 857.25,-200.366"/>
<polygon fill="midnightblue" stroke="midnightblue" points="858.045,-203.778 867.237,-198.509 856.766,-196.896 858.045,-203.778"/>
</g>
<!-- Node11 -->
<g id="node11" class="node"><title>Node11</title>
<g id="a_node11"><a xlink:href="MonitorObject_8h.html" target="_top" xlink:title="QualityControl/MonitorObject.h">
<polygon fill="none" stroke="black" points="1067.5,-123.5 1067.5,-142.5 1218.5,-142.5 1218.5,-123.5 1067.5,-123.5"/>
<text text-anchor="middle" x="1143" y="-130.5" font-family="Helvetica,sans-Serif" font-size="10.00">QualityControl/MonitorObject.h</text>
</a>
</g>
</g>
<!-- Node10&#45;&gt;Node11 -->
<g id="edge10" class="edge"><title>Node10&#45;&gt;Node11</title>
<path fill="none" stroke="midnightblue" d="M949.444,-179.444C989.399,-170.063 1053.59,-154.993 1096.98,-144.804"/>
<polygon fill="midnightblue" stroke="midnightblue" points="1097.79,-148.21 1106.73,-142.516 1096.19,-141.395 1097.79,-148.21"/>
</g>
<!-- Node16 -->
<g id="node16" class="node"><title>Node16</title>
<g id="a_node16"><a xlink:href="Quality_8h.html" target="_top" xlink:title="QualityControl/Quality.h">
<polygon fill="none" stroke="black" points="890.5,-62 890.5,-81 1011.5,-81 1011.5,-62 890.5,-62"/>
<text text-anchor="middle" x="951" y="-69" font-family="Helvetica,sans-Serif" font-size="10.00">QualityControl/Quality.h</text>
</a>
</g>
</g>
<!-- Node10&#45;&gt;Node16 -->
<g id="edge19" class="edge"><title>Node10&#45;&gt;Node16</title>
<path fill="none" stroke="midnightblue" d="M915.856,-179.319C922.018,-160.59 936.673,-116.046 944.982,-90.7924"/>
<polygon fill="midnightblue" stroke="midnightblue" points="948.31,-91.875 948.111,-81.282 941.661,-89.6873 948.31,-91.875"/>
</g>
<!-- Node18 -->
<g id="node18" class="node"><title>Node18</title>
<polygon fill="none" stroke="#bfbfbf" points="763.5,-0.5 763.5,-19.5 804.5,-19.5 804.5,-0.5 763.5,-0.5"/>
<text text-anchor="middle" x="784" y="-7.5" font-family="Helvetica,sans-Serif" font-size="10.00">string</text>
</g>
<!-- Node10&#45;&gt;Node18 -->
<g id="edge33" class="edge"><title>Node10&#45;&gt;Node18</title>
<path fill="none" stroke="midnightblue" d="M911.868,-179.473C909.861,-166.524 904.824,-141.458 894,-123 870.074,-82.2014 828.038,-45.249 803.44,-25.6765"/>
<polygon fill="midnightblue" stroke="midnightblue" points="805.561,-22.8927 795.524,-19.5004 801.255,-28.4115 805.561,-22.8927"/>
</g>
<!-- Node19 -->
<g id="node19" class="node"><title>Node19</title>
<g id="a_node19"><a xlink:href="TaskConfig_8h.html" target="_top" xlink:title="QualityControl/TaskConfig.h">
<polygon fill="none" stroke="black" points="422,-123.5 422,-142.5 562,-142.5 562,-123.5 422,-123.5"/>
<text text-anchor="middle" x="492" y="-130.5" font-family="Helvetica,sans-Serif" font-size="10.00">QualityControl/TaskConfig.h</text>
</a>
</g>
</g>
<!-- Node10&#45;&gt;Node19 -->
<g id="edge20" class="edge"><title>Node10&#45;&gt;Node19</title>
<path fill="none" stroke="midnightblue" d="M846.291,-179.444C770.693,-169.747 647.699,-153.971 568.333,-143.791"/>
<polygon fill="midnightblue" stroke="midnightblue" points="568.761,-140.317 558.397,-142.516 567.87,-147.26 568.761,-140.317"/>
</g>
<!-- Node20 -->
<g id="node20" class="node"><title>Node20</title>
<g id="a_node20"><a xlink:href="ServiceDiscovery_8h_source.html" target="_top" xlink:title="QualityControl/ServiceDiscovery.h">
<polygon fill="none" stroke="black" points="108.5,-123.5 108.5,-142.5 275.5,-142.5 275.5,-123.5 108.5,-123.5"/>
<text text-anchor="middle" x="192" y="-130.5" font-family="Helvetica,sans-Serif" font-size="10.00">QualityControl/ServiceDiscovery.h</text>
</a>
</g>
</g>
<!-- Node10&#45;&gt;Node20 -->
<g id="edge23" class="edge"><title>Node10&#45;&gt;Node20</title>
<path fill="none" stroke="midnightblue" d="M832.057,-179.796C829,-179.521 825.973,-179.255 823,-179 632.35,-162.673 408.935,-147.726 285.659,-139.843"/>
<polygon fill="midnightblue" stroke="midnightblue" points="285.705,-136.339 275.503,-139.195 285.26,-143.325 285.705,-136.339"/>
</g>
<!-- Node25 -->
<g id="node25" class="node"><title>Node25</title>
<polygon fill="none" stroke="#bfbfbf" points="580.5,-123.5 580.5,-142.5 649.5,-142.5 649.5,-123.5 580.5,-123.5"/>
<text text-anchor="middle" x="615" y="-130.5" font-family="Helvetica,sans-Serif" font-size="10.00">TObjArray.h</text>
</g>
<!-- Node10&#45;&gt;Node25 -->
<g id="edge30" class="edge"><title>Node10&#45;&gt;Node25</title>
<path fill="none" stroke="midnightblue" d="M861.628,-179.426C812.283,-171.079 735.368,-157.781 659.872,-143.319"/>
<polygon fill="midnightblue" stroke="midnightblue" points="660.196,-139.817 649.715,-141.364 658.873,-146.691 660.196,-139.817"/>
</g>
<!-- Node26 -->
<g id="node26" class="node"><title>Node26</title>
<polygon fill="none" stroke="#bfbfbf" points="667.5,-123.5 667.5,-142.5 738.5,-142.5 738.5,-123.5 667.5,-123.5"/>
<text text-anchor="middle" x="703" y="-130.5" font-family="Helvetica,sans-Serif" font-size="10.00">TObjString.h</text>
</g>
<!-- Node10&#45;&gt;Node26 -->
<g id="edge31" class="edge"><title>Node10&#45;&gt;Node26</title>
<path fill="none" stroke="midnightblue" d="M879.725,-179.444C843.552,-170.142 785.623,-155.246 746.019,-145.062"/>
<polygon fill="midnightblue" stroke="midnightblue" points="746.676,-141.617 736.119,-142.516 744.933,-148.397 746.676,-141.617"/>
</g>
<!-- Node27 -->
<g id="node27" class="node"><title>Node27</title>
<polygon fill="none" stroke="#bfbfbf" points="757,-123.5 757,-142.5 885,-142.5 885,-123.5 757,-123.5"/>
<text text-anchor="middle" x="821" y="-130.5" font-family="Helvetica,sans-Serif" font-size="10.00">boost/concept_check.hpp</text>
</g>
<!-- Node10&#45;&gt;Node27 -->
<g id="edge32" class="edge"><title>Node10&#45;&gt;Node27</title>
<path fill="none" stroke="midnightblue" d="M898.219,-179.324C883.733,-170.822 861.427,-157.729 844.507,-147.797"/>
<polygon fill="midnightblue" stroke="midnightblue" points="846.141,-144.698 835.745,-142.655 842.597,-150.735 846.141,-144.698"/>
</g>
<!-- Node12 -->
<g id="node12" class="node"><title>Node12</title>
<polygon fill="none" stroke="#bfbfbf" points="1030,-62 1030,-81 1084,-81 1084,-62 1030,-62"/>
<text text-anchor="middle" x="1057" y="-69" font-family="Helvetica,sans-Serif" font-size="10.00">iostream</text>
</g>
<!-- Node11&#45;&gt;Node12 -->
<g id="edge11" class="edge"><title>Node11&#45;&gt;Node12</title>
<path fill="none" stroke="midnightblue" d="M1130.68,-123.475C1116.88,-113.931 1094.3,-98.3073 1077.77,-86.8683"/>
<polygon fill="midnightblue" stroke="midnightblue" points="1079.51,-83.8205 1069.3,-81.0091 1075.53,-89.577 1079.51,-83.8205"/>
</g>
<!-- Node13 -->
<g id="node13" class="node"><title>Node13</title>
<polygon fill="none" stroke="#bfbfbf" points="1236.5,-62 1236.5,-81 1271.5,-81 1271.5,-62 1236.5,-62"/>
<text text-anchor="middle" x="1254" y="-69" font-family="Helvetica,sans-Serif" font-size="10.00">map</text>
</g>
<!-- Node11&#45;&gt;Node13 -->
<g id="edge12" class="edge"><title>Node11&#45;&gt;Node13</title>
<path fill="none" stroke="midnightblue" d="M1159.11,-123.378C1176.02,-114.324 1203.38,-99.6684 1227,-87 1227.67,-86.6416 1228.35,-86.2782 1229.03,-85.9114"/>
<polygon fill="midnightblue" stroke="midnightblue" points="1230.86,-88.9034 1238.01,-81.0901 1227.54,-82.7358 1230.86,-88.9034"/>
</g>
<!-- Node14 -->
<g id="node14" class="node"><title>Node14</title>
<polygon fill="none" stroke="#bfbfbf" points="1132.5,-0.5 1132.5,-19.5 1191.5,-19.5 1191.5,-0.5 1132.5,-0.5"/>
<text text-anchor="middle" x="1162" y="-7.5" font-family="Helvetica,sans-Serif" font-size="10.00">TObject.h</text>
</g>
<!-- Node11&#45;&gt;Node14 -->
<g id="edge13" class="edge"><title>Node11&#45;&gt;Node14</title>
<path fill="none" stroke="midnightblue" d="M1218.51,-124.767C1242.39,-118.495 1266.35,-107.191 1281,-87 1289.09,-75.8493 1288.83,-67.3351 1281,-56 1263.3,-30.3801 1229,-19.3308 1201.76,-14.5739"/>
<polygon fill="midnightblue" stroke="midnightblue" points="1202.12,-11.0893 1191.71,-13.0415 1201.07,-18.0093 1202.12,-11.0893"/>
</g>
<!-- Node15 -->
<g id="node15" class="node"><title>Node15</title>
<polygon fill="none" stroke="#bfbfbf" points="1102,-62 1102,-81 1218,-81 1218,-62 1102,-62"/>
<text text-anchor="middle" x="1160" y="-69" font-family="Helvetica,sans-Serif" font-size="10.00">Common/Exceptions.h</text>
</g>
<!-- Node11&#45;&gt;Node15 -->
<g id="edge14" class="edge"><title>Node11&#45;&gt;Node15</title>
<path fill="none" stroke="midnightblue" d="M1145.44,-123.475C1147.86,-114.992 1151.66,-101.704 1154.77,-90.8222"/>
<polygon fill="midnightblue" stroke="midnightblue" points="1158.19,-91.5859 1157.57,-81.0091 1151.46,-89.6628 1158.19,-91.5859"/>
</g>
<!-- Node11&#45;&gt;Node16 -->
<g id="edge15" class="edge"><title>Node11&#45;&gt;Node16</title>
<path fill="none" stroke="midnightblue" d="M1115.49,-123.475C1082.13,-113.136 1025.74,-95.6611 988.437,-84.1017"/>
<polygon fill="midnightblue" stroke="midnightblue" points="989.046,-80.6261 978.458,-81.0091 986.974,-87.3124 989.046,-80.6261"/>
</g>
<!-- Node16&#45;&gt;Node14 -->
<g id="edge16" class="edge"><title>Node16&#45;&gt;Node14</title>
<path fill="none" stroke="midnightblue" d="M981.231,-61.9751C1018.39,-51.496 1081.55,-33.686 1122.51,-22.1349"/>
<polygon fill="midnightblue" stroke="midnightblue" points="1123.49,-25.4957 1132.17,-19.413 1121.59,-18.7585 1123.49,-25.4957"/>
</g>
<!-- Node17 -->
<g id="node17" class="node"><title>Node17</title>
<polygon fill="none" stroke="#bfbfbf" points="925,-0.5 925,-19.5 977,-19.5 977,-0.5 925,-0.5"/>
<text text-anchor="middle" x="951" y="-7.5" font-family="Helvetica,sans-Serif" font-size="10.00">ostream</text>
</g>
<!-- Node16&#45;&gt;Node17 -->
<g id="edge17" class="edge"><title>Node16&#45;&gt;Node17</title>
<path fill="none" stroke="midnightblue" d="M951,-61.9751C951,-53.5803 951,-40.4806 951,-29.6631"/>
<polygon fill="midnightblue" stroke="midnightblue" points="954.5,-29.5091 951,-19.5091 947.5,-29.5091 954.5,-29.5091"/>
</g>
<!-- Node16&#45;&gt;Node18 -->
<g id="edge18" class="edge"><title>Node16&#45;&gt;Node18</title>
<path fill="none" stroke="midnightblue" d="M927.073,-61.9751C897.45,-51.4208 846.954,-33.4298 814.557,-21.8871"/>
<polygon fill="midnightblue" stroke="midnightblue" points="815.318,-18.4429 804.724,-18.3836 812.969,-25.0369 815.318,-18.4429"/>
</g>
<!-- Node19&#45;&gt;Node8 -->
<g id="edge22" class="edge"><title>Node19&#45;&gt;Node8</title>
<path fill="none" stroke="midnightblue" d="M492,-123.475C492,-116.471 492,-106.192 492,-96.6956"/>
<polygon fill="midnightblue" stroke="midnightblue" points="495.5,-96.5229 492,-86.523 488.5,-96.523 495.5,-96.5229"/>
</g>
<!-- Node19&#45;&gt;Node18 -->
<g id="edge21" class="edge"><title>Node19&#45;&gt;Node18</title>
<path fill="none" stroke="midnightblue" d="M512.533,-123.492C563.215,-102.49 694.448,-48.1089 753.918,-23.4653"/>
<polygon fill="midnightblue" stroke="midnightblue" points="755.591,-26.5607 763.49,-19.4991 752.912,-20.0939 755.591,-26.5607"/>
</g>
<!-- Node20&#45;&gt;Node4 -->
<g id="edge26" class="edge"><title>Node20&#45;&gt;Node4</title>
<path fill="none" stroke="midnightblue" d="M177.099,-123.475C160.032,-113.711 131.839,-97.5807 111.738,-86.0808"/>
<polygon fill="midnightblue" stroke="midnightblue" points="113.291,-82.9371 102.873,-81.0091 109.815,-89.013 113.291,-82.9371"/>
</g>
<!-- Node20&#45;&gt;Node18 -->
<g id="edge27" class="edge"><title>Node20&#45;&gt;Node18</title>
<path fill="none" stroke="midnightblue" d="M223.323,-123.456C248.515,-115.867 284.314,-103.431 313,-87 331.913,-76.1668 330.873,-64.3656 351,-56 424.035,-25.6432 667.074,-14.8451 753.319,-11.9156"/>
<polygon fill="midnightblue" stroke="midnightblue" points="753.619,-15.4077 763.499,-11.582 753.389,-8.41147 753.619,-15.4077"/>
</g>
<!-- Node21 -->
<g id="node21" class="node"><title>Node21</title>
<polygon fill="none" stroke="#bfbfbf" points="360,-62 360,-81 406,-81 406,-62 360,-62"/>
<text text-anchor="middle" x="383" y="-69" font-family="Helvetica,sans-Serif" font-size="10.00">atomic</text>
</g>
<!-- Node20&#45;&gt;Node21 -->
<g id="edge24" class="edge"><title>Node20&#45;&gt;Node21</title>
<path fill="none" stroke="midnightblue" d="M224.412,-123.434C255.759,-114.937 304.481,-101.17 346,-87 348.122,-86.2758 350.302,-85.5017 352.49,-84.7022"/>
<polygon fill="midnightblue" stroke="midnightblue" points="353.874,-87.9209 361.988,-81.1091 351.397,-81.3737 353.874,-87.9209"/>
</g>
<!-- Node22 -->
<g id="node22" class="node"><title>Node22</title>
<polygon fill="none" stroke="#bfbfbf" points="132.5,-62 132.5,-81 191.5,-81 191.5,-62 132.5,-62"/>
<text text-anchor="middle" x="162" y="-69" font-family="Helvetica,sans-Serif" font-size="10.00">curl/curl.h</text>
</g>
<!-- Node20&#45;&gt;Node22 -->
<g id="edge25" class="edge"><title>Node20&#45;&gt;Node22</title>
<path fill="none" stroke="midnightblue" d="M187.702,-123.475C183.335,-114.815 176.445,-101.149 170.897,-90.1453"/>
<polygon fill="midnightblue" stroke="midnightblue" points="173.918,-88.3625 166.29,-81.0091 167.667,-91.5141 173.918,-88.3625"/>
</g>
<!-- Node20&#45;&gt;Node23 -->
<g id="edge28" class="edge"><title>Node20&#45;&gt;Node23</title>
<path fill="none" stroke="midnightblue" d="M162.066,-123.485C133.657,-115.128 89.9333,-101.551 53,-87 51.5834,-86.4419 50.1399,-85.8503 48.6889,-85.2374"/>
<polygon fill="midnightblue" stroke="midnightblue" points="49.7722,-81.8884 39.2134,-81.0149 46.9228,-88.2822 49.7722,-81.8884"/>
</g>
<!-- Node24 -->
<g id="node24" class="node"><title>Node24</title>
<polygon fill="none" stroke="#bfbfbf" points="210,-56.5 210,-86.5 304,-86.5 304,-56.5 210,-56.5"/>
<text text-anchor="start" x="218" y="-74.5" font-family="Helvetica,sans-Serif" font-size="10.00">boost/asio/ip/host</text>
<text text-anchor="middle" x="257" y="-63.5" font-family="Helvetica,sans-Serif" font-size="10.00">_name.hpp</text>
</g>
<!-- Node20&#45;&gt;Node24 -->
<g id="edge29" class="edge"><title>Node20&#45;&gt;Node24</title>
<path fill="none" stroke="midnightblue" d="M201.313,-123.475C209.869,-115.643 222.9,-103.714 234.206,-93.3656"/>
<polygon fill="midnightblue" stroke="midnightblue" points="236.668,-95.8568 241.681,-86.523 231.941,-90.6934 236.668,-95.8568"/>
</g>
<!-- Node30&#45;&gt;Node3 -->
<g id="edge37" class="edge"><title>Node30&#45;&gt;Node3</title>
<path fill="none" stroke="midnightblue" d="M593,-302.475C593,-294.08 593,-280.981 593,-270.163"/>
<polygon fill="midnightblue" stroke="midnightblue" points="596.5,-270.009 593,-260.009 589.5,-270.009 596.5,-270.009"/>
</g>
<!-- Node30&#45;&gt;Node12 -->
<g id="edge39" class="edge"><title>Node30&#45;&gt;Node12</title>
<path fill="none" stroke="midnightblue" d="M645.518,-302.491C743.549,-285.688 949.326,-245.791 1003,-199 1035.75,-170.452 1049.22,-118.59 1054.28,-90.9705"/>
<polygon fill="midnightblue" stroke="midnightblue" points="1057.74,-91.4964 1055.92,-81.0593 1050.83,-90.3544 1057.74,-91.4964"/>
</g>
<!-- Node31 -->
<g id="node31" class="node"><title>Node31</title>
<polygon fill="none" stroke="#bfbfbf" points="370,-241 370,-260 500,-260 500,-241 370,-241"/>
<text text-anchor="middle" x="435" y="-248" font-family="Helvetica,sans-Serif" font-size="10.00">InfoLogger/InfoLogger.hxx</text>
</g>
<!-- Node30&#45;&gt;Node31 -->
<g id="edge38" class="edge"><title>Node30&#45;&gt;Node31</title>
<path fill="none" stroke="midnightblue" d="M570.362,-302.475C543.26,-292.269 497.69,-275.108 466.996,-263.549"/>
<polygon fill="midnightblue" stroke="midnightblue" points="468.187,-260.258 457.596,-260.009 465.72,-266.809 468.187,-260.258"/>
</g>
</g>
</svg>
