<?xml version="1.0" encoding="UTF-8" standalone="no"?>
<!DOCTYPE svg PUBLIC "-//W3C//DTD SVG 1.1//EN"
 "http://www.w3.org/Graphics/SVG/1.1/DTD/svg11.dtd">
<!-- Generated by graphviz version 2.38.0 (20140413.2041)
 -->
<!-- Title: Framework/src/CcdbDatabase.cxx Pages: 1 -->
<svg width="1513pt" height="308pt"
 viewBox="0.00 0.00 1513.00 308.00" xmlns="http://www.w3.org/2000/svg" xmlns:xlink="http://www.w3.org/1999/xlink">
<g id="graph0" class="graph" transform="scale(1 1) rotate(0) translate(4 304)">
<title>Framework/src/CcdbDatabase.cxx</title>
<!-- Node1 -->
<g id="node1" class="node"><title>Node1</title>
<polygon fill="#bfbfbf" stroke="black" points="717,-280.5 717,-299.5 886,-299.5 886,-280.5 717,-280.5"/>
<text text-anchor="middle" x="801.5" y="-287.5" font-family="Helvetica,sans-Serif" font-size="10.00">Framework/src/CcdbDatabase.cxx</text>
</g>
<!-- Node2 -->
<g id="node2" class="node"><title>Node2</title>
<g id="a_node2"><a xlink:href="CcdbDatabase_8h.html" target="_top" xlink:title="QualityControl/CcdbDatabase.h">
<polygon fill="none" stroke="black" points="186,-224.5 186,-243.5 341,-243.5 341,-224.5 186,-224.5"/>
<text text-anchor="middle" x="263.5" y="-231.5" font-family="Helvetica,sans-Serif" font-size="10.00">QualityControl/CcdbDatabase.h</text>
</a>
</g>
</g>
<!-- Node1&#45;&gt;Node2 -->
<g id="edge1" class="edge"><title>Node1&#45;&gt;Node2</title>
<path fill="none" stroke="midnightblue" d="M716.846,-280.503C617.144,-270.496 452.342,-253.954 351.295,-243.812"/>
<polygon fill="midnightblue" stroke="midnightblue" points="351.415,-240.307 341.115,-242.79 350.716,-247.272 351.415,-240.307"/>
</g>
<!-- Node5 -->
<g id="node5" class="node"><title>Node5</title>
<g id="a_node5"><a xlink:href="MonitorObject_8h.html" target="_top" xlink:title="QualityControl/MonitorObject.h">
<polygon fill="none" stroke="black" points="172,-112.5 172,-131.5 323,-131.5 323,-112.5 172,-112.5"/>
<text text-anchor="middle" x="247.5" y="-119.5" font-family="Helvetica,sans-Serif" font-size="10.00">QualityControl/MonitorObject.h</text>
</a>
</g>
</g>
<!-- Node1&#45;&gt;Node5 -->
<g id="edge15" class="edge"><title>Node1&#45;&gt;Node5</title>
<path fill="none" stroke="midnightblue" d="M716.715,-287.342C613.738,-284.015 447.135,-274.019 393.5,-244 356.186,-223.115 367.37,-195.351 334.5,-168 318.067,-154.326 296.792,-143.23 279.394,-135.477"/>
<polygon fill="midnightblue" stroke="midnightblue" points="280.753,-132.251 270.183,-131.519 277.989,-138.683 280.753,-132.251"/>
</g>
<!-- Node9 -->
<g id="node9" class="node"><title>Node9</title>
<polygon fill="none" stroke="#bfbfbf" points="373.5,-56.5 373.5,-75.5 489.5,-75.5 489.5,-56.5 373.5,-56.5"/>
<text text-anchor="middle" x="431.5" y="-63.5" font-family="Helvetica,sans-Serif" font-size="10.00">Common/Exceptions.h</text>
</g>
<!-- Node1&#45;&gt;Node9 -->
<g id="edge16" class="edge"><title>Node1&#45;&gt;Node9</title>
<path fill="none" stroke="midnightblue" d="M716.549,-284.674C611.867,-278.458 445.43,-265.337 426.5,-244 386.934,-199.402 410.185,-120.794 423.785,-85.3011"/>
<polygon fill="midnightblue" stroke="midnightblue" points="427.139,-86.3398 427.615,-75.7556 420.643,-83.7329 427.139,-86.3398"/>
</g>
<!-- Node15 -->
<g id="node15" class="node"><title>Node15</title>
<polygon fill="none" stroke="#bfbfbf" points="435.5,-224.5 435.5,-243.5 519.5,-243.5 519.5,-224.5 435.5,-224.5"/>
<text text-anchor="middle" x="477.5" y="-231.5" font-family="Helvetica,sans-Serif" font-size="10.00">TBufferJSON.h</text>
</g>
<!-- Node1&#45;&gt;Node15 -->
<g id="edge17" class="edge"><title>Node1&#45;&gt;Node15</title>
<path fill="none" stroke="midnightblue" d="M748.625,-280.466C695.756,-271.892 611.845,-258.174 529.545,-244.163"/>
<polygon fill="midnightblue" stroke="midnightblue" points="529.964,-240.685 519.518,-242.454 528.788,-247.585 529.964,-240.685"/>
</g>
<!-- Node16 -->
<g id="node16" class="node"><title>Node16</title>
<polygon fill="none" stroke="#bfbfbf" points="537.5,-224.5 537.5,-243.5 587.5,-243.5 587.5,-224.5 537.5,-224.5"/>
<text text-anchor="middle" x="562.5" y="-231.5" font-family="Helvetica,sans-Serif" font-size="10.00">TH1F.h</text>
</g>
<!-- Node1&#45;&gt;Node16 -->
<g id="edge18" class="edge"><title>Node1&#45;&gt;Node16</title>
<path fill="none" stroke="midnightblue" d="M760.765,-280.448C719.519,-271.686 653.942,-257.478 597.5,-244 597.401,-243.976 597.302,-243.953 597.202,-243.929"/>
<polygon fill="midnightblue" stroke="midnightblue" points="598.256,-240.584 587.709,-241.593 596.583,-247.381 598.256,-240.584"/>
</g>
<!-- Node17 -->
<g id="node17" class="node"><title>Node17</title>
<polygon fill="none" stroke="#bfbfbf" points="606,-224.5 606,-243.5 653,-243.5 653,-224.5 606,-224.5"/>
<text text-anchor="middle" x="629.5" y="-231.5" font-family="Helvetica,sans-Serif" font-size="10.00">TFile.h</text>
</g>
<!-- Node1&#45;&gt;Node17 -->
<g id="edge19" class="edge"><title>Node1&#45;&gt;Node17</title>
<path fill="none" stroke="midnightblue" d="M774.246,-280.444C744.073,-270.971 695.421,-255.696 662.96,-245.505"/>
<polygon fill="midnightblue" stroke="midnightblue" points="663.623,-242.045 653.033,-242.388 661.526,-248.723 663.623,-242.045"/>
</g>
<!-- Node18 -->
<g id="node18" class="node"><title>Node18</title>
<polygon fill="none" stroke="#bfbfbf" points="671,-224.5 671,-243.5 718,-243.5 718,-224.5 671,-224.5"/>
<text text-anchor="middle" x="694.5" y="-231.5" font-family="Helvetica,sans-Serif" font-size="10.00">TList.h</text>
</g>
<!-- Node1&#45;&gt;Node18 -->
<g id="edge20" class="edge"><title>Node1&#45;&gt;Node18</title>
<path fill="none" stroke="midnightblue" d="M784.309,-280.324C767.149,-271.664 740.554,-258.242 720.753,-248.249"/>
<polygon fill="midnightblue" stroke="midnightblue" points="722.153,-245.035 711.649,-243.655 718.999,-251.285 722.153,-245.035"/>
</g>
<!-- Node19 -->
<g id="node19" class="node"><title>Node19</title>
<polygon fill="none" stroke="#bfbfbf" points="736,-224.5 736,-243.5 795,-243.5 795,-224.5 736,-224.5"/>
<text text-anchor="middle" x="765.5" y="-231.5" font-family="Helvetica,sans-Serif" font-size="10.00">TROOT.h</text>
</g>
<!-- Node1&#45;&gt;Node19 -->
<g id="edge21" class="edge"><title>Node1&#45;&gt;Node19</title>
<path fill="none" stroke="midnightblue" d="M795.555,-280.083C790.523,-272.534 783.163,-261.495 776.987,-252.23"/>
<polygon fill="midnightblue" stroke="midnightblue" points="779.793,-250.13 771.334,-243.751 773.969,-254.013 779.793,-250.13"/>
</g>
<!-- Node20 -->
<g id="node20" class="node"><title>Node20</title>
<polygon fill="none" stroke="#bfbfbf" points="813.5,-224.5 813.5,-243.5 861.5,-243.5 861.5,-224.5 813.5,-224.5"/>
<text text-anchor="middle" x="837.5" y="-231.5" font-family="Helvetica,sans-Serif" font-size="10.00">TKey.h</text>
</g>
<!-- Node1&#45;&gt;Node20 -->
<g id="edge22" class="edge"><title>Node1&#45;&gt;Node20</title>
<path fill="none" stroke="midnightblue" d="M807.445,-280.083C812.477,-272.534 819.837,-261.495 826.013,-252.23"/>
<polygon fill="midnightblue" stroke="midnightblue" points="829.031,-254.013 831.666,-243.751 823.207,-250.13 829.031,-254.013"/>
</g>
<!-- Node21 -->
<g id="node21" class="node"><title>Node21</title>
<polygon fill="none" stroke="#bfbfbf" points="880,-224.5 880,-243.5 967,-243.5 967,-224.5 880,-224.5"/>
<text text-anchor="middle" x="923.5" y="-231.5" font-family="Helvetica,sans-Serif" font-size="10.00">TStreamerInfo.h</text>
</g>
<!-- Node1&#45;&gt;Node21 -->
<g id="edge23" class="edge"><title>Node1&#45;&gt;Node21</title>
<path fill="none" stroke="midnightblue" d="M820.831,-280.444C840.82,-271.596 872.243,-257.687 895.064,-247.586"/>
<polygon fill="midnightblue" stroke="midnightblue" points="896.532,-250.764 904.259,-243.516 893.698,-244.363 896.532,-250.764"/>
</g>
<!-- Node22 -->
<g id="node22" class="node"><title>Node22</title>
<polygon fill="none" stroke="#bfbfbf" points="985,-224.5 985,-243.5 1114,-243.5 1114,-224.5 985,-224.5"/>
<text text-anchor="middle" x="1049.5" y="-231.5" font-family="Helvetica,sans-Serif" font-size="10.00">boost/algorithm/string.hpp</text>
</g>
<!-- Node1&#45;&gt;Node22 -->
<g id="edge24" class="edge"><title>Node1&#45;&gt;Node22</title>
<path fill="none" stroke="midnightblue" d="M840.796,-280.444C884.059,-271.023 953.673,-255.866 1000.47,-245.675"/>
<polygon fill="midnightblue" stroke="midnightblue" points="1001.36,-249.064 1010.39,-243.516 999.872,-242.224 1001.36,-249.064"/>
</g>
<!-- Node23 -->
<g id="node23" class="node"><title>Node23</title>
<polygon fill="none" stroke="#bfbfbf" points="1132.5,-224.5 1132.5,-243.5 1178.5,-243.5 1178.5,-224.5 1132.5,-224.5"/>
<text text-anchor="middle" x="1155.5" y="-231.5" font-family="Helvetica,sans-Serif" font-size="10.00">chrono</text>
</g>
<!-- Node1&#45;&gt;Node23 -->
<g id="edge25" class="edge"><title>Node1&#45;&gt;Node23</title>
<path fill="none" stroke="midnightblue" d="M884.758,-280.498C947.665,-273.35 1036.25,-261.742 1122.24,-244.03"/>
<polygon fill="midnightblue" stroke="midnightblue" points="1123.1,-247.427 1132.17,-241.955 1121.67,-240.575 1123.1,-247.427"/>
</g>
<!-- Node24 -->
<g id="node24" class="node"><title>Node24</title>
<polygon fill="none" stroke="#bfbfbf" points="1196.5,-224.5 1196.5,-243.5 1248.5,-243.5 1248.5,-224.5 1196.5,-224.5"/>
<text text-anchor="middle" x="1222.5" y="-231.5" font-family="Helvetica,sans-Serif" font-size="10.00">sstream</text>
</g>
<!-- Node1&#45;&gt;Node24 -->
<g id="edge26" class="edge"><title>Node1&#45;&gt;Node24</title>
<path fill="none" stroke="midnightblue" d="M886.33,-282.442C962.492,-275.791 1077.47,-263.87 1186.06,-244.047"/>
<polygon fill="midnightblue" stroke="midnightblue" points="1187.02,-247.43 1196.21,-242.167 1185.74,-240.547 1187.02,-247.43"/>
</g>
<!-- Node25 -->
<g id="node25" class="node"><title>Node25</title>
<polygon fill="none" stroke="#bfbfbf" points="1266.5,-224.5 1266.5,-243.5 1306.5,-243.5 1306.5,-224.5 1266.5,-224.5"/>
<text text-anchor="middle" x="1286.5" y="-231.5" font-family="Helvetica,sans-Serif" font-size="10.00">utility</text>
</g>
<!-- Node1&#45;&gt;Node25 -->
<g id="edge27" class="edge"><title>Node1&#45;&gt;Node25</title>
<path fill="none" stroke="midnightblue" d="M886.304,-285.767C976.199,-281.179 1122.28,-270.416 1256.32,-243.849"/>
<polygon fill="midnightblue" stroke="midnightblue" points="1257.24,-247.232 1266.35,-241.824 1255.86,-240.37 1257.24,-247.232"/>
</g>
<!-- Node26 -->
<g id="node26" class="node"><title>Node26</title>
<polygon fill="none" stroke="#bfbfbf" points="1325,-224.5 1325,-243.5 1422,-243.5 1422,-224.5 1325,-224.5"/>
<text text-anchor="middle" x="1373.5" y="-231.5" font-family="Helvetica,sans-Serif" font-size="10.00">fairlogger/Logger.h</text>
</g>
<!-- Node1&#45;&gt;Node26 -->
<g id="edge28" class="edge"><title>Node1&#45;&gt;Node26</title>
<path fill="none" stroke="midnightblue" d="M886.266,-283.317C986.115,-276.231 1157.22,-262.862 1314.46,-244.045"/>
<polygon fill="midnightblue" stroke="midnightblue" points="1315.29,-247.471 1324.8,-242.798 1314.45,-240.521 1315.29,-247.471"/>
</g>
<!-- Node27 -->
<g id="node27" class="node"><title>Node27</title>
<polygon fill="none" stroke="#bfbfbf" points="1440,-224.5 1440,-243.5 1505,-243.5 1505,-224.5 1440,-224.5"/>
<text text-anchor="middle" x="1472.5" y="-231.5" font-family="Helvetica,sans-Serif" font-size="10.00">TSystem.h</text>
</g>
<!-- Node1&#45;&gt;Node27 -->
<g id="edge29" class="edge"><title>Node1&#45;&gt;Node27</title>
<path fill="none" stroke="midnightblue" d="M886.241,-286.839C1005.58,-282.93 1230.04,-272.406 1429.81,-244.053"/>
<polygon fill="midnightblue" stroke="midnightblue" points="1430.5,-247.489 1439.9,-242.601 1429.51,-240.56 1430.5,-247.489"/>
</g>
<!-- Node3 -->
<g id="node3" class="node"><title>Node3</title>
<polygon fill="none" stroke="#bfbfbf" points="231,-168.5 231,-187.5 326,-187.5 326,-168.5 231,-168.5"/>
<text text-anchor="middle" x="278.5" y="-175.5" font-family="Helvetica,sans-Serif" font-size="10.00">CCDB/CcdbApi.h</text>
</g>
<!-- Node2&#45;&gt;Node3 -->
<g id="edge2" class="edge"><title>Node2&#45;&gt;Node3</title>
<path fill="none" stroke="midnightblue" d="M265.977,-224.083C267.986,-216.849 270.886,-206.409 273.39,-197.397"/>
<polygon fill="midnightblue" stroke="midnightblue" points="276.765,-198.323 276.069,-187.751 270.02,-196.449 276.765,-198.323"/>
</g>
<!-- Node4 -->
<g id="node4" class="node"><title>Node4</title>
<g id="a_node4"><a xlink:href="DatabaseInterface_8h.html" target="_top" xlink:title="QualityControl/DatabaseInterface.h">
<polygon fill="none" stroke="black" points="42.5,-168.5 42.5,-187.5 212.5,-187.5 212.5,-168.5 42.5,-168.5"/>
<text text-anchor="middle" x="127.5" y="-175.5" font-family="Helvetica,sans-Serif" font-size="10.00">QualityControl/DatabaseInterface.h</text>
</a>
</g>
</g>
<!-- Node2&#45;&gt;Node4 -->
<g id="edge3" class="edge"><title>Node2&#45;&gt;Node4</title>
<path fill="none" stroke="midnightblue" d="M241.95,-224.444C219.469,-215.517 184.012,-201.439 158.52,-191.317"/>
<polygon fill="midnightblue" stroke="midnightblue" points="159.535,-187.954 148.949,-187.516 156.951,-194.46 159.535,-187.954"/>
</g>
<!-- Node4&#45;&gt;Node5 -->
<g id="edge4" class="edge"><title>Node4&#45;&gt;Node5</title>
<path fill="none" stroke="midnightblue" d="M146.514,-168.444C166.088,-159.636 196.808,-145.812 219.229,-135.722"/>
<polygon fill="midnightblue" stroke="midnightblue" points="220.892,-138.812 228.575,-131.516 218.019,-132.428 220.892,-138.812"/>
</g>
<!-- Node13 -->
<g id="node13" class="node"><title>Node13</title>
<polygon fill="none" stroke="#bfbfbf" points="101.5,-112.5 101.5,-131.5 153.5,-131.5 153.5,-112.5 101.5,-112.5"/>
<text text-anchor="middle" x="127.5" y="-119.5" font-family="Helvetica,sans-Serif" font-size="10.00">memory</text>
</g>
<!-- Node4&#45;&gt;Node13 -->
<g id="edge13" class="edge"><title>Node4&#45;&gt;Node13</title>
<path fill="none" stroke="midnightblue" d="M127.5,-168.083C127.5,-161.006 127.5,-150.861 127.5,-141.986"/>
<polygon fill="midnightblue" stroke="midnightblue" points="131,-141.751 127.5,-131.751 124,-141.751 131,-141.751"/>
</g>
<!-- Node14 -->
<g id="node14" class="node"><title>Node14</title>
<polygon fill="none" stroke="#bfbfbf" points="0,-112.5 0,-131.5 83,-131.5 83,-112.5 0,-112.5"/>
<text text-anchor="middle" x="41.5" y="-119.5" font-family="Helvetica,sans-Serif" font-size="10.00">unordered_map</text>
</g>
<!-- Node4&#45;&gt;Node14 -->
<g id="edge14" class="edge"><title>Node4&#45;&gt;Node14</title>
<path fill="none" stroke="midnightblue" d="M113.683,-168.324C100.267,-159.9 79.6759,-146.971 63.9144,-137.074"/>
<polygon fill="midnightblue" stroke="midnightblue" points="65.6132,-134.008 55.2831,-131.655 61.8908,-139.936 65.6132,-134.008"/>
</g>
<!-- Node6 -->
<g id="node6" class="node"><title>Node6</title>
<polygon fill="none" stroke="#bfbfbf" points="301.5,-56.5 301.5,-75.5 355.5,-75.5 355.5,-56.5 301.5,-56.5"/>
<text text-anchor="middle" x="328.5" y="-63.5" font-family="Helvetica,sans-Serif" font-size="10.00">iostream</text>
</g>
<!-- Node5&#45;&gt;Node6 -->
<g id="edge5" class="edge"><title>Node5&#45;&gt;Node6</title>
<path fill="none" stroke="midnightblue" d="M260.514,-112.324C273.032,-103.979 292.182,-91.2122 306.971,-81.3524"/>
<polygon fill="midnightblue" stroke="midnightblue" points="309.139,-84.1137 315.518,-75.6545 305.256,-78.2894 309.139,-84.1137"/>
</g>
<!-- Node7 -->
<g id="node7" class="node"><title>Node7</title>
<polygon fill="none" stroke="#bfbfbf" points="70,-56.5 70,-75.5 105,-75.5 105,-56.5 70,-56.5"/>
<text text-anchor="middle" x="87.5" y="-63.5" font-family="Helvetica,sans-Serif" font-size="10.00">map</text>
</g>
<!-- Node5&#45;&gt;Node7 -->
<g id="edge6" class="edge"><title>Node5&#45;&gt;Node7</title>
<path fill="none" stroke="midnightblue" d="M222.148,-112.444C192.983,-102.601 145.258,-86.4932 115.156,-76.3338"/>
<polygon fill="midnightblue" stroke="midnightblue" points="115.897,-72.89 105.303,-73.0084 113.658,-79.5225 115.897,-72.89"/>
</g>
<!-- Node8 -->
<g id="node8" class="node"><title>Node8</title>
<polygon fill="none" stroke="#bfbfbf" points="114,-0.5 114,-19.5 173,-19.5 173,-0.5 114,-0.5"/>
<text text-anchor="middle" x="143.5" y="-7.5" font-family="Helvetica,sans-Serif" font-size="10.00">TObject.h</text>
</g>
<!-- Node5&#45;&gt;Node8 -->
<g id="edge7" class="edge"><title>Node5&#45;&gt;Node8</title>
<path fill="none" stroke="midnightblue" d="M209.888,-112.471C189.698,-105.908 166.211,-94.6868 152.5,-76 142.812,-62.7963 141.166,-43.926 141.586,-29.9161"/>
<polygon fill="midnightblue" stroke="midnightblue" points="145.106,-29.7365 142.293,-19.522 138.122,-29.2615 145.106,-29.7365"/>
</g>
<!-- Node5&#45;&gt;Node9 -->
<g id="edge8" class="edge"><title>Node5&#45;&gt;Node9</title>
<path fill="none" stroke="midnightblue" d="M276.655,-112.444C308.013,-103.241 358.031,-88.5617 392.697,-78.3879"/>
<polygon fill="midnightblue" stroke="midnightblue" points="393.871,-81.6909 402.481,-75.5164 391.9,-74.9742 393.871,-81.6909"/>
</g>
<!-- Node10 -->
<g id="node10" class="node"><title>Node10</title>
<g id="a_node10"><a xlink:href="Quality_8h.html" target="_top" xlink:title="QualityControl/Quality.h">
<polygon fill="none" stroke="black" points="162,-56.5 162,-75.5 283,-75.5 283,-56.5 162,-56.5"/>
<text text-anchor="middle" x="222.5" y="-63.5" font-family="Helvetica,sans-Serif" font-size="10.00">QualityControl/Quality.h</text>
</a>
</g>
</g>
<!-- Node5&#45;&gt;Node10 -->
<g id="edge9" class="edge"><title>Node5&#45;&gt;Node10</title>
<path fill="none" stroke="midnightblue" d="M243.372,-112.083C239.986,-104.77 235.084,-94.1814 230.881,-85.1034"/>
<polygon fill="midnightblue" stroke="midnightblue" points="233.929,-83.3553 226.551,-75.7511 227.577,-86.2962 233.929,-83.3553"/>
</g>
<!-- Node10&#45;&gt;Node8 -->
<g id="edge10" class="edge"><title>Node10&#45;&gt;Node8</title>
<path fill="none" stroke="midnightblue" d="M209.807,-56.324C197.599,-47.979 178.922,-35.2122 164.497,-25.3524"/>
<polygon fill="midnightblue" stroke="midnightblue" points="166.392,-22.4082 156.161,-19.6545 162.442,-28.1871 166.392,-22.4082"/>
</g>
<!-- Node11 -->
<g id="node11" class="node"><title>Node11</title>
<polygon fill="none" stroke="#bfbfbf" points="255.5,-0.5 255.5,-19.5 307.5,-19.5 307.5,-0.5 255.5,-0.5"/>
<text text-anchor="middle" x="281.5" y="-7.5" font-family="Helvetica,sans-Serif" font-size="10.00">ostream</text>
</g>
<!-- Node10&#45;&gt;Node11 -->
<g id="edge11" class="edge"><title>Node10&#45;&gt;Node11</title>
<path fill="none" stroke="midnightblue" d="M231.979,-56.324C240.701,-48.3414 253.843,-36.3128 264.398,-26.6529"/>
<polygon fill="midnightblue" stroke="midnightblue" points="266.834,-29.1674 271.848,-19.8339 262.108,-24.0036 266.834,-29.1674"/>
</g>
<!-- Node12 -->
<g id="node12" class="node"><title>Node12</title>
<polygon fill="none" stroke="#bfbfbf" points="196,-0.5 196,-19.5 237,-19.5 237,-0.5 196,-0.5"/>
<text text-anchor="middle" x="216.5" y="-7.5" font-family="Helvetica,sans-Serif" font-size="10.00">string</text>
</g>
<!-- Node10&#45;&gt;Node12 -->
<g id="edge12" class="edge"><title>Node10&#45;&gt;Node12</title>
<path fill="none" stroke="midnightblue" d="M221.509,-56.083C220.714,-48.9272 219.571,-38.6353 218.577,-29.6911"/>
<polygon fill="midnightblue" stroke="midnightblue" points="222.055,-29.3034 217.472,-19.7511 215.098,-30.0765 222.055,-29.3034"/>
</g>
</g>
</svg>
