<?xml version="1.0" encoding="UTF-8" standalone="no"?>
<!DOCTYPE svg PUBLIC "-//W3C//DTD SVG 1.1//EN"
 "http://www.w3.org/Graphics/SVG/1.1/DTD/svg11.dtd">
<!-- Generated by graphviz version 2.38.0 (20140413.2041)
 -->
<!-- Title: Framework/src/Checker.cxx Pages: 1 -->
<svg width="2159pt" height="453pt"
 viewBox="0.00 0.00 2158.50 453.00" xmlns="http://www.w3.org/2000/svg" xmlns:xlink="http://www.w3.org/1999/xlink">
<g id="graph0" class="graph" transform="scale(1 1) rotate(0) translate(4 449)">
<title>Framework/src/Checker.cxx</title>
<!-- Node1 -->
<g id="node1" class="node"><title>Node1</title>
<polygon fill="#bfbfbf" stroke="black" points="1350,-425.5 1350,-444.5 1490,-444.5 1490,-425.5 1350,-425.5"/>
<text text-anchor="middle" x="1420" y="-432.5" font-family="Helvetica,sans-Serif" font-size="10.00">Framework/src/Checker.cxx</text>
</g>
<!-- Node2 -->
<g id="node2" class="node"><title>Node2</title>
<g id="a_node2"><a xlink:href="Checker_8h.html" target="_top" xlink:title="QualityControl/Checker.h">
<polygon fill="none" stroke="black" points="543.5,-364 543.5,-383 670.5,-383 670.5,-364 543.5,-364"/>
<text text-anchor="middle" x="607" y="-371" font-family="Helvetica,sans-Serif" font-size="10.00">QualityControl/Checker.h</text>
</a>
</g>
</g>
<!-- Node1&#45;&gt;Node2 -->
<g id="edge1" class="edge"><title>Node1&#45;&gt;Node2</title>
<path fill="none" stroke="midnightblue" d="M1349.98,-428.876C1197.59,-417.723 837.034,-391.335 681.047,-379.919"/>
<polygon fill="midnightblue" stroke="midnightblue" points="680.853,-376.396 670.624,-379.156 680.342,-383.377 680.853,-376.396"/>
</g>
<!-- Node14 -->
<g id="node14" class="node"><title>Node14</title>
<polygon fill="none" stroke="#bfbfbf" points="0,-62 0,-81 116,-81 116,-62 0,-62"/>
<text text-anchor="middle" x="58" y="-69" font-family="Helvetica,sans-Serif" font-size="10.00">Common/Exceptions.h</text>
</g>
<!-- Node1&#45;&gt;Node14 -->
<g id="edge54" class="edge"><title>Node1&#45;&gt;Node14</title>
<path fill="none" stroke="midnightblue" d="M1349.98,-432.744C1146.25,-428.813 556.135,-415.41 365,-389 208.929,-367.435 20,-465.054 20,-307.5 20,-307.5 20,-307.5 20,-188 20,-151.754 37.0946,-112.171 48.3527,-90.0327"/>
<polygon fill="midnightblue" stroke="midnightblue" points="51.4613,-91.641 53.0322,-81.1633 45.2702,-88.3745 51.4613,-91.641"/>
</g>
<!-- Node37 -->
<g id="node37" class="node"><title>Node37</title>
<polygon fill="none" stroke="#bfbfbf" points="1310,-364 1310,-383 1366,-383 1366,-364 1310,-364"/>
<text text-anchor="middle" x="1338" y="-371" font-family="Helvetica,sans-Serif" font-size="10.00">TClass.h</text>
</g>
<!-- Node1&#45;&gt;Node37 -->
<g id="edge51" class="edge"><title>Node1&#45;&gt;Node37</title>
<path fill="none" stroke="midnightblue" d="M1408.25,-425.475C1395.22,-416.02 1373.96,-400.596 1358.24,-389.187"/>
<polygon fill="midnightblue" stroke="midnightblue" points="1359.88,-386.049 1349.73,-383.009 1355.77,-391.715 1359.88,-386.049"/>
</g>
<!-- Node38 -->
<g id="node38" class="node"><title>Node38</title>
<polygon fill="none" stroke="#bfbfbf" points="1384.5,-364 1384.5,-383 1455.5,-383 1455.5,-364 1384.5,-364"/>
<text text-anchor="middle" x="1420" y="-371" font-family="Helvetica,sans-Serif" font-size="10.00">TMessage.h</text>
</g>
<!-- Node1&#45;&gt;Node38 -->
<g id="edge52" class="edge"><title>Node1&#45;&gt;Node38</title>
<path fill="none" stroke="midnightblue" d="M1420,-425.475C1420,-417.08 1420,-403.981 1420,-393.163"/>
<polygon fill="midnightblue" stroke="midnightblue" points="1423.5,-393.009 1420,-383.009 1416.5,-393.009 1423.5,-393.009"/>
</g>
<!-- Node39 -->
<g id="node39" class="node"><title>Node39</title>
<polygon fill="none" stroke="#bfbfbf" points="1473.5,-364 1473.5,-383 1538.5,-383 1538.5,-364 1473.5,-364"/>
<text text-anchor="middle" x="1506" y="-371" font-family="Helvetica,sans-Serif" font-size="10.00">TSystem.h</text>
</g>
<!-- Node1&#45;&gt;Node39 -->
<g id="edge53" class="edge"><title>Node1&#45;&gt;Node39</title>
<path fill="none" stroke="midnightblue" d="M1432.32,-425.475C1446.12,-415.931 1468.7,-400.307 1485.23,-388.868"/>
<polygon fill="midnightblue" stroke="midnightblue" points="1487.47,-391.577 1493.7,-383.009 1483.49,-385.82 1487.47,-391.577"/>
</g>
<!-- Node40 -->
<g id="node40" class="node"><title>Node40</title>
<polygon fill="none" stroke="#bfbfbf" points="1556.5,-358.5 1556.5,-388.5 1691.5,-388.5 1691.5,-358.5 1556.5,-358.5"/>
<text text-anchor="start" x="1564.5" y="-376.5" font-family="Helvetica,sans-Serif" font-size="10.00">Configuration/Configuration</text>
<text text-anchor="middle" x="1624" y="-365.5" font-family="Helvetica,sans-Serif" font-size="10.00">Factory.h</text>
</g>
<!-- Node1&#45;&gt;Node40 -->
<g id="edge55" class="edge"><title>Node1&#45;&gt;Node40</title>
<path fill="none" stroke="midnightblue" d="M1449.23,-425.475C1479.57,-416.626 1527.83,-402.549 1565.96,-391.428"/>
<polygon fill="midnightblue" stroke="midnightblue" points="1567.3,-394.683 1575.92,-388.523 1565.34,-387.963 1567.3,-394.683"/>
</g>
<!-- Node41 -->
<g id="node41" class="node"><title>Node41</title>
<polygon fill="none" stroke="#bfbfbf" points="1710,-364 1710,-383 1844,-383 1844,-364 1710,-364"/>
<text text-anchor="middle" x="1777" y="-371" font-family="Helvetica,sans-Serif" font-size="10.00">Framework/DataRefUtils.h</text>
</g>
<!-- Node1&#45;&gt;Node41 -->
<g id="edge56" class="edge"><title>Node1&#45;&gt;Node41</title>
<path fill="none" stroke="midnightblue" d="M1476.33,-425.483C1533.12,-416.778 1623.26,-402.638 1701,-389 1708.36,-387.709 1716.11,-386.294 1723.73,-384.871"/>
<polygon fill="midnightblue" stroke="midnightblue" points="1724.46,-388.296 1733.64,-383.004 1723.16,-381.417 1724.46,-388.296"/>
</g>
<!-- Node42 -->
<g id="node42" class="node"><title>Node42</title>
<polygon fill="none" stroke="#bfbfbf" points="1862,-364 1862,-383 2002,-383 2002,-364 1862,-364"/>
<text text-anchor="middle" x="1932" y="-371" font-family="Helvetica,sans-Serif" font-size="10.00">Framework/DataSpecUtils.h</text>
</g>
<!-- Node1&#45;&gt;Node42 -->
<g id="edge57" class="edge"><title>Node1&#45;&gt;Node42</title>
<path fill="none" stroke="midnightblue" d="M1490.33,-428.388C1576.17,-421.148 1725.63,-407.279 1853,-389 1861.43,-387.79 1870.34,-386.331 1879.01,-384.812"/>
<polygon fill="midnightblue" stroke="midnightblue" points="1879.82,-388.223 1889.05,-383.012 1878.59,-381.333 1879.82,-388.223"/>
</g>
<!-- Node43 -->
<g id="node43" class="node"><title>Node43</title>
<polygon fill="none" stroke="#bfbfbf" points="2020,-364 2020,-383 2070,-383 2070,-364 2020,-364"/>
<text text-anchor="middle" x="2045" y="-371" font-family="Helvetica,sans-Serif" font-size="10.00">TMap.h</text>
</g>
<!-- Node1&#45;&gt;Node43 -->
<g id="edge58" class="edge"><title>Node1&#45;&gt;Node43</title>
<path fill="none" stroke="midnightblue" d="M1490.14,-431.527C1624.63,-426.314 1914.04,-412.683 2011,-389 2013.51,-388.387 2016.07,-387.609 2018.6,-386.732"/>
<polygon fill="midnightblue" stroke="midnightblue" points="2020.05,-389.922 2028.08,-383.003 2017.49,-383.408 2020.05,-389.922"/>
</g>
<!-- Node44 -->
<g id="node44" class="node"><title>Node44</title>
<g id="a_node44"><a xlink:href="DatabaseFactory_8h.html" target="_top" xlink:title="QualityControl/DatabaseFactory.h">
<polygon fill="none" stroke="black" points="69.5,-235.5 69.5,-254.5 234.5,-254.5 234.5,-235.5 69.5,-235.5"/>
<text text-anchor="middle" x="152" y="-242.5" font-family="Helvetica,sans-Serif" font-size="10.00">QualityControl/DatabaseFactory.h</text>
</a>
</g>
</g>
<!-- Node1&#45;&gt;Node44 -->
<g id="edge59" class="edge"><title>Node1&#45;&gt;Node44</title>
<path fill="none" stroke="midnightblue" d="M1349.76,-432.244C1168.97,-427.433 690.844,-412.793 534,-389 415.168,-370.973 382.351,-369.63 272,-322 233.823,-305.522 193.877,-277.779 171.055,-260.76"/>
<polygon fill="midnightblue" stroke="midnightblue" points="173.002,-257.844 162.916,-254.601 168.778,-263.426 173.002,-257.844"/>
</g>
<!-- Node45 -->
<g id="node45" class="node"><title>Node45</title>
<g id="a_node45"><a xlink:href="TaskRunner_8h.html" target="_top" xlink:title="QualityControl/TaskRunner.h">
<polygon fill="none" stroke="black" points="1148.5,-364 1148.5,-383 1291.5,-383 1291.5,-364 1148.5,-364"/>
<text text-anchor="middle" x="1220" y="-371" font-family="Helvetica,sans-Serif" font-size="10.00">QualityControl/TaskRunner.h</text>
</a>
</g>
</g>
<!-- Node1&#45;&gt;Node45 -->
<g id="edge63" class="edge"><title>Node1&#45;&gt;Node45</title>
<path fill="none" stroke="midnightblue" d="M1391.34,-425.475C1356.44,-415.092 1297.35,-397.512 1258.5,-385.954"/>
<polygon fill="midnightblue" stroke="midnightblue" points="1259.18,-382.506 1248.6,-383.009 1257.19,-389.215 1259.18,-382.506"/>
</g>
<!-- Node3 -->
<g id="node3" class="node"><title>Node3</title>
<polygon fill="none" stroke="#bfbfbf" points="350,-297 350,-316 396,-316 396,-297 350,-297"/>
<text text-anchor="middle" x="373" y="-304" font-family="Helvetica,sans-Serif" font-size="10.00">chrono</text>
</g>
<!-- Node2&#45;&gt;Node3 -->
<g id="edge2" class="edge"><title>Node2&#45;&gt;Node3</title>
<path fill="none" stroke="midnightblue" d="M567.723,-363.927C527.671,-354.837 463.928,-339.407 410,-322 407.729,-321.267 405.396,-320.467 403.059,-319.632"/>
<polygon fill="midnightblue" stroke="midnightblue" points="404.174,-316.312 393.582,-316.082 401.718,-322.867 404.174,-316.312"/>
</g>
<!-- Node4 -->
<g id="node4" class="node"><title>Node4</title>
<polygon fill="none" stroke="#bfbfbf" points="296,-62 296,-81 348,-81 348,-62 296,-62"/>
<text text-anchor="middle" x="322" y="-69" font-family="Helvetica,sans-Serif" font-size="10.00">memory</text>
</g>
<!-- Node2&#45;&gt;Node4 -->
<g id="edge3" class="edge"><title>Node2&#45;&gt;Node4</title>
<path fill="none" stroke="midnightblue" d="M543.331,-364.058C469.387,-353.694 355.611,-335.796 341,-322 315.685,-298.097 322,-280.817 322,-246 322,-246 322,-246 322,-188 322,-153.864 322,-114.052 322,-91.2092"/>
<polygon fill="midnightblue" stroke="midnightblue" points="325.5,-91.1934 322,-81.1934 318.5,-91.1934 325.5,-91.1934"/>
</g>
<!-- Node5 -->
<g id="node5" class="node"><title>Node5</title>
<polygon fill="none" stroke="#bfbfbf" points="907,-297 907,-316 999,-316 999,-297 907,-297"/>
<text text-anchor="middle" x="953" y="-304" font-family="Helvetica,sans-Serif" font-size="10.00">Common/Timer.h</text>
</g>
<!-- Node2&#45;&gt;Node5 -->
<g id="edge4" class="edge"><title>Node2&#45;&gt;Node5</title>
<path fill="none" stroke="midnightblue" d="M663.944,-363.98C722.611,-354.876 816.579,-339.384 897,-322 901.965,-320.927 907.154,-319.712 912.284,-318.453"/>
<polygon fill="midnightblue" stroke="midnightblue" points="913.163,-321.841 922.005,-316.003 911.453,-315.053 913.163,-321.841"/>
</g>
<!-- Node6 -->
<g id="node6" class="node"><title>Node6</title>
<polygon fill="none" stroke="#bfbfbf" points="1349.5,-56.5 1349.5,-86.5 1484.5,-86.5 1484.5,-56.5 1349.5,-56.5"/>
<text text-anchor="start" x="1357.5" y="-74.5" font-family="Helvetica,sans-Serif" font-size="10.00">Configuration/Configuration</text>
<text text-anchor="middle" x="1417" y="-63.5" font-family="Helvetica,sans-Serif" font-size="10.00">Interface.h</text>
</g>
<!-- Node2&#45;&gt;Node6 -->
<g id="edge5" class="edge"><title>Node2&#45;&gt;Node6</title>
<path fill="none" stroke="midnightblue" d="M622.393,-363.984C639.364,-354.402 667.275,-338.068 690,-322 707.797,-309.417 707.993,-299.647 728,-291 839.936,-242.623 879.283,-272.247 1000,-255 1162.47,-231.787 1223.74,-282.548 1365,-199 1392.01,-183.026 1396.04,-172.013 1408,-143 1414.01,-128.417 1416.26,-110.82 1417.01,-96.8545"/>
<polygon fill="midnightblue" stroke="midnightblue" points="1420.52,-96.6644 1417.33,-86.5601 1413.52,-96.4461 1420.52,-96.6644"/>
</g>
<!-- Node7 -->
<g id="node7" class="node"><title>Node7</title>
<polygon fill="none" stroke="#bfbfbf" points="1017,-297 1017,-316 1115,-316 1115,-297 1017,-297"/>
<text text-anchor="middle" x="1066" y="-304" font-family="Helvetica,sans-Serif" font-size="10.00">Framework/Task.h</text>
</g>
<!-- Node2&#45;&gt;Node7 -->
<g id="edge6" class="edge"><title>Node2&#45;&gt;Node7</title>
<path fill="none" stroke="midnightblue" d="M670.566,-366.866C749.949,-359.287 889.718,-344.151 1008,-322 1013.48,-320.973 1019.22,-319.738 1024.86,-318.428"/>
<polygon fill="midnightblue" stroke="midnightblue" points="1025.95,-321.767 1034.85,-316.017 1024.3,-314.963 1025.95,-321.767"/>
</g>
<!-- Node8 -->
<g id="node8" class="node"><title>Node8</title>
<polygon fill="none" stroke="#bfbfbf" points="737.5,-297 737.5,-316 888.5,-316 888.5,-297 737.5,-297"/>
<text text-anchor="middle" x="813" y="-304" font-family="Helvetica,sans-Serif" font-size="10.00">Monitoring/MonitoringFactory.h</text>
</g>
<!-- Node2&#45;&gt;Node8 -->
<g id="edge7" class="edge"><title>Node2&#45;&gt;Node8</title>
<path fill="none" stroke="midnightblue" d="M634.355,-363.869C670.855,-352.351 735.601,-331.922 776.31,-319.077"/>
<polygon fill="midnightblue" stroke="midnightblue" points="777.376,-322.411 785.86,-316.064 775.27,-315.735 777.376,-322.411"/>
</g>
<!-- Node9 -->
<g id="node9" class="node"><title>Node9</title>
<g id="a_node9"><a xlink:href="CheckInterface_8h.html" target="_top" xlink:title="QualityControl/CheckInterface.h">
<polygon fill="none" stroke="black" points="426.5,-179.5 426.5,-198.5 583.5,-198.5 583.5,-179.5 426.5,-179.5"/>
<text text-anchor="middle" x="505" y="-186.5" font-family="Helvetica,sans-Serif" font-size="10.00">QualityControl/CheckInterface.h</text>
</a>
</g>
</g>
<!-- Node2&#45;&gt;Node9 -->
<g id="edge8" class="edge"><title>Node2&#45;&gt;Node9</title>
<path fill="none" stroke="midnightblue" d="M580.973,-363.872C561.719,-356.069 536.573,-342.604 523,-322 500.065,-287.186 500.504,-235.957 502.771,-208.688"/>
<polygon fill="midnightblue" stroke="midnightblue" points="506.269,-208.887 503.792,-198.586 499.304,-208.183 506.269,-208.887"/>
</g>
<!-- Node10 -->
<g id="node10" class="node"><title>Node10</title>
<g id="a_node10"><a xlink:href="MonitorObject_8h.html" target="_top" xlink:title="QualityControl/MonitorObject.h">
<polygon fill="none" stroke="black" points="407.5,-123.5 407.5,-142.5 558.5,-142.5 558.5,-123.5 407.5,-123.5"/>
<text text-anchor="middle" x="483" y="-130.5" font-family="Helvetica,sans-Serif" font-size="10.00">QualityControl/MonitorObject.h</text>
</a>
</g>
</g>
<!-- Node2&#45;&gt;Node10 -->
<g id="edge23" class="edge"><title>Node2&#45;&gt;Node10</title>
<path fill="none" stroke="midnightblue" d="M582.21,-363.982C560.474,-355.662 528.863,-341.416 506,-322 454.567,-278.323 437.789,-263.194 417,-199 414.261,-190.543 412.847,-186.859 417,-179 424.424,-164.953 438.421,-154.467 451.621,-147.167"/>
<polygon fill="midnightblue" stroke="midnightblue" points="453.223,-150.279 460.541,-142.618 450.043,-144.043 453.223,-150.279"/>
</g>
<!-- Node18 -->
<g id="node18" class="node"><title>Node18</title>
<g id="a_node18"><a xlink:href="DatabaseInterface_8h.html" target="_top" xlink:title="QualityControl/DatabaseInterface.h">
<polygon fill="none" stroke="black" points="124,-179.5 124,-198.5 294,-198.5 294,-179.5 124,-179.5"/>
<text text-anchor="middle" x="209" y="-186.5" font-family="Helvetica,sans-Serif" font-size="10.00">QualityControl/DatabaseInterface.h</text>
</a>
</g>
</g>
<!-- Node2&#45;&gt;Node18 -->
<g id="edge19" class="edge"><title>Node2&#45;&gt;Node18</title>
<path fill="none" stroke="midnightblue" d="M543.369,-367.316C467.624,-360.196 346.527,-345.527 308,-322 266.807,-296.845 271.993,-273.589 243,-235 235.928,-225.588 227.999,-215.09 221.578,-206.603"/>
<polygon fill="midnightblue" stroke="midnightblue" points="224.358,-204.477 215.532,-198.616 218.777,-208.702 224.358,-204.477"/>
</g>
<!-- Node20 -->
<g id="node20" class="node"><title>Node20</title>
<g id="a_node20"><a xlink:href="QcInfoLogger_8h.html" target="_top" xlink:title="QualityControl/QcInfoLogger.h">
<polygon fill="none" stroke="black" points="532.5,-297 532.5,-316 681.5,-316 681.5,-297 532.5,-297"/>
<text text-anchor="middle" x="607" y="-304" font-family="Helvetica,sans-Serif" font-size="10.00">QualityControl/QcInfoLogger.h</text>
</a>
</g>
</g>
<!-- Node2&#45;&gt;Node20 -->
<g id="edge24" class="edge"><title>Node2&#45;&gt;Node20</title>
<path fill="none" stroke="midnightblue" d="M607,-363.734C607,-354.183 607,-338.618 607,-326.283"/>
<polygon fill="midnightblue" stroke="midnightblue" points="610.5,-326.127 607,-316.127 603.5,-326.127 610.5,-326.127"/>
</g>
<!-- Node9&#45;&gt;Node10 -->
<g id="edge9" class="edge"><title>Node9&#45;&gt;Node10</title>
<path fill="none" stroke="midnightblue" d="M501.367,-179.083C498.388,-171.77 494.074,-161.181 490.375,-152.103"/>
<polygon fill="midnightblue" stroke="midnightblue" points="493.58,-150.691 486.565,-142.751 487.097,-153.333 493.58,-150.691"/>
</g>
<!-- Node15 -->
<g id="node15" class="node"><title>Node15</title>
<g id="a_node15"><a xlink:href="Quality_8h.html" target="_top" xlink:title="QualityControl/Quality.h">
<polygon fill="none" stroke="black" points="583.5,-62 583.5,-81 704.5,-81 704.5,-62 583.5,-62"/>
<text text-anchor="middle" x="644" y="-69" font-family="Helvetica,sans-Serif" font-size="10.00">QualityControl/Quality.h</text>
</a>
</g>
</g>
<!-- Node9&#45;&gt;Node15 -->
<g id="edge18" class="edge"><title>Node9&#45;&gt;Node15</title>
<path fill="none" stroke="midnightblue" d="M517.662,-179.439C530.417,-170.671 550.515,-156.457 567,-143 588.798,-125.206 612.477,-103.066 627.737,-88.3954"/>
<polygon fill="midnightblue" stroke="midnightblue" points="630.535,-90.559 635.284,-81.0886 625.665,-85.5299 630.535,-90.559"/>
</g>
<!-- Node11 -->
<g id="node11" class="node"><title>Node11</title>
<polygon fill="none" stroke="#bfbfbf" points="511,-62 511,-81 565,-81 565,-62 511,-62"/>
<text text-anchor="middle" x="538" y="-69" font-family="Helvetica,sans-Serif" font-size="10.00">iostream</text>
</g>
<!-- Node10&#45;&gt;Node11 -->
<g id="edge10" class="edge"><title>Node10&#45;&gt;Node11</title>
<path fill="none" stroke="midnightblue" d="M490.88,-123.475C499.294,-114.373 512.819,-99.741 523.226,-88.483"/>
<polygon fill="midnightblue" stroke="midnightblue" points="525.917,-90.7282 530.134,-81.0091 520.776,-85.9766 525.917,-90.7282"/>
</g>
<!-- Node12 -->
<g id="node12" class="node"><title>Node12</title>
<polygon fill="none" stroke="#bfbfbf" points="419.5,-62 419.5,-81 454.5,-81 454.5,-62 419.5,-62"/>
<text text-anchor="middle" x="437" y="-69" font-family="Helvetica,sans-Serif" font-size="10.00">map</text>
</g>
<!-- Node10&#45;&gt;Node12 -->
<g id="edge11" class="edge"><title>Node10&#45;&gt;Node12</title>
<path fill="none" stroke="midnightblue" d="M476.409,-123.475C469.509,-114.55 458.498,-100.307 449.866,-89.1425"/>
<polygon fill="midnightblue" stroke="midnightblue" points="452.464,-86.7798 443.578,-81.0091 446.926,-91.0612 452.464,-86.7798"/>
</g>
<!-- Node13 -->
<g id="node13" class="node"><title>Node13</title>
<polygon fill="none" stroke="#bfbfbf" points="497.5,-0.5 497.5,-19.5 556.5,-19.5 556.5,-0.5 497.5,-0.5"/>
<text text-anchor="middle" x="527" y="-7.5" font-family="Helvetica,sans-Serif" font-size="10.00">TObject.h</text>
</g>
<!-- Node10&#45;&gt;Node13 -->
<g id="edge12" class="edge"><title>Node10&#45;&gt;Node13</title>
<path fill="none" stroke="midnightblue" d="M484.401,-123.338C486.89,-108.988 492.71,-79.5294 502,-56 505.774,-46.4404 511.203,-36.3886 516.037,-28.2159"/>
<polygon fill="midnightblue" stroke="midnightblue" points="519.06,-29.9815 521.305,-19.6272 513.093,-26.3215 519.06,-29.9815"/>
</g>
<!-- Node10&#45;&gt;Node14 -->
<g id="edge13" class="edge"><title>Node10&#45;&gt;Node14</title>
<path fill="none" stroke="midnightblue" d="M422.108,-123.475C343.669,-112.494 207.724,-93.4614 125.987,-82.0182"/>
<polygon fill="midnightblue" stroke="midnightblue" points="126.439,-78.5475 116.051,-80.6271 125.469,-85.4799 126.439,-78.5475"/>
</g>
<!-- Node10&#45;&gt;Node15 -->
<g id="edge14" class="edge"><title>Node10&#45;&gt;Node15</title>
<path fill="none" stroke="midnightblue" d="M506.067,-123.475C533.685,-113.269 580.12,-96.108 611.396,-84.5492"/>
<polygon fill="midnightblue" stroke="midnightblue" points="612.809,-87.7586 620.975,-81.0091 610.382,-81.1927 612.809,-87.7586"/>
</g>
<!-- Node15&#45;&gt;Node13 -->
<g id="edge15" class="edge"><title>Node15&#45;&gt;Node13</title>
<path fill="none" stroke="midnightblue" d="M627.237,-61.9751C607.775,-52.078 575.455,-35.6416 552.789,-24.1151"/>
<polygon fill="midnightblue" stroke="midnightblue" points="554.232,-20.9224 543.732,-19.5091 551.059,-27.1619 554.232,-20.9224"/>
</g>
<!-- Node16 -->
<g id="node16" class="node"><title>Node16</title>
<polygon fill="none" stroke="#bfbfbf" points="618,-0.5 618,-19.5 670,-19.5 670,-0.5 618,-0.5"/>
<text text-anchor="middle" x="644" y="-7.5" font-family="Helvetica,sans-Serif" font-size="10.00">ostream</text>
</g>
<!-- Node15&#45;&gt;Node16 -->
<g id="edge16" class="edge"><title>Node15&#45;&gt;Node16</title>
<path fill="none" stroke="midnightblue" d="M644,-61.9751C644,-53.5803 644,-40.4806 644,-29.6631"/>
<polygon fill="midnightblue" stroke="midnightblue" points="647.5,-29.5091 644,-19.5091 640.5,-29.5091 647.5,-29.5091"/>
</g>
<!-- Node17 -->
<g id="node17" class="node"><title>Node17</title>
<polygon fill="none" stroke="#bfbfbf" points="845.5,-0.5 845.5,-19.5 886.5,-19.5 886.5,-0.5 845.5,-0.5"/>
<text text-anchor="middle" x="866" y="-7.5" font-family="Helvetica,sans-Serif" font-size="10.00">string</text>
</g>
<!-- Node15&#45;&gt;Node17 -->
<g id="edge17" class="edge"><title>Node15&#45;&gt;Node17</title>
<path fill="none" stroke="midnightblue" d="M675.807,-61.9751C718.36,-50.5703 793.311,-30.4819 835.295,-19.2294"/>
<polygon fill="midnightblue" stroke="midnightblue" points="836.466,-22.5392 845.219,-16.5696 834.654,-15.7778 836.466,-22.5392"/>
</g>
<!-- Node18&#45;&gt;Node4 -->
<g id="edge21" class="edge"><title>Node18&#45;&gt;Node4</title>
<path fill="none" stroke="midnightblue" d="M204.505,-179.163C198.41,-165.809 189.527,-140.221 201,-123 219.772,-94.8241 257.575,-82.3418 285.959,-76.8282"/>
<polygon fill="midnightblue" stroke="midnightblue" points="286.683,-80.2549 295.937,-75.096 285.486,-73.358 286.683,-80.2549"/>
</g>
<!-- Node18&#45;&gt;Node10 -->
<g id="edge20" class="edge"><title>Node18&#45;&gt;Node10</title>
<path fill="none" stroke="midnightblue" d="M252.416,-179.444C300.515,-169.964 378.095,-154.675 429.806,-144.483"/>
<polygon fill="midnightblue" stroke="midnightblue" points="430.653,-147.884 439.787,-142.516 429.299,-141.016 430.653,-147.884"/>
</g>
<!-- Node19 -->
<g id="node19" class="node"><title>Node19</title>
<polygon fill="none" stroke="#bfbfbf" points="210.5,-123.5 210.5,-142.5 293.5,-142.5 293.5,-123.5 210.5,-123.5"/>
<text text-anchor="middle" x="252" y="-130.5" font-family="Helvetica,sans-Serif" font-size="10.00">unordered_map</text>
</g>
<!-- Node18&#45;&gt;Node19 -->
<g id="edge22" class="edge"><title>Node18&#45;&gt;Node19</title>
<path fill="none" stroke="midnightblue" d="M216.101,-179.083C222.237,-171.377 231.27,-160.033 238.739,-150.653"/>
<polygon fill="midnightblue" stroke="midnightblue" points="241.54,-152.754 245.032,-142.751 236.064,-148.394 241.54,-152.754"/>
</g>
<!-- Node20&#45;&gt;Node11 -->
<g id="edge50" class="edge"><title>Node20&#45;&gt;Node11</title>
<path fill="none" stroke="midnightblue" d="M606.864,-296.738C606.347,-275.931 603.871,-222.068 592,-179 584.757,-152.723 579.358,-147.294 567,-123 561.293,-111.781 554.278,-99.5302 548.577,-89.9047"/>
<polygon fill="midnightblue" stroke="midnightblue" points="551.556,-88.0661 543.411,-81.2897 545.552,-91.666 551.556,-88.0661"/>
</g>
<!-- Node21 -->
<g id="node21" class="node"><title>Node21</title>
<g id="a_node21"><a xlink:href="TaskInterface_8h.html" target="_top" xlink:title="TaskInterface.h">
<polygon fill="none" stroke="black" points="906.5,-235.5 906.5,-254.5 991.5,-254.5 991.5,-235.5 906.5,-235.5"/>
<text text-anchor="middle" x="949" y="-242.5" font-family="Helvetica,sans-Serif" font-size="10.00">TaskInterface.h</text>
</a>
</g>
</g>
<!-- Node20&#45;&gt;Node21 -->
<g id="edge25" class="edge"><title>Node20&#45;&gt;Node21</title>
<path fill="none" stroke="midnightblue" d="M656,-296.975C719.729,-285.888 830.63,-266.594 896.181,-255.189"/>
<polygon fill="midnightblue" stroke="midnightblue" points="897.045,-258.592 906.297,-253.429 895.846,-251.695 897.045,-258.592"/>
</g>
<!-- Node36 -->
<g id="node36" class="node"><title>Node36</title>
<polygon fill="none" stroke="#bfbfbf" points="640,-235.5 640,-254.5 770,-254.5 770,-235.5 640,-235.5"/>
<text text-anchor="middle" x="705" y="-242.5" font-family="Helvetica,sans-Serif" font-size="10.00">InfoLogger/InfoLogger.hxx</text>
</g>
<!-- Node20&#45;&gt;Node36 -->
<g id="edge49" class="edge"><title>Node20&#45;&gt;Node36</title>
<path fill="none" stroke="midnightblue" d="M621.041,-296.975C637.051,-287.255 663.45,-271.227 682.374,-259.737"/>
<polygon fill="midnightblue" stroke="midnightblue" points="684.254,-262.691 690.985,-254.509 680.621,-256.707 684.254,-262.691"/>
</g>
<!-- Node21&#45;&gt;Node4 -->
<g id="edge26" class="edge"><title>Node21&#45;&gt;Node4</title>
<path fill="none" stroke="midnightblue" d="M906.143,-241.332C783.46,-233.57 438.313,-210.797 417,-199 372.485,-174.361 342.649,-119.14 329.557,-90.4995"/>
<polygon fill="midnightblue" stroke="midnightblue" points="332.723,-89.0033 325.496,-81.2563 326.314,-91.8194 332.723,-89.0033"/>
</g>
<!-- Node21&#45;&gt;Node6 -->
<g id="edge30" class="edge"><title>Node21&#45;&gt;Node6</title>
<path fill="none" stroke="midnightblue" d="M991.68,-243.727C1080.8,-242.424 1283.09,-235.418 1340,-199 1377.39,-175.073 1399.37,-125.886 1409.72,-96.3907"/>
<polygon fill="midnightblue" stroke="midnightblue" points="1413.05,-97.4466 1412.9,-86.8529 1406.41,-95.2312 1413.05,-97.4466"/>
</g>
<!-- Node22 -->
<g id="node22" class="node"><title>Node22</title>
<polygon fill="none" stroke="#bfbfbf" points="819.5,-179.5 819.5,-198.5 868.5,-198.5 868.5,-179.5 819.5,-179.5"/>
<text text-anchor="middle" x="844" y="-186.5" font-family="Helvetica,sans-Serif" font-size="10.00">cassert</text>
</g>
<!-- Node21&#45;&gt;Node22 -->
<g id="edge27" class="edge"><title>Node21&#45;&gt;Node22</title>
<path fill="none" stroke="midnightblue" d="M932.13,-235.324C915.291,-226.664 889.193,-213.242 869.762,-203.249"/>
<polygon fill="midnightblue" stroke="midnightblue" points="871.322,-200.116 860.828,-198.655 868.12,-206.341 871.322,-200.116"/>
</g>
<!-- Node23 -->
<g id="node23" class="node"><title>Node23</title>
<polygon fill="none" stroke="#bfbfbf" points="886.5,-179.5 886.5,-198.5 1011.5,-198.5 1011.5,-179.5 886.5,-179.5"/>
<text text-anchor="middle" x="949" y="-186.5" font-family="Helvetica,sans-Serif" font-size="10.00">Framework/InitContext.h</text>
</g>
<!-- Node21&#45;&gt;Node23 -->
<g id="edge28" class="edge"><title>Node21&#45;&gt;Node23</title>
<path fill="none" stroke="midnightblue" d="M949,-235.083C949,-228.006 949,-217.861 949,-208.986"/>
<polygon fill="midnightblue" stroke="midnightblue" points="952.5,-208.751 949,-198.751 945.5,-208.751 952.5,-208.751"/>
</g>
<!-- Node24 -->
<g id="node24" class="node"><title>Node24</title>
<polygon fill="none" stroke="#bfbfbf" points="1030,-179.5 1030,-198.5 1190,-198.5 1190,-179.5 1030,-179.5"/>
<text text-anchor="middle" x="1110" y="-186.5" font-family="Helvetica,sans-Serif" font-size="10.00">Framework/ProcessingContext.h</text>
</g>
<!-- Node21&#45;&gt;Node24 -->
<g id="edge29" class="edge"><title>Node21&#45;&gt;Node24</title>
<path fill="none" stroke="midnightblue" d="M974.511,-235.444C1001.6,-226.359 1044.59,-211.939 1074.87,-201.783"/>
<polygon fill="midnightblue" stroke="midnightblue" points="1076.24,-205.015 1084.61,-198.516 1074.01,-198.378 1076.24,-205.015"/>
</g>
<!-- Node25 -->
<g id="node25" class="node"><title>Node25</title>
<g id="a_node25"><a xlink:href="Activity_8h.html" target="_top" xlink:title="QualityControl/Activity.h">
<polygon fill="none" stroke="black" points="1208.5,-179.5 1208.5,-198.5 1331.5,-198.5 1331.5,-179.5 1208.5,-179.5"/>
<text text-anchor="middle" x="1270" y="-186.5" font-family="Helvetica,sans-Serif" font-size="10.00">QualityControl/Activity.h</text>
</a>
</g>
</g>
<!-- Node21&#45;&gt;Node25 -->
<g id="edge31" class="edge"><title>Node21&#45;&gt;Node25</title>
<path fill="none" stroke="midnightblue" d="M991.626,-236.829C1047.48,-227.434 1145.76,-210.899 1209.36,-200.202"/>
<polygon fill="midnightblue" stroke="midnightblue" points="1209.97,-203.648 1219.25,-198.537 1208.81,-196.745 1209.97,-203.648"/>
</g>
<!-- Node26 -->
<g id="node26" class="node"><title>Node26</title>
<g id="a_node26"><a xlink:href="ObjectsManager_8h.html" target="_top" xlink:title="QualityControl/ObjectsManager.h">
<polygon fill="none" stroke="black" points="640.5,-179.5 640.5,-198.5 801.5,-198.5 801.5,-179.5 640.5,-179.5"/>
<text text-anchor="middle" x="721" y="-186.5" font-family="Helvetica,sans-Serif" font-size="10.00">QualityControl/ObjectsManager.h</text>
</a>
</g>
</g>
<!-- Node21&#45;&gt;Node26 -->
<g id="edge32" class="edge"><title>Node21&#45;&gt;Node26</title>
<path fill="none" stroke="midnightblue" d="M912.873,-235.444C873.349,-226.083 809.903,-211.056 766.887,-200.868"/>
<polygon fill="midnightblue" stroke="midnightblue" points="767.496,-197.415 756.958,-198.516 765.882,-204.227 767.496,-197.415"/>
</g>
<!-- Node26&#45;&gt;Node10 -->
<g id="edge33" class="edge"><title>Node26&#45;&gt;Node10</title>
<path fill="none" stroke="midnightblue" d="M683.288,-179.444C641.857,-170.043 575.243,-154.929 530.333,-144.739"/>
<polygon fill="midnightblue" stroke="midnightblue" points="531.062,-141.316 520.535,-142.516 529.513,-148.142 531.062,-141.316"/>
</g>
<!-- Node26&#45;&gt;Node15 -->
<g id="edge34" class="edge"><title>Node26&#45;&gt;Node15</title>
<path fill="none" stroke="midnightblue" d="M715.212,-179.319C702.559,-160.339 672.232,-114.848 655.525,-89.7882"/>
<polygon fill="midnightblue" stroke="midnightblue" points="658.314,-87.6611 649.855,-81.282 652.49,-91.544 658.314,-87.6611"/>
</g>
<!-- Node26&#45;&gt;Node17 -->
<g id="edge48" class="edge"><title>Node26&#45;&gt;Node17</title>
<path fill="none" stroke="midnightblue" d="M723.633,-179.463C727.88,-166.5 737.093,-141.417 750,-123 777.882,-83.2172 821.268,-45.9035 846.325,-25.9927"/>
<polygon fill="midnightblue" stroke="midnightblue" points="848.649,-28.6186 854.368,-19.7003 844.336,-23.1053 848.649,-28.6186"/>
</g>
<!-- Node27 -->
<g id="node27" class="node"><title>Node27</title>
<g id="a_node27"><a xlink:href="TaskConfig_8h.html" target="_top" xlink:title="QualityControl/TaskConfig.h">
<polygon fill="none" stroke="black" points="1157,-123.5 1157,-142.5 1297,-142.5 1297,-123.5 1157,-123.5"/>
<text text-anchor="middle" x="1227" y="-130.5" font-family="Helvetica,sans-Serif" font-size="10.00">QualityControl/TaskConfig.h</text>
</a>
</g>
</g>
<!-- Node26&#45;&gt;Node27 -->
<g id="edge35" class="edge"><title>Node26&#45;&gt;Node27</title>
<path fill="none" stroke="midnightblue" d="M800.898,-179.473C895.481,-169.38 1052.07,-152.668 1146.79,-142.56"/>
<polygon fill="midnightblue" stroke="midnightblue" points="1147.32,-146.023 1156.89,-141.482 1146.58,-139.063 1147.32,-146.023"/>
</g>
<!-- Node28 -->
<g id="node28" class="node"><title>Node28</title>
<g id="a_node28"><a xlink:href="ServiceDiscovery_8h_source.html" target="_top" xlink:title="QualityControl/ServiceDiscovery.h">
<polygon fill="none" stroke="black" points="1983.5,-123.5 1983.5,-142.5 2150.5,-142.5 2150.5,-123.5 1983.5,-123.5"/>
<text text-anchor="middle" x="2067" y="-130.5" font-family="Helvetica,sans-Serif" font-size="10.00">QualityControl/ServiceDiscovery.h</text>
</a>
</g>
</g>
<!-- Node26&#45;&gt;Node28 -->
<g id="edge38" class="edge"><title>Node26&#45;&gt;Node28</title>
<path fill="none" stroke="midnightblue" d="M801.51,-179.622C804.374,-179.399 807.211,-179.191 810,-179 1244.33,-149.297 1764.5,-138.566 1973.41,-135.272"/>
<polygon fill="midnightblue" stroke="midnightblue" points="1973.48,-138.771 1983.43,-135.116 1973.37,-131.772 1973.48,-138.771"/>
</g>
<!-- Node33 -->
<g id="node33" class="node"><title>Node33</title>
<polygon fill="none" stroke="#bfbfbf" points="759.5,-123.5 759.5,-142.5 828.5,-142.5 828.5,-123.5 759.5,-123.5"/>
<text text-anchor="middle" x="794" y="-130.5" font-family="Helvetica,sans-Serif" font-size="10.00">TObjArray.h</text>
</g>
<!-- Node26&#45;&gt;Node33 -->
<g id="edge45" class="edge"><title>Node26&#45;&gt;Node33</title>
<path fill="none" stroke="midnightblue" d="M732.729,-179.324C743.837,-171.107 760.742,-158.602 773.983,-148.807"/>
<polygon fill="midnightblue" stroke="midnightblue" points="776.1,-151.595 782.058,-142.834 771.937,-145.967 776.1,-151.595"/>
</g>
<!-- Node34 -->
<g id="node34" class="node"><title>Node34</title>
<polygon fill="none" stroke="#bfbfbf" points="846.5,-123.5 846.5,-142.5 917.5,-142.5 917.5,-123.5 846.5,-123.5"/>
<text text-anchor="middle" x="882" y="-130.5" font-family="Helvetica,sans-Serif" font-size="10.00">TObjString.h</text>
</g>
<!-- Node26&#45;&gt;Node34 -->
<g id="edge46" class="edge"><title>Node26&#45;&gt;Node34</title>
<path fill="none" stroke="midnightblue" d="M746.511,-179.444C773.596,-170.359 816.59,-155.939 846.869,-145.783"/>
<polygon fill="midnightblue" stroke="midnightblue" points="848.24,-149.015 856.608,-142.516 846.014,-142.378 848.24,-149.015"/>
</g>
<!-- Node35 -->
<g id="node35" class="node"><title>Node35</title>
<polygon fill="none" stroke="#bfbfbf" points="936,-123.5 936,-142.5 1064,-142.5 1064,-123.5 936,-123.5"/>
<text text-anchor="middle" x="1000" y="-130.5" font-family="Helvetica,sans-Serif" font-size="10.00">boost/concept_check.hpp</text>
</g>
<!-- Node26&#45;&gt;Node35 -->
<g id="edge47" class="edge"><title>Node26&#45;&gt;Node35</title>
<path fill="none" stroke="midnightblue" d="M765.208,-179.444C814.287,-169.944 893.51,-154.611 946.164,-144.42"/>
<polygon fill="midnightblue" stroke="midnightblue" points="946.846,-147.853 955.998,-142.516 945.516,-140.98 946.846,-147.853"/>
</g>
<!-- Node27&#45;&gt;Node6 -->
<g id="edge37" class="edge"><title>Node27&#45;&gt;Node6</title>
<path fill="none" stroke="midnightblue" d="M1254.22,-123.475C1282.36,-114.664 1327.05,-100.668 1362.49,-89.5698"/>
<polygon fill="midnightblue" stroke="midnightblue" points="1363.72,-92.8516 1372.22,-86.523 1361.63,-86.1715 1363.72,-92.8516"/>
</g>
<!-- Node27&#45;&gt;Node17 -->
<g id="edge36" class="edge"><title>Node27&#45;&gt;Node17</title>
<path fill="none" stroke="midnightblue" d="M1201.62,-123.492C1136.91,-101.804 966.003,-44.5192 896.273,-21.1469"/>
<polygon fill="midnightblue" stroke="midnightblue" points="897.337,-17.8124 886.744,-17.9528 895.113,-24.4495 897.337,-17.8124"/>
</g>
<!-- Node28&#45;&gt;Node4 -->
<g id="edge41" class="edge"><title>Node28&#45;&gt;Node4</title>
<path fill="none" stroke="midnightblue" d="M1983.48,-131.237C1691.93,-128.339 720.289,-116.638 410,-87 392.804,-85.3575 373.883,-82.3928 358.007,-79.5703"/>
<polygon fill="midnightblue" stroke="midnightblue" points="358.529,-76.1077 348.062,-77.7513 357.269,-82.9935 358.529,-76.1077"/>
</g>
<!-- Node28&#45;&gt;Node17 -->
<g id="edge42" class="edge"><title>Node28&#45;&gt;Node17</title>
<path fill="none" stroke="midnightblue" d="M2093.93,-123.356C2110.72,-116.411 2130.98,-104.825 2141,-87 2147.75,-74.9905 2150.57,-65.9127 2141,-56 2096.41,-9.81172 1086.59,-10.3763 896.65,-10.893"/>
<polygon fill="midnightblue" stroke="midnightblue" points="896.518,-7.39328 886.529,-10.9227 896.539,-14.3932 896.518,-7.39328"/>
</g>
<!-- Node29 -->
<g id="node29" class="node"><title>Node29</title>
<polygon fill="none" stroke="#bfbfbf" points="2008,-62 2008,-81 2054,-81 2054,-62 2008,-62"/>
<text text-anchor="middle" x="2031" y="-69" font-family="Helvetica,sans-Serif" font-size="10.00">atomic</text>
</g>
<!-- Node28&#45;&gt;Node29 -->
<g id="edge39" class="edge"><title>Node28&#45;&gt;Node29</title>
<path fill="none" stroke="midnightblue" d="M2061.84,-123.475C2056.55,-114.727 2048.16,-100.869 2041.47,-89.8093"/>
<polygon fill="midnightblue" stroke="midnightblue" points="2044.32,-87.7531 2036.15,-81.0091 2038.33,-91.3768 2044.32,-87.7531"/>
</g>
<!-- Node30 -->
<g id="node30" class="node"><title>Node30</title>
<polygon fill="none" stroke="#bfbfbf" points="2072.5,-62 2072.5,-81 2131.5,-81 2131.5,-62 2072.5,-62"/>
<text text-anchor="middle" x="2102" y="-69" font-family="Helvetica,sans-Serif" font-size="10.00">curl/curl.h</text>
</g>
<!-- Node28&#45;&gt;Node30 -->
<g id="edge40" class="edge"><title>Node28&#45;&gt;Node30</title>
<path fill="none" stroke="midnightblue" d="M2072.01,-123.475C2077.16,-114.727 2085.31,-100.869 2091.82,-89.8093"/>
<polygon fill="midnightblue" stroke="midnightblue" points="2094.94,-91.403 2096.99,-81.0091 2088.91,-87.8539 2094.94,-91.403"/>
</g>
<!-- Node31 -->
<g id="node31" class="node"><title>Node31</title>
<polygon fill="none" stroke="#bfbfbf" points="1834,-62 1834,-81 1878,-81 1878,-62 1834,-62"/>
<text text-anchor="middle" x="1856" y="-69" font-family="Helvetica,sans-Serif" font-size="10.00">thread</text>
</g>
<!-- Node28&#45;&gt;Node31 -->
<g id="edge43" class="edge"><title>Node28&#45;&gt;Node31</title>
<path fill="none" stroke="midnightblue" d="M2023.02,-123.483C1986.14,-115.756 1932.38,-103.116 1887,-87 1885.38,-86.4258 1883.74,-85.7967 1882.09,-85.1324"/>
<polygon fill="midnightblue" stroke="midnightblue" points="1883.37,-81.8744 1872.81,-81.0791 1880.57,-88.2892 1883.37,-81.8744"/>
</g>
<!-- Node32 -->
<g id="node32" class="node"><title>Node32</title>
<polygon fill="none" stroke="#bfbfbf" points="1896,-56.5 1896,-86.5 1990,-86.5 1990,-56.5 1896,-56.5"/>
<text text-anchor="start" x="1904" y="-74.5" font-family="Helvetica,sans-Serif" font-size="10.00">boost/asio/ip/host</text>
<text text-anchor="middle" x="1943" y="-63.5" font-family="Helvetica,sans-Serif" font-size="10.00">_name.hpp</text>
</g>
<!-- Node28&#45;&gt;Node32 -->
<g id="edge44" class="edge"><title>Node28&#45;&gt;Node32</title>
<path fill="none" stroke="midnightblue" d="M2049.23,-123.475C2031.58,-115.002 2003.93,-101.737 1981.27,-90.8628"/>
<polygon fill="midnightblue" stroke="midnightblue" points="1982.75,-87.6936 1972.22,-86.523 1979.73,-94.0047 1982.75,-87.6936"/>
</g>
<!-- Node44&#45;&gt;Node4 -->
<g id="edge60" class="edge"><title>Node44&#45;&gt;Node4</title>
<path fill="none" stroke="midnightblue" d="M140.867,-235.311C126.497,-222.976 104.512,-199.596 115,-179 147.788,-114.612 235.738,-88.2152 285.812,-78.1489"/>
<polygon fill="midnightblue" stroke="midnightblue" points="286.714,-81.5403 295.889,-76.241 285.412,-74.6625 286.714,-81.5403"/>
</g>
<!-- Node44&#45;&gt;Node14 -->
<g id="edge61" class="edge"><title>Node44&#45;&gt;Node14</title>
<path fill="none" stroke="midnightblue" d="M129.878,-235.448C114.042,-228.161 93.5539,-216.127 82,-199 59.6762,-165.908 56.8185,-117.43 57.132,-91.1335"/>
<polygon fill="midnightblue" stroke="midnightblue" points="60.6333,-91.136 57.4267,-81.0381 53.6363,-90.9317 60.6333,-91.136"/>
</g>
<!-- Node44&#45;&gt;Node18 -->
<g id="edge62" class="edge"><title>Node44&#45;&gt;Node18</title>
<path fill="none" stroke="midnightblue" d="M161.158,-235.324C169.501,-227.42 182.032,-215.548 192.177,-205.938"/>
<polygon fill="midnightblue" stroke="midnightblue" points="194.823,-208.252 199.675,-198.834 190.009,-203.171 194.823,-208.252"/>
</g>
<!-- Node45&#45;&gt;Node5 -->
<g id="edge68" class="edge"><title>Node45&#45;&gt;Node5</title>
<path fill="none" stroke="midnightblue" d="M1182.79,-363.92C1140.4,-354.081 1069.1,-337.33 1008,-322 1003.68,-320.916 999.177,-319.765 994.687,-318.602"/>
<polygon fill="midnightblue" stroke="midnightblue" points="995.518,-315.202 984.958,-316.064 993.75,-321.975 995.518,-315.202"/>
</g>
<!-- Node45&#45;&gt;Node6 -->
<g id="edge73" class="edge"><title>Node45&#45;&gt;Node6</title>
<path fill="none" stroke="midnightblue" d="M1261.89,-363.96C1274.42,-361.688 1288.23,-359.462 1301,-358 1340.18,-353.516 1982.83,-350.586 2010,-322 2168.38,-155.378 1688.79,-95.405 1494.68,-78.2953"/>
<polygon fill="midnightblue" stroke="midnightblue" points="1494.81,-74.7931 1484.54,-77.4177 1494.21,-81.767 1494.81,-74.7931"/>
</g>
<!-- Node45&#45;&gt;Node7 -->
<g id="edge69" class="edge"><title>Node45&#45;&gt;Node7</title>
<path fill="none" stroke="midnightblue" d="M1199.55,-363.869C1172.97,-352.65 1126.36,-332.977 1095.83,-320.092"/>
<polygon fill="midnightblue" stroke="midnightblue" points="1097.11,-316.831 1086.53,-316.167 1094.39,-323.28 1097.11,-316.831"/>
</g>
<!-- Node45&#45;&gt;Node8 -->
<g id="edge72" class="edge"><title>Node45&#45;&gt;Node8</title>
<path fill="none" stroke="midnightblue" d="M1164.12,-363.968C1099.87,-354.105 991.257,-337.267 898,-322 889.718,-320.644 880.986,-319.187 872.4,-317.737"/>
<polygon fill="midnightblue" stroke="midnightblue" points="872.867,-314.267 862.423,-316.046 871.697,-321.168 872.867,-314.267"/>
</g>
<!-- Node45&#45;&gt;Node21 -->
<g id="edge75" class="edge"><title>Node45&#45;&gt;Node21</title>
<path fill="none" stroke="midnightblue" d="M1211.02,-363.95C1191.09,-345.142 1143.41,-301.053 1124,-291 1085.59,-271.11 1037.78,-259.591 1001.85,-253.196"/>
<polygon fill="midnightblue" stroke="midnightblue" points="1002.02,-249.675 991.577,-251.449 1000.85,-256.576 1002.02,-249.675"/>
</g>
<!-- Node45&#45;&gt;Node27 -->
<g id="edge74" class="edge"><title>Node45&#45;&gt;Node27</title>
<path fill="none" stroke="midnightblue" d="M1214.08,-363.9C1204.24,-348.456 1186.86,-315.363 1200,-291 1235.35,-225.472 1304.65,-264.528 1340,-199 1354.88,-171.416 1320.6,-154.655 1285.98,-145.079"/>
<polygon fill="midnightblue" stroke="midnightblue" points="1286.81,-141.678 1276.25,-142.565 1285.06,-148.455 1286.81,-141.678"/>
</g>
<!-- Node45&#45;&gt;Node28 -->
<g id="edge76" class="edge"><title>Node45&#45;&gt;Node28</title>
<path fill="none" stroke="midnightblue" d="M1261.89,-363.942C1274.42,-361.669 1288.22,-359.447 1301,-358 1383.02,-348.708 1982.39,-378.031 2043,-322 2090.5,-278.089 2079.2,-190.75 2071.4,-152.579"/>
<polygon fill="midnightblue" stroke="midnightblue" points="2074.81,-151.817 2069.25,-142.802 2067.98,-153.32 2074.81,-151.817"/>
</g>
<!-- Node46 -->
<g id="node46" class="node"><title>Node46</title>
<polygon fill="none" stroke="#bfbfbf" points="1209,-291.5 1209,-321.5 1311,-321.5 1311,-291.5 1209,-291.5"/>
<text text-anchor="start" x="1217" y="-309.5" font-family="Helvetica,sans-Serif" font-size="10.00">boost/accumulators</text>
<text text-anchor="middle" x="1260" y="-298.5" font-family="Helvetica,sans-Serif" font-size="10.00">/accumulators.hpp</text>
</g>
<!-- Node45&#45;&gt;Node46 -->
<g id="edge64" class="edge"><title>Node45&#45;&gt;Node46</title>
<path fill="none" stroke="midnightblue" d="M1225.39,-363.734C1230.64,-355.203 1238.85,-341.874 1245.95,-330.334"/>
<polygon fill="midnightblue" stroke="midnightblue" points="1249.07,-331.94 1251.33,-321.589 1243.11,-328.271 1249.07,-331.94"/>
</g>
<!-- Node47 -->
<g id="node47" class="node"><title>Node47</title>
<polygon fill="none" stroke="#bfbfbf" points="1329,-291.5 1329,-321.5 1431,-321.5 1431,-291.5 1329,-291.5"/>
<text text-anchor="start" x="1337" y="-309.5" font-family="Helvetica,sans-Serif" font-size="10.00">boost/accumulators</text>
<text text-anchor="middle" x="1380" y="-298.5" font-family="Helvetica,sans-Serif" font-size="10.00">/statistics.hpp</text>
</g>
<!-- Node45&#45;&gt;Node47 -->
<g id="edge65" class="edge"><title>Node45&#45;&gt;Node47</title>
<path fill="none" stroke="midnightblue" d="M1241.25,-363.869C1265.26,-354.115 1305,-337.97 1335.81,-325.452"/>
<polygon fill="midnightblue" stroke="midnightblue" points="1337.52,-328.535 1345.47,-321.528 1334.89,-322.049 1337.52,-328.535"/>
</g>
<!-- Node48 -->
<g id="node48" class="node"><title>Node48</title>
<polygon fill="none" stroke="#bfbfbf" points="1449,-297 1449,-316 1529,-316 1529,-297 1449,-297"/>
<text text-anchor="middle" x="1489" y="-304" font-family="Helvetica,sans-Serif" font-size="10.00">boost/asio.hpp</text>
</g>
<!-- Node45&#45;&gt;Node48 -->
<g id="edge66" class="edge"><title>Node45&#45;&gt;Node48</title>
<path fill="none" stroke="midnightblue" d="M1260.73,-363.943C1305.03,-354.452 1377.84,-338.315 1440,-322 1443.8,-321.002 1447.75,-319.916 1451.69,-318.801"/>
<polygon fill="midnightblue" stroke="midnightblue" points="1452.72,-322.147 1461.36,-316.006 1450.78,-315.422 1452.72,-322.147"/>
</g>
<!-- Node49 -->
<g id="node49" class="node"><title>Node49</title>
<polygon fill="none" stroke="#bfbfbf" points="1547,-291.5 1547,-321.5 1647,-321.5 1647,-291.5 1547,-291.5"/>
<text text-anchor="start" x="1555" y="-309.5" font-family="Helvetica,sans-Serif" font-size="10.00">boost/serialization</text>
<text text-anchor="middle" x="1597" y="-298.5" font-family="Helvetica,sans-Serif" font-size="10.00">/array_wrapper.hpp</text>
</g>
<!-- Node45&#45;&gt;Node49 -->
<g id="edge67" class="edge"><title>Node45&#45;&gt;Node49</title>
<path fill="none" stroke="midnightblue" d="M1266.65,-363.932C1277.89,-361.928 1289.87,-359.842 1301,-358 1402.93,-341.138 1431.77,-342.624 1536.79,-322.134"/>
<polygon fill="midnightblue" stroke="midnightblue" points="1537.72,-325.518 1546.86,-320.15 1536.37,-318.651 1537.72,-325.518"/>
</g>
<!-- Node50 -->
<g id="node50" class="node"><title>Node50</title>
<polygon fill="none" stroke="#bfbfbf" points="1665,-297 1665,-316 1829,-316 1829,-297 1665,-297"/>
<text text-anchor="middle" x="1747" y="-304" font-family="Helvetica,sans-Serif" font-size="10.00">Framework/DataProcessorSpec.h</text>
</g>
<!-- Node45&#45;&gt;Node50 -->
<g id="edge70" class="edge"><title>Node45&#45;&gt;Node50</title>
<path fill="none" stroke="midnightblue" d="M1264.04,-363.988C1276,-361.848 1288.97,-359.684 1301,-358 1458.06,-336.012 1498.74,-342.486 1656,-322 1665.88,-320.714 1676.33,-319.195 1686.5,-317.634"/>
<polygon fill="midnightblue" stroke="midnightblue" points="1687.19,-321.068 1696.53,-316.066 1686.11,-314.152 1687.19,-321.068"/>
</g>
<!-- Node51 -->
<g id="node51" class="node"><title>Node51</title>
<polygon fill="none" stroke="#bfbfbf" points="1847.5,-297 1847.5,-316 2000.5,-316 2000.5,-297 1847.5,-297"/>
<text text-anchor="middle" x="1924" y="-304" font-family="Helvetica,sans-Serif" font-size="10.00">Framework/CompletionPolicy.h</text>
</g>
<!-- Node45&#45;&gt;Node51 -->
<g id="edge71" class="edge"><title>Node45&#45;&gt;Node51</title>
<path fill="none" stroke="midnightblue" d="M1262.74,-363.939C1275.05,-361.722 1288.52,-359.53 1301,-358 1538.42,-328.881 1600.43,-349.92 1838,-322 1847.92,-320.834 1858.45,-319.305 1868.6,-317.678"/>
<polygon fill="midnightblue" stroke="midnightblue" points="1869.3,-321.11 1878.6,-316.028 1868.16,-314.204 1869.3,-321.11"/>
</g>
</g>
</svg>
