<?xml version="1.0" encoding="UTF-8" standalone="no"?>
<!DOCTYPE svg PUBLIC "-//W3C//DTD SVG 1.1//EN"
 "http://www.w3.org/Graphics/SVG/1.1/DTD/svg11.dtd">
<!-- Generated by graphviz version 2.38.0 (20140413.2041)
 -->
<!-- Title: Framework/src/CheckerFactory.cxx Pages: 1 -->
<!--zoomable 431 -->
<svg id="main" version="1.1" xmlns="http://www.w3.org/2000/svg" xmlns:xlink="http://www.w3.org/1999/xlink" xml:space="preserve" onload="init(evt)">
<style type="text/css"><![CDATA[
.edge:hover path { stroke: red; }
.edge:hover polygon { stroke: red; fill: red; }
]]></style>
<script type="text/javascript"><![CDATA[
var edges = document.getElementsByTagName('g');
if (edges && edges.length) {
  for (var i=0;i<edges.length;i++) {
    if (edges[i].id.substr(0,4)=='edge') {
      edges[i].setAttribute('class','edge');
    }
  }
}
]]></script>
        <defs>
                <circle id="rim" cx="0" cy="0" r="7"/>
                <circle id="rim2" cx="0" cy="0" r="3.5"/>
                <g id="zoomPlus">
                        <use xlink:href="#rim" fill="#404040">
                                <set attributeName="fill" to="#808080" begin="zoomplus.mouseover" end="zoomplus.mouseout"/>
                        </use>
                        <path d="M-4,0h8M0,-4v8" fill="none" stroke="white" stroke-width="1.5" pointer-events="none"/>
                </g>
                <g id="zoomMin">
                        <use xlink:href="#rim" fill="#404040">
                                <set attributeName="fill" to="#808080" begin="zoomminus.mouseover" end="zoomminus.mouseout"/>
                        </use>
                        <path d="M-4,0h8" fill="none" stroke="white" stroke-width="1.5" pointer-events="none"/>
                </g>
                <g id="dirArrow">
                        <path fill="none" stroke="white" stroke-width="1.5" d="M0,-3.0v7 M-2.5,-0.5L0,-3.0L2.5,-0.5"/>
                </g>
               <g id="resetDef">
                       <use xlink:href="#rim2" fill="#404040">
                               <set attributeName="fill" to="#808080" begin="reset.mouseover" end="reset.mouseout"/>
                       </use>
               </g>
        </defs>

<script type="text/javascript">
var viewWidth = 1552;
var viewHeight = 431;
var sectionId = 'dynsection-0';
</script>
<script xlink:href="svgpan.js"/>
<svg id="graph" class="graph">
<g id="viewport">
<title>Framework/src/CheckerFactory.cxx</title>
<!-- Node1 -->
<g id="node1" class="node"><title>Node1</title>
<polygon fill="#bfbfbf" stroke="black" points="103.5,-403.5 103.5,-422.5 276.5,-422.5 276.5,-403.5 103.5,-403.5"/>
<text text-anchor="middle" x="190" y="-410.5" font-family="Helvetica,sans-Serif" font-size="10.00">Framework/src/CheckerFactory.cxx</text>
</g>
<!-- Node2 -->
<g id="node2" class="node"><title>Node2</title>
<polygon fill="none" stroke="#bfbfbf" points="0,-291.5 0,-310.5 164,-310.5 164,-291.5 0,-291.5"/>
<text text-anchor="middle" x="82" y="-298.5" font-family="Helvetica,sans-Serif" font-size="10.00">Framework/DataProcessorSpec.h</text>
</g>
<!-- Node1&#45;&gt;Node2 -->
<g id="edge1" class="edge"><title>Node1&#45;&gt;Node2</title>
<path fill="none" stroke="midnightblue" d="M189.618,-403.415C188.594,-389.937 184.829,-363.636 171,-347 158.509,-331.974 139.736,-321.451 122.646,-314.381"/>
<polygon fill="midnightblue" stroke="midnightblue" points="123.429,-310.932 112.839,-310.609 120.916,-317.466 123.429,-310.932"/>
</g>
<!-- Node3 -->
<g id="node3" class="node"><title>Node3</title>
<g id="a_node3"><a xlink:href="Checker_8h.html" target="_top" xlink:title="QualityControl/Checker.h">
<polygon fill="none" stroke="black" points="1000.5,-347.5 1000.5,-366.5 1127.5,-366.5 1127.5,-347.5 1000.5,-347.5"/>
<text text-anchor="middle" x="1064" y="-354.5" font-family="Helvetica,sans-Serif" font-size="10.00">QualityControl/Checker.h</text>
</a>
</g>
</g>
<!-- Node1&#45;&gt;Node3 -->
<g id="edge2" class="edge"><title>Node1&#45;&gt;Node3</title>
<path fill="none" stroke="midnightblue" d="M276.596,-406.65C448.33,-396.039 829.311,-372.5 990.11,-362.565"/>
<polygon fill="midnightblue" stroke="midnightblue" points="990.614,-366.041 1000.38,-361.931 990.182,-359.054 990.614,-366.041"/>
</g>
<!-- Node38 -->
<g id="node38" class="node"><title>Node38</title>
<g id="a_node38"><a xlink:href="CheckerFactory_8h.html" target="_top" xlink:title="QualityControl/CheckerFactory.h">
<polygon fill="none" stroke="black" points="2,-347.5 2,-366.5 162,-366.5 162,-347.5 2,-347.5"/>
<text text-anchor="middle" x="82" y="-354.5" font-family="Helvetica,sans-Serif" font-size="10.00">QualityControl/CheckerFactory.h</text>
</a>
</g>
</g>
<!-- Node1&#45;&gt;Node38 -->
<g id="edge52" class="edge"><title>Node1&#45;&gt;Node38</title>
<path fill="none" stroke="midnightblue" d="M172.648,-403.324C155.328,-394.664 128.485,-381.242 108.498,-371.249"/>
<polygon fill="midnightblue" stroke="midnightblue" points="109.819,-367.996 99.309,-366.655 106.688,-374.257 109.819,-367.996"/>
</g>
<!-- Node4 -->
<g id="node4" class="node"><title>Node4</title>
<polygon fill="none" stroke="#bfbfbf" points="1232,-291.5 1232,-310.5 1278,-310.5 1278,-291.5 1232,-291.5"/>
<text text-anchor="middle" x="1255" y="-298.5" font-family="Helvetica,sans-Serif" font-size="10.00">chrono</text>
</g>
<!-- Node3&#45;&gt;Node4 -->
<g id="edge3" class="edge"><title>Node3&#45;&gt;Node4</title>
<path fill="none" stroke="midnightblue" d="M1094.26,-347.444C1129.02,-337.618 1185.85,-321.551 1221.79,-311.388"/>
<polygon fill="midnightblue" stroke="midnightblue" points="1223.12,-314.652 1231.79,-308.563 1221.21,-307.916 1223.12,-314.652"/>
</g>
<!-- Node5 -->
<g id="node5" class="node"><title>Node5</title>
<polygon fill="none" stroke="#bfbfbf" points="166,-62 166,-81 218,-81 218,-62 166,-62"/>
<text text-anchor="middle" x="192" y="-69" font-family="Helvetica,sans-Serif" font-size="10.00">memory</text>
</g>
<!-- Node3&#45;&gt;Node5 -->
<g id="edge4" class="edge"><title>Node3&#45;&gt;Node5</title>
<path fill="none" stroke="midnightblue" d="M1000.23,-354.654C799.213,-349.576 192,-327.492 192,-246 192,-246 192,-246 192,-188 192,-153.864 192,-114.052 192,-91.2092"/>
<polygon fill="midnightblue" stroke="midnightblue" points="195.5,-91.1934 192,-81.1934 188.5,-91.1934 195.5,-91.1934"/>
</g>
<!-- Node6 -->
<g id="node6" class="node"><title>Node6</title>
<polygon fill="none" stroke="#bfbfbf" points="1408,-291.5 1408,-310.5 1500,-310.5 1500,-291.5 1408,-291.5"/>
<text text-anchor="middle" x="1454" y="-298.5" font-family="Helvetica,sans-Serif" font-size="10.00">Common/Timer.h</text>
</g>
<!-- Node3&#45;&gt;Node6 -->
<g id="edge5" class="edge"><title>Node3&#45;&gt;Node6</title>
<path fill="none" stroke="midnightblue" d="M1127.61,-347.583C1194.09,-338.725 1301.42,-324.256 1394,-311 1395.26,-310.819 1396.54,-310.636 1397.82,-310.45"/>
<polygon fill="midnightblue" stroke="midnightblue" points="1398.43,-313.898 1407.82,-308.99 1397.42,-306.972 1398.43,-313.898"/>
</g>
<!-- Node7 -->
<g id="node7" class="node"><title>Node7</title>
<polygon fill="none" stroke="#bfbfbf" points="971.5,-56.5 971.5,-86.5 1106.5,-86.5 1106.5,-56.5 971.5,-56.5"/>
<text text-anchor="start" x="979.5" y="-74.5" font-family="Helvetica,sans-Serif" font-size="10.00">Configuration/Configuration</text>
<text text-anchor="middle" x="1039" y="-63.5" font-family="Helvetica,sans-Serif" font-size="10.00">Interface.h</text>
</g>
<!-- Node3&#45;&gt;Node7 -->
<g id="edge6" class="edge"><title>Node3&#45;&gt;Node7</title>
<path fill="none" stroke="midnightblue" d="M1092,-347.496C1110.45,-340.514 1133.74,-328.83 1148,-311 1166.72,-287.589 1166,-275.976 1166,-246 1166,-246 1166,-246 1166,-188 1166,-142.117 1120.07,-109.649 1083.45,-91.0546"/>
<polygon fill="midnightblue" stroke="midnightblue" points="1084.9,-87.8661 1074.38,-86.6264 1081.83,-94.1572 1084.9,-87.8661"/>
</g>
<!-- Node8 -->
<g id="node8" class="node"><title>Node8</title>
<polygon fill="none" stroke="#bfbfbf" points="580,-291.5 580,-310.5 678,-310.5 678,-291.5 580,-291.5"/>
<text text-anchor="middle" x="629" y="-298.5" font-family="Helvetica,sans-Serif" font-size="10.00">Framework/Task.h</text>
</g>
<!-- Node3&#45;&gt;Node8 -->
<g id="edge7" class="edge"><title>Node3&#45;&gt;Node8</title>
<path fill="none" stroke="midnightblue" d="M1000.21,-349.077C927.293,-341.009 804.098,-326.905 688.148,-311.117"/>
<polygon fill="midnightblue" stroke="midnightblue" points="688.412,-307.62 678.03,-309.732 687.463,-314.556 688.412,-307.62"/>
</g>
<!-- Node9 -->
<g id="node9" class="node"><title>Node9</title>
<polygon fill="none" stroke="#bfbfbf" points="696.5,-291.5 696.5,-310.5 847.5,-310.5 847.5,-291.5 696.5,-291.5"/>
<text text-anchor="middle" x="772" y="-298.5" font-family="Helvetica,sans-Serif" font-size="10.00">Monitoring/MonitoringFactory.h</text>
</g>
<!-- Node3&#45;&gt;Node9 -->
<g id="edge8" class="edge"><title>Node3&#45;&gt;Node9</title>
<path fill="none" stroke="midnightblue" d="M1017.73,-347.444C966.259,-337.925 883.107,-322.547 828.001,-312.356"/>
<polygon fill="midnightblue" stroke="midnightblue" points="828.522,-308.893 818.052,-310.516 827.249,-315.777 828.522,-308.893"/>
</g>
<!-- Node10 -->
<g id="node10" class="node"><title>Node10</title>
<g id="a_node10"><a xlink:href="CheckInterface_8h.html" target="_top" xlink:title="QualityControl/CheckInterface.h">
<polygon fill="none" stroke="black" points="1194.5,-179.5 1194.5,-198.5 1351.5,-198.5 1351.5,-179.5 1194.5,-179.5"/>
<text text-anchor="middle" x="1273" y="-186.5" font-family="Helvetica,sans-Serif" font-size="10.00">QualityControl/CheckInterface.h</text>
</a>
</g>
</g>
<!-- Node3&#45;&gt;Node10 -->
<g id="edge9" class="edge"><title>Node3&#45;&gt;Node10</title>
<path fill="none" stroke="midnightblue" d="M1100.27,-347.445C1124.53,-340.464 1156.23,-328.804 1180,-311 1218.38,-282.258 1248.97,-233.682 1263.61,-207.68"/>
<polygon fill="midnightblue" stroke="midnightblue" points="1266.84,-209.069 1268.57,-198.617 1260.7,-205.705 1266.84,-209.069"/>
</g>
<!-- Node11 -->
<g id="node11" class="node"><title>Node11</title>
<g id="a_node11"><a xlink:href="MonitorObject_8h.html" target="_top" xlink:title="QualityControl/MonitorObject.h">
<polygon fill="none" stroke="black" points="1270.5,-123.5 1270.5,-142.5 1421.5,-142.5 1421.5,-123.5 1270.5,-123.5"/>
<text text-anchor="middle" x="1346" y="-130.5" font-family="Helvetica,sans-Serif" font-size="10.00">QualityControl/MonitorObject.h</text>
</a>
</g>
</g>
<!-- Node3&#45;&gt;Node11 -->
<g id="edge24" class="edge"><title>Node3&#45;&gt;Node11</title>
<path fill="none" stroke="midnightblue" d="M1127.62,-355.948C1175.17,-353.05 1239.84,-342.785 1287,-311 1336.47,-277.657 1343.83,-256.137 1361,-199 1365.73,-183.247 1360.6,-164.966 1355.09,-151.811"/>
<polygon fill="midnightblue" stroke="midnightblue" points="1358.15,-150.103 1350.77,-142.506 1351.8,-153.05 1358.15,-150.103"/>
</g>
<!-- Node19 -->
<g id="node19" class="node"><title>Node19</title>
<g id="a_node19"><a xlink:href="DatabaseInterface_8h.html" target="_top" xlink:title="QualityControl/DatabaseInterface.h">
<polygon fill="none" stroke="black" points="220,-179.5 220,-198.5 390,-198.5 390,-179.5 220,-179.5"/>
<text text-anchor="middle" x="305" y="-186.5" font-family="Helvetica,sans-Serif" font-size="10.00">QualityControl/DatabaseInterface.h</text>
</a>
</g>
</g>
<!-- Node3&#45;&gt;Node19 -->
<g id="edge20" class="edge"><title>Node3&#45;&gt;Node19</title>
<path fill="none" stroke="midnightblue" d="M1039.93,-347.428C1001.47,-333.966 923.583,-307.688 856,-291 685.129,-248.807 480.484,-215.794 375.209,-200.068"/>
<polygon fill="midnightblue" stroke="midnightblue" points="375.434,-196.563 365.028,-198.555 374.405,-203.487 375.434,-196.563"/>
</g>
<!-- Node21 -->
<g id="node21" class="node"><title>Node21</title>
<g id="a_node21"><a xlink:href="QcInfoLogger_8h.html" target="_top" xlink:title="QualityControl/QcInfoLogger.h">
<polygon fill="none" stroke="black" points="989.5,-291.5 989.5,-310.5 1138.5,-310.5 1138.5,-291.5 989.5,-291.5"/>
<text text-anchor="middle" x="1064" y="-298.5" font-family="Helvetica,sans-Serif" font-size="10.00">QualityControl/QcInfoLogger.h</text>
</a>
</g>
</g>
<!-- Node3&#45;&gt;Node21 -->
<g id="edge25" class="edge"><title>Node3&#45;&gt;Node21</title>
<path fill="none" stroke="midnightblue" d="M1064,-347.083C1064,-340.006 1064,-329.861 1064,-320.986"/>
<polygon fill="midnightblue" stroke="midnightblue" points="1067.5,-320.751 1064,-310.751 1060.5,-320.751 1067.5,-320.751"/>
</g>
<!-- Node10&#45;&gt;Node11 -->
<g id="edge10" class="edge"><title>Node10&#45;&gt;Node11</title>
<path fill="none" stroke="midnightblue" d="M1284.73,-179.324C1295.84,-171.107 1312.74,-158.602 1325.98,-148.807"/>
<polygon fill="midnightblue" stroke="midnightblue" points="1328.1,-151.595 1334.06,-142.834 1323.94,-145.967 1328.1,-151.595"/>
</g>
<!-- Node16 -->
<g id="node16" class="node"><title>Node16</title>
<g id="a_node16"><a xlink:href="Quality_8h.html" target="_top" xlink:title="QualityControl/Quality.h">
<polygon fill="none" stroke="black" points="1124.5,-62 1124.5,-81 1245.5,-81 1245.5,-62 1124.5,-62"/>
<text text-anchor="middle" x="1185" y="-69" font-family="Helvetica,sans-Serif" font-size="10.00">QualityControl/Quality.h</text>
</a>
</g>
</g>
<!-- Node10&#45;&gt;Node16 -->
<g id="edge19" class="edge"><title>Node10&#45;&gt;Node16</title>
<path fill="none" stroke="midnightblue" d="M1266.39,-179.319C1251.86,-160.255 1216.96,-114.447 1197.92,-89.4582"/>
<polygon fill="midnightblue" stroke="midnightblue" points="1200.54,-87.1152 1191.69,-81.282 1194.97,-91.3575 1200.54,-87.1152"/>
</g>
<!-- Node12 -->
<g id="node12" class="node"><title>Node12</title>
<polygon fill="none" stroke="#bfbfbf" points="1490,-62 1490,-81 1544,-81 1544,-62 1490,-62"/>
<text text-anchor="middle" x="1517" y="-69" font-family="Helvetica,sans-Serif" font-size="10.00">iostream</text>
</g>
<!-- Node11&#45;&gt;Node12 -->
<g id="edge11" class="edge"><title>Node11&#45;&gt;Node12</title>
<path fill="none" stroke="midnightblue" d="M1370.94,-123.423C1397.12,-114.404 1439.48,-99.7784 1476,-87 1478.37,-86.1709 1480.82,-85.3126 1483.28,-84.4466"/>
<polygon fill="midnightblue" stroke="midnightblue" points="1484.46,-87.7405 1492.73,-81.1142 1482.13,-81.1388 1484.46,-87.7405"/>
</g>
<!-- Node13 -->
<g id="node13" class="node"><title>Node13</title>
<polygon fill="none" stroke="#bfbfbf" points="1398.5,-62 1398.5,-81 1433.5,-81 1433.5,-62 1398.5,-62"/>
<text text-anchor="middle" x="1416" y="-69" font-family="Helvetica,sans-Serif" font-size="10.00">map</text>
</g>
<!-- Node11&#45;&gt;Node13 -->
<g id="edge12" class="edge"><title>Node11&#45;&gt;Node13</title>
<path fill="none" stroke="midnightblue" d="M1356.03,-123.475C1367.05,-114.108 1384.96,-98.8839 1398.34,-87.5081"/>
<polygon fill="midnightblue" stroke="midnightblue" points="1400.64,-90.1524 1405.99,-81.0091 1396.1,-84.8188 1400.64,-90.1524"/>
</g>
<!-- Node14 -->
<g id="node14" class="node"><title>Node14</title>
<polygon fill="none" stroke="#bfbfbf" points="1330.5,-0.5 1330.5,-19.5 1389.5,-19.5 1389.5,-0.5 1330.5,-0.5"/>
<text text-anchor="middle" x="1360" y="-7.5" font-family="Helvetica,sans-Serif" font-size="10.00">TObject.h</text>
</g>
<!-- Node11&#45;&gt;Node14 -->
<g id="edge13" class="edge"><title>Node11&#45;&gt;Node14</title>
<path fill="none" stroke="midnightblue" d="M1388.39,-123.451C1408.58,-117.022 1430.91,-105.933 1443,-87 1450.41,-75.3872 1450.05,-67.8386 1443,-56 1433.4,-39.8702 1415.78,-29.1662 1399.23,-22.2615"/>
<polygon fill="midnightblue" stroke="midnightblue" points="1400.27,-18.9135 1389.68,-18.6228 1397.78,-25.4546 1400.27,-18.9135"/>
</g>
<!-- Node15 -->
<g id="node15" class="node"><title>Node15</title>
<polygon fill="none" stroke="#bfbfbf" points="1264,-62 1264,-81 1380,-81 1380,-62 1264,-62"/>
<text text-anchor="middle" x="1322" y="-69" font-family="Helvetica,sans-Serif" font-size="10.00">Common/Exceptions.h</text>
</g>
<!-- Node11&#45;&gt;Node15 -->
<g id="edge14" class="edge"><title>Node11&#45;&gt;Node15</title>
<path fill="none" stroke="midnightblue" d="M1342.56,-123.475C1339.1,-114.904 1333.67,-101.427 1329.25,-90.483"/>
<polygon fill="midnightblue" stroke="midnightblue" points="1332.42,-88.9738 1325.43,-81.0091 1325.93,-91.5924 1332.42,-88.9738"/>
</g>
<!-- Node11&#45;&gt;Node16 -->
<g id="edge15" class="edge"><title>Node11&#45;&gt;Node16</title>
<path fill="none" stroke="midnightblue" d="M1322.93,-123.475C1295.32,-113.269 1248.88,-96.108 1217.6,-84.5492"/>
<polygon fill="midnightblue" stroke="midnightblue" points="1218.62,-81.1927 1208.02,-81.0091 1216.19,-87.7586 1218.62,-81.1927"/>
</g>
<!-- Node16&#45;&gt;Node14 -->
<g id="edge16" class="edge"><title>Node16&#45;&gt;Node14</title>
<path fill="none" stroke="midnightblue" d="M1210.07,-61.9751C1240.35,-51.6804 1291.44,-34.3103 1325.44,-22.7502"/>
<polygon fill="midnightblue" stroke="midnightblue" points="1326.63,-26.0419 1334.97,-19.5091 1324.38,-19.4145 1326.63,-26.0419"/>
</g>
<!-- Node17 -->
<g id="node17" class="node"><title>Node17</title>
<polygon fill="none" stroke="#bfbfbf" points="1159,-0.5 1159,-19.5 1211,-19.5 1211,-0.5 1159,-0.5"/>
<text text-anchor="middle" x="1185" y="-7.5" font-family="Helvetica,sans-Serif" font-size="10.00">ostream</text>
</g>
<!-- Node16&#45;&gt;Node17 -->
<g id="edge17" class="edge"><title>Node16&#45;&gt;Node17</title>
<path fill="none" stroke="midnightblue" d="M1185,-61.9751C1185,-53.5803 1185,-40.4806 1185,-29.6631"/>
<polygon fill="midnightblue" stroke="midnightblue" points="1188.5,-29.5091 1185,-19.5091 1181.5,-29.5091 1188.5,-29.5091"/>
</g>
<!-- Node18 -->
<g id="node18" class="node"><title>Node18</title>
<polygon fill="none" stroke="#bfbfbf" points="679.5,-0.5 679.5,-19.5 720.5,-19.5 720.5,-0.5 679.5,-0.5"/>
<text text-anchor="middle" x="700" y="-7.5" font-family="Helvetica,sans-Serif" font-size="10.00">string</text>
</g>
<!-- Node16&#45;&gt;Node18 -->
<g id="edge18" class="edge"><title>Node16&#45;&gt;Node18</title>
<path fill="none" stroke="midnightblue" d="M1147.88,-61.9933C1137.6,-59.8286 1126.4,-57.6506 1116,-56 972.986,-33.2957 800.467,-18.6653 731.101,-13.301"/>
<polygon fill="midnightblue" stroke="midnightblue" points="731.112,-9.79173 720.874,-12.5198 730.578,-16.7714 731.112,-9.79173"/>
</g>
<!-- Node19&#45;&gt;Node5 -->
<g id="edge22" class="edge"><title>Node19&#45;&gt;Node5</title>
<path fill="none" stroke="midnightblue" d="M309.281,-179.16C315.069,-165.801 323.428,-140.208 312,-123 311.663,-122.493 257.42,-99.7922 221.987,-85.0023"/>
<polygon fill="midnightblue" stroke="midnightblue" points="223.129,-81.6863 212.552,-81.0656 220.433,-88.1465 223.129,-81.6863"/>
</g>
<!-- Node19&#45;&gt;Node11 -->
<g id="edge21" class="edge"><title>Node19&#45;&gt;Node11</title>
<path fill="none" stroke="midnightblue" d="M390.039,-179.674C393.062,-179.436 396.057,-179.211 399,-179 565.009,-167.115 1059.72,-145.925 1260.2,-137.548"/>
<polygon fill="midnightblue" stroke="midnightblue" points="1260.54,-141.037 1270.38,-137.123 1260.25,-134.043 1260.54,-141.037"/>
</g>
<!-- Node20 -->
<g id="node20" class="node"><title>Node20</title>
<polygon fill="none" stroke="#bfbfbf" points="220.5,-123.5 220.5,-142.5 303.5,-142.5 303.5,-123.5 220.5,-123.5"/>
<text text-anchor="middle" x="262" y="-130.5" font-family="Helvetica,sans-Serif" font-size="10.00">unordered_map</text>
</g>
<!-- Node19&#45;&gt;Node20 -->
<g id="edge23" class="edge"><title>Node19&#45;&gt;Node20</title>
<path fill="none" stroke="midnightblue" d="M297.899,-179.083C291.763,-171.377 282.73,-160.033 275.261,-150.653"/>
<polygon fill="midnightblue" stroke="midnightblue" points="277.936,-148.394 268.968,-142.751 272.46,-152.754 277.936,-148.394"/>
</g>
<!-- Node21&#45;&gt;Node12 -->
<g id="edge51" class="edge"><title>Node21&#45;&gt;Node12</title>
<path fill="none" stroke="midnightblue" d="M1102.79,-291.386C1161.26,-277.416 1274.31,-246.501 1361,-199 1395.94,-179.855 1400.04,-168.074 1431,-143 1454.38,-124.066 1481.16,-102.059 1498.54,-87.7367"/>
<polygon fill="midnightblue" stroke="midnightblue" points="1501.22,-90.0671 1506.71,-81.0045 1496.77,-84.6667 1501.22,-90.0671"/>
</g>
<!-- Node22 -->
<g id="node22" class="node"><title>Node22</title>
<g id="a_node22"><a xlink:href="TaskInterface_8h.html" target="_top" xlink:title="TaskInterface.h">
<polygon fill="none" stroke="black" points="904.5,-235.5 904.5,-254.5 989.5,-254.5 989.5,-235.5 904.5,-235.5"/>
<text text-anchor="middle" x="947" y="-242.5" font-family="Helvetica,sans-Serif" font-size="10.00">TaskInterface.h</text>
</a>
</g>
</g>
<!-- Node21&#45;&gt;Node22 -->
<g id="edge26" class="edge"><title>Node21&#45;&gt;Node22</title>
<path fill="none" stroke="midnightblue" d="M1045.46,-291.444C1026.38,-282.636 996.425,-268.812 974.564,-258.722"/>
<polygon fill="midnightblue" stroke="midnightblue" points="975.999,-255.529 965.452,-254.516 973.065,-261.885 975.999,-255.529"/>
</g>
<!-- Node37 -->
<g id="node37" class="node"><title>Node37</title>
<polygon fill="none" stroke="#bfbfbf" points="1008,-235.5 1008,-254.5 1138,-254.5 1138,-235.5 1008,-235.5"/>
<text text-anchor="middle" x="1073" y="-242.5" font-family="Helvetica,sans-Serif" font-size="10.00">InfoLogger/InfoLogger.hxx</text>
</g>
<!-- Node21&#45;&gt;Node37 -->
<g id="edge50" class="edge"><title>Node21&#45;&gt;Node37</title>
<path fill="none" stroke="midnightblue" d="M1065.49,-291.083C1066.68,-283.927 1068.39,-273.635 1069.88,-264.691"/>
<polygon fill="midnightblue" stroke="midnightblue" points="1073.35,-265.19 1071.54,-254.751 1066.45,-264.04 1073.35,-265.19"/>
</g>
<!-- Node22&#45;&gt;Node5 -->
<g id="edge27" class="edge"><title>Node22&#45;&gt;Node5</title>
<path fill="none" stroke="midnightblue" d="M904.268,-244.453C754.87,-245.624 262.191,-245.873 211,-199 181.201,-171.715 184.161,-119.321 188.368,-91.2877"/>
<polygon fill="midnightblue" stroke="midnightblue" points="191.854,-91.6651 190.095,-81.2173 184.955,-90.4815 191.854,-91.6651"/>
</g>
<!-- Node22&#45;&gt;Node7 -->
<g id="edge31" class="edge"><title>Node22&#45;&gt;Node7</title>
<path fill="none" stroke="midnightblue" d="M987.424,-235.432C1032.92,-225.382 1101.52,-208.848 1109,-199 1119.02,-185.812 1115.02,-149.27 1100,-123 1093.22,-111.133 1082.5,-100.867 1071.93,-92.7478"/>
<polygon fill="midnightblue" stroke="midnightblue" points="1073.72,-89.7226 1063.56,-86.7072 1069.62,-95.3982 1073.72,-89.7226"/>
</g>
<!-- Node23 -->
<g id="node23" class="node"><title>Node23</title>
<polygon fill="none" stroke="#bfbfbf" points="1050.5,-179.5 1050.5,-198.5 1099.5,-198.5 1099.5,-179.5 1050.5,-179.5"/>
<text text-anchor="middle" x="1075" y="-186.5" font-family="Helvetica,sans-Serif" font-size="10.00">cassert</text>
</g>
<!-- Node22&#45;&gt;Node23 -->
<g id="edge28" class="edge"><title>Node22&#45;&gt;Node23</title>
<path fill="none" stroke="midnightblue" d="M967.282,-235.444C988.347,-226.557 1021.52,-212.563 1045.49,-202.451"/>
<polygon fill="midnightblue" stroke="midnightblue" points="1046.96,-205.628 1054.81,-198.516 1044.24,-199.179 1046.96,-205.628"/>
</g>
<!-- Node24 -->
<g id="node24" class="node"><title>Node24</title>
<polygon fill="none" stroke="#bfbfbf" points="408.5,-179.5 408.5,-198.5 533.5,-198.5 533.5,-179.5 408.5,-179.5"/>
<text text-anchor="middle" x="471" y="-186.5" font-family="Helvetica,sans-Serif" font-size="10.00">Framework/InitContext.h</text>
</g>
<!-- Node22&#45;&gt;Node24 -->
<g id="edge29" class="edge"><title>Node22&#45;&gt;Node24</title>
<path fill="none" stroke="midnightblue" d="M904.394,-237.018C899.545,-236.299 894.669,-235.61 890,-235 739.129,-215.3 698.216,-216.706 544.032,-199.209"/>
<polygon fill="midnightblue" stroke="midnightblue" points="544.043,-195.687 533.71,-198.029 543.248,-202.642 544.043,-195.687"/>
</g>
<!-- Node25 -->
<g id="node25" class="node"><title>Node25</title>
<polygon fill="none" stroke="#bfbfbf" points="731,-179.5 731,-198.5 891,-198.5 891,-179.5 731,-179.5"/>
<text text-anchor="middle" x="811" y="-186.5" font-family="Helvetica,sans-Serif" font-size="10.00">Framework/ProcessingContext.h</text>
</g>
<!-- Node22&#45;&gt;Node25 -->
<g id="edge30" class="edge"><title>Node22&#45;&gt;Node25</title>
<path fill="none" stroke="midnightblue" d="M925.45,-235.444C902.969,-226.517 867.512,-212.439 842.02,-202.317"/>
<polygon fill="midnightblue" stroke="midnightblue" points="843.035,-198.954 832.449,-198.516 840.451,-205.46 843.035,-198.954"/>
</g>
<!-- Node26 -->
<g id="node26" class="node"><title>Node26</title>
<g id="a_node26"><a xlink:href="Activity_8h.html" target="_top" xlink:title="QualityControl/Activity.h">
<polygon fill="none" stroke="black" points="909.5,-179.5 909.5,-198.5 1032.5,-198.5 1032.5,-179.5 909.5,-179.5"/>
<text text-anchor="middle" x="971" y="-186.5" font-family="Helvetica,sans-Serif" font-size="10.00">QualityControl/Activity.h</text>
</a>
</g>
</g>
<!-- Node22&#45;&gt;Node26 -->
<g id="edge32" class="edge"><title>Node22&#45;&gt;Node26</title>
<path fill="none" stroke="midnightblue" d="M950.963,-235.083C954.213,-227.77 958.919,-217.181 962.954,-208.103"/>
<polygon fill="midnightblue" stroke="midnightblue" points="966.248,-209.311 967.111,-198.751 959.851,-206.468 966.248,-209.311"/>
</g>
<!-- Node27 -->
<g id="node27" class="node"><title>Node27</title>
<g id="a_node27"><a xlink:href="ObjectsManager_8h.html" target="_top" xlink:title="QualityControl/ObjectsManager.h">
<polygon fill="none" stroke="black" points="551.5,-179.5 551.5,-198.5 712.5,-198.5 712.5,-179.5 551.5,-179.5"/>
<text text-anchor="middle" x="632" y="-186.5" font-family="Helvetica,sans-Serif" font-size="10.00">QualityControl/ObjectsManager.h</text>
</a>
</g>
</g>
<!-- Node22&#45;&gt;Node27 -->
<g id="edge33" class="edge"><title>Node22&#45;&gt;Node27</title>
<path fill="none" stroke="midnightblue" d="M904.19,-236.661C849.295,-227.251 753.803,-210.88 691.764,-200.245"/>
<polygon fill="midnightblue" stroke="midnightblue" points="692.175,-196.765 681.727,-198.525 690.992,-203.664 692.175,-196.765"/>
</g>
<!-- Node27&#45;&gt;Node11 -->
<g id="edge34" class="edge"><title>Node27&#45;&gt;Node11</title>
<path fill="none" stroke="midnightblue" d="M712.943,-179.799C716,-179.523 719.027,-179.256 722,-179 774.151,-174.513 1101.57,-151.268 1260.14,-140.059"/>
<polygon fill="midnightblue" stroke="midnightblue" points="1260.61,-143.535 1270.34,-139.338 1260.12,-136.552 1260.61,-143.535"/>
</g>
<!-- Node27&#45;&gt;Node16 -->
<g id="edge35" class="edge"><title>Node27&#45;&gt;Node16</title>
<path fill="none" stroke="midnightblue" d="M712.951,-179.887C716.006,-179.586 719.031,-179.29 722,-179 805.981,-170.802 1022.07,-175.368 1100,-143 1128.91,-130.992 1155.52,-105.621 1171,-88.8193"/>
<polygon fill="midnightblue" stroke="midnightblue" points="1173.62,-91.1446 1177.67,-81.3553 1168.4,-86.4808 1173.62,-91.1446"/>
</g>
<!-- Node27&#45;&gt;Node18 -->
<g id="edge49" class="edge"><title>Node27&#45;&gt;Node18</title>
<path fill="none" stroke="midnightblue" d="M627.556,-179.426C621.639,-166.837 612.62,-142.708 619,-123 631.657,-83.8996 663.632,-46.9882 683.412,-26.8371"/>
<polygon fill="midnightblue" stroke="midnightblue" points="685.939,-29.2609 690.571,-19.7324 681.008,-24.2924 685.939,-29.2609"/>
</g>
<!-- Node28 -->
<g id="node28" class="node"><title>Node28</title>
<g id="a_node28"><a xlink:href="TaskConfig_8h.html" target="_top" xlink:title="QualityControl/TaskConfig.h">
<polygon fill="none" stroke="black" points="951,-123.5 951,-142.5 1091,-142.5 1091,-123.5 951,-123.5"/>
<text text-anchor="middle" x="1021" y="-130.5" font-family="Helvetica,sans-Serif" font-size="10.00">QualityControl/TaskConfig.h</text>
</a>
</g>
</g>
<!-- Node27&#45;&gt;Node28 -->
<g id="edge36" class="edge"><title>Node27&#45;&gt;Node28</title>
<path fill="none" stroke="midnightblue" d="M693.638,-179.444C763.205,-169.786 876.21,-154.099 949.571,-143.916"/>
<polygon fill="midnightblue" stroke="midnightblue" points="950.226,-147.358 959.65,-142.516 949.264,-140.425 950.226,-147.358"/>
</g>
<!-- Node29 -->
<g id="node29" class="node"><title>Node29</title>
<g id="a_node29"><a xlink:href="ServiceDiscovery_8h_source.html" target="_top" xlink:title="QualityControl/ServiceDiscovery.h">
<polygon fill="none" stroke="black" points="359.5,-123.5 359.5,-142.5 526.5,-142.5 526.5,-123.5 359.5,-123.5"/>
<text text-anchor="middle" x="443" y="-130.5" font-family="Helvetica,sans-Serif" font-size="10.00">QualityControl/ServiceDiscovery.h</text>
</a>
</g>
</g>
<!-- Node27&#45;&gt;Node29 -->
<g id="edge39" class="edge"><title>Node27&#45;&gt;Node29</title>
<path fill="none" stroke="midnightblue" d="M602.052,-179.444C569.842,-170.241 518.466,-155.562 482.858,-145.388"/>
<polygon fill="midnightblue" stroke="midnightblue" points="483.384,-141.898 472.808,-142.516 481.461,-148.629 483.384,-141.898"/>
</g>
<!-- Node34 -->
<g id="node34" class="node"><title>Node34</title>
<polygon fill="none" stroke="#bfbfbf" points="628.5,-123.5 628.5,-142.5 697.5,-142.5 697.5,-123.5 628.5,-123.5"/>
<text text-anchor="middle" x="663" y="-130.5" font-family="Helvetica,sans-Serif" font-size="10.00">TObjArray.h</text>
</g>
<!-- Node27&#45;&gt;Node34 -->
<g id="edge46" class="edge"><title>Node27&#45;&gt;Node34</title>
<path fill="none" stroke="midnightblue" d="M637.119,-179.083C641.408,-171.613 647.658,-160.724 652.942,-151.52"/>
<polygon fill="midnightblue" stroke="midnightblue" points="656.033,-153.166 657.976,-142.751 649.962,-149.681 656.033,-153.166"/>
</g>
<!-- Node35 -->
<g id="node35" class="node"><title>Node35</title>
<polygon fill="none" stroke="#bfbfbf" points="715.5,-123.5 715.5,-142.5 786.5,-142.5 786.5,-123.5 715.5,-123.5"/>
<text text-anchor="middle" x="751" y="-130.5" font-family="Helvetica,sans-Serif" font-size="10.00">TObjString.h</text>
</g>
<!-- Node27&#45;&gt;Node35 -->
<g id="edge47" class="edge"><title>Node27&#45;&gt;Node35</title>
<path fill="none" stroke="midnightblue" d="M650.856,-179.444C670.266,-170.636 700.73,-156.812 722.965,-146.722"/>
<polygon fill="midnightblue" stroke="midnightblue" points="724.572,-149.836 732.232,-142.516 721.68,-143.462 724.572,-149.836"/>
</g>
<!-- Node36 -->
<g id="node36" class="node"><title>Node36</title>
<polygon fill="none" stroke="#bfbfbf" points="805,-123.5 805,-142.5 933,-142.5 933,-123.5 805,-123.5"/>
<text text-anchor="middle" x="869" y="-130.5" font-family="Helvetica,sans-Serif" font-size="10.00">boost/concept_check.hpp</text>
</g>
<!-- Node27&#45;&gt;Node36 -->
<g id="edge48" class="edge"><title>Node27&#45;&gt;Node36</title>
<path fill="none" stroke="midnightblue" d="M669.553,-179.444C710.811,-170.043 777.144,-154.929 821.866,-144.739"/>
<polygon fill="midnightblue" stroke="midnightblue" points="822.65,-148.151 831.622,-142.516 821.095,-141.326 822.65,-148.151"/>
</g>
<!-- Node28&#45;&gt;Node7 -->
<g id="edge38" class="edge"><title>Node28&#45;&gt;Node7</title>
<path fill="none" stroke="midnightblue" d="M1023.58,-123.475C1025.72,-116.396 1028.87,-105.97 1031.77,-96.3896"/>
<polygon fill="midnightblue" stroke="midnightblue" points="1035.21,-97.1081 1034.76,-86.523 1028.51,-95.0811 1035.21,-97.1081"/>
</g>
<!-- Node28&#45;&gt;Node18 -->
<g id="edge37" class="edge"><title>Node28&#45;&gt;Node18</title>
<path fill="none" stroke="midnightblue" d="M998.428,-123.492C941.941,-102.199 794.431,-46.5953 730.397,-22.4581"/>
<polygon fill="midnightblue" stroke="midnightblue" points="731.455,-19.1167 720.864,-18.8645 728.986,-25.6668 731.455,-19.1167"/>
</g>
<!-- Node29&#45;&gt;Node5 -->
<g id="edge42" class="edge"><title>Node29&#45;&gt;Node5</title>
<path fill="none" stroke="midnightblue" d="M388.135,-123.496C344.043,-115.966 280.809,-103.591 227,-87 224.855,-86.3387 222.66,-85.596 220.467,-84.8055"/>
<polygon fill="midnightblue" stroke="midnightblue" points="221.607,-81.4937 211.018,-81.1365 219.073,-88.019 221.607,-81.4937"/>
</g>
<!-- Node29&#45;&gt;Node18 -->
<g id="edge43" class="edge"><title>Node29&#45;&gt;Node18</title>
<path fill="none" stroke="midnightblue" d="M465.482,-123.405C486.178,-115.142 517.447,-101.758 543,-87 563.402,-75.2171 565.328,-67.3013 586,-56 612.997,-41.241 645.868,-28.7977 669.363,-20.7631"/>
<polygon fill="midnightblue" stroke="midnightblue" points="670.758,-23.9872 679.129,-17.4925 668.535,-17.3495 670.758,-23.9872"/>
</g>
<!-- Node30 -->
<g id="node30" class="node"><title>Node30</title>
<polygon fill="none" stroke="#bfbfbf" points="348,-62 348,-81 394,-81 394,-62 348,-62"/>
<text text-anchor="middle" x="371" y="-69" font-family="Helvetica,sans-Serif" font-size="10.00">atomic</text>
</g>
<!-- Node29&#45;&gt;Node30 -->
<g id="edge40" class="edge"><title>Node29&#45;&gt;Node30</title>
<path fill="none" stroke="midnightblue" d="M432.684,-123.475C421.349,-114.108 402.927,-98.8839 389.161,-87.5081"/>
<polygon fill="midnightblue" stroke="midnightblue" points="391.235,-84.6813 381.297,-81.0091 386.776,-90.0773 391.235,-84.6813"/>
</g>
<!-- Node31 -->
<g id="node31" class="node"><title>Node31</title>
<polygon fill="none" stroke="#bfbfbf" points="412.5,-62 412.5,-81 471.5,-81 471.5,-62 412.5,-62"/>
<text text-anchor="middle" x="442" y="-69" font-family="Helvetica,sans-Serif" font-size="10.00">curl/curl.h</text>
</g>
<!-- Node29&#45;&gt;Node31 -->
<g id="edge41" class="edge"><title>Node29&#45;&gt;Node31</title>
<path fill="none" stroke="midnightblue" d="M442.857,-123.475C442.716,-115.08 442.495,-101.981 442.314,-91.1631"/>
<polygon fill="midnightblue" stroke="midnightblue" points="445.811,-90.9488 442.143,-81.0091 438.812,-91.0665 445.811,-90.9488"/>
</g>
<!-- Node32 -->
<g id="node32" class="node"><title>Node32</title>
<polygon fill="none" stroke="#bfbfbf" points="490,-62 490,-81 534,-81 534,-62 490,-62"/>
<text text-anchor="middle" x="512" y="-69" font-family="Helvetica,sans-Serif" font-size="10.00">thread</text>
</g>
<!-- Node29&#45;&gt;Node32 -->
<g id="edge44" class="edge"><title>Node29&#45;&gt;Node32</title>
<path fill="none" stroke="midnightblue" d="M452.886,-123.475C463.646,-114.197 481.071,-99.1706 494.221,-87.831"/>
<polygon fill="midnightblue" stroke="midnightblue" points="496.845,-90.1902 502.132,-81.0091 492.273,-84.889 496.845,-90.1902"/>
</g>
<!-- Node33 -->
<g id="node33" class="node"><title>Node33</title>
<polygon fill="none" stroke="#bfbfbf" points="236,-56.5 236,-86.5 330,-86.5 330,-56.5 236,-56.5"/>
<text text-anchor="start" x="244" y="-74.5" font-family="Helvetica,sans-Serif" font-size="10.00">boost/asio/ip/host</text>
<text text-anchor="middle" x="283" y="-63.5" font-family="Helvetica,sans-Serif" font-size="10.00">_name.hpp</text>
</g>
<!-- Node29&#45;&gt;Node33 -->
<g id="edge45" class="edge"><title>Node29&#45;&gt;Node33</title>
<path fill="none" stroke="midnightblue" d="M420.076,-123.475C396.786,-114.814 360.03,-101.145 330.439,-90.1415"/>
<polygon fill="midnightblue" stroke="midnightblue" points="331.302,-86.7281 320.709,-86.523 328.862,-93.2891 331.302,-86.7281"/>
</g>
<!-- Node38&#45;&gt;Node2 -->
<g id="edge53" class="edge"><title>Node38&#45;&gt;Node2</title>
<path fill="none" stroke="midnightblue" d="M82,-347.083C82,-340.006 82,-329.861 82,-320.986"/>
<polygon fill="midnightblue" stroke="midnightblue" points="85.5001,-320.751 82,-310.751 78.5001,-320.751 85.5001,-320.751"/>
</g>
</g>
</svg>
        <g id="navigator" transform="translate(0 0)" fill="#404254">
                <rect fill="#f2f5e9" fill-opacity="0.5" stroke="#606060" stroke-width=".5" x="0" y="0" width="60" height="60"/>
                <use id="zoomplus" xlink:href="#zoomPlus" x="17" y="9" onmousedown="handleZoom(evt,'in')"/>
                <use id="zoomminus" xlink:href="#zoomMin" x="42" y="9" onmousedown="handleZoom(evt,'out')"/>
                <use id="reset" xlink:href="#resetDef" x="30" y="36" onmousedown="handleReset()"/>
                <g id="arrowUp" xlink:href="#dirArrow" transform="translate(30 24)" onmousedown="handlePan(0,-1)">
                  <use xlink:href="#rim" fill="#404040">
                        <set attributeName="fill" to="#808080" begin="arrowUp.mouseover" end="arrowUp.mouseout"/>
                  </use>
                  <path fill="none" stroke="white" stroke-width="1.5" d="M0,-3.0v7 M-2.5,-0.5L0,-3.0L2.5,-0.5"/>
                </g>
                <g id="arrowRight" xlink:href="#dirArrow" transform="rotate(90) translate(36 -43)" onmousedown="handlePan(1,0)">
                  <use xlink:href="#rim" fill="#404040">
                        <set attributeName="fill" to="#808080" begin="arrowRight.mouseover" end="arrowRight.mouseout"/>
                  </use>
                  <path fill="none" stroke="white" stroke-width="1.5" d="M0,-3.0v7 M-2.5,-0.5L0,-3.0L2.5,-0.5"/>
                </g>
                <g id="arrowDown" xlink:href="#dirArrow" transform="rotate(180) translate(-30 -48)" onmousedown="handlePan(0,1)">
                  <use xlink:href="#rim" fill="#404040">
                        <set attributeName="fill" to="#808080" begin="arrowDown.mouseover" end="arrowDown.mouseout"/>
                  </use>
                  <path fill="none" stroke="white" stroke-width="1.5" d="M0,-3.0v7 M-2.5,-0.5L0,-3.0L2.5,-0.5"/>
                </g>
                <g id="arrowLeft" xlink:href="#dirArrow" transform="rotate(270) translate(-36 17)" onmousedown="handlePan(-1,0)">
                  <use xlink:href="#rim" fill="#404040">
                        <set attributeName="fill" to="#808080" begin="arrowLeft.mouseover" end="arrowLeft.mouseout"/>
                  </use>
                  <path fill="none" stroke="white" stroke-width="1.5" d="M0,-3.0v7 M-2.5,-0.5L0,-3.0L2.5,-0.5"/>
                </g>
        </g>
        <svg viewBox="0 0 15 15" width="100%" height="30px" preserveAspectRatio="xMaxYMin meet">
         <g id="arrow_out" transform="scale(0.3 0.3)">
          <a xlink:href="CheckerFactory_8cxx__incl_org.svg" target="_base">
           <rect id="button" ry="5" rx="5" y="6" x="6" height="38" width="38"
                fill="#f2f5e9" fill-opacity="0.5" stroke="#606060" stroke-width="1.0"/>
           <path id="arrow"
             d="M 11.500037,31.436501 C 11.940474,20.09759 22.043105,11.32322 32.158766,21.979434 L 37.068811,17.246167 C 37.068811,17.246167 37.088388,32 37.088388,32 L 22.160133,31.978069 C 22.160133,31.978069 26.997745,27.140456 26.997745,27.140456 C 18.528582,18.264221 13.291696,25.230495 11.500037,31.436501 z"
             style="fill:#404040;"/>
          </a>
         </g>
        </svg>
</svg>
