<?xml version="1.0" encoding="UTF-8" standalone="no"?>
<!DOCTYPE svg PUBLIC "-//W3C//DTD SVG 1.1//EN"
 "http://www.w3.org/Graphics/SVG/1.1/DTD/svg11.dtd">
<!-- Generated by graphviz version 2.38.0 (20140413.2041)
 -->
<!-- Title: Framework/include/QualityControl/Checker.h Pages: 1 -->
<svg width="1620pt" height="95pt"
 viewBox="0.00 0.00 1619.50 95.00" xmlns="http://www.w3.org/2000/svg" xmlns:xlink="http://www.w3.org/1999/xlink">
<g id="graph0" class="graph" transform="scale(1 1) rotate(0) translate(4 91)">
<title>Framework/include/QualityControl/Checker.h</title>
<!-- Node1 -->
<g id="node1" class="node"><title>Node1</title>
<polygon fill="#bfbfbf" stroke="black" points="706.5,-56.5 706.5,-86.5 839.5,-86.5 839.5,-56.5 706.5,-56.5"/>
<text text-anchor="start" x="714.5" y="-74.5" font-family="Helvetica,sans-Serif" font-size="10.00">Framework/include/Quality</text>
<text text-anchor="middle" x="773" y="-63.5" font-family="Helvetica,sans-Serif" font-size="10.00">Control/Checker.h</text>
</g>
<!-- Node2 -->
<g id="node2" class="node"><title>Node2</title>
<g id="a_node2"><a xlink:href="Checker_8cxx.html" target="_top" xlink:title="Framework/src/Checker.cxx">
<polygon fill="none" stroke="black" points="0,-0.5 0,-19.5 140,-19.5 140,-0.5 0,-0.5"/>
<text text-anchor="middle" x="70" y="-7.5" font-family="Helvetica,sans-Serif" font-size="10.00">Framework/src/Checker.cxx</text>
</a>
</g>
</g>
<!-- Node1&#45;&gt;Node2 -->
<g id="edge1" class="edge"><title>Node1&#45;&gt;Node2</title>
<path fill="none" stroke="midnightblue" d="M696.445,-65.114C578.696,-56.6469 346.085,-39.1962 149,-20 146.115,-19.719 143.171,-19.4235 140.199,-19.1178"/>
<polygon fill="midnightblue" stroke="midnightblue" points="696.219,-68.6067 706.444,-65.8313 696.72,-61.6247 696.219,-68.6067"/>
</g>
<!-- Node3 -->
<g id="node3" class="node"><title>Node3</title>
<g id="a_node3"><a xlink:href="CheckerFactory_8cxx.html" target="_top" xlink:title="Framework/src/CheckerFactory.cxx">
<polygon fill="none" stroke="black" points="158.5,-0.5 158.5,-19.5 331.5,-19.5 331.5,-0.5 158.5,-0.5"/>
<text text-anchor="middle" x="245" y="-7.5" font-family="Helvetica,sans-Serif" font-size="10.00">Framework/src/CheckerFactory.cxx</text>
</a>
</g>
</g>
<!-- Node1&#45;&gt;Node3 -->
<g id="edge2" class="edge"><title>Node1&#45;&gt;Node3</title>
<path fill="none" stroke="midnightblue" d="M696.316,-61.8586C595.864,-50.5386 420.789,-30.8095 320.784,-19.54"/>
<polygon fill="midnightblue" stroke="midnightblue" points="696.067,-65.3525 706.396,-62.9944 696.851,-58.3966 696.067,-65.3525"/>
</g>
<!-- Node4 -->
<g id="node4" class="node"><title>Node4</title>
<g id="a_node4"><a xlink:href="runBasic_8cxx.html" target="_top" xlink:title="This is an executable showing QC Task&#39;s usage in Data Processing Layer. ">
<polygon fill="none" stroke="black" points="350,-0.5 350,-19.5 492,-19.5 492,-0.5 350,-0.5"/>
<text text-anchor="middle" x="421" y="-7.5" font-family="Helvetica,sans-Serif" font-size="10.00">Framework/src/runBasic.cxx</text>
</a>
</g>
</g>
<!-- Node1&#45;&gt;Node4 -->
<g id="edge3" class="edge"><title>Node1&#45;&gt;Node4</title>
<path fill="none" stroke="midnightblue" d="M696.112,-57.5033C627.877,-45.9693 530.154,-29.4508 471.406,-19.5203"/>
<polygon fill="midnightblue" stroke="midnightblue" points="695.934,-61.0228 706.378,-59.2386 697.101,-54.1207 695.934,-61.0228"/>
</g>
<!-- Node5 -->
<g id="node5" class="node"><title>Node5</title>
<g id="a_node5"><a xlink:href="runMergerTest_8cxx.html" target="_top" xlink:title="This is DPL workflow to see HistoMerger in action. ">
<polygon fill="none" stroke="black" points="510.5,-0.5 510.5,-19.5 677.5,-19.5 677.5,-0.5 510.5,-0.5"/>
<text text-anchor="middle" x="594" y="-7.5" font-family="Helvetica,sans-Serif" font-size="10.00">Framework/src/runMergerTest.cxx</text>
</a>
</g>
</g>
<!-- Node1&#45;&gt;Node5 -->
<g id="edge4" class="edge"><title>Node1&#45;&gt;Node5</title>
<path fill="none" stroke="midnightblue" d="M721.009,-53.2179C687.781,-42.173 646.132,-28.3289 619.785,-19.5709"/>
<polygon fill="midnightblue" stroke="midnightblue" points="719.986,-56.5663 730.579,-56.3993 722.194,-49.9236 719.986,-56.5663"/>
</g>
<!-- Node6 -->
<g id="node6" class="node"><title>Node6</title>
<g id="a_node6"><a xlink:href="runReadout_8cxx.html" target="_top" xlink:title="This is an executable showing QC Task&#39;s usage in Data Processing Layer with Readout as external data ...">
<polygon fill="none" stroke="black" points="696,-0.5 696,-19.5 850,-19.5 850,-0.5 696,-0.5"/>
<text text-anchor="middle" x="773" y="-7.5" font-family="Helvetica,sans-Serif" font-size="10.00">Framework/src/runReadout.cxx</text>
</a>
</g>
</g>
<!-- Node1&#45;&gt;Node6 -->
<g id="edge5" class="edge"><title>Node1&#45;&gt;Node6</title>
<path fill="none" stroke="midnightblue" d="M773,-46.2892C773,-36.857 773,-26.6548 773,-19.6578"/>
<polygon fill="midnightblue" stroke="midnightblue" points="769.5,-46.3993 773,-56.3993 776.5,-46.3994 769.5,-46.3993"/>
</g>
<!-- Node7 -->
<g id="node7" class="node"><title>Node7</title>
<g id="a_node7"><a xlink:href="testChecker_8cxx.html" target="_top" xlink:title="Framework/test/testChecker.cxx">
<polygon fill="none" stroke="black" points="868,-0.5 868,-19.5 1028,-19.5 1028,-0.5 868,-0.5"/>
<text text-anchor="middle" x="948" y="-7.5" font-family="Helvetica,sans-Serif" font-size="10.00">Framework/test/testChecker.cxx</text>
</a>
</g>
</g>
<!-- Node1&#45;&gt;Node7 -->
<g id="edge6" class="edge"><title>Node1&#45;&gt;Node7</title>
<path fill="none" stroke="midnightblue" d="M824.248,-53.0756C856.664,-42.0543 897.143,-28.2914 922.791,-19.5709"/>
<polygon fill="midnightblue" stroke="midnightblue" points="822.814,-49.8665 814.473,-56.3993 825.067,-56.4939 822.814,-49.8665"/>
</g>
<!-- Node8 -->
<g id="node8" class="node"><title>Node8</title>
<g id="a_node8"><a xlink:href="testWorkflow_8cxx.html" target="_top" xlink:title="Framework/test/testWorkflow.cxx">
<polygon fill="none" stroke="black" points="1046,-0.5 1046,-19.5 1210,-19.5 1210,-0.5 1046,-0.5"/>
<text text-anchor="middle" x="1128" y="-7.5" font-family="Helvetica,sans-Serif" font-size="10.00">Framework/test/testWorkflow.cxx</text>
</a>
</g>
</g>
<!-- Node1&#45;&gt;Node8 -->
<g id="edge7" class="edge"><title>Node1&#45;&gt;Node8</title>
<path fill="none" stroke="midnightblue" d="M849.697,-57.6452C918.501,-46.1133 1017.53,-29.5148 1077.04,-19.5412"/>
<polygon fill="midnightblue" stroke="midnightblue" points="849.057,-54.2036 839.773,-59.3085 850.214,-61.1073 849.057,-54.2036"/>
</g>
<!-- Node9 -->
<g id="node9" class="node"><title>Node9</title>
<polygon fill="none" stroke="#bfbfbf" points="1228,-0.5 1228,-19.5 1446,-19.5 1446,-0.5 1228,-0.5"/>
<text text-anchor="middle" x="1337" y="-7.5" font-family="Helvetica,sans-Serif" font-size="10.00">Modules/EMCAL/src/runQCEMCALDigits.cxx</text>
</g>
<!-- Node1&#45;&gt;Node9 -->
<g id="edge8" class="edge"><title>Node1&#45;&gt;Node9</title>
<path fill="none" stroke="midnightblue" d="M849.654,-62.4133C955.986,-51.1956 1147.39,-31.0031 1255.99,-19.5461"/>
<polygon fill="midnightblue" stroke="midnightblue" points="849.212,-58.9404 839.634,-63.4703 849.947,-65.9017 849.212,-58.9404"/>
</g>
<!-- Node10 -->
<g id="node10" class="node"><title>Node10</title>
<g id="a_node10"><a xlink:href="runTOF_8cxx.html" target="_top" xlink:title="This is an executable showing QC Task&#39;s usage in Data Processing Layer. ">
<polygon fill="none" stroke="black" points="1464.5,-0.5 1464.5,-19.5 1611.5,-19.5 1611.5,-0.5 1464.5,-0.5"/>
<text text-anchor="middle" x="1538" y="-7.5" font-family="Helvetica,sans-Serif" font-size="10.00">Modules/TOF/src/runTOF.cxx</text>
</a>
</g>
</g>
<!-- Node1&#45;&gt;Node10 -->
<g id="edge9" class="edge"><title>Node1&#45;&gt;Node10</title>
<path fill="none" stroke="midnightblue" d="M850.207,-65.6438C976.693,-57.4947 1235.92,-39.9832 1455,-20 1458.03,-19.7235 1461.12,-19.4318 1464.25,-19.1293"/>
<polygon fill="midnightblue" stroke="midnightblue" points="849.613,-62.1747 839.858,-66.3088 850.062,-69.1603 849.613,-62.1747"/>
</g>
</g>
</svg>
