<?xml version="1.0" encoding="UTF-8" standalone="no"?>
<!DOCTYPE svg PUBLIC "-//W3C//DTD SVG 1.1//EN"
 "http://www.w3.org/Graphics/SVG/1.1/DTD/svg11.dtd">
<!-- Generated by graphviz version 2.38.0 (20140413.2041)
 -->
<!-- Title: Framework/include/QualityControl/CheckerFactory.h Pages: 1 -->
<svg width="942pt" height="106pt"
 viewBox="0.00 0.00 941.50 106.00" xmlns="http://www.w3.org/2000/svg" xmlns:xlink="http://www.w3.org/1999/xlink">
<g id="graph0" class="graph" transform="scale(1 1) rotate(0) translate(4 102)">
<title>Framework/include/QualityControl/CheckerFactory.h</title>
<!-- Node1 -->
<g id="node1" class="node"><title>Node1</title>
<polygon fill="#bfbfbf" stroke="black" points="369,-67.5 369,-97.5 502,-97.5 502,-67.5 369,-67.5"/>
<text text-anchor="start" x="377" y="-85.5" font-family="Helvetica,sans-Serif" font-size="10.00">Framework/include/Quality</text>
<text text-anchor="middle" x="435.5" y="-74.5" font-family="Helvetica,sans-Serif" font-size="10.00">Control/CheckerFactory.h</text>
</g>
<!-- Node2 -->
<g id="node2" class="node"><title>Node2</title>
<g id="a_node2"><a xlink:href="CheckerFactory_8cxx.html" target="_top" xlink:title="Framework/src/CheckerFactory.cxx">
<polygon fill="none" stroke="black" points="0,-6 0,-25 173,-25 173,-6 0,-6"/>
<text text-anchor="middle" x="86.5" y="-13" font-family="Helvetica,sans-Serif" font-size="10.00">Framework/src/CheckerFactory.cxx</text>
</a>
</g>
</g>
<!-- Node1&#45;&gt;Node2 -->
<g id="edge1" class="edge"><title>Node1&#45;&gt;Node2</title>
<path fill="none" stroke="midnightblue" d="M358.63,-67.1832C289.357,-54.2813 189.816,-35.7422 132.295,-25.0291"/>
<polygon fill="midnightblue" stroke="midnightblue" points="358.15,-70.654 368.622,-69.0443 359.432,-63.7724 358.15,-70.654"/>
</g>
<!-- Node3 -->
<g id="node3" class="node"><title>Node3</title>
<polygon fill="none" stroke="#bfbfbf" points="191,-0.5 191,-30.5 334,-30.5 334,-0.5 191,-0.5"/>
<text text-anchor="start" x="199" y="-18.5" font-family="Helvetica,sans-Serif" font-size="10.00">Framework/src/Infrastructure</text>
<text text-anchor="middle" x="262.5" y="-7.5" font-family="Helvetica,sans-Serif" font-size="10.00">Generator.cxx</text>
</g>
<!-- Node1&#45;&gt;Node3 -->
<g id="edge2" class="edge"><title>Node1&#45;&gt;Node3</title>
<path fill="none" stroke="midnightblue" d="M388.44,-63.8185C360.633,-53.3707 325.906,-40.3231 299.965,-30.5765"/>
<polygon fill="midnightblue" stroke="midnightblue" points="387.369,-67.1551 397.962,-67.396 389.832,-60.6024 387.369,-67.1551"/>
</g>
<!-- Node4 -->
<g id="node4" class="node"><title>Node4</title>
<g id="a_node4"><a xlink:href="runMergerTest_8cxx.html" target="_top" xlink:title="This is DPL workflow to see HistoMerger in action. ">
<polygon fill="none" stroke="black" points="352,-6 352,-25 519,-25 519,-6 352,-6"/>
<text text-anchor="middle" x="435.5" y="-13" font-family="Helvetica,sans-Serif" font-size="10.00">Framework/src/runMergerTest.cxx</text>
</a>
</g>
</g>
<!-- Node1&#45;&gt;Node4 -->
<g id="edge3" class="edge"><title>Node1&#45;&gt;Node4</title>
<path fill="none" stroke="midnightblue" d="M435.5,-57.2495C435.5,-46.017 435.5,-33.3767 435.5,-25.1945"/>
<polygon fill="midnightblue" stroke="midnightblue" points="432,-57.3959 435.5,-67.396 439,-57.396 432,-57.3959"/>
</g>
<!-- Node5 -->
<g id="node5" class="node"><title>Node5</title>
<g id="a_node5"><a xlink:href="testChecker_8cxx.html" target="_top" xlink:title="Framework/test/testChecker.cxx">
<polygon fill="none" stroke="black" points="537.5,-6 537.5,-25 697.5,-25 697.5,-6 537.5,-6"/>
<text text-anchor="middle" x="617.5" y="-13" font-family="Helvetica,sans-Serif" font-size="10.00">Framework/test/testChecker.cxx</text>
</a>
</g>
</g>
<!-- Node1&#45;&gt;Node5 -->
<g id="edge4" class="edge"><title>Node1&#45;&gt;Node5</title>
<path fill="none" stroke="midnightblue" d="M484.651,-63.9459C520,-51.3213 566.119,-34.8502 593.68,-25.007"/>
<polygon fill="midnightblue" stroke="midnightblue" points="483.232,-60.7364 474.991,-67.396 485.586,-67.3286 483.232,-60.7364"/>
</g>
<!-- Node6 -->
<g id="node6" class="node"><title>Node6</title>
<polygon fill="none" stroke="#bfbfbf" points="715.5,-6 715.5,-25 933.5,-25 933.5,-6 715.5,-6"/>
<text text-anchor="middle" x="824.5" y="-13" font-family="Helvetica,sans-Serif" font-size="10.00">Modules/EMCAL/src/runQCEMCALDigits.cxx</text>
</g>
<!-- Node1&#45;&gt;Node6 -->
<g id="edge5" class="edge"><title>Node1&#45;&gt;Node6</title>
<path fill="none" stroke="midnightblue" d="M512.54,-68.627C589.873,-55.7051 706.812,-36.1651 773.373,-25.043"/>
<polygon fill="midnightblue" stroke="midnightblue" points="511.658,-65.2258 502.371,-70.3261 512.812,-72.1301 511.658,-65.2258"/>
</g>
</g>
</svg>
