<?xml version="1.0" encoding="UTF-8" standalone="no"?>
<!DOCTYPE svg PUBLIC "-//W3C//DTD SVG 1.1//EN"
 "http://www.w3.org/Graphics/SVG/1.1/DTD/svg11.dtd">
<!-- Generated by graphviz version 2.38.0 (20140413.2041)
 -->
<!-- Title: Framework/include/QualityControl/Checker.h Pages: 1 -->
<svg width="1551pt" height="386pt"
 viewBox="0.00 0.00 1550.50 386.00" xmlns="http://www.w3.org/2000/svg" xmlns:xlink="http://www.w3.org/1999/xlink">
<g id="graph0" class="graph" transform="scale(1 1) rotate(0) translate(4 382)">
<title>Framework/include/QualityControl/Checker.h</title>
<!-- Node1 -->
<g id="node1" class="node"><title>Node1</title>
<polygon fill="#bfbfbf" stroke="black" points="303.5,-347.5 303.5,-377.5 436.5,-377.5 436.5,-347.5 303.5,-347.5"/>
<text text-anchor="start" x="311.5" y="-365.5" font-family="Helvetica,sans-Serif" font-size="10.00">Framework/include/Quality</text>
<text text-anchor="middle" x="370" y="-354.5" font-family="Helvetica,sans-Serif" font-size="10.00">Control/Checker.h</text>
</g>
<!-- Node2 -->
<g id="node2" class="node"><title>Node2</title>
<polygon fill="none" stroke="#bfbfbf" points="0,-291.5 0,-310.5 46,-310.5 46,-291.5 0,-291.5"/>
<text text-anchor="middle" x="23" y="-298.5" font-family="Helvetica,sans-Serif" font-size="10.00">chrono</text>
</g>
<!-- Node1&#45;&gt;Node2 -->
<g id="edge1" class="edge"><title>Node1&#45;&gt;Node2</title>
<path fill="none" stroke="midnightblue" d="M303.211,-352.141C240.246,-342.959 143.369,-327.904 60,-311 58.7244,-310.741 57.4262,-310.469 56.1164,-310.187"/>
<polygon fill="midnightblue" stroke="midnightblue" points="56.5584,-306.699 46.0311,-307.893 55.0055,-313.524 56.5584,-306.699"/>
</g>
<!-- Node3 -->
<g id="node3" class="node"><title>Node3</title>
<polygon fill="none" stroke="#bfbfbf" points="651,-62 651,-81 703,-81 703,-62 651,-62"/>
<text text-anchor="middle" x="677" y="-69" font-family="Helvetica,sans-Serif" font-size="10.00">memory</text>
</g>
<!-- Node1&#45;&gt;Node3 -->
<g id="edge2" class="edge"><title>Node1&#45;&gt;Node3</title>
<path fill="none" stroke="midnightblue" d="M436.538,-353.67C499.358,-342.131 584,-313.972 584,-246 584,-246 584,-246 584,-188 584,-143.166 627.039,-105.88 654.56,-86.6208"/>
<polygon fill="midnightblue" stroke="midnightblue" points="656.54,-89.5067 662.875,-81.0146 652.627,-83.7025 656.54,-89.5067"/>
</g>
<!-- Node4 -->
<g id="node4" class="node"><title>Node4</title>
<polygon fill="none" stroke="#bfbfbf" points="102,-291.5 102,-310.5 194,-310.5 194,-291.5 102,-291.5"/>
<text text-anchor="middle" x="148" y="-298.5" font-family="Helvetica,sans-Serif" font-size="10.00">Common/Timer.h</text>
</g>
<!-- Node1&#45;&gt;Node4 -->
<g id="edge3" class="edge"><title>Node1&#45;&gt;Node4</title>
<path fill="none" stroke="midnightblue" d="M317.67,-347.475C278.534,-336.986 225.744,-322.837 189.498,-313.122"/>
<polygon fill="midnightblue" stroke="midnightblue" points="190.303,-309.715 179.738,-310.506 188.491,-316.476 190.303,-309.715"/>
</g>
<!-- Node5 -->
<g id="node5" class="node"><title>Node5</title>
<polygon fill="none" stroke="#bfbfbf" points="1407.5,-56.5 1407.5,-86.5 1542.5,-86.5 1542.5,-56.5 1407.5,-56.5"/>
<text text-anchor="start" x="1415.5" y="-74.5" font-family="Helvetica,sans-Serif" font-size="10.00">Configuration/Configuration</text>
<text text-anchor="middle" x="1475" y="-63.5" font-family="Helvetica,sans-Serif" font-size="10.00">Interface.h</text>
</g>
<!-- Node1&#45;&gt;Node5 -->
<g id="edge4" class="edge"><title>Node1&#45;&gt;Node5</title>
<path fill="none" stroke="midnightblue" d="M436.634,-361.567C675.536,-360.941 1475,-351.002 1475,-246 1475,-246 1475,-246 1475,-188 1475,-156.495 1475,-120.155 1475,-96.7831"/>
<polygon fill="midnightblue" stroke="midnightblue" points="1478.5,-96.7249 1475,-86.7249 1471.5,-96.725 1478.5,-96.7249"/>
</g>
<!-- Node6 -->
<g id="node6" class="node"><title>Node6</title>
<polygon fill="none" stroke="#bfbfbf" points="250,-291.5 250,-310.5 348,-310.5 348,-291.5 250,-291.5"/>
<text text-anchor="middle" x="299" y="-298.5" font-family="Helvetica,sans-Serif" font-size="10.00">Framework/Task.h</text>
</g>
<!-- Node1&#45;&gt;Node6 -->
<g id="edge5" class="edge"><title>Node1&#45;&gt;Node6</title>
<path fill="none" stroke="midnightblue" d="M353.174,-347.399C342.325,-338.308 328.223,-326.49 317.127,-317.191"/>
<polygon fill="midnightblue" stroke="midnightblue" points="319.244,-314.398 309.331,-310.658 314.748,-319.763 319.244,-314.398"/>
</g>
<!-- Node7 -->
<g id="node7" class="node"><title>Node7</title>
<polygon fill="none" stroke="#bfbfbf" points="366.5,-291.5 366.5,-310.5 517.5,-310.5 517.5,-291.5 366.5,-291.5"/>
<text text-anchor="middle" x="442" y="-298.5" font-family="Helvetica,sans-Serif" font-size="10.00">Monitoring/MonitoringFactory.h</text>
</g>
<!-- Node1&#45;&gt;Node7 -->
<g id="edge6" class="edge"><title>Node1&#45;&gt;Node7</title>
<path fill="none" stroke="midnightblue" d="M387.063,-347.399C398.065,-338.308 412.365,-326.49 423.618,-317.191"/>
<polygon fill="midnightblue" stroke="midnightblue" points="426.044,-319.726 431.523,-310.658 421.585,-314.33 426.044,-319.726"/>
</g>
<!-- Node8 -->
<g id="node8" class="node"><title>Node8</title>
<g id="a_node8"><a xlink:href="CheckInterface_8h.html" target="_top" xlink:title="QualityControl/CheckInterface.h">
<polygon fill="none" stroke="black" points="172.5,-179.5 172.5,-198.5 329.5,-198.5 329.5,-179.5 172.5,-179.5"/>
<text text-anchor="middle" x="251" y="-186.5" font-family="Helvetica,sans-Serif" font-size="10.00">QualityControl/CheckInterface.h</text>
</a>
</g>
</g>
<!-- Node1&#45;&gt;Node8 -->
<g id="edge7" class="edge"><title>Node1&#45;&gt;Node8</title>
<path fill="none" stroke="midnightblue" d="M303.498,-351.392C279.725,-344.219 255.303,-331.958 241,-311 219.792,-279.922 233.021,-233.355 242.974,-208.009"/>
<polygon fill="midnightblue" stroke="midnightblue" points="246.3,-209.129 246.93,-198.553 239.842,-206.428 246.3,-209.129"/>
</g>
<!-- Node9 -->
<g id="node9" class="node"><title>Node9</title>
<g id="a_node9"><a xlink:href="MonitorObject_8h.html" target="_top" xlink:title="QualityControl/MonitorObject.h">
<polygon fill="none" stroke="black" points="188.5,-123.5 188.5,-142.5 339.5,-142.5 339.5,-123.5 188.5,-123.5"/>
<text text-anchor="middle" x="264" y="-130.5" font-family="Helvetica,sans-Serif" font-size="10.00">QualityControl/MonitorObject.h</text>
</a>
</g>
</g>
<!-- Node1&#45;&gt;Node9 -->
<g id="edge22" class="edge"><title>Node1&#45;&gt;Node9</title>
<path fill="none" stroke="midnightblue" d="M303.305,-358.858C230.047,-354.391 119.264,-342.485 93,-311 56.9689,-267.806 23.1028,-300.632 163,-179 180.226,-164.023 203.24,-153.251 222.949,-146.008"/>
<polygon fill="midnightblue" stroke="midnightblue" points="224.323,-149.236 232.612,-142.636 222.017,-142.626 224.323,-149.236"/>
</g>
<!-- Node17 -->
<g id="node17" class="node"><title>Node17</title>
<g id="a_node17"><a xlink:href="DatabaseInterface_8h.html" target="_top" xlink:title="QualityControl/DatabaseInterface.h">
<polygon fill="none" stroke="black" points="348,-179.5 348,-198.5 518,-198.5 518,-179.5 348,-179.5"/>
<text text-anchor="middle" x="433" y="-186.5" font-family="Helvetica,sans-Serif" font-size="10.00">QualityControl/DatabaseInterface.h</text>
</a>
</g>
</g>
<!-- Node1&#45;&gt;Node17 -->
<g id="edge18" class="edge"><title>Node1&#45;&gt;Node17</title>
<path fill="none" stroke="midnightblue" d="M436.703,-357.749C469.505,-352.127 506.342,-339.345 527,-311 555.959,-271.265 494.098,-225.83 457.467,-203.641"/>
<polygon fill="midnightblue" stroke="midnightblue" points="459.161,-200.577 448.768,-198.518 455.609,-206.608 459.161,-200.577"/>
</g>
<!-- Node19 -->
<g id="node19" class="node"><title>Node19</title>
<g id="a_node19"><a xlink:href="QcInfoLogger_8h.html" target="_top" xlink:title="QualityControl/QcInfoLogger.h">
<polygon fill="none" stroke="black" points="739.5,-291.5 739.5,-310.5 888.5,-310.5 888.5,-291.5 739.5,-291.5"/>
<text text-anchor="middle" x="814" y="-298.5" font-family="Helvetica,sans-Serif" font-size="10.00">QualityControl/QcInfoLogger.h</text>
</a>
</g>
</g>
<!-- Node1&#45;&gt;Node19 -->
<g id="edge23" class="edge"><title>Node1&#45;&gt;Node19</title>
<path fill="none" stroke="midnightblue" d="M436.952,-352.528C518.546,-341.593 655.954,-323.18 740.434,-311.858"/>
<polygon fill="midnightblue" stroke="midnightblue" points="741.021,-315.311 750.467,-310.514 740.091,-308.373 741.021,-315.311"/>
</g>
<!-- Node8&#45;&gt;Node9 -->
<g id="edge8" class="edge"><title>Node8&#45;&gt;Node9</title>
<path fill="none" stroke="midnightblue" d="M253.147,-179.083C254.869,-171.927 257.347,-161.635 259.5,-152.691"/>
<polygon fill="midnightblue" stroke="midnightblue" points="262.955,-153.293 261.893,-142.751 256.15,-151.654 262.955,-153.293"/>
</g>
<!-- Node14 -->
<g id="node14" class="node"><title>Node14</title>
<g id="a_node14"><a xlink:href="Quality_8h.html" target="_top" xlink:title="QualityControl/Quality.h">
<polygon fill="none" stroke="black" points="498.5,-62 498.5,-81 619.5,-81 619.5,-62 498.5,-62"/>
<text text-anchor="middle" x="559" y="-69" font-family="Helvetica,sans-Serif" font-size="10.00">QualityControl/Quality.h</text>
</a>
</g>
</g>
<!-- Node8&#45;&gt;Node14 -->
<g id="edge17" class="edge"><title>Node8&#45;&gt;Node14</title>
<path fill="none" stroke="midnightblue" d="M270.063,-179.425C289.7,-170.529 321.141,-156.111 348,-143 365.505,-134.455 368.908,-130.22 387,-123 428.566,-106.412 477.708,-92.5246 512.799,-83.5385"/>
<polygon fill="midnightblue" stroke="midnightblue" points="513.92,-86.8652 522.759,-81.0228 512.206,-80.0784 513.92,-86.8652"/>
</g>
<!-- Node10 -->
<g id="node10" class="node"><title>Node10</title>
<polygon fill="none" stroke="#bfbfbf" points="426,-62 426,-81 480,-81 480,-62 426,-62"/>
<text text-anchor="middle" x="453" y="-69" font-family="Helvetica,sans-Serif" font-size="10.00">iostream</text>
</g>
<!-- Node9&#45;&gt;Node10 -->
<g id="edge9" class="edge"><title>Node9&#45;&gt;Node10</title>
<path fill="none" stroke="midnightblue" d="M296.228,-123.499C327.389,-115.049 375.809,-101.315 417,-87 418.909,-86.3364 420.866,-85.6293 422.832,-84.8978"/>
<polygon fill="midnightblue" stroke="midnightblue" points="424.507,-88.0022 432.569,-81.1279 421.98,-81.4743 424.507,-88.0022"/>
</g>
<!-- Node11 -->
<g id="node11" class="node"><title>Node11</title>
<polygon fill="none" stroke="#bfbfbf" points="200.5,-62 200.5,-81 235.5,-81 235.5,-62 200.5,-62"/>
<text text-anchor="middle" x="218" y="-69" font-family="Helvetica,sans-Serif" font-size="10.00">map</text>
</g>
<!-- Node9&#45;&gt;Node11 -->
<g id="edge10" class="edge"><title>Node9&#45;&gt;Node11</title>
<path fill="none" stroke="midnightblue" d="M257.409,-123.475C250.509,-114.55 239.498,-100.307 230.866,-89.1425"/>
<polygon fill="midnightblue" stroke="midnightblue" points="233.464,-86.7798 224.578,-81.0091 227.926,-91.0612 233.464,-86.7798"/>
</g>
<!-- Node12 -->
<g id="node12" class="node"><title>Node12</title>
<polygon fill="none" stroke="#bfbfbf" points="345.5,-0.5 345.5,-19.5 404.5,-19.5 404.5,-0.5 345.5,-0.5"/>
<text text-anchor="middle" x="375" y="-7.5" font-family="Helvetica,sans-Serif" font-size="10.00">TObject.h</text>
</g>
<!-- Node9&#45;&gt;Node12 -->
<g id="edge11" class="edge"><title>Node9&#45;&gt;Node12</title>
<path fill="none" stroke="midnightblue" d="M263.896,-123.455C264.151,-108.221 266.743,-76.0863 283,-56 296.275,-39.5986 317.012,-28.7332 335.441,-21.7959"/>
<polygon fill="midnightblue" stroke="midnightblue" points="336.808,-25.0259 345.096,-18.4268 334.501,-18.4167 336.808,-25.0259"/>
</g>
<!-- Node13 -->
<g id="node13" class="node"><title>Node13</title>
<polygon fill="none" stroke="#bfbfbf" points="292,-62 292,-81 408,-81 408,-62 292,-62"/>
<text text-anchor="middle" x="350" y="-69" font-family="Helvetica,sans-Serif" font-size="10.00">Common/Exceptions.h</text>
</g>
<!-- Node9&#45;&gt;Node13 -->
<g id="edge12" class="edge"><title>Node9&#45;&gt;Node13</title>
<path fill="none" stroke="midnightblue" d="M276.322,-123.475C290.116,-113.931 312.699,-98.3073 329.232,-86.8683"/>
<polygon fill="midnightblue" stroke="midnightblue" points="331.469,-89.577 337.701,-81.0091 327.486,-83.8205 331.469,-89.577"/>
</g>
<!-- Node9&#45;&gt;Node14 -->
<g id="edge13" class="edge"><title>Node9&#45;&gt;Node14</title>
<path fill="none" stroke="midnightblue" d="M307.152,-123.461C352.458,-114.474 425.763,-99.8732 489,-87 495.145,-85.749 501.592,-84.4269 507.981,-83.1106"/>
<polygon fill="midnightblue" stroke="midnightblue" points="508.838,-86.5076 517.924,-81.0578 507.422,-79.6522 508.838,-86.5076"/>
</g>
<!-- Node14&#45;&gt;Node12 -->
<g id="edge14" class="edge"><title>Node14&#45;&gt;Node12</title>
<path fill="none" stroke="midnightblue" d="M532.637,-61.9751C500.665,-51.6362 446.624,-34.1611 410.878,-22.6017"/>
<polygon fill="midnightblue" stroke="midnightblue" points="411.906,-19.2558 401.314,-19.5091 409.752,-25.9162 411.906,-19.2558"/>
</g>
<!-- Node15 -->
<g id="node15" class="node"><title>Node15</title>
<polygon fill="none" stroke="#bfbfbf" points="533,-0.5 533,-19.5 585,-19.5 585,-0.5 533,-0.5"/>
<text text-anchor="middle" x="559" y="-7.5" font-family="Helvetica,sans-Serif" font-size="10.00">ostream</text>
</g>
<!-- Node14&#45;&gt;Node15 -->
<g id="edge15" class="edge"><title>Node14&#45;&gt;Node15</title>
<path fill="none" stroke="midnightblue" d="M559,-61.9751C559,-53.5803 559,-40.4806 559,-29.6631"/>
<polygon fill="midnightblue" stroke="midnightblue" points="562.5,-29.5091 559,-19.5091 555.5,-29.5091 562.5,-29.5091"/>
</g>
<!-- Node16 -->
<g id="node16" class="node"><title>Node16</title>
<polygon fill="none" stroke="#bfbfbf" points="985.5,-0.5 985.5,-19.5 1026.5,-19.5 1026.5,-0.5 985.5,-0.5"/>
<text text-anchor="middle" x="1006" y="-7.5" font-family="Helvetica,sans-Serif" font-size="10.00">string</text>
</g>
<!-- Node14&#45;&gt;Node16 -->
<g id="edge16" class="edge"><title>Node14&#45;&gt;Node16</title>
<path fill="none" stroke="midnightblue" d="M605.466,-61.9611C617.357,-59.8918 630.136,-57.7685 642,-56 765.238,-37.6292 912.75,-21.0507 975.423,-14.258"/>
<polygon fill="midnightblue" stroke="midnightblue" points="975.86,-17.7312 985.427,-13.1789 975.109,-10.7716 975.86,-17.7312"/>
</g>
<!-- Node17&#45;&gt;Node3 -->
<g id="edge20" class="edge"><title>Node17&#45;&gt;Node3</title>
<path fill="none" stroke="midnightblue" d="M451.166,-179.367C477.396,-166.904 527.405,-143.156 570,-123 597.05,-110.2 627.966,-95.6131 649.587,-85.4192"/>
<polygon fill="midnightblue" stroke="midnightblue" points="651.267,-88.4968 658.82,-81.0667 648.282,-82.1651 651.267,-88.4968"/>
</g>
<!-- Node17&#45;&gt;Node9 -->
<g id="edge19" class="edge"><title>Node17&#45;&gt;Node9</title>
<path fill="none" stroke="midnightblue" d="M406.221,-179.444C377.667,-170.32 332.267,-155.813 300.463,-145.651"/>
<polygon fill="midnightblue" stroke="midnightblue" points="301.244,-142.226 290.653,-142.516 299.114,-148.894 301.244,-142.226"/>
</g>
<!-- Node18 -->
<g id="node18" class="node"><title>Node18</title>
<polygon fill="none" stroke="#bfbfbf" points="396.5,-123.5 396.5,-142.5 479.5,-142.5 479.5,-123.5 396.5,-123.5"/>
<text text-anchor="middle" x="438" y="-130.5" font-family="Helvetica,sans-Serif" font-size="10.00">unordered_map</text>
</g>
<!-- Node17&#45;&gt;Node18 -->
<g id="edge21" class="edge"><title>Node17&#45;&gt;Node18</title>
<path fill="none" stroke="midnightblue" d="M433.826,-179.083C434.481,-172.006 435.42,-161.861 436.242,-152.986"/>
<polygon fill="midnightblue" stroke="midnightblue" points="439.753,-153.031 437.19,-142.751 432.783,-152.386 439.753,-153.031"/>
</g>
<!-- Node19&#45;&gt;Node10 -->
<g id="edge49" class="edge"><title>Node19&#45;&gt;Node10</title>
<path fill="none" stroke="midnightblue" d="M791.456,-291.425C751.756,-275.851 667.476,-240.648 603,-199 549.838,-164.66 494.839,-113.54 468.666,-88.0802"/>
<polygon fill="midnightblue" stroke="midnightblue" points="471.092,-85.5566 461.503,-81.0496 466.188,-90.5523 471.092,-85.5566"/>
</g>
<!-- Node20 -->
<g id="node20" class="node"><title>Node20</title>
<g id="a_node20"><a xlink:href="TaskInterface_8h.html" target="_top" xlink:title="TaskInterface.h">
<polygon fill="none" stroke="black" points="899.5,-235.5 899.5,-254.5 984.5,-254.5 984.5,-235.5 899.5,-235.5"/>
<text text-anchor="middle" x="942" y="-242.5" font-family="Helvetica,sans-Serif" font-size="10.00">TaskInterface.h</text>
</a>
</g>
</g>
<!-- Node19&#45;&gt;Node20 -->
<g id="edge24" class="edge"><title>Node19&#45;&gt;Node20</title>
<path fill="none" stroke="midnightblue" d="M834.282,-291.444C855.347,-282.557 888.517,-268.563 912.486,-258.451"/>
<polygon fill="midnightblue" stroke="midnightblue" points="913.96,-261.628 921.813,-254.516 911.239,-255.179 913.96,-261.628"/>
</g>
<!-- Node35 -->
<g id="node35" class="node"><title>Node35</title>
<polygon fill="none" stroke="#bfbfbf" points="1003,-235.5 1003,-254.5 1133,-254.5 1133,-235.5 1003,-235.5"/>
<text text-anchor="middle" x="1068" y="-242.5" font-family="Helvetica,sans-Serif" font-size="10.00">InfoLogger/InfoLogger.hxx</text>
</g>
<!-- Node19&#45;&gt;Node35 -->
<g id="edge48" class="edge"><title>Node19&#45;&gt;Node35</title>
<path fill="none" stroke="midnightblue" d="M854.247,-291.444C898.65,-282.004 970.153,-266.802 1018.09,-256.611"/>
<polygon fill="midnightblue" stroke="midnightblue" points="1018.89,-260.02 1027.94,-254.516 1017.43,-253.173 1018.89,-260.02"/>
</g>
<!-- Node20&#45;&gt;Node3 -->
<g id="edge25" class="edge"><title>Node20&#45;&gt;Node3</title>
<path fill="none" stroke="midnightblue" d="M942.18,-235.338C941.966,-221.261 939.34,-193.533 923,-179 851.26,-115.195 786.419,-201.12 710,-143 693.395,-130.371 684.816,-107.336 680.622,-91.0384"/>
<polygon fill="midnightblue" stroke="midnightblue" points="683.983,-90.0307 678.374,-81.0422 677.153,-91.5665 683.983,-90.0307"/>
</g>
<!-- Node20&#45;&gt;Node5 -->
<g id="edge29" class="edge"><title>Node20&#45;&gt;Node5</title>
<path fill="none" stroke="midnightblue" d="M984.529,-236.387C987.73,-235.891 990.914,-235.422 994,-235 1152,-213.388 1204.02,-260.859 1351,-199 1401.09,-177.919 1441.12,-125.662 1461.1,-95.3173"/>
<polygon fill="midnightblue" stroke="midnightblue" points="1464.2,-96.9697 1466.65,-86.6621 1458.31,-93.1921 1464.2,-96.9697"/>
</g>
<!-- Node21 -->
<g id="node21" class="node"><title>Node21</title>
<polygon fill="none" stroke="#bfbfbf" points="1149.5,-179.5 1149.5,-198.5 1198.5,-198.5 1198.5,-179.5 1149.5,-179.5"/>
<text text-anchor="middle" x="1174" y="-186.5" font-family="Helvetica,sans-Serif" font-size="10.00">cassert</text>
</g>
<!-- Node20&#45;&gt;Node21 -->
<g id="edge26" class="edge"><title>Node20&#45;&gt;Node21</title>
<path fill="none" stroke="midnightblue" d="M982.144,-235.464C1020.3,-227.23 1079.52,-214.139 1139.2,-199.379"/>
<polygon fill="midnightblue" stroke="midnightblue" points="1140.31,-202.71 1149.16,-196.899 1138.62,-195.917 1140.31,-202.71"/>
</g>
<!-- Node22 -->
<g id="node22" class="node"><title>Node22</title>
<polygon fill="none" stroke="#bfbfbf" points="1216.5,-179.5 1216.5,-198.5 1341.5,-198.5 1341.5,-179.5 1216.5,-179.5"/>
<text text-anchor="middle" x="1279" y="-186.5" font-family="Helvetica,sans-Serif" font-size="10.00">Framework/InitContext.h</text>
</g>
<!-- Node20&#45;&gt;Node22 -->
<g id="edge27" class="edge"><title>Node20&#45;&gt;Node22</title>
<path fill="none" stroke="midnightblue" d="M984.558,-236.581C987.753,-236.041 990.927,-235.509 994,-235 1069.18,-222.56 1155.64,-209.015 1213.43,-200.071"/>
<polygon fill="midnightblue" stroke="midnightblue" points="1214.18,-203.498 1223.53,-198.511 1213.11,-196.58 1214.18,-203.498"/>
</g>
<!-- Node23 -->
<g id="node23" class="node"><title>Node23</title>
<polygon fill="none" stroke="#bfbfbf" points="612,-179.5 612,-198.5 772,-198.5 772,-179.5 612,-179.5"/>
<text text-anchor="middle" x="692" y="-186.5" font-family="Helvetica,sans-Serif" font-size="10.00">Framework/ProcessingContext.h</text>
</g>
<!-- Node20&#45;&gt;Node23 -->
<g id="edge28" class="edge"><title>Node20&#45;&gt;Node23</title>
<path fill="none" stroke="midnightblue" d="M902.387,-235.444C858.775,-226.023 788.6,-210.866 741.422,-200.675"/>
<polygon fill="midnightblue" stroke="midnightblue" points="741.941,-197.207 731.428,-198.516 740.464,-204.049 741.941,-197.207"/>
</g>
<!-- Node24 -->
<g id="node24" class="node"><title>Node24</title>
<g id="a_node24"><a xlink:href="Activity_8h.html" target="_top" xlink:title="QualityControl/Activity.h">
<polygon fill="none" stroke="black" points="790.5,-179.5 790.5,-198.5 913.5,-198.5 913.5,-179.5 790.5,-179.5"/>
<text text-anchor="middle" x="852" y="-186.5" font-family="Helvetica,sans-Serif" font-size="10.00">QualityControl/Activity.h</text>
</a>
</g>
</g>
<!-- Node20&#45;&gt;Node24 -->
<g id="edge30" class="edge"><title>Node20&#45;&gt;Node24</title>
<path fill="none" stroke="midnightblue" d="M927.54,-235.324C913.5,-226.9 891.952,-213.971 875.457,-204.074"/>
<polygon fill="midnightblue" stroke="midnightblue" points="876.8,-200.798 866.424,-198.655 873.198,-206.801 876.8,-200.798"/>
</g>
<!-- Node25 -->
<g id="node25" class="node"><title>Node25</title>
<g id="a_node25"><a xlink:href="ObjectsManager_8h.html" target="_top" xlink:title="QualityControl/ObjectsManager.h">
<polygon fill="none" stroke="black" points="970.5,-179.5 970.5,-198.5 1131.5,-198.5 1131.5,-179.5 970.5,-179.5"/>
<text text-anchor="middle" x="1051" y="-186.5" font-family="Helvetica,sans-Serif" font-size="10.00">QualityControl/ObjectsManager.h</text>
</a>
</g>
</g>
<!-- Node20&#45;&gt;Node25 -->
<g id="edge31" class="edge"><title>Node20&#45;&gt;Node25</title>
<path fill="none" stroke="midnightblue" d="M959.513,-235.324C977.072,-226.625 1004.33,-213.12 1024.53,-203.113"/>
<polygon fill="midnightblue" stroke="midnightblue" points="1026.12,-206.23 1033.53,-198.655 1023.02,-199.958 1026.12,-206.23"/>
</g>
<!-- Node25&#45;&gt;Node9 -->
<g id="edge32" class="edge"><title>Node25&#45;&gt;Node9</title>
<path fill="none" stroke="midnightblue" d="M970.431,-182.296C954.702,-181.194 938.335,-180.054 923,-179 684.803,-162.627 625.173,-159.712 387,-143 375.069,-142.163 362.489,-141.263 350.11,-140.366"/>
<polygon fill="midnightblue" stroke="midnightblue" points="350.006,-136.85 339.778,-139.616 349.499,-143.831 350.006,-136.85"/>
</g>
<!-- Node25&#45;&gt;Node14 -->
<g id="edge33" class="edge"><title>Node25&#45;&gt;Node14</title>
<path fill="none" stroke="midnightblue" d="M970.295,-180.217C885.279,-171.508 757.291,-156.804 710,-143 662.591,-129.161 611.268,-102.431 582.33,-86.1555"/>
<polygon fill="midnightblue" stroke="midnightblue" points="583.833,-82.9836 573.412,-81.0703 580.366,-89.0644 583.833,-82.9836"/>
</g>
<!-- Node25&#45;&gt;Node16 -->
<g id="edge47" class="edge"><title>Node25&#45;&gt;Node16</title>
<path fill="none" stroke="midnightblue" d="M1048.66,-179.093C1045.29,-166.499 1038.73,-142.814 1032,-123 1026.48,-106.746 1022.48,-103.574 1018,-87 1012.84,-67.8857 1009.63,-45.4285 1007.85,-29.9067"/>
<polygon fill="midnightblue" stroke="midnightblue" points="1011.28,-29.1344 1006.75,-19.5593 1004.32,-29.8727 1011.28,-29.1344"/>
</g>
<!-- Node26 -->
<g id="node26" class="node"><title>Node26</title>
<g id="a_node26"><a xlink:href="TaskConfig_8h.html" target="_top" xlink:title="QualityControl/TaskConfig.h">
<polygon fill="none" stroke="black" points="1269,-123.5 1269,-142.5 1409,-142.5 1409,-123.5 1269,-123.5"/>
<text text-anchor="middle" x="1339" y="-130.5" font-family="Helvetica,sans-Serif" font-size="10.00">QualityControl/TaskConfig.h</text>
</a>
</g>
</g>
<!-- Node25&#45;&gt;Node26 -->
<g id="edge34" class="edge"><title>Node25&#45;&gt;Node26</title>
<path fill="none" stroke="midnightblue" d="M1096.63,-179.444C1147.3,-169.944 1229.07,-154.611 1283.43,-144.42"/>
<polygon fill="midnightblue" stroke="midnightblue" points="1284.4,-147.799 1293.58,-142.516 1283.11,-140.919 1284.4,-147.799"/>
</g>
<!-- Node27 -->
<g id="node27" class="node"><title>Node27</title>
<g id="a_node27"><a xlink:href="ServiceDiscovery_8h_source.html" target="_top" xlink:title="QualityControl/ServiceDiscovery.h">
<polygon fill="none" stroke="black" points="1078.5,-123.5 1078.5,-142.5 1245.5,-142.5 1245.5,-123.5 1078.5,-123.5"/>
<text text-anchor="middle" x="1162" y="-130.5" font-family="Helvetica,sans-Serif" font-size="10.00">QualityControl/ServiceDiscovery.h</text>
</a>
</g>
</g>
<!-- Node25&#45;&gt;Node27 -->
<g id="edge37" class="edge"><title>Node25&#45;&gt;Node27</title>
<path fill="none" stroke="midnightblue" d="M1068.83,-179.324C1086.72,-170.625 1114.48,-157.12 1135.05,-147.113"/>
<polygon fill="midnightblue" stroke="midnightblue" points="1136.75,-150.177 1144.21,-142.655 1133.69,-143.882 1136.75,-150.177"/>
</g>
<!-- Node32 -->
<g id="node32" class="node"><title>Node32</title>
<polygon fill="none" stroke="#bfbfbf" points="718.5,-123.5 718.5,-142.5 787.5,-142.5 787.5,-123.5 718.5,-123.5"/>
<text text-anchor="middle" x="753" y="-130.5" font-family="Helvetica,sans-Serif" font-size="10.00">TObjArray.h</text>
</g>
<!-- Node25&#45;&gt;Node32 -->
<g id="edge44" class="edge"><title>Node25&#45;&gt;Node32</title>
<path fill="none" stroke="midnightblue" d="M1000.33,-179.428C951.112,-171.011 874.029,-157.588 797.398,-143.034"/>
<polygon fill="midnightblue" stroke="midnightblue" points="798.049,-139.595 787.57,-141.161 796.738,-146.472 798.049,-139.595"/>
</g>
<!-- Node33 -->
<g id="node33" class="node"><title>Node33</title>
<polygon fill="none" stroke="#bfbfbf" points="805.5,-123.5 805.5,-142.5 876.5,-142.5 876.5,-123.5 805.5,-123.5"/>
<text text-anchor="middle" x="841" y="-130.5" font-family="Helvetica,sans-Serif" font-size="10.00">TObjString.h</text>
</g>
<!-- Node25&#45;&gt;Node33 -->
<g id="edge45" class="edge"><title>Node25&#45;&gt;Node33</title>
<path fill="none" stroke="midnightblue" d="M1017.72,-179.444C981.552,-170.142 923.623,-155.246 884.019,-145.062"/>
<polygon fill="midnightblue" stroke="midnightblue" points="884.676,-141.617 874.119,-142.516 882.933,-148.397 884.676,-141.617"/>
</g>
<!-- Node34 -->
<g id="node34" class="node"><title>Node34</title>
<polygon fill="none" stroke="#bfbfbf" points="895,-123.5 895,-142.5 1023,-142.5 1023,-123.5 895,-123.5"/>
<text text-anchor="middle" x="959" y="-130.5" font-family="Helvetica,sans-Serif" font-size="10.00">boost/concept_check.hpp</text>
</g>
<!-- Node25&#45;&gt;Node34 -->
<g id="edge46" class="edge"><title>Node25&#45;&gt;Node34</title>
<path fill="none" stroke="midnightblue" d="M1036.22,-179.324C1021.73,-170.822 999.427,-157.729 982.507,-147.797"/>
<polygon fill="midnightblue" stroke="midnightblue" points="984.141,-144.698 973.745,-142.655 980.597,-150.735 984.141,-144.698"/>
</g>
<!-- Node26&#45;&gt;Node5 -->
<g id="edge36" class="edge"><title>Node26&#45;&gt;Node5</title>
<path fill="none" stroke="midnightblue" d="M1358.49,-123.475C1378.02,-114.927 1408.71,-101.501 1433.69,-90.5734"/>
<polygon fill="midnightblue" stroke="midnightblue" points="1435.19,-93.7378 1442.95,-86.523 1432.38,-87.3247 1435.19,-93.7378"/>
</g>
<!-- Node26&#45;&gt;Node16 -->
<g id="edge35" class="edge"><title>Node26&#45;&gt;Node16</title>
<path fill="none" stroke="midnightblue" d="M1345.9,-123.342C1357.3,-107.927 1377.19,-75.5162 1360,-56 1338.74,-31.8642 1119.01,-17.2734 1036.81,-12.625"/>
<polygon fill="midnightblue" stroke="midnightblue" points="1036.78,-9.11798 1026.6,-12.059 1036.39,-16.1072 1036.78,-9.11798"/>
</g>
<!-- Node27&#45;&gt;Node3 -->
<g id="edge40" class="edge"><title>Node27&#45;&gt;Node3</title>
<path fill="none" stroke="midnightblue" d="M1092.51,-123.475C987.855,-110.636 793.494,-86.7915 713.174,-76.9379"/>
<polygon fill="midnightblue" stroke="midnightblue" points="713.415,-73.4413 703.064,-75.6975 712.563,-80.3892 713.415,-73.4413"/>
</g>
<!-- Node27&#45;&gt;Node16 -->
<g id="edge41" class="edge"><title>Node27&#45;&gt;Node16</title>
<path fill="none" stroke="midnightblue" d="M1118.03,-123.472C1093.84,-116.909 1064.64,-105.688 1044,-87 1026.96,-71.5692 1016.58,-46.7569 1011.07,-29.7062"/>
<polygon fill="midnightblue" stroke="midnightblue" points="1014.33,-28.3907 1008.13,-19.7989 1007.62,-30.3814 1014.33,-28.3907"/>
</g>
<!-- Node28 -->
<g id="node28" class="node"><title>Node28</title>
<polygon fill="none" stroke="#bfbfbf" points="1227,-62 1227,-81 1273,-81 1273,-62 1227,-62"/>
<text text-anchor="middle" x="1250" y="-69" font-family="Helvetica,sans-Serif" font-size="10.00">atomic</text>
</g>
<!-- Node27&#45;&gt;Node28 -->
<g id="edge38" class="edge"><title>Node27&#45;&gt;Node28</title>
<path fill="none" stroke="midnightblue" d="M1174.61,-123.475C1188.72,-113.931 1211.83,-98.3073 1228.75,-86.8683"/>
<polygon fill="midnightblue" stroke="midnightblue" points="1231.09,-89.5098 1237.42,-81.0091 1227.17,-83.7109 1231.09,-89.5098"/>
</g>
<!-- Node29 -->
<g id="node29" class="node"><title>Node29</title>
<polygon fill="none" stroke="#bfbfbf" points="1291.5,-62 1291.5,-81 1350.5,-81 1350.5,-62 1291.5,-62"/>
<text text-anchor="middle" x="1321" y="-69" font-family="Helvetica,sans-Serif" font-size="10.00">curl/curl.h</text>
</g>
<!-- Node27&#45;&gt;Node29 -->
<g id="edge39" class="edge"><title>Node27&#45;&gt;Node29</title>
<path fill="none" stroke="midnightblue" d="M1184.78,-123.475C1212.05,-113.269 1257.91,-96.108 1288.8,-84.5492"/>
<polygon fill="midnightblue" stroke="midnightblue" points="1290.12,-87.7919 1298.26,-81.0091 1287.67,-81.2359 1290.12,-87.7919"/>
</g>
<!-- Node30 -->
<g id="node30" class="node"><title>Node30</title>
<polygon fill="none" stroke="#bfbfbf" points="1053,-62 1053,-81 1097,-81 1097,-62 1053,-62"/>
<text text-anchor="middle" x="1075" y="-69" font-family="Helvetica,sans-Serif" font-size="10.00">thread</text>
</g>
<!-- Node27&#45;&gt;Node30 -->
<g id="edge42" class="edge"><title>Node27&#45;&gt;Node30</title>
<path fill="none" stroke="midnightblue" d="M1149.54,-123.475C1135.58,-113.931 1112.74,-98.3073 1096.01,-86.8683"/>
<polygon fill="midnightblue" stroke="midnightblue" points="1097.67,-83.7653 1087.44,-81.0091 1093.72,-89.5433 1097.67,-83.7653"/>
</g>
<!-- Node31 -->
<g id="node31" class="node"><title>Node31</title>
<polygon fill="none" stroke="#bfbfbf" points="1115,-56.5 1115,-86.5 1209,-86.5 1209,-56.5 1115,-56.5"/>
<text text-anchor="start" x="1123" y="-74.5" font-family="Helvetica,sans-Serif" font-size="10.00">boost/asio/ip/host</text>
<text text-anchor="middle" x="1162" y="-63.5" font-family="Helvetica,sans-Serif" font-size="10.00">_name.hpp</text>
</g>
<!-- Node27&#45;&gt;Node31 -->
<g id="edge43" class="edge"><title>Node27&#45;&gt;Node31</title>
<path fill="none" stroke="midnightblue" d="M1162,-123.475C1162,-116.471 1162,-106.192 1162,-96.6956"/>
<polygon fill="midnightblue" stroke="midnightblue" points="1165.5,-96.5229 1162,-86.523 1158.5,-96.523 1165.5,-96.5229"/>
</g>
</g>
</svg>
