<?xml version="1.0" encoding="UTF-8" standalone="no"?>
<!DOCTYPE svg PUBLIC "-//W3C//DTD SVG 1.1//EN"
 "http://www.w3.org/Graphics/SVG/1.1/DTD/svg11.dtd">
<!-- Generated by graphviz version 2.38.0 (20140413.2041)
 -->
<!-- Title: Framework/include/QualityControl/CheckInterface.h Pages: 1 -->
<!--zoomable 173 -->
<svg id="main" version="1.1" xmlns="http://www.w3.org/2000/svg" xmlns:xlink="http://www.w3.org/1999/xlink" xml:space="preserve" onload="init(evt)">
<style type="text/css"><![CDATA[
.edge:hover path { stroke: red; }
.edge:hover polygon { stroke: red; fill: red; }
]]></style>
<script type="text/javascript"><![CDATA[
var edges = document.getElementsByTagName('g');
if (edges && edges.length) {
  for (var i=0;i<edges.length;i++) {
    if (edges[i].id.substr(0,4)=='edge') {
      edges[i].setAttribute('class','edge');
    }
  }
}
]]></script>
        <defs>
                <circle id="rim" cx="0" cy="0" r="7"/>
                <circle id="rim2" cx="0" cy="0" r="3.5"/>
                <g id="zoomPlus">
                        <use xlink:href="#rim" fill="#404040">
                                <set attributeName="fill" to="#808080" begin="zoomplus.mouseover" end="zoomplus.mouseout"/>
                        </use>
                        <path d="M-4,0h8M0,-4v8" fill="none" stroke="white" stroke-width="1.5" pointer-events="none"/>
                </g>
                <g id="zoomMin">
                        <use xlink:href="#rim" fill="#404040">
                                <set attributeName="fill" to="#808080" begin="zoomminus.mouseover" end="zoomminus.mouseout"/>
                        </use>
                        <path d="M-4,0h8" fill="none" stroke="white" stroke-width="1.5" pointer-events="none"/>
                </g>
                <g id="dirArrow">
                        <path fill="none" stroke="white" stroke-width="1.5" d="M0,-3.0v7 M-2.5,-0.5L0,-3.0L2.5,-0.5"/>
                </g>
               <g id="resetDef">
                       <use xlink:href="#rim2" fill="#404040">
                               <set attributeName="fill" to="#808080" begin="reset.mouseover" end="reset.mouseout"/>
                       </use>
               </g>
        </defs>

<script type="text/javascript">
var viewWidth = 3080;
var viewHeight = 173;
var sectionId = 'dynsection-1';
</script>
<script xlink:href="svgpan.js"/>
<svg id="graph" class="graph">
<g id="viewport">
<title>Framework/include/QualityControl/CheckInterface.h</title>
<!-- Node1 -->
<g id="node1" class="node"><title>Node1</title>
<polygon fill="#bfbfbf" stroke="black" points="2146.5,-134.5 2146.5,-164.5 2279.5,-164.5 2279.5,-134.5 2146.5,-134.5"/>
<text text-anchor="start" x="2154.5" y="-152.5" font-family="Helvetica,sans-Serif" font-size="10.00">Framework/include/Quality</text>
<text text-anchor="middle" x="2213" y="-141.5" font-family="Helvetica,sans-Serif" font-size="10.00">Control/CheckInterface.h</text>
</g>
<!-- Node2 -->
<g id="node2" class="node"><title>Node2</title>
<g id="a_node2"><a xlink:href="Checker_8h.html" target="_top" xlink:title="Framework/include/Quality\lControl/Checker.h">
<polygon fill="none" stroke="black" points="793.5,-67.5 793.5,-97.5 926.5,-97.5 926.5,-67.5 793.5,-67.5"/>
<text text-anchor="start" x="801.5" y="-85.5" font-family="Helvetica,sans-Serif" font-size="10.00">Framework/include/Quality</text>
<text text-anchor="middle" x="860" y="-74.5" font-family="Helvetica,sans-Serif" font-size="10.00">Control/Checker.h</text>
</a>
</g>
</g>
<!-- Node1&#45;&gt;Node2 -->
<g id="edge1" class="edge"><title>Node1&#45;&gt;Node2</title>
<path fill="none" stroke="midnightblue" d="M2136.28,-144.814C1894.93,-133.219 1153.76,-97.6128 926.772,-86.7078"/>
<polygon fill="midnightblue" stroke="midnightblue" points="2136.21,-148.315 2146.37,-145.299 2136.55,-141.323 2136.21,-148.315"/>
</g>
<!-- Node12 -->
<g id="node12" class="node"><title>Node12</title>
<g id="a_node12"><a xlink:href="CheckInterface_8cxx.html" target="_top" xlink:title="Framework/src/CheckInterface.cxx">
<polygon fill="none" stroke="black" points="1506,-73 1506,-92 1676,-92 1676,-73 1506,-73"/>
<text text-anchor="middle" x="1591" y="-80" font-family="Helvetica,sans-Serif" font-size="10.00">Framework/src/CheckInterface.cxx</text>
</a>
</g>
</g>
<!-- Node1&#45;&gt;Node12 -->
<g id="edge11" class="edge"><title>Node1&#45;&gt;Node12</title>
<path fill="none" stroke="midnightblue" d="M2136.19,-142.552C2033.28,-134.263 1845.06,-117.983 1685,-98 1671.24,-96.2817 1656.38,-94.1299 1642.64,-92.014"/>
<polygon fill="midnightblue" stroke="midnightblue" points="2135.94,-146.042 2146.18,-143.353 2136.5,-139.065 2135.94,-146.042"/>
</g>
<!-- Node13 -->
<g id="node13" class="node"><title>Node13</title>
<g id="a_node13"><a xlink:href="testCheckInterface_8cxx.html" target="_top" xlink:title="Framework/test/testCheck\lInterface.cxx">
<polygon fill="none" stroke="black" points="1694.5,-67.5 1694.5,-97.5 1827.5,-97.5 1827.5,-67.5 1694.5,-67.5"/>
<text text-anchor="start" x="1702.5" y="-85.5" font-family="Helvetica,sans-Serif" font-size="10.00">Framework/test/testCheck</text>
<text text-anchor="middle" x="1761" y="-74.5" font-family="Helvetica,sans-Serif" font-size="10.00">Interface.cxx</text>
</a>
</g>
</g>
<!-- Node1&#45;&gt;Node13 -->
<g id="edge12" class="edge"><title>Node1&#45;&gt;Node13</title>
<path fill="none" stroke="midnightblue" d="M2136.42,-139.559C2060.12,-130.34 1939.69,-114.954 1836,-98 1833.25,-97.5506 1830.45,-97.0774 1827.62,-96.5872"/>
<polygon fill="midnightblue" stroke="midnightblue" points="2136.08,-143.043 2146.43,-140.763 2136.92,-136.094 2136.08,-143.043"/>
</g>
<!-- Node14 -->
<g id="node14" class="node"><title>Node14</title>
<g id="a_node14"><a xlink:href="MeanIsAbove_8h.html" target="_top" xlink:title="Modules/Common/include\l/Common/MeanIsAbove.h">
<polygon fill="none" stroke="black" points="1845.5,-67.5 1845.5,-97.5 1976.5,-97.5 1976.5,-67.5 1845.5,-67.5"/>
<text text-anchor="start" x="1853.5" y="-85.5" font-family="Helvetica,sans-Serif" font-size="10.00">Modules/Common/include</text>
<text text-anchor="middle" x="1911" y="-74.5" font-family="Helvetica,sans-Serif" font-size="10.00">/Common/MeanIsAbove.h</text>
</a>
</g>
</g>
<!-- Node1&#45;&gt;Node14 -->
<g id="edge13" class="edge"><title>Node1&#45;&gt;Node14</title>
<path fill="none" stroke="midnightblue" d="M2137.8,-132.316C2088.17,-121.633 2023.78,-107.775 1976.3,-97.5549"/>
<polygon fill="midnightblue" stroke="midnightblue" points="2137.33,-135.793 2147.84,-134.476 2138.8,-128.95 2137.33,-135.793"/>
</g>
<!-- Node17 -->
<g id="node17" class="node"><title>Node17</title>
<g id="a_node17"><a xlink:href="NonEmpty_8h.html" target="_top" xlink:title="Modules/Common/include\l/Common/NonEmpty.h">
<polygon fill="none" stroke="black" points="1995,-67.5 1995,-97.5 2125,-97.5 2125,-67.5 1995,-67.5"/>
<text text-anchor="start" x="2003" y="-85.5" font-family="Helvetica,sans-Serif" font-size="10.00">Modules/Common/include</text>
<text text-anchor="middle" x="2060" y="-74.5" font-family="Helvetica,sans-Serif" font-size="10.00">/Common/NonEmpty.h</text>
</a>
</g>
</g>
<!-- Node1&#45;&gt;Node17 -->
<g id="edge16" class="edge"><title>Node1&#45;&gt;Node17</title>
<path fill="none" stroke="midnightblue" d="M2170.41,-130.407C2145.98,-120.029 2115.78,-107.195 2093.13,-97.5765"/>
<polygon fill="midnightblue" stroke="midnightblue" points="2169.23,-133.707 2179.8,-134.396 2171.97,-127.264 2169.23,-133.707"/>
</g>
<!-- Node20 -->
<g id="node20" class="node"><title>Node20</title>
<g id="a_node20"><a xlink:href="EverIncreasingGraph_8h.html" target="_top" xlink:title="Modules/Daq/include\l/Daq/EverIncreasingGraph.h">
<polygon fill="none" stroke="black" points="2143,-67.5 2143,-97.5 2283,-97.5 2283,-67.5 2143,-67.5"/>
<text text-anchor="start" x="2151" y="-85.5" font-family="Helvetica,sans-Serif" font-size="10.00">Modules/Daq/include</text>
<text text-anchor="middle" x="2213" y="-74.5" font-family="Helvetica,sans-Serif" font-size="10.00">/Daq/EverIncreasingGraph.h</text>
</a>
</g>
</g>
<!-- Node1&#45;&gt;Node20 -->
<g id="edge19" class="edge"><title>Node1&#45;&gt;Node20</title>
<path fill="none" stroke="midnightblue" d="M2213,-124.108C2213,-115.154 2213,-105.323 2213,-97.5765"/>
<polygon fill="midnightblue" stroke="midnightblue" points="2209.5,-124.396 2213,-134.396 2216.5,-124.396 2209.5,-124.396"/>
</g>
<!-- Node22 -->
<g id="node22" class="node"><title>Node22</title>
<g id="a_node22"><a xlink:href="FakeCheck_8h.html" target="_top" xlink:title="Modules/Example/include\l/Example/FakeCheck.h">
<polygon fill="none" stroke="black" points="2301,-67.5 2301,-97.5 2429,-97.5 2429,-67.5 2301,-67.5"/>
<text text-anchor="start" x="2309" y="-85.5" font-family="Helvetica,sans-Serif" font-size="10.00">Modules/Example/include</text>
<text text-anchor="middle" x="2365" y="-74.5" font-family="Helvetica,sans-Serif" font-size="10.00">/Example/FakeCheck.h</text>
</a>
</g>
</g>
<!-- Node1&#45;&gt;Node22 -->
<g id="edge21" class="edge"><title>Node1&#45;&gt;Node22</title>
<path fill="none" stroke="midnightblue" d="M2255.31,-130.407C2279.58,-120.029 2309.59,-107.195 2332.08,-97.5765"/>
<polygon fill="midnightblue" stroke="midnightblue" points="2253.8,-127.246 2245.98,-134.396 2256.55,-133.682 2253.8,-127.246"/>
</g>
<!-- Node24 -->
<g id="node24" class="node"><title>Node24</title>
<g id="a_node24"><a xlink:href="SkeletonCheck_8h.html" target="_top" xlink:title="Modules/Skeleton/include\l/Skeleton/SkeletonCheck.h">
<polygon fill="none" stroke="black" points="2447,-67.5 2447,-97.5 2583,-97.5 2583,-67.5 2447,-67.5"/>
<text text-anchor="start" x="2455" y="-85.5" font-family="Helvetica,sans-Serif" font-size="10.00">Modules/Skeleton/include</text>
<text text-anchor="middle" x="2515" y="-74.5" font-family="Helvetica,sans-Serif" font-size="10.00">/Skeleton/SkeletonCheck.h</text>
</a>
</g>
</g>
<!-- Node1&#45;&gt;Node24 -->
<g id="edge23" class="edge"><title>Node1&#45;&gt;Node24</title>
<path fill="none" stroke="midnightblue" d="M2288.2,-132.316C2337.83,-121.633 2402.22,-107.775 2449.7,-97.5549"/>
<polygon fill="midnightblue" stroke="midnightblue" points="2287.2,-128.95 2278.16,-134.476 2288.67,-135.793 2287.2,-128.95"/>
</g>
<!-- Node26 -->
<g id="node26" class="node"><title>Node26</title>
<g id="a_node26"><a xlink:href="TOFCheckRawsMulti_8h.html" target="_top" xlink:title="Modules/TOF/include\l/TOF/TOFCheckRawsMulti.h">
<polygon fill="none" stroke="black" points="2601.5,-67.5 2601.5,-97.5 2746.5,-97.5 2746.5,-67.5 2601.5,-67.5"/>
<text text-anchor="start" x="2609.5" y="-85.5" font-family="Helvetica,sans-Serif" font-size="10.00">Modules/TOF/include</text>
<text text-anchor="middle" x="2674" y="-74.5" font-family="Helvetica,sans-Serif" font-size="10.00">/TOF/TOFCheckRawsMulti.h</text>
</a>
</g>
</g>
<!-- Node1&#45;&gt;Node26 -->
<g id="edge25" class="edge"><title>Node1&#45;&gt;Node26</title>
<path fill="none" stroke="midnightblue" d="M2289.58,-139.267C2366.23,-129.797 2487.47,-114.198 2592,-98 2595,-97.5351 2598.06,-97.0489 2601.15,-96.548"/>
<polygon fill="midnightblue" stroke="midnightblue" points="2289.03,-135.808 2279.53,-140.505 2289.89,-142.756 2289.03,-135.808"/>
</g>
<!-- Node28 -->
<g id="node28" class="node"><title>Node28</title>
<g id="a_node28"><a xlink:href="TOFCheckRawsTime_8h.html" target="_top" xlink:title="Modules/TOF/include\l/TOF/TOFCheckRawsTime.h">
<polygon fill="none" stroke="black" points="2765,-67.5 2765,-97.5 2911,-97.5 2911,-67.5 2765,-67.5"/>
<text text-anchor="start" x="2773" y="-85.5" font-family="Helvetica,sans-Serif" font-size="10.00">Modules/TOF/include</text>
<text text-anchor="middle" x="2838" y="-74.5" font-family="Helvetica,sans-Serif" font-size="10.00">/TOF/TOFCheckRawsTime.h</text>
</a>
</g>
</g>
<!-- Node1&#45;&gt;Node28 -->
<g id="edge27" class="edge"><title>Node1&#45;&gt;Node28</title>
<path fill="none" stroke="midnightblue" d="M2289.73,-143.294C2394.95,-135.714 2589.79,-120.092 2755,-98 2758.19,-97.5735 2761.44,-97.1132 2764.73,-96.628"/>
<polygon fill="midnightblue" stroke="midnightblue" points="2289.25,-139.82 2279.52,-144.025 2289.75,-146.802 2289.25,-139.82"/>
</g>
<!-- Node30 -->
<g id="node30" class="node"><title>Node30</title>
<g id="a_node30"><a xlink:href="TOFCheckRawsToT_8h.html" target="_top" xlink:title="Modules/TOF/include\l/TOF/TOFCheckRawsToT.h">
<polygon fill="none" stroke="black" points="2929.5,-67.5 2929.5,-97.5 3070.5,-97.5 3070.5,-67.5 2929.5,-67.5"/>
<text text-anchor="start" x="2937.5" y="-85.5" font-family="Helvetica,sans-Serif" font-size="10.00">Modules/TOF/include</text>
<text text-anchor="middle" x="3000" y="-74.5" font-family="Helvetica,sans-Serif" font-size="10.00">/TOF/TOFCheckRawsToT.h</text>
</a>
</g>
</g>
<!-- Node1&#45;&gt;Node30 -->
<g id="edge29" class="edge"><title>Node1&#45;&gt;Node30</title>
<path fill="none" stroke="midnightblue" d="M2289.77,-145.734C2419.86,-140.44 2691.77,-126.75 2920,-98 2923.08,-97.6119 2926.22,-97.1834 2929.39,-96.7244"/>
<polygon fill="midnightblue" stroke="midnightblue" points="2289.37,-142.247 2279.52,-146.146 2289.65,-149.242 2289.37,-142.247"/>
</g>
<!-- Node3 -->
<g id="node3" class="node"><title>Node3</title>
<g id="a_node3"><a xlink:href="Checker_8cxx.html" target="_top" xlink:title="Framework/src/Checker.cxx">
<polygon fill="none" stroke="black" points="0,-6 0,-25 140,-25 140,-6 0,-6"/>
<text text-anchor="middle" x="70" y="-13" font-family="Helvetica,sans-Serif" font-size="10.00">Framework/src/Checker.cxx</text>
</a>
</g>
</g>
<!-- Node2&#45;&gt;Node3 -->
<g id="edge2" class="edge"><title>Node2&#45;&gt;Node3</title>
<path fill="none" stroke="midnightblue" d="M782.789,-78.8151C651.948,-73.6399 378.492,-60.1203 149,-31 136.827,-29.4553 123.687,-27.2592 111.685,-25.0421"/>
<polygon fill="midnightblue" stroke="midnightblue" points="782.972,-82.3248 793.101,-79.2173 783.245,-75.3301 782.972,-82.3248"/>
</g>
<!-- Node4 -->
<g id="node4" class="node"><title>Node4</title>
<g id="a_node4"><a xlink:href="CheckerFactory_8cxx.html" target="_top" xlink:title="Framework/src/CheckerFactory.cxx">
<polygon fill="none" stroke="black" points="158.5,-6 158.5,-25 331.5,-25 331.5,-6 158.5,-6"/>
<text text-anchor="middle" x="245" y="-13" font-family="Helvetica,sans-Serif" font-size="10.00">Framework/src/CheckerFactory.cxx</text>
</a>
</g>
</g>
<!-- Node2&#45;&gt;Node4 -->
<g id="edge3" class="edge"><title>Node2&#45;&gt;Node4</title>
<path fill="none" stroke="midnightblue" d="M782.945,-75.2846C681.469,-66.8059 497.561,-50.4267 341,-31 327.033,-29.2669 311.963,-27.1217 297.997,-25.0177"/>
<polygon fill="midnightblue" stroke="midnightblue" points="782.848,-78.7885 793.103,-76.13 783.428,-71.8126 782.848,-78.7885"/>
</g>
<!-- Node5 -->
<g id="node5" class="node"><title>Node5</title>
<g id="a_node5"><a xlink:href="runBasic_8cxx.html" target="_top" xlink:title="This is an executable showing QC Task&#39;s usage in Data Processing Layer. ">
<polygon fill="none" stroke="black" points="350,-6 350,-25 492,-25 492,-6 350,-6"/>
<text text-anchor="middle" x="421" y="-13" font-family="Helvetica,sans-Serif" font-size="10.00">Framework/src/runBasic.cxx</text>
</a>
</g>
</g>
<!-- Node2&#45;&gt;Node5 -->
<g id="edge4" class="edge"><title>Node2&#45;&gt;Node5</title>
<path fill="none" stroke="midnightblue" d="M783.385,-71.6155C710.611,-62.0153 598.185,-46.6365 501,-31 489.712,-29.1838 477.558,-27.0653 466.216,-25.0176"/>
<polygon fill="midnightblue" stroke="midnightblue" points="783.014,-75.0967 793.385,-72.9312 783.927,-68.1565 783.014,-75.0967"/>
</g>
<!-- Node6 -->
<g id="node6" class="node"><title>Node6</title>
<g id="a_node6"><a xlink:href="runMergerTest_8cxx.html" target="_top" xlink:title="This is DPL workflow to see HistoMerger in action. ">
<polygon fill="none" stroke="black" points="510.5,-6 510.5,-25 677.5,-25 677.5,-6 510.5,-6"/>
<text text-anchor="middle" x="594" y="-13" font-family="Helvetica,sans-Serif" font-size="10.00">Framework/src/runMergerTest.cxx</text>
</a>
</g>
</g>
<!-- Node2&#45;&gt;Node6 -->
<g id="edge5" class="edge"><title>Node2&#45;&gt;Node6</title>
<path fill="none" stroke="midnightblue" d="M792.761,-65.0694C740.598,-52.3228 670.401,-35.1694 628.902,-25.0287"/>
<polygon fill="midnightblue" stroke="midnightblue" points="792.064,-68.5021 802.609,-67.476 793.726,-61.7022 792.064,-68.5021"/>
</g>
<!-- Node7 -->
<g id="node7" class="node"><title>Node7</title>
<g id="a_node7"><a xlink:href="runReadout_8cxx.html" target="_top" xlink:title="This is an executable showing QC Task&#39;s usage in Data Processing Layer with Readout as external data ...">
<polygon fill="none" stroke="black" points="696,-6 696,-25 850,-25 850,-6 696,-6"/>
<text text-anchor="middle" x="773" y="-13" font-family="Helvetica,sans-Serif" font-size="10.00">Framework/src/runReadout.cxx</text>
</a>
</g>
</g>
<!-- Node2&#45;&gt;Node7 -->
<g id="edge6" class="edge"><title>Node2&#45;&gt;Node7</title>
<path fill="none" stroke="midnightblue" d="M833.02,-61.3425C816.785,-49.2128 796.944,-34.389 784.637,-25.1945"/>
<polygon fill="midnightblue" stroke="midnightblue" points="831.016,-64.2145 841.122,-67.396 835.206,-58.6068 831.016,-64.2145"/>
</g>
<!-- Node8 -->
<g id="node8" class="node"><title>Node8</title>
<g id="a_node8"><a xlink:href="testChecker_8cxx.html" target="_top" xlink:title="Framework/test/testChecker.cxx">
<polygon fill="none" stroke="black" points="868,-6 868,-25 1028,-25 1028,-6 868,-6"/>
<text text-anchor="middle" x="948" y="-13" font-family="Helvetica,sans-Serif" font-size="10.00">Framework/test/testChecker.cxx</text>
</a>
</g>
</g>
<!-- Node2&#45;&gt;Node8 -->
<g id="edge7" class="edge"><title>Node2&#45;&gt;Node8</title>
<path fill="none" stroke="midnightblue" d="M887.34,-61.3056C903.865,-49.0999 924.068,-34.1772 936.483,-25.007"/>
<polygon fill="midnightblue" stroke="midnightblue" points="885.059,-58.6393 879.095,-67.396 889.218,-64.2699 885.059,-58.6393"/>
</g>
<!-- Node9 -->
<g id="node9" class="node"><title>Node9</title>
<g id="a_node9"><a xlink:href="testWorkflow_8cxx.html" target="_top" xlink:title="Framework/test/testWorkflow.cxx">
<polygon fill="none" stroke="black" points="1046,-6 1046,-25 1210,-25 1210,-6 1046,-6"/>
<text text-anchor="middle" x="1128" y="-13" font-family="Helvetica,sans-Serif" font-size="10.00">Framework/test/testWorkflow.cxx</text>
</a>
</g>
</g>
<!-- Node2&#45;&gt;Node9 -->
<g id="edge8" class="edge"><title>Node2&#45;&gt;Node9</title>
<path fill="none" stroke="midnightblue" d="M927.744,-65.0694C980.3,-52.3228 1051.02,-35.1694 1092.84,-25.0287"/>
<polygon fill="midnightblue" stroke="midnightblue" points="926.715,-61.7175 917.822,-67.476 928.365,-68.5203 926.715,-61.7175"/>
</g>
<!-- Node10 -->
<g id="node10" class="node"><title>Node10</title>
<polygon fill="none" stroke="#bfbfbf" points="1228,-6 1228,-25 1446,-25 1446,-6 1228,-6"/>
<text text-anchor="middle" x="1337" y="-13" font-family="Helvetica,sans-Serif" font-size="10.00">Modules/EMCAL/src/runQCEMCALDigits.cxx</text>
</g>
<!-- Node2&#45;&gt;Node10 -->
<g id="edge9" class="edge"><title>Node2&#45;&gt;Node10</title>
<path fill="none" stroke="midnightblue" d="M936.568,-71.0662C1030.35,-58.2873 1187.41,-36.884 1274.35,-25.0378"/>
<polygon fill="midnightblue" stroke="midnightblue" points="936.012,-67.6096 926.576,-72.4278 936.957,-74.5455 936.012,-67.6096"/>
</g>
<!-- Node11 -->
<g id="node11" class="node"><title>Node11</title>
<g id="a_node11"><a xlink:href="runTOF_8cxx.html" target="_top" xlink:title="This is an executable showing QC Task&#39;s usage in Data Processing Layer. ">
<polygon fill="none" stroke="black" points="1464.5,-6 1464.5,-25 1611.5,-25 1611.5,-6 1464.5,-6"/>
<text text-anchor="middle" x="1538" y="-13" font-family="Helvetica,sans-Serif" font-size="10.00">Modules/TOF/src/runTOF.cxx</text>
</a>
</g>
</g>
<!-- Node2&#45;&gt;Node11 -->
<g id="edge10" class="edge"><title>Node2&#45;&gt;Node11</title>
<path fill="none" stroke="midnightblue" d="M936.671,-77.1637C1050.21,-70.2511 1269.62,-55.0117 1455,-31 1467.48,-29.384 1480.94,-27.2174 1493.31,-25.0524"/>
<polygon fill="midnightblue" stroke="midnightblue" points="936.454,-73.6703 926.683,-77.7669 936.876,-80.6576 936.454,-73.6703"/>
</g>
<!-- Node15 -->
<g id="node15" class="node"><title>Node15</title>
<g id="a_node15"><a xlink:href="MeanIsAbove_8cxx.html" target="_top" xlink:title="Modules/Common/src\l/MeanIsAbove.cxx">
<polygon fill="none" stroke="black" points="1629.5,-0.5 1629.5,-30.5 1742.5,-30.5 1742.5,-0.5 1629.5,-0.5"/>
<text text-anchor="start" x="1637.5" y="-18.5" font-family="Helvetica,sans-Serif" font-size="10.00">Modules/Common/src</text>
<text text-anchor="middle" x="1686" y="-7.5" font-family="Helvetica,sans-Serif" font-size="10.00">/MeanIsAbove.cxx</text>
</a>
</g>
</g>
<!-- Node14&#45;&gt;Node15 -->
<g id="edge14" class="edge"><title>Node14&#45;&gt;Node15</title>
<path fill="none" stroke="midnightblue" d="M1852.43,-64.5797C1815.89,-54.0225 1769.4,-40.5921 1734.85,-30.6109"/>
<polygon fill="midnightblue" stroke="midnightblue" points="1851.88,-68.063 1862.46,-67.476 1853.82,-61.338 1851.88,-68.063"/>
</g>
<!-- Node16 -->
<g id="node16" class="node"><title>Node16</title>
<polygon fill="none" stroke="#bfbfbf" points="1761,-0.5 1761,-30.5 1877,-30.5 1877,-0.5 1761,-0.5"/>
<text text-anchor="start" x="1769" y="-18.5" font-family="Helvetica,sans-Serif" font-size="10.00">Modules/Common/test</text>
<text text-anchor="middle" x="1819" y="-7.5" font-family="Helvetica,sans-Serif" font-size="10.00">/testMeanIsAbove.cxx</text>
</g>
<!-- Node14&#45;&gt;Node16 -->
<g id="edge15" class="edge"><title>Node14&#45;&gt;Node16</title>
<path fill="none" stroke="midnightblue" d="M1882.62,-61.4511C1868.47,-51.4517 1851.69,-39.5995 1838.92,-30.5765"/>
<polygon fill="midnightblue" stroke="midnightblue" points="1880.85,-64.4841 1891.04,-67.396 1884.89,-58.7671 1880.85,-64.4841"/>
</g>
<!-- Node18 -->
<g id="node18" class="node"><title>Node18</title>
<g id="a_node18"><a xlink:href="NonEmpty_8cxx.html" target="_top" xlink:title="Modules/Common/src\l/NonEmpty.cxx">
<polygon fill="none" stroke="black" points="1895.5,-0.5 1895.5,-30.5 2008.5,-30.5 2008.5,-0.5 1895.5,-0.5"/>
<text text-anchor="start" x="1903.5" y="-18.5" font-family="Helvetica,sans-Serif" font-size="10.00">Modules/Common/src</text>
<text text-anchor="middle" x="1952" y="-7.5" font-family="Helvetica,sans-Serif" font-size="10.00">/NonEmpty.cxx</text>
</a>
</g>
</g>
<!-- Node17&#45;&gt;Node18 -->
<g id="edge17" class="edge"><title>Node17&#45;&gt;Node18</title>
<path fill="none" stroke="midnightblue" d="M2027.63,-62.0151C2010.82,-51.8999 1990.66,-39.7698 1975.39,-30.5765"/>
<polygon fill="midnightblue" stroke="midnightblue" points="2026.19,-65.2381 2036.57,-67.396 2029.8,-59.2405 2026.19,-65.2381"/>
</g>
<!-- Node19 -->
<g id="node19" class="node"><title>Node19</title>
<g id="a_node19"><a xlink:href="testNonEmpty_8cxx.html" target="_top" xlink:title="Modules/Common/test\l/testNonEmpty.cxx">
<polygon fill="none" stroke="black" points="2027,-0.5 2027,-30.5 2143,-30.5 2143,-0.5 2027,-0.5"/>
<text text-anchor="start" x="2035" y="-18.5" font-family="Helvetica,sans-Serif" font-size="10.00">Modules/Common/test</text>
<text text-anchor="middle" x="2085" y="-7.5" font-family="Helvetica,sans-Serif" font-size="10.00">/testNonEmpty.cxx</text>
</a>
</g>
</g>
<!-- Node17&#45;&gt;Node19 -->
<g id="edge18" class="edge"><title>Node17&#45;&gt;Node19</title>
<path fill="none" stroke="midnightblue" d="M2069.04,-57.9907C2072.58,-48.8044 2076.51,-38.5781 2079.59,-30.5765"/>
<polygon fill="midnightblue" stroke="midnightblue" points="2065.75,-56.8061 2065.42,-67.396 2072.28,-59.319 2065.75,-56.8061"/>
</g>
<!-- Node21 -->
<g id="node21" class="node"><title>Node21</title>
<g id="a_node21"><a xlink:href="EverIncreasingGraph_8cxx.html" target="_top" xlink:title="Modules/Daq/src/EverIncreasing\lGraph.cxx">
<polygon fill="none" stroke="black" points="2160.5,-0.5 2160.5,-30.5 2319.5,-30.5 2319.5,-0.5 2160.5,-0.5"/>
<text text-anchor="start" x="2168.5" y="-18.5" font-family="Helvetica,sans-Serif" font-size="10.00">Modules/Daq/src/EverIncreasing</text>
<text text-anchor="middle" x="2240" y="-7.5" font-family="Helvetica,sans-Serif" font-size="10.00">Graph.cxx</text>
</a>
</g>
</g>
<!-- Node20&#45;&gt;Node21 -->
<g id="edge20" class="edge"><title>Node20&#45;&gt;Node21</title>
<path fill="none" stroke="midnightblue" d="M2222.77,-57.9907C2226.58,-48.8044 2230.83,-38.5781 2234.15,-30.5765"/>
<polygon fill="midnightblue" stroke="midnightblue" points="2219.46,-56.8184 2218.86,-67.396 2225.93,-59.5036 2219.46,-56.8184"/>
</g>
<!-- Node23 -->
<g id="node23" class="node"><title>Node23</title>
<g id="a_node23"><a xlink:href="FakeCheck_8cxx.html" target="_top" xlink:title="Modules/Example/src\l/FakeCheck.cxx">
<polygon fill="none" stroke="black" points="2337.5,-0.5 2337.5,-30.5 2448.5,-30.5 2448.5,-0.5 2337.5,-0.5"/>
<text text-anchor="start" x="2345.5" y="-18.5" font-family="Helvetica,sans-Serif" font-size="10.00">Modules/Example/src</text>
<text text-anchor="middle" x="2393" y="-7.5" font-family="Helvetica,sans-Serif" font-size="10.00">/FakeCheck.cxx</text>
</a>
</g>
</g>
<!-- Node22&#45;&gt;Node23 -->
<g id="edge22" class="edge"><title>Node22&#45;&gt;Node23</title>
<path fill="none" stroke="midnightblue" d="M2375.13,-57.9907C2379.08,-48.8044 2383.49,-38.5781 2386.94,-30.5765"/>
<polygon fill="midnightblue" stroke="midnightblue" points="2371.82,-56.8271 2371.08,-67.396 2378.25,-59.5965 2371.82,-56.8271"/>
</g>
<!-- Node25 -->
<g id="node25" class="node"><title>Node25</title>
<g id="a_node25"><a xlink:href="SkeletonCheck_8cxx.html" target="_top" xlink:title="Modules/Skeleton/src\l/SkeletonCheck.cxx">
<polygon fill="none" stroke="black" points="2466.5,-0.5 2466.5,-30.5 2577.5,-30.5 2577.5,-0.5 2466.5,-0.5"/>
<text text-anchor="start" x="2474.5" y="-18.5" font-family="Helvetica,sans-Serif" font-size="10.00">Modules/Skeleton/src</text>
<text text-anchor="middle" x="2522" y="-7.5" font-family="Helvetica,sans-Serif" font-size="10.00">/SkeletonCheck.cxx</text>
</a>
</g>
</g>
<!-- Node24&#45;&gt;Node25 -->
<g id="edge24" class="edge"><title>Node24&#45;&gt;Node25</title>
<path fill="none" stroke="midnightblue" d="M2517.6,-57.4029C2518.57,-48.3703 2519.64,-38.4078 2520.48,-30.5765"/>
<polygon fill="midnightblue" stroke="midnightblue" points="2514.11,-57.0787 2516.52,-67.396 2521.07,-57.8282 2514.11,-57.0787"/>
</g>
<!-- Node27 -->
<g id="node27" class="node"><title>Node27</title>
<g id="a_node27"><a xlink:href="TOFCheckRawsMulti_8cxx.html" target="_top" xlink:title="Modules/TOF/src/TOFCheck\lRawsMulti.cxx">
<polygon fill="none" stroke="black" points="2602.5,-0.5 2602.5,-30.5 2745.5,-30.5 2745.5,-0.5 2602.5,-0.5"/>
<text text-anchor="start" x="2610.5" y="-18.5" font-family="Helvetica,sans-Serif" font-size="10.00">Modules/TOF/src/TOFCheck</text>
<text text-anchor="middle" x="2674" y="-7.5" font-family="Helvetica,sans-Serif" font-size="10.00">RawsMulti.cxx</text>
</a>
</g>
</g>
<!-- Node26&#45;&gt;Node27 -->
<g id="edge26" class="edge"><title>Node26&#45;&gt;Node27</title>
<path fill="none" stroke="midnightblue" d="M2674,-57.1081C2674,-48.1539 2674,-38.3227 2674,-30.5765"/>
<polygon fill="midnightblue" stroke="midnightblue" points="2670.5,-57.3959 2674,-67.396 2677.5,-57.396 2670.5,-57.3959"/>
</g>
<!-- Node29 -->
<g id="node29" class="node"><title>Node29</title>
<g id="a_node29"><a xlink:href="TOFCheckRawsTime_8cxx.html" target="_top" xlink:title="Modules/TOF/src/TOFCheck\lRawsTime.cxx">
<polygon fill="none" stroke="black" points="2766.5,-0.5 2766.5,-30.5 2909.5,-30.5 2909.5,-0.5 2766.5,-0.5"/>
<text text-anchor="start" x="2774.5" y="-18.5" font-family="Helvetica,sans-Serif" font-size="10.00">Modules/TOF/src/TOFCheck</text>
<text text-anchor="middle" x="2838" y="-7.5" font-family="Helvetica,sans-Serif" font-size="10.00">RawsTime.cxx</text>
</a>
</g>
</g>
<!-- Node28&#45;&gt;Node29 -->
<g id="edge28" class="edge"><title>Node28&#45;&gt;Node29</title>
<path fill="none" stroke="midnightblue" d="M2838,-57.1081C2838,-48.1539 2838,-38.3227 2838,-30.5765"/>
<polygon fill="midnightblue" stroke="midnightblue" points="2834.5,-57.3959 2838,-67.396 2841.5,-57.396 2834.5,-57.3959"/>
</g>
<!-- Node31 -->
<g id="node31" class="node"><title>Node31</title>
<g id="a_node31"><a xlink:href="TOFCheckRawsToT_8cxx.html" target="_top" xlink:title="Modules/TOF/src/TOFCheck\lRawsToT.cxx">
<polygon fill="none" stroke="black" points="2928.5,-0.5 2928.5,-30.5 3071.5,-30.5 3071.5,-0.5 2928.5,-0.5"/>
<text text-anchor="start" x="2936.5" y="-18.5" font-family="Helvetica,sans-Serif" font-size="10.00">Modules/TOF/src/TOFCheck</text>
<text text-anchor="middle" x="3000" y="-7.5" font-family="Helvetica,sans-Serif" font-size="10.00">RawsToT.cxx</text>
</a>
</g>
</g>
<!-- Node30&#45;&gt;Node31 -->
<g id="edge30" class="edge"><title>Node30&#45;&gt;Node31</title>
<path fill="none" stroke="midnightblue" d="M3000,-57.1081C3000,-48.1539 3000,-38.3227 3000,-30.5765"/>
<polygon fill="midnightblue" stroke="midnightblue" points="2996.5,-57.3959 3000,-67.396 3003.5,-57.396 2996.5,-57.3959"/>
</g>
</g>
</svg>
        <g id="navigator" transform="translate(0 0)" fill="#404254">
                <rect fill="#f2f5e9" fill-opacity="0.5" stroke="#606060" stroke-width=".5" x="0" y="0" width="60" height="60"/>
                <use id="zoomplus" xlink:href="#zoomPlus" x="17" y="9" onmousedown="handleZoom(evt,'in')"/>
                <use id="zoomminus" xlink:href="#zoomMin" x="42" y="9" onmousedown="handleZoom(evt,'out')"/>
                <use id="reset" xlink:href="#resetDef" x="30" y="36" onmousedown="handleReset()"/>
                <g id="arrowUp" xlink:href="#dirArrow" transform="translate(30 24)" onmousedown="handlePan(0,-1)">
                  <use xlink:href="#rim" fill="#404040">
                        <set attributeName="fill" to="#808080" begin="arrowUp.mouseover" end="arrowUp.mouseout"/>
                  </use>
                  <path fill="none" stroke="white" stroke-width="1.5" d="M0,-3.0v7 M-2.5,-0.5L0,-3.0L2.5,-0.5"/>
                </g>
                <g id="arrowRight" xlink:href="#dirArrow" transform="rotate(90) translate(36 -43)" onmousedown="handlePan(1,0)">
                  <use xlink:href="#rim" fill="#404040">
                        <set attributeName="fill" to="#808080" begin="arrowRight.mouseover" end="arrowRight.mouseout"/>
                  </use>
                  <path fill="none" stroke="white" stroke-width="1.5" d="M0,-3.0v7 M-2.5,-0.5L0,-3.0L2.5,-0.5"/>
                </g>
                <g id="arrowDown" xlink:href="#dirArrow" transform="rotate(180) translate(-30 -48)" onmousedown="handlePan(0,1)">
                  <use xlink:href="#rim" fill="#404040">
                        <set attributeName="fill" to="#808080" begin="arrowDown.mouseover" end="arrowDown.mouseout"/>
                  </use>
                  <path fill="none" stroke="white" stroke-width="1.5" d="M0,-3.0v7 M-2.5,-0.5L0,-3.0L2.5,-0.5"/>
                </g>
                <g id="arrowLeft" xlink:href="#dirArrow" transform="rotate(270) translate(-36 17)" onmousedown="handlePan(-1,0)">
                  <use xlink:href="#rim" fill="#404040">
                        <set attributeName="fill" to="#808080" begin="arrowLeft.mouseover" end="arrowLeft.mouseout"/>
                  </use>
                  <path fill="none" stroke="white" stroke-width="1.5" d="M0,-3.0v7 M-2.5,-0.5L0,-3.0L2.5,-0.5"/>
                </g>
        </g>
        <svg viewBox="0 0 15 15" width="100%" height="30px" preserveAspectRatio="xMaxYMin meet">
         <g id="arrow_out" transform="scale(0.3 0.3)">
          <a xlink:href="CheckInterface_8h__dep__incl_org.svg" target="_base">
           <rect id="button" ry="5" rx="5" y="6" x="6" height="38" width="38"
                fill="#f2f5e9" fill-opacity="0.5" stroke="#606060" stroke-width="1.0"/>
           <path id="arrow"
             d="M 11.500037,31.436501 C 11.940474,20.09759 22.043105,11.32322 32.158766,21.979434 L 37.068811,17.246167 C 37.068811,17.246167 37.088388,32 37.088388,32 L 22.160133,31.978069 C 22.160133,31.978069 26.997745,27.140456 26.997745,27.140456 C 18.528582,18.264221 13.291696,25.230495 11.500037,31.436501 z"
             style="fill:#404040;"/>
          </a>
         </g>
        </svg>
</svg>
