<?xml version="1.0" encoding="UTF-8" standalone="no"?>
<!DOCTYPE svg PUBLIC "-//W3C//DTD SVG 1.1//EN"
 "http://www.w3.org/Graphics/SVG/1.1/DTD/svg11.dtd">
<!-- Generated by graphviz version 2.38.0 (20140413.2041)
 -->
<!-- Title: Modules/Daq/src/DaqTask.cxx Pages: 1 -->
<!--zoomable 375 -->
<svg id="main" version="1.1" xmlns="http://www.w3.org/2000/svg" xmlns:xlink="http://www.w3.org/1999/xlink" xml:space="preserve" onload="init(evt)">
<style type="text/css"><![CDATA[
.edge:hover path { stroke: red; }
.edge:hover polygon { stroke: red; fill: red; }
]]></style>
<script type="text/javascript"><![CDATA[
var edges = document.getElementsByTagName('g');
if (edges && edges.length) {
  for (var i=0;i<edges.length;i++) {
    if (edges[i].id.substr(0,4)=='edge') {
      edges[i].setAttribute('class','edge');
    }
  }
}
]]></script>
        <defs>
                <circle id="rim" cx="0" cy="0" r="7"/>
                <circle id="rim2" cx="0" cy="0" r="3.5"/>
                <g id="zoomPlus">
                        <use xlink:href="#rim" fill="#404040">
                                <set attributeName="fill" to="#808080" begin="zoomplus.mouseover" end="zoomplus.mouseout"/>
                        </use>
                        <path d="M-4,0h8M0,-4v8" fill="none" stroke="white" stroke-width="1.5" pointer-events="none"/>
                </g>
                <g id="zoomMin">
                        <use xlink:href="#rim" fill="#404040">
                                <set attributeName="fill" to="#808080" begin="zoomminus.mouseover" end="zoomminus.mouseout"/>
                        </use>
                        <path d="M-4,0h8" fill="none" stroke="white" stroke-width="1.5" pointer-events="none"/>
                </g>
                <g id="dirArrow">
                        <path fill="none" stroke="white" stroke-width="1.5" d="M0,-3.0v7 M-2.5,-0.5L0,-3.0L2.5,-0.5"/>
                </g>
               <g id="resetDef">
                       <use xlink:href="#rim2" fill="#404040">
                               <set attributeName="fill" to="#808080" begin="reset.mouseover" end="reset.mouseout"/>
                       </use>
               </g>
        </defs>

<script type="text/javascript">
var viewWidth = 1243;
var viewHeight = 375;
var sectionId = 'dynsection-0';
</script>
<script xlink:href="svgpan.js"/>
<svg id="graph" class="graph">
<g id="viewport">
<title>Modules/Daq/src/DaqTask.cxx</title>
<!-- Node1 -->
<g id="node1" class="node"><title>Node1</title>
<polygon fill="#bfbfbf" stroke="black" points="837,-347.5 837,-366.5 989,-366.5 989,-347.5 837,-347.5"/>
<text text-anchor="middle" x="913" y="-354.5" font-family="Helvetica,sans-Serif" font-size="10.00">Modules/Daq/src/DaqTask.cxx</text>
</g>
<!-- Node2 -->
<g id="node2" class="node"><title>Node2</title>
<g id="a_node2"><a xlink:href="DaqTask_8h.html" target="_top" xlink:title="Daq/DaqTask.h">
<polygon fill="none" stroke="black" points="740,-291.5 740,-310.5 826,-310.5 826,-291.5 740,-291.5"/>
<text text-anchor="middle" x="783" y="-298.5" font-family="Helvetica,sans-Serif" font-size="10.00">Daq/DaqTask.h</text>
</a>
</g>
</g>
<!-- Node1&#45;&gt;Node2 -->
<g id="edge1" class="edge"><title>Node1&#45;&gt;Node2</title>
<path fill="none" stroke="midnightblue" d="M892.401,-347.444C871.007,-338.557 837.319,-324.563 812.976,-314.451"/>
<polygon fill="midnightblue" stroke="midnightblue" points="814.08,-311.12 803.503,-310.516 811.395,-317.585 814.08,-311.12"/>
</g>
<!-- Node28 -->
<g id="node28" class="node"><title>Node28</title>
<polygon fill="none" stroke="#bfbfbf" points="837.5,-235.5 837.5,-254.5 902.5,-254.5 902.5,-235.5 837.5,-235.5"/>
<text text-anchor="middle" x="870" y="-242.5" font-family="Helvetica,sans-Serif" font-size="10.00">TCanvas.h</text>
</g>
<!-- Node1&#45;&gt;Node28 -->
<g id="edge40" class="edge"><title>Node1&#45;&gt;Node28</title>
<path fill="none" stroke="midnightblue" d="M901.899,-347.362C892.309,-339.166 879.066,-325.911 873,-311 867.073,-296.432 866.706,-278.486 867.603,-265.144"/>
<polygon fill="midnightblue" stroke="midnightblue" points="871.124,-265.097 868.61,-254.805 864.157,-264.418 871.124,-265.097"/>
</g>
<!-- Node30 -->
<g id="node30" class="node"><title>Node30</title>
<g id="a_node30"><a xlink:href="QcInfoLogger_8h.html" target="_top" xlink:title="QualityControl/QcInfoLogger.h">
<polygon fill="none" stroke="black" points="496.5,-291.5 496.5,-310.5 645.5,-310.5 645.5,-291.5 496.5,-291.5"/>
<text text-anchor="middle" x="571" y="-298.5" font-family="Helvetica,sans-Serif" font-size="10.00">QualityControl/QcInfoLogger.h</text>
</a>
</g>
</g>
<!-- Node1&#45;&gt;Node30 -->
<g id="edge36" class="edge"><title>Node1&#45;&gt;Node30</title>
<path fill="none" stroke="midnightblue" d="M858.809,-347.444C798.022,-337.846 699.513,-322.292 634.99,-312.104"/>
<polygon fill="midnightblue" stroke="midnightblue" points="635.361,-308.619 624.937,-310.516 634.269,-315.533 635.361,-308.619"/>
</g>
<!-- Node32 -->
<g id="node32" class="node"><title>Node32</title>
<polygon fill="none" stroke="#bfbfbf" points="882,-291.5 882,-310.5 944,-310.5 944,-291.5 882,-291.5"/>
<text text-anchor="middle" x="913" y="-298.5" font-family="Helvetica,sans-Serif" font-size="10.00">TDatime.h</text>
</g>
<!-- Node1&#45;&gt;Node32 -->
<g id="edge41" class="edge"><title>Node1&#45;&gt;Node32</title>
<path fill="none" stroke="midnightblue" d="M913,-347.083C913,-340.006 913,-329.861 913,-320.986"/>
<polygon fill="midnightblue" stroke="midnightblue" points="916.5,-320.751 913,-310.751 909.5,-320.751 916.5,-320.751"/>
</g>
<!-- Node33 -->
<g id="node33" class="node"><title>Node33</title>
<polygon fill="none" stroke="#bfbfbf" points="962.5,-291.5 962.5,-310.5 1019.5,-310.5 1019.5,-291.5 962.5,-291.5"/>
<text text-anchor="middle" x="991" y="-298.5" font-family="Helvetica,sans-Serif" font-size="10.00">TGraph.h</text>
</g>
<!-- Node1&#45;&gt;Node33 -->
<g id="edge42" class="edge"><title>Node1&#45;&gt;Node33</title>
<path fill="none" stroke="midnightblue" d="M925.532,-347.324C937.586,-338.979 956.027,-326.212 970.269,-316.352"/>
<polygon fill="midnightblue" stroke="midnightblue" points="972.269,-319.224 978.499,-310.655 968.285,-313.469 972.269,-319.224"/>
</g>
<!-- Node34 -->
<g id="node34" class="node"><title>Node34</title>
<polygon fill="none" stroke="#bfbfbf" points="1038,-291.5 1038,-310.5 1082,-310.5 1082,-291.5 1038,-291.5"/>
<text text-anchor="middle" x="1060" y="-298.5" font-family="Helvetica,sans-Serif" font-size="10.00">TH1.h</text>
</g>
<!-- Node1&#45;&gt;Node34 -->
<g id="edge43" class="edge"><title>Node1&#45;&gt;Node34</title>
<path fill="none" stroke="midnightblue" d="M936.293,-347.444C961.096,-338.332 1000.51,-323.853 1028.17,-313.693"/>
<polygon fill="midnightblue" stroke="midnightblue" points="1029.6,-316.897 1037.78,-310.163 1027.19,-310.326 1029.6,-316.897"/>
</g>
<!-- Node35 -->
<g id="node35" class="node"><title>Node35</title>
<polygon fill="none" stroke="#bfbfbf" points="1100.5,-291.5 1100.5,-310.5 1153.5,-310.5 1153.5,-291.5 1100.5,-291.5"/>
<text text-anchor="middle" x="1127" y="-298.5" font-family="Helvetica,sans-Serif" font-size="10.00">TStyle.h</text>
</g>
<!-- Node1&#45;&gt;Node35 -->
<g id="edge44" class="edge"><title>Node1&#45;&gt;Node35</title>
<path fill="none" stroke="midnightblue" d="M946.909,-347.444C986.048,-337.567 1050.18,-321.385 1090.42,-311.231"/>
<polygon fill="midnightblue" stroke="midnightblue" points="1091.51,-314.565 1100.35,-308.725 1089.8,-307.778 1091.51,-314.565"/>
</g>
<!-- Node3 -->
<g id="node3" class="node"><title>Node3</title>
<g id="a_node3"><a xlink:href="TaskInterface_8h.html" target="_top" xlink:title="QualityControl/TaskInterface.h">
<polygon fill="none" stroke="black" points="578,-235.5 578,-254.5 728,-254.5 728,-235.5 578,-235.5"/>
<text text-anchor="middle" x="653" y="-242.5" font-family="Helvetica,sans-Serif" font-size="10.00">QualityControl/TaskInterface.h</text>
</a>
</g>
</g>
<!-- Node2&#45;&gt;Node3 -->
<g id="edge2" class="edge"><title>Node2&#45;&gt;Node3</title>
<path fill="none" stroke="midnightblue" d="M762.401,-291.444C741.007,-282.557 707.319,-268.563 682.976,-258.451"/>
<polygon fill="midnightblue" stroke="midnightblue" points="684.08,-255.12 673.503,-254.516 681.395,-261.585 684.08,-255.12"/>
</g>
<!-- Node2&#45;&gt;Node28 -->
<g id="edge34" class="edge"><title>Node2&#45;&gt;Node28</title>
<path fill="none" stroke="midnightblue" d="M796.978,-291.324C810.55,-282.9 831.38,-269.971 847.325,-260.074"/>
<polygon fill="midnightblue" stroke="midnightblue" points="849.406,-262.902 856.057,-254.655 845.714,-256.954 849.406,-262.902"/>
</g>
<!-- Node29 -->
<g id="node29" class="node"><title>Node29</title>
<polygon fill="none" stroke="#bfbfbf" points="746.5,-235.5 746.5,-254.5 819.5,-254.5 819.5,-235.5 746.5,-235.5"/>
<text text-anchor="middle" x="783" y="-242.5" font-family="Helvetica,sans-Serif" font-size="10.00">TPaveText.h</text>
</g>
<!-- Node2&#45;&gt;Node29 -->
<g id="edge35" class="edge"><title>Node2&#45;&gt;Node29</title>
<path fill="none" stroke="midnightblue" d="M783,-291.083C783,-284.006 783,-273.861 783,-264.986"/>
<polygon fill="midnightblue" stroke="midnightblue" points="786.5,-264.751 783,-254.751 779.5,-264.751 786.5,-264.751"/>
</g>
<!-- Node4 -->
<g id="node4" class="node"><title>Node4</title>
<polygon fill="none" stroke="#bfbfbf" points="1183,-62 1183,-81 1235,-81 1235,-62 1183,-62"/>
<text text-anchor="middle" x="1209" y="-69" font-family="Helvetica,sans-Serif" font-size="10.00">memory</text>
</g>
<!-- Node3&#45;&gt;Node4 -->
<g id="edge3" class="edge"><title>Node3&#45;&gt;Node4</title>
<path fill="none" stroke="midnightblue" d="M723.865,-235.498C804.931,-225.552 932.58,-209.156 980,-199 1066.5,-180.475 1102.26,-198.681 1171,-143 1187.5,-129.632 1197.84,-107.117 1203.5,-91.1298"/>
<polygon fill="midnightblue" stroke="midnightblue" points="1206.93,-91.8894 1206.68,-81.2975 1200.27,-89.7325 1206.93,-91.8894"/>
</g>
<!-- Node5 -->
<g id="node5" class="node"><title>Node5</title>
<polygon fill="none" stroke="#bfbfbf" points="443.5,-179.5 443.5,-198.5 492.5,-198.5 492.5,-179.5 443.5,-179.5"/>
<text text-anchor="middle" x="468" y="-186.5" font-family="Helvetica,sans-Serif" font-size="10.00">cassert</text>
</g>
<!-- Node3&#45;&gt;Node5 -->
<g id="edge4" class="edge"><title>Node3&#45;&gt;Node5</title>
<path fill="none" stroke="midnightblue" d="M623.686,-235.444C590.767,-225.835 537.395,-210.256 502.494,-200.069"/>
<polygon fill="midnightblue" stroke="midnightblue" points="503.316,-196.663 492.736,-197.22 501.355,-203.382 503.316,-196.663"/>
</g>
<!-- Node6 -->
<g id="node6" class="node"><title>Node6</title>
<polygon fill="none" stroke="#bfbfbf" points="510.5,-179.5 510.5,-198.5 635.5,-198.5 635.5,-179.5 510.5,-179.5"/>
<text text-anchor="middle" x="573" y="-186.5" font-family="Helvetica,sans-Serif" font-size="10.00">Framework/InitContext.h</text>
</g>
<!-- Node3&#45;&gt;Node6 -->
<g id="edge5" class="edge"><title>Node3&#45;&gt;Node6</title>
<path fill="none" stroke="midnightblue" d="M640.147,-235.324C627.784,-226.979 608.87,-214.212 594.263,-204.352"/>
<polygon fill="midnightblue" stroke="midnightblue" points="596.068,-201.348 585.821,-198.655 592.152,-207.15 596.068,-201.348"/>
</g>
<!-- Node7 -->
<g id="node7" class="node"><title>Node7</title>
<polygon fill="none" stroke="#bfbfbf" points="654,-179.5 654,-198.5 814,-198.5 814,-179.5 654,-179.5"/>
<text text-anchor="middle" x="734" y="-186.5" font-family="Helvetica,sans-Serif" font-size="10.00">Framework/ProcessingContext.h</text>
</g>
<!-- Node3&#45;&gt;Node7 -->
<g id="edge6" class="edge"><title>Node3&#45;&gt;Node7</title>
<path fill="none" stroke="midnightblue" d="M666.014,-235.324C678.532,-226.979 697.682,-214.212 712.471,-204.352"/>
<polygon fill="midnightblue" stroke="midnightblue" points="714.639,-207.114 721.018,-198.655 710.756,-201.289 714.639,-207.114"/>
</g>
<!-- Node8 -->
<g id="node8" class="node"><title>Node8</title>
<polygon fill="none" stroke="#bfbfbf" points="672.5,-56.5 672.5,-86.5 807.5,-86.5 807.5,-56.5 672.5,-56.5"/>
<text text-anchor="start" x="680.5" y="-74.5" font-family="Helvetica,sans-Serif" font-size="10.00">Configuration/Configuration</text>
<text text-anchor="middle" x="740" y="-63.5" font-family="Helvetica,sans-Serif" font-size="10.00">Interface.h</text>
</g>
<!-- Node3&#45;&gt;Node8 -->
<g id="edge7" class="edge"><title>Node3&#45;&gt;Node8</title>
<path fill="none" stroke="midnightblue" d="M728.219,-235.599C817.77,-225.234 956.301,-207.894 964,-199 969.818,-192.28 968.748,-186.515 964,-179 944.446,-148.051 852.048,-111.231 792.198,-89.9928"/>
<polygon fill="midnightblue" stroke="midnightblue" points="793.118,-86.6064 782.524,-86.5943 790.798,-93.2108 793.118,-86.6064"/>
</g>
<!-- Node9 -->
<g id="node9" class="node"><title>Node9</title>
<g id="a_node9"><a xlink:href="Activity_8h.html" target="_top" xlink:title="QualityControl/Activity.h">
<polygon fill="none" stroke="black" points="832.5,-179.5 832.5,-198.5 955.5,-198.5 955.5,-179.5 832.5,-179.5"/>
<text text-anchor="middle" x="894" y="-186.5" font-family="Helvetica,sans-Serif" font-size="10.00">QualityControl/Activity.h</text>
</a>
</g>
</g>
<!-- Node3&#45;&gt;Node9 -->
<g id="edge8" class="edge"><title>Node3&#45;&gt;Node9</title>
<path fill="none" stroke="midnightblue" d="M691.187,-235.444C733.141,-226.043 800.594,-210.929 846.071,-200.739"/>
<polygon fill="midnightblue" stroke="midnightblue" points="846.999,-204.118 855.991,-198.516 845.468,-197.288 846.999,-204.118"/>
</g>
<!-- Node10 -->
<g id="node10" class="node"><title>Node10</title>
<g id="a_node10"><a xlink:href="ObjectsManager_8h.html" target="_top" xlink:title="QualityControl/ObjectsManager.h">
<polygon fill="none" stroke="black" points="264.5,-179.5 264.5,-198.5 425.5,-198.5 425.5,-179.5 264.5,-179.5"/>
<text text-anchor="middle" x="345" y="-186.5" font-family="Helvetica,sans-Serif" font-size="10.00">QualityControl/ObjectsManager.h</text>
</a>
</g>
</g>
<!-- Node3&#45;&gt;Node10 -->
<g id="edge9" class="edge"><title>Node3&#45;&gt;Node10</title>
<path fill="none" stroke="midnightblue" d="M604.196,-235.444C549.791,-225.905 461.831,-210.483 403.708,-200.293"/>
<polygon fill="midnightblue" stroke="midnightblue" points="404.029,-196.796 393.575,-198.516 402.821,-203.691 404.029,-196.796"/>
</g>
<!-- Node11 -->
<g id="node11" class="node"><title>Node11</title>
<g id="a_node11"><a xlink:href="MonitorObject_8h.html" target="_top" xlink:title="QualityControl/MonitorObject.h">
<polygon fill="none" stroke="black" points="54.5,-123.5 54.5,-142.5 205.5,-142.5 205.5,-123.5 54.5,-123.5"/>
<text text-anchor="middle" x="130" y="-130.5" font-family="Helvetica,sans-Serif" font-size="10.00">QualityControl/MonitorObject.h</text>
</a>
</g>
</g>
<!-- Node10&#45;&gt;Node11 -->
<g id="edge10" class="edge"><title>Node10&#45;&gt;Node11</title>
<path fill="none" stroke="midnightblue" d="M310.933,-179.444C273.82,-170.122 214.339,-155.183 173.785,-144.997"/>
<polygon fill="midnightblue" stroke="midnightblue" points="174.459,-141.558 163.908,-142.516 172.754,-148.347 174.459,-141.558"/>
</g>
<!-- Node16 -->
<g id="node16" class="node"><title>Node16</title>
<g id="a_node16"><a xlink:href="Quality_8h.html" target="_top" xlink:title="QualityControl/Quality.h">
<polygon fill="none" stroke="black" points="371.5,-62 371.5,-81 492.5,-81 492.5,-62 371.5,-62"/>
<text text-anchor="middle" x="432" y="-69" font-family="Helvetica,sans-Serif" font-size="10.00">QualityControl/Quality.h</text>
</a>
</g>
</g>
<!-- Node10&#45;&gt;Node16 -->
<g id="edge19" class="edge"><title>Node10&#45;&gt;Node16</title>
<path fill="none" stroke="midnightblue" d="M423.511,-179.481C470.036,-172.633 522.644,-161.11 537,-143 558.348,-116.07 514.345,-95.7167 476.92,-83.9648"/>
<polygon fill="midnightblue" stroke="midnightblue" points="477.68,-80.5387 467.096,-81.0218 475.671,-87.2443 477.68,-80.5387"/>
</g>
<!-- Node18 -->
<g id="node18" class="node"><title>Node18</title>
<polygon fill="none" stroke="#bfbfbf" points="596.5,-0.5 596.5,-19.5 637.5,-19.5 637.5,-0.5 596.5,-0.5"/>
<text text-anchor="middle" x="617" y="-7.5" font-family="Helvetica,sans-Serif" font-size="10.00">string</text>
</g>
<!-- Node10&#45;&gt;Node18 -->
<g id="edge33" class="edge"><title>Node10&#45;&gt;Node18</title>
<path fill="none" stroke="midnightblue" d="M416.095,-179.482C467.975,-172.032 532.778,-159.771 554,-143 590.583,-114.089 607.099,-58.7393 613.513,-29.7535"/>
<polygon fill="midnightblue" stroke="midnightblue" points="616.989,-30.2253 615.557,-19.7277 610.13,-28.8271 616.989,-30.2253"/>
</g>
<!-- Node19 -->
<g id="node19" class="node"><title>Node19</title>
<g id="a_node19"><a xlink:href="TaskConfig_8h.html" target="_top" xlink:title="QualityControl/TaskConfig.h">
<polygon fill="none" stroke="black" points="622,-123.5 622,-142.5 762,-142.5 762,-123.5 622,-123.5"/>
<text text-anchor="middle" x="692" y="-130.5" font-family="Helvetica,sans-Serif" font-size="10.00">QualityControl/TaskConfig.h</text>
</a>
</g>
</g>
<!-- Node10&#45;&gt;Node19 -->
<g id="edge20" class="edge"><title>Node10&#45;&gt;Node19</title>
<path fill="none" stroke="midnightblue" d="M399.983,-179.444C461.659,-169.846 561.608,-154.292 627.074,-144.104"/>
<polygon fill="midnightblue" stroke="midnightblue" points="627.931,-147.513 637.274,-142.516 626.855,-140.596 627.931,-147.513"/>
</g>
<!-- Node20 -->
<g id="node20" class="node"><title>Node20</title>
<g id="a_node20"><a xlink:href="ServiceDiscovery_8h_source.html" target="_top" xlink:title="QualityControl/ServiceDiscovery.h">
<polygon fill="none" stroke="black" points="995.5,-123.5 995.5,-142.5 1162.5,-142.5 1162.5,-123.5 995.5,-123.5"/>
<text text-anchor="middle" x="1079" y="-130.5" font-family="Helvetica,sans-Serif" font-size="10.00">QualityControl/ServiceDiscovery.h</text>
</a>
</g>
</g>
<!-- Node10&#45;&gt;Node20 -->
<g id="edge23" class="edge"><title>Node10&#45;&gt;Node20</title>
<path fill="none" stroke="midnightblue" d="M425.52,-179.744C428.381,-179.487 431.215,-179.238 434,-179 629.814,-162.273 859.472,-147.378 985.097,-139.632"/>
<polygon fill="midnightblue" stroke="midnightblue" points="985.675,-143.103 995.442,-138.996 985.246,-136.117 985.675,-143.103"/>
</g>
<!-- Node25 -->
<g id="node25" class="node"><title>Node25</title>
<polygon fill="none" stroke="#bfbfbf" points="223.5,-123.5 223.5,-142.5 292.5,-142.5 292.5,-123.5 223.5,-123.5"/>
<text text-anchor="middle" x="258" y="-130.5" font-family="Helvetica,sans-Serif" font-size="10.00">TObjArray.h</text>
</g>
<!-- Node10&#45;&gt;Node25 -->
<g id="edge30" class="edge"><title>Node10&#45;&gt;Node25</title>
<path fill="none" stroke="midnightblue" d="M331.022,-179.324C317.45,-170.9 296.62,-157.971 280.675,-148.074"/>
<polygon fill="midnightblue" stroke="midnightblue" points="282.286,-144.954 271.943,-142.655 278.594,-150.902 282.286,-144.954"/>
</g>
<!-- Node26 -->
<g id="node26" class="node"><title>Node26</title>
<polygon fill="none" stroke="#bfbfbf" points="310.5,-123.5 310.5,-142.5 381.5,-142.5 381.5,-123.5 310.5,-123.5"/>
<text text-anchor="middle" x="346" y="-130.5" font-family="Helvetica,sans-Serif" font-size="10.00">TObjString.h</text>
</g>
<!-- Node10&#45;&gt;Node26 -->
<g id="edge31" class="edge"><title>Node10&#45;&gt;Node26</title>
<path fill="none" stroke="midnightblue" d="M345.165,-179.083C345.296,-172.006 345.484,-161.861 345.648,-152.986"/>
<polygon fill="midnightblue" stroke="midnightblue" points="349.152,-152.814 345.838,-142.751 342.153,-152.685 349.152,-152.814"/>
</g>
<!-- Node27 -->
<g id="node27" class="node"><title>Node27</title>
<polygon fill="none" stroke="#bfbfbf" points="400,-123.5 400,-142.5 528,-142.5 528,-123.5 400,-123.5"/>
<text text-anchor="middle" x="464" y="-130.5" font-family="Helvetica,sans-Serif" font-size="10.00">boost/concept_check.hpp</text>
</g>
<!-- Node10&#45;&gt;Node27 -->
<g id="edge32" class="edge"><title>Node10&#45;&gt;Node27</title>
<path fill="none" stroke="midnightblue" d="M363.856,-179.444C383.266,-170.636 413.73,-156.812 435.965,-146.722"/>
<polygon fill="midnightblue" stroke="midnightblue" points="437.572,-149.836 445.232,-142.516 434.68,-143.462 437.572,-149.836"/>
</g>
<!-- Node12 -->
<g id="node12" class="node"><title>Node12</title>
<polygon fill="none" stroke="#bfbfbf" points="0,-62 0,-81 54,-81 54,-62 0,-62"/>
<text text-anchor="middle" x="27" y="-69" font-family="Helvetica,sans-Serif" font-size="10.00">iostream</text>
</g>
<!-- Node11&#45;&gt;Node12 -->
<g id="edge11" class="edge"><title>Node11&#45;&gt;Node12</title>
<path fill="none" stroke="midnightblue" d="M115.243,-123.475C98.3393,-113.711 70.417,-97.5807 50.5096,-86.0808"/>
<polygon fill="midnightblue" stroke="midnightblue" points="52.1398,-82.9805 41.73,-81.0091 48.6383,-89.0419 52.1398,-82.9805"/>
</g>
<!-- Node13 -->
<g id="node13" class="node"><title>Node13</title>
<polygon fill="none" stroke="#bfbfbf" points="206.5,-62 206.5,-81 241.5,-81 241.5,-62 206.5,-62"/>
<text text-anchor="middle" x="224" y="-69" font-family="Helvetica,sans-Serif" font-size="10.00">map</text>
</g>
<!-- Node11&#45;&gt;Node13 -->
<g id="edge12" class="edge"><title>Node11&#45;&gt;Node13</title>
<path fill="none" stroke="midnightblue" d="M143.468,-123.475C158.685,-113.843 183.687,-98.0175 201.801,-86.5517"/>
<polygon fill="midnightblue" stroke="midnightblue" points="203.979,-89.3149 210.557,-81.0091 200.236,-83.4002 203.979,-89.3149"/>
</g>
<!-- Node14 -->
<g id="node14" class="node"><title>Node14</title>
<polygon fill="none" stroke="#bfbfbf" points="302.5,-0.5 302.5,-19.5 361.5,-19.5 361.5,-0.5 302.5,-0.5"/>
<text text-anchor="middle" x="332" y="-7.5" font-family="Helvetica,sans-Serif" font-size="10.00">TObject.h</text>
</g>
<!-- Node11&#45;&gt;Node14 -->
<g id="edge13" class="edge"><title>Node11&#45;&gt;Node14</title>
<path fill="none" stroke="midnightblue" d="M162.894,-123.439C187.936,-116.05 222.643,-103.89 250,-87 276.723,-70.5018 302.422,-44.4999 317.717,-27.5975"/>
<polygon fill="midnightblue" stroke="midnightblue" points="320.711,-29.495 324.717,-19.6866 315.469,-24.8562 320.711,-29.495"/>
</g>
<!-- Node15 -->
<g id="node15" class="node"><title>Node15</title>
<polygon fill="none" stroke="#bfbfbf" points="72,-62 72,-81 188,-81 188,-62 72,-62"/>
<text text-anchor="middle" x="130" y="-69" font-family="Helvetica,sans-Serif" font-size="10.00">Common/Exceptions.h</text>
</g>
<!-- Node11&#45;&gt;Node15 -->
<g id="edge14" class="edge"><title>Node11&#45;&gt;Node15</title>
<path fill="none" stroke="midnightblue" d="M130,-123.475C130,-115.08 130,-101.981 130,-91.1631"/>
<polygon fill="midnightblue" stroke="midnightblue" points="133.5,-91.0091 130,-81.0091 126.5,-91.0091 133.5,-91.0091"/>
</g>
<!-- Node11&#45;&gt;Node16 -->
<g id="edge15" class="edge"><title>Node11&#45;&gt;Node16</title>
<path fill="none" stroke="midnightblue" d="M173.269,-123.475C227.428,-112.805 320.166,-94.5335 378.661,-83.0089"/>
<polygon fill="midnightblue" stroke="midnightblue" points="379.676,-86.3762 388.811,-81.0091 378.323,-79.5082 379.676,-86.3762"/>
</g>
<!-- Node16&#45;&gt;Node14 -->
<g id="edge16" class="edge"><title>Node16&#45;&gt;Node14</title>
<path fill="none" stroke="midnightblue" d="M417.672,-61.9751C401.336,-52.2548 374.398,-36.2266 355.088,-24.7372"/>
<polygon fill="midnightblue" stroke="midnightblue" points="356.685,-21.6146 346.301,-19.5091 353.105,-27.6303 356.685,-21.6146"/>
</g>
<!-- Node17 -->
<g id="node17" class="node"><title>Node17</title>
<polygon fill="none" stroke="#bfbfbf" points="406,-0.5 406,-19.5 458,-19.5 458,-0.5 406,-0.5"/>
<text text-anchor="middle" x="432" y="-7.5" font-family="Helvetica,sans-Serif" font-size="10.00">ostream</text>
</g>
<!-- Node16&#45;&gt;Node17 -->
<g id="edge17" class="edge"><title>Node16&#45;&gt;Node17</title>
<path fill="none" stroke="midnightblue" d="M432,-61.9751C432,-53.5803 432,-40.4806 432,-29.6631"/>
<polygon fill="midnightblue" stroke="midnightblue" points="435.5,-29.5091 432,-19.5091 428.5,-29.5091 435.5,-29.5091"/>
</g>
<!-- Node16&#45;&gt;Node18 -->
<g id="edge18" class="edge"><title>Node16&#45;&gt;Node18</title>
<path fill="none" stroke="midnightblue" d="M458.506,-61.9751C492.333,-51.0954 550.731,-32.3136 586.41,-20.8384"/>
<polygon fill="midnightblue" stroke="midnightblue" points="587.818,-24.0621 596.266,-17.6684 585.675,-17.3983 587.818,-24.0621"/>
</g>
<!-- Node19&#45;&gt;Node8 -->
<g id="edge22" class="edge"><title>Node19&#45;&gt;Node8</title>
<path fill="none" stroke="midnightblue" d="M698.877,-123.475C704.953,-115.944 714.083,-104.626 722.199,-94.5663"/>
<polygon fill="midnightblue" stroke="midnightblue" points="725.133,-96.5037 728.687,-86.523 719.684,-92.1085 725.133,-96.5037"/>
</g>
<!-- Node19&#45;&gt;Node18 -->
<g id="edge21" class="edge"><title>Node19&#45;&gt;Node18</title>
<path fill="none" stroke="midnightblue" d="M686.368,-123.419C680.471,-114.398 670.977,-99.7699 663,-87 650.667,-67.2564 636.886,-44.3748 627.652,-28.9188"/>
<polygon fill="midnightblue" stroke="midnightblue" points="630.428,-26.74 622.301,-19.942 624.415,-30.3239 630.428,-26.74"/>
</g>
<!-- Node20&#45;&gt;Node4 -->
<g id="edge26" class="edge"><title>Node20&#45;&gt;Node4</title>
<path fill="none" stroke="midnightblue" d="M1097.63,-123.475C1119.44,-113.49 1155.8,-96.8476 1181.02,-85.3075"/>
<polygon fill="midnightblue" stroke="midnightblue" points="1182.77,-88.3534 1190.41,-81.0091 1179.86,-81.9884 1182.77,-88.3534"/>
</g>
<!-- Node20&#45;&gt;Node18 -->
<g id="edge27" class="edge"><title>Node20&#45;&gt;Node18</title>
<path fill="none" stroke="midnightblue" d="M995.298,-123.675C952.818,-117.308 901.203,-106.208 858,-87 836.8,-77.5745 837.097,-65.653 816,-56 759.822,-30.2959 687.822,-18.7285 647.635,-13.9663"/>
<polygon fill="midnightblue" stroke="midnightblue" points="647.986,-10.4837 637.658,-12.8474 647.205,-17.4401 647.986,-10.4837"/>
</g>
<!-- Node21 -->
<g id="node21" class="node"><title>Node21</title>
<polygon fill="none" stroke="#bfbfbf" points="979,-62 979,-81 1025,-81 1025,-62 979,-62"/>
<text text-anchor="middle" x="1002" y="-69" font-family="Helvetica,sans-Serif" font-size="10.00">atomic</text>
</g>
<!-- Node20&#45;&gt;Node21 -->
<g id="edge24" class="edge"><title>Node20&#45;&gt;Node21</title>
<path fill="none" stroke="midnightblue" d="M1067.97,-123.475C1055.73,-114.02 1035.77,-98.5961 1021.01,-87.1871"/>
<polygon fill="midnightblue" stroke="midnightblue" points="1023.06,-84.3541 1013.01,-81.0091 1018.78,-89.8931 1023.06,-84.3541"/>
</g>
<!-- Node22 -->
<g id="node22" class="node"><title>Node22</title>
<polygon fill="none" stroke="#bfbfbf" points="1043.5,-62 1043.5,-81 1102.5,-81 1102.5,-62 1043.5,-62"/>
<text text-anchor="middle" x="1073" y="-69" font-family="Helvetica,sans-Serif" font-size="10.00">curl/curl.h</text>
</g>
<!-- Node20&#45;&gt;Node22 -->
<g id="edge25" class="edge"><title>Node20&#45;&gt;Node22</title>
<path fill="none" stroke="midnightblue" d="M1078.14,-123.475C1077.29,-115.08 1075.97,-101.981 1074.88,-91.1631"/>
<polygon fill="midnightblue" stroke="midnightblue" points="1078.34,-90.6074 1073.86,-81.0091 1071.38,-91.3098 1078.34,-90.6074"/>
</g>
<!-- Node23 -->
<g id="node23" class="node"><title>Node23</title>
<polygon fill="none" stroke="#bfbfbf" points="1121,-62 1121,-81 1165,-81 1165,-62 1121,-62"/>
<text text-anchor="middle" x="1143" y="-69" font-family="Helvetica,sans-Serif" font-size="10.00">thread</text>
</g>
<!-- Node20&#45;&gt;Node23 -->
<g id="edge28" class="edge"><title>Node20&#45;&gt;Node23</title>
<path fill="none" stroke="midnightblue" d="M1088.17,-123.475C1098.15,-114.197 1114.31,-99.1706 1126.51,-87.831"/>
<polygon fill="midnightblue" stroke="midnightblue" points="1128.91,-90.3814 1133.85,-81.0091 1124.14,-85.2547 1128.91,-90.3814"/>
</g>
<!-- Node24 -->
<g id="node24" class="node"><title>Node24</title>
<polygon fill="none" stroke="#bfbfbf" points="867,-56.5 867,-86.5 961,-86.5 961,-56.5 867,-56.5"/>
<text text-anchor="start" x="875" y="-74.5" font-family="Helvetica,sans-Serif" font-size="10.00">boost/asio/ip/host</text>
<text text-anchor="middle" x="914" y="-63.5" font-family="Helvetica,sans-Serif" font-size="10.00">_name.hpp</text>
</g>
<!-- Node20&#45;&gt;Node24 -->
<g id="edge29" class="edge"><title>Node20&#45;&gt;Node24</title>
<path fill="none" stroke="midnightblue" d="M1055.36,-123.475C1031.24,-114.776 993.107,-101.026 962.524,-89.9981"/>
<polygon fill="midnightblue" stroke="midnightblue" points="963.482,-86.6228 952.887,-86.523 961.107,-93.2078 963.482,-86.6228"/>
</g>
<!-- Node30&#45;&gt;Node3 -->
<g id="edge37" class="edge"><title>Node30&#45;&gt;Node3</title>
<path fill="none" stroke="midnightblue" d="M584.175,-291.324C596.847,-282.979 616.233,-270.212 631.206,-260.352"/>
<polygon fill="midnightblue" stroke="midnightblue" points="633.431,-263.078 639.858,-254.655 629.581,-257.231 633.431,-263.078"/>
</g>
<!-- Node30&#45;&gt;Node12 -->
<g id="edge39" class="edge"><title>Node30&#45;&gt;Node12</title>
<path fill="none" stroke="midnightblue" d="M496.086,-299.642C382.101,-294.881 165.658,-268.594 45,-143 31.7606,-129.219 27.8828,-107.106 26.9256,-91.321"/>
<polygon fill="midnightblue" stroke="midnightblue" points="30.4199,-91.0576 26.6528,-81.1551 23.4225,-91.2455 30.4199,-91.0576"/>
</g>
<!-- Node31 -->
<g id="node31" class="node"><title>Node31</title>
<polygon fill="none" stroke="#bfbfbf" points="430,-235.5 430,-254.5 560,-254.5 560,-235.5 430,-235.5"/>
<text text-anchor="middle" x="495" y="-242.5" font-family="Helvetica,sans-Serif" font-size="10.00">InfoLogger/InfoLogger.hxx</text>
</g>
<!-- Node30&#45;&gt;Node31 -->
<g id="edge38" class="edge"><title>Node30&#45;&gt;Node31</title>
<path fill="none" stroke="midnightblue" d="M558.789,-291.324C547.224,-283.107 529.625,-270.602 515.839,-260.807"/>
<polygon fill="midnightblue" stroke="midnightblue" points="517.612,-257.773 507.433,-254.834 513.557,-263.479 517.612,-257.773"/>
</g>
</g>
</svg>
        <g id="navigator" transform="translate(0 0)" fill="#404254">
                <rect fill="#f2f5e9" fill-opacity="0.5" stroke="#606060" stroke-width=".5" x="0" y="0" width="60" height="60"/>
                <use id="zoomplus" xlink:href="#zoomPlus" x="17" y="9" onmousedown="handleZoom(evt,'in')"/>
                <use id="zoomminus" xlink:href="#zoomMin" x="42" y="9" onmousedown="handleZoom(evt,'out')"/>
                <use id="reset" xlink:href="#resetDef" x="30" y="36" onmousedown="handleReset()"/>
                <g id="arrowUp" xlink:href="#dirArrow" transform="translate(30 24)" onmousedown="handlePan(0,-1)">
                  <use xlink:href="#rim" fill="#404040">
                        <set attributeName="fill" to="#808080" begin="arrowUp.mouseover" end="arrowUp.mouseout"/>
                  </use>
                  <path fill="none" stroke="white" stroke-width="1.5" d="M0,-3.0v7 M-2.5,-0.5L0,-3.0L2.5,-0.5"/>
                </g>
                <g id="arrowRight" xlink:href="#dirArrow" transform="rotate(90) translate(36 -43)" onmousedown="handlePan(1,0)">
                  <use xlink:href="#rim" fill="#404040">
                        <set attributeName="fill" to="#808080" begin="arrowRight.mouseover" end="arrowRight.mouseout"/>
                  </use>
                  <path fill="none" stroke="white" stroke-width="1.5" d="M0,-3.0v7 M-2.5,-0.5L0,-3.0L2.5,-0.5"/>
                </g>
                <g id="arrowDown" xlink:href="#dirArrow" transform="rotate(180) translate(-30 -48)" onmousedown="handlePan(0,1)">
                  <use xlink:href="#rim" fill="#404040">
                        <set attributeName="fill" to="#808080" begin="arrowDown.mouseover" end="arrowDown.mouseout"/>
                  </use>
                  <path fill="none" stroke="white" stroke-width="1.5" d="M0,-3.0v7 M-2.5,-0.5L0,-3.0L2.5,-0.5"/>
                </g>
                <g id="arrowLeft" xlink:href="#dirArrow" transform="rotate(270) translate(-36 17)" onmousedown="handlePan(-1,0)">
                  <use xlink:href="#rim" fill="#404040">
                        <set attributeName="fill" to="#808080" begin="arrowLeft.mouseover" end="arrowLeft.mouseout"/>
                  </use>
                  <path fill="none" stroke="white" stroke-width="1.5" d="M0,-3.0v7 M-2.5,-0.5L0,-3.0L2.5,-0.5"/>
                </g>
        </g>
        <svg viewBox="0 0 15 15" width="100%" height="30px" preserveAspectRatio="xMaxYMin meet">
         <g id="arrow_out" transform="scale(0.3 0.3)">
          <a xlink:href="DaqTask_8cxx__incl_org.svg" target="_base">
           <rect id="button" ry="5" rx="5" y="6" x="6" height="38" width="38"
                fill="#f2f5e9" fill-opacity="0.5" stroke="#606060" stroke-width="1.0"/>
           <path id="arrow"
             d="M 11.500037,31.436501 C 11.940474,20.09759 22.043105,11.32322 32.158766,21.979434 L 37.068811,17.246167 C 37.068811,17.246167 37.088388,32 37.088388,32 L 22.160133,31.978069 C 22.160133,31.978069 26.997745,27.140456 26.997745,27.140456 C 18.528582,18.264221 13.291696,25.230495 11.500037,31.436501 z"
             style="fill:#404040;"/>
          </a>
         </g>
        </svg>
</svg>
