<?xml version="1.0" encoding="UTF-8" standalone="no"?>
<!DOCTYPE svg PUBLIC "-//W3C//DTD SVG 1.1//EN"
 "http://www.w3.org/Graphics/SVG/1.1/DTD/svg11.dtd">
<!-- Generated by graphviz version 2.38.0 (20140413.2041)
 -->
<!-- Title: Framework/include/QualityControl/DatabaseInterface.h Pages: 1 -->
<svg width="3003pt" height="240pt"
 viewBox="0.00 0.00 3003.00 240.00" xmlns="http://www.w3.org/2000/svg" xmlns:xlink="http://www.w3.org/1999/xlink">
<g id="graph0" class="graph" transform="scale(1 1) rotate(0) translate(4 236)">
<title>Framework/include/QualityControl/DatabaseInterface.h</title>
<!-- Node1 -->
<g id="node1" class="node"><title>Node1</title>
<polygon fill="#bfbfbf" stroke="black" points="1375.5,-201.5 1375.5,-231.5 1515.5,-231.5 1515.5,-201.5 1375.5,-201.5"/>
<text text-anchor="start" x="1383.5" y="-219.5" font-family="Helvetica,sans-Serif" font-size="10.00">Framework/include/Quality</text>
<text text-anchor="middle" x="1445.5" y="-208.5" font-family="Helvetica,sans-Serif" font-size="10.00">Control/DatabaseInterface.h</text>
</g>
<!-- Node2 -->
<g id="node2" class="node"><title>Node2</title>
<g id="a_node2"><a xlink:href="CcdbDatabase_8h.html" target="_top" xlink:title="Framework/include/Quality\lControl/CcdbDatabase.h">
<polygon fill="none" stroke="black" points="500,-134.5 500,-164.5 633,-164.5 633,-134.5 500,-134.5"/>
<text text-anchor="start" x="508" y="-152.5" font-family="Helvetica,sans-Serif" font-size="10.00">Framework/include/Quality</text>
<text text-anchor="middle" x="566.5" y="-141.5" font-family="Helvetica,sans-Serif" font-size="10.00">Control/CcdbDatabase.h</text>
</a>
</g>
</g>
<!-- Node1&#45;&gt;Node2 -->
<g id="edge1" class="edge"><title>Node1&#45;&gt;Node2</title>
<path fill="none" stroke="midnightblue" d="M1365.43,-209.579C1193.59,-196.872 792.183,-167.189 633.125,-155.427"/>
<polygon fill="midnightblue" stroke="midnightblue" points="1365.19,-213.071 1375.42,-210.318 1365.71,-206.09 1365.19,-213.071"/>
</g>
<!-- Node11 -->
<g id="node11" class="node"><title>Node11</title>
<g id="a_node11"><a xlink:href="Checker_8h.html" target="_top" xlink:title="Framework/include/Quality\lControl/Checker.h">
<polygon fill="none" stroke="black" points="1860,-134.5 1860,-164.5 1993,-164.5 1993,-134.5 1860,-134.5"/>
<text text-anchor="start" x="1868" y="-152.5" font-family="Helvetica,sans-Serif" font-size="10.00">Framework/include/Quality</text>
<text text-anchor="middle" x="1926.5" y="-141.5" font-family="Helvetica,sans-Serif" font-size="10.00">Control/Checker.h</text>
</a>
</g>
</g>
<!-- Node1&#45;&gt;Node11 -->
<g id="edge11" class="edge"><title>Node1&#45;&gt;Node11</title>
<path fill="none" stroke="midnightblue" d="M1525.68,-204.664C1619.24,-192.022 1772.23,-171.347 1859.65,-159.533"/>
<polygon fill="midnightblue" stroke="midnightblue" points="1525.14,-201.206 1515.7,-206.014 1526.08,-208.143 1525.14,-201.206"/>
</g>
<!-- Node21 -->
<g id="node21" class="node"><title>Node21</title>
<g id="a_node21"><a xlink:href="DatabaseFactory_8h.html" target="_top" xlink:title="Framework/include/Quality\lControl/DatabaseFactory.h">
<polygon fill="none" stroke="black" points="985.5,-134.5 985.5,-164.5 1119.5,-164.5 1119.5,-134.5 985.5,-134.5"/>
<text text-anchor="start" x="993.5" y="-152.5" font-family="Helvetica,sans-Serif" font-size="10.00">Framework/include/Quality</text>
<text text-anchor="middle" x="1052.5" y="-141.5" font-family="Helvetica,sans-Serif" font-size="10.00">Control/DatabaseFactory.h</text>
</a>
</g>
</g>
<!-- Node1&#45;&gt;Node21 -->
<g id="edge21" class="edge"><title>Node1&#45;&gt;Node21</title>
<path fill="none" stroke="midnightblue" d="M1365.25,-202.227C1292.84,-190.25 1187.54,-172.835 1119.53,-161.586"/>
<polygon fill="midnightblue" stroke="midnightblue" points="1364.8,-205.701 1375.24,-203.879 1365.94,-198.794 1364.8,-205.701"/>
</g>
<!-- Node22 -->
<g id="node22" class="node"><title>Node22</title>
<g id="a_node22"><a xlink:href="MySqlDatabase_8h.html" target="_top" xlink:title="Framework/include/Quality\lControl/MySqlDatabase.h">
<polygon fill="none" stroke="black" points="2470,-134.5 2470,-164.5 2603,-164.5 2603,-134.5 2470,-134.5"/>
<text text-anchor="start" x="2478" y="-152.5" font-family="Helvetica,sans-Serif" font-size="10.00">Framework/include/Quality</text>
<text text-anchor="middle" x="2536.5" y="-141.5" font-family="Helvetica,sans-Serif" font-size="10.00">Control/MySqlDatabase.h</text>
</a>
</g>
</g>
<!-- Node1&#45;&gt;Node22 -->
<g id="edge28" class="edge"><title>Node1&#45;&gt;Node22</title>
<path fill="none" stroke="midnightblue" d="M1526,-210.704C1732.65,-198.392 2279,-165.841 2469.69,-154.48"/>
<polygon fill="midnightblue" stroke="midnightblue" points="1525.6,-207.222 1515.82,-211.31 1526.01,-214.209 1525.6,-207.222"/>
</g>
<!-- Node3 -->
<g id="node3" class="node"><title>Node3</title>
<g id="a_node3"><a xlink:href="CcdbDatabase_8cxx.html" target="_top" xlink:title="Framework/src/CcdbDatabase.cxx">
<polygon fill="none" stroke="black" points="0,-73 0,-92 169,-92 169,-73 0,-73"/>
<text text-anchor="middle" x="84.5" y="-80" font-family="Helvetica,sans-Serif" font-size="10.00">Framework/src/CcdbDatabase.cxx</text>
</a>
</g>
</g>
<!-- Node2&#45;&gt;Node3 -->
<g id="edge2" class="edge"><title>Node2&#45;&gt;Node3</title>
<path fill="none" stroke="midnightblue" d="M489.574,-139.031C411.238,-129.262 286.308,-113.329 178.5,-98 165.422,-96.1404 151.337,-94.0271 138.153,-92.0002"/>
<polygon fill="midnightblue" stroke="midnightblue" points="489.482,-142.547 499.838,-140.31 490.347,-135.601 489.482,-142.547"/>
</g>
<!-- Node4 -->
<g id="node4" class="node"><title>Node4</title>
<g id="a_node4"><a xlink:href="DatabaseFactory_8cxx.html" target="_top" xlink:title="Framework/src/DatabaseFactory.cxx">
<polygon fill="none" stroke="black" points="376,-73 376,-92 555,-92 555,-73 376,-73"/>
<text text-anchor="middle" x="465.5" y="-80" font-family="Helvetica,sans-Serif" font-size="10.00">Framework/src/DatabaseFactory.cxx</text>
</a>
</g>
</g>
<!-- Node2&#45;&gt;Node4 -->
<g id="edge3" class="edge"><title>Node2&#45;&gt;Node4</title>
<path fill="none" stroke="midnightblue" d="M536.161,-128.975C517.009,-116.649 493.229,-101.345 478.719,-92.007"/>
<polygon fill="midnightblue" stroke="midnightblue" points="534.281,-131.927 544.585,-134.396 538.07,-126.041 534.281,-131.927"/>
</g>
<!-- Node5 -->
<g id="node5" class="node"><title>Node5</title>
<g id="a_node5"><a xlink:href="RepositoryBenchmark_8h.html" target="_top" xlink:title="Framework/src/Repository\lBenchmark.h">
<polygon fill="none" stroke="black" points="187.5,-67.5 187.5,-97.5 319.5,-97.5 319.5,-67.5 187.5,-67.5"/>
<text text-anchor="start" x="195.5" y="-85.5" font-family="Helvetica,sans-Serif" font-size="10.00">Framework/src/Repository</text>
<text text-anchor="middle" x="253.5" y="-74.5" font-family="Helvetica,sans-Serif" font-size="10.00">Benchmark.h</text>
</a>
</g>
</g>
<!-- Node2&#45;&gt;Node5 -->
<g id="edge4" class="edge"><title>Node2&#45;&gt;Node5</title>
<path fill="none" stroke="midnightblue" d="M489.864,-132.585C437.71,-121.755 369.39,-107.567 319.622,-97.2314"/>
<polygon fill="midnightblue" stroke="midnightblue" points="489.235,-136.029 499.738,-134.636 490.658,-129.175 489.235,-136.029"/>
</g>
<!-- Node6 -->
<g id="node6" class="node"><title>Node6</title>
<g id="a_node6"><a xlink:href="RepositoryBenchmark_8cxx.html" target="_top" xlink:title="Framework/src/Repository\lBenchmark.cxx">
<polygon fill="none" stroke="black" points="312.5,-0.5 312.5,-30.5 444.5,-30.5 444.5,-0.5 312.5,-0.5"/>
<text text-anchor="start" x="320.5" y="-18.5" font-family="Helvetica,sans-Serif" font-size="10.00">Framework/src/Repository</text>
<text text-anchor="middle" x="378.5" y="-7.5" font-family="Helvetica,sans-Serif" font-size="10.00">Benchmark.cxx</text>
</a>
</g>
</g>
<!-- Node2&#45;&gt;Node6 -->
<g id="edge7" class="edge"><title>Node2&#45;&gt;Node6</title>
<path fill="none" stroke="midnightblue" d="M489.865,-138.949C440.161,-131.001 381.889,-117.758 366.5,-98 351.384,-78.593 361.997,-48.4737 370.59,-30.7975"/>
<polygon fill="midnightblue" stroke="midnightblue" points="489.581,-142.447 499.999,-140.517 490.652,-135.529 489.581,-142.447"/>
</g>
<!-- Node8 -->
<g id="node8" class="node"><title>Node8</title>
<g id="a_node8"><a xlink:href="testCcdbDatabase_8cxx.html" target="_top" xlink:title="Framework/test/testCcdbDatabase.cxx">
<polygon fill="none" stroke="black" points="573.5,-73 573.5,-92 761.5,-92 761.5,-73 573.5,-73"/>
<text text-anchor="middle" x="667.5" y="-80" font-family="Helvetica,sans-Serif" font-size="10.00">Framework/test/testCcdbDatabase.cxx</text>
</a>
</g>
</g>
<!-- Node2&#45;&gt;Node8 -->
<g id="edge8" class="edge"><title>Node2&#45;&gt;Node8</title>
<path fill="none" stroke="midnightblue" d="M596.839,-128.975C615.991,-116.649 639.771,-101.345 654.281,-92.007"/>
<polygon fill="midnightblue" stroke="midnightblue" points="594.93,-126.041 588.415,-134.396 598.719,-131.927 594.93,-126.041"/>
</g>
<!-- Node9 -->
<g id="node9" class="node"><title>Node9</title>
<polygon fill="none" stroke="#bfbfbf" points="779.5,-67.5 779.5,-97.5 949.5,-97.5 949.5,-67.5 779.5,-67.5"/>
<text text-anchor="start" x="787.5" y="-85.5" font-family="Helvetica,sans-Serif" font-size="10.00">Framework/test/testCcdbDatabase</text>
<text text-anchor="middle" x="864.5" y="-74.5" font-family="Helvetica,sans-Serif" font-size="10.00">Extra.cxx</text>
</g>
<!-- Node2&#45;&gt;Node9 -->
<g id="edge9" class="edge"><title>Node2&#45;&gt;Node9</title>
<path fill="none" stroke="midnightblue" d="M640.699,-132.316C689.675,-121.633 753.209,-107.775 800.064,-97.5549"/>
<polygon fill="midnightblue" stroke="midnightblue" points="639.819,-128.925 630.795,-134.476 641.311,-135.764 639.819,-128.925"/>
</g>
<!-- Node10 -->
<g id="node10" class="node"><title>Node10</title>
<g id="a_node10"><a xlink:href="testDbFactory_8cxx.html" target="_top" xlink:title="Framework/test/testDbFactory.cxx">
<polygon fill="none" stroke="black" points="968,-73 968,-92 1137,-92 1137,-73 968,-73"/>
<text text-anchor="middle" x="1052.5" y="-80" font-family="Helvetica,sans-Serif" font-size="10.00">Framework/test/testDbFactory.cxx</text>
</a>
</g>
</g>
<!-- Node2&#45;&gt;Node10 -->
<g id="edge10" class="edge"><title>Node2&#45;&gt;Node10</title>
<path fill="none" stroke="midnightblue" d="M643.515,-139.154C722.615,-129.42 849.264,-113.459 958.5,-98 971.58,-96.149 985.664,-94.0388 998.848,-92.0123"/>
<polygon fill="midnightblue" stroke="midnightblue" points="642.652,-135.733 633.154,-140.427 643.506,-142.681 642.652,-135.733"/>
</g>
<!-- Node5&#45;&gt;Node6 -->
<g id="edge5" class="edge"><title>Node5&#45;&gt;Node6</title>
<path fill="none" stroke="midnightblue" d="M289.626,-62.7143C309.34,-52.4631 333.341,-39.9826 351.43,-30.5765"/>
<polygon fill="midnightblue" stroke="midnightblue" points="287.881,-59.6771 280.623,-67.396 291.11,-65.8877 287.881,-59.6771"/>
</g>
<!-- Node7 -->
<g id="node7" class="node"><title>Node7</title>
<g id="a_node7"><a xlink:href="runRepositoryBenchmark_8cxx.html" target="_top" xlink:title="Framework/src/runRepository\lBenchmark.cxx">
<polygon fill="none" stroke="black" points="148.5,-0.5 148.5,-30.5 294.5,-30.5 294.5,-0.5 148.5,-0.5"/>
<text text-anchor="start" x="156.5" y="-18.5" font-family="Helvetica,sans-Serif" font-size="10.00">Framework/src/runRepository</text>
<text text-anchor="middle" x="221.5" y="-7.5" font-family="Helvetica,sans-Serif" font-size="10.00">Benchmark.cxx</text>
</a>
</g>
</g>
<!-- Node5&#45;&gt;Node7 -->
<g id="edge6" class="edge"><title>Node5&#45;&gt;Node7</title>
<path fill="none" stroke="midnightblue" d="M242.07,-58.2835C237.511,-49.0223 232.411,-38.6632 228.43,-30.5765"/>
<polygon fill="midnightblue" stroke="midnightblue" points="238.999,-59.9702 246.556,-67.396 245.28,-56.8783 238.999,-59.9702"/>
</g>
<!-- Node12 -->
<g id="node12" class="node"><title>Node12</title>
<g id="a_node12"><a xlink:href="Checker_8cxx.html" target="_top" xlink:title="Framework/src/Checker.cxx">
<polygon fill="none" stroke="black" points="1192.5,-73 1192.5,-92 1332.5,-92 1332.5,-73 1192.5,-73"/>
<text text-anchor="middle" x="1262.5" y="-80" font-family="Helvetica,sans-Serif" font-size="10.00">Framework/src/Checker.cxx</text>
</a>
</g>
</g>
<!-- Node11&#45;&gt;Node12 -->
<g id="edge12" class="edge"><title>Node11&#45;&gt;Node12</title>
<path fill="none" stroke="midnightblue" d="M1849.4,-144.195C1737.25,-137.402 1522.75,-122.4 1341.5,-98 1329.62,-96.4 1316.8,-94.2386 1305.02,-92.0736"/>
<polygon fill="midnightblue" stroke="midnightblue" points="1849.4,-147.702 1859.6,-144.808 1849.82,-140.715 1849.4,-147.702"/>
</g>
<!-- Node13 -->
<g id="node13" class="node"><title>Node13</title>
<g id="a_node13"><a xlink:href="CheckerFactory_8cxx.html" target="_top" xlink:title="Framework/src/CheckerFactory.cxx">
<polygon fill="none" stroke="black" points="1752,-73 1752,-92 1925,-92 1925,-73 1752,-73"/>
<text text-anchor="middle" x="1838.5" y="-80" font-family="Helvetica,sans-Serif" font-size="10.00">Framework/src/CheckerFactory.cxx</text>
</a>
</g>
</g>
<!-- Node11&#45;&gt;Node13 -->
<g id="edge13" class="edge"><title>Node11&#45;&gt;Node13</title>
<path fill="none" stroke="midnightblue" d="M1899.16,-128.306C1882.64,-116.1 1862.43,-101.177 1850.02,-92.007"/>
<polygon fill="midnightblue" stroke="midnightblue" points="1897.28,-131.27 1907.41,-134.396 1901.44,-125.639 1897.28,-131.27"/>
</g>
<!-- Node14 -->
<g id="node14" class="node"><title>Node14</title>
<g id="a_node14"><a xlink:href="runBasic_8cxx.html" target="_top" xlink:title="This is an executable showing QC Task&#39;s usage in Data Processing Layer. ">
<polygon fill="none" stroke="black" points="1943.5,-73 1943.5,-92 2085.5,-92 2085.5,-73 1943.5,-73"/>
<text text-anchor="middle" x="2014.5" y="-80" font-family="Helvetica,sans-Serif" font-size="10.00">Framework/src/runBasic.cxx</text>
</a>
</g>
</g>
<!-- Node11&#45;&gt;Node14 -->
<g id="edge14" class="edge"><title>Node11&#45;&gt;Node14</title>
<path fill="none" stroke="midnightblue" d="M1953.84,-128.306C1970.36,-116.1 1990.57,-101.177 2002.98,-92.007"/>
<polygon fill="midnightblue" stroke="midnightblue" points="1951.56,-125.639 1945.59,-134.396 1955.72,-131.27 1951.56,-125.639"/>
</g>
<!-- Node15 -->
<g id="node15" class="node"><title>Node15</title>
<g id="a_node15"><a xlink:href="runMergerTest_8cxx.html" target="_top" xlink:title="This is DPL workflow to see HistoMerger in action. ">
<polygon fill="none" stroke="black" points="2104,-73 2104,-92 2271,-92 2271,-73 2104,-73"/>
<text text-anchor="middle" x="2187.5" y="-80" font-family="Helvetica,sans-Serif" font-size="10.00">Framework/src/runMergerTest.cxx</text>
</a>
</g>
</g>
<!-- Node11&#45;&gt;Node15 -->
<g id="edge15" class="edge"><title>Node11&#45;&gt;Node15</title>
<path fill="none" stroke="midnightblue" d="M1992.79,-131.99C2043.94,-119.252 2112.62,-102.148 2153.25,-92.0287"/>
<polygon fill="midnightblue" stroke="midnightblue" points="1991.67,-128.663 1982.81,-134.476 1993.36,-135.456 1991.67,-128.663"/>
</g>
<!-- Node16 -->
<g id="node16" class="node"><title>Node16</title>
<g id="a_node16"><a xlink:href="runReadout_8cxx.html" target="_top" xlink:title="This is an executable showing QC Task&#39;s usage in Data Processing Layer with Readout as external data ...">
<polygon fill="none" stroke="black" points="2289.5,-73 2289.5,-92 2443.5,-92 2443.5,-73 2289.5,-73"/>
<text text-anchor="middle" x="2366.5" y="-80" font-family="Helvetica,sans-Serif" font-size="10.00">Framework/src/runReadout.cxx</text>
</a>
</g>
</g>
<!-- Node11&#45;&gt;Node16 -->
<g id="edge16" class="edge"><title>Node11&#45;&gt;Node16</title>
<path fill="none" stroke="midnightblue" d="M2003.53,-138.001C2075.1,-128.123 2184.6,-112.695 2279.5,-98 2291.45,-96.149 2304.32,-94.0595 2316.39,-92.0551"/>
<polygon fill="midnightblue" stroke="midnightblue" points="2002.68,-134.584 1993.26,-139.417 2003.64,-141.519 2002.68,-134.584"/>
</g>
<!-- Node17 -->
<g id="node17" class="node"><title>Node17</title>
<g id="a_node17"><a xlink:href="testChecker_8cxx.html" target="_top" xlink:title="Framework/test/testChecker.cxx">
<polygon fill="none" stroke="black" points="2461.5,-73 2461.5,-92 2621.5,-92 2621.5,-73 2461.5,-73"/>
<text text-anchor="middle" x="2541.5" y="-80" font-family="Helvetica,sans-Serif" font-size="10.00">Framework/test/testChecker.cxx</text>
</a>
</g>
</g>
<!-- Node11&#45;&gt;Node17 -->
<g id="edge17" class="edge"><title>Node11&#45;&gt;Node17</title>
<path fill="none" stroke="midnightblue" d="M2003.35,-142.715C2105.97,-134.627 2293.29,-118.589 2452.5,-98 2465.54,-96.3134 2479.61,-94.1725 2492.62,-92.057"/>
<polygon fill="midnightblue" stroke="midnightblue" points="2002.78,-139.249 1993.08,-143.52 2003.33,-146.228 2002.78,-139.249"/>
</g>
<!-- Node18 -->
<g id="node18" class="node"><title>Node18</title>
<g id="a_node18"><a xlink:href="testWorkflow_8cxx.html" target="_top" xlink:title="Framework/test/testWorkflow.cxx">
<polygon fill="none" stroke="black" points="2639.5,-73 2639.5,-92 2803.5,-92 2803.5,-73 2639.5,-73"/>
<text text-anchor="middle" x="2721.5" y="-80" font-family="Helvetica,sans-Serif" font-size="10.00">Framework/test/testWorkflow.cxx</text>
</a>
</g>
</g>
<!-- Node11&#45;&gt;Node18 -->
<g id="edge18" class="edge"><title>Node11&#45;&gt;Node18</title>
<path fill="none" stroke="midnightblue" d="M2003.39,-145.163C2133.03,-139.048 2403.24,-124.207 2630.5,-98 2644.33,-96.4055 2659.27,-94.2202 2672.96,-92.0296"/>
<polygon fill="midnightblue" stroke="midnightblue" points="2002.99,-141.677 1993.17,-145.64 2003.32,-148.67 2002.99,-141.677"/>
</g>
<!-- Node19 -->
<g id="node19" class="node"><title>Node19</title>
<polygon fill="none" stroke="#bfbfbf" points="1350.5,-73 1350.5,-92 1568.5,-92 1568.5,-73 1350.5,-73"/>
<text text-anchor="middle" x="1459.5" y="-80" font-family="Helvetica,sans-Serif" font-size="10.00">Modules/EMCAL/src/runQCEMCALDigits.cxx</text>
</g>
<!-- Node11&#45;&gt;Node19 -->
<g id="edge19" class="edge"><title>Node11&#45;&gt;Node19</title>
<path fill="none" stroke="midnightblue" d="M1849.49,-137.782C1757.41,-124.965 1605.16,-103.774 1520.71,-92.0193"/>
<polygon fill="midnightblue" stroke="midnightblue" points="1849.2,-141.275 1859.59,-139.187 1850.17,-134.342 1849.2,-141.275"/>
</g>
<!-- Node20 -->
<g id="node20" class="node"><title>Node20</title>
<g id="a_node20"><a xlink:href="runTOF_8cxx.html" target="_top" xlink:title="This is an executable showing QC Task&#39;s usage in Data Processing Layer. ">
<polygon fill="none" stroke="black" points="1587,-73 1587,-92 1734,-92 1734,-73 1587,-73"/>
<text text-anchor="middle" x="1660.5" y="-80" font-family="Helvetica,sans-Serif" font-size="10.00">Modules/TOF/src/runTOF.cxx</text>
</a>
</g>
</g>
<!-- Node11&#45;&gt;Node20 -->
<g id="edge20" class="edge"><title>Node11&#45;&gt;Node20</title>
<path fill="none" stroke="midnightblue" d="M1859.26,-132.069C1807.1,-119.323 1736.9,-102.169 1695.4,-92.0287"/>
<polygon fill="midnightblue" stroke="midnightblue" points="1858.56,-135.502 1869.11,-134.476 1860.23,-128.702 1858.56,-135.502"/>
</g>
<!-- Node21&#45;&gt;Node4 -->
<g id="edge23" class="edge"><title>Node21&#45;&gt;Node4</title>
<path fill="none" stroke="midnightblue" d="M975.066,-141.507C878.725,-132.571 709.245,-116.081 564.5,-98 550.28,-96.2236 534.943,-94.0863 520.686,-92.0051"/>
<polygon fill="midnightblue" stroke="midnightblue" points="975.022,-145.017 985.301,-142.453 975.666,-138.047 975.022,-145.017"/>
</g>
<!-- Node21&#45;&gt;Node6 -->
<g id="edge24" class="edge"><title>Node21&#45;&gt;Node6</title>
<path fill="none" stroke="midnightblue" d="M1098.51,-130.213C1131.84,-114.417 1167.5,-90.4921 1145.5,-67 1098.1,-16.376 621.947,-14.6687 444.6,-15.8159"/>
<polygon fill="midnightblue" stroke="midnightblue" points="1096.87,-127.115 1089.22,-134.446 1099.77,-133.484 1096.87,-127.115"/>
</g>
<!-- Node21&#45;&gt;Node8 -->
<g id="edge25" class="edge"><title>Node21&#45;&gt;Node8</title>
<path fill="none" stroke="midnightblue" d="M975.357,-135.476C898.72,-122.537 783.436,-103.074 717.857,-92.0018"/>
<polygon fill="midnightblue" stroke="midnightblue" points="974.995,-138.964 985.438,-137.178 976.16,-132.062 974.995,-138.964"/>
</g>
<!-- Node21&#45;&gt;Node9 -->
<g id="edge26" class="edge"><title>Node21&#45;&gt;Node9</title>
<path fill="none" stroke="midnightblue" d="M1002.15,-131.092C971.801,-120.599 933.65,-107.408 905.214,-97.5765"/>
<polygon fill="midnightblue" stroke="midnightblue" points="1001.11,-134.436 1011.71,-134.396 1003.4,-127.82 1001.11,-134.436"/>
</g>
<!-- Node21&#45;&gt;Node10 -->
<g id="edge27" class="edge"><title>Node21&#45;&gt;Node10</title>
<path fill="none" stroke="midnightblue" d="M1052.5,-124.25C1052.5,-113.017 1052.5,-100.377 1052.5,-92.1945"/>
<polygon fill="midnightblue" stroke="midnightblue" points="1049,-124.396 1052.5,-134.396 1056,-124.396 1049,-124.396"/>
</g>
<!-- Node21&#45;&gt;Node12 -->
<g id="edge22" class="edge"><title>Node21&#45;&gt;Node12</title>
<path fill="none" stroke="midnightblue" d="M1107.39,-131.51C1148.37,-118.825 1202.66,-102.022 1234.95,-92.0287"/>
<polygon fill="midnightblue" stroke="midnightblue" points="1106.33,-128.176 1097.81,-134.476 1108.4,-134.863 1106.33,-128.176"/>
</g>
<!-- Node23 -->
<g id="node23" class="node"><title>Node23</title>
<g id="a_node23"><a xlink:href="MySqlDatabase_8cxx.html" target="_top" xlink:title="Framework/src/MySqlDatabase.cxx">
<polygon fill="none" stroke="black" points="2822,-73 2822,-92 2995,-92 2995,-73 2822,-73"/>
<text text-anchor="middle" x="2908.5" y="-80" font-family="Helvetica,sans-Serif" font-size="10.00">Framework/src/MySqlDatabase.cxx</text>
</a>
</g>
</g>
<!-- Node22&#45;&gt;Node23 -->
<g id="edge29" class="edge"><title>Node22&#45;&gt;Node23</title>
<path fill="none" stroke="midnightblue" d="M2613.2,-135.098C2687.21,-122.166 2796.99,-102.984 2859.76,-92.0169"/>
<polygon fill="midnightblue" stroke="midnightblue" points="2612.25,-131.71 2603.01,-136.879 2613.46,-138.606 2612.25,-131.71"/>
</g>
</g>
</svg>
