<?xml version="1.0" encoding="UTF-8" standalone="no"?>
<!DOCTYPE svg PUBLIC "-//W3C//DTD SVG 1.1//EN"
 "http://www.w3.org/Graphics/SVG/1.1/DTD/svg11.dtd">
<!-- Generated by graphviz version 2.38.0 (20140413.2041)
 -->
<!-- Title: Framework/src/DatabaseFactory.cxx Pages: 1 -->
<svg width="1505pt" height="375pt"
 viewBox="0.00 0.00 1504.50 375.00" xmlns="http://www.w3.org/2000/svg" xmlns:xlink="http://www.w3.org/1999/xlink">
<g id="graph0" class="graph" transform="scale(1 1) rotate(0) translate(4 371)">
<title>Framework/src/DatabaseFactory.cxx</title>
<!-- Node1 -->
<g id="node1" class="node"><title>Node1</title>
<polygon fill="#bfbfbf" stroke="black" points="182.5,-347.5 182.5,-366.5 361.5,-366.5 361.5,-347.5 182.5,-347.5"/>
<text text-anchor="middle" x="272" y="-354.5" font-family="Helvetica,sans-Serif" font-size="10.00">Framework/src/DatabaseFactory.cxx</text>
</g>
<!-- Node2 -->
<g id="node2" class="node"><title>Node2</title>
<polygon fill="none" stroke="#bfbfbf" points="0,-291.5 0,-310.5 52,-310.5 52,-291.5 0,-291.5"/>
<text text-anchor="middle" x="26" y="-298.5" font-family="Helvetica,sans-Serif" font-size="10.00">sstream</text>
</g>
<!-- Node1&#45;&gt;Node2 -->
<g id="edge1" class="edge"><title>Node1&#45;&gt;Node2</title>
<path fill="none" stroke="midnightblue" d="M232.492,-347.446C191.012,-338.448 123.898,-323.837 66,-311 64.7491,-310.723 63.4764,-310.44 62.1911,-310.154"/>
<polygon fill="midnightblue" stroke="midnightblue" points="62.7675,-306.696 52.2448,-307.93 61.24,-313.527 62.7675,-306.696"/>
</g>
<!-- Node3 -->
<g id="node3" class="node"><title>Node3</title>
<g id="a_node3"><a xlink:href="CcdbDatabase_8h.html" target="_top" xlink:title="QualityControl/CcdbDatabase.h">
<polygon fill="none" stroke="black" points="108.5,-235.5 108.5,-254.5 263.5,-254.5 263.5,-235.5 108.5,-235.5"/>
<text text-anchor="middle" x="186" y="-242.5" font-family="Helvetica,sans-Serif" font-size="10.00">QualityControl/CcdbDatabase.h</text>
</a>
</g>
</g>
<!-- Node1&#45;&gt;Node3 -->
<g id="edge2" class="edge"><title>Node1&#45;&gt;Node3</title>
<path fill="none" stroke="midnightblue" d="M216.086,-347.458C194.528,-341.136 171.978,-330.137 159,-311 148.663,-295.757 159.857,-275.932 170.812,-262.204"/>
<polygon fill="midnightblue" stroke="midnightblue" points="173.537,-264.403 177.407,-254.54 168.231,-259.837 173.537,-264.403"/>
</g>
<!-- Node10 -->
<g id="node10" class="node"><title>Node10</title>
<polygon fill="none" stroke="#bfbfbf" points="85,-62 85,-81 201,-81 201,-62 85,-62"/>
<text text-anchor="middle" x="143" y="-69" font-family="Helvetica,sans-Serif" font-size="10.00">Common/Exceptions.h</text>
</g>
<!-- Node1&#45;&gt;Node10 -->
<g id="edge19" class="edge"><title>Node1&#45;&gt;Node10</title>
<path fill="none" stroke="midnightblue" d="M212.827,-347.461C156.413,-335.583 80,-308.042 80,-246 80,-246 80,-246 80,-188 80,-148.478 108.781,-109.616 127.437,-88.578"/>
<polygon fill="midnightblue" stroke="midnightblue" points="130.046,-90.9115 134.24,-81.1822 124.894,-86.1725 130.046,-90.9115"/>
</g>
<!-- Node16 -->
<g id="node16" class="node"><title>Node16</title>
<polygon fill="none" stroke="#bfbfbf" points="168,-291.5 168,-310.5 224,-310.5 224,-291.5 168,-291.5"/>
<text text-anchor="middle" x="196" y="-298.5" font-family="Helvetica,sans-Serif" font-size="10.00">TClass.h</text>
</g>
<!-- Node1&#45;&gt;Node16 -->
<g id="edge16" class="edge"><title>Node1&#45;&gt;Node16</title>
<path fill="none" stroke="midnightblue" d="M259.789,-347.324C248.224,-339.107 230.625,-326.602 216.839,-316.807"/>
<polygon fill="midnightblue" stroke="midnightblue" points="218.612,-313.773 208.433,-310.834 214.557,-319.479 218.612,-313.773"/>
</g>
<!-- Node17 -->
<g id="node17" class="node"><title>Node17</title>
<polygon fill="none" stroke="#bfbfbf" points="242.5,-291.5 242.5,-310.5 301.5,-310.5 301.5,-291.5 242.5,-291.5"/>
<text text-anchor="middle" x="272" y="-298.5" font-family="Helvetica,sans-Serif" font-size="10.00">TROOT.h</text>
</g>
<!-- Node1&#45;&gt;Node17 -->
<g id="edge17" class="edge"><title>Node1&#45;&gt;Node17</title>
<path fill="none" stroke="midnightblue" d="M272,-347.083C272,-340.006 272,-329.861 272,-320.986"/>
<polygon fill="midnightblue" stroke="midnightblue" points="275.5,-320.751 272,-310.751 268.5,-320.751 275.5,-320.751"/>
</g>
<!-- Node18 -->
<g id="node18" class="node"><title>Node18</title>
<polygon fill="none" stroke="#bfbfbf" points="319.5,-291.5 319.5,-310.5 384.5,-310.5 384.5,-291.5 319.5,-291.5"/>
<text text-anchor="middle" x="352" y="-298.5" font-family="Helvetica,sans-Serif" font-size="10.00">TSystem.h</text>
</g>
<!-- Node1&#45;&gt;Node18 -->
<g id="edge18" class="edge"><title>Node1&#45;&gt;Node18</title>
<path fill="none" stroke="midnightblue" d="M284.853,-347.324C297.216,-338.979 316.13,-326.212 330.737,-316.352"/>
<polygon fill="midnightblue" stroke="midnightblue" points="332.848,-319.15 339.179,-310.655 328.932,-313.348 332.848,-319.15"/>
</g>
<!-- Node19 -->
<g id="node19" class="node"><title>Node19</title>
<g id="a_node19"><a xlink:href="DatabaseFactory_8h.html" target="_top" xlink:title="QualityControl/DatabaseFactory.h">
<polygon fill="none" stroke="black" points="287.5,-235.5 287.5,-254.5 452.5,-254.5 452.5,-235.5 287.5,-235.5"/>
<text text-anchor="middle" x="370" y="-242.5" font-family="Helvetica,sans-Serif" font-size="10.00">QualityControl/DatabaseFactory.h</text>
</a>
</g>
</g>
<!-- Node1&#45;&gt;Node19 -->
<g id="edge20" class="edge"><title>Node1&#45;&gt;Node19</title>
<path fill="none" stroke="midnightblue" d="M336.396,-347.434C358.357,-341.087 380.704,-330.076 394,-311 404.269,-296.266 394.398,-276.61 384.385,-262.785"/>
<polygon fill="midnightblue" stroke="midnightblue" points="386.925,-260.352 377.995,-254.651 381.421,-264.677 386.925,-260.352"/>
</g>
<!-- Node20 -->
<g id="node20" class="node"><title>Node20</title>
<g id="a_node20"><a xlink:href="QcInfoLogger_8h.html" target="_top" xlink:title="QualityControl/QcInfoLogger.h">
<polygon fill="none" stroke="black" points="485.5,-291.5 485.5,-310.5 634.5,-310.5 634.5,-291.5 485.5,-291.5"/>
<text text-anchor="middle" x="560" y="-298.5" font-family="Helvetica,sans-Serif" font-size="10.00">QualityControl/QcInfoLogger.h</text>
</a>
</g>
</g>
<!-- Node1&#45;&gt;Node20 -->
<g id="edge24" class="edge"><title>Node1&#45;&gt;Node20</title>
<path fill="none" stroke="midnightblue" d="M317.634,-347.444C368.297,-337.944 450.075,-322.611 504.428,-312.42"/>
<polygon fill="midnightblue" stroke="midnightblue" points="505.395,-315.799 514.579,-310.516 504.105,-308.919 505.395,-315.799"/>
</g>
<!-- Node21 -->
<g id="node21" class="node"><title>Node21</title>
<g id="a_node21"><a xlink:href="TaskInterface_8h.html" target="_top" xlink:title="TaskInterface.h">
<polygon fill="none" stroke="black" points="833.5,-235.5 833.5,-254.5 918.5,-254.5 918.5,-235.5 833.5,-235.5"/>
<text text-anchor="middle" x="876" y="-242.5" font-family="Helvetica,sans-Serif" font-size="10.00">TaskInterface.h</text>
</a>
</g>
</g>
<!-- Node1&#45;&gt;Node21 -->
<g id="edge51" class="edge"><title>Node1&#45;&gt;Node21</title>
<path fill="none" stroke="midnightblue" d="M361.676,-349.022C437.405,-342.208 548.461,-330.046 644,-311 714.935,-296.859 795.895,-272.164 840.97,-257.626"/>
<polygon fill="midnightblue" stroke="midnightblue" points="842.132,-260.928 850.562,-254.51 839.97,-254.271 842.132,-260.928"/>
</g>
<!-- Node4 -->
<g id="node4" class="node"><title>Node4</title>
<polygon fill="none" stroke="#bfbfbf" points="108.5,-179.5 108.5,-198.5 203.5,-198.5 203.5,-179.5 108.5,-179.5"/>
<text text-anchor="middle" x="156" y="-186.5" font-family="Helvetica,sans-Serif" font-size="10.00">CCDB/CcdbApi.h</text>
</g>
<!-- Node3&#45;&gt;Node4 -->
<g id="edge3" class="edge"><title>Node3&#45;&gt;Node4</title>
<path fill="none" stroke="midnightblue" d="M181.046,-235.083C176.896,-227.613 170.847,-216.724 165.733,-207.52"/>
<polygon fill="midnightblue" stroke="midnightblue" points="168.778,-205.793 160.862,-198.751 162.659,-209.192 168.778,-205.793"/>
</g>
<!-- Node5 -->
<g id="node5" class="node"><title>Node5</title>
<g id="a_node5"><a xlink:href="DatabaseInterface_8h.html" target="_top" xlink:title="QualityControl/DatabaseInterface.h">
<polygon fill="none" stroke="black" points="263,-179.5 263,-198.5 433,-198.5 433,-179.5 263,-179.5"/>
<text text-anchor="middle" x="348" y="-186.5" font-family="Helvetica,sans-Serif" font-size="10.00">QualityControl/DatabaseInterface.h</text>
</a>
</g>
</g>
<!-- Node3&#45;&gt;Node5 -->
<g id="edge4" class="edge"><title>Node3&#45;&gt;Node5</title>
<path fill="none" stroke="midnightblue" d="M211.669,-235.444C238.923,-226.359 282.184,-211.939 312.651,-201.783"/>
<polygon fill="midnightblue" stroke="midnightblue" points="314.071,-204.999 322.451,-198.516 311.857,-198.358 314.071,-204.999"/>
</g>
<!-- Node6 -->
<g id="node6" class="node"><title>Node6</title>
<g id="a_node6"><a xlink:href="MonitorObject_8h.html" target="_top" xlink:title="QualityControl/MonitorObject.h">
<polygon fill="none" stroke="black" points="272.5,-123.5 272.5,-142.5 423.5,-142.5 423.5,-123.5 272.5,-123.5"/>
<text text-anchor="middle" x="348" y="-130.5" font-family="Helvetica,sans-Serif" font-size="10.00">QualityControl/MonitorObject.h</text>
</a>
</g>
</g>
<!-- Node5&#45;&gt;Node6 -->
<g id="edge5" class="edge"><title>Node5&#45;&gt;Node6</title>
<path fill="none" stroke="midnightblue" d="M348,-179.083C348,-172.006 348,-161.861 348,-152.986"/>
<polygon fill="midnightblue" stroke="midnightblue" points="351.5,-152.751 348,-142.751 344.5,-152.751 351.5,-152.751"/>
</g>
<!-- Node14 -->
<g id="node14" class="node"><title>Node14</title>
<polygon fill="none" stroke="#bfbfbf" points="562,-62 562,-81 614,-81 614,-62 562,-62"/>
<text text-anchor="middle" x="588" y="-69" font-family="Helvetica,sans-Serif" font-size="10.00">memory</text>
</g>
<!-- Node5&#45;&gt;Node14 -->
<g id="edge14" class="edge"><title>Node5&#45;&gt;Node14</title>
<path fill="none" stroke="midnightblue" d="M366.039,-179.319C407.839,-159.203 511.518,-109.307 560.95,-85.5176"/>
<polygon fill="midnightblue" stroke="midnightblue" points="562.586,-88.6148 570.079,-81.1245 559.55,-82.3072 562.586,-88.6148"/>
</g>
<!-- Node15 -->
<g id="node15" class="node"><title>Node15</title>
<polygon fill="none" stroke="#bfbfbf" points="171.5,-123.5 171.5,-142.5 254.5,-142.5 254.5,-123.5 171.5,-123.5"/>
<text text-anchor="middle" x="213" y="-130.5" font-family="Helvetica,sans-Serif" font-size="10.00">unordered_map</text>
</g>
<!-- Node5&#45;&gt;Node15 -->
<g id="edge15" class="edge"><title>Node5&#45;&gt;Node15</title>
<path fill="none" stroke="midnightblue" d="M326.609,-179.444C304.293,-170.517 269.097,-156.439 243.792,-146.317"/>
<polygon fill="midnightblue" stroke="midnightblue" points="244.876,-142.981 234.291,-142.516 242.276,-149.48 244.876,-142.981"/>
</g>
<!-- Node7 -->
<g id="node7" class="node"><title>Node7</title>
<polygon fill="none" stroke="#bfbfbf" points="350,-62 350,-81 404,-81 404,-62 350,-62"/>
<text text-anchor="middle" x="377" y="-69" font-family="Helvetica,sans-Serif" font-size="10.00">iostream</text>
</g>
<!-- Node6&#45;&gt;Node7 -->
<g id="edge6" class="edge"><title>Node6&#45;&gt;Node7</title>
<path fill="none" stroke="midnightblue" d="M352.155,-123.475C356.376,-114.815 363.037,-101.149 368.4,-90.1453"/>
<polygon fill="midnightblue" stroke="midnightblue" points="371.618,-91.5317 372.853,-81.0091 365.325,-88.4648 371.618,-91.5317"/>
</g>
<!-- Node8 -->
<g id="node8" class="node"><title>Node8</title>
<polygon fill="none" stroke="#bfbfbf" points="258.5,-62 258.5,-81 293.5,-81 293.5,-62 258.5,-62"/>
<text text-anchor="middle" x="276" y="-69" font-family="Helvetica,sans-Serif" font-size="10.00">map</text>
</g>
<!-- Node6&#45;&gt;Node8 -->
<g id="edge7" class="edge"><title>Node6&#45;&gt;Node8</title>
<path fill="none" stroke="midnightblue" d="M337.684,-123.475C326.349,-114.108 307.927,-98.8839 294.161,-87.5081"/>
<polygon fill="midnightblue" stroke="midnightblue" points="296.235,-84.6813 286.297,-81.0091 291.776,-90.0773 296.235,-84.6813"/>
</g>
<!-- Node9 -->
<g id="node9" class="node"><title>Node9</title>
<polygon fill="none" stroke="#bfbfbf" points="336.5,-0.5 336.5,-19.5 395.5,-19.5 395.5,-0.5 336.5,-0.5"/>
<text text-anchor="middle" x="366" y="-7.5" font-family="Helvetica,sans-Serif" font-size="10.00">TObject.h</text>
</g>
<!-- Node6&#45;&gt;Node9 -->
<g id="edge8" class="edge"><title>Node6&#45;&gt;Node9</title>
<path fill="none" stroke="midnightblue" d="M345.329,-123.412C341.314,-109.167 334.818,-79.8576 341,-56 343.546,-46.1752 348.753,-36.2118 353.759,-28.166"/>
<polygon fill="midnightblue" stroke="midnightblue" points="356.749,-29.9903 359.371,-19.7252 350.92,-26.1143 356.749,-29.9903"/>
</g>
<!-- Node6&#45;&gt;Node10 -->
<g id="edge9" class="edge"><title>Node6&#45;&gt;Node10</title>
<path fill="none" stroke="midnightblue" d="M318.628,-123.475C282.703,-113.048 221.768,-95.3618 181.956,-83.8066"/>
<polygon fill="midnightblue" stroke="midnightblue" points="182.896,-80.4353 172.317,-81.0091 180.945,-87.1578 182.896,-80.4353"/>
</g>
<!-- Node11 -->
<g id="node11" class="node"><title>Node11</title>
<g id="a_node11"><a xlink:href="Quality_8h.html" target="_top" xlink:title="QualityControl/Quality.h">
<polygon fill="none" stroke="black" points="422.5,-62 422.5,-81 543.5,-81 543.5,-62 422.5,-62"/>
<text text-anchor="middle" x="483" y="-69" font-family="Helvetica,sans-Serif" font-size="10.00">QualityControl/Quality.h</text>
</a>
</g>
</g>
<!-- Node6&#45;&gt;Node11 -->
<g id="edge10" class="edge"><title>Node6&#45;&gt;Node11</title>
<path fill="none" stroke="midnightblue" d="M367.342,-123.475C390.099,-113.445 428.092,-96.7002 454.288,-85.1546"/>
<polygon fill="midnightblue" stroke="midnightblue" points="455.955,-88.2449 463.694,-81.0091 453.131,-81.8395 455.955,-88.2449"/>
</g>
<!-- Node11&#45;&gt;Node9 -->
<g id="edge11" class="edge"><title>Node11&#45;&gt;Node9</title>
<path fill="none" stroke="midnightblue" d="M466.237,-61.9751C446.775,-52.078 414.455,-35.6416 391.789,-24.1151"/>
<polygon fill="midnightblue" stroke="midnightblue" points="393.232,-20.9224 382.732,-19.5091 390.059,-27.1619 393.232,-20.9224"/>
</g>
<!-- Node12 -->
<g id="node12" class="node"><title>Node12</title>
<polygon fill="none" stroke="#bfbfbf" points="457,-0.5 457,-19.5 509,-19.5 509,-0.5 457,-0.5"/>
<text text-anchor="middle" x="483" y="-7.5" font-family="Helvetica,sans-Serif" font-size="10.00">ostream</text>
</g>
<!-- Node11&#45;&gt;Node12 -->
<g id="edge12" class="edge"><title>Node11&#45;&gt;Node12</title>
<path fill="none" stroke="midnightblue" d="M483,-61.9751C483,-53.5803 483,-40.4806 483,-29.6631"/>
<polygon fill="midnightblue" stroke="midnightblue" points="486.5,-29.5091 483,-19.5091 479.5,-29.5091 486.5,-29.5091"/>
</g>
<!-- Node13 -->
<g id="node13" class="node"><title>Node13</title>
<polygon fill="none" stroke="#bfbfbf" points="798.5,-0.5 798.5,-19.5 839.5,-19.5 839.5,-0.5 798.5,-0.5"/>
<text text-anchor="middle" x="819" y="-7.5" font-family="Helvetica,sans-Serif" font-size="10.00">string</text>
</g>
<!-- Node11&#45;&gt;Node13 -->
<g id="edge13" class="edge"><title>Node11&#45;&gt;Node13</title>
<path fill="none" stroke="midnightblue" d="M522.929,-61.9655C532.747,-59.9396 543.242,-57.8353 553,-56 637.908,-40.0294 738.564,-23.7098 788.187,-15.8364"/>
<polygon fill="midnightblue" stroke="midnightblue" points="788.929,-19.2626 798.26,-14.2432 787.836,-12.3486 788.929,-19.2626"/>
</g>
<!-- Node19&#45;&gt;Node5 -->
<g id="edge23" class="edge"><title>Node19&#45;&gt;Node5</title>
<path fill="none" stroke="midnightblue" d="M366.367,-235.083C363.388,-227.77 359.074,-217.181 355.375,-208.103"/>
<polygon fill="midnightblue" stroke="midnightblue" points="358.58,-206.691 351.565,-198.751 352.097,-209.333 358.58,-206.691"/>
</g>
<!-- Node19&#45;&gt;Node10 -->
<g id="edge22" class="edge"><title>Node19&#45;&gt;Node10</title>
<path fill="none" stroke="midnightblue" d="M344.1,-235.433C320.216,-227.188 284.025,-213.817 254,-199 232.537,-188.408 176.363,-162.145 162,-143 150.725,-127.971 146.137,-106.712 144.272,-91.4751"/>
<polygon fill="midnightblue" stroke="midnightblue" points="147.727,-90.831 143.311,-81.2003 140.758,-91.4828 147.727,-90.831"/>
</g>
<!-- Node19&#45;&gt;Node14 -->
<g id="edge21" class="edge"><title>Node19&#45;&gt;Node14</title>
<path fill="none" stroke="midnightblue" d="M385.34,-235.35C400.232,-226.737 423.267,-212.839 442,-199 491.655,-162.316 545.389,-112.982 571.662,-88.1572"/>
<polygon fill="midnightblue" stroke="midnightblue" points="574.349,-90.4315 579.187,-81.0056 569.527,-85.3574 574.349,-90.4315"/>
</g>
<!-- Node20&#45;&gt;Node7 -->
<g id="edge50" class="edge"><title>Node20&#45;&gt;Node7</title>
<path fill="none" stroke="midnightblue" d="M548.069,-291.295C537.044,-282.854 520.656,-269.264 509,-255 466.165,-202.58 475.551,-175.651 433,-123 422.377,-109.856 408.228,-97.1262 396.81,-87.7358"/>
<polygon fill="midnightblue" stroke="midnightblue" points="398.708,-84.7721 388.714,-81.2542 394.333,-90.2365 398.708,-84.7721"/>
</g>
<!-- Node20&#45;&gt;Node21 -->
<g id="edge25" class="edge"><title>Node20&#45;&gt;Node21</title>
<path fill="none" stroke="midnightblue" d="M610.071,-291.444C668.309,-281.492 764.02,-265.136 823.341,-254.999"/>
<polygon fill="midnightblue" stroke="midnightblue" points="823.99,-258.439 833.257,-253.304 822.81,-251.539 823.99,-258.439"/>
</g>
<!-- Node37 -->
<g id="node37" class="node"><title>Node37</title>
<polygon fill="none" stroke="#bfbfbf" points="518,-235.5 518,-254.5 648,-254.5 648,-235.5 518,-235.5"/>
<text text-anchor="middle" x="583" y="-242.5" font-family="Helvetica,sans-Serif" font-size="10.00">InfoLogger/InfoLogger.hxx</text>
</g>
<!-- Node20&#45;&gt;Node37 -->
<g id="edge49" class="edge"><title>Node20&#45;&gt;Node37</title>
<path fill="none" stroke="midnightblue" d="M563.798,-291.083C566.913,-283.77 571.423,-273.181 575.289,-264.103"/>
<polygon fill="midnightblue" stroke="midnightblue" points="578.574,-265.323 579.273,-254.751 572.134,-262.58 578.574,-265.323"/>
</g>
<!-- Node21&#45;&gt;Node14 -->
<g id="edge26" class="edge"><title>Node21&#45;&gt;Node14</title>
<path fill="none" stroke="midnightblue" d="M833.424,-244.636C787.559,-243.27 714.393,-234.936 664,-199 625.88,-171.816 603.456,-118.982 593.744,-90.9701"/>
<polygon fill="midnightblue" stroke="midnightblue" points="596.994,-89.6484 590.541,-81.245 590.345,-91.838 596.994,-89.6484"/>
</g>
<!-- Node22 -->
<g id="node22" class="node"><title>Node22</title>
<polygon fill="none" stroke="#bfbfbf" points="851.5,-179.5 851.5,-198.5 900.5,-198.5 900.5,-179.5 851.5,-179.5"/>
<text text-anchor="middle" x="876" y="-186.5" font-family="Helvetica,sans-Serif" font-size="10.00">cassert</text>
</g>
<!-- Node21&#45;&gt;Node22 -->
<g id="edge27" class="edge"><title>Node21&#45;&gt;Node22</title>
<path fill="none" stroke="midnightblue" d="M876,-235.083C876,-228.006 876,-217.861 876,-208.986"/>
<polygon fill="midnightblue" stroke="midnightblue" points="879.5,-208.751 876,-198.751 872.5,-208.751 879.5,-208.751"/>
</g>
<!-- Node23 -->
<g id="node23" class="node"><title>Node23</title>
<polygon fill="none" stroke="#bfbfbf" points="918.5,-179.5 918.5,-198.5 1043.5,-198.5 1043.5,-179.5 918.5,-179.5"/>
<text text-anchor="middle" x="981" y="-186.5" font-family="Helvetica,sans-Serif" font-size="10.00">Framework/InitContext.h</text>
</g>
<!-- Node21&#45;&gt;Node23 -->
<g id="edge28" class="edge"><title>Node21&#45;&gt;Node23</title>
<path fill="none" stroke="midnightblue" d="M892.87,-235.324C909.709,-226.664 935.807,-213.242 955.238,-203.249"/>
<polygon fill="midnightblue" stroke="midnightblue" points="956.88,-206.341 964.172,-198.655 953.678,-200.116 956.88,-206.341"/>
</g>
<!-- Node24 -->
<g id="node24" class="node"><title>Node24</title>
<polygon fill="none" stroke="#bfbfbf" points="1062,-179.5 1062,-198.5 1222,-198.5 1222,-179.5 1062,-179.5"/>
<text text-anchor="middle" x="1142" y="-186.5" font-family="Helvetica,sans-Serif" font-size="10.00">Framework/ProcessingContext.h</text>
</g>
<!-- Node21&#45;&gt;Node24 -->
<g id="edge29" class="edge"><title>Node21&#45;&gt;Node24</title>
<path fill="none" stroke="midnightblue" d="M918.148,-235.444C964.746,-225.984 1039.84,-210.738 1090.05,-200.547"/>
<polygon fill="midnightblue" stroke="midnightblue" points="1090.94,-203.936 1100.05,-198.516 1089.55,-197.076 1090.94,-203.936"/>
</g>
<!-- Node25 -->
<g id="node25" class="node"><title>Node25</title>
<polygon fill="none" stroke="#bfbfbf" points="1228.5,-56.5 1228.5,-86.5 1363.5,-86.5 1363.5,-56.5 1228.5,-56.5"/>
<text text-anchor="start" x="1236.5" y="-74.5" font-family="Helvetica,sans-Serif" font-size="10.00">Configuration/Configuration</text>
<text text-anchor="middle" x="1296" y="-63.5" font-family="Helvetica,sans-Serif" font-size="10.00">Interface.h</text>
</g>
<!-- Node21&#45;&gt;Node25 -->
<g id="edge30" class="edge"><title>Node21&#45;&gt;Node25</title>
<path fill="none" stroke="midnightblue" d="M918.503,-244.102C986.393,-243.063 1122.69,-236.023 1231,-199 1277.38,-183.147 1301.69,-185.556 1326,-143 1334.8,-127.601 1326.29,-109.119 1316.12,-94.9427"/>
<polygon fill="midnightblue" stroke="midnightblue" points="1318.63,-92.4651 1309.72,-86.7381 1313.11,-96.7737 1318.63,-92.4651"/>
</g>
<!-- Node26 -->
<g id="node26" class="node"><title>Node26</title>
<g id="a_node26"><a xlink:href="Activity_8h.html" target="_top" xlink:title="QualityControl/Activity.h">
<polygon fill="none" stroke="black" points="1373.5,-179.5 1373.5,-198.5 1496.5,-198.5 1496.5,-179.5 1373.5,-179.5"/>
<text text-anchor="middle" x="1435" y="-186.5" font-family="Helvetica,sans-Serif" font-size="10.00">QualityControl/Activity.h</text>
</a>
</g>
</g>
<!-- Node21&#45;&gt;Node26 -->
<g id="edge31" class="edge"><title>Node21&#45;&gt;Node26</title>
<path fill="none" stroke="midnightblue" d="M918.678,-240.384C1002.92,-233.167 1196.52,-216.186 1359,-199 1360.3,-198.862 1361.61,-198.722 1362.94,-198.579"/>
<polygon fill="midnightblue" stroke="midnightblue" points="1363.66,-202.021 1373.21,-197.448 1362.89,-195.064 1363.66,-202.021"/>
</g>
<!-- Node27 -->
<g id="node27" class="node"><title>Node27</title>
<g id="a_node27"><a xlink:href="ObjectsManager_8h.html" target="_top" xlink:title="QualityControl/ObjectsManager.h">
<polygon fill="none" stroke="black" points="672.5,-179.5 672.5,-198.5 833.5,-198.5 833.5,-179.5 672.5,-179.5"/>
<text text-anchor="middle" x="753" y="-186.5" font-family="Helvetica,sans-Serif" font-size="10.00">QualityControl/ObjectsManager.h</text>
</a>
</g>
</g>
<!-- Node21&#45;&gt;Node27 -->
<g id="edge32" class="edge"><title>Node21&#45;&gt;Node27</title>
<path fill="none" stroke="midnightblue" d="M856.51,-235.444C836.358,-226.596 804.677,-212.687 781.669,-202.586"/>
<polygon fill="midnightblue" stroke="midnightblue" points="782.962,-199.332 772.399,-198.516 780.148,-205.741 782.962,-199.332"/>
</g>
<!-- Node27&#45;&gt;Node6 -->
<g id="edge33" class="edge"><title>Node27&#45;&gt;Node6</title>
<path fill="none" stroke="midnightblue" d="M688.827,-179.444C616.25,-169.767 498.264,-154.035 421.899,-143.853"/>
<polygon fill="midnightblue" stroke="midnightblue" points="422.248,-140.369 411.873,-142.516 421.323,-147.307 422.248,-140.369"/>
</g>
<!-- Node27&#45;&gt;Node11 -->
<g id="edge34" class="edge"><title>Node27&#45;&gt;Node11</title>
<path fill="none" stroke="midnightblue" d="M726.833,-179.49C701.324,-170.982 661.579,-157.16 628,-143 585.131,-124.923 536.805,-100.601 508.179,-85.7631"/>
<polygon fill="midnightblue" stroke="midnightblue" points="509.748,-82.6343 499.263,-81.1175 506.514,-88.8422 509.748,-82.6343"/>
</g>
<!-- Node27&#45;&gt;Node13 -->
<g id="edge48" class="edge"><title>Node27&#45;&gt;Node13</title>
<path fill="none" stroke="midnightblue" d="M714.155,-179.364C694.623,-172.847 672.673,-161.704 661,-143 640.528,-110.197 637.702,-86.8597 661,-56 676.295,-35.7405 746.711,-21.8983 788.198,-15.3442"/>
<polygon fill="midnightblue" stroke="midnightblue" points="788.962,-18.7682 798.319,-13.7989 787.905,-11.8484 788.962,-18.7682"/>
</g>
<!-- Node28 -->
<g id="node28" class="node"><title>Node28</title>
<g id="a_node28"><a xlink:href="TaskConfig_8h.html" target="_top" xlink:title="QualityControl/TaskConfig.h">
<polygon fill="none" stroke="black" points="1177,-123.5 1177,-142.5 1317,-142.5 1317,-123.5 1177,-123.5"/>
<text text-anchor="middle" x="1247" y="-130.5" font-family="Helvetica,sans-Serif" font-size="10.00">QualityControl/TaskConfig.h</text>
</a>
</g>
</g>
<!-- Node27&#45;&gt;Node28 -->
<g id="edge35" class="edge"><title>Node27&#45;&gt;Node28</title>
<path fill="none" stroke="midnightblue" d="M832.959,-179.46C914.255,-170.747 1044.15,-156.744 1166.49,-143.163"/>
<polygon fill="midnightblue" stroke="midnightblue" points="1167.24,-146.602 1176.79,-142.018 1166.47,-139.644 1167.24,-146.602"/>
</g>
<!-- Node29 -->
<g id="node29" class="node"><title>Node29</title>
<g id="a_node29"><a xlink:href="ServiceDiscovery_8h_source.html" target="_top" xlink:title="QualityControl/ServiceDiscovery.h">
<polygon fill="none" stroke="black" points="669.5,-123.5 669.5,-142.5 836.5,-142.5 836.5,-123.5 669.5,-123.5"/>
<text text-anchor="middle" x="753" y="-130.5" font-family="Helvetica,sans-Serif" font-size="10.00">QualityControl/ServiceDiscovery.h</text>
</a>
</g>
</g>
<!-- Node27&#45;&gt;Node29 -->
<g id="edge38" class="edge"><title>Node27&#45;&gt;Node29</title>
<path fill="none" stroke="midnightblue" d="M753,-179.083C753,-172.006 753,-161.861 753,-152.986"/>
<polygon fill="midnightblue" stroke="midnightblue" points="756.5,-152.751 753,-142.751 749.5,-152.751 756.5,-152.751"/>
</g>
<!-- Node34 -->
<g id="node34" class="node"><title>Node34</title>
<polygon fill="none" stroke="#bfbfbf" points="854.5,-123.5 854.5,-142.5 923.5,-142.5 923.5,-123.5 854.5,-123.5"/>
<text text-anchor="middle" x="889" y="-130.5" font-family="Helvetica,sans-Serif" font-size="10.00">TObjArray.h</text>
</g>
<!-- Node27&#45;&gt;Node34 -->
<g id="edge45" class="edge"><title>Node27&#45;&gt;Node34</title>
<path fill="none" stroke="midnightblue" d="M774.55,-179.444C797.031,-170.517 832.488,-156.439 857.98,-146.317"/>
<polygon fill="midnightblue" stroke="midnightblue" points="859.549,-149.46 867.551,-142.516 856.965,-142.954 859.549,-149.46"/>
</g>
<!-- Node35 -->
<g id="node35" class="node"><title>Node35</title>
<polygon fill="none" stroke="#bfbfbf" points="941.5,-123.5 941.5,-142.5 1012.5,-142.5 1012.5,-123.5 941.5,-123.5"/>
<text text-anchor="middle" x="977" y="-130.5" font-family="Helvetica,sans-Serif" font-size="10.00">TObjString.h</text>
</g>
<!-- Node27&#45;&gt;Node35 -->
<g id="edge46" class="edge"><title>Node27&#45;&gt;Node35</title>
<path fill="none" stroke="midnightblue" d="M788.493,-179.444C827.324,-170.083 889.656,-155.056 931.918,-144.868"/>
<polygon fill="midnightblue" stroke="midnightblue" points="932.771,-148.263 941.673,-142.516 931.131,-141.458 932.771,-148.263"/>
</g>
<!-- Node36 -->
<g id="node36" class="node"><title>Node36</title>
<polygon fill="none" stroke="#bfbfbf" points="1031,-123.5 1031,-142.5 1159,-142.5 1159,-123.5 1031,-123.5"/>
<text text-anchor="middle" x="1095" y="-130.5" font-family="Helvetica,sans-Serif" font-size="10.00">boost/concept_check.hpp</text>
</g>
<!-- Node27&#45;&gt;Node36 -->
<g id="edge47" class="edge"><title>Node27&#45;&gt;Node36</title>
<path fill="none" stroke="midnightblue" d="M807.191,-179.444C867.978,-169.846 966.487,-154.292 1031.01,-144.104"/>
<polygon fill="midnightblue" stroke="midnightblue" points="1031.73,-147.533 1041.06,-142.516 1030.64,-140.619 1031.73,-147.533"/>
</g>
<!-- Node28&#45;&gt;Node13 -->
<g id="edge36" class="edge"><title>Node28&#45;&gt;Node13</title>
<path fill="none" stroke="midnightblue" d="M1219.77,-123.43C1173.53,-108.962 1076.62,-79.0207 994,-56 943.61,-41.9588 884.616,-27.117 849.606,-18.475"/>
<polygon fill="midnightblue" stroke="midnightblue" points="850.094,-14.9906 839.547,-15.9997 848.421,-21.7878 850.094,-14.9906"/>
</g>
<!-- Node28&#45;&gt;Node25 -->
<g id="edge37" class="edge"><title>Node28&#45;&gt;Node25</title>
<path fill="none" stroke="midnightblue" d="M1254.02,-123.475C1260.28,-115.869 1269.73,-104.399 1278.08,-94.2649"/>
<polygon fill="midnightblue" stroke="midnightblue" points="1280.8,-96.4673 1284.45,-86.523 1275.39,-92.0173 1280.8,-96.4673"/>
</g>
<!-- Node29&#45;&gt;Node13 -->
<g id="edge42" class="edge"><title>Node29&#45;&gt;Node13</title>
<path fill="none" stroke="midnightblue" d="M815.864,-123.491C878.476,-114.374 966.742,-99.5238 977,-87 1014.24,-41.5388 905.454,-21.4228 849.71,-14.2791"/>
<polygon fill="midnightblue" stroke="midnightblue" points="849.996,-10.7882 839.647,-13.0563 849.151,-17.7371 849.996,-10.7882"/>
</g>
<!-- Node29&#45;&gt;Node14 -->
<g id="edge41" class="edge"><title>Node29&#45;&gt;Node14</title>
<path fill="none" stroke="midnightblue" d="M729.36,-123.475C701.056,-113.269 653.467,-96.108 621.414,-84.5492"/>
<polygon fill="midnightblue" stroke="midnightblue" points="622.191,-81.1089 611.597,-81.0091 619.816,-87.6939 622.191,-81.1089"/>
</g>
<!-- Node30 -->
<g id="node30" class="node"><title>Node30</title>
<polygon fill="none" stroke="#bfbfbf" points="844,-62 844,-81 890,-81 890,-62 844,-62"/>
<text text-anchor="middle" x="867" y="-69" font-family="Helvetica,sans-Serif" font-size="10.00">atomic</text>
</g>
<!-- Node29&#45;&gt;Node30 -->
<g id="edge39" class="edge"><title>Node29&#45;&gt;Node30</title>
<path fill="none" stroke="midnightblue" d="M769.333,-123.475C788.211,-113.622 819.507,-97.2883 841.576,-85.7697"/>
<polygon fill="midnightblue" stroke="midnightblue" points="843.451,-88.7389 850.697,-81.0091 840.212,-82.5333 843.451,-88.7389"/>
</g>
<!-- Node31 -->
<g id="node31" class="node"><title>Node31</title>
<polygon fill="none" stroke="#bfbfbf" points="908.5,-62 908.5,-81 967.5,-81 967.5,-62 908.5,-62"/>
<text text-anchor="middle" x="938" y="-69" font-family="Helvetica,sans-Serif" font-size="10.00">curl/curl.h</text>
</g>
<!-- Node29&#45;&gt;Node31 -->
<g id="edge40" class="edge"><title>Node29&#45;&gt;Node31</title>
<path fill="none" stroke="midnightblue" d="M782.521,-123.439C812.125,-114.727 858.943,-100.607 899,-87 901.394,-86.1868 903.862,-85.3249 906.34,-84.4429"/>
<polygon fill="midnightblue" stroke="midnightblue" points="907.602,-87.708 915.804,-81.0013 905.21,-81.1295 907.602,-87.708"/>
</g>
<!-- Node32 -->
<g id="node32" class="node"><title>Node32</title>
<polygon fill="none" stroke="#bfbfbf" points="670,-62 670,-81 714,-81 714,-62 670,-62"/>
<text text-anchor="middle" x="692" y="-69" font-family="Helvetica,sans-Serif" font-size="10.00">thread</text>
</g>
<!-- Node29&#45;&gt;Node32 -->
<g id="edge43" class="edge"><title>Node29&#45;&gt;Node32</title>
<path fill="none" stroke="midnightblue" d="M744.26,-123.475C734.838,-114.285 719.636,-99.4563 708.051,-88.156"/>
<polygon fill="midnightblue" stroke="midnightblue" points="710.326,-85.4861 700.724,-81.0091 705.438,-90.4971 710.326,-85.4861"/>
</g>
<!-- Node33 -->
<g id="node33" class="node"><title>Node33</title>
<polygon fill="none" stroke="#bfbfbf" points="732,-56.5 732,-86.5 826,-86.5 826,-56.5 732,-56.5"/>
<text text-anchor="start" x="740" y="-74.5" font-family="Helvetica,sans-Serif" font-size="10.00">boost/asio/ip/host</text>
<text text-anchor="middle" x="779" y="-63.5" font-family="Helvetica,sans-Serif" font-size="10.00">_name.hpp</text>
</g>
<!-- Node29&#45;&gt;Node33 -->
<g id="edge44" class="edge"><title>Node29&#45;&gt;Node33</title>
<path fill="none" stroke="midnightblue" d="M756.725,-123.475C759.884,-116.245 764.569,-105.525 768.828,-95.7792"/>
<polygon fill="midnightblue" stroke="midnightblue" points="772.075,-97.0878 772.872,-86.523 765.661,-94.2848 772.075,-97.0878"/>
</g>
</g>
</svg>
