<?xml version="1.0" encoding="UTF-8" standalone="no"?>
<!DOCTYPE svg PUBLIC "-//W3C//DTD SVG 1.1//EN"
 "http://www.w3.org/Graphics/SVG/1.1/DTD/svg11.dtd">
<!-- Generated by graphviz version 2.38.0 (20140413.2041)
 -->
<!-- Title: Modules/EMCAL/include/EMCAL/DigitsQcTask.h Pages: 1 -->
<svg width="1755pt" height="330pt"
 viewBox="0.00 0.00 1755.00 330.00" xmlns="http://www.w3.org/2000/svg" xmlns:xlink="http://www.w3.org/1999/xlink">
<g id="graph0" class="graph" transform="scale(1 1) rotate(0) translate(4 326)">
<title>Modules/EMCAL/include/EMCAL/DigitsQcTask.h</title>
<!-- Node1 -->
<g id="node1" class="node"><title>Node1</title>
<polygon fill="#bfbfbf" stroke="black" points="1197,-291.5 1197,-321.5 1322,-321.5 1322,-291.5 1197,-291.5"/>
<text text-anchor="start" x="1205" y="-309.5" font-family="Helvetica,sans-Serif" font-size="10.00">Modules/EMCAL/include</text>
<text text-anchor="middle" x="1259.5" y="-298.5" font-family="Helvetica,sans-Serif" font-size="10.00">/EMCAL/DigitsQcTask.h</text>
</g>
<!-- Node2 -->
<g id="node2" class="node"><title>Node2</title>
<g id="a_node2"><a xlink:href="TaskInterface_8h.html" target="_top" xlink:title="QualityControl/TaskInterface.h">
<polygon fill="none" stroke="black" points="1184.5,-235.5 1184.5,-254.5 1334.5,-254.5 1334.5,-235.5 1184.5,-235.5"/>
<text text-anchor="middle" x="1259.5" y="-242.5" font-family="Helvetica,sans-Serif" font-size="10.00">QualityControl/TaskInterface.h</text>
</a>
</g>
</g>
<!-- Node1&#45;&gt;Node2 -->
<g id="edge1" class="edge"><title>Node1&#45;&gt;Node2</title>
<path fill="none" stroke="midnightblue" d="M1259.5,-291.399C1259.5,-283.466 1259.5,-273.458 1259.5,-264.858"/>
<polygon fill="midnightblue" stroke="midnightblue" points="1263,-264.658 1259.5,-254.658 1256,-264.658 1263,-264.658"/>
</g>
<!-- Node3 -->
<g id="node3" class="node"><title>Node3</title>
<polygon fill="none" stroke="#bfbfbf" points="437.5,-62 437.5,-81 489.5,-81 489.5,-62 437.5,-62"/>
<text text-anchor="middle" x="463.5" y="-69" font-family="Helvetica,sans-Serif" font-size="10.00">memory</text>
</g>
<!-- Node2&#45;&gt;Node3 -->
<g id="edge2" class="edge"><title>Node2&#45;&gt;Node3</title>
<path fill="none" stroke="midnightblue" d="M1184.48,-244.868C1009.87,-245.273 583.465,-236.429 482.5,-143 468.425,-129.975 464.35,-107.725 463.371,-91.7007"/>
<polygon fill="midnightblue" stroke="midnightblue" points="466.861,-91.2615 463.107,-81.3541 459.863,-91.4402 466.861,-91.2615"/>
</g>
<!-- Node4 -->
<g id="node4" class="node"><title>Node4</title>
<polygon fill="none" stroke="#bfbfbf" points="1235,-179.5 1235,-198.5 1284,-198.5 1284,-179.5 1235,-179.5"/>
<text text-anchor="middle" x="1259.5" y="-186.5" font-family="Helvetica,sans-Serif" font-size="10.00">cassert</text>
</g>
<!-- Node2&#45;&gt;Node4 -->
<g id="edge3" class="edge"><title>Node2&#45;&gt;Node4</title>
<path fill="none" stroke="midnightblue" d="M1259.5,-235.083C1259.5,-228.006 1259.5,-217.861 1259.5,-208.986"/>
<polygon fill="midnightblue" stroke="midnightblue" points="1263,-208.751 1259.5,-198.751 1256,-208.751 1263,-208.751"/>
</g>
<!-- Node5 -->
<g id="node5" class="node"><title>Node5</title>
<polygon fill="none" stroke="#bfbfbf" points="1302,-179.5 1302,-198.5 1427,-198.5 1427,-179.5 1302,-179.5"/>
<text text-anchor="middle" x="1364.5" y="-186.5" font-family="Helvetica,sans-Serif" font-size="10.00">Framework/InitContext.h</text>
</g>
<!-- Node2&#45;&gt;Node5 -->
<g id="edge4" class="edge"><title>Node2&#45;&gt;Node5</title>
<path fill="none" stroke="midnightblue" d="M1276.37,-235.324C1293.21,-226.664 1319.31,-213.242 1338.74,-203.249"/>
<polygon fill="midnightblue" stroke="midnightblue" points="1340.38,-206.341 1347.67,-198.655 1337.18,-200.116 1340.38,-206.341"/>
</g>
<!-- Node6 -->
<g id="node6" class="node"><title>Node6</title>
<polygon fill="none" stroke="#bfbfbf" points="1445.5,-179.5 1445.5,-198.5 1605.5,-198.5 1605.5,-179.5 1445.5,-179.5"/>
<text text-anchor="middle" x="1525.5" y="-186.5" font-family="Helvetica,sans-Serif" font-size="10.00">Framework/ProcessingContext.h</text>
</g>
<!-- Node2&#45;&gt;Node6 -->
<g id="edge5" class="edge"><title>Node2&#45;&gt;Node6</title>
<path fill="none" stroke="midnightblue" d="M1301.65,-235.444C1348.25,-225.984 1423.34,-210.738 1473.55,-200.547"/>
<polygon fill="midnightblue" stroke="midnightblue" points="1474.44,-203.936 1483.55,-198.516 1473.05,-197.076 1474.44,-203.936"/>
</g>
<!-- Node7 -->
<g id="node7" class="node"><title>Node7</title>
<polygon fill="none" stroke="#bfbfbf" points="953,-56.5 953,-86.5 1088,-86.5 1088,-56.5 953,-56.5"/>
<text text-anchor="start" x="961" y="-74.5" font-family="Helvetica,sans-Serif" font-size="10.00">Configuration/Configuration</text>
<text text-anchor="middle" x="1020.5" y="-63.5" font-family="Helvetica,sans-Serif" font-size="10.00">Interface.h</text>
</g>
<!-- Node2&#45;&gt;Node7 -->
<g id="edge6" class="edge"><title>Node2&#45;&gt;Node7</title>
<path fill="none" stroke="midnightblue" d="M1252.5,-235.321C1232.34,-210.498 1174.05,-139.907 1149.5,-123 1128.96,-108.856 1103.9,-97.8853 1081.34,-89.8373"/>
<polygon fill="midnightblue" stroke="midnightblue" points="1082.45,-86.5155 1071.85,-86.5664 1080.17,-93.1336 1082.45,-86.5155"/>
</g>
<!-- Node8 -->
<g id="node8" class="node"><title>Node8</title>
<g id="a_node8"><a xlink:href="Activity_8h.html" target="_top" xlink:title="QualityControl/Activity.h">
<polygon fill="none" stroke="black" points="1624,-179.5 1624,-198.5 1747,-198.5 1747,-179.5 1624,-179.5"/>
<text text-anchor="middle" x="1685.5" y="-186.5" font-family="Helvetica,sans-Serif" font-size="10.00">QualityControl/Activity.h</text>
</a>
</g>
</g>
<!-- Node2&#45;&gt;Node8 -->
<g id="edge7" class="edge"><title>Node2&#45;&gt;Node8</title>
<path fill="none" stroke="midnightblue" d="M1327,-235.444C1405.3,-225.519 1533.83,-209.225 1613.85,-199.082"/>
<polygon fill="midnightblue" stroke="midnightblue" points="1614.37,-202.545 1623.85,-197.815 1613.49,-195.601 1614.37,-202.545"/>
</g>
<!-- Node9 -->
<g id="node9" class="node"><title>Node9</title>
<g id="a_node9"><a xlink:href="ObjectsManager_8h.html" target="_top" xlink:title="QualityControl/ObjectsManager.h">
<polygon fill="none" stroke="black" points="790,-179.5 790,-198.5 951,-198.5 951,-179.5 790,-179.5"/>
<text text-anchor="middle" x="870.5" y="-186.5" font-family="Helvetica,sans-Serif" font-size="10.00">QualityControl/ObjectsManager.h</text>
</a>
</g>
</g>
<!-- Node2&#45;&gt;Node9 -->
<g id="edge8" class="edge"><title>Node2&#45;&gt;Node9</title>
<path fill="none" stroke="midnightblue" d="M1197.86,-235.444C1128.29,-225.786 1015.29,-210.099 941.929,-199.916"/>
<polygon fill="midnightblue" stroke="midnightblue" points="942.236,-196.425 931.85,-198.516 941.274,-203.358 942.236,-196.425"/>
</g>
<!-- Node10 -->
<g id="node10" class="node"><title>Node10</title>
<g id="a_node10"><a xlink:href="MonitorObject_8h.html" target="_top" xlink:title="QualityControl/MonitorObject.h">
<polygon fill="none" stroke="black" points="125,-123.5 125,-142.5 276,-142.5 276,-123.5 125,-123.5"/>
<text text-anchor="middle" x="200.5" y="-130.5" font-family="Helvetica,sans-Serif" font-size="10.00">QualityControl/MonitorObject.h</text>
</a>
</g>
</g>
<!-- Node9&#45;&gt;Node10 -->
<g id="edge9" class="edge"><title>Node9&#45;&gt;Node10</title>
<path fill="none" stroke="midnightblue" d="M789.682,-181.486C662.522,-171.238 416.827,-151.435 286.517,-140.933"/>
<polygon fill="midnightblue" stroke="midnightblue" points="286.438,-137.415 276.189,-140.1 285.875,-144.392 286.438,-137.415"/>
</g>
<!-- Node15 -->
<g id="node15" class="node"><title>Node15</title>
<g id="a_node15"><a xlink:href="Quality_8h.html" target="_top" xlink:title="QualityControl/Quality.h">
<polygon fill="none" stroke="black" points="298,-62 298,-81 419,-81 419,-62 298,-62"/>
<text text-anchor="middle" x="358.5" y="-69" font-family="Helvetica,sans-Serif" font-size="10.00">QualityControl/Quality.h</text>
</a>
</g>
</g>
<!-- Node9&#45;&gt;Node15 -->
<g id="edge18" class="edge"><title>Node9&#45;&gt;Node15</title>
<path fill="none" stroke="midnightblue" d="M789.736,-187.956C709.832,-185.768 584.976,-176.53 482.5,-143 443.022,-130.083 402.043,-103.827 378.479,-87.2568"/>
<polygon fill="midnightblue" stroke="midnightblue" points="380.226,-84.2035 370.059,-81.224 376.149,-89.8936 380.226,-84.2035"/>
</g>
<!-- Node17 -->
<g id="node17" class="node"><title>Node17</title>
<polygon fill="none" stroke="#bfbfbf" points="674,-0.5 674,-19.5 715,-19.5 715,-0.5 674,-0.5"/>
<text text-anchor="middle" x="694.5" y="-7.5" font-family="Helvetica,sans-Serif" font-size="10.00">string</text>
</g>
<!-- Node9&#45;&gt;Node17 -->
<g id="edge32" class="edge"><title>Node9&#45;&gt;Node17</title>
<path fill="none" stroke="midnightblue" d="M951.154,-186.222C1024.3,-182.702 1124.41,-172.462 1149.5,-143 1155.26,-136.233 1152.42,-131.396 1149.5,-123 1137.03,-87.1379 1129.7,-74.4194 1096.5,-56 1032.73,-20.6232 807.87,-13.0296 725.249,-11.4233"/>
<polygon fill="midnightblue" stroke="midnightblue" points="725.068,-7.91968 715.008,-11.2412 724.944,-14.9186 725.068,-7.91968"/>
</g>
<!-- Node18 -->
<g id="node18" class="node"><title>Node18</title>
<g id="a_node18"><a xlink:href="TaskConfig_8h.html" target="_top" xlink:title="QualityControl/TaskConfig.h">
<polygon fill="none" stroke="black" points="677.5,-123.5 677.5,-142.5 817.5,-142.5 817.5,-123.5 677.5,-123.5"/>
<text text-anchor="middle" x="747.5" y="-130.5" font-family="Helvetica,sans-Serif" font-size="10.00">QualityControl/TaskConfig.h</text>
</a>
</g>
</g>
<!-- Node9&#45;&gt;Node18 -->
<g id="edge19" class="edge"><title>Node9&#45;&gt;Node18</title>
<path fill="none" stroke="midnightblue" d="M851.01,-179.444C830.858,-170.596 799.177,-156.687 776.169,-146.586"/>
<polygon fill="midnightblue" stroke="midnightblue" points="777.462,-143.332 766.899,-142.516 774.648,-149.741 777.462,-143.332"/>
</g>
<!-- Node19 -->
<g id="node19" class="node"><title>Node19</title>
<g id="a_node19"><a xlink:href="ServiceDiscovery_8h_source.html" target="_top" xlink:title="QualityControl/ServiceDiscovery.h">
<polygon fill="none" stroke="black" points="492,-123.5 492,-142.5 659,-142.5 659,-123.5 492,-123.5"/>
<text text-anchor="middle" x="575.5" y="-130.5" font-family="Helvetica,sans-Serif" font-size="10.00">QualityControl/ServiceDiscovery.h</text>
</a>
</g>
</g>
<!-- Node9&#45;&gt;Node19 -->
<g id="edge22" class="edge"><title>Node9&#45;&gt;Node19</title>
<path fill="none" stroke="midnightblue" d="M823.756,-179.444C771.755,-169.925 687.749,-154.547 632.076,-144.356"/>
<polygon fill="midnightblue" stroke="midnightblue" points="632.492,-140.874 622.025,-142.516 631.231,-147.76 632.492,-140.874"/>
</g>
<!-- Node24 -->
<g id="node24" class="node"><title>Node24</title>
<polygon fill="none" stroke="#bfbfbf" points="836,-123.5 836,-142.5 905,-142.5 905,-123.5 836,-123.5"/>
<text text-anchor="middle" x="870.5" y="-130.5" font-family="Helvetica,sans-Serif" font-size="10.00">TObjArray.h</text>
</g>
<!-- Node9&#45;&gt;Node24 -->
<g id="edge29" class="edge"><title>Node9&#45;&gt;Node24</title>
<path fill="none" stroke="midnightblue" d="M870.5,-179.083C870.5,-172.006 870.5,-161.861 870.5,-152.986"/>
<polygon fill="midnightblue" stroke="midnightblue" points="874,-152.751 870.5,-142.751 867,-152.751 874,-152.751"/>
</g>
<!-- Node25 -->
<g id="node25" class="node"><title>Node25</title>
<polygon fill="none" stroke="#bfbfbf" points="923,-123.5 923,-142.5 994,-142.5 994,-123.5 923,-123.5"/>
<text text-anchor="middle" x="958.5" y="-130.5" font-family="Helvetica,sans-Serif" font-size="10.00">TObjString.h</text>
</g>
<!-- Node9&#45;&gt;Node25 -->
<g id="edge30" class="edge"><title>Node9&#45;&gt;Node25</title>
<path fill="none" stroke="midnightblue" d="M884.639,-179.324C898.366,-170.9 919.436,-157.971 935.564,-148.074"/>
<polygon fill="midnightblue" stroke="midnightblue" points="937.704,-150.868 944.396,-142.655 934.043,-144.902 937.704,-150.868"/>
</g>
<!-- Node26 -->
<g id="node26" class="node"><title>Node26</title>
<polygon fill="none" stroke="#bfbfbf" points="1012.5,-123.5 1012.5,-142.5 1140.5,-142.5 1140.5,-123.5 1012.5,-123.5"/>
<text text-anchor="middle" x="1076.5" y="-130.5" font-family="Helvetica,sans-Serif" font-size="10.00">boost/concept_check.hpp</text>
</g>
<!-- Node9&#45;&gt;Node26 -->
<g id="edge31" class="edge"><title>Node9&#45;&gt;Node26</title>
<path fill="none" stroke="midnightblue" d="M903.141,-179.444C938.55,-170.162 995.209,-155.309 1034.05,-145.127"/>
<polygon fill="midnightblue" stroke="midnightblue" points="1035.23,-148.438 1044.01,-142.516 1033.45,-141.667 1035.23,-148.438"/>
</g>
<!-- Node11 -->
<g id="node11" class="node"><title>Node11</title>
<polygon fill="none" stroke="#bfbfbf" points="225.5,-62 225.5,-81 279.5,-81 279.5,-62 225.5,-62"/>
<text text-anchor="middle" x="252.5" y="-69" font-family="Helvetica,sans-Serif" font-size="10.00">iostream</text>
</g>
<!-- Node10&#45;&gt;Node11 -->
<g id="edge10" class="edge"><title>Node10&#45;&gt;Node11</title>
<path fill="none" stroke="midnightblue" d="M207.95,-123.475C215.828,-114.462 228.445,-100.025 238.244,-88.8118"/>
<polygon fill="midnightblue" stroke="midnightblue" points="241.118,-90.842 245.063,-81.0091 235.847,-86.2356 241.118,-90.842"/>
</g>
<!-- Node12 -->
<g id="node12" class="node"><title>Node12</title>
<polygon fill="none" stroke="#bfbfbf" points="0,-62 0,-81 35,-81 35,-62 0,-62"/>
<text text-anchor="middle" x="17.5" y="-69" font-family="Helvetica,sans-Serif" font-size="10.00">map</text>
</g>
<!-- Node10&#45;&gt;Node12 -->
<g id="edge11" class="edge"><title>Node10&#45;&gt;Node12</title>
<path fill="none" stroke="midnightblue" d="M167.081,-123.443C136.196,-115.205 89.2183,-101.839 49.5,-87 47.8895,-86.3983 46.2457,-85.7533 44.5954,-85.0819"/>
<polygon fill="midnightblue" stroke="midnightblue" points="45.8295,-81.8027 35.2605,-81.0641 43.0621,-88.2324 45.8295,-81.8027"/>
</g>
<!-- Node13 -->
<g id="node13" class="node"><title>Node13</title>
<polygon fill="none" stroke="#bfbfbf" points="144,-0.5 144,-19.5 203,-19.5 203,-0.5 144,-0.5"/>
<text text-anchor="middle" x="173.5" y="-7.5" font-family="Helvetica,sans-Serif" font-size="10.00">TObject.h</text>
</g>
<!-- Node10&#45;&gt;Node13 -->
<g id="edge12" class="edge"><title>Node10&#45;&gt;Node13</title>
<path fill="none" stroke="midnightblue" d="M140.019,-123.469C118.182,-117.144 95.6846,-106.139 82.5,-87 74.6838,-75.6539 75.2308,-67.7041 82.5,-56 93.8236,-37.768 114.965,-26.699 134.022,-20.1038"/>
<polygon fill="midnightblue" stroke="midnightblue" points="135.245,-23.3881 143.734,-17.0485 133.145,-16.7107 135.245,-23.3881"/>
</g>
<!-- Node14 -->
<g id="node14" class="node"><title>Node14</title>
<polygon fill="none" stroke="#bfbfbf" points="91.5,-62 91.5,-81 207.5,-81 207.5,-62 91.5,-62"/>
<text text-anchor="middle" x="149.5" y="-69" font-family="Helvetica,sans-Serif" font-size="10.00">Common/Exceptions.h</text>
</g>
<!-- Node10&#45;&gt;Node14 -->
<g id="edge13" class="edge"><title>Node10&#45;&gt;Node14</title>
<path fill="none" stroke="midnightblue" d="M193.193,-123.475C185.467,-114.462 173.092,-100.025 163.482,-88.8118"/>
<polygon fill="midnightblue" stroke="midnightblue" points="165.959,-86.3239 156.794,-81.0091 160.644,-90.8795 165.959,-86.3239"/>
</g>
<!-- Node10&#45;&gt;Node15 -->
<g id="edge14" class="edge"><title>Node10&#45;&gt;Node15</title>
<path fill="none" stroke="midnightblue" d="M223.138,-123.475C250.24,-113.269 295.81,-96.108 326.504,-84.5492"/>
<polygon fill="midnightblue" stroke="midnightblue" points="327.78,-87.8088 335.904,-81.0091 325.313,-81.2579 327.78,-87.8088"/>
</g>
<!-- Node15&#45;&gt;Node13 -->
<g id="edge15" class="edge"><title>Node15&#45;&gt;Node13</title>
<path fill="none" stroke="midnightblue" d="M331.994,-61.9751C299.848,-51.6362 245.513,-34.1611 209.573,-22.6017"/>
<polygon fill="midnightblue" stroke="midnightblue" points="210.548,-19.239 199.957,-19.5091 208.405,-25.9028 210.548,-19.239"/>
</g>
<!-- Node16 -->
<g id="node16" class="node"><title>Node16</title>
<polygon fill="none" stroke="#bfbfbf" points="332.5,-0.5 332.5,-19.5 384.5,-19.5 384.5,-0.5 332.5,-0.5"/>
<text text-anchor="middle" x="358.5" y="-7.5" font-family="Helvetica,sans-Serif" font-size="10.00">ostream</text>
</g>
<!-- Node15&#45;&gt;Node16 -->
<g id="edge16" class="edge"><title>Node15&#45;&gt;Node16</title>
<path fill="none" stroke="midnightblue" d="M358.5,-61.9751C358.5,-53.5803 358.5,-40.4806 358.5,-29.6631"/>
<polygon fill="midnightblue" stroke="midnightblue" points="362,-29.5091 358.5,-19.5091 355,-29.5091 362,-29.5091"/>
</g>
<!-- Node15&#45;&gt;Node17 -->
<g id="edge17" class="edge"><title>Node15&#45;&gt;Node17</title>
<path fill="none" stroke="midnightblue" d="M398.429,-61.9655C408.247,-59.9396 418.742,-57.8353 428.5,-56 513.408,-40.0294 614.064,-23.7098 663.687,-15.8364"/>
<polygon fill="midnightblue" stroke="midnightblue" points="664.429,-19.2626 673.76,-14.2432 663.336,-12.3486 664.429,-19.2626"/>
</g>
<!-- Node18&#45;&gt;Node7 -->
<g id="edge21" class="edge"><title>Node18&#45;&gt;Node7</title>
<path fill="none" stroke="midnightblue" d="M786.614,-123.475C828.08,-114.438 894.565,-99.9473 946.07,-88.7219"/>
<polygon fill="midnightblue" stroke="midnightblue" points="947.134,-92.0723 956.159,-86.523 945.643,-85.2328 947.134,-92.0723"/>
</g>
<!-- Node18&#45;&gt;Node17 -->
<g id="edge20" class="edge"><title>Node18&#45;&gt;Node17</title>
<path fill="none" stroke="midnightblue" d="M796.271,-123.495C817.285,-117.151 839.89,-106.124 852.5,-87 860.085,-75.4977 860.802,-66.996 852.5,-56 837.205,-35.7405 766.789,-21.8983 725.302,-15.3442"/>
<polygon fill="midnightblue" stroke="midnightblue" points="725.595,-11.8484 715.181,-13.7989 724.538,-18.7682 725.595,-11.8484"/>
</g>
<!-- Node19&#45;&gt;Node3 -->
<g id="edge25" class="edge"><title>Node19&#45;&gt;Node3</title>
<path fill="none" stroke="midnightblue" d="M559.453,-123.475C540.907,-113.622 510.16,-97.2883 488.478,-85.7697"/>
<polygon fill="midnightblue" stroke="midnightblue" points="489.99,-82.6098 479.517,-81.0091 486.706,-88.7916 489.99,-82.6098"/>
</g>
<!-- Node19&#45;&gt;Node17 -->
<g id="edge26" class="edge"><title>Node19&#45;&gt;Node17</title>
<path fill="none" stroke="midnightblue" d="M565.151,-123.472C548.608,-108.809 519.701,-78.2517 536.5,-56 551.795,-35.7405 622.211,-21.8983 663.698,-15.3442"/>
<polygon fill="midnightblue" stroke="midnightblue" points="664.462,-18.7682 673.819,-13.7989 663.405,-11.8484 664.462,-18.7682"/>
</g>
<!-- Node20 -->
<g id="node20" class="node"><title>Node20</title>
<polygon fill="none" stroke="#bfbfbf" points="797.5,-62 797.5,-81 843.5,-81 843.5,-62 797.5,-62"/>
<text text-anchor="middle" x="820.5" y="-69" font-family="Helvetica,sans-Serif" font-size="10.00">atomic</text>
</g>
<!-- Node19&#45;&gt;Node20 -->
<g id="edge23" class="edge"><title>Node19&#45;&gt;Node20</title>
<path fill="none" stroke="midnightblue" d="M632.439,-123.433C675.853,-116.075 736.783,-103.956 788.5,-87 790.369,-86.3872 792.275,-85.6986 794.179,-84.9632"/>
<polygon fill="midnightblue" stroke="midnightblue" points="795.65,-88.1416 803.502,-81.0283 792.928,-81.6925 795.65,-88.1416"/>
</g>
<!-- Node21 -->
<g id="node21" class="node"><title>Node21</title>
<polygon fill="none" stroke="#bfbfbf" points="546,-62 546,-81 605,-81 605,-62 546,-62"/>
<text text-anchor="middle" x="575.5" y="-69" font-family="Helvetica,sans-Serif" font-size="10.00">curl/curl.h</text>
</g>
<!-- Node19&#45;&gt;Node21 -->
<g id="edge24" class="edge"><title>Node19&#45;&gt;Node21</title>
<path fill="none" stroke="midnightblue" d="M575.5,-123.475C575.5,-115.08 575.5,-101.981 575.5,-91.1631"/>
<polygon fill="midnightblue" stroke="midnightblue" points="579,-91.0091 575.5,-81.0091 572,-91.0091 579,-91.0091"/>
</g>
<!-- Node22 -->
<g id="node22" class="node"><title>Node22</title>
<polygon fill="none" stroke="#bfbfbf" points="623.5,-62 623.5,-81 667.5,-81 667.5,-62 623.5,-62"/>
<text text-anchor="middle" x="645.5" y="-69" font-family="Helvetica,sans-Serif" font-size="10.00">thread</text>
</g>
<!-- Node19&#45;&gt;Node22 -->
<g id="edge27" class="edge"><title>Node19&#45;&gt;Node22</title>
<path fill="none" stroke="midnightblue" d="M585.529,-123.475C596.549,-114.108 614.46,-98.8839 627.843,-87.5081"/>
<polygon fill="midnightblue" stroke="midnightblue" points="630.137,-90.1524 635.489,-81.0091 625.603,-84.8188 630.137,-90.1524"/>
</g>
<!-- Node23 -->
<g id="node23" class="node"><title>Node23</title>
<polygon fill="none" stroke="#bfbfbf" points="685.5,-56.5 685.5,-86.5 779.5,-86.5 779.5,-56.5 685.5,-56.5"/>
<text text-anchor="start" x="693.5" y="-74.5" font-family="Helvetica,sans-Serif" font-size="10.00">boost/asio/ip/host</text>
<text text-anchor="middle" x="732.5" y="-63.5" font-family="Helvetica,sans-Serif" font-size="10.00">_name.hpp</text>
</g>
<!-- Node19&#45;&gt;Node23 -->
<g id="edge28" class="edge"><title>Node19&#45;&gt;Node23</title>
<path fill="none" stroke="midnightblue" d="M597.994,-123.475C620.848,-114.814 656.915,-101.145 685.95,-90.1415"/>
<polygon fill="midnightblue" stroke="midnightblue" points="687.388,-93.3397 695.498,-86.523 684.907,-86.794 687.388,-93.3397"/>
</g>
</g>
</svg>
