<?xml version="1.0" encoding="UTF-8" standalone="no"?>
<!DOCTYPE svg PUBLIC "-//W3C//DTD SVG 1.1//EN"
 "http://www.w3.org/Graphics/SVG/1.1/DTD/svg11.dtd">
<!-- Generated by graphviz version 2.38.0 (20140413.2041)
 -->
<!-- Title: Modules/EMCAL/src/DigitsQcTask.cxx Pages: 1 -->
<!--zoomable 397 -->
<svg id="main" version="1.1" xmlns="http://www.w3.org/2000/svg" xmlns:xlink="http://www.w3.org/1999/xlink" xml:space="preserve" onload="init(evt)">
<style type="text/css"><![CDATA[
.edge:hover path { stroke: red; }
.edge:hover polygon { stroke: red; fill: red; }
]]></style>
<script type="text/javascript"><![CDATA[
var edges = document.getElementsByTagName('g');
if (edges && edges.length) {
  for (var i=0;i<edges.length;i++) {
    if (edges[i].id.substr(0,4)=='edge') {
      edges[i].setAttribute('class','edge');
    }
  }
}
]]></script>
        <defs>
                <circle id="rim" cx="0" cy="0" r="7"/>
                <circle id="rim2" cx="0" cy="0" r="3.5"/>
                <g id="zoomPlus">
                        <use xlink:href="#rim" fill="#404040">
                                <set attributeName="fill" to="#808080" begin="zoomplus.mouseover" end="zoomplus.mouseout"/>
                        </use>
                        <path d="M-4,0h8M0,-4v8" fill="none" stroke="white" stroke-width="1.5" pointer-events="none"/>
                </g>
                <g id="zoomMin">
                        <use xlink:href="#rim" fill="#404040">
                                <set attributeName="fill" to="#808080" begin="zoomminus.mouseover" end="zoomminus.mouseout"/>
                        </use>
                        <path d="M-4,0h8" fill="none" stroke="white" stroke-width="1.5" pointer-events="none"/>
                </g>
                <g id="dirArrow">
                        <path fill="none" stroke="white" stroke-width="1.5" d="M0,-3.0v7 M-2.5,-0.5L0,-3.0L2.5,-0.5"/>
                </g>
               <g id="resetDef">
                       <use xlink:href="#rim2" fill="#404040">
                               <set attributeName="fill" to="#808080" begin="reset.mouseover" end="reset.mouseout"/>
                       </use>
               </g>
        </defs>

<script type="text/javascript">
var viewWidth = 1128;
var viewHeight = 397;
var sectionId = 'dynsection-0';
</script>
<script xlink:href="svgpan.js"/>
<svg id="graph" class="graph">
<g id="viewport">
<title>Modules/EMCAL/src/DigitsQcTask.cxx</title>
<!-- Node1 -->
<g id="node1" class="node"><title>Node1</title>
<polygon fill="#bfbfbf" stroke="black" points="464.5,-358.5 464.5,-388.5 600.5,-388.5 600.5,-358.5 464.5,-358.5"/>
<text text-anchor="start" x="472.5" y="-376.5" font-family="Helvetica,sans-Serif" font-size="10.00">Modules/EMCAL/src/Digits</text>
<text text-anchor="middle" x="532.5" y="-365.5" font-family="Helvetica,sans-Serif" font-size="10.00">QcTask.cxx</text>
</g>
<!-- Node2 -->
<g id="node2" class="node"><title>Node2</title>
<polygon fill="none" stroke="#bfbfbf" points="244,-297 244,-316 309,-316 309,-297 244,-297"/>
<text text-anchor="middle" x="276.5" y="-304" font-family="Helvetica,sans-Serif" font-size="10.00">TCanvas.h</text>
</g>
<!-- Node1&#45;&gt;Node2 -->
<g id="edge1" class="edge"><title>Node1&#45;&gt;Node2</title>
<path fill="none" stroke="midnightblue" d="M465.059,-358.411C422.7,-349.113 367.08,-336.079 318.5,-322 315.557,-321.147 312.517,-320.21 309.479,-319.235"/>
<polygon fill="midnightblue" stroke="midnightblue" points="310.506,-315.888 299.913,-316.05 308.295,-322.53 310.506,-315.888"/>
</g>
<!-- Node3 -->
<g id="node3" class="node"><title>Node3</title>
<polygon fill="none" stroke="#bfbfbf" points="327.5,-297 327.5,-316 371.5,-316 371.5,-297 327.5,-297"/>
<text text-anchor="middle" x="349.5" y="-304" font-family="Helvetica,sans-Serif" font-size="10.00">TH2.h</text>
</g>
<!-- Node1&#45;&gt;Node3 -->
<g id="edge2" class="edge"><title>Node1&#45;&gt;Node3</title>
<path fill="none" stroke="midnightblue" d="M485.425,-358.421C455.139,-348.981 415.115,-335.791 380.5,-322 379.12,-321.45 377.714,-320.87 376.3,-320.269"/>
<polygon fill="midnightblue" stroke="midnightblue" points="377.607,-317.02 367.049,-316.142 374.755,-323.413 377.607,-317.02"/>
</g>
<!-- Node4 -->
<g id="node4" class="node"><title>Node4</title>
<g id="a_node4"><a xlink:href="QcInfoLogger_8h.html" target="_top" xlink:title="QualityControl/QcInfoLogger.h">
<polygon fill="none" stroke="black" points="718,-297 718,-316 867,-316 867,-297 718,-297"/>
<text text-anchor="middle" x="792.5" y="-304" font-family="Helvetica,sans-Serif" font-size="10.00">QualityControl/QcInfoLogger.h</text>
</a>
</g>
</g>
<!-- Node1&#45;&gt;Node4 -->
<g id="edge3" class="edge"><title>Node1&#45;&gt;Node4</title>
<path fill="none" stroke="midnightblue" d="M588.596,-358.476C636.515,-346.496 704.496,-329.501 748.547,-318.488"/>
<polygon fill="midnightblue" stroke="midnightblue" points="749.533,-321.85 758.385,-316.029 747.835,-315.059 749.533,-321.85"/>
</g>
<!-- Node31 -->
<g id="node31" class="node"><title>Node31</title>
<polygon fill="none" stroke="#bfbfbf" points="529.5,-291.5 529.5,-321.5 699.5,-321.5 699.5,-291.5 529.5,-291.5"/>
<text text-anchor="start" x="537.5" y="-309.5" font-family="Helvetica,sans-Serif" font-size="10.00">DataFormatsEMCAL/EMCALBlock</text>
<text text-anchor="middle" x="614.5" y="-298.5" font-family="Helvetica,sans-Serif" font-size="10.00">Header.h</text>
</g>
<!-- Node1&#45;&gt;Node31 -->
<g id="edge38" class="edge"><title>Node1&#45;&gt;Node31</title>
<path fill="none" stroke="midnightblue" d="M550.293,-358.396C561.575,-349.452 576.354,-337.737 588.889,-327.802"/>
<polygon fill="midnightblue" stroke="midnightblue" points="591.08,-330.531 596.742,-321.577 586.731,-325.046 591.08,-330.531"/>
</g>
<!-- Node32 -->
<g id="node32" class="node"><title>Node32</title>
<g id="a_node32"><a xlink:href="DigitsQcTask_8h.html" target="_top" xlink:title="EMCAL/DigitsQcTask.h">
<polygon fill="none" stroke="black" points="389.5,-297 389.5,-316 511.5,-316 511.5,-297 389.5,-297"/>
<text text-anchor="middle" x="450.5" y="-304" font-family="Helvetica,sans-Serif" font-size="10.00">EMCAL/DigitsQcTask.h</text>
</a>
</g>
</g>
<!-- Node1&#45;&gt;Node32 -->
<g id="edge39" class="edge"><title>Node1&#45;&gt;Node32</title>
<path fill="none" stroke="midnightblue" d="M514.707,-358.396C501.415,-347.86 483.271,-333.477 469.661,-322.689"/>
<polygon fill="midnightblue" stroke="midnightblue" points="471.479,-319.664 461.468,-316.195 467.131,-325.149 471.479,-319.664"/>
</g>
<!-- Node33 -->
<g id="node33" class="node"><title>Node33</title>
<polygon fill="none" stroke="#bfbfbf" points="885.5,-297 885.5,-316 1025.5,-316 1025.5,-297 885.5,-297"/>
<text text-anchor="middle" x="955.5" y="-304" font-family="Helvetica,sans-Serif" font-size="10.00">DataFormatsEMCAL/Digit.h</text>
</g>
<!-- Node1&#45;&gt;Node33 -->
<g id="edge41" class="edge"><title>Node1&#45;&gt;Node33</title>
<path fill="none" stroke="midnightblue" d="M600.818,-363.204C670.312,-353.576 781.062,-337.759 876.5,-322 884.239,-320.722 892.391,-319.306 900.401,-317.874"/>
<polygon fill="midnightblue" stroke="midnightblue" points="901.212,-321.284 910.43,-316.06 899.966,-314.395 901.212,-321.284"/>
</g>
<!-- Node5 -->
<g id="node5" class="node"><title>Node5</title>
<g id="a_node5"><a xlink:href="TaskInterface_8h.html" target="_top" xlink:title="TaskInterface.h">
<polygon fill="none" stroke="black" points="408,-235.5 408,-254.5 493,-254.5 493,-235.5 408,-235.5"/>
<text text-anchor="middle" x="450.5" y="-242.5" font-family="Helvetica,sans-Serif" font-size="10.00">TaskInterface.h</text>
</a>
</g>
</g>
<!-- Node4&#45;&gt;Node5 -->
<g id="edge4" class="edge"><title>Node4&#45;&gt;Node5</title>
<path fill="none" stroke="midnightblue" d="M743.5,-296.975C679.771,-285.888 568.87,-266.594 503.319,-255.189"/>
<polygon fill="midnightblue" stroke="midnightblue" points="503.654,-251.695 493.203,-253.429 502.455,-258.592 503.654,-251.695"/>
</g>
<!-- Node14 -->
<g id="node14" class="node"><title>Node14</title>
<polygon fill="none" stroke="#bfbfbf" points="1065.5,-62 1065.5,-81 1119.5,-81 1119.5,-62 1065.5,-62"/>
<text text-anchor="middle" x="1092.5" y="-69" font-family="Helvetica,sans-Serif" font-size="10.00">iostream</text>
</g>
<!-- Node4&#45;&gt;Node14 -->
<g id="edge37" class="edge"><title>Node4&#45;&gt;Node14</title>
<path fill="none" stroke="midnightblue" d="M805.823,-296.874C820.814,-287.062 845.776,-270.4 866.5,-255 945.946,-195.963 1036.41,-120.181 1074.3,-88.0293"/>
<polygon fill="midnightblue" stroke="midnightblue" points="1077.02,-90.3136 1082.37,-81.169 1072.49,-84.9811 1077.02,-90.3136"/>
</g>
<!-- Node30 -->
<g id="node30" class="node"><title>Node30</title>
<polygon fill="none" stroke="#bfbfbf" points="727.5,-235.5 727.5,-254.5 857.5,-254.5 857.5,-235.5 727.5,-235.5"/>
<text text-anchor="middle" x="792.5" y="-242.5" font-family="Helvetica,sans-Serif" font-size="10.00">InfoLogger/InfoLogger.hxx</text>
</g>
<!-- Node4&#45;&gt;Node30 -->
<g id="edge36" class="edge"><title>Node4&#45;&gt;Node30</title>
<path fill="none" stroke="midnightblue" d="M792.5,-296.975C792.5,-288.58 792.5,-275.481 792.5,-264.663"/>
<polygon fill="midnightblue" stroke="midnightblue" points="796,-264.509 792.5,-254.509 789,-264.509 796,-264.509"/>
</g>
<!-- Node6 -->
<g id="node6" class="node"><title>Node6</title>
<polygon fill="none" stroke="#bfbfbf" points="763.5,-62 763.5,-81 815.5,-81 815.5,-62 763.5,-62"/>
<text text-anchor="middle" x="789.5" y="-69" font-family="Helvetica,sans-Serif" font-size="10.00">memory</text>
</g>
<!-- Node5&#45;&gt;Node6 -->
<g id="edge5" class="edge"><title>Node5&#45;&gt;Node6</title>
<path fill="none" stroke="midnightblue" d="M493.237,-242.796C607.884,-238.545 917.492,-220.011 975.5,-143 1034.62,-64.5112 1072.85,-166.022 825.5,-87 823.225,-86.2734 820.891,-85.4701 818.556,-84.6252"/>
<polygon fill="midnightblue" stroke="midnightblue" points="819.705,-81.3172 809.114,-81.0085 817.201,-87.854 819.705,-81.3172"/>
</g>
<!-- Node7 -->
<g id="node7" class="node"><title>Node7</title>
<polygon fill="none" stroke="#bfbfbf" points="80,-179.5 80,-198.5 129,-198.5 129,-179.5 80,-179.5"/>
<text text-anchor="middle" x="104.5" y="-186.5" font-family="Helvetica,sans-Serif" font-size="10.00">cassert</text>
</g>
<!-- Node5&#45;&gt;Node7 -->
<g id="edge6" class="edge"><title>Node5&#45;&gt;Node7</title>
<path fill="none" stroke="midnightblue" d="M407.938,-239.569C349.399,-233.104 240.618,-219.77 139.374,-199.192"/>
<polygon fill="midnightblue" stroke="midnightblue" points="139.788,-195.704 129.287,-197.113 138.374,-202.56 139.788,-195.704"/>
</g>
<!-- Node8 -->
<g id="node8" class="node"><title>Node8</title>
<polygon fill="none" stroke="#bfbfbf" points="147,-179.5 147,-198.5 272,-198.5 272,-179.5 147,-179.5"/>
<text text-anchor="middle" x="209.5" y="-186.5" font-family="Helvetica,sans-Serif" font-size="10.00">Framework/InitContext.h</text>
</g>
<!-- Node5&#45;&gt;Node8 -->
<g id="edge7" class="edge"><title>Node5&#45;&gt;Node8</title>
<path fill="none" stroke="midnightblue" d="M412.313,-235.444C370.359,-226.043 302.906,-210.929 257.429,-200.739"/>
<polygon fill="midnightblue" stroke="midnightblue" points="258.032,-197.288 247.509,-198.516 256.501,-204.118 258.032,-197.288"/>
</g>
<!-- Node9 -->
<g id="node9" class="node"><title>Node9</title>
<polygon fill="none" stroke="#bfbfbf" points="290.5,-179.5 290.5,-198.5 450.5,-198.5 450.5,-179.5 290.5,-179.5"/>
<text text-anchor="middle" x="370.5" y="-186.5" font-family="Helvetica,sans-Serif" font-size="10.00">Framework/ProcessingContext.h</text>
</g>
<!-- Node5&#45;&gt;Node9 -->
<g id="edge8" class="edge"><title>Node5&#45;&gt;Node9</title>
<path fill="none" stroke="midnightblue" d="M437.647,-235.324C425.284,-226.979 406.37,-214.212 391.763,-204.352"/>
<polygon fill="midnightblue" stroke="midnightblue" points="393.568,-201.348 383.321,-198.655 389.652,-207.15 393.568,-201.348"/>
</g>
<!-- Node10 -->
<g id="node10" class="node"><title>Node10</title>
<polygon fill="none" stroke="#bfbfbf" points="0,-56.5 0,-86.5 135,-86.5 135,-56.5 0,-56.5"/>
<text text-anchor="start" x="8" y="-74.5" font-family="Helvetica,sans-Serif" font-size="10.00">Configuration/Configuration</text>
<text text-anchor="middle" x="67.5" y="-63.5" font-family="Helvetica,sans-Serif" font-size="10.00">Interface.h</text>
</g>
<!-- Node5&#45;&gt;Node10 -->
<g id="edge9" class="edge"><title>Node5&#45;&gt;Node10</title>
<path fill="none" stroke="midnightblue" d="M407.823,-242.045C313.312,-237.282 92.9121,-223.628 70.5,-199 45.4589,-171.483 52.2379,-125.008 59.6943,-96.7035"/>
<polygon fill="midnightblue" stroke="midnightblue" points="63.1355,-97.3995 62.5202,-86.8225 56.4053,-95.4746 63.1355,-97.3995"/>
</g>
<!-- Node11 -->
<g id="node11" class="node"><title>Node11</title>
<g id="a_node11"><a xlink:href="Activity_8h.html" target="_top" xlink:title="QualityControl/Activity.h">
<polygon fill="none" stroke="black" points="469,-179.5 469,-198.5 592,-198.5 592,-179.5 469,-179.5"/>
<text text-anchor="middle" x="530.5" y="-186.5" font-family="Helvetica,sans-Serif" font-size="10.00">QualityControl/Activity.h</text>
</a>
</g>
</g>
<!-- Node5&#45;&gt;Node11 -->
<g id="edge10" class="edge"><title>Node5&#45;&gt;Node11</title>
<path fill="none" stroke="midnightblue" d="M463.353,-235.324C475.716,-226.979 494.63,-214.212 509.237,-204.352"/>
<polygon fill="midnightblue" stroke="midnightblue" points="511.348,-207.15 517.679,-198.655 507.432,-201.348 511.348,-207.15"/>
</g>
<!-- Node12 -->
<g id="node12" class="node"><title>Node12</title>
<g id="a_node12"><a xlink:href="ObjectsManager_8h.html" target="_top" xlink:title="QualityControl/ObjectsManager.h">
<polygon fill="none" stroke="black" points="610,-179.5 610,-198.5 771,-198.5 771,-179.5 610,-179.5"/>
<text text-anchor="middle" x="690.5" y="-186.5" font-family="Helvetica,sans-Serif" font-size="10.00">QualityControl/ObjectsManager.h</text>
</a>
</g>
</g>
<!-- Node5&#45;&gt;Node12 -->
<g id="edge11" class="edge"><title>Node5&#45;&gt;Node12</title>
<path fill="none" stroke="midnightblue" d="M488.529,-235.444C530.308,-226.043 597.482,-210.929 642.77,-200.739"/>
<polygon fill="midnightblue" stroke="midnightblue" points="643.661,-204.126 652.649,-198.516 642.125,-197.297 643.661,-204.126"/>
</g>
<!-- Node13 -->
<g id="node13" class="node"><title>Node13</title>
<g id="a_node13"><a xlink:href="MonitorObject_8h.html" target="_top" xlink:title="QualityControl/MonitorObject.h">
<polygon fill="none" stroke="black" points="815,-123.5 815,-142.5 966,-142.5 966,-123.5 815,-123.5"/>
<text text-anchor="middle" x="890.5" y="-130.5" font-family="Helvetica,sans-Serif" font-size="10.00">QualityControl/MonitorObject.h</text>
</a>
</g>
</g>
<!-- Node12&#45;&gt;Node13 -->
<g id="edge12" class="edge"><title>Node12&#45;&gt;Node13</title>
<path fill="none" stroke="midnightblue" d="M722.191,-179.444C756.568,-170.162 811.577,-155.309 849.289,-145.127"/>
<polygon fill="midnightblue" stroke="midnightblue" points="850.216,-148.502 858.958,-142.516 848.391,-141.744 850.216,-148.502"/>
</g>
<!-- Node18 -->
<g id="node18" class="node"><title>Node18</title>
<g id="a_node18"><a xlink:href="Quality_8h.html" target="_top" xlink:title="QualityControl/Quality.h">
<polygon fill="none" stroke="black" points="926,-62 926,-81 1047,-81 1047,-62 926,-62"/>
<text text-anchor="middle" x="986.5" y="-69" font-family="Helvetica,sans-Serif" font-size="10.00">QualityControl/Quality.h</text>
</a>
</g>
</g>
<!-- Node12&#45;&gt;Node18 -->
<g id="edge21" class="edge"><title>Node12&#45;&gt;Node18</title>
<path fill="none" stroke="midnightblue" d="M771.178,-185.597C845.21,-181.618 947.499,-171.052 975.5,-143 988.739,-129.737 990.173,-107.529 989.13,-91.5809"/>
<polygon fill="midnightblue" stroke="midnightblue" points="992.576,-90.8785 988.066,-81.2913 985.613,-91.5981 992.576,-90.8785"/>
</g>
<!-- Node20 -->
<g id="node20" class="node"><title>Node20</title>
<polygon fill="none" stroke="#bfbfbf" points="246,-0.5 246,-19.5 287,-19.5 287,-0.5 246,-0.5"/>
<text text-anchor="middle" x="266.5" y="-7.5" font-family="Helvetica,sans-Serif" font-size="10.00">string</text>
</g>
<!-- Node12&#45;&gt;Node20 -->
<g id="edge35" class="edge"><title>Node12&#45;&gt;Node20</title>
<path fill="none" stroke="midnightblue" d="M609.893,-179.833C496.924,-168.234 304.514,-147.853 298.5,-143 264.642,-115.677 262.967,-59.1706 264.671,-29.7412"/>
<polygon fill="midnightblue" stroke="midnightblue" points="268.175,-29.8258 265.462,-19.5844 261.196,-29.2828 268.175,-29.8258"/>
</g>
<!-- Node21 -->
<g id="node21" class="node"><title>Node21</title>
<g id="a_node21"><a xlink:href="TaskConfig_8h.html" target="_top" xlink:title="QualityControl/TaskConfig.h">
<polygon fill="none" stroke="black" points="79.5,-123.5 79.5,-142.5 219.5,-142.5 219.5,-123.5 79.5,-123.5"/>
<text text-anchor="middle" x="149.5" y="-130.5" font-family="Helvetica,sans-Serif" font-size="10.00">QualityControl/TaskConfig.h</text>
</a>
</g>
</g>
<!-- Node12&#45;&gt;Node21 -->
<g id="edge22" class="edge"><title>Node12&#45;&gt;Node21</title>
<path fill="none" stroke="midnightblue" d="M609.971,-179.845C607.112,-179.559 604.282,-179.277 601.5,-179 437.971,-162.733 396.98,-159.754 233.5,-143 232.228,-142.87 230.945,-142.738 229.654,-142.604"/>
<polygon fill="midnightblue" stroke="midnightblue" points="229.93,-139.114 219.621,-141.562 229.206,-146.077 229.93,-139.114"/>
</g>
<!-- Node22 -->
<g id="node22" class="node"><title>Node22</title>
<g id="a_node22"><a xlink:href="ServiceDiscovery_8h_source.html" target="_top" xlink:title="QualityControl/ServiceDiscovery.h">
<polygon fill="none" stroke="black" points="307,-123.5 307,-142.5 474,-142.5 474,-123.5 307,-123.5"/>
<text text-anchor="middle" x="390.5" y="-130.5" font-family="Helvetica,sans-Serif" font-size="10.00">QualityControl/ServiceDiscovery.h</text>
</a>
</g>
</g>
<!-- Node12&#45;&gt;Node22 -->
<g id="edge25" class="edge"><title>Node12&#45;&gt;Node22</title>
<path fill="none" stroke="midnightblue" d="M642.964,-179.444C589.972,-169.905 504.297,-154.483 447.683,-144.293"/>
<polygon fill="midnightblue" stroke="midnightblue" points="448.275,-140.843 437.813,-142.516 447.035,-147.733 448.275,-140.843"/>
</g>
<!-- Node27 -->
<g id="node27" class="node"><title>Node27</title>
<polygon fill="none" stroke="#bfbfbf" points="492,-123.5 492,-142.5 561,-142.5 561,-123.5 492,-123.5"/>
<text text-anchor="middle" x="526.5" y="-130.5" font-family="Helvetica,sans-Serif" font-size="10.00">TObjArray.h</text>
</g>
<!-- Node12&#45;&gt;Node27 -->
<g id="edge32" class="edge"><title>Node12&#45;&gt;Node27</title>
<path fill="none" stroke="midnightblue" d="M664.514,-179.444C636.804,-170.32 592.748,-155.813 561.884,-145.651"/>
<polygon fill="midnightblue" stroke="midnightblue" points="562.958,-142.32 552.365,-142.516 560.768,-148.968 562.958,-142.32"/>
</g>
<!-- Node28 -->
<g id="node28" class="node"><title>Node28</title>
<polygon fill="none" stroke="#bfbfbf" points="579,-123.5 579,-142.5 650,-142.5 650,-123.5 579,-123.5"/>
<text text-anchor="middle" x="614.5" y="-130.5" font-family="Helvetica,sans-Serif" font-size="10.00">TObjString.h</text>
</g>
<!-- Node12&#45;&gt;Node28 -->
<g id="edge33" class="edge"><title>Node12&#45;&gt;Node28</title>
<path fill="none" stroke="midnightblue" d="M678.289,-179.324C666.724,-171.107 649.125,-158.602 635.339,-148.807"/>
<polygon fill="midnightblue" stroke="midnightblue" points="637.112,-145.773 626.933,-142.834 633.057,-151.479 637.112,-145.773"/>
</g>
<!-- Node29 -->
<g id="node29" class="node"><title>Node29</title>
<polygon fill="none" stroke="#bfbfbf" points="668.5,-123.5 668.5,-142.5 796.5,-142.5 796.5,-123.5 668.5,-123.5"/>
<text text-anchor="middle" x="732.5" y="-130.5" font-family="Helvetica,sans-Serif" font-size="10.00">boost/concept_check.hpp</text>
</g>
<!-- Node12&#45;&gt;Node29 -->
<g id="edge34" class="edge"><title>Node12&#45;&gt;Node29</title>
<path fill="none" stroke="midnightblue" d="M697.435,-179.083C703.429,-171.377 712.252,-160.033 719.548,-150.653"/>
<polygon fill="midnightblue" stroke="midnightblue" points="722.317,-152.793 725.694,-142.751 716.791,-148.496 722.317,-152.793"/>
</g>
<!-- Node13&#45;&gt;Node14 -->
<g id="edge13" class="edge"><title>Node13&#45;&gt;Node14</title>
<path fill="none" stroke="midnightblue" d="M926.811,-123.47C960.691,-115.203 1012.48,-101.774 1056.5,-87 1058.63,-86.2858 1060.81,-85.512 1063,-84.7061"/>
<polygon fill="midnightblue" stroke="midnightblue" points="1064.4,-87.9167 1072.47,-81.0535 1061.88,-81.3854 1064.4,-87.9167"/>
</g>
<!-- Node15 -->
<g id="node15" class="node"><title>Node15</title>
<polygon fill="none" stroke="#bfbfbf" points="834,-62 834,-81 869,-81 869,-62 834,-62"/>
<text text-anchor="middle" x="851.5" y="-69" font-family="Helvetica,sans-Serif" font-size="10.00">map</text>
</g>
<!-- Node13&#45;&gt;Node15 -->
<g id="edge14" class="edge"><title>Node13&#45;&gt;Node15</title>
<path fill="none" stroke="midnightblue" d="M884.912,-123.475C879.12,-114.638 869.911,-100.589 862.626,-89.475"/>
<polygon fill="midnightblue" stroke="midnightblue" points="865.487,-87.4539 857.077,-81.0091 859.632,-91.2913 865.487,-87.4539"/>
</g>
<!-- Node16 -->
<g id="node16" class="node"><title>Node16</title>
<polygon fill="none" stroke="#bfbfbf" points="875,-0.5 875,-19.5 934,-19.5 934,-0.5 875,-0.5"/>
<text text-anchor="middle" x="904.5" y="-7.5" font-family="Helvetica,sans-Serif" font-size="10.00">TObject.h</text>
</g>
<!-- Node13&#45;&gt;Node16 -->
<g id="edge15" class="edge"><title>Node13&#45;&gt;Node16</title>
<path fill="none" stroke="midnightblue" d="M891.507,-123.298C893.757,-103.85 899.237,-56.49 902.313,-29.9036"/>
<polygon fill="midnightblue" stroke="midnightblue" points="905.83,-29.9592 903.502,-19.6232 898.876,-29.1546 905.83,-29.9592"/>
</g>
<!-- Node17 -->
<g id="node17" class="node"><title>Node17</title>
<polygon fill="none" stroke="#bfbfbf" points="629.5,-62 629.5,-81 745.5,-81 745.5,-62 629.5,-62"/>
<text text-anchor="middle" x="687.5" y="-69" font-family="Helvetica,sans-Serif" font-size="10.00">Common/Exceptions.h</text>
</g>
<!-- Node13&#45;&gt;Node17 -->
<g id="edge16" class="edge"><title>Node13&#45;&gt;Node17</title>
<path fill="none" stroke="midnightblue" d="M861.415,-123.475C825.915,-113.07 765.755,-95.4367 726.326,-83.8801"/>
<polygon fill="midnightblue" stroke="midnightblue" points="727.112,-80.4632 716.531,-81.0091 725.143,-87.1806 727.112,-80.4632"/>
</g>
<!-- Node13&#45;&gt;Node18 -->
<g id="edge17" class="edge"><title>Node13&#45;&gt;Node18</title>
<path fill="none" stroke="midnightblue" d="M904.254,-123.475C919.866,-113.799 945.563,-97.8721 964.083,-86.3941"/>
<polygon fill="midnightblue" stroke="midnightblue" points="966.115,-89.2522 972.771,-81.0091 962.427,-83.3023 966.115,-89.2522"/>
</g>
<!-- Node18&#45;&gt;Node16 -->
<g id="edge18" class="edge"><title>Node18&#45;&gt;Node16</title>
<path fill="none" stroke="midnightblue" d="M974.751,-61.9751C961.721,-52.5199 940.464,-37.0961 924.741,-25.6871"/>
<polygon fill="midnightblue" stroke="midnightblue" points="926.376,-22.5492 916.227,-19.5091 922.265,-28.2149 926.376,-22.5492"/>
</g>
<!-- Node19 -->
<g id="node19" class="node"><title>Node19</title>
<polygon fill="none" stroke="#bfbfbf" points="960.5,-0.5 960.5,-19.5 1012.5,-19.5 1012.5,-0.5 960.5,-0.5"/>
<text text-anchor="middle" x="986.5" y="-7.5" font-family="Helvetica,sans-Serif" font-size="10.00">ostream</text>
</g>
<!-- Node18&#45;&gt;Node19 -->
<g id="edge19" class="edge"><title>Node18&#45;&gt;Node19</title>
<path fill="none" stroke="midnightblue" d="M986.5,-61.9751C986.5,-53.5803 986.5,-40.4806 986.5,-29.6631"/>
<polygon fill="midnightblue" stroke="midnightblue" points="990,-29.5091 986.5,-19.5091 983,-29.5091 990,-29.5091"/>
</g>
<!-- Node18&#45;&gt;Node20 -->
<g id="edge20" class="edge"><title>Node18&#45;&gt;Node20</title>
<path fill="none" stroke="midnightblue" d="M928.003,-61.9942C911.978,-59.8419 894.589,-57.67 878.5,-56 656.006,-32.9051 386.795,-17.423 297.169,-12.6017"/>
<polygon fill="midnightblue" stroke="midnightblue" points="297.316,-9.10468 287.144,-12.0668 296.943,-16.0947 297.316,-9.10468"/>
</g>
<!-- Node21&#45;&gt;Node10 -->
<g id="edge24" class="edge"><title>Node21&#45;&gt;Node10</title>
<path fill="none" stroke="midnightblue" d="M137.751,-123.475C126.646,-115.417 109.565,-103.023 95.0273,-92.4741"/>
<polygon fill="midnightblue" stroke="midnightblue" points="96.9751,-89.5631 86.8258,-86.523 92.864,-95.2287 96.9751,-89.5631"/>
</g>
<!-- Node21&#45;&gt;Node20 -->
<g id="edge23" class="edge"><title>Node21&#45;&gt;Node20</title>
<path fill="none" stroke="midnightblue" d="M157.914,-123.298C177.394,-103.153 225.834,-53.056 250.908,-27.1247"/>
<polygon fill="midnightblue" stroke="midnightblue" points="253.727,-29.245 258.162,-19.6232 248.694,-24.3791 253.727,-29.245"/>
</g>
<!-- Node22&#45;&gt;Node6 -->
<g id="edge28" class="edge"><title>Node22&#45;&gt;Node6</title>
<path fill="none" stroke="midnightblue" d="M468.673,-123.469C567.357,-112.524 727.563,-94.1047 754.5,-87 756.948,-86.3542 759.452,-85.5747 761.939,-84.7163"/>
<polygon fill="midnightblue" stroke="midnightblue" points="763.209,-87.9777 771.295,-81.1307 760.704,-81.4413 763.209,-87.9777"/>
</g>
<!-- Node22&#45;&gt;Node20 -->
<g id="edge29" class="edge"><title>Node22&#45;&gt;Node20</title>
<path fill="none" stroke="midnightblue" d="M365.242,-123.369C346.832,-116.041 322.276,-103.991 305.5,-87 289.26,-70.5515 278.339,-45.9607 272.279,-29.2391"/>
<polygon fill="midnightblue" stroke="midnightblue" points="275.52,-27.8968 268.993,-19.5516 268.891,-30.1459 275.52,-27.8968"/>
</g>
<!-- Node23 -->
<g id="node23" class="node"><title>Node23</title>
<polygon fill="none" stroke="#bfbfbf" points="565.5,-62 565.5,-81 611.5,-81 611.5,-62 565.5,-62"/>
<text text-anchor="middle" x="588.5" y="-69" font-family="Helvetica,sans-Serif" font-size="10.00">atomic</text>
</g>
<!-- Node22&#45;&gt;Node23 -->
<g id="edge26" class="edge"><title>Node22&#45;&gt;Node23</title>
<path fill="none" stroke="midnightblue" d="M428.948,-123.435C462.944,-115.424 513.649,-102.404 556.5,-87 558.118,-86.4184 559.767,-85.7891 561.422,-85.1297"/>
<polygon fill="midnightblue" stroke="midnightblue" points="562.943,-88.2863 570.769,-81.1452 560.198,-81.8469 562.943,-88.2863"/>
</g>
<!-- Node24 -->
<g id="node24" class="node"><title>Node24</title>
<polygon fill="none" stroke="#bfbfbf" points="314,-62 314,-81 373,-81 373,-62 314,-62"/>
<text text-anchor="middle" x="343.5" y="-69" font-family="Helvetica,sans-Serif" font-size="10.00">curl/curl.h</text>
</g>
<!-- Node22&#45;&gt;Node24 -->
<g id="edge27" class="edge"><title>Node22&#45;&gt;Node24</title>
<path fill="none" stroke="midnightblue" d="M383.766,-123.475C376.716,-114.55 365.465,-100.307 356.646,-89.1425"/>
<polygon fill="midnightblue" stroke="midnightblue" points="359.167,-86.6867 350.221,-81.0091 353.674,-91.0258 359.167,-86.6867"/>
</g>
<!-- Node25 -->
<g id="node25" class="node"><title>Node25</title>
<polygon fill="none" stroke="#bfbfbf" points="391.5,-62 391.5,-81 435.5,-81 435.5,-62 391.5,-62"/>
<text text-anchor="middle" x="413.5" y="-69" font-family="Helvetica,sans-Serif" font-size="10.00">thread</text>
</g>
<!-- Node22&#45;&gt;Node25 -->
<g id="edge30" class="edge"><title>Node22&#45;&gt;Node25</title>
<path fill="none" stroke="midnightblue" d="M393.795,-123.475C397.109,-114.904 402.318,-101.427 406.549,-90.483"/>
<polygon fill="midnightblue" stroke="midnightblue" points="409.87,-91.5984 410.211,-81.0091 403.341,-89.0745 409.87,-91.5984"/>
</g>
<!-- Node26 -->
<g id="node26" class="node"><title>Node26</title>
<polygon fill="none" stroke="#bfbfbf" points="453.5,-56.5 453.5,-86.5 547.5,-86.5 547.5,-56.5 453.5,-56.5"/>
<text text-anchor="start" x="461.5" y="-74.5" font-family="Helvetica,sans-Serif" font-size="10.00">boost/asio/ip/host</text>
<text text-anchor="middle" x="500.5" y="-63.5" font-family="Helvetica,sans-Serif" font-size="10.00">_name.hpp</text>
</g>
<!-- Node22&#45;&gt;Node26 -->
<g id="edge31" class="edge"><title>Node22&#45;&gt;Node26</title>
<path fill="none" stroke="midnightblue" d="M406.26,-123.475C421.715,-115.115 445.795,-102.09 465.745,-91.2991"/>
<polygon fill="midnightblue" stroke="midnightblue" points="467.445,-94.3592 474.575,-86.523 464.114,-88.2022 467.445,-94.3592"/>
</g>
<!-- Node32&#45;&gt;Node5 -->
<g id="edge40" class="edge"><title>Node32&#45;&gt;Node5</title>
<path fill="none" stroke="midnightblue" d="M450.5,-296.975C450.5,-288.58 450.5,-275.481 450.5,-264.663"/>
<polygon fill="midnightblue" stroke="midnightblue" points="454,-264.509 450.5,-254.509 447,-264.509 454,-264.509"/>
</g>
</g>
</svg>
        <g id="navigator" transform="translate(0 0)" fill="#404254">
                <rect fill="#f2f5e9" fill-opacity="0.5" stroke="#606060" stroke-width=".5" x="0" y="0" width="60" height="60"/>
                <use id="zoomplus" xlink:href="#zoomPlus" x="17" y="9" onmousedown="handleZoom(evt,'in')"/>
                <use id="zoomminus" xlink:href="#zoomMin" x="42" y="9" onmousedown="handleZoom(evt,'out')"/>
                <use id="reset" xlink:href="#resetDef" x="30" y="36" onmousedown="handleReset()"/>
                <g id="arrowUp" xlink:href="#dirArrow" transform="translate(30 24)" onmousedown="handlePan(0,-1)">
                  <use xlink:href="#rim" fill="#404040">
                        <set attributeName="fill" to="#808080" begin="arrowUp.mouseover" end="arrowUp.mouseout"/>
                  </use>
                  <path fill="none" stroke="white" stroke-width="1.5" d="M0,-3.0v7 M-2.5,-0.5L0,-3.0L2.5,-0.5"/>
                </g>
                <g id="arrowRight" xlink:href="#dirArrow" transform="rotate(90) translate(36 -43)" onmousedown="handlePan(1,0)">
                  <use xlink:href="#rim" fill="#404040">
                        <set attributeName="fill" to="#808080" begin="arrowRight.mouseover" end="arrowRight.mouseout"/>
                  </use>
                  <path fill="none" stroke="white" stroke-width="1.5" d="M0,-3.0v7 M-2.5,-0.5L0,-3.0L2.5,-0.5"/>
                </g>
                <g id="arrowDown" xlink:href="#dirArrow" transform="rotate(180) translate(-30 -48)" onmousedown="handlePan(0,1)">
                  <use xlink:href="#rim" fill="#404040">
                        <set attributeName="fill" to="#808080" begin="arrowDown.mouseover" end="arrowDown.mouseout"/>
                  </use>
                  <path fill="none" stroke="white" stroke-width="1.5" d="M0,-3.0v7 M-2.5,-0.5L0,-3.0L2.5,-0.5"/>
                </g>
                <g id="arrowLeft" xlink:href="#dirArrow" transform="rotate(270) translate(-36 17)" onmousedown="handlePan(-1,0)">
                  <use xlink:href="#rim" fill="#404040">
                        <set attributeName="fill" to="#808080" begin="arrowLeft.mouseover" end="arrowLeft.mouseout"/>
                  </use>
                  <path fill="none" stroke="white" stroke-width="1.5" d="M0,-3.0v7 M-2.5,-0.5L0,-3.0L2.5,-0.5"/>
                </g>
        </g>
        <svg viewBox="0 0 15 15" width="100%" height="30px" preserveAspectRatio="xMaxYMin meet">
         <g id="arrow_out" transform="scale(0.3 0.3)">
          <a xlink:href="DigitsQcTask_8cxx__incl_org.svg" target="_base">
           <rect id="button" ry="5" rx="5" y="6" x="6" height="38" width="38"
                fill="#f2f5e9" fill-opacity="0.5" stroke="#606060" stroke-width="1.0"/>
           <path id="arrow"
             d="M 11.500037,31.436501 C 11.940474,20.09759 22.043105,11.32322 32.158766,21.979434 L 37.068811,17.246167 C 37.068811,17.246167 37.088388,32 37.088388,32 L 22.160133,31.978069 C 22.160133,31.978069 26.997745,27.140456 26.997745,27.140456 C 18.528582,18.264221 13.291696,25.230495 11.500037,31.436501 z"
             style="fill:#404040;"/>
          </a>
         </g>
        </svg>
</svg>
