<?xml version="1.0" encoding="UTF-8" standalone="no"?>
<!DOCTYPE svg PUBLIC "-//W3C//DTD SVG 1.1//EN"
 "http://www.w3.org/Graphics/SVG/1.1/DTD/svg11.dtd">
<!-- Generated by graphviz version 2.38.0 (20140413.2041)
 -->
<!-- Title: Modules/Example/src/ExampleTask.cxx Pages: 1 -->
<svg width="1166pt" height="386pt"
 viewBox="0.00 0.00 1166.00 386.00" xmlns="http://www.w3.org/2000/svg" xmlns:xlink="http://www.w3.org/1999/xlink">
<g id="graph0" class="graph" transform="scale(1 1) rotate(0) translate(4 382)">
<title>Modules/Example/src/ExampleTask.cxx</title>
<!-- Node1 -->
<g id="node1" class="node"><title>Node1</title>
<polygon fill="#bfbfbf" stroke="black" points="609.5,-347.5 609.5,-377.5 720.5,-377.5 720.5,-347.5 609.5,-347.5"/>
<text text-anchor="start" x="617.5" y="-365.5" font-family="Helvetica,sans-Serif" font-size="10.00">Modules/Example/src</text>
<text text-anchor="middle" x="665" y="-354.5" font-family="Helvetica,sans-Serif" font-size="10.00">/ExampleTask.cxx</text>
</g>
<!-- Node2 -->
<g id="node2" class="node"><title>Node2</title>
<g id="a_node2"><a xlink:href="ExampleTask_8h.html" target="_top" xlink:title="Example/ExampleTask.h">
<polygon fill="none" stroke="black" points="297,-291.5 297,-310.5 423,-310.5 423,-291.5 297,-291.5"/>
<text text-anchor="middle" x="360" y="-298.5" font-family="Helvetica,sans-Serif" font-size="10.00">Example/ExampleTask.h</text>
</a>
</g>
</g>
<!-- Node1&#45;&gt;Node2 -->
<g id="edge1" class="edge"><title>Node1&#45;&gt;Node2</title>
<path fill="none" stroke="midnightblue" d="M609.413,-350.656C553.77,-339.801 468.734,-323.212 413.749,-312.486"/>
<polygon fill="midnightblue" stroke="midnightblue" points="414.331,-309.033 403.846,-310.554 412.991,-315.904 414.331,-309.033"/>
</g>
<!-- Node28 -->
<g id="node28" class="node"><title>Node28</title>
<g id="a_node28"><a xlink:href="QcInfoLogger_8h.html" target="_top" xlink:title="QualityControl/QcInfoLogger.h">
<polygon fill="none" stroke="black" points="441.5,-291.5 441.5,-310.5 590.5,-310.5 590.5,-291.5 441.5,-291.5"/>
<text text-anchor="middle" x="516" y="-298.5" font-family="Helvetica,sans-Serif" font-size="10.00">QualityControl/QcInfoLogger.h</text>
</a>
</g>
</g>
<!-- Node1&#45;&gt;Node28 -->
<g id="edge34" class="edge"><title>Node1&#45;&gt;Node28</title>
<path fill="none" stroke="midnightblue" d="M629.689,-347.399C604.578,-337.372 571.163,-324.028 547.065,-314.405"/>
<polygon fill="midnightblue" stroke="midnightblue" points="548.266,-311.116 537.681,-310.658 545.67,-317.617 548.266,-311.116"/>
</g>
<!-- Node30 -->
<g id="node30" class="node"><title>Node30</title>
<polygon fill="none" stroke="#bfbfbf" points="608.5,-291.5 608.5,-310.5 721.5,-310.5 721.5,-291.5 608.5,-291.5"/>
<text text-anchor="middle" x="665" y="-298.5" font-family="Helvetica,sans-Serif" font-size="10.00">Common/DataBlock.h</text>
</g>
<!-- Node1&#45;&gt;Node30 -->
<g id="edge38" class="edge"><title>Node1&#45;&gt;Node30</title>
<path fill="none" stroke="midnightblue" d="M665,-347.399C665,-339.466 665,-329.458 665,-320.858"/>
<polygon fill="midnightblue" stroke="midnightblue" points="668.5,-320.658 665,-310.658 661.5,-320.658 668.5,-320.658"/>
</g>
<!-- Node31 -->
<g id="node31" class="node"><title>Node31</title>
<polygon fill="none" stroke="#bfbfbf" points="739.5,-291.5 739.5,-310.5 804.5,-310.5 804.5,-291.5 739.5,-291.5"/>
<text text-anchor="middle" x="772" y="-298.5" font-family="Helvetica,sans-Serif" font-size="10.00">TCanvas.h</text>
</g>
<!-- Node1&#45;&gt;Node31 -->
<g id="edge39" class="edge"><title>Node1&#45;&gt;Node31</title>
<path fill="none" stroke="midnightblue" d="M690.358,-347.399C707.669,-337.773 730.476,-325.09 747.584,-315.577"/>
<polygon fill="midnightblue" stroke="midnightblue" points="749.392,-318.577 756.431,-310.658 745.99,-312.459 749.392,-318.577"/>
</g>
<!-- Node32 -->
<g id="node32" class="node"><title>Node32</title>
<polygon fill="none" stroke="#bfbfbf" points="823,-291.5 823,-310.5 867,-310.5 867,-291.5 823,-291.5"/>
<text text-anchor="middle" x="845" y="-298.5" font-family="Helvetica,sans-Serif" font-size="10.00">TH1.h</text>
</g>
<!-- Node1&#45;&gt;Node32 -->
<g id="edge40" class="edge"><title>Node1&#45;&gt;Node32</title>
<path fill="none" stroke="midnightblue" d="M707.657,-347.399C740.02,-336.702 783.801,-322.23 813.151,-312.528"/>
<polygon fill="midnightblue" stroke="midnightblue" points="814.493,-315.771 822.889,-309.309 812.296,-309.124 814.493,-315.771"/>
</g>
<!-- Node3 -->
<g id="node3" class="node"><title>Node3</title>
<g id="a_node3"><a xlink:href="TaskInterface_8h.html" target="_top" xlink:title="QualityControl/TaskInterface.h">
<polygon fill="none" stroke="black" points="284,-235.5 284,-254.5 434,-254.5 434,-235.5 284,-235.5"/>
<text text-anchor="middle" x="359" y="-242.5" font-family="Helvetica,sans-Serif" font-size="10.00">QualityControl/TaskInterface.h</text>
</a>
</g>
</g>
<!-- Node2&#45;&gt;Node3 -->
<g id="edge2" class="edge"><title>Node2&#45;&gt;Node3</title>
<path fill="none" stroke="midnightblue" d="M359.835,-291.083C359.704,-284.006 359.516,-273.861 359.352,-264.986"/>
<polygon fill="midnightblue" stroke="midnightblue" points="362.847,-264.685 359.162,-254.751 355.848,-264.814 362.847,-264.685"/>
</g>
<!-- Node4 -->
<g id="node4" class="node"><title>Node4</title>
<polygon fill="none" stroke="#bfbfbf" points="0,-62 0,-81 52,-81 52,-62 0,-62"/>
<text text-anchor="middle" x="26" y="-69" font-family="Helvetica,sans-Serif" font-size="10.00">memory</text>
</g>
<!-- Node3&#45;&gt;Node4 -->
<g id="edge3" class="edge"><title>Node3&#45;&gt;Node4</title>
<path fill="none" stroke="midnightblue" d="M283.63,-244.171C198.282,-242.614 66.7936,-234.33 34,-199 6.89494,-169.799 14.1281,-118.628 20.6863,-91.1691"/>
<polygon fill="midnightblue" stroke="midnightblue" points="24.126,-91.8495 23.267,-81.2895 17.3532,-90.0803 24.126,-91.8495"/>
</g>
<!-- Node5 -->
<g id="node5" class="node"><title>Node5</title>
<polygon fill="none" stroke="#bfbfbf" points="184.5,-179.5 184.5,-198.5 233.5,-198.5 233.5,-179.5 184.5,-179.5"/>
<text text-anchor="middle" x="209" y="-186.5" font-family="Helvetica,sans-Serif" font-size="10.00">cassert</text>
</g>
<!-- Node3&#45;&gt;Node5 -->
<g id="edge4" class="edge"><title>Node3&#45;&gt;Node5</title>
<path fill="none" stroke="midnightblue" d="M335.232,-235.444C310.107,-226.399 270.289,-212.064 242.1,-201.916"/>
<polygon fill="midnightblue" stroke="midnightblue" points="243.251,-198.611 232.657,-198.516 240.88,-205.197 243.251,-198.611"/>
</g>
<!-- Node6 -->
<g id="node6" class="node"><title>Node6</title>
<polygon fill="none" stroke="#bfbfbf" points="251.5,-179.5 251.5,-198.5 376.5,-198.5 376.5,-179.5 251.5,-179.5"/>
<text text-anchor="middle" x="314" y="-186.5" font-family="Helvetica,sans-Serif" font-size="10.00">Framework/InitContext.h</text>
</g>
<!-- Node3&#45;&gt;Node6 -->
<g id="edge5" class="edge"><title>Node3&#45;&gt;Node6</title>
<path fill="none" stroke="midnightblue" d="M351.569,-235.083C345.147,-227.377 335.694,-216.033 327.878,-206.653"/>
<polygon fill="midnightblue" stroke="midnightblue" points="330.383,-204.193 321.293,-198.751 325.006,-208.674 330.383,-204.193"/>
</g>
<!-- Node7 -->
<g id="node7" class="node"><title>Node7</title>
<polygon fill="none" stroke="#bfbfbf" points="433,-179.5 433,-198.5 593,-198.5 593,-179.5 433,-179.5"/>
<text text-anchor="middle" x="513" y="-186.5" font-family="Helvetica,sans-Serif" font-size="10.00">Framework/ProcessingContext.h</text>
</g>
<!-- Node3&#45;&gt;Node7 -->
<g id="edge6" class="edge"><title>Node3&#45;&gt;Node7</title>
<path fill="none" stroke="midnightblue" d="M383.402,-235.444C409.197,-226.399 450.077,-212.064 479.018,-201.916"/>
<polygon fill="midnightblue" stroke="midnightblue" points="480.434,-205.128 488.712,-198.516 478.118,-198.523 480.434,-205.128"/>
</g>
<!-- Node8 -->
<g id="node8" class="node"><title>Node8</title>
<polygon fill="none" stroke="#bfbfbf" points="435.5,-56.5 435.5,-86.5 570.5,-86.5 570.5,-56.5 435.5,-56.5"/>
<text text-anchor="start" x="443.5" y="-74.5" font-family="Helvetica,sans-Serif" font-size="10.00">Configuration/Configuration</text>
<text text-anchor="middle" x="503" y="-63.5" font-family="Helvetica,sans-Serif" font-size="10.00">Interface.h</text>
</g>
<!-- Node3&#45;&gt;Node8 -->
<g id="edge7" class="edge"><title>Node3&#45;&gt;Node8</title>
<path fill="none" stroke="midnightblue" d="M364.113,-235.445C369.451,-226.446 378.005,-211.834 385,-199 403.169,-165.664 398.454,-151.086 424,-123 435.321,-110.553 450.378,-99.9253 464.309,-91.6762"/>
<polygon fill="midnightblue" stroke="midnightblue" points="466.28,-94.5823 473.251,-86.6037 462.826,-88.4938 466.28,-94.5823"/>
</g>
<!-- Node9 -->
<g id="node9" class="node"><title>Node9</title>
<g id="a_node9"><a xlink:href="Activity_8h.html" target="_top" xlink:title="QualityControl/Activity.h">
<polygon fill="none" stroke="black" points="43.5,-179.5 43.5,-198.5 166.5,-198.5 166.5,-179.5 43.5,-179.5"/>
<text text-anchor="middle" x="105" y="-186.5" font-family="Helvetica,sans-Serif" font-size="10.00">QualityControl/Activity.h</text>
</a>
</g>
</g>
<!-- Node3&#45;&gt;Node9 -->
<g id="edge8" class="edge"><title>Node3&#45;&gt;Node9</title>
<path fill="none" stroke="midnightblue" d="M318.753,-235.444C274.35,-226.004 202.847,-210.802 154.912,-200.611"/>
<polygon fill="midnightblue" stroke="midnightblue" points="155.568,-197.173 145.059,-198.516 154.112,-204.02 155.568,-197.173"/>
</g>
<!-- Node10 -->
<g id="node10" class="node"><title>Node10</title>
<g id="a_node10"><a xlink:href="ObjectsManager_8h.html" target="_top" xlink:title="QualityControl/ObjectsManager.h">
<polygon fill="none" stroke="black" points="666.5,-179.5 666.5,-198.5 827.5,-198.5 827.5,-179.5 666.5,-179.5"/>
<text text-anchor="middle" x="747" y="-186.5" font-family="Helvetica,sans-Serif" font-size="10.00">QualityControl/ObjectsManager.h</text>
</a>
</g>
</g>
<!-- Node3&#45;&gt;Node10 -->
<g id="edge9" class="edge"><title>Node3&#45;&gt;Node10</title>
<path fill="none" stroke="midnightblue" d="M420.48,-235.444C489.868,-225.786 602.583,-210.099 675.754,-199.916"/>
<polygon fill="midnightblue" stroke="midnightblue" points="676.386,-203.362 685.808,-198.516 675.421,-196.428 676.386,-203.362"/>
</g>
<!-- Node11 -->
<g id="node11" class="node"><title>Node11</title>
<g id="a_node11"><a xlink:href="MonitorObject_8h.html" target="_top" xlink:title="QualityControl/MonitorObject.h">
<polygon fill="none" stroke="black" points="775.5,-123.5 775.5,-142.5 926.5,-142.5 926.5,-123.5 775.5,-123.5"/>
<text text-anchor="middle" x="851" y="-130.5" font-family="Helvetica,sans-Serif" font-size="10.00">QualityControl/MonitorObject.h</text>
</a>
</g>
</g>
<!-- Node10&#45;&gt;Node11 -->
<g id="edge10" class="edge"><title>Node10&#45;&gt;Node11</title>
<path fill="none" stroke="midnightblue" d="M763.709,-179.324C780.312,-170.703 806.002,-157.364 825.22,-147.386"/>
<polygon fill="midnightblue" stroke="midnightblue" points="827.07,-150.369 834.332,-142.655 823.844,-144.156 827.07,-150.369"/>
</g>
<!-- Node16 -->
<g id="node16" class="node"><title>Node16</title>
<g id="a_node16"><a xlink:href="Quality_8h.html" target="_top" xlink:title="QualityControl/Quality.h">
<polygon fill="none" stroke="black" points="925.5,-62 925.5,-81 1046.5,-81 1046.5,-62 925.5,-62"/>
<text text-anchor="middle" x="986" y="-69" font-family="Helvetica,sans-Serif" font-size="10.00">QualityControl/Quality.h</text>
</a>
</g>
</g>
<!-- Node10&#45;&gt;Node16 -->
<g id="edge19" class="edge"><title>Node10&#45;&gt;Node16</title>
<path fill="none" stroke="midnightblue" d="M827.944,-181.306C863.159,-175.33 903.482,-164.091 935,-143 954.546,-129.92 969.181,-106.675 977.648,-90.4661"/>
<polygon fill="midnightblue" stroke="midnightblue" points="980.818,-91.9524 982.113,-81.4369 974.543,-88.8499 980.818,-91.9524"/>
</g>
<!-- Node18 -->
<g id="node18" class="node"><title>Node18</title>
<polygon fill="none" stroke="#bfbfbf" points="631.5,-0.5 631.5,-19.5 672.5,-19.5 672.5,-0.5 631.5,-0.5"/>
<text text-anchor="middle" x="652" y="-7.5" font-family="Helvetica,sans-Serif" font-size="10.00">string</text>
</g>
<!-- Node10&#45;&gt;Node18 -->
<g id="edge33" class="edge"><title>Node10&#45;&gt;Node18</title>
<path fill="none" stroke="midnightblue" d="M745.951,-179.424C744.052,-166.41 739.155,-141.26 728,-123 715.872,-103.147 703.857,-105.688 690,-87 676.45,-68.7256 665.435,-44.8879 658.818,-28.8217"/>
<polygon fill="midnightblue" stroke="midnightblue" points="662.068,-27.5232 655.123,-19.5227 655.563,-30.1084 662.068,-27.5232"/>
</g>
<!-- Node19 -->
<g id="node19" class="node"><title>Node19</title>
<g id="a_node19"><a xlink:href="TaskConfig_8h.html" target="_top" xlink:title="QualityControl/TaskConfig.h">
<polygon fill="none" stroke="black" points="433,-123.5 433,-142.5 573,-142.5 573,-123.5 433,-123.5"/>
<text text-anchor="middle" x="503" y="-130.5" font-family="Helvetica,sans-Serif" font-size="10.00">QualityControl/TaskConfig.h</text>
</a>
</g>
</g>
<!-- Node10&#45;&gt;Node19 -->
<g id="edge20" class="edge"><title>Node10&#45;&gt;Node19</title>
<path fill="none" stroke="midnightblue" d="M708.337,-179.444C665.862,-170.043 597.569,-154.929 551.526,-144.739"/>
<polygon fill="midnightblue" stroke="midnightblue" points="552.002,-141.26 541.482,-142.516 550.489,-148.095 552.002,-141.26"/>
</g>
<!-- Node20 -->
<g id="node20" class="node"><title>Node20</title>
<g id="a_node20"><a xlink:href="ServiceDiscovery_8h_source.html" target="_top" xlink:title="QualityControl/ServiceDiscovery.h">
<polygon fill="none" stroke="black" points="161.5,-123.5 161.5,-142.5 328.5,-142.5 328.5,-123.5 161.5,-123.5"/>
<text text-anchor="middle" x="245" y="-130.5" font-family="Helvetica,sans-Serif" font-size="10.00">QualityControl/ServiceDiscovery.h</text>
</a>
</g>
</g>
<!-- Node10&#45;&gt;Node20 -->
<g id="edge23" class="edge"><title>Node10&#45;&gt;Node20</title>
<path fill="none" stroke="midnightblue" d="M667.734,-179.473C577.097,-169.724 429.066,-153.8 334.395,-143.616"/>
<polygon fill="midnightblue" stroke="midnightblue" points="334.581,-140.116 324.264,-142.526 333.832,-147.076 334.581,-140.116"/>
</g>
<!-- Node25 -->
<g id="node25" class="node"><title>Node25</title>
<polygon fill="none" stroke="#bfbfbf" points="983.5,-123.5 983.5,-142.5 1052.5,-142.5 1052.5,-123.5 983.5,-123.5"/>
<text text-anchor="middle" x="1018" y="-130.5" font-family="Helvetica,sans-Serif" font-size="10.00">TObjArray.h</text>
</g>
<!-- Node10&#45;&gt;Node25 -->
<g id="edge30" class="edge"><title>Node10&#45;&gt;Node25</title>
<path fill="none" stroke="midnightblue" d="M789.941,-179.444C840.067,-169.455 922.566,-153.016 973.396,-142.888"/>
<polygon fill="midnightblue" stroke="midnightblue" points="974.306,-146.275 983.429,-140.889 972.938,-139.41 974.306,-146.275"/>
</g>
<!-- Node26 -->
<g id="node26" class="node"><title>Node26</title>
<polygon fill="none" stroke="#bfbfbf" points="1070.5,-123.5 1070.5,-142.5 1141.5,-142.5 1141.5,-123.5 1070.5,-123.5"/>
<text text-anchor="middle" x="1106" y="-130.5" font-family="Helvetica,sans-Serif" font-size="10.00">TObjString.h</text>
</g>
<!-- Node10&#45;&gt;Node26 -->
<g id="edge31" class="edge"><title>Node10&#45;&gt;Node26</title>
<path fill="none" stroke="midnightblue" d="M813.934,-179.494C875.381,-171.437 969.176,-158.518 1060.23,-143.051"/>
<polygon fill="midnightblue" stroke="midnightblue" points="1060.91,-146.487 1070.17,-141.351 1059.72,-139.587 1060.91,-146.487"/>
</g>
<!-- Node27 -->
<g id="node27" class="node"><title>Node27</title>
<polygon fill="none" stroke="#bfbfbf" points="591,-123.5 591,-142.5 719,-142.5 719,-123.5 591,-123.5"/>
<text text-anchor="middle" x="655" y="-130.5" font-family="Helvetica,sans-Serif" font-size="10.00">boost/concept_check.hpp</text>
</g>
<!-- Node10&#45;&gt;Node27 -->
<g id="edge32" class="edge"><title>Node10&#45;&gt;Node27</title>
<path fill="none" stroke="midnightblue" d="M732.219,-179.324C717.733,-170.822 695.427,-157.729 678.507,-147.797"/>
<polygon fill="midnightblue" stroke="midnightblue" points="680.141,-144.698 669.745,-142.655 676.597,-150.735 680.141,-144.698"/>
</g>
<!-- Node12 -->
<g id="node12" class="node"><title>Node12</title>
<polygon fill="none" stroke="#bfbfbf" points="1104,-62 1104,-81 1158,-81 1158,-62 1104,-62"/>
<text text-anchor="middle" x="1131" y="-69" font-family="Helvetica,sans-Serif" font-size="10.00">iostream</text>
</g>
<!-- Node11&#45;&gt;Node12 -->
<g id="edge11" class="edge"><title>Node11&#45;&gt;Node12</title>
<path fill="none" stroke="midnightblue" d="M891.117,-123.475C945.271,-111.967 1041.03,-91.6186 1093.7,-80.4269"/>
<polygon fill="midnightblue" stroke="midnightblue" points="1094.58,-83.8182 1103.63,-78.316 1093.12,-76.9711 1094.58,-83.8182"/>
</g>
<!-- Node13 -->
<g id="node13" class="node"><title>Node13</title>
<polygon fill="none" stroke="#bfbfbf" points="833.5,-62 833.5,-81 868.5,-81 868.5,-62 833.5,-62"/>
<text text-anchor="middle" x="851" y="-69" font-family="Helvetica,sans-Serif" font-size="10.00">map</text>
</g>
<!-- Node11&#45;&gt;Node13 -->
<g id="edge12" class="edge"><title>Node11&#45;&gt;Node13</title>
<path fill="none" stroke="midnightblue" d="M851,-123.475C851,-115.08 851,-101.981 851,-91.1631"/>
<polygon fill="midnightblue" stroke="midnightblue" points="854.5,-91.0091 851,-81.0091 847.5,-91.0091 854.5,-91.0091"/>
</g>
<!-- Node14 -->
<g id="node14" class="node"><title>Node14</title>
<polygon fill="none" stroke="#bfbfbf" points="874.5,-0.5 874.5,-19.5 933.5,-19.5 933.5,-0.5 874.5,-0.5"/>
<text text-anchor="middle" x="904" y="-7.5" font-family="Helvetica,sans-Serif" font-size="10.00">TObject.h</text>
</g>
<!-- Node11&#45;&gt;Node14 -->
<g id="edge13" class="edge"><title>Node11&#45;&gt;Node14</title>
<path fill="none" stroke="midnightblue" d="M856.673,-123.291C862.304,-114.408 870.947,-100.106 877,-87 885.787,-67.9734 893.528,-45.2163 898.443,-29.5946"/>
<polygon fill="midnightblue" stroke="midnightblue" points="901.911,-30.2227 901.497,-19.636 895.219,-28.1704 901.911,-30.2227"/>
</g>
<!-- Node15 -->
<g id="node15" class="node"><title>Node15</title>
<polygon fill="none" stroke="#bfbfbf" points="699,-62 699,-81 815,-81 815,-62 699,-62"/>
<text text-anchor="middle" x="757" y="-69" font-family="Helvetica,sans-Serif" font-size="10.00">Common/Exceptions.h</text>
</g>
<!-- Node11&#45;&gt;Node15 -->
<g id="edge14" class="edge"><title>Node11&#45;&gt;Node15</title>
<path fill="none" stroke="midnightblue" d="M837.532,-123.475C822.315,-113.843 797.313,-98.0175 779.199,-86.5517"/>
<polygon fill="midnightblue" stroke="midnightblue" points="780.764,-83.4002 770.443,-81.0091 777.021,-89.3149 780.764,-83.4002"/>
</g>
<!-- Node11&#45;&gt;Node16 -->
<g id="edge15" class="edge"><title>Node11&#45;&gt;Node16</title>
<path fill="none" stroke="midnightblue" d="M870.342,-123.475C893.099,-113.445 931.092,-96.7002 957.288,-85.1546"/>
<polygon fill="midnightblue" stroke="midnightblue" points="958.955,-88.2449 966.694,-81.0091 956.131,-81.8395 958.955,-88.2449"/>
</g>
<!-- Node16&#45;&gt;Node14 -->
<g id="edge16" class="edge"><title>Node16&#45;&gt;Node14</title>
<path fill="none" stroke="midnightblue" d="M974.251,-61.9751C961.221,-52.5199 939.964,-37.0961 924.241,-25.6871"/>
<polygon fill="midnightblue" stroke="midnightblue" points="925.876,-22.5492 915.727,-19.5091 921.765,-28.2149 925.876,-22.5492"/>
</g>
<!-- Node17 -->
<g id="node17" class="node"><title>Node17</title>
<polygon fill="none" stroke="#bfbfbf" points="960,-0.5 960,-19.5 1012,-19.5 1012,-0.5 960,-0.5"/>
<text text-anchor="middle" x="986" y="-7.5" font-family="Helvetica,sans-Serif" font-size="10.00">ostream</text>
</g>
<!-- Node16&#45;&gt;Node17 -->
<g id="edge17" class="edge"><title>Node16&#45;&gt;Node17</title>
<path fill="none" stroke="midnightblue" d="M986,-61.9751C986,-53.5803 986,-40.4806 986,-29.6631"/>
<polygon fill="midnightblue" stroke="midnightblue" points="989.5,-29.5091 986,-19.5091 982.5,-29.5091 989.5,-29.5091"/>
</g>
<!-- Node16&#45;&gt;Node18 -->
<g id="edge18" class="edge"><title>Node16&#45;&gt;Node18</title>
<path fill="none" stroke="midnightblue" d="M938.146,-61.9751C868.524,-49.5724 741.254,-26.9001 682.82,-16.4904"/>
<polygon fill="midnightblue" stroke="midnightblue" points="683.198,-13.0028 672.739,-14.6946 681.971,-19.8943 683.198,-13.0028"/>
</g>
<!-- Node19&#45;&gt;Node8 -->
<g id="edge22" class="edge"><title>Node19&#45;&gt;Node8</title>
<path fill="none" stroke="midnightblue" d="M503,-123.475C503,-116.471 503,-106.192 503,-96.6956"/>
<polygon fill="midnightblue" stroke="midnightblue" points="506.5,-96.5229 503,-86.523 499.5,-96.523 506.5,-96.5229"/>
</g>
<!-- Node19&#45;&gt;Node18 -->
<g id="edge21" class="edge"><title>Node19&#45;&gt;Node18</title>
<path fill="none" stroke="midnightblue" d="M520.456,-123.406C536.44,-115.144 560.371,-101.76 579,-87 601.746,-68.9771 624.331,-44.1098 638.222,-27.7998"/>
<polygon fill="midnightblue" stroke="midnightblue" points="641.254,-29.6309 644.991,-19.7168 635.887,-25.1368 641.254,-29.6309"/>
</g>
<!-- Node20&#45;&gt;Node4 -->
<g id="edge26" class="edge"><title>Node20&#45;&gt;Node4</title>
<path fill="none" stroke="midnightblue" d="M210.065,-123.468C175.022,-114.779 119.573,-100.676 72,-87 68.6804,-86.0457 65.2362,-85.0225 61.7939,-83.9773"/>
<polygon fill="midnightblue" stroke="midnightblue" points="62.7897,-80.6218 52.2021,-81.0127 60.7226,-87.3097 62.7897,-80.6218"/>
</g>
<!-- Node20&#45;&gt;Node18 -->
<g id="edge27" class="edge"><title>Node20&#45;&gt;Node18</title>
<path fill="none" stroke="midnightblue" d="M286.091,-123.461C315.6,-116.301 355.7,-104.419 388,-87 407.184,-76.6542 406.284,-65.292 426,-56 491.163,-25.2892 576.469,-15.5177 621.343,-12.4228"/>
<polygon fill="midnightblue" stroke="midnightblue" points="621.562,-15.9161 631.324,-11.7999 621.126,-8.92967 621.562,-15.9161"/>
</g>
<!-- Node21 -->
<g id="node21" class="node"><title>Node21</title>
<polygon fill="none" stroke="#bfbfbf" points="81,-62 81,-81 127,-81 127,-62 81,-62"/>
<text text-anchor="middle" x="104" y="-69" font-family="Helvetica,sans-Serif" font-size="10.00">atomic</text>
</g>
<!-- Node20&#45;&gt;Node21 -->
<g id="edge24" class="edge"><title>Node20&#45;&gt;Node21</title>
<path fill="none" stroke="midnightblue" d="M223.606,-123.418C201.563,-114.516 166.249,-100.093 136,-87 134.636,-86.4094 133.241,-85.7999 131.834,-85.1803"/>
<polygon fill="midnightblue" stroke="midnightblue" points="133.124,-81.9232 122.566,-81.0411 130.269,-88.3147 133.124,-81.9232"/>
</g>
<!-- Node22 -->
<g id="node22" class="node"><title>Node22</title>
<polygon fill="none" stroke="#bfbfbf" points="145.5,-62 145.5,-81 204.5,-81 204.5,-62 145.5,-62"/>
<text text-anchor="middle" x="175" y="-69" font-family="Helvetica,sans-Serif" font-size="10.00">curl/curl.h</text>
</g>
<!-- Node20&#45;&gt;Node22 -->
<g id="edge25" class="edge"><title>Node20&#45;&gt;Node22</title>
<path fill="none" stroke="midnightblue" d="M234.971,-123.475C223.951,-114.108 206.04,-98.8839 192.657,-87.5081"/>
<polygon fill="midnightblue" stroke="midnightblue" points="194.897,-84.8188 185.011,-81.0091 190.363,-90.1524 194.897,-84.8188"/>
</g>
<!-- Node23 -->
<g id="node23" class="node"><title>Node23</title>
<polygon fill="none" stroke="#bfbfbf" points="223,-62 223,-81 267,-81 267,-62 223,-62"/>
<text text-anchor="middle" x="245" y="-69" font-family="Helvetica,sans-Serif" font-size="10.00">thread</text>
</g>
<!-- Node20&#45;&gt;Node23 -->
<g id="edge28" class="edge"><title>Node20&#45;&gt;Node23</title>
<path fill="none" stroke="midnightblue" d="M245,-123.475C245,-115.08 245,-101.981 245,-91.1631"/>
<polygon fill="midnightblue" stroke="midnightblue" points="248.5,-91.0091 245,-81.0091 241.5,-91.0091 248.5,-91.0091"/>
</g>
<!-- Node24 -->
<g id="node24" class="node"><title>Node24</title>
<polygon fill="none" stroke="#bfbfbf" points="285,-56.5 285,-86.5 379,-86.5 379,-56.5 285,-56.5"/>
<text text-anchor="start" x="293" y="-74.5" font-family="Helvetica,sans-Serif" font-size="10.00">boost/asio/ip/host</text>
<text text-anchor="middle" x="332" y="-63.5" font-family="Helvetica,sans-Serif" font-size="10.00">_name.hpp</text>
</g>
<!-- Node20&#45;&gt;Node24 -->
<g id="edge29" class="edge"><title>Node20&#45;&gt;Node24</title>
<path fill="none" stroke="midnightblue" d="M257.465,-123.475C269.358,-115.341 287.709,-102.791 303.226,-92.1788"/>
<polygon fill="midnightblue" stroke="midnightblue" points="305.217,-95.0571 311.496,-86.523 301.266,-89.2792 305.217,-95.0571"/>
</g>
<!-- Node28&#45;&gt;Node3 -->
<g id="edge35" class="edge"><title>Node28&#45;&gt;Node3</title>
<path fill="none" stroke="midnightblue" d="M491.123,-291.444C464.711,-282.359 422.785,-267.939 393.258,-257.783"/>
<polygon fill="midnightblue" stroke="midnightblue" points="394.355,-254.459 383.761,-254.516 392.079,-261.079 394.355,-254.459"/>
</g>
<!-- Node28&#45;&gt;Node12 -->
<g id="edge37" class="edge"><title>Node28&#45;&gt;Node12</title>
<path fill="none" stroke="midnightblue" d="M564.718,-291.474C706.823,-266.126 1113.16,-190.078 1150,-143 1162.03,-127.623 1152.71,-105.228 1143.37,-89.8263"/>
<polygon fill="midnightblue" stroke="midnightblue" points="1146.16,-87.701 1137.74,-81.2659 1140.31,-91.5452 1146.16,-87.701"/>
</g>
<!-- Node29 -->
<g id="node29" class="node"><title>Node29</title>
<polygon fill="none" stroke="#bfbfbf" points="452,-235.5 452,-254.5 582,-254.5 582,-235.5 452,-235.5"/>
<text text-anchor="middle" x="517" y="-242.5" font-family="Helvetica,sans-Serif" font-size="10.00">InfoLogger/InfoLogger.hxx</text>
</g>
<!-- Node28&#45;&gt;Node29 -->
<g id="edge36" class="edge"><title>Node28&#45;&gt;Node29</title>
<path fill="none" stroke="midnightblue" d="M516.165,-291.083C516.296,-284.006 516.484,-273.861 516.648,-264.986"/>
<polygon fill="midnightblue" stroke="midnightblue" points="520.152,-264.814 516.838,-254.751 513.153,-264.685 520.152,-264.814"/>
</g>
</g>
</svg>
