<?xml version="1.0" encoding="UTF-8" standalone="no"?>
<!DOCTYPE svg PUBLIC "-//W3C//DTD SVG 1.1//EN"
 "http://www.w3.org/Graphics/SVG/1.1/DTD/svg11.dtd">
<!-- Generated by graphviz version 2.38.0 (20140413.2041)
 -->
<!-- Title: Framework/src/InformationService.cxx Pages: 1 -->
<!--zoomable 397 -->
<svg id="main" version="1.1" xmlns="http://www.w3.org/2000/svg" xmlns:xlink="http://www.w3.org/1999/xlink" xml:space="preserve" onload="init(evt)">
<style type="text/css"><![CDATA[
.edge:hover path { stroke: red; }
.edge:hover polygon { stroke: red; fill: red; }
]]></style>
<script type="text/javascript"><![CDATA[
var edges = document.getElementsByTagName('g');
if (edges && edges.length) {
  for (var i=0;i<edges.length;i++) {
    if (edges[i].id.substr(0,4)=='edge') {
      edges[i].setAttribute('class','edge');
    }
  }
}
]]></script>
        <defs>
                <circle id="rim" cx="0" cy="0" r="7"/>
                <circle id="rim2" cx="0" cy="0" r="3.5"/>
                <g id="zoomPlus">
                        <use xlink:href="#rim" fill="#404040">
                                <set attributeName="fill" to="#808080" begin="zoomplus.mouseover" end="zoomplus.mouseout"/>
                        </use>
                        <path d="M-4,0h8M0,-4v8" fill="none" stroke="white" stroke-width="1.5" pointer-events="none"/>
                </g>
                <g id="zoomMin">
                        <use xlink:href="#rim" fill="#404040">
                                <set attributeName="fill" to="#808080" begin="zoomminus.mouseover" end="zoomminus.mouseout"/>
                        </use>
                        <path d="M-4,0h8" fill="none" stroke="white" stroke-width="1.5" pointer-events="none"/>
                </g>
                <g id="dirArrow">
                        <path fill="none" stroke="white" stroke-width="1.5" d="M0,-3.0v7 M-2.5,-0.5L0,-3.0L2.5,-0.5"/>
                </g>
               <g id="resetDef">
                       <use xlink:href="#rim2" fill="#404040">
                               <set attributeName="fill" to="#808080" begin="reset.mouseover" end="reset.mouseout"/>
                       </use>
               </g>
        </defs>

<script type="text/javascript">
var viewWidth = 1513;
var viewHeight = 397;
var sectionId = 'dynsection-0';
</script>
<script xlink:href="svgpan.js"/>
<svg id="graph" class="graph">
<g id="viewport">
<title>Framework/src/InformationService.cxx</title>
<!-- Node1 -->
<g id="node1" class="node"><title>Node1</title>
<polygon fill="#bfbfbf" stroke="black" points="582.5,-358.5 582.5,-388.5 716.5,-388.5 716.5,-358.5 582.5,-358.5"/>
<text text-anchor="start" x="590.5" y="-376.5" font-family="Helvetica,sans-Serif" font-size="10.00">Framework/src/Information</text>
<text text-anchor="middle" x="649.5" y="-365.5" font-family="Helvetica,sans-Serif" font-size="10.00">Service.cxx</text>
</g>
<!-- Node2 -->
<g id="node2" class="node"><title>Node2</title>
<g id="a_node2"><a xlink:href="InformationService_8h.html" target="_top" xlink:title="InformationService.h">
<polygon fill="none" stroke="black" points="280,-302.5 280,-321.5 387,-321.5 387,-302.5 280,-302.5"/>
<text text-anchor="middle" x="333.5" y="-309.5" font-family="Helvetica,sans-Serif" font-size="10.00">InformationService.h</text>
</a>
</g>
</g>
<!-- Node1&#45;&gt;Node2 -->
<g id="edge1" class="edge"><title>Node1&#45;&gt;Node2</title>
<path fill="none" stroke="midnightblue" d="M582.485,-359.882C524.957,-349.05 443.018,-333.621 389.073,-323.464"/>
<polygon fill="midnightblue" stroke="midnightblue" points="389.481,-319.979 379.006,-321.568 388.186,-326.858 389.481,-319.979"/>
</g>
<!-- Node8 -->
<g id="node8" class="node"><title>Node8</title>
<g id="a_node8"><a xlink:href="QcInfoLogger_8h.html" target="_top" xlink:title="QualityControl/QcInfoLogger.h">
<polygon fill="none" stroke="black" points="496,-302.5 496,-321.5 645,-321.5 645,-302.5 496,-302.5"/>
<text text-anchor="middle" x="570.5" y="-309.5" font-family="Helvetica,sans-Serif" font-size="10.00">QualityControl/QcInfoLogger.h</text>
</a>
</g>
</g>
<!-- Node1&#45;&gt;Node8 -->
<g id="edge7" class="edge"><title>Node1&#45;&gt;Node8</title>
<path fill="none" stroke="midnightblue" d="M630.778,-358.399C618.588,-349.218 602.708,-337.258 590.307,-327.918"/>
<polygon fill="midnightblue" stroke="midnightblue" points="592.089,-324.878 581.995,-321.658 587.877,-330.47 592.089,-324.878"/>
</g>
<!-- Node34 -->
<g id="node34" class="node"><title>Node34</title>
<polygon fill="none" stroke="#bfbfbf" points="663,-302.5 663,-321.5 794,-321.5 794,-302.5 663,-302.5"/>
<text text-anchor="middle" x="728.5" y="-309.5" font-family="Helvetica,sans-Serif" font-size="10.00">boost/token_functions.hpp</text>
</g>
<!-- Node1&#45;&gt;Node34 -->
<g id="edge42" class="edge"><title>Node1&#45;&gt;Node34</title>
<path fill="none" stroke="midnightblue" d="M668.222,-358.399C680.412,-349.218 696.292,-337.258 708.693,-327.918"/>
<polygon fill="midnightblue" stroke="midnightblue" points="711.123,-330.47 717.005,-321.658 706.911,-324.878 711.123,-330.47"/>
</g>
<!-- Node35 -->
<g id="node35" class="node"><title>Node35</title>
<polygon fill="none" stroke="#bfbfbf" points="812.5,-302.5 812.5,-321.5 914.5,-321.5 914.5,-302.5 812.5,-302.5"/>
<text text-anchor="middle" x="863.5" y="-309.5" font-family="Helvetica,sans-Serif" font-size="10.00">boost/tokenizer.hpp</text>
</g>
<!-- Node1&#45;&gt;Node35 -->
<g id="edge43" class="edge"><title>Node1&#45;&gt;Node35</title>
<path fill="none" stroke="midnightblue" d="M699.944,-358.475C737.508,-348.03 788.123,-333.958 823.049,-324.247"/>
<polygon fill="midnightblue" stroke="midnightblue" points="824.209,-327.557 832.906,-321.506 822.334,-320.813 824.209,-327.557"/>
</g>
<!-- Node3 -->
<g id="node3" class="node"><title>Node3</title>
<polygon fill="none" stroke="#bfbfbf" points="238.5,-241 238.5,-260 326.5,-260 326.5,-241 238.5,-241"/>
<text text-anchor="middle" x="282.5" y="-248" font-family="Helvetica,sans-Serif" font-size="10.00">FairMQDevice.h</text>
</g>
<!-- Node2&#45;&gt;Node3 -->
<g id="edge2" class="edge"><title>Node2&#45;&gt;Node3</title>
<path fill="none" stroke="midnightblue" d="M326.193,-302.475C318.467,-293.462 306.092,-279.025 296.482,-267.812"/>
<polygon fill="midnightblue" stroke="midnightblue" points="298.959,-265.324 289.794,-260.009 293.644,-269.879 298.959,-265.324"/>
</g>
<!-- Node4 -->
<g id="node4" class="node"><title>Node4</title>
<polygon fill="none" stroke="#bfbfbf" points="442.5,-241 442.5,-260 572.5,-260 572.5,-241 442.5,-241"/>
<text text-anchor="middle" x="507.5" y="-248" font-family="Helvetica,sans-Serif" font-size="10.00">InfoLogger/InfoLogger.hxx</text>
</g>
<!-- Node2&#45;&gt;Node4 -->
<g id="edge3" class="edge"><title>Node2&#45;&gt;Node4</title>
<path fill="none" stroke="midnightblue" d="M358.43,-302.475C388.536,-292.18 439.332,-274.81 473.138,-263.25"/>
<polygon fill="midnightblue" stroke="midnightblue" points="474.287,-266.556 482.616,-260.009 472.022,-259.933 474.287,-266.556"/>
</g>
<!-- Node5 -->
<g id="node5" class="node"><title>Node5</title>
<polygon fill="none" stroke="#bfbfbf" points="344.5,-241 344.5,-260 424.5,-260 424.5,-241 344.5,-241"/>
<text text-anchor="middle" x="384.5" y="-248" font-family="Helvetica,sans-Serif" font-size="10.00">boost/asio.hpp</text>
</g>
<!-- Node2&#45;&gt;Node5 -->
<g id="edge4" class="edge"><title>Node2&#45;&gt;Node5</title>
<path fill="none" stroke="midnightblue" d="M340.807,-302.475C348.533,-293.462 360.908,-279.025 370.518,-267.812"/>
<polygon fill="midnightblue" stroke="midnightblue" points="373.356,-269.879 377.206,-260.009 368.041,-265.324 373.356,-269.879"/>
</g>
<!-- Node6 -->
<g id="node6" class="node"><title>Node6</title>
<polygon fill="none" stroke="#bfbfbf" points="0,-235.5 0,-265.5 101,-265.5 101,-235.5 0,-235.5"/>
<text text-anchor="start" x="8" y="-253.5" font-family="Helvetica,sans-Serif" font-size="10.00">boost/property_tree</text>
<text text-anchor="middle" x="50.5" y="-242.5" font-family="Helvetica,sans-Serif" font-size="10.00">/json_parser.hpp</text>
</g>
<!-- Node2&#45;&gt;Node6 -->
<g id="edge5" class="edge"><title>Node2&#45;&gt;Node6</title>
<path fill="none" stroke="midnightblue" d="M287.904,-302.432C244.682,-294.177 177.7,-281.044 111.132,-266.319"/>
<polygon fill="midnightblue" stroke="midnightblue" points="111.838,-262.89 101.316,-264.135 110.318,-269.723 111.838,-262.89"/>
</g>
<!-- Node7 -->
<g id="node7" class="node"><title>Node7</title>
<polygon fill="none" stroke="#bfbfbf" points="119,-235.5 119,-265.5 220,-265.5 220,-235.5 119,-235.5"/>
<text text-anchor="start" x="127" y="-253.5" font-family="Helvetica,sans-Serif" font-size="10.00">boost/property_tree</text>
<text text-anchor="middle" x="169.5" y="-242.5" font-family="Helvetica,sans-Serif" font-size="10.00">/ptree.hpp</text>
</g>
<!-- Node2&#45;&gt;Node7 -->
<g id="edge6" class="edge"><title>Node2&#45;&gt;Node7</title>
<path fill="none" stroke="midnightblue" d="M310.003,-302.475C286.027,-293.776 248.127,-280.026 217.73,-268.998"/>
<polygon fill="midnightblue" stroke="midnightblue" points="218.746,-265.643 208.152,-265.523 216.358,-272.224 218.746,-265.643"/>
</g>
<!-- Node8&#45;&gt;Node4 -->
<g id="edge40" class="edge"><title>Node8&#45;&gt;Node4</title>
<path fill="none" stroke="midnightblue" d="M561.474,-302.475C551.743,-293.285 536.042,-278.456 524.077,-267.156"/>
<polygon fill="midnightblue" stroke="midnightblue" points="526.183,-264.331 516.51,-260.009 521.377,-269.42 526.183,-264.331"/>
</g>
<!-- Node9 -->
<g id="node9" class="node"><title>Node9</title>
<g id="a_node9"><a xlink:href="TaskInterface_8h.html" target="_top" xlink:title="TaskInterface.h">
<polygon fill="none" stroke="black" points="591,-241 591,-260 676,-260 676,-241 591,-241"/>
<text text-anchor="middle" x="633.5" y="-248" font-family="Helvetica,sans-Serif" font-size="10.00">TaskInterface.h</text>
</a>
</g>
</g>
<!-- Node8&#45;&gt;Node9 -->
<g id="edge8" class="edge"><title>Node8&#45;&gt;Node9</title>
<path fill="none" stroke="midnightblue" d="M579.526,-302.475C589.257,-293.285 604.958,-278.456 616.923,-267.156"/>
<polygon fill="midnightblue" stroke="midnightblue" points="619.623,-269.42 624.49,-260.009 614.817,-264.331 619.623,-269.42"/>
</g>
<!-- Node18 -->
<g id="node18" class="node"><title>Node18</title>
<polygon fill="none" stroke="#bfbfbf" points="1450.5,-62 1450.5,-81 1504.5,-81 1504.5,-62 1450.5,-62"/>
<text text-anchor="middle" x="1477.5" y="-69" font-family="Helvetica,sans-Serif" font-size="10.00">iostream</text>
</g>
<!-- Node8&#45;&gt;Node18 -->
<g id="edge41" class="edge"><title>Node8&#45;&gt;Node18</title>
<path fill="none" stroke="midnightblue" d="M637.843,-302.462C751.986,-287.169 990.185,-251.697 1186.5,-199 1257.65,-179.902 1275.03,-172.563 1342.5,-143 1382.62,-125.422 1427.35,-101.073 1453.92,-86.0758"/>
<polygon fill="midnightblue" stroke="midnightblue" points="1455.88,-88.9872 1462.84,-81.0037 1452.42,-82.9012 1455.88,-88.9872"/>
</g>
<!-- Node10 -->
<g id="node10" class="node"><title>Node10</title>
<polygon fill="none" stroke="#bfbfbf" points="273.5,-62 273.5,-81 325.5,-81 325.5,-62 273.5,-62"/>
<text text-anchor="middle" x="299.5" y="-69" font-family="Helvetica,sans-Serif" font-size="10.00">memory</text>
</g>
<!-- Node9&#45;&gt;Node10 -->
<g id="edge9" class="edge"><title>Node9&#45;&gt;Node10</title>
<path fill="none" stroke="midnightblue" d="M615.982,-240.786C586.777,-226.497 526.052,-197.799 472.5,-179 414.314,-158.574 387.066,-181.003 338.5,-143 321.673,-129.833 311.042,-107.279 305.203,-91.228"/>
<polygon fill="midnightblue" stroke="midnightblue" points="308.393,-89.7294 301.91,-81.3499 301.753,-91.9436 308.393,-89.7294"/>
</g>
<!-- Node11 -->
<g id="node11" class="node"><title>Node11</title>
<polygon fill="none" stroke="#bfbfbf" points="1128,-179.5 1128,-198.5 1177,-198.5 1177,-179.5 1128,-179.5"/>
<text text-anchor="middle" x="1152.5" y="-186.5" font-family="Helvetica,sans-Serif" font-size="10.00">cassert</text>
</g>
<!-- Node9&#45;&gt;Node11 -->
<g id="edge10" class="edge"><title>Node9&#45;&gt;Node11</title>
<path fill="none" stroke="midnightblue" d="M676.113,-246.77C760.186,-240.997 953.171,-225.831 1113.5,-199 1114.96,-198.756 1116.44,-198.491 1117.94,-198.209"/>
<polygon fill="midnightblue" stroke="midnightblue" points="1118.75,-201.616 1127.83,-196.171 1117.33,-194.76 1118.75,-201.616"/>
</g>
<!-- Node12 -->
<g id="node12" class="node"><title>Node12</title>
<polygon fill="none" stroke="#bfbfbf" points="19,-179.5 19,-198.5 144,-198.5 144,-179.5 19,-179.5"/>
<text text-anchor="middle" x="81.5" y="-186.5" font-family="Helvetica,sans-Serif" font-size="10.00">Framework/InitContext.h</text>
</g>
<!-- Node9&#45;&gt;Node12 -->
<g id="edge11" class="edge"><title>Node9&#45;&gt;Node12</title>
<path fill="none" stroke="midnightblue" d="M606.734,-240.999C598.693,-238.728 589.802,-236.493 581.5,-235 396.831,-201.791 345.118,-218.255 154.388,-199.038"/>
<polygon fill="midnightblue" stroke="midnightblue" points="154.617,-195.544 144.311,-198.003 153.901,-202.507 154.617,-195.544"/>
</g>
<!-- Node13 -->
<g id="node13" class="node"><title>Node13</title>
<polygon fill="none" stroke="#bfbfbf" points="162.5,-179.5 162.5,-198.5 322.5,-198.5 322.5,-179.5 162.5,-179.5"/>
<text text-anchor="middle" x="242.5" y="-186.5" font-family="Helvetica,sans-Serif" font-size="10.00">Framework/ProcessingContext.h</text>
</g>
<!-- Node9&#45;&gt;Node13 -->
<g id="edge12" class="edge"><title>Node9&#45;&gt;Node13</title>
<path fill="none" stroke="midnightblue" d="M605.609,-240.949C597.856,-238.784 589.396,-236.617 581.5,-235 534.202,-225.316 410.176,-209.774 326.004,-199.726"/>
<polygon fill="midnightblue" stroke="midnightblue" points="326.288,-196.235 315.944,-198.528 325.46,-203.186 326.288,-196.235"/>
</g>
<!-- Node14 -->
<g id="node14" class="node"><title>Node14</title>
<polygon fill="none" stroke="#bfbfbf" points="932,-56.5 932,-86.5 1067,-86.5 1067,-56.5 932,-56.5"/>
<text text-anchor="start" x="940" y="-74.5" font-family="Helvetica,sans-Serif" font-size="10.00">Configuration/Configuration</text>
<text text-anchor="middle" x="999.5" y="-63.5" font-family="Helvetica,sans-Serif" font-size="10.00">Interface.h</text>
</g>
<!-- Node9&#45;&gt;Node14 -->
<g id="edge13" class="edge"><title>Node9&#45;&gt;Node14</title>
<path fill="none" stroke="midnightblue" d="M676.327,-245.047C772.144,-234.092 998.837,-202.311 1042.5,-143 1054.15,-127.171 1040.99,-108.076 1026.25,-93.7531"/>
<polygon fill="midnightblue" stroke="midnightblue" points="1028.28,-90.8683 1018.52,-86.7408 1023.58,-96.0525 1028.28,-90.8683"/>
</g>
<!-- Node15 -->
<g id="node15" class="node"><title>Node15</title>
<g id="a_node15"><a xlink:href="Activity_8h.html" target="_top" xlink:title="QualityControl/Activity.h">
<polygon fill="none" stroke="black" points="341,-179.5 341,-198.5 464,-198.5 464,-179.5 341,-179.5"/>
<text text-anchor="middle" x="402.5" y="-186.5" font-family="Helvetica,sans-Serif" font-size="10.00">QualityControl/Activity.h</text>
</a>
</g>
</g>
<!-- Node9&#45;&gt;Node15 -->
<g id="edge14" class="edge"><title>Node9&#45;&gt;Node15</title>
<path fill="none" stroke="midnightblue" d="M603.289,-240.935C596.154,-238.951 588.566,-236.873 581.5,-235 535.918,-222.917 483.589,-209.855 447.334,-200.933"/>
<polygon fill="midnightblue" stroke="midnightblue" points="448.1,-197.517 437.554,-198.531 446.43,-204.315 448.1,-197.517"/>
</g>
<!-- Node16 -->
<g id="node16" class="node"><title>Node16</title>
<g id="a_node16"><a xlink:href="ObjectsManager_8h.html" target="_top" xlink:title="QualityControl/ObjectsManager.h">
<polygon fill="none" stroke="black" points="693,-179.5 693,-198.5 854,-198.5 854,-179.5 693,-179.5"/>
<text text-anchor="middle" x="773.5" y="-186.5" font-family="Helvetica,sans-Serif" font-size="10.00">QualityControl/ObjectsManager.h</text>
</a>
</g>
</g>
<!-- Node9&#45;&gt;Node16 -->
<g id="edge15" class="edge"><title>Node9&#45;&gt;Node16</title>
<path fill="none" stroke="midnightblue" d="M653.559,-240.975C677.262,-230.901 716.906,-214.053 744.083,-202.502"/>
<polygon fill="midnightblue" stroke="midnightblue" points="745.644,-205.642 753.479,-198.509 742.906,-199.199 745.644,-205.642"/>
</g>
<!-- Node17 -->
<g id="node17" class="node"><title>Node17</title>
<g id="a_node17"><a xlink:href="MonitorObject_8h.html" target="_top" xlink:title="QualityControl/MonitorObject.h">
<polygon fill="none" stroke="black" points="1182,-123.5 1182,-142.5 1333,-142.5 1333,-123.5 1182,-123.5"/>
<text text-anchor="middle" x="1257.5" y="-130.5" font-family="Helvetica,sans-Serif" font-size="10.00">QualityControl/MonitorObject.h</text>
</a>
</g>
</g>
<!-- Node16&#45;&gt;Node17 -->
<g id="edge16" class="edge"><title>Node16&#45;&gt;Node17</title>
<path fill="none" stroke="midnightblue" d="M849.924,-179.473C937.479,-169.705 1080.58,-153.739 1171.84,-143.557"/>
<polygon fill="midnightblue" stroke="midnightblue" points="1172.33,-147.025 1181.88,-142.437 1171.55,-140.068 1172.33,-147.025"/>
</g>
<!-- Node22 -->
<g id="node22" class="node"><title>Node22</title>
<g id="a_node22"><a xlink:href="Quality_8h.html" target="_top" xlink:title="QualityControl/Quality.h">
<polygon fill="none" stroke="black" points="1085,-62 1085,-81 1206,-81 1206,-62 1085,-62"/>
<text text-anchor="middle" x="1145.5" y="-69" font-family="Helvetica,sans-Serif" font-size="10.00">QualityControl/Quality.h</text>
</a>
</g>
</g>
<!-- Node16&#45;&gt;Node22 -->
<g id="edge25" class="edge"><title>Node16&#45;&gt;Node22</title>
<path fill="none" stroke="midnightblue" d="M854.235,-183.64C908.989,-178.506 982.11,-167.33 1042.5,-143 1075.77,-129.598 1109.07,-104.057 1128.46,-87.6755"/>
<polygon fill="midnightblue" stroke="midnightblue" points="1130.82,-90.2576 1136.11,-81.0737 1126.25,-84.9587 1130.82,-90.2576"/>
</g>
<!-- Node24 -->
<g id="node24" class="node"><title>Node24</title>
<polygon fill="none" stroke="#bfbfbf" points="864,-0.5 864,-19.5 905,-19.5 905,-0.5 864,-0.5"/>
<text text-anchor="middle" x="884.5" y="-7.5" font-family="Helvetica,sans-Serif" font-size="10.00">string</text>
</g>
<!-- Node16&#45;&gt;Node24 -->
<g id="edge39" class="edge"><title>Node16&#45;&gt;Node24</title>
<path fill="none" stroke="midnightblue" d="M796.089,-179.349C812.357,-172.011 833.627,-159.957 846.5,-143 872.491,-108.763 880.72,-57.2986 883.315,-29.8396"/>
<polygon fill="midnightblue" stroke="midnightblue" points="886.82,-29.9056 884.117,-19.6614 879.842,-29.3555 886.82,-29.9056"/>
</g>
<!-- Node25 -->
<g id="node25" class="node"><title>Node25</title>
<g id="a_node25"><a xlink:href="TaskConfig_8h.html" target="_top" xlink:title="QualityControl/TaskConfig.h">
<polygon fill="none" stroke="black" points="893.5,-123.5 893.5,-142.5 1033.5,-142.5 1033.5,-123.5 893.5,-123.5"/>
<text text-anchor="middle" x="963.5" y="-130.5" font-family="Helvetica,sans-Serif" font-size="10.00">QualityControl/TaskConfig.h</text>
</a>
</g>
</g>
<!-- Node16&#45;&gt;Node25 -->
<g id="edge26" class="edge"><title>Node16&#45;&gt;Node25</title>
<path fill="none" stroke="midnightblue" d="M803.606,-179.444C836.126,-170.201 888.079,-155.436 923.891,-145.257"/>
<polygon fill="midnightblue" stroke="midnightblue" points="924.873,-148.617 933.535,-142.516 922.959,-141.884 924.873,-148.617"/>
</g>
<!-- Node26 -->
<g id="node26" class="node"><title>Node26</title>
<g id="a_node26"><a xlink:href="ServiceDiscovery_8h_source.html" target="_top" xlink:title="QualityControl/ServiceDiscovery.h">
<polygon fill="none" stroke="black" points="348,-123.5 348,-142.5 515,-142.5 515,-123.5 348,-123.5"/>
<text text-anchor="middle" x="431.5" y="-130.5" font-family="Helvetica,sans-Serif" font-size="10.00">QualityControl/ServiceDiscovery.h</text>
</a>
</g>
</g>
<!-- Node16&#45;&gt;Node26 -->
<g id="edge29" class="edge"><title>Node16&#45;&gt;Node26</title>
<path fill="none" stroke="midnightblue" d="M719.309,-179.444C658.522,-169.846 560.013,-154.292 495.49,-144.104"/>
<polygon fill="midnightblue" stroke="midnightblue" points="495.861,-140.619 485.437,-142.516 494.769,-147.533 495.861,-140.619"/>
</g>
<!-- Node31 -->
<g id="node31" class="node"><title>Node31</title>
<polygon fill="none" stroke="#bfbfbf" points="533,-123.5 533,-142.5 602,-142.5 602,-123.5 533,-123.5"/>
<text text-anchor="middle" x="567.5" y="-130.5" font-family="Helvetica,sans-Serif" font-size="10.00">TObjArray.h</text>
</g>
<!-- Node16&#45;&gt;Node31 -->
<g id="edge36" class="edge"><title>Node16&#45;&gt;Node31</title>
<path fill="none" stroke="midnightblue" d="M740.859,-179.444C705.45,-170.162 648.791,-155.309 609.947,-145.127"/>
<polygon fill="midnightblue" stroke="midnightblue" points="610.549,-141.667 599.989,-142.516 608.774,-148.438 610.549,-141.667"/>
</g>
<!-- Node32 -->
<g id="node32" class="node"><title>Node32</title>
<polygon fill="none" stroke="#bfbfbf" points="620,-123.5 620,-142.5 691,-142.5 691,-123.5 620,-123.5"/>
<text text-anchor="middle" x="655.5" y="-130.5" font-family="Helvetica,sans-Serif" font-size="10.00">TObjString.h</text>
</g>
<!-- Node16&#45;&gt;Node32 -->
<g id="edge37" class="edge"><title>Node16&#45;&gt;Node32</title>
<path fill="none" stroke="midnightblue" d="M754.803,-179.444C735.556,-170.636 705.348,-156.812 683.3,-146.722"/>
<polygon fill="midnightblue" stroke="midnightblue" points="684.66,-143.495 674.11,-142.516 681.747,-149.86 684.66,-143.495"/>
</g>
<!-- Node33 -->
<g id="node33" class="node"><title>Node33</title>
<polygon fill="none" stroke="#bfbfbf" points="709.5,-123.5 709.5,-142.5 837.5,-142.5 837.5,-123.5 709.5,-123.5"/>
<text text-anchor="middle" x="773.5" y="-130.5" font-family="Helvetica,sans-Serif" font-size="10.00">boost/concept_check.hpp</text>
</g>
<!-- Node16&#45;&gt;Node33 -->
<g id="edge38" class="edge"><title>Node16&#45;&gt;Node33</title>
<path fill="none" stroke="midnightblue" d="M773.5,-179.083C773.5,-172.006 773.5,-161.861 773.5,-152.986"/>
<polygon fill="midnightblue" stroke="midnightblue" points="777,-152.751 773.5,-142.751 770,-152.751 777,-152.751"/>
</g>
<!-- Node17&#45;&gt;Node18 -->
<g id="edge17" class="edge"><title>Node17&#45;&gt;Node18</title>
<path fill="none" stroke="midnightblue" d="M1299.63,-123.494C1337.24,-115.478 1393.6,-102.415 1441.5,-87 1443.64,-86.3123 1445.83,-85.5581 1448.02,-84.7663"/>
<polygon fill="midnightblue" stroke="midnightblue" points="1449.41,-87.9818 1457.5,-81.144 1446.91,-81.4426 1449.41,-87.9818"/>
</g>
<!-- Node19 -->
<g id="node19" class="node"><title>Node19</title>
<polygon fill="none" stroke="#bfbfbf" points="1263,-62 1263,-81 1298,-81 1298,-62 1263,-62"/>
<text text-anchor="middle" x="1280.5" y="-69" font-family="Helvetica,sans-Serif" font-size="10.00">map</text>
</g>
<!-- Node17&#45;&gt;Node19 -->
<g id="edge18" class="edge"><title>Node17&#45;&gt;Node19</title>
<path fill="none" stroke="midnightblue" d="M1260.8,-123.475C1264.11,-114.904 1269.32,-101.427 1273.55,-90.483"/>
<polygon fill="midnightblue" stroke="midnightblue" points="1276.87,-91.5984 1277.21,-81.0091 1270.34,-89.0745 1276.87,-91.5984"/>
</g>
<!-- Node20 -->
<g id="node20" class="node"><title>Node20</title>
<polygon fill="none" stroke="#bfbfbf" points="1197,-0.5 1197,-19.5 1256,-19.5 1256,-0.5 1197,-0.5"/>
<text text-anchor="middle" x="1226.5" y="-7.5" font-family="Helvetica,sans-Serif" font-size="10.00">TObject.h</text>
</g>
<!-- Node17&#45;&gt;Node20 -->
<g id="edge19" class="edge"><title>Node17&#45;&gt;Node20</title>
<path fill="none" stroke="midnightblue" d="M1255.27,-123.298C1250.27,-103.763 1238.05,-56.0646 1231.25,-29.5471"/>
<polygon fill="midnightblue" stroke="midnightblue" points="1234.58,-28.4416 1228.71,-19.6232 1227.8,-30.179 1234.58,-28.4416"/>
</g>
<!-- Node21 -->
<g id="node21" class="node"><title>Node21</title>
<polygon fill="none" stroke="#bfbfbf" points="1316.5,-62 1316.5,-81 1432.5,-81 1432.5,-62 1316.5,-62"/>
<text text-anchor="middle" x="1374.5" y="-69" font-family="Helvetica,sans-Serif" font-size="10.00">Common/Exceptions.h</text>
</g>
<!-- Node17&#45;&gt;Node21 -->
<g id="edge20" class="edge"><title>Node17&#45;&gt;Node21</title>
<path fill="none" stroke="midnightblue" d="M1274.26,-123.475C1293.72,-113.578 1326.05,-97.1416 1348.71,-85.6151"/>
<polygon fill="midnightblue" stroke="midnightblue" points="1350.44,-88.6619 1357.77,-81.0091 1347.27,-82.4224 1350.44,-88.6619"/>
</g>
<!-- Node17&#45;&gt;Node22 -->
<g id="edge21" class="edge"><title>Node17&#45;&gt;Node22</title>
<path fill="none" stroke="midnightblue" d="M1241.45,-123.475C1222.91,-113.622 1192.16,-97.2883 1170.48,-85.7697"/>
<polygon fill="midnightblue" stroke="midnightblue" points="1171.99,-82.6098 1161.52,-81.0091 1168.71,-88.7916 1171.99,-82.6098"/>
</g>
<!-- Node22&#45;&gt;Node20 -->
<g id="edge22" class="edge"><title>Node22&#45;&gt;Node20</title>
<path fill="none" stroke="midnightblue" d="M1157.11,-61.9751C1169.98,-52.5199 1190.97,-37.0961 1206.51,-25.6871"/>
<polygon fill="midnightblue" stroke="midnightblue" points="1208.93,-28.25 1214.92,-19.5091 1204.78,-22.6085 1208.93,-28.25"/>
</g>
<!-- Node23 -->
<g id="node23" class="node"><title>Node23</title>
<polygon fill="none" stroke="#bfbfbf" points="1119.5,-0.5 1119.5,-19.5 1171.5,-19.5 1171.5,-0.5 1119.5,-0.5"/>
<text text-anchor="middle" x="1145.5" y="-7.5" font-family="Helvetica,sans-Serif" font-size="10.00">ostream</text>
</g>
<!-- Node22&#45;&gt;Node23 -->
<g id="edge23" class="edge"><title>Node22&#45;&gt;Node23</title>
<path fill="none" stroke="midnightblue" d="M1145.5,-61.9751C1145.5,-53.5803 1145.5,-40.4806 1145.5,-29.6631"/>
<polygon fill="midnightblue" stroke="midnightblue" points="1149,-29.5091 1145.5,-19.5091 1142,-29.5091 1149,-29.5091"/>
</g>
<!-- Node22&#45;&gt;Node24 -->
<g id="edge24" class="edge"><title>Node22&#45;&gt;Node24</title>
<path fill="none" stroke="midnightblue" d="M1108.11,-61.9751C1056.1,-50.1201 962.943,-28.8827 914.94,-17.9394"/>
<polygon fill="midnightblue" stroke="midnightblue" points="915.665,-14.5149 905.137,-15.7046 914.109,-21.3398 915.665,-14.5149"/>
</g>
<!-- Node25&#45;&gt;Node14 -->
<g id="edge28" class="edge"><title>Node25&#45;&gt;Node14</title>
<path fill="none" stroke="midnightblue" d="M968.658,-123.475C973.124,-116.094 979.789,-105.077 985.783,-95.1714"/>
<polygon fill="midnightblue" stroke="midnightblue" points="988.833,-96.8907 991.016,-86.523 982.844,-93.267 988.833,-96.8907"/>
</g>
<!-- Node25&#45;&gt;Node24 -->
<g id="edge27" class="edge"><title>Node25&#45;&gt;Node24</title>
<path fill="none" stroke="midnightblue" d="M954.228,-123.319C945.35,-114.684 931.947,-100.77 922.5,-87 909.767,-68.4396 898.713,-45.0063 891.86,-29.1019"/>
<polygon fill="midnightblue" stroke="midnightblue" points="895.082,-27.7338 887.988,-19.8645 888.626,-30.4401 895.082,-27.7338"/>
</g>
<!-- Node26&#45;&gt;Node10 -->
<g id="edge32" class="edge"><title>Node26&#45;&gt;Node10</title>
<path fill="none" stroke="midnightblue" d="M412.588,-123.475C390.337,-113.445 353.188,-96.7002 327.574,-85.1546"/>
<polygon fill="midnightblue" stroke="midnightblue" points="328.932,-81.9277 318.377,-81.0091 326.056,-88.3094 328.932,-81.9277"/>
</g>
<!-- Node26&#45;&gt;Node24 -->
<g id="edge33" class="edge"><title>Node26&#45;&gt;Node24</title>
<path fill="none" stroke="midnightblue" d="M480.341,-123.498C524.758,-115.393 591.959,-102.195 649.5,-87 724.116,-67.2962 809.97,-37.7328 854.379,-21.9125"/>
<polygon fill="midnightblue" stroke="midnightblue" points="855.742,-25.1422 863.977,-18.4768 853.383,-18.5516 855.742,-25.1422"/>
</g>
<!-- Node27 -->
<g id="node27" class="node"><title>Node27</title>
<polygon fill="none" stroke="#bfbfbf" points="517.5,-62 517.5,-81 563.5,-81 563.5,-62 517.5,-62"/>
<text text-anchor="middle" x="540.5" y="-69" font-family="Helvetica,sans-Serif" font-size="10.00">atomic</text>
</g>
<!-- Node26&#45;&gt;Node27 -->
<g id="edge30" class="edge"><title>Node26&#45;&gt;Node27</title>
<path fill="none" stroke="midnightblue" d="M447.117,-123.475C465.086,-113.666 494.821,-97.4346 515.906,-85.925"/>
<polygon fill="midnightblue" stroke="midnightblue" points="517.811,-88.8726 524.912,-81.0091 514.458,-82.7284 517.811,-88.8726"/>
</g>
<!-- Node28 -->
<g id="node28" class="node"><title>Node28</title>
<polygon fill="none" stroke="#bfbfbf" points="582,-62 582,-81 641,-81 641,-62 582,-62"/>
<text text-anchor="middle" x="611.5" y="-69" font-family="Helvetica,sans-Serif" font-size="10.00">curl/curl.h</text>
</g>
<!-- Node26&#45;&gt;Node28 -->
<g id="edge31" class="edge"><title>Node26&#45;&gt;Node28</title>
<path fill="none" stroke="midnightblue" d="M459.718,-123.422C488.275,-114.641 533.638,-100.417 572.5,-87 574.747,-86.2242 577.061,-85.4083 579.387,-84.5754"/>
<polygon fill="midnightblue" stroke="midnightblue" points="580.683,-87.8281 588.88,-81.115 578.286,-81.2514 580.683,-87.8281"/>
</g>
<!-- Node29 -->
<g id="node29" class="node"><title>Node29</title>
<polygon fill="none" stroke="#bfbfbf" points="343.5,-62 343.5,-81 387.5,-81 387.5,-62 343.5,-62"/>
<text text-anchor="middle" x="365.5" y="-69" font-family="Helvetica,sans-Serif" font-size="10.00">thread</text>
</g>
<!-- Node26&#45;&gt;Node29 -->
<g id="edge34" class="edge"><title>Node26&#45;&gt;Node29</title>
<path fill="none" stroke="midnightblue" d="M422.044,-123.475C411.752,-114.197 395.084,-99.1706 382.506,-87.831"/>
<polygon fill="midnightblue" stroke="midnightblue" points="384.71,-85.1054 374.939,-81.0091 380.022,-90.3046 384.71,-85.1054"/>
</g>
<!-- Node30 -->
<g id="node30" class="node"><title>Node30</title>
<polygon fill="none" stroke="#bfbfbf" points="405.5,-56.5 405.5,-86.5 499.5,-86.5 499.5,-56.5 405.5,-56.5"/>
<text text-anchor="start" x="413.5" y="-74.5" font-family="Helvetica,sans-Serif" font-size="10.00">boost/asio/ip/host</text>
<text text-anchor="middle" x="452.5" y="-63.5" font-family="Helvetica,sans-Serif" font-size="10.00">_name.hpp</text>
</g>
<!-- Node26&#45;&gt;Node30 -->
<g id="edge35" class="edge"><title>Node26&#45;&gt;Node30</title>
<path fill="none" stroke="midnightblue" d="M434.509,-123.475C437.034,-116.32 440.765,-105.748 444.176,-96.0841"/>
<polygon fill="midnightblue" stroke="midnightblue" points="447.523,-97.1178 447.551,-86.523 440.922,-94.788 447.523,-97.1178"/>
</g>
</g>
</svg>
        <g id="navigator" transform="translate(0 0)" fill="#404254">
                <rect fill="#f2f5e9" fill-opacity="0.5" stroke="#606060" stroke-width=".5" x="0" y="0" width="60" height="60"/>
                <use id="zoomplus" xlink:href="#zoomPlus" x="17" y="9" onmousedown="handleZoom(evt,'in')"/>
                <use id="zoomminus" xlink:href="#zoomMin" x="42" y="9" onmousedown="handleZoom(evt,'out')"/>
                <use id="reset" xlink:href="#resetDef" x="30" y="36" onmousedown="handleReset()"/>
                <g id="arrowUp" xlink:href="#dirArrow" transform="translate(30 24)" onmousedown="handlePan(0,-1)">
                  <use xlink:href="#rim" fill="#404040">
                        <set attributeName="fill" to="#808080" begin="arrowUp.mouseover" end="arrowUp.mouseout"/>
                  </use>
                  <path fill="none" stroke="white" stroke-width="1.5" d="M0,-3.0v7 M-2.5,-0.5L0,-3.0L2.5,-0.5"/>
                </g>
                <g id="arrowRight" xlink:href="#dirArrow" transform="rotate(90) translate(36 -43)" onmousedown="handlePan(1,0)">
                  <use xlink:href="#rim" fill="#404040">
                        <set attributeName="fill" to="#808080" begin="arrowRight.mouseover" end="arrowRight.mouseout"/>
                  </use>
                  <path fill="none" stroke="white" stroke-width="1.5" d="M0,-3.0v7 M-2.5,-0.5L0,-3.0L2.5,-0.5"/>
                </g>
                <g id="arrowDown" xlink:href="#dirArrow" transform="rotate(180) translate(-30 -48)" onmousedown="handlePan(0,1)">
                  <use xlink:href="#rim" fill="#404040">
                        <set attributeName="fill" to="#808080" begin="arrowDown.mouseover" end="arrowDown.mouseout"/>
                  </use>
                  <path fill="none" stroke="white" stroke-width="1.5" d="M0,-3.0v7 M-2.5,-0.5L0,-3.0L2.5,-0.5"/>
                </g>
                <g id="arrowLeft" xlink:href="#dirArrow" transform="rotate(270) translate(-36 17)" onmousedown="handlePan(-1,0)">
                  <use xlink:href="#rim" fill="#404040">
                        <set attributeName="fill" to="#808080" begin="arrowLeft.mouseover" end="arrowLeft.mouseout"/>
                  </use>
                  <path fill="none" stroke="white" stroke-width="1.5" d="M0,-3.0v7 M-2.5,-0.5L0,-3.0L2.5,-0.5"/>
                </g>
        </g>
        <svg viewBox="0 0 15 15" width="100%" height="30px" preserveAspectRatio="xMaxYMin meet">
         <g id="arrow_out" transform="scale(0.3 0.3)">
          <a xlink:href="InformationService_8cxx__incl_org.svg" target="_base">
           <rect id="button" ry="5" rx="5" y="6" x="6" height="38" width="38"
                fill="#f2f5e9" fill-opacity="0.5" stroke="#606060" stroke-width="1.0"/>
           <path id="arrow"
             d="M 11.500037,31.436501 C 11.940474,20.09759 22.043105,11.32322 32.158766,21.979434 L 37.068811,17.246167 C 37.068811,17.246167 37.088388,32 37.088388,32 L 22.160133,31.978069 C 22.160133,31.978069 26.997745,27.140456 26.997745,27.140456 C 18.528582,18.264221 13.291696,25.230495 11.500037,31.436501 z"
             style="fill:#404040;"/>
          </a>
         </g>
        </svg>
</svg>
