<?xml version="1.0" encoding="UTF-8" standalone="no"?>
<!DOCTYPE svg PUBLIC "-//W3C//DTD SVG 1.1//EN"
 "http://www.w3.org/Graphics/SVG/1.1/DTD/svg11.dtd">
<!-- Generated by graphviz version 2.38.0 (20140413.2041)
 -->
<!-- Title: Framework/src/MySqlDatabase.cxx Pages: 1 -->
<!--zoomable 375 -->
<svg id="main" version="1.1" xmlns="http://www.w3.org/2000/svg" xmlns:xlink="http://www.w3.org/1999/xlink" xml:space="preserve" onload="init(evt)">
<style type="text/css"><![CDATA[
.edge:hover path { stroke: red; }
.edge:hover polygon { stroke: red; fill: red; }
]]></style>
<script type="text/javascript"><![CDATA[
var edges = document.getElementsByTagName('g');
if (edges && edges.length) {
  for (var i=0;i<edges.length;i++) {
    if (edges[i].id.substr(0,4)=='edge') {
      edges[i].setAttribute('class','edge');
    }
  }
}
]]></script>
        <defs>
                <circle id="rim" cx="0" cy="0" r="7"/>
                <circle id="rim2" cx="0" cy="0" r="3.5"/>
                <g id="zoomPlus">
                        <use xlink:href="#rim" fill="#404040">
                                <set attributeName="fill" to="#808080" begin="zoomplus.mouseover" end="zoomplus.mouseout"/>
                        </use>
                        <path d="M-4,0h8M0,-4v8" fill="none" stroke="white" stroke-width="1.5" pointer-events="none"/>
                </g>
                <g id="zoomMin">
                        <use xlink:href="#rim" fill="#404040">
                                <set attributeName="fill" to="#808080" begin="zoomminus.mouseover" end="zoomminus.mouseout"/>
                        </use>
                        <path d="M-4,0h8" fill="none" stroke="white" stroke-width="1.5" pointer-events="none"/>
                </g>
                <g id="dirArrow">
                        <path fill="none" stroke="white" stroke-width="1.5" d="M0,-3.0v7 M-2.5,-0.5L0,-3.0L2.5,-0.5"/>
                </g>
               <g id="resetDef">
                       <use xlink:href="#rim2" fill="#404040">
                               <set attributeName="fill" to="#808080" begin="reset.mouseover" end="reset.mouseout"/>
                       </use>
               </g>
        </defs>

<script type="text/javascript">
var viewWidth = 2192;
var viewHeight = 375;
var sectionId = 'dynsection-0';
</script>
<script xlink:href="svgpan.js"/>
<svg id="graph" class="graph">
<g id="viewport">
<title>Framework/src/MySqlDatabase.cxx</title>
<!-- Node1 -->
<g id="node1" class="node"><title>Node1</title>
<polygon fill="#bfbfbf" stroke="black" points="340.5,-347.5 340.5,-366.5 513.5,-366.5 513.5,-347.5 340.5,-347.5"/>
<text text-anchor="middle" x="427" y="-354.5" font-family="Helvetica,sans-Serif" font-size="10.00">Framework/src/MySqlDatabase.cxx</text>
</g>
<!-- Node2 -->
<g id="node2" class="node"><title>Node2</title>
<polygon fill="none" stroke="#bfbfbf" points="0,-291.5 0,-310.5 52,-310.5 52,-291.5 0,-291.5"/>
<text text-anchor="middle" x="26" y="-298.5" font-family="Helvetica,sans-Serif" font-size="10.00">sstream</text>
</g>
<!-- Node1&#45;&gt;Node2 -->
<g id="edge1" class="edge"><title>Node1&#45;&gt;Node2</title>
<path fill="none" stroke="midnightblue" d="M340.361,-348.534C268.289,-341.59 162.884,-329.738 62.3201,-311.04"/>
<polygon fill="midnightblue" stroke="midnightblue" points="62.7666,-307.563 52.2913,-309.149 61.4697,-314.442 62.7666,-307.563"/>
</g>
<!-- Node3 -->
<g id="node3" class="node"><title>Node3</title>
<polygon fill="none" stroke="#bfbfbf" points="70.5,-291.5 70.5,-310.5 141.5,-310.5 141.5,-291.5 70.5,-291.5"/>
<text text-anchor="middle" x="106" y="-298.5" font-family="Helvetica,sans-Serif" font-size="10.00">TMessage.h</text>
</g>
<!-- Node1&#45;&gt;Node3 -->
<g id="edge2" class="edge"><title>Node1&#45;&gt;Node3</title>
<path fill="none" stroke="midnightblue" d="M371.13,-347.491C317.485,-339.185 233.916,-325.893 151.839,-311.099"/>
<polygon fill="midnightblue" stroke="midnightblue" points="152.303,-307.626 141.839,-309.288 151.055,-314.514 152.303,-307.626"/>
</g>
<!-- Node4 -->
<g id="node4" class="node"><title>Node4</title>
<polygon fill="none" stroke="#bfbfbf" points="160,-291.5 160,-310.5 252,-310.5 252,-291.5 160,-291.5"/>
<text text-anchor="middle" x="206" y="-298.5" font-family="Helvetica,sans-Serif" font-size="10.00">TMySQLResult.h</text>
</g>
<!-- Node1&#45;&gt;Node4 -->
<g id="edge3" class="edge"><title>Node1&#45;&gt;Node4</title>
<path fill="none" stroke="midnightblue" d="M391.982,-347.444C353.752,-338.102 292.433,-323.119 250.743,-312.933"/>
<polygon fill="midnightblue" stroke="midnightblue" points="251.399,-309.49 240.854,-310.516 249.738,-316.29 251.399,-309.49"/>
</g>
<!-- Node5 -->
<g id="node5" class="node"><title>Node5</title>
<polygon fill="none" stroke="#bfbfbf" points="270,-291.5 270,-310.5 354,-310.5 354,-291.5 270,-291.5"/>
<text text-anchor="middle" x="312" y="-298.5" font-family="Helvetica,sans-Serif" font-size="10.00">TMySQLRow.h</text>
</g>
<!-- Node1&#45;&gt;Node5 -->
<g id="edge4" class="edge"><title>Node1&#45;&gt;Node5</title>
<path fill="none" stroke="midnightblue" d="M408.778,-347.444C390.104,-338.675 360.844,-324.935 339.383,-314.858"/>
<polygon fill="midnightblue" stroke="midnightblue" points="340.676,-311.599 330.137,-310.516 337.701,-317.935 340.676,-311.599"/>
</g>
<!-- Node6 -->
<g id="node6" class="node"><title>Node6</title>
<polygon fill="none" stroke="#bfbfbf" points="372.5,-291.5 372.5,-310.5 481.5,-310.5 481.5,-291.5 372.5,-291.5"/>
<text text-anchor="middle" x="427" y="-298.5" font-family="Helvetica,sans-Serif" font-size="10.00">TMySQLStatement.h</text>
</g>
<!-- Node1&#45;&gt;Node6 -->
<g id="edge5" class="edge"><title>Node1&#45;&gt;Node6</title>
<path fill="none" stroke="midnightblue" d="M427,-347.083C427,-340.006 427,-329.861 427,-320.986"/>
<polygon fill="midnightblue" stroke="midnightblue" points="430.5,-320.751 427,-310.751 423.5,-320.751 430.5,-320.751"/>
</g>
<!-- Node7 -->
<g id="node7" class="node"><title>Node7</title>
<polygon fill="none" stroke="#bfbfbf" points="500,-291.5 500,-310.5 584,-310.5 584,-291.5 500,-291.5"/>
<text text-anchor="middle" x="542" y="-298.5" font-family="Helvetica,sans-Serif" font-size="10.00">TBufferJSON.h</text>
</g>
<!-- Node1&#45;&gt;Node7 -->
<g id="edge6" class="edge"><title>Node1&#45;&gt;Node7</title>
<path fill="none" stroke="midnightblue" d="M445.222,-347.444C463.896,-338.675 493.156,-324.935 514.617,-314.858"/>
<polygon fill="midnightblue" stroke="midnightblue" points="516.299,-317.935 523.863,-310.516 513.324,-311.599 516.299,-317.935"/>
</g>
<!-- Node8 -->
<g id="node8" class="node"><title>Node8</title>
<polygon fill="none" stroke="#bfbfbf" points="585,-62 585,-81 701,-81 701,-62 585,-62"/>
<text text-anchor="middle" x="643" y="-69" font-family="Helvetica,sans-Serif" font-size="10.00">Common/Exceptions.h</text>
</g>
<!-- Node1&#45;&gt;Node8 -->
<g id="edge7" class="edge"><title>Node1&#45;&gt;Node8</title>
<path fill="none" stroke="midnightblue" d="M513.908,-349.337C542.285,-343.115 571.893,-331.696 593,-311 614.491,-289.928 612,-276.098 612,-246 612,-246 612,-246 612,-188 612,-152.512 625.82,-112.923 635.005,-90.5298"/>
<polygon fill="midnightblue" stroke="midnightblue" points="638.251,-91.8412 638.947,-81.2693 631.81,-89.0995 638.251,-91.8412"/>
</g>
<!-- Node9 -->
<g id="node9" class="node"><title>Node9</title>
<g id="a_node9"><a xlink:href="MySqlDatabase_8h.html" target="_top" xlink:title="QualityControl/MySqlDatabase.h">
<polygon fill="none" stroke="black" points="826,-235.5 826,-254.5 986,-254.5 986,-235.5 826,-235.5"/>
<text text-anchor="middle" x="906" y="-242.5" font-family="Helvetica,sans-Serif" font-size="10.00">QualityControl/MySqlDatabase.h</text>
</a>
</g>
</g>
<!-- Node1&#45;&gt;Node9 -->
<g id="edge8" class="edge"><title>Node1&#45;&gt;Node9</title>
<path fill="none" stroke="midnightblue" d="M513.884,-350.745C610.276,-344.056 759.188,-330.919 812,-311 841.993,-299.687 871.568,-276.765 889.307,-261.392"/>
<polygon fill="midnightblue" stroke="midnightblue" points="891.869,-263.797 897.014,-254.536 887.216,-258.567 891.869,-263.797"/>
</g>
<!-- Node22 -->
<g id="node22" class="node"><title>Node22</title>
<g id="a_node22"><a xlink:href="QcInfoLogger_8h.html" target="_top" xlink:title="QualityControl/QcInfoLogger.h">
<polygon fill="none" stroke="black" points="654.5,-291.5 654.5,-310.5 803.5,-310.5 803.5,-291.5 654.5,-291.5"/>
<text text-anchor="middle" x="729" y="-298.5" font-family="Helvetica,sans-Serif" font-size="10.00">QualityControl/QcInfoLogger.h</text>
</a>
</g>
</g>
<!-- Node1&#45;&gt;Node22 -->
<g id="edge23" class="edge"><title>Node1&#45;&gt;Node22</title>
<path fill="none" stroke="midnightblue" d="M474.853,-347.444C528.199,-337.905 614.445,-322.483 671.436,-312.293"/>
<polygon fill="midnightblue" stroke="midnightblue" points="672.143,-315.722 681.371,-310.516 670.911,-308.831 672.143,-315.722"/>
</g>
<!-- Node10 -->
<g id="node10" class="node"><title>Node10</title>
<polygon fill="none" stroke="#bfbfbf" points="788,-179.5 788,-198.5 880,-198.5 880,-179.5 788,-179.5"/>
<text text-anchor="middle" x="834" y="-186.5" font-family="Helvetica,sans-Serif" font-size="10.00">Common/Timer.h</text>
</g>
<!-- Node9&#45;&gt;Node10 -->
<g id="edge9" class="edge"><title>Node9&#45;&gt;Node10</title>
<path fill="none" stroke="midnightblue" d="M894.432,-235.324C883.58,-227.185 867.119,-214.839 854.117,-205.087"/>
<polygon fill="midnightblue" stroke="midnightblue" points="855.879,-202.034 845.779,-198.834 851.679,-207.634 855.879,-202.034"/>
</g>
<!-- Node11 -->
<g id="node11" class="node"><title>Node11</title>
<g id="a_node11"><a xlink:href="DatabaseInterface_8h.html" target="_top" xlink:title="QualityControl/DatabaseInterface.h">
<polygon fill="none" stroke="black" points="898,-179.5 898,-198.5 1068,-198.5 1068,-179.5 898,-179.5"/>
<text text-anchor="middle" x="983" y="-186.5" font-family="Helvetica,sans-Serif" font-size="10.00">QualityControl/DatabaseInterface.h</text>
</a>
</g>
</g>
<!-- Node9&#45;&gt;Node11 -->
<g id="edge10" class="edge"><title>Node9&#45;&gt;Node11</title>
<path fill="none" stroke="midnightblue" d="M918.371,-235.324C930.158,-227.058 948.132,-214.453 962.136,-204.632"/>
<polygon fill="midnightblue" stroke="midnightblue" points="964.482,-207.262 970.659,-198.655 960.462,-201.531 964.482,-207.262"/>
</g>
<!-- Node21 -->
<g id="node21" class="node"><title>Node21</title>
<polygon fill="none" stroke="#bfbfbf" points="678,-179.5 678,-198.5 770,-198.5 770,-179.5 678,-179.5"/>
<text text-anchor="middle" x="724" y="-186.5" font-family="Helvetica,sans-Serif" font-size="10.00">TMySQLServer.h</text>
</g>
<!-- Node9&#45;&gt;Node21 -->
<g id="edge22" class="edge"><title>Node9&#45;&gt;Node21</title>
<path fill="none" stroke="midnightblue" d="M877.162,-235.444C846.144,-226.241 796.671,-211.562 762.382,-201.388"/>
<polygon fill="midnightblue" stroke="midnightblue" points="763.286,-198.006 752.704,-198.516 761.295,-204.716 763.286,-198.006"/>
</g>
<!-- Node12 -->
<g id="node12" class="node"><title>Node12</title>
<g id="a_node12"><a xlink:href="MonitorObject_8h.html" target="_top" xlink:title="QualityControl/MonitorObject.h">
<polygon fill="none" stroke="black" points="915.5,-123.5 915.5,-142.5 1066.5,-142.5 1066.5,-123.5 915.5,-123.5"/>
<text text-anchor="middle" x="991" y="-130.5" font-family="Helvetica,sans-Serif" font-size="10.00">QualityControl/MonitorObject.h</text>
</a>
</g>
</g>
<!-- Node11&#45;&gt;Node12 -->
<g id="edge11" class="edge"><title>Node11&#45;&gt;Node12</title>
<path fill="none" stroke="midnightblue" d="M984.321,-179.083C985.381,-171.927 986.906,-161.635 988.231,-152.691"/>
<polygon fill="midnightblue" stroke="midnightblue" points="991.7,-153.156 989.704,-142.751 984.776,-152.13 991.7,-153.156"/>
</g>
<!-- Node19 -->
<g id="node19" class="node"><title>Node19</title>
<polygon fill="none" stroke="#bfbfbf" points="1182,-62 1182,-81 1234,-81 1234,-62 1182,-62"/>
<text text-anchor="middle" x="1208" y="-69" font-family="Helvetica,sans-Serif" font-size="10.00">memory</text>
</g>
<!-- Node11&#45;&gt;Node19 -->
<g id="edge20" class="edge"><title>Node11&#45;&gt;Node19</title>
<path fill="none" stroke="midnightblue" d="M1001.28,-179.418C1020.11,-170.517 1050.26,-156.094 1076,-143 1113.74,-123.8 1156.93,-100.472 1183.33,-86.0542"/>
<polygon fill="midnightblue" stroke="midnightblue" points="1185.17,-89.0404 1192.26,-81.1697 1181.81,-82.8996 1185.17,-89.0404"/>
</g>
<!-- Node20 -->
<g id="node20" class="node"><title>Node20</title>
<polygon fill="none" stroke="#bfbfbf" points="814.5,-123.5 814.5,-142.5 897.5,-142.5 897.5,-123.5 814.5,-123.5"/>
<text text-anchor="middle" x="856" y="-130.5" font-family="Helvetica,sans-Serif" font-size="10.00">unordered_map</text>
</g>
<!-- Node11&#45;&gt;Node20 -->
<g id="edge21" class="edge"><title>Node11&#45;&gt;Node20</title>
<path fill="none" stroke="midnightblue" d="M962.876,-179.444C941.976,-170.557 909.065,-156.563 885.284,-146.451"/>
<polygon fill="midnightblue" stroke="midnightblue" points="886.602,-143.208 876.029,-142.516 883.862,-149.65 886.602,-143.208"/>
</g>
<!-- Node12&#45;&gt;Node8 -->
<g id="edge15" class="edge"><title>Node12&#45;&gt;Node8</title>
<path fill="none" stroke="midnightblue" d="M941.14,-123.475C878.216,-112.716 770.095,-94.2304 702.797,-82.724"/>
<polygon fill="midnightblue" stroke="midnightblue" points="703.214,-79.2445 692.767,-81.0091 702.034,-86.1444 703.214,-79.2445"/>
</g>
<!-- Node13 -->
<g id="node13" class="node"><title>Node13</title>
<polygon fill="none" stroke="#bfbfbf" points="825,-62 825,-81 879,-81 879,-62 825,-62"/>
<text text-anchor="middle" x="852" y="-69" font-family="Helvetica,sans-Serif" font-size="10.00">iostream</text>
</g>
<!-- Node12&#45;&gt;Node13 -->
<g id="edge12" class="edge"><title>Node12&#45;&gt;Node13</title>
<path fill="none" stroke="midnightblue" d="M971.085,-123.475C947.551,-113.401 908.19,-96.5525 881.207,-85.0023"/>
<polygon fill="midnightblue" stroke="midnightblue" points="882.449,-81.7267 871.878,-81.0091 879.694,-88.162 882.449,-81.7267"/>
</g>
<!-- Node14 -->
<g id="node14" class="node"><title>Node14</title>
<polygon fill="none" stroke="#bfbfbf" points="950.5,-62 950.5,-81 985.5,-81 985.5,-62 950.5,-62"/>
<text text-anchor="middle" x="968" y="-69" font-family="Helvetica,sans-Serif" font-size="10.00">map</text>
</g>
<!-- Node12&#45;&gt;Node14 -->
<g id="edge13" class="edge"><title>Node12&#45;&gt;Node14</title>
<path fill="none" stroke="midnightblue" d="M987.705,-123.475C984.391,-114.904 979.182,-101.427 974.951,-90.483"/>
<polygon fill="midnightblue" stroke="midnightblue" points="978.159,-89.0745 971.289,-81.0091 971.63,-91.5984 978.159,-89.0745"/>
</g>
<!-- Node15 -->
<g id="node15" class="node"><title>Node15</title>
<polygon fill="none" stroke="#bfbfbf" points="991.5,-0.5 991.5,-19.5 1050.5,-19.5 1050.5,-0.5 991.5,-0.5"/>
<text text-anchor="middle" x="1021" y="-7.5" font-family="Helvetica,sans-Serif" font-size="10.00">TObject.h</text>
</g>
<!-- Node12&#45;&gt;Node15 -->
<g id="edge14" class="edge"><title>Node12&#45;&gt;Node15</title>
<path fill="none" stroke="midnightblue" d="M993.158,-123.298C998.001,-103.763 1009.83,-56.0646 1016.4,-29.5471"/>
<polygon fill="midnightblue" stroke="midnightblue" points="1019.85,-30.1716 1018.86,-19.6232 1013.06,-28.487 1019.85,-30.1716"/>
</g>
<!-- Node16 -->
<g id="node16" class="node"><title>Node16</title>
<g id="a_node16"><a xlink:href="Quality_8h.html" target="_top" xlink:title="QualityControl/Quality.h">
<polygon fill="none" stroke="black" points="1042.5,-62 1042.5,-81 1163.5,-81 1163.5,-62 1042.5,-62"/>
<text text-anchor="middle" x="1103" y="-69" font-family="Helvetica,sans-Serif" font-size="10.00">QualityControl/Quality.h</text>
</a>
</g>
</g>
<!-- Node12&#45;&gt;Node16 -->
<g id="edge16" class="edge"><title>Node12&#45;&gt;Node16</title>
<path fill="none" stroke="midnightblue" d="M1007.05,-123.475C1025.59,-113.622 1056.34,-97.2883 1078.02,-85.7697"/>
<polygon fill="midnightblue" stroke="midnightblue" points="1079.79,-88.7916 1086.98,-81.0091 1076.51,-82.6098 1079.79,-88.7916"/>
</g>
<!-- Node16&#45;&gt;Node15 -->
<g id="edge17" class="edge"><title>Node16&#45;&gt;Node15</title>
<path fill="none" stroke="midnightblue" d="M1091.25,-61.9751C1078.22,-52.5199 1056.96,-37.0961 1041.24,-25.6871"/>
<polygon fill="midnightblue" stroke="midnightblue" points="1042.88,-22.5492 1032.73,-19.5091 1038.77,-28.2149 1042.88,-22.5492"/>
</g>
<!-- Node17 -->
<g id="node17" class="node"><title>Node17</title>
<polygon fill="none" stroke="#bfbfbf" points="1077,-0.5 1077,-19.5 1129,-19.5 1129,-0.5 1077,-0.5"/>
<text text-anchor="middle" x="1103" y="-7.5" font-family="Helvetica,sans-Serif" font-size="10.00">ostream</text>
</g>
<!-- Node16&#45;&gt;Node17 -->
<g id="edge18" class="edge"><title>Node16&#45;&gt;Node17</title>
<path fill="none" stroke="midnightblue" d="M1103,-61.9751C1103,-53.5803 1103,-40.4806 1103,-29.6631"/>
<polygon fill="midnightblue" stroke="midnightblue" points="1106.5,-29.5091 1103,-19.5091 1099.5,-29.5091 1106.5,-29.5091"/>
</g>
<!-- Node18 -->
<g id="node18" class="node"><title>Node18</title>
<polygon fill="none" stroke="#bfbfbf" points="1535.5,-0.5 1535.5,-19.5 1576.5,-19.5 1576.5,-0.5 1535.5,-0.5"/>
<text text-anchor="middle" x="1556" y="-7.5" font-family="Helvetica,sans-Serif" font-size="10.00">string</text>
</g>
<!-- Node16&#45;&gt;Node18 -->
<g id="edge19" class="edge"><title>Node16&#45;&gt;Node18</title>
<path fill="none" stroke="midnightblue" d="M1141.03,-61.9922C1151.37,-59.8522 1162.59,-57.687 1173,-56 1303.22,-34.9049 1459.87,-19.6252 1525.12,-13.7052"/>
<polygon fill="midnightblue" stroke="midnightblue" points="1525.51,-17.185 1535.15,-12.8041 1524.88,-10.2131 1525.51,-17.185"/>
</g>
<!-- Node22&#45;&gt;Node13 -->
<g id="edge49" class="edge"><title>Node22&#45;&gt;Node13</title>
<path fill="none" stroke="midnightblue" d="M709.704,-291.48C695.571,-284.081 677.443,-271.887 669,-255 653.894,-224.788 652.162,-208.282 669,-179 700.281,-124.603 771.213,-95.3975 815.008,-81.9742"/>
<polygon fill="midnightblue" stroke="midnightblue" points="816.11,-85.2984 824.717,-79.1202 814.136,-78.5826 816.11,-85.2984"/>
</g>
<!-- Node23 -->
<g id="node23" class="node"><title>Node23</title>
<g id="a_node23"><a xlink:href="TaskInterface_8h.html" target="_top" xlink:title="TaskInterface.h">
<polygon fill="none" stroke="black" points="1427.5,-235.5 1427.5,-254.5 1512.5,-254.5 1512.5,-235.5 1427.5,-235.5"/>
<text text-anchor="middle" x="1470" y="-242.5" font-family="Helvetica,sans-Serif" font-size="10.00">TaskInterface.h</text>
</a>
</g>
</g>
<!-- Node22&#45;&gt;Node23 -->
<g id="edge24" class="edge"><title>Node22&#45;&gt;Node23</title>
<path fill="none" stroke="midnightblue" d="M803.785,-294.55C953.697,-283.625 1287.67,-259.287 1417.22,-249.847"/>
<polygon fill="midnightblue" stroke="midnightblue" points="1417.56,-253.331 1427.28,-249.113 1417.06,-246.349 1417.56,-253.331"/>
</g>
<!-- Node39 -->
<g id="node39" class="node"><title>Node39</title>
<polygon fill="none" stroke="#bfbfbf" points="678,-235.5 678,-254.5 808,-254.5 808,-235.5 678,-235.5"/>
<text text-anchor="middle" x="743" y="-242.5" font-family="Helvetica,sans-Serif" font-size="10.00">InfoLogger/InfoLogger.hxx</text>
</g>
<!-- Node22&#45;&gt;Node39 -->
<g id="edge48" class="edge"><title>Node22&#45;&gt;Node39</title>
<path fill="none" stroke="midnightblue" d="M731.312,-291.083C733.167,-283.927 735.835,-273.635 738.154,-264.691"/>
<polygon fill="midnightblue" stroke="midnightblue" points="741.609,-265.309 740.731,-254.751 734.834,-263.553 741.609,-265.309"/>
</g>
<!-- Node23&#45;&gt;Node19 -->
<g id="edge25" class="edge"><title>Node23&#45;&gt;Node19</title>
<path fill="none" stroke="midnightblue" d="M1462.97,-235.189C1451.04,-220.899 1425.35,-192.872 1397,-179 1317.84,-140.268 1258.38,-210.739 1202,-143 1190,-128.578 1194.45,-106.267 1200,-90.6156"/>
<polygon fill="midnightblue" stroke="midnightblue" points="1203.37,-91.6081 1203.83,-81.023 1196.87,-89.0147 1203.37,-91.6081"/>
</g>
<!-- Node24 -->
<g id="node24" class="node"><title>Node24</title>
<polygon fill="none" stroke="#bfbfbf" points="1991.5,-179.5 1991.5,-198.5 2040.5,-198.5 2040.5,-179.5 1991.5,-179.5"/>
<text text-anchor="middle" x="2016" y="-186.5" font-family="Helvetica,sans-Serif" font-size="10.00">cassert</text>
</g>
<!-- Node23&#45;&gt;Node24 -->
<g id="edge26" class="edge"><title>Node23&#45;&gt;Node24</title>
<path fill="none" stroke="midnightblue" d="M1512.64,-242.209C1600.15,-238.095 1806.17,-226.159 1977,-199 1978.46,-198.768 1979.94,-198.513 1981.44,-198.239"/>
<polygon fill="midnightblue" stroke="midnightblue" points="1982.24,-201.649 1991.34,-196.232 1980.85,-194.788 1982.24,-201.649"/>
</g>
<!-- Node25 -->
<g id="node25" class="node"><title>Node25</title>
<polygon fill="none" stroke="#bfbfbf" points="2058.5,-179.5 2058.5,-198.5 2183.5,-198.5 2183.5,-179.5 2058.5,-179.5"/>
<text text-anchor="middle" x="2121" y="-186.5" font-family="Helvetica,sans-Serif" font-size="10.00">Framework/InitContext.h</text>
</g>
<!-- Node23&#45;&gt;Node25 -->
<g id="edge27" class="edge"><title>Node23&#45;&gt;Node25</title>
<path fill="none" stroke="midnightblue" d="M1512.63,-241.405C1607.14,-235.5 1841.59,-220.004 2048.17,-199.145"/>
<polygon fill="midnightblue" stroke="midnightblue" points="2048.7,-202.609 2058.3,-198.116 2048,-195.645 2048.7,-202.609"/>
</g>
<!-- Node26 -->
<g id="node26" class="node"><title>Node26</title>
<polygon fill="none" stroke="#bfbfbf" points="1086,-179.5 1086,-198.5 1246,-198.5 1246,-179.5 1086,-179.5"/>
<text text-anchor="middle" x="1166" y="-186.5" font-family="Helvetica,sans-Serif" font-size="10.00">Framework/ProcessingContext.h</text>
</g>
<!-- Node23&#45;&gt;Node26 -->
<g id="edge28" class="edge"><title>Node23&#45;&gt;Node26</title>
<path fill="none" stroke="midnightblue" d="M1427.41,-236.435C1374.35,-227.009 1283.45,-210.862 1224.04,-200.311"/>
<polygon fill="midnightblue" stroke="midnightblue" points="1224.52,-196.841 1214.06,-198.538 1223.3,-203.733 1224.52,-196.841"/>
</g>
<!-- Node27 -->
<g id="node27" class="node"><title>Node27</title>
<polygon fill="none" stroke="#bfbfbf" points="1847.5,-56.5 1847.5,-86.5 1982.5,-86.5 1982.5,-56.5 1847.5,-56.5"/>
<text text-anchor="start" x="1855.5" y="-74.5" font-family="Helvetica,sans-Serif" font-size="10.00">Configuration/Configuration</text>
<text text-anchor="middle" x="1915" y="-63.5" font-family="Helvetica,sans-Serif" font-size="10.00">Interface.h</text>
</g>
<!-- Node23&#45;&gt;Node27 -->
<g id="edge29" class="edge"><title>Node23&#45;&gt;Node27</title>
<path fill="none" stroke="midnightblue" d="M1512.87,-241.527C1619.09,-234.417 1889.81,-209.955 1944,-143 1955.41,-128.897 1946.29,-109.68 1935.35,-94.8719"/>
<polygon fill="midnightblue" stroke="midnightblue" points="1937.81,-92.3563 1928.83,-86.7342 1932.35,-96.7293 1937.81,-92.3563"/>
</g>
<!-- Node28 -->
<g id="node28" class="node"><title>Node28</title>
<g id="a_node28"><a xlink:href="Activity_8h.html" target="_top" xlink:title="QualityControl/Activity.h">
<polygon fill="none" stroke="black" points="1264.5,-179.5 1264.5,-198.5 1387.5,-198.5 1387.5,-179.5 1264.5,-179.5"/>
<text text-anchor="middle" x="1326" y="-186.5" font-family="Helvetica,sans-Serif" font-size="10.00">QualityControl/Activity.h</text>
</a>
</g>
</g>
<!-- Node23&#45;&gt;Node28 -->
<g id="edge30" class="edge"><title>Node23&#45;&gt;Node28</title>
<path fill="none" stroke="midnightblue" d="M1447.18,-235.444C1423.17,-226.438 1385.17,-212.189 1358.13,-202.049"/>
<polygon fill="midnightblue" stroke="midnightblue" points="1359.3,-198.751 1348.71,-198.516 1356.84,-205.305 1359.3,-198.751"/>
</g>
<!-- Node29 -->
<g id="node29" class="node"><title>Node29</title>
<g id="a_node29"><a xlink:href="ObjectsManager_8h.html" target="_top" xlink:title="QualityControl/ObjectsManager.h">
<polygon fill="none" stroke="black" points="1444.5,-179.5 1444.5,-198.5 1605.5,-198.5 1605.5,-179.5 1444.5,-179.5"/>
<text text-anchor="middle" x="1525" y="-186.5" font-family="Helvetica,sans-Serif" font-size="10.00">QualityControl/ObjectsManager.h</text>
</a>
</g>
</g>
<!-- Node23&#45;&gt;Node29 -->
<g id="edge31" class="edge"><title>Node23&#45;&gt;Node29</title>
<path fill="none" stroke="midnightblue" d="M1479.08,-235.083C1487.17,-227.141 1499.2,-215.335 1508.91,-205.797"/>
<polygon fill="midnightblue" stroke="midnightblue" points="1511.4,-208.254 1516.09,-198.751 1506.5,-203.26 1511.4,-208.254"/>
</g>
<!-- Node29&#45;&gt;Node12 -->
<g id="edge32" class="edge"><title>Node29&#45;&gt;Node12</title>
<path fill="none" stroke="midnightblue" d="M1444.48,-179.857C1345.46,-169.845 1178.11,-152.922 1076.76,-142.672"/>
<polygon fill="midnightblue" stroke="midnightblue" points="1076.86,-139.164 1066.56,-141.64 1076.15,-146.129 1076.86,-139.164"/>
</g>
<!-- Node29&#45;&gt;Node16 -->
<g id="edge33" class="edge"><title>Node29&#45;&gt;Node16</title>
<path fill="none" stroke="midnightblue" d="M1496.44,-179.422C1469.08,-170.969 1426.79,-157.279 1391,-143 1371.42,-135.188 1368.01,-129.613 1348,-123 1272.6,-98.0878 1250.77,-103.053 1173,-87 1166.86,-85.7322 1160.41,-84.3999 1154.03,-83.078"/>
<polygon fill="midnightblue" stroke="midnightblue" points="1154.59,-79.6199 1144.08,-81.0201 1153.17,-86.4746 1154.59,-79.6199"/>
</g>
<!-- Node29&#45;&gt;Node18 -->
<g id="edge47" class="edge"><title>Node29&#45;&gt;Node18</title>
<path fill="none" stroke="midnightblue" d="M1490.54,-179.377C1469.14,-172.531 1442.33,-161.047 1424,-143 1395.24,-114.686 1373.68,-88.2083 1398,-56 1413.3,-35.7405 1483.71,-21.8983 1525.2,-15.3442"/>
<polygon fill="midnightblue" stroke="midnightblue" points="1525.96,-18.7682 1535.32,-13.7989 1524.91,-11.8484 1525.96,-18.7682"/>
</g>
<!-- Node30 -->
<g id="node30" class="node"><title>Node30</title>
<g id="a_node30"><a xlink:href="TaskConfig_8h.html" target="_top" xlink:title="QualityControl/TaskConfig.h">
<polygon fill="none" stroke="black" points="1618,-123.5 1618,-142.5 1758,-142.5 1758,-123.5 1618,-123.5"/>
<text text-anchor="middle" x="1688" y="-130.5" font-family="Helvetica,sans-Serif" font-size="10.00">QualityControl/TaskConfig.h</text>
</a>
</g>
</g>
<!-- Node29&#45;&gt;Node30 -->
<g id="edge34" class="edge"><title>Node29&#45;&gt;Node30</title>
<path fill="none" stroke="midnightblue" d="M1550.83,-179.444C1578.25,-170.359 1621.78,-155.939 1652.43,-145.783"/>
<polygon fill="midnightblue" stroke="midnightblue" points="1653.9,-148.984 1662.29,-142.516 1651.7,-142.339 1653.9,-148.984"/>
</g>
<!-- Node31 -->
<g id="node31" class="node"><title>Node31</title>
<g id="a_node31"><a xlink:href="ServiceDiscovery_8h_source.html" target="_top" xlink:title="QualityControl/ServiceDiscovery.h">
<polygon fill="none" stroke="black" points="1432.5,-123.5 1432.5,-142.5 1599.5,-142.5 1599.5,-123.5 1432.5,-123.5"/>
<text text-anchor="middle" x="1516" y="-130.5" font-family="Helvetica,sans-Serif" font-size="10.00">QualityControl/ServiceDiscovery.h</text>
</a>
</g>
</g>
<!-- Node29&#45;&gt;Node31 -->
<g id="edge37" class="edge"><title>Node29&#45;&gt;Node31</title>
<path fill="none" stroke="midnightblue" d="M1523.51,-179.083C1522.32,-171.927 1520.61,-161.635 1519.12,-152.691"/>
<polygon fill="midnightblue" stroke="midnightblue" points="1522.55,-152.04 1517.46,-142.751 1515.65,-153.19 1522.55,-152.04"/>
</g>
<!-- Node36 -->
<g id="node36" class="node"><title>Node36</title>
<polygon fill="none" stroke="#bfbfbf" points="1776.5,-123.5 1776.5,-142.5 1845.5,-142.5 1845.5,-123.5 1776.5,-123.5"/>
<text text-anchor="middle" x="1811" y="-130.5" font-family="Helvetica,sans-Serif" font-size="10.00">TObjArray.h</text>
</g>
<!-- Node29&#45;&gt;Node36 -->
<g id="edge44" class="edge"><title>Node29&#45;&gt;Node36</title>
<path fill="none" stroke="midnightblue" d="M1572.35,-179.455C1619.07,-170.964 1692.8,-157.411 1766.5,-143.069"/>
<polygon fill="midnightblue" stroke="midnightblue" points="1767.28,-146.483 1776.42,-141.133 1765.94,-139.613 1767.28,-146.483"/>
</g>
<!-- Node37 -->
<g id="node37" class="node"><title>Node37</title>
<polygon fill="none" stroke="#bfbfbf" points="1863.5,-123.5 1863.5,-142.5 1934.5,-142.5 1934.5,-123.5 1863.5,-123.5"/>
<text text-anchor="middle" x="1899" y="-130.5" font-family="Helvetica,sans-Serif" font-size="10.00">TObjString.h</text>
</g>
<!-- Node29&#45;&gt;Node37 -->
<g id="edge45" class="edge"><title>Node29&#45;&gt;Node37</title>
<path fill="none" stroke="midnightblue" d="M1597.63,-179.499C1662.35,-171.603 1759.85,-158.922 1853.56,-143.158"/>
<polygon fill="midnightblue" stroke="midnightblue" points="1854.22,-146.596 1863.5,-141.472 1853.05,-139.694 1854.22,-146.596"/>
</g>
<!-- Node38 -->
<g id="node38" class="node"><title>Node38</title>
<polygon fill="none" stroke="#bfbfbf" points="1211,-123.5 1211,-142.5 1339,-142.5 1339,-123.5 1211,-123.5"/>
<text text-anchor="middle" x="1275" y="-130.5" font-family="Helvetica,sans-Serif" font-size="10.00">boost/concept_check.hpp</text>
</g>
<!-- Node29&#45;&gt;Node38 -->
<g id="edge46" class="edge"><title>Node29&#45;&gt;Node38</title>
<path fill="none" stroke="midnightblue" d="M1485.39,-179.444C1441.77,-170.023 1371.6,-154.866 1324.42,-144.675"/>
<polygon fill="midnightblue" stroke="midnightblue" points="1324.94,-141.207 1314.43,-142.516 1323.46,-148.049 1324.94,-141.207"/>
</g>
<!-- Node30&#45;&gt;Node18 -->
<g id="edge35" class="edge"><title>Node30&#45;&gt;Node18</title>
<path fill="none" stroke="midnightblue" d="M1699.47,-123.295C1717.42,-108.629 1748.37,-78.4033 1731,-56 1713.47,-33.3933 1632.1,-20.1582 1586.75,-14.4155"/>
<polygon fill="midnightblue" stroke="midnightblue" points="1586.93,-10.9126 1576.58,-13.1778 1586.09,-17.8612 1586.93,-10.9126"/>
</g>
<!-- Node30&#45;&gt;Node27 -->
<g id="edge36" class="edge"><title>Node30&#45;&gt;Node27</title>
<path fill="none" stroke="midnightblue" d="M1720.52,-123.475C1754.64,-114.532 1809.14,-100.249 1851.77,-89.0738"/>
<polygon fill="midnightblue" stroke="midnightblue" points="1852.71,-92.4442 1861.5,-86.523 1850.94,-85.6729 1852.71,-92.4442"/>
</g>
<!-- Node31&#45;&gt;Node18 -->
<g id="edge41" class="edge"><title>Node31&#45;&gt;Node18</title>
<path fill="none" stroke="midnightblue" d="M1599.34,-123.468C1646.7,-116.709 1699.4,-105.287 1714,-87 1750.66,-41.0728 1642.17,-21.1936 1586.61,-14.1946"/>
<polygon fill="midnightblue" stroke="midnightblue" points="1586.92,-10.7073 1576.57,-12.9984 1586.09,-17.658 1586.92,-10.7073"/>
</g>
<!-- Node31&#45;&gt;Node19 -->
<g id="edge40" class="edge"><title>Node31&#45;&gt;Node19</title>
<path fill="none" stroke="midnightblue" d="M1471.87,-123.475C1410.64,-111.647 1301.07,-90.4793 1244.31,-79.5143"/>
<polygon fill="midnightblue" stroke="midnightblue" points="1244.83,-76.0506 1234.35,-77.5902 1243.5,-82.9235 1244.83,-76.0506"/>
</g>
<!-- Node32 -->
<g id="node32" class="node"><title>Node32</title>
<polygon fill="none" stroke="#bfbfbf" points="1581,-62 1581,-81 1627,-81 1627,-62 1581,-62"/>
<text text-anchor="middle" x="1604" y="-69" font-family="Helvetica,sans-Serif" font-size="10.00">atomic</text>
</g>
<!-- Node31&#45;&gt;Node32 -->
<g id="edge38" class="edge"><title>Node31&#45;&gt;Node32</title>
<path fill="none" stroke="midnightblue" d="M1528.61,-123.475C1542.72,-113.931 1565.83,-98.3073 1582.75,-86.8683"/>
<polygon fill="midnightblue" stroke="midnightblue" points="1585.09,-89.5098 1591.42,-81.0091 1581.17,-83.7109 1585.09,-89.5098"/>
</g>
<!-- Node33 -->
<g id="node33" class="node"><title>Node33</title>
<polygon fill="none" stroke="#bfbfbf" points="1645.5,-62 1645.5,-81 1704.5,-81 1704.5,-62 1645.5,-62"/>
<text text-anchor="middle" x="1675" y="-69" font-family="Helvetica,sans-Serif" font-size="10.00">curl/curl.h</text>
</g>
<!-- Node31&#45;&gt;Node33 -->
<g id="edge39" class="edge"><title>Node31&#45;&gt;Node33</title>
<path fill="none" stroke="midnightblue" d="M1538.78,-123.475C1566.05,-113.269 1611.91,-96.108 1642.8,-84.5492"/>
<polygon fill="midnightblue" stroke="midnightblue" points="1644.12,-87.7919 1652.26,-81.0091 1641.67,-81.2359 1644.12,-87.7919"/>
</g>
<!-- Node34 -->
<g id="node34" class="node"><title>Node34</title>
<polygon fill="none" stroke="#bfbfbf" points="1407,-62 1407,-81 1451,-81 1451,-62 1407,-62"/>
<text text-anchor="middle" x="1429" y="-69" font-family="Helvetica,sans-Serif" font-size="10.00">thread</text>
</g>
<!-- Node31&#45;&gt;Node34 -->
<g id="edge42" class="edge"><title>Node31&#45;&gt;Node34</title>
<path fill="none" stroke="midnightblue" d="M1503.54,-123.475C1489.58,-113.931 1466.74,-98.3073 1450.01,-86.8683"/>
<polygon fill="midnightblue" stroke="midnightblue" points="1451.67,-83.7653 1441.44,-81.0091 1447.72,-89.5433 1451.67,-83.7653"/>
</g>
<!-- Node35 -->
<g id="node35" class="node"><title>Node35</title>
<polygon fill="none" stroke="#bfbfbf" points="1469,-56.5 1469,-86.5 1563,-86.5 1563,-56.5 1469,-56.5"/>
<text text-anchor="start" x="1477" y="-74.5" font-family="Helvetica,sans-Serif" font-size="10.00">boost/asio/ip/host</text>
<text text-anchor="middle" x="1516" y="-63.5" font-family="Helvetica,sans-Serif" font-size="10.00">_name.hpp</text>
</g>
<!-- Node31&#45;&gt;Node35 -->
<g id="edge43" class="edge"><title>Node31&#45;&gt;Node35</title>
<path fill="none" stroke="midnightblue" d="M1516,-123.475C1516,-116.471 1516,-106.192 1516,-96.6956"/>
<polygon fill="midnightblue" stroke="midnightblue" points="1519.5,-96.5229 1516,-86.523 1512.5,-96.523 1519.5,-96.5229"/>
</g>
</g>
</svg>
        <g id="navigator" transform="translate(0 0)" fill="#404254">
                <rect fill="#f2f5e9" fill-opacity="0.5" stroke="#606060" stroke-width=".5" x="0" y="0" width="60" height="60"/>
                <use id="zoomplus" xlink:href="#zoomPlus" x="17" y="9" onmousedown="handleZoom(evt,'in')"/>
                <use id="zoomminus" xlink:href="#zoomMin" x="42" y="9" onmousedown="handleZoom(evt,'out')"/>
                <use id="reset" xlink:href="#resetDef" x="30" y="36" onmousedown="handleReset()"/>
                <g id="arrowUp" xlink:href="#dirArrow" transform="translate(30 24)" onmousedown="handlePan(0,-1)">
                  <use xlink:href="#rim" fill="#404040">
                        <set attributeName="fill" to="#808080" begin="arrowUp.mouseover" end="arrowUp.mouseout"/>
                  </use>
                  <path fill="none" stroke="white" stroke-width="1.5" d="M0,-3.0v7 M-2.5,-0.5L0,-3.0L2.5,-0.5"/>
                </g>
                <g id="arrowRight" xlink:href="#dirArrow" transform="rotate(90) translate(36 -43)" onmousedown="handlePan(1,0)">
                  <use xlink:href="#rim" fill="#404040">
                        <set attributeName="fill" to="#808080" begin="arrowRight.mouseover" end="arrowRight.mouseout"/>
                  </use>
                  <path fill="none" stroke="white" stroke-width="1.5" d="M0,-3.0v7 M-2.5,-0.5L0,-3.0L2.5,-0.5"/>
                </g>
                <g id="arrowDown" xlink:href="#dirArrow" transform="rotate(180) translate(-30 -48)" onmousedown="handlePan(0,1)">
                  <use xlink:href="#rim" fill="#404040">
                        <set attributeName="fill" to="#808080" begin="arrowDown.mouseover" end="arrowDown.mouseout"/>
                  </use>
                  <path fill="none" stroke="white" stroke-width="1.5" d="M0,-3.0v7 M-2.5,-0.5L0,-3.0L2.5,-0.5"/>
                </g>
                <g id="arrowLeft" xlink:href="#dirArrow" transform="rotate(270) translate(-36 17)" onmousedown="handlePan(-1,0)">
                  <use xlink:href="#rim" fill="#404040">
                        <set attributeName="fill" to="#808080" begin="arrowLeft.mouseover" end="arrowLeft.mouseout"/>
                  </use>
                  <path fill="none" stroke="white" stroke-width="1.5" d="M0,-3.0v7 M-2.5,-0.5L0,-3.0L2.5,-0.5"/>
                </g>
        </g>
        <svg viewBox="0 0 15 15" width="100%" height="30px" preserveAspectRatio="xMaxYMin meet">
         <g id="arrow_out" transform="scale(0.3 0.3)">
          <a xlink:href="MySqlDatabase_8cxx__incl_org.svg" target="_base">
           <rect id="button" ry="5" rx="5" y="6" x="6" height="38" width="38"
                fill="#f2f5e9" fill-opacity="0.5" stroke="#606060" stroke-width="1.0"/>
           <path id="arrow"
             d="M 11.500037,31.436501 C 11.940474,20.09759 22.043105,11.32322 32.158766,21.979434 L 37.068811,17.246167 C 37.068811,17.246167 37.088388,32 37.088388,32 L 22.160133,31.978069 C 22.160133,31.978069 26.997745,27.140456 26.997745,27.140456 C 18.528582,18.264221 13.291696,25.230495 11.500037,31.436501 z"
             style="fill:#404040;"/>
          </a>
         </g>
        </svg>
</svg>
