<?xml version="1.0" encoding="UTF-8" standalone="no"?>
<!DOCTYPE svg PUBLIC "-//W3C//DTD SVG 1.1//EN"
 "http://www.w3.org/Graphics/SVG/1.1/DTD/svg11.dtd">
<!-- Generated by graphviz version 2.38.0 (20140413.2041)
 -->
<!-- Title: Framework/include/QualityControl/ObjectsManager.h Pages: 1 -->
<svg width="3518pt" height="307pt"
 viewBox="0.00 0.00 3518.00 307.00" xmlns="http://www.w3.org/2000/svg" xmlns:xlink="http://www.w3.org/1999/xlink">
<g id="graph0" class="graph" transform="scale(1 1) rotate(0) translate(4 303)">
<title>Framework/include/QualityControl/ObjectsManager.h</title>
<!-- Node1 -->
<g id="node1" class="node"><title>Node1</title>
<polygon fill="#bfbfbf" stroke="black" points="2595.5,-268.5 2595.5,-298.5 2728.5,-298.5 2728.5,-268.5 2595.5,-268.5"/>
<text text-anchor="start" x="2603.5" y="-286.5" font-family="Helvetica,sans-Serif" font-size="10.00">Framework/include/Quality</text>
<text text-anchor="middle" x="2662" y="-275.5" font-family="Helvetica,sans-Serif" font-size="10.00">Control/ObjectsManager.h</text>
</g>
<!-- Node2 -->
<g id="node2" class="node"><title>Node2</title>
<g id="a_node2"><a xlink:href="TaskInterface_8h.html" target="_top" xlink:title="Framework/include/Quality\lControl/TaskInterface.h">
<polygon fill="none" stroke="black" points="1945.5,-201.5 1945.5,-231.5 2078.5,-231.5 2078.5,-201.5 1945.5,-201.5"/>
<text text-anchor="start" x="1953.5" y="-219.5" font-family="Helvetica,sans-Serif" font-size="10.00">Framework/include/Quality</text>
<text text-anchor="middle" x="2012" y="-208.5" font-family="Helvetica,sans-Serif" font-size="10.00">Control/TaskInterface.h</text>
</a>
</g>
</g>
<!-- Node1&#45;&gt;Node2 -->
<g id="edge1" class="edge"><title>Node1&#45;&gt;Node2</title>
<path fill="none" stroke="midnightblue" d="M2585.35,-274.835C2456.93,-261.993 2200.48,-236.348 2078.9,-224.19"/>
<polygon fill="midnightblue" stroke="midnightblue" points="2585.19,-278.337 2595.49,-275.849 2585.89,-271.372 2585.19,-278.337"/>
</g>
<!-- Node19 -->
<g id="node19" class="node"><title>Node19</title>
<polygon fill="none" stroke="#bfbfbf" points="0,-0.5 0,-30.5 114,-30.5 114,-0.5 0,-0.5"/>
<text text-anchor="start" x="8" y="-18.5" font-family="Helvetica,sans-Serif" font-size="10.00">Modules/Example/test</text>
<text text-anchor="middle" x="57" y="-7.5" font-family="Helvetica,sans-Serif" font-size="10.00">/testFactory.cxx</text>
</g>
<!-- Node1&#45;&gt;Node19 -->
<g id="edge66" class="edge"><title>Node1&#45;&gt;Node19</title>
<path fill="none" stroke="midnightblue" d="M2585.1,-281.001C2201.18,-273.209 501.472,-234.99 277,-165 189.015,-137.566 104.229,-62.3606 71.3457,-30.7708"/>
<polygon fill="midnightblue" stroke="midnightblue" points="2585.2,-284.503 2595.27,-281.206 2585.34,-277.505 2585.2,-284.503"/>
</g>
<!-- Node27 -->
<g id="node27" class="node"><title>Node27</title>
<g id="a_node27"><a xlink:href="ObjectsManager_8cxx.html" target="_top" xlink:title="Framework/src/ObjectsManager.cxx">
<polygon fill="none" stroke="black" points="2584.5,-73 2584.5,-92 2759.5,-92 2759.5,-73 2584.5,-73"/>
<text text-anchor="middle" x="2672" y="-80" font-family="Helvetica,sans-Serif" font-size="10.00">Framework/src/ObjectsManager.cxx</text>
</a>
</g>
</g>
<!-- Node1&#45;&gt;Node27 -->
<g id="edge63" class="edge"><title>Node1&#45;&gt;Node27</title>
<path fill="none" stroke="midnightblue" d="M2663.23,-257.962C2665.47,-213.433 2670.1,-121.253 2671.55,-92.3601"/>
<polygon fill="midnightblue" stroke="midnightblue" points="2659.73,-258.025 2662.72,-268.188 2666.72,-258.377 2659.73,-258.025"/>
</g>
<!-- Node49 -->
<g id="node49" class="node"><title>Node49</title>
<polygon fill="none" stroke="#bfbfbf" points="2690,-201.5 2690,-231.5 2828,-231.5 2828,-201.5 2690,-201.5"/>
<text text-anchor="start" x="2698" y="-219.5" font-family="Helvetica,sans-Serif" font-size="10.00">Framework/test/testObjects</text>
<text text-anchor="middle" x="2759" y="-208.5" font-family="Helvetica,sans-Serif" font-size="10.00">Manager.cxx</text>
</g>
<!-- Node1&#45;&gt;Node49 -->
<g id="edge64" class="edge"><title>Node1&#45;&gt;Node49</title>
<path fill="none" stroke="midnightblue" d="M2691.5,-262.734C2706.51,-252.676 2724.4,-240.685 2737.99,-231.577"/>
<polygon fill="midnightblue" stroke="midnightblue" points="2689.41,-259.922 2683.05,-268.396 2693.3,-265.737 2689.41,-259.922"/>
</g>
<!-- Node50 -->
<g id="node50" class="node"><title>Node50</title>
<g id="a_node50"><a xlink:href="testPublisher_8cxx.html" target="_top" xlink:title="Framework/test/testPublisher.cxx">
<polygon fill="none" stroke="black" points="2846,-207 2846,-226 3010,-226 3010,-207 2846,-207"/>
<text text-anchor="middle" x="2928" y="-214" font-family="Helvetica,sans-Serif" font-size="10.00">Framework/test/testPublisher.cxx</text>
</a>
</g>
</g>
<!-- Node1&#45;&gt;Node50 -->
<g id="edge65" class="edge"><title>Node1&#45;&gt;Node50</title>
<path fill="none" stroke="midnightblue" d="M2729.24,-266.069C2781.4,-253.323 2851.6,-236.169 2893.1,-226.029"/>
<polygon fill="midnightblue" stroke="midnightblue" points="2728.27,-262.702 2719.39,-268.476 2729.94,-269.502 2728.27,-262.702"/>
</g>
<!-- Node3 -->
<g id="node3" class="node"><title>Node3</title>
<g id="a_node3"><a xlink:href="QcInfoLogger_8h.html" target="_top" xlink:title="Framework/include/Quality\lControl/QcInfoLogger.h">
<polygon fill="none" stroke="black" points="1393.5,-134.5 1393.5,-164.5 1526.5,-164.5 1526.5,-134.5 1393.5,-134.5"/>
<text text-anchor="start" x="1401.5" y="-152.5" font-family="Helvetica,sans-Serif" font-size="10.00">Framework/include/Quality</text>
<text text-anchor="middle" x="1460" y="-141.5" font-family="Helvetica,sans-Serif" font-size="10.00">Control/QcInfoLogger.h</text>
</a>
</g>
</g>
<!-- Node2&#45;&gt;Node3 -->
<g id="edge2" class="edge"><title>Node2&#45;&gt;Node3</title>
<path fill="none" stroke="midnightblue" d="M1935.18,-206.454C1826.53,-193.66 1629.75,-170.488 1526.82,-158.368"/>
<polygon fill="midnightblue" stroke="midnightblue" points="1935.08,-209.966 1945.42,-207.659 1935.89,-203.014 1935.08,-209.966"/>
</g>
<!-- Node16 -->
<g id="node16" class="node"><title>Node16</title>
<g id="a_node16"><a xlink:href="testTaskInterface_8cxx.html" target="_top" xlink:title="Framework/test/testTaskInterface.cxx">
<polygon fill="none" stroke="black" points="1722.5,-6 1722.5,-25 1905.5,-25 1905.5,-6 1722.5,-6"/>
<text text-anchor="middle" x="1814" y="-13" font-family="Helvetica,sans-Serif" font-size="10.00">Framework/test/testTaskInterface.cxx</text>
</a>
</g>
</g>
<!-- Node2&#45;&gt;Node16 -->
<g id="edge44" class="edge"><title>Node2&#45;&gt;Node16</title>
<path fill="none" stroke="midnightblue" d="M2088.81,-210.9C2196.29,-203.669 2380.75,-188.046 2401,-165 2411.99,-152.492 2422.21,-90.5697 2400,-67 2362.94,-27.6765 1968.72,-36.843 1915,-31 1899.85,-29.3527 1883.49,-27.1758 1868.43,-25.011"/>
<polygon fill="midnightblue" stroke="midnightblue" points="2088.41,-207.419 2078.66,-211.574 2088.87,-214.404 2088.41,-207.419"/>
</g>
<!-- Node24 -->
<g id="node24" class="node"><title>Node24</title>
<g id="a_node24"><a xlink:href="DatabaseFactory_8cxx.html" target="_top" xlink:title="Framework/src/DatabaseFactory.cxx">
<polygon fill="none" stroke="black" points="768.5,-73 768.5,-92 947.5,-92 947.5,-73 768.5,-73"/>
<text text-anchor="middle" x="858" y="-80" font-family="Helvetica,sans-Serif" font-size="10.00">Framework/src/DatabaseFactory.cxx</text>
</a>
</g>
</g>
<!-- Node2&#45;&gt;Node24 -->
<g id="edge42" class="edge"><title>Node2&#45;&gt;Node24</title>
<path fill="none" stroke="midnightblue" d="M1935.32,-211.156C1816.83,-204.031 1582.18,-188.29 1384,-165 1206.64,-144.157 997.312,-108.339 905.348,-92.0327"/>
<polygon fill="midnightblue" stroke="midnightblue" points="1935.19,-214.654 1945.38,-211.757 1935.61,-207.666 1935.19,-214.654"/>
</g>
<!-- Node36 -->
<g id="node36" class="node"><title>Node36</title>
<g id="a_node36"><a xlink:href="TaskRunner_8h.html" target="_top" xlink:title="Framework/include/Quality\lControl/TaskRunner.h">
<polygon fill="none" stroke="black" points="2941.5,-67.5 2941.5,-97.5 3074.5,-97.5 3074.5,-67.5 2941.5,-67.5"/>
<text text-anchor="start" x="2949.5" y="-85.5" font-family="Helvetica,sans-Serif" font-size="10.00">Framework/include/Quality</text>
<text text-anchor="middle" x="3008" y="-74.5" font-family="Helvetica,sans-Serif" font-size="10.00">Control/TaskRunner.h</text>
</a>
</g>
</g>
<!-- Node2&#45;&gt;Node36 -->
<g id="edge36" class="edge"><title>Node2&#45;&gt;Node36</title>
<path fill="none" stroke="midnightblue" d="M2088.84,-211.775C2202.21,-205.642 2420.77,-191.385 2605,-165 2728.48,-147.316 2871.16,-115.798 2949.3,-97.5736"/>
<polygon fill="midnightblue" stroke="midnightblue" points="2088.34,-208.297 2078.54,-212.325 2088.71,-215.287 2088.34,-208.297"/>
</g>
<!-- Node40 -->
<g id="node40" class="node"><title>Node40</title>
<g id="a_node40"><a xlink:href="TaskInterface_8cxx.html" target="_top" xlink:title="Framework/src/TaskInterface.cxx">
<polygon fill="none" stroke="black" points="2228,-140 2228,-159 2392,-159 2392,-140 2228,-140"/>
<text text-anchor="middle" x="2310" y="-147" font-family="Helvetica,sans-Serif" font-size="10.00">Framework/src/TaskInterface.cxx</text>
</a>
</g>
</g>
<!-- Node2&#45;&gt;Node40 -->
<g id="edge43" class="edge"><title>Node2&#45;&gt;Node40</title>
<path fill="none" stroke="midnightblue" d="M2086.24,-199.307C2144.78,-186.537 2224.12,-169.233 2270.9,-159.029"/>
<polygon fill="midnightblue" stroke="midnightblue" points="2085.32,-195.925 2076.29,-201.476 2086.81,-202.764 2085.32,-195.925"/>
</g>
<!-- Node41 -->
<g id="node41" class="node"><title>Node41</title>
<g id="a_node41"><a xlink:href="DaqTask_8h.html" target="_top" xlink:title="Modules/Daq/include\l/Daq/DaqTask.h">
<polygon fill="none" stroke="black" points="286,-134.5 286,-164.5 394,-164.5 394,-134.5 286,-134.5"/>
<text text-anchor="start" x="294" y="-152.5" font-family="Helvetica,sans-Serif" font-size="10.00">Modules/Daq/include</text>
<text text-anchor="middle" x="340" y="-141.5" font-family="Helvetica,sans-Serif" font-size="10.00">/Daq/DaqTask.h</text>
</a>
</g>
</g>
<!-- Node2&#45;&gt;Node41 -->
<g id="edge45" class="edge"><title>Node2&#45;&gt;Node41</title>
<path fill="none" stroke="midnightblue" d="M1934.93,-216.113C1706.28,-217.268 1011.93,-215.988 439,-165 424.379,-163.699 408.624,-161.677 394.077,-159.552"/>
<polygon fill="midnightblue" stroke="midnightblue" points="1935.16,-219.612 1945.14,-216.058 1935.12,-212.612 1935.16,-219.612"/>
</g>
<!-- Node42 -->
<g id="node42" class="node"><title>Node42</title>
<g id="a_node42"><a xlink:href="DigitsQcTask_8h.html" target="_top" xlink:title="Modules/EMCAL/include\l/EMCAL/DigitsQcTask.h">
<polygon fill="none" stroke="black" points="1798.5,-134.5 1798.5,-164.5 1923.5,-164.5 1923.5,-134.5 1798.5,-134.5"/>
<text text-anchor="start" x="1806.5" y="-152.5" font-family="Helvetica,sans-Serif" font-size="10.00">Modules/EMCAL/include</text>
<text text-anchor="middle" x="1861" y="-141.5" font-family="Helvetica,sans-Serif" font-size="10.00">/EMCAL/DigitsQcTask.h</text>
</a>
</g>
</g>
<!-- Node2&#45;&gt;Node42 -->
<g id="edge48" class="edge"><title>Node2&#45;&gt;Node42</title>
<path fill="none" stroke="midnightblue" d="M1969.97,-197.407C1945.86,-187.029 1916.05,-174.195 1893.7,-164.577"/>
<polygon fill="midnightblue" stroke="midnightblue" points="1968.67,-200.657 1979.24,-201.396 1971.43,-194.227 1968.67,-200.657"/>
</g>
<!-- Node43 -->
<g id="node43" class="node"><title>Node43</title>
<g id="a_node43"><a xlink:href="BenchmarkTask_8h.html" target="_top" xlink:title="Modules/Example/include\l/Example/BenchmarkTask.h">
<polygon fill="none" stroke="black" points="1942,-134.5 1942,-164.5 2082,-164.5 2082,-134.5 1942,-134.5"/>
<text text-anchor="start" x="1950" y="-152.5" font-family="Helvetica,sans-Serif" font-size="10.00">Modules/Example/include</text>
<text text-anchor="middle" x="2012" y="-141.5" font-family="Helvetica,sans-Serif" font-size="10.00">/Example/BenchmarkTask.h</text>
</a>
</g>
</g>
<!-- Node2&#45;&gt;Node43 -->
<g id="edge50" class="edge"><title>Node2&#45;&gt;Node43</title>
<path fill="none" stroke="midnightblue" d="M2012,-191.108C2012,-182.154 2012,-172.323 2012,-164.577"/>
<polygon fill="midnightblue" stroke="midnightblue" points="2008.5,-191.396 2012,-201.396 2015.5,-191.396 2008.5,-191.396"/>
</g>
<!-- Node44 -->
<g id="node44" class="node"><title>Node44</title>
<g id="a_node44"><a xlink:href="ExampleCondition_8h.html" target="_top" xlink:title="Modules/Example/include\l/Example/ExampleCondition.h">
<polygon fill="none" stroke="black" points="2447.5,-134.5 2447.5,-164.5 2596.5,-164.5 2596.5,-134.5 2447.5,-134.5"/>
<text text-anchor="start" x="2455.5" y="-152.5" font-family="Helvetica,sans-Serif" font-size="10.00">Modules/Example/include</text>
<text text-anchor="middle" x="2522" y="-141.5" font-family="Helvetica,sans-Serif" font-size="10.00">/Example/ExampleCondition.h</text>
</a>
</g>
</g>
<!-- Node2&#45;&gt;Node44 -->
<g id="edge52" class="edge"><title>Node2&#45;&gt;Node44</title>
<path fill="none" stroke="midnightblue" d="M2088.67,-207.355C2173.34,-198.121 2313.61,-182.113 2434,-165 2438.29,-164.39 2442.7,-163.74 2447.14,-163.066"/>
<polygon fill="midnightblue" stroke="midnightblue" points="2088.19,-203.887 2078.63,-208.447 2088.95,-210.846 2088.19,-203.887"/>
</g>
<!-- Node46 -->
<g id="node46" class="node"><title>Node46</title>
<g id="a_node46"><a xlink:href="ExampleTask_8h.html" target="_top" xlink:title="Modules/Example/include\l/Example/ExampleTask.h">
<polygon fill="none" stroke="black" points="448.5,-134.5 448.5,-164.5 577.5,-164.5 577.5,-134.5 448.5,-134.5"/>
<text text-anchor="start" x="456.5" y="-152.5" font-family="Helvetica,sans-Serif" font-size="10.00">Modules/Example/include</text>
<text text-anchor="middle" x="513" y="-141.5" font-family="Helvetica,sans-Serif" font-size="10.00">/Example/ExampleTask.h</text>
</a>
</g>
</g>
<!-- Node2&#45;&gt;Node46 -->
<g id="edge54" class="edge"><title>Node2&#45;&gt;Node46</title>
<path fill="none" stroke="midnightblue" d="M1935.24,-215.328C1724.76,-214.291 1120.86,-207.528 621,-165 606.957,-163.805 591.94,-162.078 577.707,-160.229"/>
<polygon fill="midnightblue" stroke="midnightblue" points="1935.25,-218.828 1945.26,-215.374 1935.28,-211.828 1935.25,-218.828"/>
</g>
<!-- Node47 -->
<g id="node47" class="node"><title>Node47</title>
<g id="a_node47"><a xlink:href="SkeletonTask_8h.html" target="_top" xlink:title="Modules/Skeleton/include\l/Skeleton/SkeletonTask.h">
<polygon fill="none" stroke="black" points="630.5,-134.5 630.5,-164.5 759.5,-164.5 759.5,-134.5 630.5,-134.5"/>
<text text-anchor="start" x="638.5" y="-152.5" font-family="Helvetica,sans-Serif" font-size="10.00">Modules/Skeleton/include</text>
<text text-anchor="middle" x="695" y="-141.5" font-family="Helvetica,sans-Serif" font-size="10.00">/Skeleton/SkeletonTask.h</text>
</a>
</g>
</g>
<!-- Node2&#45;&gt;Node47 -->
<g id="edge58" class="edge"><title>Node2&#45;&gt;Node47</title>
<path fill="none" stroke="midnightblue" d="M1935.07,-211.703C1697.72,-199.989 979.641,-164.548 759.717,-153.694"/>
<polygon fill="midnightblue" stroke="midnightblue" points="1935.17,-215.212 1945.33,-212.21 1935.52,-208.221 1935.17,-215.212"/>
</g>
<!-- Node48 -->
<g id="node48" class="node"><title>Node48</title>
<g id="a_node48"><a xlink:href="TOFTask_8h.html" target="_top" xlink:title="Modules/TOF/include\l/TOF/TOFTask.h">
<polygon fill="none" stroke="black" points="2100,-134.5 2100,-164.5 2210,-164.5 2210,-134.5 2100,-134.5"/>
<text text-anchor="start" x="2108" y="-152.5" font-family="Helvetica,sans-Serif" font-size="10.00">Modules/TOF/include</text>
<text text-anchor="middle" x="2155" y="-141.5" font-family="Helvetica,sans-Serif" font-size="10.00">/TOF/TOFTask.h</text>
</a>
</g>
</g>
<!-- Node2&#45;&gt;Node48 -->
<g id="edge61" class="edge"><title>Node2&#45;&gt;Node48</title>
<path fill="none" stroke="midnightblue" d="M2052.41,-197.131C2075.13,-186.802 2103.06,-174.11 2124.03,-164.577"/>
<polygon fill="midnightblue" stroke="midnightblue" points="2050.68,-194.072 2043.03,-201.396 2053.58,-200.444 2050.68,-194.072"/>
</g>
<!-- Node4 -->
<g id="node4" class="node"><title>Node4</title>
<g id="a_node4"><a xlink:href="Checker_8h.html" target="_top" xlink:title="Framework/include/Quality\lControl/Checker.h">
<polygon fill="none" stroke="black" points="1155.5,-67.5 1155.5,-97.5 1288.5,-97.5 1288.5,-67.5 1155.5,-67.5"/>
<text text-anchor="start" x="1163.5" y="-85.5" font-family="Helvetica,sans-Serif" font-size="10.00">Framework/include/Quality</text>
<text text-anchor="middle" x="1222" y="-74.5" font-family="Helvetica,sans-Serif" font-size="10.00">Control/Checker.h</text>
</a>
</g>
</g>
<!-- Node3&#45;&gt;Node4 -->
<g id="edge3" class="edge"><title>Node3&#45;&gt;Node4</title>
<path fill="none" stroke="midnightblue" d="M1398.54,-131.715C1359.81,-121.137 1310.37,-107.635 1273.67,-97.6109"/>
<polygon fill="midnightblue" stroke="midnightblue" points="1398.08,-135.218 1408.65,-134.476 1399.93,-128.465 1398.08,-135.218"/>
</g>
<!-- Node14 -->
<g id="node14" class="node"><title>Node14</title>
<g id="a_node14"><a xlink:href="TaskFactory_8h.html" target="_top" xlink:title="Framework/include/Quality\lControl/TaskFactory.h">
<polygon fill="none" stroke="black" points="965.5,-67.5 965.5,-97.5 1098.5,-97.5 1098.5,-67.5 965.5,-67.5"/>
<text text-anchor="start" x="973.5" y="-85.5" font-family="Helvetica,sans-Serif" font-size="10.00">Framework/include/Quality</text>
<text text-anchor="middle" x="1032" y="-74.5" font-family="Helvetica,sans-Serif" font-size="10.00">Control/TaskFactory.h</text>
</a>
</g>
</g>
<!-- Node3&#45;&gt;Node14 -->
<g id="edge13" class="edge"><title>Node3&#45;&gt;Node14</title>
<path fill="none" stroke="midnightblue" d="M1383.27,-138.065C1312.88,-128.319 1205.79,-113.053 1113,-98 1108.35,-97.2451 1103.55,-96.4438 1098.72,-95.6207"/>
<polygon fill="midnightblue" stroke="midnightblue" points="1382.99,-141.56 1393.38,-139.462 1383.95,-134.626 1382.99,-141.56"/>
</g>
<!-- Node15 -->
<g id="node15" class="node"><title>Node15</title>
<g id="a_node15"><a xlink:href="TaskRunner_8cxx.html" target="_top" xlink:title="Framework/src/TaskRunner.cxx">
<polygon fill="none" stroke="black" points="1010.5,-6 1010.5,-25 1167.5,-25 1167.5,-6 1010.5,-6"/>
<text text-anchor="middle" x="1089" y="-13" font-family="Helvetica,sans-Serif" font-size="10.00">Framework/src/TaskRunner.cxx</text>
</a>
</g>
</g>
<!-- Node3&#45;&gt;Node15 -->
<g id="edge28" class="edge"><title>Node3&#45;&gt;Node15</title>
<path fill="none" stroke="midnightblue" d="M1383.38,-143.028C1303.46,-136.13 1184.53,-122.152 1146,-98 1117.47,-80.116 1099.33,-42.1896 1092.31,-25.1307"/>
<polygon fill="midnightblue" stroke="midnightblue" points="1383.15,-146.521 1393.41,-143.875 1383.74,-139.546 1383.15,-146.521"/>
</g>
<!-- Node3&#45;&gt;Node24 -->
<g id="edge23" class="edge"><title>Node3&#45;&gt;Node24</title>
<path fill="none" stroke="midnightblue" d="M1383.24,-141.94C1284.32,-133.226 1107.08,-116.736 956,-98 941.833,-96.2432 926.551,-94.1014 912.366,-92.0088"/>
<polygon fill="midnightblue" stroke="midnightblue" points="1383.17,-145.447 1393.44,-142.835 1383.79,-138.474 1383.17,-145.447"/>
</g>
<!-- Node25 -->
<g id="node25" class="node"><title>Node25</title>
<g id="a_node25"><a xlink:href="InformationService_8cxx.html" target="_top" xlink:title="Framework/src/Information\lService.cxx">
<polygon fill="none" stroke="black" points="1307,-67.5 1307,-97.5 1441,-97.5 1441,-67.5 1307,-67.5"/>
<text text-anchor="start" x="1315" y="-85.5" font-family="Helvetica,sans-Serif" font-size="10.00">Framework/src/Information</text>
<text text-anchor="middle" x="1374" y="-74.5" font-family="Helvetica,sans-Serif" font-size="10.00">Service.cxx</text>
</a>
</g>
</g>
<!-- Node3&#45;&gt;Node25 -->
<g id="edge24" class="edge"><title>Node3&#45;&gt;Node25</title>
<path fill="none" stroke="midnightblue" d="M1433.1,-128.168C1419.95,-118.228 1404.45,-106.514 1392.62,-97.5765"/>
<polygon fill="midnightblue" stroke="midnightblue" points="1431.25,-131.158 1441.34,-134.396 1435.47,-125.574 1431.25,-131.158"/>
</g>
<!-- Node26 -->
<g id="node26" class="node"><title>Node26</title>
<g id="a_node26"><a xlink:href="MySqlDatabase_8cxx.html" target="_top" xlink:title="Framework/src/MySqlDatabase.cxx">
<polygon fill="none" stroke="black" points="1459.5,-73 1459.5,-92 1632.5,-92 1632.5,-73 1459.5,-73"/>
<text text-anchor="middle" x="1546" y="-80" font-family="Helvetica,sans-Serif" font-size="10.00">Framework/src/MySqlDatabase.cxx</text>
</a>
</g>
</g>
<!-- Node3&#45;&gt;Node26 -->
<g id="edge25" class="edge"><title>Node3&#45;&gt;Node26</title>
<path fill="none" stroke="midnightblue" d="M1486.67,-128.343C1502.72,-116.213 1522.33,-101.389 1534.5,-92.1945"/>
<polygon fill="midnightblue" stroke="midnightblue" points="1484.53,-125.574 1478.66,-134.396 1488.75,-131.158 1484.53,-125.574"/>
</g>
<!-- Node3&#45;&gt;Node27 -->
<g id="edge26" class="edge"><title>Node3&#45;&gt;Node27</title>
<path fill="none" stroke="midnightblue" d="M1536.86,-145.071C1786.93,-133.909 2562.06,-99.2565 2575,-98 2590.25,-96.5185 2606.77,-94.2866 2621.78,-92.0149"/>
<polygon fill="midnightblue" stroke="midnightblue" points="1536.6,-141.579 1526.77,-145.522 1536.91,-148.572 1536.6,-141.579"/>
</g>
<!-- Node28 -->
<g id="node28" class="node"><title>Node28</title>
<g id="a_node28"><a xlink:href="RepositoryBenchmark_8cxx.html" target="_top" xlink:title="Framework/src/Repository\lBenchmark.cxx">
<polygon fill="none" stroke="black" points="1651,-67.5 1651,-97.5 1783,-97.5 1783,-67.5 1651,-67.5"/>
<text text-anchor="start" x="1659" y="-85.5" font-family="Helvetica,sans-Serif" font-size="10.00">Framework/src/Repository</text>
<text text-anchor="middle" x="1717" y="-74.5" font-family="Helvetica,sans-Serif" font-size="10.00">Benchmark.cxx</text>
</a>
</g>
</g>
<!-- Node3&#45;&gt;Node28 -->
<g id="edge27" class="edge"><title>Node3&#45;&gt;Node28</title>
<path fill="none" stroke="midnightblue" d="M1525.3,-131.984C1567.28,-121.367 1621.24,-107.72 1661.21,-97.6109"/>
<polygon fill="midnightblue" stroke="midnightblue" points="1524.29,-128.631 1515.45,-134.476 1526,-135.417 1524.29,-128.631"/>
</g>
<!-- Node29 -->
<g id="node29" class="node"><title>Node29</title>
<g id="a_node29"><a xlink:href="testQcInfoLogger_8cxx.html" target="_top" xlink:title="Framework/test/testQcInfo\lLogger.cxx">
<polygon fill="none" stroke="black" points="1801,-67.5 1801,-97.5 1935,-97.5 1935,-67.5 1801,-67.5"/>
<text text-anchor="start" x="1809" y="-85.5" font-family="Helvetica,sans-Serif" font-size="10.00">Framework/test/testQcInfo</text>
<text text-anchor="middle" x="1868" y="-74.5" font-family="Helvetica,sans-Serif" font-size="10.00">Logger.cxx</text>
</a>
</g>
</g>
<!-- Node3&#45;&gt;Node29 -->
<g id="edge29" class="edge"><title>Node3&#45;&gt;Node29</title>
<path fill="none" stroke="midnightblue" d="M1536.68,-137.671C1604.06,-127.956 1704.68,-112.965 1792,-98 1794.91,-97.5008 1797.89,-96.9803 1800.89,-96.4459"/>
<polygon fill="midnightblue" stroke="midnightblue" points="1535.97,-134.236 1526.57,-139.124 1536.97,-141.165 1535.97,-134.236"/>
</g>
<!-- Node30 -->
<g id="node30" class="node"><title>Node30</title>
<g id="a_node30"><a xlink:href="DaqTask_8cxx.html" target="_top" xlink:title="Modules/Daq/src/DaqTask.cxx">
<polygon fill="none" stroke="black" points="264,-73 264,-92 416,-92 416,-73 264,-73"/>
<text text-anchor="middle" x="340" y="-80" font-family="Helvetica,sans-Serif" font-size="10.00">Modules/Daq/src/DaqTask.cxx</text>
</a>
</g>
</g>
<!-- Node3&#45;&gt;Node30 -->
<g id="edge30" class="edge"><title>Node3&#45;&gt;Node30</title>
<path fill="none" stroke="midnightblue" d="M1382.99,-145.418C1220.1,-138.686 828.694,-121.376 501,-98 473.287,-96.023 442.93,-93.4066 416.119,-90.941"/>
<polygon fill="midnightblue" stroke="midnightblue" points="1383.25,-148.932 1393.39,-145.846 1383.54,-141.938 1383.25,-148.932"/>
</g>
<!-- Node31 -->
<g id="node31" class="node"><title>Node31</title>
<g id="a_node31"><a xlink:href="DigitsQcTask_8cxx.html" target="_top" xlink:title="Modules/EMCAL/src/Digits\lQcTask.cxx">
<polygon fill="none" stroke="black" points="1953,-67.5 1953,-97.5 2089,-97.5 2089,-67.5 1953,-67.5"/>
<text text-anchor="start" x="1961" y="-85.5" font-family="Helvetica,sans-Serif" font-size="10.00">Modules/EMCAL/src/Digits</text>
<text text-anchor="middle" x="2021" y="-74.5" font-family="Helvetica,sans-Serif" font-size="10.00">QcTask.cxx</text>
</a>
</g>
</g>
<!-- Node3&#45;&gt;Node31 -->
<g id="edge31" class="edge"><title>Node3&#45;&gt;Node31</title>
<path fill="none" stroke="midnightblue" d="M1536.93,-142.438C1632.61,-134.446 1800.83,-118.913 1944,-98 1946.83,-97.5871 1949.71,-97.1444 1952.62,-96.6795"/>
<polygon fill="midnightblue" stroke="midnightblue" points="1536.44,-138.966 1526.76,-143.281 1537.02,-145.942 1536.44,-138.966"/>
</g>
<!-- Node32 -->
<g id="node32" class="node"><title>Node32</title>
<g id="a_node32"><a xlink:href="BenchmarkTask_8cxx.html" target="_top" xlink:title="Modules/Example/src\l/BenchmarkTask.cxx">
<polygon fill="none" stroke="black" points="2107.5,-67.5 2107.5,-97.5 2218.5,-97.5 2218.5,-67.5 2107.5,-67.5"/>
<text text-anchor="start" x="2115.5" y="-85.5" font-family="Helvetica,sans-Serif" font-size="10.00">Modules/Example/src</text>
<text text-anchor="middle" x="2163" y="-74.5" font-family="Helvetica,sans-Serif" font-size="10.00">/BenchmarkTask.cxx</text>
</a>
</g>
</g>
<!-- Node3&#45;&gt;Node32 -->
<g id="edge32" class="edge"><title>Node3&#45;&gt;Node32</title>
<path fill="none" stroke="midnightblue" d="M1537.16,-145.891C1657.52,-141.036 1897.02,-128.219 2098,-98 2101.09,-97.5358 2104.25,-97.0083 2107.43,-96.4359"/>
<polygon fill="midnightblue" stroke="midnightblue" points="1536.8,-142.403 1526.94,-146.296 1537.07,-149.397 1536.8,-142.403"/>
</g>
<!-- Node33 -->
<g id="node33" class="node"><title>Node33</title>
<g id="a_node33"><a xlink:href="ExampleTask_8cxx.html" target="_top" xlink:title="Modules/Example/src\l/ExampleTask.cxx">
<polygon fill="none" stroke="black" points="510.5,-67.5 510.5,-97.5 621.5,-97.5 621.5,-67.5 510.5,-67.5"/>
<text text-anchor="start" x="518.5" y="-85.5" font-family="Helvetica,sans-Serif" font-size="10.00">Modules/Example/src</text>
<text text-anchor="middle" x="566" y="-74.5" font-family="Helvetica,sans-Serif" font-size="10.00">/ExampleTask.cxx</text>
</a>
</g>
</g>
<!-- Node3&#45;&gt;Node33 -->
<g id="edge33" class="edge"><title>Node3&#45;&gt;Node33</title>
<path fill="none" stroke="midnightblue" d="M1383.2,-147.972C1236.23,-146.048 905.293,-137.296 630,-98 627.293,-97.6136 624.531,-97.1722 621.749,-96.6896"/>
<polygon fill="midnightblue" stroke="midnightblue" points="1383.42,-151.475 1393.46,-148.1 1383.51,-144.476 1383.42,-151.475"/>
</g>
<!-- Node34 -->
<g id="node34" class="node"><title>Node34</title>
<g id="a_node34"><a xlink:href="SkeletonTask_8cxx.html" target="_top" xlink:title="Modules/Skeleton/src\l/SkeletonTask.cxx">
<polygon fill="none" stroke="black" points="639.5,-67.5 639.5,-97.5 750.5,-97.5 750.5,-67.5 639.5,-67.5"/>
<text text-anchor="start" x="647.5" y="-85.5" font-family="Helvetica,sans-Serif" font-size="10.00">Modules/Skeleton/src</text>
<text text-anchor="middle" x="695" y="-74.5" font-family="Helvetica,sans-Serif" font-size="10.00">/SkeletonTask.cxx</text>
</a>
</g>
</g>
<!-- Node3&#45;&gt;Node34 -->
<g id="edge34" class="edge"><title>Node3&#45;&gt;Node34</title>
<path fill="none" stroke="midnightblue" d="M1383.23,-146.754C1253.83,-142.968 984.329,-131.447 759,-98 756.295,-97.5985 753.535,-97.1449 750.754,-96.6524"/>
<polygon fill="midnightblue" stroke="midnightblue" points="1383.33,-150.259 1393.43,-147.045 1383.53,-143.262 1383.33,-150.259"/>
</g>
<!-- Node35 -->
<g id="node35" class="node"><title>Node35</title>
<g id="a_node35"><a xlink:href="TOFTask_8cxx.html" target="_top" xlink:title="Modules/TOF/src/TOFTask.cxx">
<polygon fill="none" stroke="black" points="2236.5,-73 2236.5,-92 2391.5,-92 2391.5,-73 2236.5,-73"/>
<text text-anchor="middle" x="2314" y="-80" font-family="Helvetica,sans-Serif" font-size="10.00">Modules/TOF/src/TOFTask.cxx</text>
</a>
</g>
</g>
<!-- Node3&#45;&gt;Node35 -->
<g id="edge35" class="edge"><title>Node3&#45;&gt;Node35</title>
<path fill="none" stroke="midnightblue" d="M1536.7,-144.423C1703.51,-135.399 2094.89,-113.32 2227,-98 2240.39,-96.4478 2254.85,-94.2494 2268.07,-92.0324"/>
<polygon fill="midnightblue" stroke="midnightblue" points="1536.32,-140.939 1526.52,-144.973 1536.7,-147.929 1536.32,-140.939"/>
</g>
<!-- Node5 -->
<g id="node5" class="node"><title>Node5</title>
<g id="a_node5"><a xlink:href="Checker_8cxx.html" target="_top" xlink:title="Framework/src/Checker.cxx">
<polygon fill="none" stroke="black" points="2858,-6 2858,-25 2998,-25 2998,-6 2858,-6"/>
<text text-anchor="middle" x="2928" y="-13" font-family="Helvetica,sans-Serif" font-size="10.00">Framework/src/Checker.cxx</text>
</a>
</g>
</g>
<!-- Node4&#45;&gt;Node5 -->
<g id="edge4" class="edge"><title>Node4&#45;&gt;Node5</title>
<path fill="none" stroke="midnightblue" d="M1298.77,-67.0709C1984.98,4.78239 2165.8,-100.318 2848,-31 2861.06,-29.673 2875.19,-27.3965 2887.89,-25.0356"/>
<polygon fill="midnightblue" stroke="midnightblue" points="1298.21,-63.6106 1288.64,-68.1414 1298.95,-70.5719 1298.21,-63.6106"/>
</g>
<!-- Node6 -->
<g id="node6" class="node"><title>Node6</title>
<g id="a_node6"><a xlink:href="CheckerFactory_8cxx.html" target="_top" xlink:title="Framework/src/CheckerFactory.cxx">
<polygon fill="none" stroke="black" points="1185.5,-6 1185.5,-25 1358.5,-25 1358.5,-6 1185.5,-6"/>
<text text-anchor="middle" x="1272" y="-13" font-family="Helvetica,sans-Serif" font-size="10.00">Framework/src/CheckerFactory.cxx</text>
</a>
</g>
</g>
<!-- Node4&#45;&gt;Node6 -->
<g id="edge5" class="edge"><title>Node4&#45;&gt;Node6</title>
<path fill="none" stroke="midnightblue" d="M1239.06,-59.3163C1248.08,-47.5978 1258.63,-33.8829 1265.31,-25.1945"/>
<polygon fill="midnightblue" stroke="midnightblue" points="1236.17,-57.3357 1232.85,-67.396 1241.72,-61.6037 1236.17,-57.3357"/>
</g>
<!-- Node7 -->
<g id="node7" class="node"><title>Node7</title>
<g id="a_node7"><a xlink:href="runBasic_8cxx.html" target="_top" xlink:title="This is an executable showing QC Task&#39;s usage in Data Processing Layer. ">
<polygon fill="none" stroke="black" points="1377,-6 1377,-25 1519,-25 1519,-6 1377,-6"/>
<text text-anchor="middle" x="1448" y="-13" font-family="Helvetica,sans-Serif" font-size="10.00">Framework/src/runBasic.cxx</text>
</a>
</g>
</g>
<!-- Node4&#45;&gt;Node7 -->
<g id="edge6" class="edge"><title>Node4&#45;&gt;Node7</title>
<path fill="none" stroke="midnightblue" d="M1280.51,-64.6705C1324.68,-51.967 1383.45,-35.064 1418.35,-25.0287"/>
<polygon fill="midnightblue" stroke="midnightblue" points="1279.4,-61.3482 1270.76,-67.476 1281.34,-68.0755 1279.4,-61.3482"/>
</g>
<!-- Node8 -->
<g id="node8" class="node"><title>Node8</title>
<g id="a_node8"><a xlink:href="runMergerTest_8cxx.html" target="_top" xlink:title="This is DPL workflow to see HistoMerger in action. ">
<polygon fill="none" stroke="black" points="1537.5,-6 1537.5,-25 1704.5,-25 1704.5,-6 1537.5,-6"/>
<text text-anchor="middle" x="1621" y="-13" font-family="Helvetica,sans-Serif" font-size="10.00">Framework/src/runMergerTest.cxx</text>
</a>
</g>
</g>
<!-- Node4&#45;&gt;Node8 -->
<g id="edge7" class="edge"><title>Node4&#45;&gt;Node8</title>
<path fill="none" stroke="midnightblue" d="M1298.63,-67.0069C1339.77,-60.3678 1485.23,-37.6718 1566.13,-25.0551"/>
<polygon fill="midnightblue" stroke="midnightblue" points="1298,-63.5628 1288.71,-68.6427 1299.14,-70.4696 1298,-63.5628"/>
</g>
<!-- Node9 -->
<g id="node9" class="node"><title>Node9</title>
<g id="a_node9"><a xlink:href="runReadout_8cxx.html" target="_top" xlink:title="This is an executable showing QC Task&#39;s usage in Data Processing Layer with Readout as external data ...">
<polygon fill="none" stroke="black" points="1924,-6 1924,-25 2078,-25 2078,-6 1924,-6"/>
<text text-anchor="middle" x="2001" y="-13" font-family="Helvetica,sans-Serif" font-size="10.00">Framework/src/runReadout.cxx</text>
</a>
</g>
</g>
<!-- Node4&#45;&gt;Node9 -->
<g id="edge8" class="edge"><title>Node4&#45;&gt;Node9</title>
<path fill="none" stroke="midnightblue" d="M1298.87,-67.0202C1571.93,-33.914 1644.79,-61.213 1914,-31 1927.54,-29.4801 1942.18,-27.2644 1955.52,-25.0205"/>
<polygon fill="midnightblue" stroke="midnightblue" points="1298.15,-63.582 1288.65,-68.2755 1299,-70.5297 1298.15,-63.582"/>
</g>
<!-- Node10 -->
<g id="node10" class="node"><title>Node10</title>
<g id="a_node10"><a xlink:href="testChecker_8cxx.html" target="_top" xlink:title="Framework/test/testChecker.cxx">
<polygon fill="none" stroke="black" points="2096,-6 2096,-25 2256,-25 2256,-6 2096,-6"/>
<text text-anchor="middle" x="2176" y="-13" font-family="Helvetica,sans-Serif" font-size="10.00">Framework/test/testChecker.cxx</text>
</a>
</g>
</g>
<!-- Node4&#45;&gt;Node10 -->
<g id="edge9" class="edge"><title>Node4&#45;&gt;Node10</title>
<path fill="none" stroke="midnightblue" d="M1298.8,-67.0433C1648.39,-26.7812 1741.17,-66.9386 2087,-31 2101.01,-29.5436 2116.17,-27.3191 2129.94,-25.0466"/>
<polygon fill="midnightblue" stroke="midnightblue" points="1298.17,-63.5924 1288.64,-68.2268 1298.98,-70.5454 1298.17,-63.5924"/>
</g>
<!-- Node11 -->
<g id="node11" class="node"><title>Node11</title>
<g id="a_node11"><a xlink:href="testWorkflow_8cxx.html" target="_top" xlink:title="Framework/test/testWorkflow.cxx">
<polygon fill="none" stroke="black" points="2274,-6 2274,-25 2438,-25 2438,-6 2274,-6"/>
<text text-anchor="middle" x="2356" y="-13" font-family="Helvetica,sans-Serif" font-size="10.00">Framework/test/testWorkflow.cxx</text>
</a>
</g>
</g>
<!-- Node4&#45;&gt;Node11 -->
<g id="edge10" class="edge"><title>Node4&#45;&gt;Node11</title>
<path fill="none" stroke="midnightblue" d="M1298.82,-67.0505C1727.1,-19.4048 1840.32,-72.5864 2265,-31 2279.49,-29.5812 2295.18,-27.3389 2309.38,-25.0378"/>
<polygon fill="midnightblue" stroke="midnightblue" points="1298.19,-63.5992 1288.64,-68.1948 1298.97,-70.5553 1298.19,-63.5992"/>
</g>
<!-- Node12 -->
<g id="node12" class="node"><title>Node12</title>
<polygon fill="none" stroke="#bfbfbf" points="2456,-6 2456,-25 2674,-25 2674,-6 2456,-6"/>
<text text-anchor="middle" x="2565" y="-13" font-family="Helvetica,sans-Serif" font-size="10.00">Modules/EMCAL/src/runQCEMCALDigits.cxx</text>
</g>
<!-- Node4&#45;&gt;Node12 -->
<g id="edge11" class="edge"><title>Node4&#45;&gt;Node12</title>
<path fill="none" stroke="midnightblue" d="M1298.82,-67.0559C1807.59,-11.7285 1940.95,-69.9389 2447,-31 2465.73,-29.559 2486.05,-27.3103 2504.47,-25.0102"/>
<polygon fill="midnightblue" stroke="midnightblue" points="1298.2,-63.6027 1288.64,-68.1724 1298.96,-70.561 1298.2,-63.6027"/>
</g>
<!-- Node13 -->
<g id="node13" class="node"><title>Node13</title>
<g id="a_node13"><a xlink:href="runTOF_8cxx.html" target="_top" xlink:title="This is an executable showing QC Task&#39;s usage in Data Processing Layer. ">
<polygon fill="none" stroke="black" points="2692.5,-6 2692.5,-25 2839.5,-25 2839.5,-6 2692.5,-6"/>
<text text-anchor="middle" x="2766" y="-13" font-family="Helvetica,sans-Serif" font-size="10.00">Modules/TOF/src/runTOF.cxx</text>
</a>
</g>
</g>
<!-- Node4&#45;&gt;Node13 -->
<g id="edge12" class="edge"><title>Node4&#45;&gt;Node13</title>
<path fill="none" stroke="midnightblue" d="M1298.61,-67.0849C1911.96,-2.05648 2073.57,-91.8207 2683,-31 2696.54,-29.649 2711.19,-27.366 2724.37,-25.0064"/>
<polygon fill="midnightblue" stroke="midnightblue" points="1298.21,-63.6082 1288.64,-68.152 1298.95,-70.5685 1298.21,-63.6082"/>
</g>
<!-- Node14&#45;&gt;Node15 -->
<g id="edge14" class="edge"><title>Node14&#45;&gt;Node15</title>
<path fill="none" stroke="midnightblue" d="M1051.15,-59.6571C1061.5,-47.8646 1073.68,-33.9672 1081.38,-25.1945"/>
<polygon fill="midnightblue" stroke="midnightblue" points="1048.33,-57.5697 1044.37,-67.396 1053.59,-62.185 1048.33,-57.5697"/>
</g>
<!-- Node14&#45;&gt;Node16 -->
<g id="edge15" class="edge"><title>Node14&#45;&gt;Node16</title>
<path fill="none" stroke="midnightblue" d="M1108.48,-71.0974C1121.01,-69.5884 1133.85,-68.1568 1146,-67 1397.37,-43.0578 1461.83,-56.9619 1713,-31 1728.42,-29.4063 1745.1,-27.2081 1760.37,-25.0048"/>
<polygon fill="midnightblue" stroke="midnightblue" points="1108.03,-67.6268 1098.53,-72.3204 1108.88,-74.5745 1108.03,-67.6268"/>
</g>
<!-- Node17 -->
<g id="node17" class="node"><title>Node17</title>
<g id="a_node17"><a xlink:href="testQcDaq_8cxx.html" target="_top" xlink:title="Modules/Daq/test/testQcDaq.cxx">
<polygon fill="none" stroke="black" points="132.5,-6 132.5,-25 295.5,-25 295.5,-6 132.5,-6"/>
<text text-anchor="middle" x="214" y="-13" font-family="Helvetica,sans-Serif" font-size="10.00">Modules/Daq/test/testQcDaq.cxx</text>
</a>
</g>
</g>
<!-- Node14&#45;&gt;Node17 -->
<g id="edge16" class="edge"><title>Node14&#45;&gt;Node17</title>
<path fill="none" stroke="midnightblue" d="M955.001,-67.0078C666.582,-32.465 589.753,-61.4782 305,-31 290.843,-29.4847 275.53,-27.2705 261.577,-25.0264"/>
<polygon fill="midnightblue" stroke="midnightblue" points="955.002,-70.5335 965.351,-68.2636 955.845,-63.5845 955.002,-70.5335"/>
</g>
<!-- Node18 -->
<g id="node18" class="node"><title>Node18</title>
<g id="a_node18"><a xlink:href="testEMCAL_8cxx.html" target="_top" xlink:title="Modules/EMCAL/test\l/testEMCAL.cxx">
<polygon fill="none" stroke="black" points="882,-0.5 882,-30.5 992,-30.5 992,-0.5 882,-0.5"/>
<text text-anchor="start" x="890" y="-18.5" font-family="Helvetica,sans-Serif" font-size="10.00">Modules/EMCAL/test</text>
<text text-anchor="middle" x="937" y="-7.5" font-family="Helvetica,sans-Serif" font-size="10.00">/testEMCAL.cxx</text>
</a>
</g>
</g>
<!-- Node14&#45;&gt;Node18 -->
<g id="edge17" class="edge"><title>Node14&#45;&gt;Node18</title>
<path fill="none" stroke="midnightblue" d="M1003.11,-61.7337C988.41,-51.6755 970.885,-39.6847 957.573,-30.5765"/>
<polygon fill="midnightblue" stroke="midnightblue" points="1001.16,-64.6377 1011.39,-67.396 1005.11,-58.8605 1001.16,-64.6377"/>
</g>
<!-- Node14&#45;&gt;Node19 -->
<g id="edge18" class="edge"><title>Node14&#45;&gt;Node19</title>
<path fill="none" stroke="midnightblue" d="M955.196,-67.0478C586.134,-25.1443 487.135,-78.5045 123,-31 120.092,-30.6206 117.122,-30.177 114.131,-29.6854"/>
<polygon fill="midnightblue" stroke="midnightblue" points="955.022,-70.5508 965.356,-68.2176 955.822,-63.5967 955.022,-70.5508"/>
</g>
<!-- Node20 -->
<g id="node20" class="node"><title>Node20</title>
<g id="a_node20"><a xlink:href="testQcExample_8cxx.html" target="_top" xlink:title="Modules/Example/test\l/testQcExample.cxx">
<polygon fill="none" stroke="black" points="314,-0.5 314,-30.5 428,-30.5 428,-0.5 314,-0.5"/>
<text text-anchor="start" x="322" y="-18.5" font-family="Helvetica,sans-Serif" font-size="10.00">Modules/Example/test</text>
<text text-anchor="middle" x="371" y="-7.5" font-family="Helvetica,sans-Serif" font-size="10.00">/testQcExample.cxx</text>
</a>
</g>
</g>
<!-- Node14&#45;&gt;Node20 -->
<g id="edge19" class="edge"><title>Node14&#45;&gt;Node20</title>
<path fill="none" stroke="midnightblue" d="M955.312,-67.0329C724.941,-38.0226 662.628,-63.4306 437,-31 434.097,-30.5827 431.131,-30.1087 428.143,-29.5929"/>
<polygon fill="midnightblue" stroke="midnightblue" points="954.981,-70.5189 965.344,-68.3169 955.87,-63.5755 954.981,-70.5189"/>
</g>
<!-- Node21 -->
<g id="node21" class="node"><title>Node21</title>
<polygon fill="none" stroke="#bfbfbf" points="578,-0.5 578,-30.5 692,-30.5 692,-0.5 578,-0.5"/>
<text text-anchor="start" x="586" y="-18.5" font-family="Helvetica,sans-Serif" font-size="10.00">Modules/Skeleton/test</text>
<text text-anchor="middle" x="635" y="-7.5" font-family="Helvetica,sans-Serif" font-size="10.00">/.testEmpty.cxx</text>
</g>
<!-- Node14&#45;&gt;Node21 -->
<g id="edge20" class="edge"><title>Node14&#45;&gt;Node21</title>
<path fill="none" stroke="midnightblue" d="M955.14,-66.9155C841.351,-48.422 810.453,-50.72 701,-31 698.114,-30.48 695.161,-29.9232 692.184,-29.3419"/>
<polygon fill="midnightblue" stroke="midnightblue" points="954.869,-70.4179 965.304,-68.5865 956.005,-63.5106 954.869,-70.4179"/>
</g>
<!-- Node22 -->
<g id="node22" class="node"><title>Node22</title>
<g id="a_node22"><a xlink:href="testQcSkeleton_8cxx.html" target="_top" xlink:title="Modules/Skeleton/test\l/testQcSkeleton.cxx">
<polygon fill="none" stroke="black" points="446,-0.5 446,-30.5 560,-30.5 560,-0.5 446,-0.5"/>
<text text-anchor="start" x="454" y="-18.5" font-family="Helvetica,sans-Serif" font-size="10.00">Modules/Skeleton/test</text>
<text text-anchor="middle" x="503" y="-7.5" font-family="Helvetica,sans-Serif" font-size="10.00">/testQcSkeleton.cxx</text>
</a>
</g>
</g>
<!-- Node14&#45;&gt;Node22 -->
<g id="edge21" class="edge"><title>Node14&#45;&gt;Node22</title>
<path fill="none" stroke="midnightblue" d="M955.173,-66.9861C783.193,-43.3341 736.434,-57.0779 569,-31 566.102,-30.5486 563.141,-30.0472 560.156,-29.5096"/>
<polygon fill="midnightblue" stroke="midnightblue" points="954.944,-70.488 965.332,-68.4063 955.913,-63.5554 954.944,-70.488"/>
</g>
<!-- Node23 -->
<g id="node23" class="node"><title>Node23</title>
<g id="a_node23"><a xlink:href="testTOF_8cxx.html" target="_top" xlink:title="Modules/TOF/test/testTOF.cxx">
<polygon fill="none" stroke="black" points="710.5,-6 710.5,-25 863.5,-25 863.5,-6 710.5,-6"/>
<text text-anchor="middle" x="787" y="-13" font-family="Helvetica,sans-Serif" font-size="10.00">Modules/TOF/test/testTOF.cxx</text>
</a>
</g>
</g>
<!-- Node14&#45;&gt;Node23 -->
<g id="edge22" class="edge"><title>Node14&#45;&gt;Node23</title>
<path fill="none" stroke="midnightblue" d="M969.469,-64.9102C921.487,-52.1803 857.21,-35.1273 819.146,-25.0287"/>
<polygon fill="midnightblue" stroke="midnightblue" points="968.577,-68.2945 979.14,-67.476 970.372,-61.5286 968.577,-68.2945"/>
</g>
<!-- Node36&#45;&gt;Node5 -->
<g id="edge37" class="edge"><title>Node36&#45;&gt;Node5</title>
<path fill="none" stroke="midnightblue" d="M2982.78,-61.008C2967.93,-48.9412 2949.91,-34.3046 2938.7,-25.1945"/>
<polygon fill="midnightblue" stroke="midnightblue" points="2980.67,-63.8064 2990.64,-67.396 2985.09,-58.3736 2980.67,-63.8064"/>
</g>
<!-- Node36&#45;&gt;Node15 -->
<g id="edge39" class="edge"><title>Node36&#45;&gt;Node15</title>
<path fill="none" stroke="midnightblue" d="M2931.18,-76.1191C2884.1,-73.0052 2822.59,-69.2656 2768,-67 2060.87,-37.6542 1880.62,-97.344 1176,-31 1161.82,-29.6651 1146.46,-27.3864 1132.65,-25.0259"/>
<polygon fill="midnightblue" stroke="midnightblue" points="2931.1,-79.6209 2941.31,-76.7937 2931.56,-72.6364 2931.1,-79.6209"/>
</g>
<!-- Node37 -->
<g id="node37" class="node"><title>Node37</title>
<polygon fill="none" stroke="#bfbfbf" points="3016.5,-0.5 3016.5,-30.5 3159.5,-30.5 3159.5,-0.5 3016.5,-0.5"/>
<text text-anchor="start" x="3024.5" y="-18.5" font-family="Helvetica,sans-Serif" font-size="10.00">Framework/src/Infrastructure</text>
<text text-anchor="middle" x="3088" y="-7.5" font-family="Helvetica,sans-Serif" font-size="10.00">Generator.cxx</text>
</g>
<!-- Node36&#45;&gt;Node37 -->
<g id="edge38" class="edge"><title>Node36&#45;&gt;Node37</title>
<path fill="none" stroke="midnightblue" d="M3033.37,-60.8832C3045.53,-51.0054 3059.78,-39.4293 3070.68,-30.5765"/>
<polygon fill="midnightblue" stroke="midnightblue" points="3030.91,-58.3736 3025.36,-67.396 3035.33,-63.8064 3030.91,-58.3736"/>
</g>
<!-- Node38 -->
<g id="node38" class="node"><title>Node38</title>
<g id="a_node38"><a xlink:href="TaskRunnerFactory_8cxx.html" target="_top" xlink:title="Framework/src/TaskRunner\lFactory.cxx">
<polygon fill="none" stroke="black" points="3178,-0.5 3178,-30.5 3316,-30.5 3316,-0.5 3178,-0.5"/>
<text text-anchor="start" x="3186" y="-18.5" font-family="Helvetica,sans-Serif" font-size="10.00">Framework/src/TaskRunner</text>
<text text-anchor="middle" x="3247" y="-7.5" font-family="Helvetica,sans-Serif" font-size="10.00">Factory.cxx</text>
</a>
</g>
</g>
<!-- Node36&#45;&gt;Node38 -->
<g id="edge40" class="edge"><title>Node36&#45;&gt;Node38</title>
<path fill="none" stroke="midnightblue" d="M3069.22,-64.8498C3108.19,-54.2523 3158.1,-40.6775 3195.12,-30.6109"/>
<polygon fill="midnightblue" stroke="midnightblue" points="3068.3,-61.4743 3059.57,-67.476 3070.13,-68.2289 3068.3,-61.4743"/>
</g>
<!-- Node39 -->
<g id="node39" class="node"><title>Node39</title>
<g id="a_node39"><a xlink:href="testTaskRunner_8cxx.html" target="_top" xlink:title="Framework/test/testTaskRunner.cxx">
<polygon fill="none" stroke="black" points="3334,-6 3334,-25 3510,-25 3510,-6 3334,-6"/>
<text text-anchor="middle" x="3422" y="-13" font-family="Helvetica,sans-Serif" font-size="10.00">Framework/test/testTaskRunner.cxx</text>
</a>
</g>
</g>
<!-- Node36&#45;&gt;Node39 -->
<g id="edge41" class="edge"><title>Node36&#45;&gt;Node39</title>
<path fill="none" stroke="midnightblue" d="M3084.55,-69.4818C3166.7,-56.5837 3295.12,-36.4212 3367.54,-25.0498"/>
<polygon fill="midnightblue" stroke="midnightblue" points="3083.85,-66.0479 3074.52,-71.0566 3084.94,-72.9631 3083.85,-66.0479"/>
</g>
<!-- Node41&#45;&gt;Node17 -->
<g id="edge47" class="edge"><title>Node41&#45;&gt;Node17</title>
<path fill="none" stroke="midnightblue" d="M297.991,-129.729C283.073,-121.567 267.02,-110.892 255,-98 234.262,-75.7573 221.568,-41.0349 216.518,-25.0639"/>
<polygon fill="midnightblue" stroke="midnightblue" points="296.602,-132.952 307.085,-134.484 299.845,-126.749 296.602,-132.952"/>
</g>
<!-- Node41&#45;&gt;Node30 -->
<g id="edge46" class="edge"><title>Node41&#45;&gt;Node30</title>
<path fill="none" stroke="midnightblue" d="M340,-124.25C340,-113.017 340,-100.377 340,-92.1945"/>
<polygon fill="midnightblue" stroke="midnightblue" points="336.5,-124.396 340,-134.396 343.5,-124.396 336.5,-124.396"/>
</g>
<!-- Node42&#45;&gt;Node31 -->
<g id="edge49" class="edge"><title>Node42&#45;&gt;Node31</title>
<path fill="none" stroke="midnightblue" d="M1905.2,-130.544C1930.8,-120.143 1962.57,-107.238 1986.35,-97.5765"/>
<polygon fill="midnightblue" stroke="midnightblue" points="1903.66,-127.39 1895.72,-134.396 1906.3,-133.875 1903.66,-127.39"/>
</g>
<!-- Node43&#45;&gt;Node32 -->
<g id="edge51" class="edge"><title>Node43&#45;&gt;Node32</title>
<path fill="none" stroke="midnightblue" d="M2054.03,-130.407C2078.14,-120.029 2107.95,-107.195 2130.3,-97.5765"/>
<polygon fill="midnightblue" stroke="midnightblue" points="2052.57,-127.227 2044.76,-134.396 2055.33,-133.657 2052.57,-127.227"/>
</g>
<!-- Node45 -->
<g id="node45" class="node"><title>Node45</title>
<g id="a_node45"><a xlink:href="ExampleCondition_8cxx.html" target="_top" xlink:title="Modules/Example/src\l/ExampleCondition.cxx">
<polygon fill="none" stroke="black" points="2448,-67.5 2448,-97.5 2566,-97.5 2566,-67.5 2448,-67.5"/>
<text text-anchor="start" x="2456" y="-85.5" font-family="Helvetica,sans-Serif" font-size="10.00">Modules/Example/src</text>
<text text-anchor="middle" x="2507" y="-74.5" font-family="Helvetica,sans-Serif" font-size="10.00">/ExampleCondition.cxx</text>
</a>
</g>
</g>
<!-- Node44&#45;&gt;Node45 -->
<g id="edge53" class="edge"><title>Node44&#45;&gt;Node45</title>
<path fill="none" stroke="midnightblue" d="M2516.44,-124.403C2514.35,-115.37 2512.06,-105.408 2510.25,-97.5765"/>
<polygon fill="midnightblue" stroke="midnightblue" points="2513.09,-125.439 2518.75,-134.396 2519.91,-123.865 2513.09,-125.439"/>
</g>
<!-- Node46&#45;&gt;Node19 -->
<g id="edge56" class="edge"><title>Node46&#45;&gt;Node19</title>
<path fill="none" stroke="midnightblue" d="M438.116,-137.849C386.106,-129.482 315.547,-116.192 255,-98 193.233,-79.4408 124.243,-48.6031 86.1916,-30.6548"/>
<polygon fill="midnightblue" stroke="midnightblue" points="437.838,-141.349 448.263,-139.457 438.934,-134.435 437.838,-141.349"/>
</g>
<!-- Node46&#45;&gt;Node20 -->
<g id="edge57" class="edge"><title>Node46&#45;&gt;Node20</title>
<path fill="none" stroke="midnightblue" d="M490.135,-127.245C460.873,-100.044 410.997,-53.68 386.087,-30.5247"/>
<polygon fill="midnightblue" stroke="midnightblue" points="488.096,-130.129 497.804,-134.374 492.862,-125.002 488.096,-130.129"/>
</g>
<!-- Node46&#45;&gt;Node33 -->
<g id="edge55" class="edge"><title>Node46&#45;&gt;Node33</title>
<path fill="none" stroke="midnightblue" d="M530.981,-126.447C538.767,-116.899 547.651,-106.004 554.522,-97.5765"/>
<polygon fill="midnightblue" stroke="midnightblue" points="528.107,-124.434 524.5,-134.396 533.532,-128.858 528.107,-124.434"/>
</g>
<!-- Node47&#45;&gt;Node22 -->
<g id="edge60" class="edge"><title>Node47&#45;&gt;Node22</title>
<path fill="none" stroke="midnightblue" d="M620.336,-138.589C572.177,-130.49 515.854,-117.216 501,-98 486.025,-78.6276 492.203,-48.2187 497.783,-30.5369"/>
<polygon fill="midnightblue" stroke="midnightblue" points="620.038,-142.086 630.471,-140.239 621.163,-135.177 620.038,-142.086"/>
</g>
<!-- Node47&#45;&gt;Node34 -->
<g id="edge59" class="edge"><title>Node47&#45;&gt;Node34</title>
<path fill="none" stroke="midnightblue" d="M695,-124.108C695,-115.154 695,-105.323 695,-97.5765"/>
<polygon fill="midnightblue" stroke="midnightblue" points="691.5,-124.396 695,-134.396 698.5,-124.396 691.5,-124.396"/>
</g>
<!-- Node48&#45;&gt;Node35 -->
<g id="edge62" class="edge"><title>Node48&#45;&gt;Node35</title>
<path fill="none" stroke="midnightblue" d="M2199.13,-130.458C2229.85,-117.9 2269.42,-101.724 2293.19,-92.007"/>
<polygon fill="midnightblue" stroke="midnightblue" points="2197.43,-127.372 2189.5,-134.396 2200.08,-133.852 2197.43,-127.372"/>
</g>
</g>
</svg>
