<?xml version="1.0" encoding="UTF-8" standalone="no"?>
<!DOCTYPE svg PUBLIC "-//W3C//DTD SVG 1.1//EN"
 "http://www.w3.org/Graphics/SVG/1.1/DTD/svg11.dtd">
<!-- Generated by graphviz version 2.38.0 (20140413.2041)
 -->
<!-- Title: Framework/include/QualityControl/ObjectsManager.h Pages: 1 -->
<!--zoomable 218 -->
<svg id="main" version="1.1" xmlns="http://www.w3.org/2000/svg" xmlns:xlink="http://www.w3.org/1999/xlink" xml:space="preserve" onload="init(evt)">
<style type="text/css"><![CDATA[
.edge:hover path { stroke: red; }
.edge:hover polygon { stroke: red; fill: red; }
]]></style>
<script type="text/javascript"><![CDATA[
var edges = document.getElementsByTagName('g');
if (edges && edges.length) {
  for (var i=0;i<edges.length;i++) {
    if (edges[i].id.substr(0,4)=='edge') {
      edges[i].setAttribute('class','edge');
    }
  }
}
]]></script>
        <defs>
                <circle id="rim" cx="0" cy="0" r="7"/>
                <circle id="rim2" cx="0" cy="0" r="3.5"/>
                <g id="zoomPlus">
                        <use xlink:href="#rim" fill="#404040">
                                <set attributeName="fill" to="#808080" begin="zoomplus.mouseover" end="zoomplus.mouseout"/>
                        </use>
                        <path d="M-4,0h8M0,-4v8" fill="none" stroke="white" stroke-width="1.5" pointer-events="none"/>
                </g>
                <g id="zoomMin">
                        <use xlink:href="#rim" fill="#404040">
                                <set attributeName="fill" to="#808080" begin="zoomminus.mouseover" end="zoomminus.mouseout"/>
                        </use>
                        <path d="M-4,0h8" fill="none" stroke="white" stroke-width="1.5" pointer-events="none"/>
                </g>
                <g id="dirArrow">
                        <path fill="none" stroke="white" stroke-width="1.5" d="M0,-3.0v7 M-2.5,-0.5L0,-3.0L2.5,-0.5"/>
                </g>
               <g id="resetDef">
                       <use xlink:href="#rim2" fill="#404040">
                               <set attributeName="fill" to="#808080" begin="reset.mouseover" end="reset.mouseout"/>
                       </use>
               </g>
        </defs>

<script type="text/javascript">
var viewWidth = 1143;
var viewHeight = 218;
var sectionId = 'dynsection-0';
</script>
<script xlink:href="svgpan.js"/>
<svg id="graph" class="graph">
<g id="viewport">
<title>Framework/include/QualityControl/ObjectsManager.h</title>
<!-- Node1 -->
<g id="node1" class="node"><title>Node1</title>
<polygon fill="#bfbfbf" stroke="black" points="576.5,-179.5 576.5,-209.5 709.5,-209.5 709.5,-179.5 576.5,-179.5"/>
<text text-anchor="start" x="584.5" y="-197.5" font-family="Helvetica,sans-Serif" font-size="10.00">Framework/include/Quality</text>
<text text-anchor="middle" x="643" y="-186.5" font-family="Helvetica,sans-Serif" font-size="10.00">Control/ObjectsManager.h</text>
</g>
<!-- Node2 -->
<g id="node2" class="node"><title>Node2</title>
<g id="a_node2"><a xlink:href="MonitorObject_8h.html" target="_top" xlink:title="QualityControl/MonitorObject.h">
<polygon fill="none" stroke="black" points="103.5,-123.5 103.5,-142.5 254.5,-142.5 254.5,-123.5 103.5,-123.5"/>
<text text-anchor="middle" x="179" y="-130.5" font-family="Helvetica,sans-Serif" font-size="10.00">QualityControl/MonitorObject.h</text>
</a>
</g>
</g>
<!-- Node1&#45;&gt;Node2 -->
<g id="edge1" class="edge"><title>Node1&#45;&gt;Node2</title>
<path fill="none" stroke="midnightblue" d="M576.026,-184.912C491.084,-174.019 344.95,-155.28 255.643,-143.828"/>
<polygon fill="midnightblue" stroke="midnightblue" points="255.942,-140.338 245.578,-142.537 255.051,-147.281 255.942,-140.338"/>
</g>
<!-- Node7 -->
<g id="node7" class="node"><title>Node7</title>
<g id="a_node7"><a xlink:href="Quality_8h.html" target="_top" xlink:title="QualityControl/Quality.h">
<polygon fill="none" stroke="black" points="298.5,-62 298.5,-81 419.5,-81 419.5,-62 298.5,-62"/>
<text text-anchor="middle" x="359" y="-69" font-family="Helvetica,sans-Serif" font-size="10.00">QualityControl/Quality.h</text>
</a>
</g>
</g>
<!-- Node1&#45;&gt;Node7 -->
<g id="edge10" class="edge"><title>Node1&#45;&gt;Node7</title>
<path fill="none" stroke="midnightblue" d="M576.296,-186.312C533.611,-179.612 478.162,-166.885 434,-143 409.066,-129.515 386.236,-105.674 372.476,-89.4875"/>
<polygon fill="midnightblue" stroke="midnightblue" points="374.87,-86.8884 365.809,-81.3972 369.468,-91.3402 374.87,-86.8884"/>
</g>
<!-- Node9 -->
<g id="node9" class="node"><title>Node9</title>
<polygon fill="none" stroke="#bfbfbf" points="446.5,-0.5 446.5,-19.5 487.5,-19.5 487.5,-0.5 446.5,-0.5"/>
<text text-anchor="middle" x="467" y="-7.5" font-family="Helvetica,sans-Serif" font-size="10.00">string</text>
</g>
<!-- Node1&#45;&gt;Node9 -->
<g id="edge24" class="edge"><title>Node1&#45;&gt;Node9</title>
<path fill="none" stroke="midnightblue" d="M576.478,-190.329C541.711,-184.979 501.596,-172.27 478,-143 451.743,-110.428 457.251,-57.484 462.636,-29.5748"/>
<polygon fill="midnightblue" stroke="midnightblue" points="466.104,-30.0942 464.771,-19.5835 459.258,-28.6311 466.104,-30.0942"/>
</g>
<!-- Node10 -->
<g id="node10" class="node"><title>Node10</title>
<g id="a_node10"><a xlink:href="TaskConfig_8h.html" target="_top" xlink:title="QualityControl/TaskConfig.h">
<polygon fill="none" stroke="black" points="487,-123.5 487,-142.5 627,-142.5 627,-123.5 487,-123.5"/>
<text text-anchor="middle" x="557" y="-130.5" font-family="Helvetica,sans-Serif" font-size="10.00">QualityControl/TaskConfig.h</text>
</a>
</g>
</g>
<!-- Node1&#45;&gt;Node10 -->
<g id="edge11" class="edge"><title>Node1&#45;&gt;Node10</title>
<path fill="none" stroke="midnightblue" d="M622.619,-179.399C609.092,-170.04 591.389,-157.792 577.78,-148.377"/>
<polygon fill="midnightblue" stroke="midnightblue" points="579.729,-145.469 569.514,-142.658 575.746,-151.226 579.729,-145.469"/>
</g>
<!-- Node12 -->
<g id="node12" class="node"><title>Node12</title>
<g id="a_node12"><a xlink:href="ServiceDiscovery_8h_source.html" target="_top" xlink:title="QualityControl/ServiceDiscovery.h">
<polygon fill="none" stroke="black" points="645.5,-123.5 645.5,-142.5 812.5,-142.5 812.5,-123.5 645.5,-123.5"/>
<text text-anchor="middle" x="729" y="-130.5" font-family="Helvetica,sans-Serif" font-size="10.00">QualityControl/ServiceDiscovery.h</text>
</a>
</g>
</g>
<!-- Node1&#45;&gt;Node12 -->
<g id="edge14" class="edge"><title>Node1&#45;&gt;Node12</title>
<path fill="none" stroke="midnightblue" d="M663.381,-179.399C676.908,-170.04 694.611,-157.792 708.22,-148.377"/>
<polygon fill="midnightblue" stroke="midnightblue" points="710.254,-151.226 716.486,-142.658 706.271,-145.469 710.254,-151.226"/>
</g>
<!-- Node18 -->
<g id="node18" class="node"><title>Node18</title>
<polygon fill="none" stroke="#bfbfbf" points="830.5,-123.5 830.5,-142.5 899.5,-142.5 899.5,-123.5 830.5,-123.5"/>
<text text-anchor="middle" x="865" y="-130.5" font-family="Helvetica,sans-Serif" font-size="10.00">TObjArray.h</text>
</g>
<!-- Node1&#45;&gt;Node18 -->
<g id="edge21" class="edge"><title>Node1&#45;&gt;Node18</title>
<path fill="none" stroke="midnightblue" d="M695.33,-179.475C734.466,-168.986 787.256,-154.837 823.502,-145.122"/>
<polygon fill="midnightblue" stroke="midnightblue" points="824.509,-148.476 833.262,-142.506 822.697,-141.715 824.509,-148.476"/>
</g>
<!-- Node19 -->
<g id="node19" class="node"><title>Node19</title>
<polygon fill="none" stroke="#bfbfbf" points="917.5,-123.5 917.5,-142.5 988.5,-142.5 988.5,-123.5 917.5,-123.5"/>
<text text-anchor="middle" x="953" y="-130.5" font-family="Helvetica,sans-Serif" font-size="10.00">TObjString.h</text>
</g>
<!-- Node1&#45;&gt;Node19 -->
<g id="edge22" class="edge"><title>Node1&#45;&gt;Node19</title>
<path fill="none" stroke="midnightblue" d="M709.734,-181.101C761.25,-171.467 834.579,-157.62 907.631,-143.251"/>
<polygon fill="midnightblue" stroke="midnightblue" points="908.332,-146.68 917.467,-141.313 906.979,-139.812 908.332,-146.68"/>
</g>
<!-- Node20 -->
<g id="node20" class="node"><title>Node20</title>
<polygon fill="none" stroke="#bfbfbf" points="1007,-123.5 1007,-142.5 1135,-142.5 1135,-123.5 1007,-123.5"/>
<text text-anchor="middle" x="1071" y="-130.5" font-family="Helvetica,sans-Serif" font-size="10.00">boost/concept_check.hpp</text>
</g>
<!-- Node1&#45;&gt;Node20 -->
<g id="edge23" class="edge"><title>Node1&#45;&gt;Node20</title>
<path fill="none" stroke="midnightblue" d="M709.875,-184.203C788.675,-173.248 919.058,-155.123 999.723,-143.909"/>
<polygon fill="midnightblue" stroke="midnightblue" points="1000.37,-147.353 1009.79,-142.509 999.405,-140.419 1000.37,-147.353"/>
</g>
<!-- Node3 -->
<g id="node3" class="node"><title>Node3</title>
<polygon fill="none" stroke="#bfbfbf" points="0,-62 0,-81 54,-81 54,-62 0,-62"/>
<text text-anchor="middle" x="27" y="-69" font-family="Helvetica,sans-Serif" font-size="10.00">iostream</text>
</g>
<!-- Node2&#45;&gt;Node3 -->
<g id="edge2" class="edge"><title>Node2&#45;&gt;Node3</title>
<path fill="none" stroke="midnightblue" d="M156.729,-123.458C133.351,-114.468 95.5431,-99.8654 63,-87 61.363,-86.3528 59.6852,-85.6867 57.992,-85.0123"/>
<polygon fill="midnightblue" stroke="midnightblue" points="58.8868,-81.6005 48.3023,-81.1326 56.2848,-88.099 58.8868,-81.6005"/>
</g>
<!-- Node4 -->
<g id="node4" class="node"><title>Node4</title>
<polygon fill="none" stroke="#bfbfbf" points="72.5,-62 72.5,-81 107.5,-81 107.5,-62 72.5,-62"/>
<text text-anchor="middle" x="90" y="-69" font-family="Helvetica,sans-Serif" font-size="10.00">map</text>
</g>
<!-- Node2&#45;&gt;Node4 -->
<g id="edge3" class="edge"><title>Node2&#45;&gt;Node4</title>
<path fill="none" stroke="midnightblue" d="M166.248,-123.475C151.973,-113.931 128.603,-98.3073 111.492,-86.8683"/>
<polygon fill="midnightblue" stroke="midnightblue" points="112.986,-83.6572 102.728,-81.0091 109.096,-89.4766 112.986,-83.6572"/>
</g>
<!-- Node5 -->
<g id="node5" class="node"><title>Node5</title>
<polygon fill="none" stroke="#bfbfbf" points="181.5,-0.5 181.5,-19.5 240.5,-19.5 240.5,-0.5 181.5,-0.5"/>
<text text-anchor="middle" x="211" y="-7.5" font-family="Helvetica,sans-Serif" font-size="10.00">TObject.h</text>
</g>
<!-- Node2&#45;&gt;Node5 -->
<g id="edge4" class="edge"><title>Node2&#45;&gt;Node5</title>
<path fill="none" stroke="midnightblue" d="M172.103,-123.266C161.586,-108.812 143.877,-79.2083 155,-56 161.253,-42.9542 173.336,-32.4921 184.682,-24.9506"/>
<polygon fill="midnightblue" stroke="midnightblue" points="186.809,-27.7515 193.498,-19.5351 183.146,-21.7869 186.809,-27.7515"/>
</g>
<!-- Node6 -->
<g id="node6" class="node"><title>Node6</title>
<polygon fill="none" stroke="#bfbfbf" points="164,-62 164,-81 280,-81 280,-62 164,-62"/>
<text text-anchor="middle" x="222" y="-69" font-family="Helvetica,sans-Serif" font-size="10.00">Common/Exceptions.h</text>
</g>
<!-- Node2&#45;&gt;Node6 -->
<g id="edge5" class="edge"><title>Node2&#45;&gt;Node6</title>
<path fill="none" stroke="midnightblue" d="M185.161,-123.475C191.611,-114.55 201.904,-100.307 209.973,-89.1425"/>
<polygon fill="midnightblue" stroke="midnightblue" points="212.83,-91.1642 215.851,-81.0091 207.156,-87.064 212.83,-91.1642"/>
</g>
<!-- Node2&#45;&gt;Node7 -->
<g id="edge6" class="edge"><title>Node2&#45;&gt;Node7</title>
<path fill="none" stroke="midnightblue" d="M204.79,-123.475C235.933,-113.18 288.481,-95.8103 323.453,-84.2502"/>
<polygon fill="midnightblue" stroke="midnightblue" points="324.862,-87.4708 333.258,-81.0091 322.665,-80.8245 324.862,-87.4708"/>
</g>
<!-- Node7&#45;&gt;Node5 -->
<g id="edge7" class="edge"><title>Node7&#45;&gt;Node5</title>
<path fill="none" stroke="midnightblue" d="M337.795,-61.9751C312.628,-51.8571 270.46,-34.9046 241.721,-23.3507"/>
<polygon fill="midnightblue" stroke="midnightblue" points="242.749,-19.9919 232.165,-19.5091 240.138,-26.4867 242.749,-19.9919"/>
</g>
<!-- Node8 -->
<g id="node8" class="node"><title>Node8</title>
<polygon fill="none" stroke="#bfbfbf" points="333,-0.5 333,-19.5 385,-19.5 385,-0.5 333,-0.5"/>
<text text-anchor="middle" x="359" y="-7.5" font-family="Helvetica,sans-Serif" font-size="10.00">ostream</text>
</g>
<!-- Node7&#45;&gt;Node8 -->
<g id="edge8" class="edge"><title>Node7&#45;&gt;Node8</title>
<path fill="none" stroke="midnightblue" d="M359,-61.9751C359,-53.5803 359,-40.4806 359,-29.6631"/>
<polygon fill="midnightblue" stroke="midnightblue" points="362.5,-29.5091 359,-19.5091 355.5,-29.5091 362.5,-29.5091"/>
</g>
<!-- Node7&#45;&gt;Node9 -->
<g id="edge9" class="edge"><title>Node7&#45;&gt;Node9</title>
<path fill="none" stroke="midnightblue" d="M374.474,-61.9751C392.278,-52.1664 421.741,-35.9346 442.632,-24.425"/>
<polygon fill="midnightblue" stroke="midnightblue" points="444.485,-27.4001 451.555,-19.5091 441.107,-21.269 444.485,-27.4001"/>
</g>
<!-- Node10&#45;&gt;Node9 -->
<g id="edge12" class="edge"><title>Node10&#45;&gt;Node9</title>
<path fill="none" stroke="midnightblue" d="M544.626,-123.497C533.237,-115.2 516.427,-101.707 505,-87 491.042,-69.0352 480.11,-45.1341 473.625,-28.9685"/>
<polygon fill="midnightblue" stroke="midnightblue" points="476.878,-27.6764 470.017,-19.6026 470.345,-30.1924 476.878,-27.6764"/>
</g>
<!-- Node11 -->
<g id="node11" class="node"><title>Node11</title>
<polygon fill="none" stroke="#bfbfbf" points="514.5,-56.5 514.5,-86.5 649.5,-86.5 649.5,-56.5 514.5,-56.5"/>
<text text-anchor="start" x="522.5" y="-74.5" font-family="Helvetica,sans-Serif" font-size="10.00">Configuration/Configuration</text>
<text text-anchor="middle" x="582" y="-63.5" font-family="Helvetica,sans-Serif" font-size="10.00">Interface.h</text>
</g>
<!-- Node10&#45;&gt;Node11 -->
<g id="edge13" class="edge"><title>Node10&#45;&gt;Node11</title>
<path fill="none" stroke="midnightblue" d="M560.582,-123.475C563.62,-116.245 568.124,-105.525 572.219,-95.7792"/>
<polygon fill="midnightblue" stroke="midnightblue" points="575.461,-97.098 576.108,-86.523 569.008,-94.3865 575.461,-97.098"/>
</g>
<!-- Node12&#45;&gt;Node9 -->
<g id="edge18" class="edge"><title>Node12&#45;&gt;Node9</title>
<path fill="none" stroke="midnightblue" d="M723.53,-123.385C712.934,-107.444 687.992,-73.3879 658,-56 606.84,-26.3402 537.243,-16.2132 497.734,-12.7667"/>
<polygon fill="midnightblue" stroke="midnightblue" points="497.906,-9.26956 487.663,-11.9773 497.359,-16.2482 497.906,-9.26956"/>
</g>
<!-- Node13 -->
<g id="node13" class="node"><title>Node13</title>
<polygon fill="none" stroke="#bfbfbf" points="706,-62 706,-81 752,-81 752,-62 706,-62"/>
<text text-anchor="middle" x="729" y="-69" font-family="Helvetica,sans-Serif" font-size="10.00">atomic</text>
</g>
<!-- Node12&#45;&gt;Node13 -->
<g id="edge15" class="edge"><title>Node12&#45;&gt;Node13</title>
<path fill="none" stroke="midnightblue" d="M729,-123.475C729,-115.08 729,-101.981 729,-91.1631"/>
<polygon fill="midnightblue" stroke="midnightblue" points="732.5,-91.0091 729,-81.0091 725.5,-91.0091 732.5,-91.0091"/>
</g>
<!-- Node14 -->
<g id="node14" class="node"><title>Node14</title>
<polygon fill="none" stroke="#bfbfbf" points="770.5,-62 770.5,-81 829.5,-81 829.5,-62 770.5,-62"/>
<text text-anchor="middle" x="800" y="-69" font-family="Helvetica,sans-Serif" font-size="10.00">curl/curl.h</text>
</g>
<!-- Node12&#45;&gt;Node14 -->
<g id="edge16" class="edge"><title>Node12&#45;&gt;Node14</title>
<path fill="none" stroke="midnightblue" d="M739.173,-123.475C750.35,-114.108 768.517,-98.8839 782.091,-87.5081"/>
<polygon fill="midnightblue" stroke="midnightblue" points="784.43,-90.1148 789.846,-81.0091 779.934,-84.7496 784.43,-90.1148"/>
</g>
<!-- Node15 -->
<g id="node15" class="node"><title>Node15</title>
<polygon fill="none" stroke="#bfbfbf" points="848,-62 848,-81 900,-81 900,-62 848,-62"/>
<text text-anchor="middle" x="874" y="-69" font-family="Helvetica,sans-Serif" font-size="10.00">memory</text>
</g>
<!-- Node12&#45;&gt;Node15 -->
<g id="edge17" class="edge"><title>Node12&#45;&gt;Node15</title>
<path fill="none" stroke="midnightblue" d="M750.099,-123.401C772.251,-114.365 808.091,-99.7249 839,-87 840.589,-86.3459 842.218,-85.6742 843.863,-84.9955"/>
<polygon fill="midnightblue" stroke="midnightblue" points="845.374,-88.1579 853.278,-81.1026 842.7,-81.689 845.374,-88.1579"/>
</g>
<!-- Node16 -->
<g id="node16" class="node"><title>Node16</title>
<polygon fill="none" stroke="#bfbfbf" points="918,-62 918,-81 962,-81 962,-62 918,-62"/>
<text text-anchor="middle" x="940" y="-69" font-family="Helvetica,sans-Serif" font-size="10.00">thread</text>
</g>
<!-- Node12&#45;&gt;Node16 -->
<g id="edge19" class="edge"><title>Node12&#45;&gt;Node16</title>
<path fill="none" stroke="midnightblue" d="M772.976,-123.483C809.856,-115.756 863.62,-103.116 909,-87 910.617,-86.4258 912.263,-85.7967 913.912,-85.1324"/>
<polygon fill="midnightblue" stroke="midnightblue" points="915.429,-88.2892 923.192,-81.0791 912.627,-81.8744 915.429,-88.2892"/>
</g>
<!-- Node17 -->
<g id="node17" class="node"><title>Node17</title>
<polygon fill="none" stroke="#bfbfbf" points="980,-56.5 980,-86.5 1074,-86.5 1074,-56.5 980,-56.5"/>
<text text-anchor="start" x="988" y="-74.5" font-family="Helvetica,sans-Serif" font-size="10.00">boost/asio/ip/host</text>
<text text-anchor="middle" x="1027" y="-63.5" font-family="Helvetica,sans-Serif" font-size="10.00">_name.hpp</text>
</g>
<!-- Node12&#45;&gt;Node17 -->
<g id="edge20" class="edge"><title>Node12&#45;&gt;Node17</title>
<path fill="none" stroke="midnightblue" d="M780.668,-123.464C827.601,-115.468 898.947,-102.714 969.72,-87.2011"/>
<polygon fill="midnightblue" stroke="midnightblue" points="970.691,-90.5709 979.699,-84.9941 969.18,-83.7361 970.691,-90.5709"/>
</g>
</g>
</svg>
        <g id="navigator" transform="translate(0 0)" fill="#404254">
                <rect fill="#f2f5e9" fill-opacity="0.5" stroke="#606060" stroke-width=".5" x="0" y="0" width="60" height="60"/>
                <use id="zoomplus" xlink:href="#zoomPlus" x="17" y="9" onmousedown="handleZoom(evt,'in')"/>
                <use id="zoomminus" xlink:href="#zoomMin" x="42" y="9" onmousedown="handleZoom(evt,'out')"/>
                <use id="reset" xlink:href="#resetDef" x="30" y="36" onmousedown="handleReset()"/>
                <g id="arrowUp" xlink:href="#dirArrow" transform="translate(30 24)" onmousedown="handlePan(0,-1)">
                  <use xlink:href="#rim" fill="#404040">
                        <set attributeName="fill" to="#808080" begin="arrowUp.mouseover" end="arrowUp.mouseout"/>
                  </use>
                  <path fill="none" stroke="white" stroke-width="1.5" d="M0,-3.0v7 M-2.5,-0.5L0,-3.0L2.5,-0.5"/>
                </g>
                <g id="arrowRight" xlink:href="#dirArrow" transform="rotate(90) translate(36 -43)" onmousedown="handlePan(1,0)">
                  <use xlink:href="#rim" fill="#404040">
                        <set attributeName="fill" to="#808080" begin="arrowRight.mouseover" end="arrowRight.mouseout"/>
                  </use>
                  <path fill="none" stroke="white" stroke-width="1.5" d="M0,-3.0v7 M-2.5,-0.5L0,-3.0L2.5,-0.5"/>
                </g>
                <g id="arrowDown" xlink:href="#dirArrow" transform="rotate(180) translate(-30 -48)" onmousedown="handlePan(0,1)">
                  <use xlink:href="#rim" fill="#404040">
                        <set attributeName="fill" to="#808080" begin="arrowDown.mouseover" end="arrowDown.mouseout"/>
                  </use>
                  <path fill="none" stroke="white" stroke-width="1.5" d="M0,-3.0v7 M-2.5,-0.5L0,-3.0L2.5,-0.5"/>
                </g>
                <g id="arrowLeft" xlink:href="#dirArrow" transform="rotate(270) translate(-36 17)" onmousedown="handlePan(-1,0)">
                  <use xlink:href="#rim" fill="#404040">
                        <set attributeName="fill" to="#808080" begin="arrowLeft.mouseover" end="arrowLeft.mouseout"/>
                  </use>
                  <path fill="none" stroke="white" stroke-width="1.5" d="M0,-3.0v7 M-2.5,-0.5L0,-3.0L2.5,-0.5"/>
                </g>
        </g>
        <svg viewBox="0 0 15 15" width="100%" height="30px" preserveAspectRatio="xMaxYMin meet">
         <g id="arrow_out" transform="scale(0.3 0.3)">
          <a xlink:href="ObjectsManager_8h__incl_org.svg" target="_base">
           <rect id="button" ry="5" rx="5" y="6" x="6" height="38" width="38"
                fill="#f2f5e9" fill-opacity="0.5" stroke="#606060" stroke-width="1.0"/>
           <path id="arrow"
             d="M 11.500037,31.436501 C 11.940474,20.09759 22.043105,11.32322 32.158766,21.979434 L 37.068811,17.246167 C 37.068811,17.246167 37.088388,32 37.088388,32 L 22.160133,31.978069 C 22.160133,31.978069 26.997745,27.140456 26.997745,27.140456 C 18.528582,18.264221 13.291696,25.230495 11.500037,31.436501 z"
             style="fill:#404040;"/>
          </a>
         </g>
        </svg>
</svg>
