<?xml version="1.0" encoding="UTF-8" standalone="no"?>
<!DOCTYPE svg PUBLIC "-//W3C//DTD SVG 1.1//EN"
 "http://www.w3.org/Graphics/SVG/1.1/DTD/svg11.dtd">
<!-- Generated by graphviz version 2.38.0 (20140413.2041)
 -->
<!-- Title: Framework/src/ObjectsManager.cxx Pages: 1 -->
<svg width="1648pt" height="375pt"
 viewBox="0.00 0.00 1648.00 375.00" xmlns="http://www.w3.org/2000/svg" xmlns:xlink="http://www.w3.org/1999/xlink">
<g id="graph0" class="graph" transform="scale(1 1) rotate(0) translate(4 371)">
<title>Framework/src/ObjectsManager.cxx</title>
<!-- Node1 -->
<g id="node1" class="node"><title>Node1</title>
<polygon fill="#bfbfbf" stroke="black" points="1135.5,-347.5 1135.5,-366.5 1310.5,-366.5 1310.5,-347.5 1135.5,-347.5"/>
<text text-anchor="middle" x="1223" y="-354.5" font-family="Helvetica,sans-Serif" font-size="10.00">Framework/src/ObjectsManager.cxx</text>
</g>
<!-- Node2 -->
<g id="node2" class="node"><title>Node2</title>
<g id="a_node2"><a xlink:href="ObjectsManager_8h.html" target="_top" xlink:title="QualityControl/ObjectsManager.h">
<polygon fill="none" stroke="black" points="830.5,-179.5 830.5,-198.5 991.5,-198.5 991.5,-179.5 830.5,-179.5"/>
<text text-anchor="middle" x="911" y="-186.5" font-family="Helvetica,sans-Serif" font-size="10.00">QualityControl/ObjectsManager.h</text>
</a>
</g>
</g>
<!-- Node1&#45;&gt;Node2 -->
<g id="edge1" class="edge"><title>Node1&#45;&gt;Node2</title>
<path fill="none" stroke="midnightblue" d="M1223.93,-347.422C1225.82,-325.18 1227.49,-265.286 1195,-235 1167.49,-209.359 1073.99,-198.312 1001.71,-193.563"/>
<polygon fill="midnightblue" stroke="midnightblue" points="1001.86,-190.066 991.658,-192.934 1001.42,-197.052 1001.86,-190.066"/>
</g>
<!-- Node7 -->
<g id="node7" class="node"><title>Node7</title>
<polygon fill="none" stroke="#bfbfbf" points="1524,-62 1524,-81 1640,-81 1640,-62 1524,-62"/>
<text text-anchor="middle" x="1582" y="-69" font-family="Helvetica,sans-Serif" font-size="10.00">Common/Exceptions.h</text>
</g>
<!-- Node1&#45;&gt;Node7 -->
<g id="edge26" class="edge"><title>Node1&#45;&gt;Node7</title>
<path fill="none" stroke="midnightblue" d="M1290.99,-347.475C1388.12,-333.364 1555,-301.104 1555,-246 1555,-246 1555,-246 1555,-188 1555,-152.783 1567.05,-113.075 1575.05,-90.5916"/>
<polygon fill="midnightblue" stroke="midnightblue" points="1578.4,-91.6267 1578.58,-81.0334 1571.83,-89.2007 1578.4,-91.6267"/>
</g>
<!-- Node22 -->
<g id="node22" class="node"><title>Node22</title>
<g id="a_node22"><a xlink:href="QcInfoLogger_8h.html" target="_top" xlink:title="QualityControl/QcInfoLogger.h">
<polygon fill="none" stroke="black" points="1046.5,-291.5 1046.5,-310.5 1195.5,-310.5 1195.5,-291.5 1046.5,-291.5"/>
<text text-anchor="middle" x="1121" y="-298.5" font-family="Helvetica,sans-Serif" font-size="10.00">QualityControl/QcInfoLogger.h</text>
</a>
</g>
</g>
<!-- Node1&#45;&gt;Node22 -->
<g id="edge27" class="edge"><title>Node1&#45;&gt;Node22</title>
<path fill="none" stroke="midnightblue" d="M1206.61,-347.324C1190.33,-338.703 1165.13,-325.364 1146.28,-315.386"/>
<polygon fill="midnightblue" stroke="midnightblue" points="1147.82,-312.24 1137.35,-310.655 1144.55,-318.427 1147.82,-312.24"/>
</g>
<!-- Node3 -->
<g id="node3" class="node"><title>Node3</title>
<g id="a_node3"><a xlink:href="MonitorObject_8h.html" target="_top" xlink:title="QualityControl/MonitorObject.h">
<polygon fill="none" stroke="black" points="1310.5,-123.5 1310.5,-142.5 1461.5,-142.5 1461.5,-123.5 1310.5,-123.5"/>
<text text-anchor="middle" x="1386" y="-130.5" font-family="Helvetica,sans-Serif" font-size="10.00">QualityControl/MonitorObject.h</text>
</a>
</g>
</g>
<!-- Node2&#45;&gt;Node3 -->
<g id="edge2" class="edge"><title>Node2&#45;&gt;Node3</title>
<path fill="none" stroke="midnightblue" d="M986.003,-179.473C1071.59,-169.743 1211.27,-153.864 1300.87,-143.678"/>
<polygon fill="midnightblue" stroke="midnightblue" points="1301.46,-147.134 1311,-142.526 1300.67,-140.178 1301.46,-147.134"/>
</g>
<!-- Node8 -->
<g id="node8" class="node"><title>Node8</title>
<g id="a_node8"><a xlink:href="Quality_8h.html" target="_top" xlink:title="QualityControl/Quality.h">
<polygon fill="none" stroke="black" points="1221.5,-62 1221.5,-81 1342.5,-81 1342.5,-62 1221.5,-62"/>
<text text-anchor="middle" x="1282" y="-69" font-family="Helvetica,sans-Serif" font-size="10.00">QualityControl/Quality.h</text>
</a>
</g>
</g>
<!-- Node2&#45;&gt;Node8 -->
<g id="edge11" class="edge"><title>Node2&#45;&gt;Node8</title>
<path fill="none" stroke="midnightblue" d="M991.597,-183.138C1071.13,-177.164 1186.27,-164.999 1225,-143 1246.53,-130.767 1263.13,-106.939 1272.72,-90.3907"/>
<polygon fill="midnightblue" stroke="midnightblue" points="1276.03,-91.6461 1277.77,-81.1962 1269.89,-88.2763 1276.03,-91.6461"/>
</g>
<!-- Node10 -->
<g id="node10" class="node"><title>Node10</title>
<polygon fill="none" stroke="#bfbfbf" points="994.5,-0.5 994.5,-19.5 1035.5,-19.5 1035.5,-0.5 994.5,-0.5"/>
<text text-anchor="middle" x="1015" y="-7.5" font-family="Helvetica,sans-Serif" font-size="10.00">string</text>
</g>
<!-- Node2&#45;&gt;Node10 -->
<g id="edge25" class="edge"><title>Node2&#45;&gt;Node10</title>
<path fill="none" stroke="midnightblue" d="M830.241,-182.96C732.18,-176.038 577.506,-162.225 559,-143 532.14,-115.097 527.978,-84.6861 554,-56 582.903,-24.1385 885.567,-14.1008 984.15,-11.664"/>
<polygon fill="midnightblue" stroke="midnightblue" points="984.438,-15.1582 994.352,-11.4212 984.271,-8.16019 984.438,-15.1582"/>
</g>
<!-- Node11 -->
<g id="node11" class="node"><title>Node11</title>
<g id="a_node11"><a xlink:href="TaskConfig_8h.html" target="_top" xlink:title="QualityControl/TaskConfig.h">
<polygon fill="none" stroke="black" points="1076,-123.5 1076,-142.5 1216,-142.5 1216,-123.5 1076,-123.5"/>
<text text-anchor="middle" x="1146" y="-130.5" font-family="Helvetica,sans-Serif" font-size="10.00">QualityControl/TaskConfig.h</text>
</a>
</g>
</g>
<!-- Node2&#45;&gt;Node11 -->
<g id="edge12" class="edge"><title>Node2&#45;&gt;Node11</title>
<path fill="none" stroke="midnightblue" d="M948.236,-179.444C989.06,-170.063 1054.64,-154.993 1098.98,-144.804"/>
<polygon fill="midnightblue" stroke="midnightblue" points="1099.98,-148.167 1108.94,-142.516 1098.41,-141.345 1099.98,-148.167"/>
</g>
<!-- Node13 -->
<g id="node13" class="node"><title>Node13</title>
<g id="a_node13"><a xlink:href="ServiceDiscovery_8h_source.html" target="_top" xlink:title="QualityControl/ServiceDiscovery.h">
<polygon fill="none" stroke="black" points="744.5,-123.5 744.5,-142.5 911.5,-142.5 911.5,-123.5 744.5,-123.5"/>
<text text-anchor="middle" x="828" y="-130.5" font-family="Helvetica,sans-Serif" font-size="10.00">QualityControl/ServiceDiscovery.h</text>
</a>
</g>
</g>
<!-- Node2&#45;&gt;Node13 -->
<g id="edge15" class="edge"><title>Node2&#45;&gt;Node13</title>
<path fill="none" stroke="midnightblue" d="M897.665,-179.324C884.838,-170.979 865.215,-158.212 850.06,-148.352"/>
<polygon fill="midnightblue" stroke="midnightblue" points="851.593,-145.174 841.302,-142.655 847.776,-151.042 851.593,-145.174"/>
</g>
<!-- Node19 -->
<g id="node19" class="node"><title>Node19</title>
<polygon fill="none" stroke="#bfbfbf" points="568.5,-123.5 568.5,-142.5 637.5,-142.5 637.5,-123.5 568.5,-123.5"/>
<text text-anchor="middle" x="603" y="-130.5" font-family="Helvetica,sans-Serif" font-size="10.00">TObjArray.h</text>
</g>
<!-- Node2&#45;&gt;Node19 -->
<g id="edge22" class="edge"><title>Node2&#45;&gt;Node19</title>
<path fill="none" stroke="midnightblue" d="M857.093,-179.464C805.67,-171.181 725.786,-157.954 647.716,-143.275"/>
<polygon fill="midnightblue" stroke="midnightblue" points="648.187,-139.802 637.711,-141.384 646.887,-146.68 648.187,-139.802"/>
</g>
<!-- Node20 -->
<g id="node20" class="node"><title>Node20</title>
<polygon fill="none" stroke="#bfbfbf" points="655.5,-123.5 655.5,-142.5 726.5,-142.5 726.5,-123.5 655.5,-123.5"/>
<text text-anchor="middle" x="691" y="-130.5" font-family="Helvetica,sans-Serif" font-size="10.00">TObjString.h</text>
</g>
<!-- Node2&#45;&gt;Node20 -->
<g id="edge23" class="edge"><title>Node2&#45;&gt;Node20</title>
<path fill="none" stroke="midnightblue" d="M876.14,-179.444C838.084,-170.102 777.042,-155.119 735.54,-144.933"/>
<polygon fill="midnightblue" stroke="midnightblue" points="736.243,-141.501 725.697,-142.516 734.574,-148.299 736.243,-141.501"/>
</g>
<!-- Node21 -->
<g id="node21" class="node"><title>Node21</title>
<polygon fill="none" stroke="#bfbfbf" points="930,-123.5 930,-142.5 1058,-142.5 1058,-123.5 930,-123.5"/>
<text text-anchor="middle" x="994" y="-130.5" font-family="Helvetica,sans-Serif" font-size="10.00">boost/concept_check.hpp</text>
</g>
<!-- Node2&#45;&gt;Node21 -->
<g id="edge24" class="edge"><title>Node2&#45;&gt;Node21</title>
<path fill="none" stroke="midnightblue" d="M924.335,-179.324C937.162,-170.979 956.785,-158.212 971.94,-148.352"/>
<polygon fill="midnightblue" stroke="midnightblue" points="974.224,-151.042 980.698,-142.655 970.407,-145.174 974.224,-151.042"/>
</g>
<!-- Node4 -->
<g id="node4" class="node"><title>Node4</title>
<polygon fill="none" stroke="#bfbfbf" points="1452,-62 1452,-81 1506,-81 1506,-62 1452,-62"/>
<text text-anchor="middle" x="1479" y="-69" font-family="Helvetica,sans-Serif" font-size="10.00">iostream</text>
</g>
<!-- Node3&#45;&gt;Node4 -->
<g id="edge3" class="edge"><title>Node3&#45;&gt;Node4</title>
<path fill="none" stroke="midnightblue" d="M1399.32,-123.475C1414.38,-113.843 1439.12,-98.0175 1457.04,-86.5517"/>
<polygon fill="midnightblue" stroke="midnightblue" points="1459.16,-89.3466 1465.7,-81.0091 1455.39,-83.4501 1459.16,-89.3466"/>
</g>
<!-- Node5 -->
<g id="node5" class="node"><title>Node5</title>
<polygon fill="none" stroke="#bfbfbf" points="1360.5,-62 1360.5,-81 1395.5,-81 1395.5,-62 1360.5,-62"/>
<text text-anchor="middle" x="1378" y="-69" font-family="Helvetica,sans-Serif" font-size="10.00">map</text>
</g>
<!-- Node3&#45;&gt;Node5 -->
<g id="edge4" class="edge"><title>Node3&#45;&gt;Node5</title>
<path fill="none" stroke="midnightblue" d="M1384.85,-123.475C1383.73,-115.08 1381.96,-101.981 1380.51,-91.1631"/>
<polygon fill="midnightblue" stroke="midnightblue" points="1383.95,-90.4535 1379.14,-81.0091 1377.01,-91.3863 1383.95,-90.4535"/>
</g>
<!-- Node6 -->
<g id="node6" class="node"><title>Node6</title>
<polygon fill="none" stroke="#bfbfbf" points="1360.5,-0.5 1360.5,-19.5 1419.5,-19.5 1419.5,-0.5 1360.5,-0.5"/>
<text text-anchor="middle" x="1390" y="-7.5" font-family="Helvetica,sans-Serif" font-size="10.00">TObject.h</text>
</g>
<!-- Node3&#45;&gt;Node6 -->
<g id="edge5" class="edge"><title>Node3&#45;&gt;Node6</title>
<path fill="none" stroke="midnightblue" d="M1390.62,-123.339C1395.06,-114.493 1401.45,-100.22 1404,-87 1406.61,-73.4708 1406.07,-69.6214 1404,-56 1402.63,-47.001 1399.81,-37.3251 1397.05,-29.2601"/>
<polygon fill="midnightblue" stroke="midnightblue" points="1400.31,-27.9759 1393.6,-19.7782 1393.73,-30.3722 1400.31,-27.9759"/>
</g>
<!-- Node3&#45;&gt;Node7 -->
<g id="edge6" class="edge"><title>Node3&#45;&gt;Node7</title>
<path fill="none" stroke="midnightblue" d="M1414.08,-123.475C1448.29,-113.092 1506.2,-95.5116 1544.27,-83.9538"/>
<polygon fill="midnightblue" stroke="midnightblue" points="1545.42,-87.2631 1553.97,-81.0091 1543.38,-80.5649 1545.42,-87.2631"/>
</g>
<!-- Node3&#45;&gt;Node8 -->
<g id="edge7" class="edge"><title>Node3&#45;&gt;Node8</title>
<path fill="none" stroke="midnightblue" d="M1371.1,-123.475C1354.03,-113.711 1325.84,-97.5807 1305.74,-86.0808"/>
<polygon fill="midnightblue" stroke="midnightblue" points="1307.29,-82.9371 1296.87,-81.0091 1303.81,-89.013 1307.29,-82.9371"/>
</g>
<!-- Node8&#45;&gt;Node6 -->
<g id="edge8" class="edge"><title>Node8&#45;&gt;Node6</title>
<path fill="none" stroke="midnightblue" d="M1297.47,-61.9751C1315.28,-52.1664 1344.74,-35.9346 1365.63,-24.425"/>
<polygon fill="midnightblue" stroke="midnightblue" points="1367.49,-27.4001 1374.55,-19.5091 1364.11,-21.269 1367.49,-27.4001"/>
</g>
<!-- Node9 -->
<g id="node9" class="node"><title>Node9</title>
<polygon fill="none" stroke="#bfbfbf" points="1256,-0.5 1256,-19.5 1308,-19.5 1308,-0.5 1256,-0.5"/>
<text text-anchor="middle" x="1282" y="-7.5" font-family="Helvetica,sans-Serif" font-size="10.00">ostream</text>
</g>
<!-- Node8&#45;&gt;Node9 -->
<g id="edge9" class="edge"><title>Node8&#45;&gt;Node9</title>
<path fill="none" stroke="midnightblue" d="M1282,-61.9751C1282,-53.5803 1282,-40.4806 1282,-29.6631"/>
<polygon fill="midnightblue" stroke="midnightblue" points="1285.5,-29.5091 1282,-19.5091 1278.5,-29.5091 1285.5,-29.5091"/>
</g>
<!-- Node8&#45;&gt;Node10 -->
<g id="edge10" class="edge"><title>Node8&#45;&gt;Node10</title>
<path fill="none" stroke="midnightblue" d="M1243.75,-61.9751C1190.41,-50.0902 1094.77,-28.7754 1045.77,-17.8567"/>
<polygon fill="midnightblue" stroke="midnightblue" points="1046.29,-14.388 1035.77,-15.629 1044.77,-21.2204 1046.29,-14.388"/>
</g>
<!-- Node11&#45;&gt;Node10 -->
<g id="edge13" class="edge"><title>Node11&#45;&gt;Node10</title>
<path fill="none" stroke="midnightblue" d="M1120.79,-123.401C1102.03,-116.025 1076.72,-103.899 1059,-87 1041.8,-70.6006 1029.24,-45.9992 1022.04,-29.2616"/>
<polygon fill="midnightblue" stroke="midnightblue" points="1025.1,-27.5038 1018.09,-19.5635 1018.62,-30.145 1025.1,-27.5038"/>
</g>
<!-- Node12 -->
<g id="node12" class="node"><title>Node12</title>
<polygon fill="none" stroke="#bfbfbf" points="1068.5,-56.5 1068.5,-86.5 1203.5,-86.5 1203.5,-56.5 1068.5,-56.5"/>
<text text-anchor="start" x="1076.5" y="-74.5" font-family="Helvetica,sans-Serif" font-size="10.00">Configuration/Configuration</text>
<text text-anchor="middle" x="1136" y="-63.5" font-family="Helvetica,sans-Serif" font-size="10.00">Interface.h</text>
</g>
<!-- Node11&#45;&gt;Node12 -->
<g id="edge14" class="edge"><title>Node11&#45;&gt;Node12</title>
<path fill="none" stroke="midnightblue" d="M1144.57,-123.475C1143.38,-116.396 1141.63,-105.97 1140.02,-96.3896"/>
<polygon fill="midnightblue" stroke="midnightblue" points="1143.47,-95.8045 1138.36,-86.523 1136.56,-96.9648 1143.47,-95.8045"/>
</g>
<!-- Node13&#45;&gt;Node10 -->
<g id="edge19" class="edge"><title>Node13&#45;&gt;Node10</title>
<path fill="none" stroke="midnightblue" d="M888.888,-123.473C916.581,-117.12 948.363,-106.09 972,-87 990.654,-71.9335 1002.67,-46.472 1009.13,-29.2124"/>
<polygon fill="midnightblue" stroke="midnightblue" points="1012.47,-30.2868 1012.45,-19.692 1005.85,-27.9853 1012.47,-30.2868"/>
</g>
<!-- Node14 -->
<g id="node14" class="node"><title>Node14</title>
<polygon fill="none" stroke="#bfbfbf" points="665,-62 665,-81 711,-81 711,-62 665,-62"/>
<text text-anchor="middle" x="688" y="-69" font-family="Helvetica,sans-Serif" font-size="10.00">atomic</text>
</g>
<!-- Node13&#45;&gt;Node14 -->
<g id="edge16" class="edge"><title>Node13&#45;&gt;Node14</title>
<path fill="none" stroke="midnightblue" d="M806.81,-123.395C784.976,-114.476 749.991,-100.039 720,-87 718.637,-86.4072 717.243,-85.7959 715.837,-85.1749"/>
<polygon fill="midnightblue" stroke="midnightblue" points="717.128,-81.9184 706.57,-81.0308 714.27,-88.3084 717.128,-81.9184"/>
</g>
<!-- Node15 -->
<g id="node15" class="node"><title>Node15</title>
<polygon fill="none" stroke="#bfbfbf" points="729.5,-62 729.5,-81 788.5,-81 788.5,-62 729.5,-62"/>
<text text-anchor="middle" x="759" y="-69" font-family="Helvetica,sans-Serif" font-size="10.00">curl/curl.h</text>
</g>
<!-- Node13&#45;&gt;Node15 -->
<g id="edge17" class="edge"><title>Node13&#45;&gt;Node15</title>
<path fill="none" stroke="midnightblue" d="M818.114,-123.475C807.354,-114.197 789.929,-99.1706 776.779,-87.831"/>
<polygon fill="midnightblue" stroke="midnightblue" points="778.727,-84.889 768.868,-81.0091 774.155,-90.1902 778.727,-84.889"/>
</g>
<!-- Node16 -->
<g id="node16" class="node"><title>Node16</title>
<polygon fill="none" stroke="#bfbfbf" points="563,-62 563,-81 615,-81 615,-62 563,-62"/>
<text text-anchor="middle" x="589" y="-69" font-family="Helvetica,sans-Serif" font-size="10.00">memory</text>
</g>
<!-- Node13&#45;&gt;Node16 -->
<g id="edge18" class="edge"><title>Node13&#45;&gt;Node16</title>
<path fill="none" stroke="midnightblue" d="M793.757,-123.475C748.878,-112.302 670.523,-92.7955 624.857,-81.4268"/>
<polygon fill="midnightblue" stroke="midnightblue" points="625.635,-78.0137 615.086,-78.9941 623.944,-84.8063 625.635,-78.0137"/>
</g>
<!-- Node17 -->
<g id="node17" class="node"><title>Node17</title>
<polygon fill="none" stroke="#bfbfbf" points="807,-62 807,-81 851,-81 851,-62 807,-62"/>
<text text-anchor="middle" x="829" y="-69" font-family="Helvetica,sans-Serif" font-size="10.00">thread</text>
</g>
<!-- Node13&#45;&gt;Node17 -->
<g id="edge20" class="edge"><title>Node13&#45;&gt;Node17</title>
<path fill="none" stroke="midnightblue" d="M828.143,-123.475C828.284,-115.08 828.505,-101.981 828.686,-91.1631"/>
<polygon fill="midnightblue" stroke="midnightblue" points="832.188,-91.0665 828.857,-81.0091 825.189,-90.9488 832.188,-91.0665"/>
</g>
<!-- Node18 -->
<g id="node18" class="node"><title>Node18</title>
<polygon fill="none" stroke="#bfbfbf" points="869,-56.5 869,-86.5 963,-86.5 963,-56.5 869,-56.5"/>
<text text-anchor="start" x="877" y="-74.5" font-family="Helvetica,sans-Serif" font-size="10.00">boost/asio/ip/host</text>
<text text-anchor="middle" x="916" y="-63.5" font-family="Helvetica,sans-Serif" font-size="10.00">_name.hpp</text>
</g>
<!-- Node13&#45;&gt;Node18 -->
<g id="edge21" class="edge"><title>Node13&#45;&gt;Node18</title>
<path fill="none" stroke="midnightblue" d="M840.608,-123.475C852.638,-115.341 871.2,-102.791 886.895,-92.1788"/>
<polygon fill="midnightblue" stroke="midnightblue" points="888.936,-95.0237 895.26,-86.523 885.016,-89.2248 888.936,-95.0237"/>
</g>
<!-- Node22&#45;&gt;Node4 -->
<g id="edge37" class="edge"><title>Node22&#45;&gt;Node4</title>
<path fill="none" stroke="midnightblue" d="M1179.52,-291.498C1259.17,-276.595 1399.81,-237.765 1470,-143 1480.89,-128.304 1482.18,-106.992 1481.35,-91.6523"/>
<polygon fill="midnightblue" stroke="midnightblue" points="1484.8,-90.9399 1480.41,-81.2941 1477.82,-91.5677 1484.8,-90.9399"/>
</g>
<!-- Node23 -->
<g id="node23" class="node"><title>Node23</title>
<g id="a_node23"><a xlink:href="TaskInterface_8h.html" target="_top" xlink:title="TaskInterface.h">
<polygon fill="none" stroke="black" points="451.5,-235.5 451.5,-254.5 536.5,-254.5 536.5,-235.5 451.5,-235.5"/>
<text text-anchor="middle" x="494" y="-242.5" font-family="Helvetica,sans-Serif" font-size="10.00">TaskInterface.h</text>
</a>
</g>
</g>
<!-- Node22&#45;&gt;Node23 -->
<g id="edge28" class="edge"><title>Node22&#45;&gt;Node23</title>
<path fill="none" stroke="midnightblue" d="M1046.3,-293.567C917.828,-282.502 658.107,-260.134 546.699,-250.539"/>
<polygon fill="midnightblue" stroke="midnightblue" points="546.971,-247.049 536.707,-249.678 546.37,-254.023 546.971,-247.049"/>
</g>
<!-- Node28 -->
<g id="node28" class="node"><title>Node28</title>
<polygon fill="none" stroke="#bfbfbf" points="1056,-235.5 1056,-254.5 1186,-254.5 1186,-235.5 1056,-235.5"/>
<text text-anchor="middle" x="1121" y="-242.5" font-family="Helvetica,sans-Serif" font-size="10.00">InfoLogger/InfoLogger.hxx</text>
</g>
<!-- Node22&#45;&gt;Node28 -->
<g id="edge36" class="edge"><title>Node22&#45;&gt;Node28</title>
<path fill="none" stroke="midnightblue" d="M1121,-291.083C1121,-284.006 1121,-273.861 1121,-264.986"/>
<polygon fill="midnightblue" stroke="midnightblue" points="1124.5,-264.751 1121,-254.751 1117.5,-264.751 1124.5,-264.751"/>
</g>
<!-- Node23&#45;&gt;Node2 -->
<g id="edge35" class="edge"><title>Node23&#45;&gt;Node2</title>
<path fill="none" stroke="midnightblue" d="M536.667,-238.475C606.851,-229.386 747.585,-211.162 835.083,-199.831"/>
<polygon fill="midnightblue" stroke="midnightblue" points="835.75,-203.274 845.218,-198.519 834.851,-196.332 835.75,-203.274"/>
</g>
<!-- Node23&#45;&gt;Node12 -->
<g id="edge33" class="edge"><title>Node23&#45;&gt;Node12</title>
<path fill="none" stroke="midnightblue" d="M536.747,-241.495C686.72,-232.255 1182.2,-197.76 1225,-143 1241.47,-121.931 1215.49,-103.393 1187.42,-90.6215"/>
<polygon fill="midnightblue" stroke="midnightblue" points="1188.45,-87.2546 1177.89,-86.5159 1185.69,-93.6843 1188.45,-87.2546"/>
</g>
<!-- Node23&#45;&gt;Node16 -->
<g id="edge29" class="edge"><title>Node23&#45;&gt;Node16</title>
<path fill="none" stroke="midnightblue" d="M499.113,-235.445C504.451,-226.446 513.005,-211.834 520,-199 538.169,-165.664 540.629,-156.225 559,-123 565.143,-111.889 572.407,-99.6413 578.248,-89.9903"/>
<polygon fill="midnightblue" stroke="midnightblue" points="581.303,-91.7032 583.521,-81.3432 575.326,-88.0589 581.303,-91.7032"/>
</g>
<!-- Node24 -->
<g id="node24" class="node"><title>Node24</title>
<polygon fill="none" stroke="#bfbfbf" points="319.5,-179.5 319.5,-198.5 368.5,-198.5 368.5,-179.5 319.5,-179.5"/>
<text text-anchor="middle" x="344" y="-186.5" font-family="Helvetica,sans-Serif" font-size="10.00">cassert</text>
</g>
<!-- Node23&#45;&gt;Node24 -->
<g id="edge30" class="edge"><title>Node23&#45;&gt;Node24</title>
<path fill="none" stroke="midnightblue" d="M470.232,-235.444C445.107,-226.399 405.289,-212.064 377.1,-201.916"/>
<polygon fill="midnightblue" stroke="midnightblue" points="378.251,-198.611 367.657,-198.516 375.88,-205.197 378.251,-198.611"/>
</g>
<!-- Node25 -->
<g id="node25" class="node"><title>Node25</title>
<polygon fill="none" stroke="#bfbfbf" points="386.5,-179.5 386.5,-198.5 511.5,-198.5 511.5,-179.5 386.5,-179.5"/>
<text text-anchor="middle" x="449" y="-186.5" font-family="Helvetica,sans-Serif" font-size="10.00">Framework/InitContext.h</text>
</g>
<!-- Node23&#45;&gt;Node25 -->
<g id="edge31" class="edge"><title>Node23&#45;&gt;Node25</title>
<path fill="none" stroke="midnightblue" d="M486.569,-235.083C480.147,-227.377 470.694,-216.033 462.878,-206.653"/>
<polygon fill="midnightblue" stroke="midnightblue" points="465.383,-204.193 456.293,-198.751 460.006,-208.674 465.383,-204.193"/>
</g>
<!-- Node26 -->
<g id="node26" class="node"><title>Node26</title>
<polygon fill="none" stroke="#bfbfbf" points="0,-179.5 0,-198.5 160,-198.5 160,-179.5 0,-179.5"/>
<text text-anchor="middle" x="80" y="-186.5" font-family="Helvetica,sans-Serif" font-size="10.00">Framework/ProcessingContext.h</text>
</g>
<!-- Node23&#45;&gt;Node26 -->
<g id="edge32" class="edge"><title>Node23&#45;&gt;Node26</title>
<path fill="none" stroke="midnightblue" d="M451.254,-238.424C381.501,-229.326 242.301,-211.17 155.578,-199.858"/>
<polygon fill="midnightblue" stroke="midnightblue" points="155.9,-196.37 145.532,-198.548 154.995,-203.312 155.9,-196.37"/>
</g>
<!-- Node27 -->
<g id="node27" class="node"><title>Node27</title>
<g id="a_node27"><a xlink:href="Activity_8h.html" target="_top" xlink:title="QualityControl/Activity.h">
<polygon fill="none" stroke="black" points="178.5,-179.5 178.5,-198.5 301.5,-198.5 301.5,-179.5 178.5,-179.5"/>
<text text-anchor="middle" x="240" y="-186.5" font-family="Helvetica,sans-Serif" font-size="10.00">QualityControl/Activity.h</text>
</a>
</g>
</g>
<!-- Node23&#45;&gt;Node27 -->
<g id="edge34" class="edge"><title>Node23&#45;&gt;Node27</title>
<path fill="none" stroke="midnightblue" d="M453.753,-235.444C409.35,-226.004 337.847,-210.802 289.912,-200.611"/>
<polygon fill="midnightblue" stroke="midnightblue" points="290.568,-197.173 280.059,-198.516 289.112,-204.02 290.568,-197.173"/>
</g>
</g>
</svg>
