<?xml version="1.0" encoding="UTF-8" standalone="no"?>
<!DOCTYPE svg PUBLIC "-//W3C//DTD SVG 1.1//EN"
 "http://www.w3.org/Graphics/SVG/1.1/DTD/svg11.dtd">
<!-- Generated by graphviz version 2.38.0 (20140413.2041)
 -->
<!-- Title: Framework/include/QualityControl/QcInfoLogger.h Pages: 1 -->
<svg width="4238pt" height="173pt"
 viewBox="0.00 0.00 4237.50 173.00" xmlns="http://www.w3.org/2000/svg" xmlns:xlink="http://www.w3.org/1999/xlink">
<g id="graph0" class="graph" transform="scale(1 1) rotate(0) translate(4 169)">
<title>Framework/include/QualityControl/QcInfoLogger.h</title>
<!-- Node1 -->
<g id="node1" class="node"><title>Node1</title>
<polygon fill="#bfbfbf" stroke="black" points="3060.5,-134.5 3060.5,-164.5 3193.5,-164.5 3193.5,-134.5 3060.5,-134.5"/>
<text text-anchor="start" x="3068.5" y="-152.5" font-family="Helvetica,sans-Serif" font-size="10.00">Framework/include/Quality</text>
<text text-anchor="middle" x="3127" y="-141.5" font-family="Helvetica,sans-Serif" font-size="10.00">Control/QcInfoLogger.h</text>
</g>
<!-- Node2 -->
<g id="node2" class="node"><title>Node2</title>
<g id="a_node2"><a xlink:href="Checker_8h.html" target="_top" xlink:title="Framework/include/Quality\lControl/Checker.h">
<polygon fill="none" stroke="black" points="793.5,-67.5 793.5,-97.5 926.5,-97.5 926.5,-67.5 793.5,-67.5"/>
<text text-anchor="start" x="801.5" y="-85.5" font-family="Helvetica,sans-Serif" font-size="10.00">Framework/include/Quality</text>
<text text-anchor="middle" x="860" y="-74.5" font-family="Helvetica,sans-Serif" font-size="10.00">Control/Checker.h</text>
</a>
</g>
</g>
<!-- Node1&#45;&gt;Node2 -->
<g id="edge1" class="edge"><title>Node1&#45;&gt;Node2</title>
<path fill="none" stroke="midnightblue" d="M3050.34,-146.302C2700.1,-136.26 1255.06,-94.8274 926.623,-85.4102"/>
<polygon fill="midnightblue" stroke="midnightblue" points="3050.28,-149.802 3060.38,-146.59 3050.49,-142.805 3050.28,-149.802"/>
</g>
<!-- Node12 -->
<g id="node12" class="node"><title>Node12</title>
<g id="a_node12"><a xlink:href="TaskFactory_8h.html" target="_top" xlink:title="Framework/include/Quality\lControl/TaskFactory.h">
<polygon fill="none" stroke="black" points="2175.5,-67.5 2175.5,-97.5 2308.5,-97.5 2308.5,-67.5 2175.5,-67.5"/>
<text text-anchor="start" x="2183.5" y="-85.5" font-family="Helvetica,sans-Serif" font-size="10.00">Framework/include/Quality</text>
<text text-anchor="middle" x="2242" y="-74.5" font-family="Helvetica,sans-Serif" font-size="10.00">Control/TaskFactory.h</text>
</a>
</g>
</g>
<!-- Node1&#45;&gt;Node12 -->
<g id="edge11" class="edge"><title>Node1&#45;&gt;Node12</title>
<path fill="none" stroke="midnightblue" d="M3050.34,-146.934C2906.34,-143.28 2585.75,-131.762 2318,-98 2314.93,-97.6135 2311.81,-97.1794 2308.65,-96.7094"/>
<polygon fill="midnightblue" stroke="midnightblue" points="3050.32,-150.435 3060.41,-147.184 3050.5,-143.437 3050.32,-150.435"/>
</g>
<!-- Node13 -->
<g id="node13" class="node"><title>Node13</title>
<g id="a_node13"><a xlink:href="TaskRunner_8cxx.html" target="_top" xlink:title="Framework/src/TaskRunner.cxx">
<polygon fill="none" stroke="black" points="1629.5,-6 1629.5,-25 1786.5,-25 1786.5,-6 1629.5,-6"/>
<text text-anchor="middle" x="1708" y="-13" font-family="Helvetica,sans-Serif" font-size="10.00">Framework/src/TaskRunner.cxx</text>
</a>
</g>
</g>
<!-- Node1&#45;&gt;Node13 -->
<g id="edge26" class="edge"><title>Node1&#45;&gt;Node13</title>
<path fill="none" stroke="midnightblue" d="M3050.01,-147.663C2886.74,-145.183 2493.93,-135.48 2167,-98 2010,-80.002 1825.49,-42.0491 1746.75,-25.0498"/>
<polygon fill="midnightblue" stroke="midnightblue" points="3050.37,-151.169 3060.42,-147.816 3050.48,-144.169 3050.37,-151.169"/>
</g>
<!-- Node22 -->
<g id="node22" class="node"><title>Node22</title>
<g id="a_node22"><a xlink:href="DatabaseFactory_8cxx.html" target="_top" xlink:title="Framework/src/DatabaseFactory.cxx">
<polygon fill="none" stroke="black" points="2326.5,-73 2326.5,-92 2505.5,-92 2505.5,-73 2326.5,-73"/>
<text text-anchor="middle" x="2416" y="-80" font-family="Helvetica,sans-Serif" font-size="10.00">Framework/src/DatabaseFactory.cxx</text>
</a>
</g>
</g>
<!-- Node1&#45;&gt;Node22 -->
<g id="edge21" class="edge"><title>Node1&#45;&gt;Node22</title>
<path fill="none" stroke="midnightblue" d="M3050.1,-143.718C2933.97,-136.143 2707.01,-119.961 2515,-98 2500.33,-96.3222 2484.49,-94.16 2469.87,-92.02"/>
<polygon fill="midnightblue" stroke="midnightblue" points="3050.1,-147.225 3060.3,-144.38 3050.55,-140.24 3050.1,-147.225"/>
</g>
<!-- Node23 -->
<g id="node23" class="node"><title>Node23</title>
<g id="a_node23"><a xlink:href="InformationService_8cxx.html" target="_top" xlink:title="Framework/src/Information\lService.cxx">
<polygon fill="none" stroke="black" points="2524,-67.5 2524,-97.5 2658,-97.5 2658,-67.5 2524,-67.5"/>
<text text-anchor="start" x="2532" y="-85.5" font-family="Helvetica,sans-Serif" font-size="10.00">Framework/src/Information</text>
<text text-anchor="middle" x="2591" y="-74.5" font-family="Helvetica,sans-Serif" font-size="10.00">Service.cxx</text>
</a>
</g>
</g>
<!-- Node1&#45;&gt;Node23 -->
<g id="edge22" class="edge"><title>Node1&#45;&gt;Node23</title>
<path fill="none" stroke="midnightblue" d="M3050.29,-141.87C2958.96,-133.559 2801.94,-117.95 2668,-98 2664.77,-97.519 2661.47,-97.0008 2658.14,-96.4566"/>
<polygon fill="midnightblue" stroke="midnightblue" points="3050.01,-145.359 3060.28,-142.774 3050.64,-138.387 3050.01,-145.359"/>
</g>
<!-- Node24 -->
<g id="node24" class="node"><title>Node24</title>
<g id="a_node24"><a xlink:href="MySqlDatabase_8cxx.html" target="_top" xlink:title="Framework/src/MySqlDatabase.cxx">
<polygon fill="none" stroke="black" points="2676.5,-73 2676.5,-92 2849.5,-92 2849.5,-73 2676.5,-73"/>
<text text-anchor="middle" x="2763" y="-80" font-family="Helvetica,sans-Serif" font-size="10.00">Framework/src/MySqlDatabase.cxx</text>
</a>
</g>
</g>
<!-- Node1&#45;&gt;Node24 -->
<g id="edge23" class="edge"><title>Node1&#45;&gt;Node24</title>
<path fill="none" stroke="midnightblue" d="M3050.26,-134.796C2977.9,-121.876 2871.73,-102.915 2810.77,-92.031"/>
<polygon fill="midnightblue" stroke="midnightblue" points="3049.78,-138.266 3060.24,-136.578 3051.01,-131.375 3049.78,-138.266"/>
</g>
<!-- Node25 -->
<g id="node25" class="node"><title>Node25</title>
<g id="a_node25"><a xlink:href="ObjectsManager_8cxx.html" target="_top" xlink:title="Framework/src/ObjectsManager.cxx">
<polygon fill="none" stroke="black" points="2867.5,-73 2867.5,-92 3042.5,-92 3042.5,-73 2867.5,-73"/>
<text text-anchor="middle" x="2955" y="-80" font-family="Helvetica,sans-Serif" font-size="10.00">Framework/src/ObjectsManager.cxx</text>
</a>
</g>
</g>
<!-- Node1&#45;&gt;Node25 -->
<g id="edge24" class="edge"><title>Node1&#45;&gt;Node25</title>
<path fill="none" stroke="midnightblue" d="M3080.12,-130.784C3046.77,-118.181 3003.45,-101.808 2977.51,-92.007"/>
<polygon fill="midnightblue" stroke="midnightblue" points="3079.09,-134.135 3089.68,-134.396 3081.56,-127.587 3079.09,-134.135"/>
</g>
<!-- Node26 -->
<g id="node26" class="node"><title>Node26</title>
<g id="a_node26"><a xlink:href="RepositoryBenchmark_8cxx.html" target="_top" xlink:title="Framework/src/Repository\lBenchmark.cxx">
<polygon fill="none" stroke="black" points="3061,-67.5 3061,-97.5 3193,-97.5 3193,-67.5 3061,-67.5"/>
<text text-anchor="start" x="3069" y="-85.5" font-family="Helvetica,sans-Serif" font-size="10.00">Framework/src/Repository</text>
<text text-anchor="middle" x="3127" y="-74.5" font-family="Helvetica,sans-Serif" font-size="10.00">Benchmark.cxx</text>
</a>
</g>
</g>
<!-- Node1&#45;&gt;Node26 -->
<g id="edge25" class="edge"><title>Node1&#45;&gt;Node26</title>
<path fill="none" stroke="midnightblue" d="M3127,-124.108C3127,-115.154 3127,-105.323 3127,-97.5765"/>
<polygon fill="midnightblue" stroke="midnightblue" points="3123.5,-124.396 3127,-134.396 3130.5,-124.396 3123.5,-124.396"/>
</g>
<!-- Node27 -->
<g id="node27" class="node"><title>Node27</title>
<g id="a_node27"><a xlink:href="testQcInfoLogger_8cxx.html" target="_top" xlink:title="Framework/test/testQcInfo\lLogger.cxx">
<polygon fill="none" stroke="black" points="3211,-67.5 3211,-97.5 3345,-97.5 3345,-67.5 3211,-67.5"/>
<text text-anchor="start" x="3219" y="-85.5" font-family="Helvetica,sans-Serif" font-size="10.00">Framework/test/testQcInfo</text>
<text text-anchor="middle" x="3278" y="-74.5" font-family="Helvetica,sans-Serif" font-size="10.00">Logger.cxx</text>
</a>
</g>
</g>
<!-- Node1&#45;&gt;Node27 -->
<g id="edge27" class="edge"><title>Node1&#45;&gt;Node27</title>
<path fill="none" stroke="midnightblue" d="M3169.03,-130.407C3193.14,-120.029 3222.95,-107.195 3245.3,-97.5765"/>
<polygon fill="midnightblue" stroke="midnightblue" points="3167.57,-127.227 3159.76,-134.396 3170.33,-133.657 3167.57,-127.227"/>
</g>
<!-- Node28 -->
<g id="node28" class="node"><title>Node28</title>
<g id="a_node28"><a xlink:href="DaqTask_8cxx.html" target="_top" xlink:title="Modules/Daq/src/DaqTask.cxx">
<polygon fill="none" stroke="black" points="3363,-73 3363,-92 3515,-92 3515,-73 3363,-73"/>
<text text-anchor="middle" x="3439" y="-80" font-family="Helvetica,sans-Serif" font-size="10.00">Modules/Daq/src/DaqTask.cxx</text>
</a>
</g>
</g>
<!-- Node1&#45;&gt;Node28 -->
<g id="edge28" class="edge"><title>Node1&#45;&gt;Node28</title>
<path fill="none" stroke="midnightblue" d="M3203.57,-132.547C3264.89,-119.773 3348.54,-102.346 3397.85,-92.072"/>
<polygon fill="midnightblue" stroke="midnightblue" points="3202.63,-129.17 3193.55,-134.636 3204.05,-136.022 3202.63,-129.17"/>
</g>
<!-- Node29 -->
<g id="node29" class="node"><title>Node29</title>
<g id="a_node29"><a xlink:href="DigitsQcTask_8cxx.html" target="_top" xlink:title="Modules/EMCAL/src/Digits\lQcTask.cxx">
<polygon fill="none" stroke="black" points="3533,-67.5 3533,-97.5 3669,-97.5 3669,-67.5 3533,-67.5"/>
<text text-anchor="start" x="3541" y="-85.5" font-family="Helvetica,sans-Serif" font-size="10.00">Modules/EMCAL/src/Digits</text>
<text text-anchor="middle" x="3601" y="-74.5" font-family="Helvetica,sans-Serif" font-size="10.00">QcTask.cxx</text>
</a>
</g>
</g>
<!-- Node1&#45;&gt;Node29 -->
<g id="edge29" class="edge"><title>Node1&#45;&gt;Node29</title>
<path fill="none" stroke="midnightblue" d="M3203.55,-140.133C3283.64,-131.059 3412.93,-115.506 3524,-98 3526.82,-97.5552 3529.7,-97.0859 3532.6,-96.5989"/>
<polygon fill="midnightblue" stroke="midnightblue" points="3203.1,-136.662 3193.55,-141.262 3203.88,-143.618 3203.1,-136.662"/>
</g>
<!-- Node30 -->
<g id="node30" class="node"><title>Node30</title>
<g id="a_node30"><a xlink:href="BenchmarkTask_8cxx.html" target="_top" xlink:title="Modules/Example/src\l/BenchmarkTask.cxx">
<polygon fill="none" stroke="black" points="3687.5,-67.5 3687.5,-97.5 3798.5,-97.5 3798.5,-67.5 3687.5,-67.5"/>
<text text-anchor="start" x="3695.5" y="-85.5" font-family="Helvetica,sans-Serif" font-size="10.00">Modules/Example/src</text>
<text text-anchor="middle" x="3743" y="-74.5" font-family="Helvetica,sans-Serif" font-size="10.00">/BenchmarkTask.cxx</text>
</a>
</g>
</g>
<!-- Node1&#45;&gt;Node30 -->
<g id="edge30" class="edge"><title>Node1&#45;&gt;Node30</title>
<path fill="none" stroke="midnightblue" d="M3203.97,-144.565C3310.84,-138.393 3509.99,-124.329 3678,-98 3681.08,-97.5167 3684.24,-96.9741 3687.42,-96.39"/>
<polygon fill="midnightblue" stroke="midnightblue" points="3203.71,-141.074 3193.92,-145.138 3204.1,-148.063 3203.71,-141.074"/>
</g>
<!-- Node31 -->
<g id="node31" class="node"><title>Node31</title>
<g id="a_node31"><a xlink:href="ExampleTask_8cxx.html" target="_top" xlink:title="Modules/Example/src\l/ExampleTask.cxx">
<polygon fill="none" stroke="black" points="3816.5,-67.5 3816.5,-97.5 3927.5,-97.5 3927.5,-67.5 3816.5,-67.5"/>
<text text-anchor="start" x="3824.5" y="-85.5" font-family="Helvetica,sans-Serif" font-size="10.00">Modules/Example/src</text>
<text text-anchor="middle" x="3872" y="-74.5" font-family="Helvetica,sans-Serif" font-size="10.00">/ExampleTask.cxx</text>
</a>
</g>
</g>
<!-- Node1&#45;&gt;Node31 -->
<g id="edge31" class="edge"><title>Node1&#45;&gt;Node31</title>
<path fill="none" stroke="midnightblue" d="M3203.94,-146.521C3330.54,-142.43 3590.46,-130.524 3808,-98 3810.7,-97.5957 3813.46,-97.1398 3816.24,-96.6454"/>
<polygon fill="midnightblue" stroke="midnightblue" points="3203.47,-143.034 3193.58,-146.847 3203.69,-150.03 3203.47,-143.034"/>
</g>
<!-- Node32 -->
<g id="node32" class="node"><title>Node32</title>
<g id="a_node32"><a xlink:href="SkeletonTask_8cxx.html" target="_top" xlink:title="Modules/Skeleton/src\l/SkeletonTask.cxx">
<polygon fill="none" stroke="black" points="3945.5,-67.5 3945.5,-97.5 4056.5,-97.5 4056.5,-67.5 3945.5,-67.5"/>
<text text-anchor="start" x="3953.5" y="-85.5" font-family="Helvetica,sans-Serif" font-size="10.00">Modules/Skeleton/src</text>
<text text-anchor="middle" x="4001" y="-74.5" font-family="Helvetica,sans-Serif" font-size="10.00">/SkeletonTask.cxx</text>
</a>
</g>
</g>
<!-- Node1&#45;&gt;Node32 -->
<g id="edge32" class="edge"><title>Node1&#45;&gt;Node32</title>
<path fill="none" stroke="midnightblue" d="M3203.59,-147.811C3347.84,-145.61 3669.37,-136.407 3937,-98 3939.71,-97.6116 3942.47,-97.1686 3945.25,-96.6846"/>
<polygon fill="midnightblue" stroke="midnightblue" points="3203.46,-144.312 3193.52,-147.958 3203.56,-151.312 3203.46,-144.312"/>
</g>
<!-- Node33 -->
<g id="node33" class="node"><title>Node33</title>
<g id="a_node33"><a xlink:href="TOFTask_8cxx.html" target="_top" xlink:title="Modules/TOF/src/TOFTask.cxx">
<polygon fill="none" stroke="black" points="4074.5,-73 4074.5,-92 4229.5,-92 4229.5,-73 4074.5,-73"/>
<text text-anchor="middle" x="4152" y="-80" font-family="Helvetica,sans-Serif" font-size="10.00">Modules/TOF/src/TOFTask.cxx</text>
</a>
</g>
</g>
<!-- Node1&#45;&gt;Node33 -->
<g id="edge33" class="edge"><title>Node1&#45;&gt;Node33</title>
<path fill="none" stroke="midnightblue" d="M3203.78,-147.314C3364.32,-144.187 3747.06,-133.349 4066,-98 4079.39,-96.5155 4093.87,-94.3107 4107.06,-92.0658"/>
<polygon fill="midnightblue" stroke="midnightblue" points="3203.46,-143.819 3193.53,-147.509 3203.59,-150.818 3203.46,-143.819"/>
</g>
<!-- Node3 -->
<g id="node3" class="node"><title>Node3</title>
<g id="a_node3"><a xlink:href="Checker_8cxx.html" target="_top" xlink:title="Framework/src/Checker.cxx">
<polygon fill="none" stroke="black" points="0,-6 0,-25 140,-25 140,-6 0,-6"/>
<text text-anchor="middle" x="70" y="-13" font-family="Helvetica,sans-Serif" font-size="10.00">Framework/src/Checker.cxx</text>
</a>
</g>
</g>
<!-- Node2&#45;&gt;Node3 -->
<g id="edge2" class="edge"><title>Node2&#45;&gt;Node3</title>
<path fill="none" stroke="midnightblue" d="M782.789,-78.8151C651.948,-73.6399 378.492,-60.1203 149,-31 136.827,-29.4553 123.687,-27.2592 111.685,-25.0421"/>
<polygon fill="midnightblue" stroke="midnightblue" points="782.972,-82.3248 793.101,-79.2173 783.245,-75.3301 782.972,-82.3248"/>
</g>
<!-- Node4 -->
<g id="node4" class="node"><title>Node4</title>
<g id="a_node4"><a xlink:href="CheckerFactory_8cxx.html" target="_top" xlink:title="Framework/src/CheckerFactory.cxx">
<polygon fill="none" stroke="black" points="158.5,-6 158.5,-25 331.5,-25 331.5,-6 158.5,-6"/>
<text text-anchor="middle" x="245" y="-13" font-family="Helvetica,sans-Serif" font-size="10.00">Framework/src/CheckerFactory.cxx</text>
</a>
</g>
</g>
<!-- Node2&#45;&gt;Node4 -->
<g id="edge3" class="edge"><title>Node2&#45;&gt;Node4</title>
<path fill="none" stroke="midnightblue" d="M782.945,-75.2846C681.469,-66.8059 497.561,-50.4267 341,-31 327.033,-29.2669 311.963,-27.1217 297.997,-25.0177"/>
<polygon fill="midnightblue" stroke="midnightblue" points="782.848,-78.7885 793.103,-76.13 783.428,-71.8126 782.848,-78.7885"/>
</g>
<!-- Node5 -->
<g id="node5" class="node"><title>Node5</title>
<g id="a_node5"><a xlink:href="runBasic_8cxx.html" target="_top" xlink:title="This is an executable showing QC Task&#39;s usage in Data Processing Layer. ">
<polygon fill="none" stroke="black" points="350,-6 350,-25 492,-25 492,-6 350,-6"/>
<text text-anchor="middle" x="421" y="-13" font-family="Helvetica,sans-Serif" font-size="10.00">Framework/src/runBasic.cxx</text>
</a>
</g>
</g>
<!-- Node2&#45;&gt;Node5 -->
<g id="edge4" class="edge"><title>Node2&#45;&gt;Node5</title>
<path fill="none" stroke="midnightblue" d="M783.385,-71.6155C710.611,-62.0153 598.185,-46.6365 501,-31 489.712,-29.1838 477.558,-27.0653 466.216,-25.0176"/>
<polygon fill="midnightblue" stroke="midnightblue" points="783.014,-75.0967 793.385,-72.9312 783.927,-68.1565 783.014,-75.0967"/>
</g>
<!-- Node6 -->
<g id="node6" class="node"><title>Node6</title>
<g id="a_node6"><a xlink:href="runMergerTest_8cxx.html" target="_top" xlink:title="This is DPL workflow to see HistoMerger in action. ">
<polygon fill="none" stroke="black" points="510.5,-6 510.5,-25 677.5,-25 677.5,-6 510.5,-6"/>
<text text-anchor="middle" x="594" y="-13" font-family="Helvetica,sans-Serif" font-size="10.00">Framework/src/runMergerTest.cxx</text>
</a>
</g>
</g>
<!-- Node2&#45;&gt;Node6 -->
<g id="edge5" class="edge"><title>Node2&#45;&gt;Node6</title>
<path fill="none" stroke="midnightblue" d="M792.761,-65.0694C740.598,-52.3228 670.401,-35.1694 628.902,-25.0287"/>
<polygon fill="midnightblue" stroke="midnightblue" points="792.064,-68.5021 802.609,-67.476 793.726,-61.7022 792.064,-68.5021"/>
</g>
<!-- Node7 -->
<g id="node7" class="node"><title>Node7</title>
<g id="a_node7"><a xlink:href="runReadout_8cxx.html" target="_top" xlink:title="This is an executable showing QC Task&#39;s usage in Data Processing Layer with Readout as external data ...">
<polygon fill="none" stroke="black" points="696,-6 696,-25 850,-25 850,-6 696,-6"/>
<text text-anchor="middle" x="773" y="-13" font-family="Helvetica,sans-Serif" font-size="10.00">Framework/src/runReadout.cxx</text>
</a>
</g>
</g>
<!-- Node2&#45;&gt;Node7 -->
<g id="edge6" class="edge"><title>Node2&#45;&gt;Node7</title>
<path fill="none" stroke="midnightblue" d="M833.02,-61.3425C816.785,-49.2128 796.944,-34.389 784.637,-25.1945"/>
<polygon fill="midnightblue" stroke="midnightblue" points="831.016,-64.2145 841.122,-67.396 835.206,-58.6068 831.016,-64.2145"/>
</g>
<!-- Node8 -->
<g id="node8" class="node"><title>Node8</title>
<g id="a_node8"><a xlink:href="testChecker_8cxx.html" target="_top" xlink:title="Framework/test/testChecker.cxx">
<polygon fill="none" stroke="black" points="868,-6 868,-25 1028,-25 1028,-6 868,-6"/>
<text text-anchor="middle" x="948" y="-13" font-family="Helvetica,sans-Serif" font-size="10.00">Framework/test/testChecker.cxx</text>
</a>
</g>
</g>
<!-- Node2&#45;&gt;Node8 -->
<g id="edge7" class="edge"><title>Node2&#45;&gt;Node8</title>
<path fill="none" stroke="midnightblue" d="M887.34,-61.3056C903.865,-49.0999 924.068,-34.1772 936.483,-25.007"/>
<polygon fill="midnightblue" stroke="midnightblue" points="885.059,-58.6393 879.095,-67.396 889.218,-64.2699 885.059,-58.6393"/>
</g>
<!-- Node9 -->
<g id="node9" class="node"><title>Node9</title>
<g id="a_node9"><a xlink:href="testWorkflow_8cxx.html" target="_top" xlink:title="Framework/test/testWorkflow.cxx">
<polygon fill="none" stroke="black" points="1046,-6 1046,-25 1210,-25 1210,-6 1046,-6"/>
<text text-anchor="middle" x="1128" y="-13" font-family="Helvetica,sans-Serif" font-size="10.00">Framework/test/testWorkflow.cxx</text>
</a>
</g>
</g>
<!-- Node2&#45;&gt;Node9 -->
<g id="edge8" class="edge"><title>Node2&#45;&gt;Node9</title>
<path fill="none" stroke="midnightblue" d="M927.744,-65.0694C980.3,-52.3228 1051.02,-35.1694 1092.84,-25.0287"/>
<polygon fill="midnightblue" stroke="midnightblue" points="926.715,-61.7175 917.822,-67.476 928.365,-68.5203 926.715,-61.7175"/>
</g>
<!-- Node10 -->
<g id="node10" class="node"><title>Node10</title>
<polygon fill="none" stroke="#bfbfbf" points="1228,-6 1228,-25 1446,-25 1446,-6 1228,-6"/>
<text text-anchor="middle" x="1337" y="-13" font-family="Helvetica,sans-Serif" font-size="10.00">Modules/EMCAL/src/runQCEMCALDigits.cxx</text>
</g>
<!-- Node2&#45;&gt;Node10 -->
<g id="edge9" class="edge"><title>Node2&#45;&gt;Node10</title>
<path fill="none" stroke="midnightblue" d="M936.568,-71.0662C1030.35,-58.2873 1187.41,-36.884 1274.35,-25.0378"/>
<polygon fill="midnightblue" stroke="midnightblue" points="936.012,-67.6096 926.576,-72.4278 936.957,-74.5455 936.012,-67.6096"/>
</g>
<!-- Node11 -->
<g id="node11" class="node"><title>Node11</title>
<g id="a_node11"><a xlink:href="runTOF_8cxx.html" target="_top" xlink:title="This is an executable showing QC Task&#39;s usage in Data Processing Layer. ">
<polygon fill="none" stroke="black" points="1464.5,-6 1464.5,-25 1611.5,-25 1611.5,-6 1464.5,-6"/>
<text text-anchor="middle" x="1538" y="-13" font-family="Helvetica,sans-Serif" font-size="10.00">Modules/TOF/src/runTOF.cxx</text>
</a>
</g>
</g>
<!-- Node2&#45;&gt;Node11 -->
<g id="edge10" class="edge"><title>Node2&#45;&gt;Node11</title>
<path fill="none" stroke="midnightblue" d="M936.671,-77.1637C1050.21,-70.2511 1269.62,-55.0117 1455,-31 1467.48,-29.384 1480.94,-27.2174 1493.31,-25.0524"/>
<polygon fill="midnightblue" stroke="midnightblue" points="936.454,-73.6703 926.683,-77.7669 936.876,-80.6576 936.454,-73.6703"/>
</g>
<!-- Node12&#45;&gt;Node13 -->
<g id="edge12" class="edge"><title>Node12&#45;&gt;Node13</title>
<path fill="none" stroke="midnightblue" d="M2165.19,-74.0639C2076.02,-65.1432 1924.59,-49.1064 1795,-31 1782.41,-29.2413 1768.84,-27.0988 1756.25,-25.0062"/>
<polygon fill="midnightblue" stroke="midnightblue" points="2164.92,-77.5543 2175.22,-75.0633 2165.61,-70.5888 2164.92,-77.5543"/>
</g>
<!-- Node14 -->
<g id="node14" class="node"><title>Node14</title>
<g id="a_node14"><a xlink:href="testTaskInterface_8cxx.html" target="_top" xlink:title="Framework/test/testTaskInterface.cxx">
<polygon fill="none" stroke="black" points="1804.5,-6 1804.5,-25 1987.5,-25 1987.5,-6 1804.5,-6"/>
<text text-anchor="middle" x="1896" y="-13" font-family="Helvetica,sans-Serif" font-size="10.00">Framework/test/testTaskInterface.cxx</text>
</a>
</g>
</g>
<!-- Node12&#45;&gt;Node14 -->
<g id="edge13" class="edge"><title>Node12&#45;&gt;Node14</title>
<path fill="none" stroke="midnightblue" d="M2165.38,-67.1052C2096.67,-54.1983 1998.18,-35.6964 1941.29,-25.008"/>
<polygon fill="midnightblue" stroke="midnightblue" points="2164.81,-70.5608 2175.29,-68.9673 2166.11,-63.6811 2164.81,-70.5608"/>
</g>
<!-- Node15 -->
<g id="node15" class="node"><title>Node15</title>
<g id="a_node15"><a xlink:href="testQcDaq_8cxx.html" target="_top" xlink:title="Modules/Daq/test/testQcDaq.cxx">
<polygon fill="none" stroke="black" points="2005.5,-6 2005.5,-25 2168.5,-25 2168.5,-6 2005.5,-6"/>
<text text-anchor="middle" x="2087" y="-13" font-family="Helvetica,sans-Serif" font-size="10.00">Modules/Daq/test/testQcDaq.cxx</text>
</a>
</g>
</g>
<!-- Node12&#45;&gt;Node15 -->
<g id="edge14" class="edge"><title>Node12&#45;&gt;Node15</title>
<path fill="none" stroke="midnightblue" d="M2198.98,-63.4585C2169.03,-50.9001 2130.46,-34.724 2107.29,-25.007"/>
<polygon fill="midnightblue" stroke="midnightblue" points="2197.79,-66.7563 2208.37,-67.396 2200.5,-60.301 2197.79,-66.7563"/>
</g>
<!-- Node16 -->
<g id="node16" class="node"><title>Node16</title>
<g id="a_node16"><a xlink:href="testEMCAL_8cxx.html" target="_top" xlink:title="Modules/EMCAL/test\l/testEMCAL.cxx">
<polygon fill="none" stroke="black" points="2187,-0.5 2187,-30.5 2297,-30.5 2297,-0.5 2187,-0.5"/>
<text text-anchor="start" x="2195" y="-18.5" font-family="Helvetica,sans-Serif" font-size="10.00">Modules/EMCAL/test</text>
<text text-anchor="middle" x="2242" y="-7.5" font-family="Helvetica,sans-Serif" font-size="10.00">/testEMCAL.cxx</text>
</a>
</g>
</g>
<!-- Node12&#45;&gt;Node16 -->
<g id="edge15" class="edge"><title>Node12&#45;&gt;Node16</title>
<path fill="none" stroke="midnightblue" d="M2242,-57.1081C2242,-48.1539 2242,-38.3227 2242,-30.5765"/>
<polygon fill="midnightblue" stroke="midnightblue" points="2238.5,-57.3959 2242,-67.396 2245.5,-57.396 2238.5,-57.3959"/>
</g>
<!-- Node17 -->
<g id="node17" class="node"><title>Node17</title>
<polygon fill="none" stroke="#bfbfbf" points="2315,-0.5 2315,-30.5 2429,-30.5 2429,-0.5 2315,-0.5"/>
<text text-anchor="start" x="2323" y="-18.5" font-family="Helvetica,sans-Serif" font-size="10.00">Modules/Example/test</text>
<text text-anchor="middle" x="2372" y="-7.5" font-family="Helvetica,sans-Serif" font-size="10.00">/testFactory.cxx</text>
</g>
<!-- Node12&#45;&gt;Node17 -->
<g id="edge16" class="edge"><title>Node12&#45;&gt;Node17</title>
<path fill="none" stroke="midnightblue" d="M2279.29,-62.8533C2299.85,-52.5761 2324.95,-40.0252 2343.85,-30.5765"/>
<polygon fill="midnightblue" stroke="midnightblue" points="2277.59,-59.7933 2270.21,-67.396 2280.72,-66.0543 2277.59,-59.7933"/>
</g>
<!-- Node18 -->
<g id="node18" class="node"><title>Node18</title>
<g id="a_node18"><a xlink:href="testQcExample_8cxx.html" target="_top" xlink:title="Modules/Example/test\l/testQcExample.cxx">
<polygon fill="none" stroke="black" points="2447,-0.5 2447,-30.5 2561,-30.5 2561,-0.5 2447,-0.5"/>
<text text-anchor="start" x="2455" y="-18.5" font-family="Helvetica,sans-Serif" font-size="10.00">Modules/Example/test</text>
<text text-anchor="middle" x="2504" y="-7.5" font-family="Helvetica,sans-Serif" font-size="10.00">/testQcExample.cxx</text>
</a>
</g>
</g>
<!-- Node12&#45;&gt;Node18 -->
<g id="edge17" class="edge"><title>Node12&#45;&gt;Node18</title>
<path fill="none" stroke="midnightblue" d="M2308.3,-65.0515C2351.13,-54.425 2406.29,-40.7414 2447.12,-30.6109"/>
<polygon fill="midnightblue" stroke="midnightblue" points="2307.39,-61.671 2298.53,-67.476 2309.08,-68.465 2307.39,-61.671"/>
</g>
<!-- Node19 -->
<g id="node19" class="node"><title>Node19</title>
<polygon fill="none" stroke="#bfbfbf" points="2579,-0.5 2579,-30.5 2693,-30.5 2693,-0.5 2579,-0.5"/>
<text text-anchor="start" x="2587" y="-18.5" font-family="Helvetica,sans-Serif" font-size="10.00">Modules/Skeleton/test</text>
<text text-anchor="middle" x="2636" y="-7.5" font-family="Helvetica,sans-Serif" font-size="10.00">/.testEmpty.cxx</text>
</g>
<!-- Node12&#45;&gt;Node19 -->
<g id="edge18" class="edge"><title>Node12&#45;&gt;Node19</title>
<path fill="none" stroke="midnightblue" d="M2318.75,-66.9308C2431.31,-48.5314 2461.83,-50.5817 2570,-31 2572.89,-30.4776 2575.84,-29.9189 2578.81,-29.3361"/>
<polygon fill="midnightblue" stroke="midnightblue" points="2317.99,-63.5088 2308.7,-68.5928 2319.13,-70.4151 2317.99,-63.5088"/>
</g>
<!-- Node20 -->
<g id="node20" class="node"><title>Node20</title>
<g id="a_node20"><a xlink:href="testQcSkeleton_8cxx.html" target="_top" xlink:title="Modules/Skeleton/test\l/testQcSkeleton.cxx">
<polygon fill="none" stroke="black" points="2711,-0.5 2711,-30.5 2825,-30.5 2825,-0.5 2711,-0.5"/>
<text text-anchor="start" x="2719" y="-18.5" font-family="Helvetica,sans-Serif" font-size="10.00">Modules/Skeleton/test</text>
<text text-anchor="middle" x="2768" y="-7.5" font-family="Helvetica,sans-Serif" font-size="10.00">/testQcSkeleton.cxx</text>
</a>
</g>
</g>
<!-- Node12&#45;&gt;Node20 -->
<g id="edge19" class="edge"><title>Node12&#45;&gt;Node20</title>
<path fill="none" stroke="midnightblue" d="M2318.75,-66.9954C2489.47,-43.449 2535.86,-56.9374 2702,-31 2704.9,-30.5476 2707.86,-30.0453 2710.84,-29.5071"/>
<polygon fill="midnightblue" stroke="midnightblue" points="2318.09,-63.5546 2308.67,-68.4091 2319.06,-70.4868 2318.09,-63.5546"/>
</g>
<!-- Node21 -->
<g id="node21" class="node"><title>Node21</title>
<g id="a_node21"><a xlink:href="testTOF_8cxx.html" target="_top" xlink:title="Modules/TOF/test/testTOF.cxx">
<polygon fill="none" stroke="black" points="2843.5,-6 2843.5,-25 2996.5,-25 2996.5,-6 2843.5,-6"/>
<text text-anchor="middle" x="2920" y="-13" font-family="Helvetica,sans-Serif" font-size="10.00">Modules/TOF/test/testTOF.cxx</text>
</a>
</g>
</g>
<!-- Node12&#45;&gt;Node21 -->
<g id="edge20" class="edge"><title>Node12&#45;&gt;Node21</title>
<path fill="none" stroke="midnightblue" d="M2318.63,-67.0361C2547.7,-37.9836 2608.95,-57.7584 2834,-31 2847.23,-29.4268 2861.53,-27.2218 2874.59,-25.0053"/>
<polygon fill="midnightblue" stroke="midnightblue" points="2318.13,-63.5719 2308.66,-68.3185 2319.02,-70.5148 2318.13,-63.5719"/>
</g>
</g>
</svg>
