<?xml version="1.0" encoding="UTF-8" standalone="no"?>
<!DOCTYPE svg PUBLIC "-//W3C//DTD SVG 1.1//EN"
 "http://www.w3.org/Graphics/SVG/1.1/DTD/svg11.dtd">
<!-- Generated by graphviz version 2.38.0 (20140413.2041)
 -->
<!-- Title: Framework/include/QualityControl/QcInfoLogger.h Pages: 1 -->
<svg width="1264pt" height="330pt"
 viewBox="0.00 0.00 1264.00 330.00" xmlns="http://www.w3.org/2000/svg" xmlns:xlink="http://www.w3.org/1999/xlink">
<g id="graph0" class="graph" transform="scale(1 1) rotate(0) translate(4 326)">
<title>Framework/include/QualityControl/QcInfoLogger.h</title>
<!-- Node1 -->
<g id="node1" class="node"><title>Node1</title>
<polygon fill="#bfbfbf" stroke="black" points="587.5,-291.5 587.5,-321.5 720.5,-321.5 720.5,-291.5 587.5,-291.5"/>
<text text-anchor="start" x="595.5" y="-309.5" font-family="Helvetica,sans-Serif" font-size="10.00">Framework/include/Quality</text>
<text text-anchor="middle" x="654" y="-298.5" font-family="Helvetica,sans-Serif" font-size="10.00">Control/QcInfoLogger.h</text>
</g>
<!-- Node2 -->
<g id="node2" class="node"><title>Node2</title>
<g id="a_node2"><a xlink:href="TaskInterface_8h.html" target="_top" xlink:title="TaskInterface.h">
<polygon fill="none" stroke="black" points="611.5,-235.5 611.5,-254.5 696.5,-254.5 696.5,-235.5 611.5,-235.5"/>
<text text-anchor="middle" x="654" y="-242.5" font-family="Helvetica,sans-Serif" font-size="10.00">TaskInterface.h</text>
</a>
</g>
</g>
<!-- Node1&#45;&gt;Node2 -->
<g id="edge1" class="edge"><title>Node1&#45;&gt;Node2</title>
<path fill="none" stroke="midnightblue" d="M654,-291.399C654,-283.466 654,-273.458 654,-264.858"/>
<polygon fill="midnightblue" stroke="midnightblue" points="657.5,-264.658 654,-254.658 650.5,-264.658 657.5,-264.658"/>
</g>
<!-- Node11 -->
<g id="node11" class="node"><title>Node11</title>
<polygon fill="none" stroke="#bfbfbf" points="0,-62 0,-81 54,-81 54,-62 0,-62"/>
<text text-anchor="middle" x="27" y="-69" font-family="Helvetica,sans-Serif" font-size="10.00">iostream</text>
</g>
<!-- Node1&#45;&gt;Node11 -->
<g id="edge34" class="edge"><title>Node1&#45;&gt;Node11</title>
<path fill="none" stroke="midnightblue" d="M587.377,-296.182C446.03,-275.11 122.759,-219.6 46,-143 32.4258,-129.454 28.2597,-107.298 27.1227,-91.439"/>
<polygon fill="midnightblue" stroke="midnightblue" points="30.6117,-91.0786 26.7389,-81.217 23.6166,-91.3413 30.6117,-91.0786"/>
</g>
<!-- Node27 -->
<g id="node27" class="node"><title>Node27</title>
<polygon fill="none" stroke="#bfbfbf" points="715,-235.5 715,-254.5 845,-254.5 845,-235.5 715,-235.5"/>
<text text-anchor="middle" x="780" y="-242.5" font-family="Helvetica,sans-Serif" font-size="10.00">InfoLogger/InfoLogger.hxx</text>
</g>
<!-- Node1&#45;&gt;Node27 -->
<g id="edge33" class="edge"><title>Node1&#45;&gt;Node27</title>
<path fill="none" stroke="midnightblue" d="M683.86,-291.399C704.623,-281.595 732.1,-268.619 752.361,-259.052"/>
<polygon fill="midnightblue" stroke="midnightblue" points="754.118,-262.093 761.666,-254.658 751.129,-255.763 754.118,-262.093"/>
</g>
<!-- Node3 -->
<g id="node3" class="node"><title>Node3</title>
<polygon fill="none" stroke="#bfbfbf" points="1204,-62 1204,-81 1256,-81 1256,-62 1204,-62"/>
<text text-anchor="middle" x="1230" y="-69" font-family="Helvetica,sans-Serif" font-size="10.00">memory</text>
</g>
<!-- Node2&#45;&gt;Node3 -->
<g id="edge2" class="edge"><title>Node2&#45;&gt;Node3</title>
<path fill="none" stroke="midnightblue" d="M696.543,-236.483C699.741,-235.965 702.92,-235.465 706,-235 921.214,-202.506 1013.31,-274.161 1187,-143 1204.64,-129.676 1216.64,-106.821 1223.38,-90.7526"/>
<polygon fill="midnightblue" stroke="midnightblue" points="1226.68,-91.9301 1227.06,-81.3422 1220.16,-89.3794 1226.68,-91.9301"/>
</g>
<!-- Node4 -->
<g id="node4" class="node"><title>Node4</title>
<polygon fill="none" stroke="#bfbfbf" points="444.5,-179.5 444.5,-198.5 493.5,-198.5 493.5,-179.5 444.5,-179.5"/>
<text text-anchor="middle" x="469" y="-186.5" font-family="Helvetica,sans-Serif" font-size="10.00">cassert</text>
</g>
<!-- Node2&#45;&gt;Node4 -->
<g id="edge3" class="edge"><title>Node2&#45;&gt;Node4</title>
<path fill="none" stroke="midnightblue" d="M624.686,-235.444C591.767,-225.835 538.395,-210.256 503.494,-200.069"/>
<polygon fill="midnightblue" stroke="midnightblue" points="504.316,-196.663 493.736,-197.22 502.355,-203.382 504.316,-196.663"/>
</g>
<!-- Node5 -->
<g id="node5" class="node"><title>Node5</title>
<polygon fill="none" stroke="#bfbfbf" points="511.5,-179.5 511.5,-198.5 636.5,-198.5 636.5,-179.5 511.5,-179.5"/>
<text text-anchor="middle" x="574" y="-186.5" font-family="Helvetica,sans-Serif" font-size="10.00">Framework/InitContext.h</text>
</g>
<!-- Node2&#45;&gt;Node5 -->
<g id="edge4" class="edge"><title>Node2&#45;&gt;Node5</title>
<path fill="none" stroke="midnightblue" d="M641.147,-235.324C628.784,-226.979 609.87,-214.212 595.263,-204.352"/>
<polygon fill="midnightblue" stroke="midnightblue" points="597.068,-201.348 586.821,-198.655 593.152,-207.15 597.068,-201.348"/>
</g>
<!-- Node6 -->
<g id="node6" class="node"><title>Node6</title>
<polygon fill="none" stroke="#bfbfbf" points="655,-179.5 655,-198.5 815,-198.5 815,-179.5 655,-179.5"/>
<text text-anchor="middle" x="735" y="-186.5" font-family="Helvetica,sans-Serif" font-size="10.00">Framework/ProcessingContext.h</text>
</g>
<!-- Node2&#45;&gt;Node6 -->
<g id="edge5" class="edge"><title>Node2&#45;&gt;Node6</title>
<path fill="none" stroke="midnightblue" d="M667.014,-235.324C679.532,-226.979 698.682,-214.212 713.471,-204.352"/>
<polygon fill="midnightblue" stroke="midnightblue" points="715.639,-207.114 722.018,-198.655 711.756,-201.289 715.639,-207.114"/>
</g>
<!-- Node7 -->
<g id="node7" class="node"><title>Node7</title>
<polygon fill="none" stroke="#bfbfbf" points="689.5,-56.5 689.5,-86.5 824.5,-86.5 824.5,-56.5 689.5,-56.5"/>
<text text-anchor="start" x="697.5" y="-74.5" font-family="Helvetica,sans-Serif" font-size="10.00">Configuration/Configuration</text>
<text text-anchor="middle" x="757" y="-63.5" font-family="Helvetica,sans-Serif" font-size="10.00">Interface.h</text>
</g>
<!-- Node2&#45;&gt;Node7 -->
<g id="edge6" class="edge"><title>Node2&#45;&gt;Node7</title>
<path fill="none" stroke="midnightblue" d="M696.548,-236.517C699.745,-235.991 702.922,-235.48 706,-235 763.415,-226.044 926.844,-242.826 965,-199 1010.91,-146.268 910.633,-108.864 833.929,-88.9976"/>
<polygon fill="midnightblue" stroke="midnightblue" points="834.783,-85.6033 824.23,-86.5449 833.067,-92.3897 834.783,-85.6033"/>
</g>
<!-- Node8 -->
<g id="node8" class="node"><title>Node8</title>
<g id="a_node8"><a xlink:href="Activity_8h.html" target="_top" xlink:title="QualityControl/Activity.h">
<polygon fill="none" stroke="black" points="833.5,-179.5 833.5,-198.5 956.5,-198.5 956.5,-179.5 833.5,-179.5"/>
<text text-anchor="middle" x="895" y="-186.5" font-family="Helvetica,sans-Serif" font-size="10.00">QualityControl/Activity.h</text>
</a>
</g>
</g>
<!-- Node2&#45;&gt;Node8 -->
<g id="edge7" class="edge"><title>Node2&#45;&gt;Node8</title>
<path fill="none" stroke="midnightblue" d="M692.187,-235.444C734.141,-226.043 801.594,-210.929 847.071,-200.739"/>
<polygon fill="midnightblue" stroke="midnightblue" points="847.999,-204.118 856.991,-198.516 846.468,-197.288 847.999,-204.118"/>
</g>
<!-- Node9 -->
<g id="node9" class="node"><title>Node9</title>
<g id="a_node9"><a xlink:href="ObjectsManager_8h.html" target="_top" xlink:title="QualityControl/ObjectsManager.h">
<polygon fill="none" stroke="black" points="265.5,-179.5 265.5,-198.5 426.5,-198.5 426.5,-179.5 265.5,-179.5"/>
<text text-anchor="middle" x="346" y="-186.5" font-family="Helvetica,sans-Serif" font-size="10.00">QualityControl/ObjectsManager.h</text>
</a>
</g>
</g>
<!-- Node2&#45;&gt;Node9 -->
<g id="edge8" class="edge"><title>Node2&#45;&gt;Node9</title>
<path fill="none" stroke="midnightblue" d="M611.497,-236.548C557.833,-227.14 465.237,-210.905 404.811,-200.311"/>
<polygon fill="midnightblue" stroke="midnightblue" points="405.114,-196.811 394.66,-198.531 403.905,-203.706 405.114,-196.811"/>
</g>
<!-- Node10 -->
<g id="node10" class="node"><title>Node10</title>
<g id="a_node10"><a xlink:href="MonitorObject_8h.html" target="_top" xlink:title="QualityControl/MonitorObject.h">
<polygon fill="none" stroke="black" points="55.5,-123.5 55.5,-142.5 206.5,-142.5 206.5,-123.5 55.5,-123.5"/>
<text text-anchor="middle" x="131" y="-130.5" font-family="Helvetica,sans-Serif" font-size="10.00">QualityControl/MonitorObject.h</text>
</a>
</g>
</g>
<!-- Node9&#45;&gt;Node10 -->
<g id="edge9" class="edge"><title>Node9&#45;&gt;Node10</title>
<path fill="none" stroke="midnightblue" d="M311.933,-179.444C274.82,-170.122 215.339,-155.183 174.785,-144.997"/>
<polygon fill="midnightblue" stroke="midnightblue" points="175.459,-141.558 164.908,-142.516 173.754,-148.347 175.459,-141.558"/>
</g>
<!-- Node15 -->
<g id="node15" class="node"><title>Node15</title>
<g id="a_node15"><a xlink:href="Quality_8h.html" target="_top" xlink:title="QualityControl/Quality.h">
<polygon fill="none" stroke="black" points="405.5,-62 405.5,-81 526.5,-81 526.5,-62 405.5,-62"/>
<text text-anchor="middle" x="466" y="-69" font-family="Helvetica,sans-Serif" font-size="10.00">QualityControl/Quality.h</text>
</a>
</g>
</g>
<!-- Node9&#45;&gt;Node15 -->
<g id="edge18" class="edge"><title>Node9&#45;&gt;Node15</title>
<path fill="none" stroke="midnightblue" d="M424.511,-179.481C471.036,-172.633 523.644,-161.11 538,-143 555.402,-121.048 522.867,-98.9762 496.056,-85.5222"/>
<polygon fill="midnightblue" stroke="midnightblue" points="497.433,-82.3012 486.903,-81.1371 494.409,-88.6141 497.433,-82.3012"/>
</g>
<!-- Node17 -->
<g id="node17" class="node"><title>Node17</title>
<polygon fill="none" stroke="#bfbfbf" points="593.5,-0.5 593.5,-19.5 634.5,-19.5 634.5,-0.5 593.5,-0.5"/>
<text text-anchor="middle" x="614" y="-7.5" font-family="Helvetica,sans-Serif" font-size="10.00">string</text>
</g>
<!-- Node9&#45;&gt;Node17 -->
<g id="edge32" class="edge"><title>Node9&#45;&gt;Node17</title>
<path fill="none" stroke="midnightblue" d="M418.283,-179.476C470.045,-172.091 534.134,-159.918 555,-143 590.804,-113.972 605.6,-58.6728 611.104,-29.7253"/>
<polygon fill="midnightblue" stroke="midnightblue" points="614.58,-30.1633 612.833,-19.7136 607.682,-28.9725 614.58,-30.1633"/>
</g>
<!-- Node18 -->
<g id="node18" class="node"><title>Node18</title>
<g id="a_node18"><a xlink:href="TaskConfig_8h.html" target="_top" xlink:title="QualityControl/TaskConfig.h">
<polygon fill="none" stroke="black" points="623,-123.5 623,-142.5 763,-142.5 763,-123.5 623,-123.5"/>
<text text-anchor="middle" x="693" y="-130.5" font-family="Helvetica,sans-Serif" font-size="10.00">QualityControl/TaskConfig.h</text>
</a>
</g>
</g>
<!-- Node9&#45;&gt;Node18 -->
<g id="edge19" class="edge"><title>Node9&#45;&gt;Node18</title>
<path fill="none" stroke="midnightblue" d="M400.983,-179.444C462.659,-169.846 562.608,-154.292 628.074,-144.104"/>
<polygon fill="midnightblue" stroke="midnightblue" points="628.931,-147.513 638.274,-142.516 627.855,-140.596 628.931,-147.513"/>
</g>
<!-- Node19 -->
<g id="node19" class="node"><title>Node19</title>
<g id="a_node19"><a xlink:href="ServiceDiscovery_8h_source.html" target="_top" xlink:title="QualityControl/ServiceDiscovery.h">
<polygon fill="none" stroke="black" points="1011.5,-123.5 1011.5,-142.5 1178.5,-142.5 1178.5,-123.5 1011.5,-123.5"/>
<text text-anchor="middle" x="1095" y="-130.5" font-family="Helvetica,sans-Serif" font-size="10.00">QualityControl/ServiceDiscovery.h</text>
</a>
</g>
</g>
<!-- Node9&#45;&gt;Node19 -->
<g id="edge22" class="edge"><title>Node9&#45;&gt;Node19</title>
<path fill="none" stroke="midnightblue" d="M426.519,-179.738C429.381,-179.483 432.215,-179.236 435,-179 636.536,-161.944 873.122,-147.059 1001.16,-139.429"/>
<polygon fill="midnightblue" stroke="midnightblue" points="1001.55,-142.913 1011.32,-138.826 1001.13,-135.925 1001.55,-142.913"/>
</g>
<!-- Node24 -->
<g id="node24" class="node"><title>Node24</title>
<polygon fill="none" stroke="#bfbfbf" points="224.5,-123.5 224.5,-142.5 293.5,-142.5 293.5,-123.5 224.5,-123.5"/>
<text text-anchor="middle" x="259" y="-130.5" font-family="Helvetica,sans-Serif" font-size="10.00">TObjArray.h</text>
</g>
<!-- Node9&#45;&gt;Node24 -->
<g id="edge29" class="edge"><title>Node9&#45;&gt;Node24</title>
<path fill="none" stroke="midnightblue" d="M332.022,-179.324C318.45,-170.9 297.62,-157.971 281.675,-148.074"/>
<polygon fill="midnightblue" stroke="midnightblue" points="283.286,-144.954 272.943,-142.655 279.594,-150.902 283.286,-144.954"/>
</g>
<!-- Node25 -->
<g id="node25" class="node"><title>Node25</title>
<polygon fill="none" stroke="#bfbfbf" points="311.5,-123.5 311.5,-142.5 382.5,-142.5 382.5,-123.5 311.5,-123.5"/>
<text text-anchor="middle" x="347" y="-130.5" font-family="Helvetica,sans-Serif" font-size="10.00">TObjString.h</text>
</g>
<!-- Node9&#45;&gt;Node25 -->
<g id="edge30" class="edge"><title>Node9&#45;&gt;Node25</title>
<path fill="none" stroke="midnightblue" d="M346.165,-179.083C346.296,-172.006 346.484,-161.861 346.648,-152.986"/>
<polygon fill="midnightblue" stroke="midnightblue" points="350.152,-152.814 346.838,-142.751 343.153,-152.685 350.152,-152.814"/>
</g>
<!-- Node26 -->
<g id="node26" class="node"><title>Node26</title>
<polygon fill="none" stroke="#bfbfbf" points="401,-123.5 401,-142.5 529,-142.5 529,-123.5 401,-123.5"/>
<text text-anchor="middle" x="465" y="-130.5" font-family="Helvetica,sans-Serif" font-size="10.00">boost/concept_check.hpp</text>
</g>
<!-- Node9&#45;&gt;Node26 -->
<g id="edge31" class="edge"><title>Node9&#45;&gt;Node26</title>
<path fill="none" stroke="midnightblue" d="M364.856,-179.444C384.266,-170.636 414.73,-156.812 436.965,-146.722"/>
<polygon fill="midnightblue" stroke="midnightblue" points="438.572,-149.836 446.232,-142.516 435.68,-143.462 438.572,-149.836"/>
</g>
<!-- Node10&#45;&gt;Node11 -->
<g id="edge10" class="edge"><title>Node10&#45;&gt;Node11</title>
<path fill="none" stroke="midnightblue" d="M116.099,-123.475C99.0319,-113.711 70.8386,-97.5807 50.7379,-86.0808"/>
<polygon fill="midnightblue" stroke="midnightblue" points="52.291,-82.9371 41.873,-81.0091 48.8148,-89.013 52.291,-82.9371"/>
</g>
<!-- Node12 -->
<g id="node12" class="node"><title>Node12</title>
<polygon fill="none" stroke="#bfbfbf" points="206.5,-62 206.5,-81 241.5,-81 241.5,-62 206.5,-62"/>
<text text-anchor="middle" x="224" y="-69" font-family="Helvetica,sans-Serif" font-size="10.00">map</text>
</g>
<!-- Node10&#45;&gt;Node12 -->
<g id="edge11" class="edge"><title>Node10&#45;&gt;Node12</title>
<path fill="none" stroke="midnightblue" d="M144.325,-123.475C159.38,-113.843 184.116,-98.0175 202.037,-86.5517"/>
<polygon fill="midnightblue" stroke="midnightblue" points="204.163,-89.3466 210.7,-81.0091 200.39,-83.4501 204.163,-89.3466"/>
</g>
<!-- Node13 -->
<g id="node13" class="node"><title>Node13</title>
<polygon fill="none" stroke="#bfbfbf" points="341.5,-0.5 341.5,-19.5 400.5,-19.5 400.5,-0.5 341.5,-0.5"/>
<text text-anchor="middle" x="371" y="-7.5" font-family="Helvetica,sans-Serif" font-size="10.00">TObject.h</text>
</g>
<!-- Node10&#45;&gt;Node13 -->
<g id="edge12" class="edge"><title>Node10&#45;&gt;Node13</title>
<path fill="none" stroke="midnightblue" d="M158.113,-123.47C182.663,-115.347 219.539,-102.137 250,-87 287.067,-68.581 327.216,-41.8871 350.684,-25.5293"/>
<polygon fill="midnightblue" stroke="midnightblue" points="352.939,-28.2227 359.102,-19.605 348.91,-22.4983 352.939,-28.2227"/>
</g>
<!-- Node14 -->
<g id="node14" class="node"><title>Node14</title>
<polygon fill="none" stroke="#bfbfbf" points="72,-62 72,-81 188,-81 188,-62 72,-62"/>
<text text-anchor="middle" x="130" y="-69" font-family="Helvetica,sans-Serif" font-size="10.00">Common/Exceptions.h</text>
</g>
<!-- Node10&#45;&gt;Node14 -->
<g id="edge13" class="edge"><title>Node10&#45;&gt;Node14</title>
<path fill="none" stroke="midnightblue" d="M130.857,-123.475C130.716,-115.08 130.495,-101.981 130.314,-91.1631"/>
<polygon fill="midnightblue" stroke="midnightblue" points="133.811,-90.9488 130.143,-81.0091 126.812,-91.0665 133.811,-90.9488"/>
</g>
<!-- Node10&#45;&gt;Node15 -->
<g id="edge14" class="edge"><title>Node10&#45;&gt;Node15</title>
<path fill="none" stroke="midnightblue" d="M178.997,-123.475C239.447,-112.739 343.225,-94.3063 408.037,-82.7949"/>
<polygon fill="midnightblue" stroke="midnightblue" points="408.858,-86.204 418.092,-81.0091 407.634,-79.3118 408.858,-86.204"/>
</g>
<!-- Node15&#45;&gt;Node13 -->
<g id="edge15" class="edge"><title>Node15&#45;&gt;Node13</title>
<path fill="none" stroke="midnightblue" d="M452.389,-61.9751C436.939,-52.2989 411.51,-36.3721 393.184,-24.8941"/>
<polygon fill="midnightblue" stroke="midnightblue" points="394.919,-21.8509 384.586,-19.5091 391.203,-27.7834 394.919,-21.8509"/>
</g>
<!-- Node16 -->
<g id="node16" class="node"><title>Node16</title>
<polygon fill="none" stroke="#bfbfbf" points="440,-0.5 440,-19.5 492,-19.5 492,-0.5 440,-0.5"/>
<text text-anchor="middle" x="466" y="-7.5" font-family="Helvetica,sans-Serif" font-size="10.00">ostream</text>
</g>
<!-- Node15&#45;&gt;Node16 -->
<g id="edge16" class="edge"><title>Node15&#45;&gt;Node16</title>
<path fill="none" stroke="midnightblue" d="M466,-61.9751C466,-53.5803 466,-40.4806 466,-29.6631"/>
<polygon fill="midnightblue" stroke="midnightblue" points="469.5,-29.5091 466,-19.5091 462.5,-29.5091 469.5,-29.5091"/>
</g>
<!-- Node15&#45;&gt;Node17 -->
<g id="edge17" class="edge"><title>Node15&#45;&gt;Node17</title>
<path fill="none" stroke="midnightblue" d="M487.205,-61.9751C512.515,-51.7996 555.02,-34.7117 583.768,-23.1542"/>
<polygon fill="midnightblue" stroke="midnightblue" points="585.339,-26.2948 593.312,-19.3173 582.728,-19.8 585.339,-26.2948"/>
</g>
<!-- Node18&#45;&gt;Node7 -->
<g id="edge21" class="edge"><title>Node18&#45;&gt;Node7</title>
<path fill="none" stroke="midnightblue" d="M702.17,-123.475C710.595,-115.643 723.425,-103.714 734.556,-93.3656"/>
<polygon fill="midnightblue" stroke="midnightblue" points="736.976,-95.8953 741.916,-86.523 732.209,-90.7685 736.976,-95.8953"/>
</g>
<!-- Node18&#45;&gt;Node17 -->
<g id="edge20" class="edge"><title>Node18&#45;&gt;Node17</title>
<path fill="none" stroke="midnightblue" d="M687.319,-123.298C674.337,-103.414 642.304,-54.3521 625.195,-28.1471"/>
<polygon fill="midnightblue" stroke="midnightblue" points="628.028,-26.0831 619.63,-19.6232 622.166,-29.91 628.028,-26.0831"/>
</g>
<!-- Node19&#45;&gt;Node3 -->
<g id="edge25" class="edge"><title>Node19&#45;&gt;Node3</title>
<path fill="none" stroke="midnightblue" d="M1114.34,-123.475C1137.1,-113.445 1175.09,-96.7002 1201.29,-85.1546"/>
<polygon fill="midnightblue" stroke="midnightblue" points="1202.95,-88.2449 1210.69,-81.0091 1200.13,-81.8395 1202.95,-88.2449"/>
</g>
<!-- Node19&#45;&gt;Node17 -->
<g id="edge26" class="edge"><title>Node19&#45;&gt;Node17</title>
<path fill="none" stroke="midnightblue" d="M1018.87,-123.485C976.49,-116.954 923.47,-105.759 879,-87 856.285,-77.4176 855.728,-65.5513 833,-56 769.333,-29.2445 688.379,-17.943 644.921,-13.538"/>
<polygon fill="midnightblue" stroke="midnightblue" points="645.002,-10.0298 634.714,-12.5615 644.335,-16.998 645.002,-10.0298"/>
</g>
<!-- Node20 -->
<g id="node20" class="node"><title>Node20</title>
<polygon fill="none" stroke="#bfbfbf" points="1000,-62 1000,-81 1046,-81 1046,-62 1000,-62"/>
<text text-anchor="middle" x="1023" y="-69" font-family="Helvetica,sans-Serif" font-size="10.00">atomic</text>
</g>
<!-- Node19&#45;&gt;Node20 -->
<g id="edge23" class="edge"><title>Node19&#45;&gt;Node20</title>
<path fill="none" stroke="midnightblue" d="M1084.68,-123.475C1073.35,-114.108 1054.93,-98.8839 1041.16,-87.5081"/>
<polygon fill="midnightblue" stroke="midnightblue" points="1043.23,-84.6813 1033.3,-81.0091 1038.78,-90.0773 1043.23,-84.6813"/>
</g>
<!-- Node21 -->
<g id="node21" class="node"><title>Node21</title>
<polygon fill="none" stroke="#bfbfbf" points="1064.5,-62 1064.5,-81 1123.5,-81 1123.5,-62 1064.5,-62"/>
<text text-anchor="middle" x="1094" y="-69" font-family="Helvetica,sans-Serif" font-size="10.00">curl/curl.h</text>
</g>
<!-- Node19&#45;&gt;Node21 -->
<g id="edge24" class="edge"><title>Node19&#45;&gt;Node21</title>
<path fill="none" stroke="midnightblue" d="M1094.86,-123.475C1094.72,-115.08 1094.5,-101.981 1094.31,-91.1631"/>
<polygon fill="midnightblue" stroke="midnightblue" points="1097.81,-90.9488 1094.14,-81.0091 1090.81,-91.0665 1097.81,-90.9488"/>
</g>
<!-- Node22 -->
<g id="node22" class="node"><title>Node22</title>
<polygon fill="none" stroke="#bfbfbf" points="1142,-62 1142,-81 1186,-81 1186,-62 1142,-62"/>
<text text-anchor="middle" x="1164" y="-69" font-family="Helvetica,sans-Serif" font-size="10.00">thread</text>
</g>
<!-- Node19&#45;&gt;Node22 -->
<g id="edge27" class="edge"><title>Node19&#45;&gt;Node22</title>
<path fill="none" stroke="midnightblue" d="M1104.89,-123.475C1115.65,-114.197 1133.07,-99.1706 1146.22,-87.831"/>
<polygon fill="midnightblue" stroke="midnightblue" points="1148.84,-90.1902 1154.13,-81.0091 1144.27,-84.889 1148.84,-90.1902"/>
</g>
<!-- Node23 -->
<g id="node23" class="node"><title>Node23</title>
<polygon fill="none" stroke="#bfbfbf" points="888,-56.5 888,-86.5 982,-86.5 982,-56.5 888,-56.5"/>
<text text-anchor="start" x="896" y="-74.5" font-family="Helvetica,sans-Serif" font-size="10.00">boost/asio/ip/host</text>
<text text-anchor="middle" x="935" y="-63.5" font-family="Helvetica,sans-Serif" font-size="10.00">_name.hpp</text>
</g>
<!-- Node19&#45;&gt;Node23 -->
<g id="edge28" class="edge"><title>Node19&#45;&gt;Node23</title>
<path fill="none" stroke="midnightblue" d="M1072.08,-123.475C1048.79,-114.814 1012.03,-101.145 982.439,-90.1415"/>
<polygon fill="midnightblue" stroke="midnightblue" points="983.302,-86.7281 972.709,-86.523 980.862,-93.2891 983.302,-86.7281"/>
</g>
</g>
</svg>
