<?xml version="1.0" encoding="UTF-8" standalone="no"?>
<!DOCTYPE svg PUBLIC "-//W3C//DTD SVG 1.1//EN"
 "http://www.w3.org/Graphics/SVG/1.1/DTD/svg11.dtd">
<!-- Generated by graphviz version 2.38.0 (20140413.2041)
 -->
<!-- Title: Framework/src/RepositoryBenchmark.cxx Pages: 1 -->
<!--zoomable 386 -->
<svg id="main" version="1.1" xmlns="http://www.w3.org/2000/svg" xmlns:xlink="http://www.w3.org/1999/xlink" xml:space="preserve" onload="init(evt)">
<style type="text/css"><![CDATA[
.edge:hover path { stroke: red; }
.edge:hover polygon { stroke: red; fill: red; }
]]></style>
<script type="text/javascript"><![CDATA[
var edges = document.getElementsByTagName('g');
if (edges && edges.length) {
  for (var i=0;i<edges.length;i++) {
    if (edges[i].id.substr(0,4)=='edge') {
      edges[i].setAttribute('class','edge');
    }
  }
}
]]></script>
        <defs>
                <circle id="rim" cx="0" cy="0" r="7"/>
                <circle id="rim2" cx="0" cy="0" r="3.5"/>
                <g id="zoomPlus">
                        <use xlink:href="#rim" fill="#404040">
                                <set attributeName="fill" to="#808080" begin="zoomplus.mouseover" end="zoomplus.mouseout"/>
                        </use>
                        <path d="M-4,0h8M0,-4v8" fill="none" stroke="white" stroke-width="1.5" pointer-events="none"/>
                </g>
                <g id="zoomMin">
                        <use xlink:href="#rim" fill="#404040">
                                <set attributeName="fill" to="#808080" begin="zoomminus.mouseover" end="zoomminus.mouseout"/>
                        </use>
                        <path d="M-4,0h8" fill="none" stroke="white" stroke-width="1.5" pointer-events="none"/>
                </g>
                <g id="dirArrow">
                        <path fill="none" stroke="white" stroke-width="1.5" d="M0,-3.0v7 M-2.5,-0.5L0,-3.0L2.5,-0.5"/>
                </g>
               <g id="resetDef">
                       <use xlink:href="#rim2" fill="#404040">
                               <set attributeName="fill" to="#808080" begin="reset.mouseover" end="reset.mouseout"/>
                       </use>
               </g>
        </defs>

<script type="text/javascript">
var viewWidth = 1685;
var viewHeight = 386;
var sectionId = 'dynsection-0';
</script>
<script xlink:href="svgpan.js"/>
<svg id="graph" class="graph">
<g id="viewport">
<title>Framework/src/RepositoryBenchmark.cxx</title>
<!-- Node1 -->
<g id="node1" class="node"><title>Node1</title>
<polygon fill="#bfbfbf" stroke="black" points="622,-347.5 622,-377.5 754,-377.5 754,-347.5 622,-347.5"/>
<text text-anchor="start" x="630" y="-365.5" font-family="Helvetica,sans-Serif" font-size="10.00">Framework/src/Repository</text>
<text text-anchor="middle" x="688" y="-354.5" font-family="Helvetica,sans-Serif" font-size="10.00">Benchmark.cxx</text>
</g>
<!-- Node2 -->
<g id="node2" class="node"><title>Node2</title>
<g id="a_node2"><a xlink:href="RepositoryBenchmark_8h.html" target="_top" xlink:title="RepositoryBenchmark.h">
<polygon fill="none" stroke="black" points="307,-291.5 307,-310.5 429,-310.5 429,-291.5 307,-291.5"/>
<text text-anchor="middle" x="368" y="-298.5" font-family="Helvetica,sans-Serif" font-size="10.00">RepositoryBenchmark.h</text>
</a>
</g>
</g>
<!-- Node1&#45;&gt;Node2 -->
<g id="edge1" class="edge"><title>Node1&#45;&gt;Node2</title>
<path fill="none" stroke="midnightblue" d="M621.696,-349.172C563.273,-338.308 479.115,-322.661 424.004,-312.413"/>
<polygon fill="midnightblue" stroke="midnightblue" points="424.535,-308.952 414.064,-310.565 423.255,-315.834 424.535,-308.952"/>
</g>
<!-- Node3 -->
<g id="node3" class="node"><title>Node3</title>
<g id="a_node3"><a xlink:href="CcdbDatabase_8h.html" target="_top" xlink:title="QualityControl/CcdbDatabase.h">
<polygon fill="none" stroke="black" points="470.5,-235.5 470.5,-254.5 625.5,-254.5 625.5,-235.5 470.5,-235.5"/>
<text text-anchor="middle" x="548" y="-242.5" font-family="Helvetica,sans-Serif" font-size="10.00">QualityControl/CcdbDatabase.h</text>
</a>
</g>
</g>
<!-- Node1&#45;&gt;Node3 -->
<g id="edge22" class="edge"><title>Node1&#45;&gt;Node3</title>
<path fill="none" stroke="midnightblue" d="M639.924,-347.45C619.164,-339.457 595.831,-327.645 579,-311 565.965,-298.11 557.693,-278.663 553.003,-264.398"/>
<polygon fill="midnightblue" stroke="midnightblue" points="556.318,-263.269 550.096,-254.694 549.613,-265.278 556.318,-263.269"/>
</g>
<!-- Node10 -->
<g id="node10" class="node"><title>Node10</title>
<polygon fill="none" stroke="#bfbfbf" points="322,-62 322,-81 438,-81 438,-62 322,-62"/>
<text text-anchor="middle" x="380" y="-69" font-family="Helvetica,sans-Serif" font-size="10.00">Common/Exceptions.h</text>
</g>
<!-- Node1&#45;&gt;Node10 -->
<g id="edge26" class="edge"><title>Node1&#45;&gt;Node10</title>
<path fill="none" stroke="midnightblue" d="M621.719,-357.293C449.288,-345.466 0,-308.64 0,-246 0,-246 0,-246 0,-188 0,-123.559 202.577,-91.6465 311.914,-79.1154"/>
<polygon fill="midnightblue" stroke="midnightblue" points="312.325,-82.5914 321.873,-77.9981 311.545,-75.635 312.325,-82.5914"/>
</g>
<!-- Node20 -->
<g id="node20" class="node"><title>Node20</title>
<polygon fill="none" stroke="#bfbfbf" points="588,-291.5 588,-310.5 634,-310.5 634,-291.5 588,-291.5"/>
<text text-anchor="middle" x="611" y="-298.5" font-family="Helvetica,sans-Serif" font-size="10.00">chrono</text>
</g>
<!-- Node1&#45;&gt;Node20 -->
<g id="edge20" class="edge"><title>Node1&#45;&gt;Node20</title>
<path fill="none" stroke="midnightblue" d="M669.752,-347.399C657.871,-338.218 642.393,-326.258 630.306,-316.918"/>
<polygon fill="midnightblue" stroke="midnightblue" points="632.257,-314.003 622.204,-310.658 627.977,-319.542 632.257,-314.003"/>
</g>
<!-- Node21 -->
<g id="node21" class="node"><title>Node21</title>
<polygon fill="none" stroke="#bfbfbf" points="1399,-62 1399,-81 1443,-81 1443,-62 1399,-62"/>
<text text-anchor="middle" x="1421" y="-69" font-family="Helvetica,sans-Serif" font-size="10.00">thread</text>
</g>
<!-- Node1&#45;&gt;Node21 -->
<g id="edge21" class="edge"><title>Node1&#45;&gt;Node21</title>
<path fill="none" stroke="midnightblue" d="M754.108,-360.739C946.887,-356.936 1501.36,-334.227 1605,-199 1610.41,-191.945 1610.54,-185.949 1605,-179 1560.08,-122.699 1501.11,-190.531 1447,-143 1432.17,-129.976 1425.79,-107.725 1423.05,-91.7009"/>
<polygon fill="midnightblue" stroke="midnightblue" points="1426.46,-90.7851 1421.63,-81.3542 1419.52,-91.7374 1426.46,-90.7851"/>
</g>
<!-- Node22 -->
<g id="node22" class="node"><title>Node22</title>
<polygon fill="none" stroke="#bfbfbf" points="690,-291.5 690,-310.5 740,-310.5 740,-291.5 690,-291.5"/>
<text text-anchor="middle" x="715" y="-298.5" font-family="Helvetica,sans-Serif" font-size="10.00">TH2F.h</text>
</g>
<!-- Node1&#45;&gt;Node22 -->
<g id="edge23" class="edge"><title>Node1&#45;&gt;Node22</title>
<path fill="none" stroke="midnightblue" d="M694.399,-347.399C698.12,-339.199 702.847,-328.781 706.835,-319.994"/>
<polygon fill="midnightblue" stroke="midnightblue" points="710.126,-321.21 711.071,-310.658 703.752,-318.318 710.126,-321.21"/>
</g>
<!-- Node23 -->
<g id="node23" class="node"><title>Node23</title>
<polygon fill="none" stroke="#bfbfbf" points="758,-291.5 758,-310.5 844,-310.5 844,-291.5 758,-291.5"/>
<text text-anchor="middle" x="801" y="-298.5" font-family="Helvetica,sans-Serif" font-size="10.00">FairMQLogger.h</text>
</g>
<!-- Node1&#45;&gt;Node23 -->
<g id="edge24" class="edge"><title>Node1&#45;&gt;Node23</title>
<path fill="none" stroke="midnightblue" d="M714.779,-347.399C733.062,-337.773 757.148,-325.09 775.215,-315.577"/>
<polygon fill="midnightblue" stroke="midnightblue" points="777.34,-318.414 784.557,-310.658 774.078,-312.22 777.34,-318.414"/>
</g>
<!-- Node24 -->
<g id="node24" class="node"><title>Node24</title>
<polygon fill="none" stroke="#bfbfbf" points="862,-291.5 862,-310.5 1008,-310.5 1008,-291.5 862,-291.5"/>
<text text-anchor="middle" x="935" y="-298.5" font-family="Helvetica,sans-Serif" font-size="10.00">options/FairMQProgOptions.h</text>
</g>
<!-- Node1&#45;&gt;Node24 -->
<g id="edge25" class="edge"><title>Node1&#45;&gt;Node24</title>
<path fill="none" stroke="midnightblue" d="M746.223,-347.475C790.138,-336.896 849.506,-322.595 889.859,-312.874"/>
<polygon fill="midnightblue" stroke="midnightblue" points="890.786,-316.251 899.688,-310.506 889.146,-309.446 890.786,-316.251"/>
</g>
<!-- Node25 -->
<g id="node25" class="node"><title>Node25</title>
<g id="a_node25"><a xlink:href="DatabaseFactory_8h.html" target="_top" xlink:title="QualityControl/DatabaseFactory.h">
<polygon fill="none" stroke="black" points="643.5,-235.5 643.5,-254.5 808.5,-254.5 808.5,-235.5 643.5,-235.5"/>
<text text-anchor="middle" x="726" y="-242.5" font-family="Helvetica,sans-Serif" font-size="10.00">QualityControl/DatabaseFactory.h</text>
</a>
</g>
</g>
<!-- Node1&#45;&gt;Node25 -->
<g id="edge27" class="edge"><title>Node1&#45;&gt;Node25</title>
<path fill="none" stroke="midnightblue" d="M682.777,-347.411C678.203,-332.751 673.375,-309.409 681,-291 685.92,-279.121 695.667,-268.743 704.834,-260.956"/>
<polygon fill="midnightblue" stroke="midnightblue" points="707.253,-263.506 712.936,-254.564 702.917,-258.01 707.253,-263.506"/>
</g>
<!-- Node26 -->
<g id="node26" class="node"><title>Node26</title>
<g id="a_node26"><a xlink:href="QcInfoLogger_8h.html" target="_top" xlink:title="QualityControl/QcInfoLogger.h">
<polygon fill="none" stroke="black" points="1031.5,-291.5 1031.5,-310.5 1180.5,-310.5 1180.5,-291.5 1031.5,-291.5"/>
<text text-anchor="middle" x="1106" y="-298.5" font-family="Helvetica,sans-Serif" font-size="10.00">QualityControl/QcInfoLogger.h</text>
</a>
</g>
</g>
<!-- Node1&#45;&gt;Node26 -->
<g id="edge31" class="edge"><title>Node1&#45;&gt;Node26</title>
<path fill="none" stroke="midnightblue" d="M754.233,-352.072C831.123,-341.127 957.393,-323.153 1035.9,-311.979"/>
<polygon fill="midnightblue" stroke="midnightblue" points="1036.76,-315.391 1046.17,-310.516 1035.78,-308.461 1036.76,-315.391"/>
</g>
<!-- Node2&#45;&gt;Node3 -->
<g id="edge2" class="edge"><title>Node2&#45;&gt;Node3</title>
<path fill="none" stroke="midnightblue" d="M396.522,-291.444C427.066,-282.28 475.708,-267.688 509.603,-257.519"/>
<polygon fill="midnightblue" stroke="midnightblue" points="511.039,-260.742 519.612,-254.516 509.028,-254.038 511.039,-260.742"/>
</g>
<!-- Node16 -->
<g id="node16" class="node"><title>Node16</title>
<polygon fill="none" stroke="#bfbfbf" points="126,-235.5 126,-254.5 214,-254.5 214,-235.5 126,-235.5"/>
<text text-anchor="middle" x="170" y="-242.5" font-family="Helvetica,sans-Serif" font-size="10.00">FairMQDevice.h</text>
</g>
<!-- Node2&#45;&gt;Node16 -->
<g id="edge16" class="edge"><title>Node2&#45;&gt;Node16</title>
<path fill="none" stroke="midnightblue" d="M336.626,-291.444C302.737,-282.201 248.597,-267.436 211.276,-257.257"/>
<polygon fill="midnightblue" stroke="midnightblue" points="211.795,-253.771 201.227,-254.516 209.954,-260.524 211.795,-253.771"/>
</g>
<!-- Node17 -->
<g id="node17" class="node"><title>Node17</title>
<polygon fill="none" stroke="#bfbfbf" points="232.5,-235.5 232.5,-254.5 383.5,-254.5 383.5,-235.5 232.5,-235.5"/>
<text text-anchor="middle" x="308" y="-242.5" font-family="Helvetica,sans-Serif" font-size="10.00">Monitoring/MonitoringFactory.h</text>
</g>
<!-- Node2&#45;&gt;Node17 -->
<g id="edge17" class="edge"><title>Node2&#45;&gt;Node17</title>
<path fill="none" stroke="midnightblue" d="M358.36,-291.324C349.49,-283.341 336.125,-271.313 325.392,-261.653"/>
<polygon fill="midnightblue" stroke="midnightblue" points="327.59,-258.922 317.815,-254.834 322.907,-264.125 327.59,-258.922"/>
</g>
<!-- Node18 -->
<g id="node18" class="node"><title>Node18</title>
<polygon fill="none" stroke="#bfbfbf" points="402,-235.5 402,-254.5 452,-254.5 452,-235.5 402,-235.5"/>
<text text-anchor="middle" x="427" y="-242.5" font-family="Helvetica,sans-Serif" font-size="10.00">TH1F.h</text>
</g>
<!-- Node2&#45;&gt;Node18 -->
<g id="edge18" class="edge"><title>Node2&#45;&gt;Node18</title>
<path fill="none" stroke="midnightblue" d="M377.479,-291.324C386.201,-283.341 399.343,-271.313 409.898,-261.653"/>
<polygon fill="midnightblue" stroke="midnightblue" points="412.334,-264.167 417.348,-254.834 407.608,-259.004 412.334,-264.167"/>
</g>
<!-- Node19 -->
<g id="node19" class="node"><title>Node19</title>
<polygon fill="none" stroke="#bfbfbf" points="28,-235.5 28,-254.5 108,-254.5 108,-235.5 28,-235.5"/>
<text text-anchor="middle" x="68" y="-242.5" font-family="Helvetica,sans-Serif" font-size="10.00">boost/asio.hpp</text>
</g>
<!-- Node2&#45;&gt;Node19 -->
<g id="edge19" class="edge"><title>Node2&#45;&gt;Node19</title>
<path fill="none" stroke="midnightblue" d="M319.871,-291.434C271.507,-282.812 194.536,-269.052 118.362,-255.241"/>
<polygon fill="midnightblue" stroke="midnightblue" points="118.573,-251.723 108.109,-253.381 117.323,-258.61 118.573,-251.723"/>
</g>
<!-- Node4 -->
<g id="node4" class="node"><title>Node4</title>
<polygon fill="none" stroke="#bfbfbf" points="256.5,-179.5 256.5,-198.5 351.5,-198.5 351.5,-179.5 256.5,-179.5"/>
<text text-anchor="middle" x="304" y="-186.5" font-family="Helvetica,sans-Serif" font-size="10.00">CCDB/CcdbApi.h</text>
</g>
<!-- Node3&#45;&gt;Node4 -->
<g id="edge3" class="edge"><title>Node3&#45;&gt;Node4</title>
<path fill="none" stroke="midnightblue" d="M509.337,-235.444C466.862,-226.043 398.569,-210.929 352.526,-200.739"/>
<polygon fill="midnightblue" stroke="midnightblue" points="353.002,-197.26 342.482,-198.516 351.489,-204.095 353.002,-197.26"/>
</g>
<!-- Node5 -->
<g id="node5" class="node"><title>Node5</title>
<g id="a_node5"><a xlink:href="DatabaseInterface_8h.html" target="_top" xlink:title="QualityControl/DatabaseInterface.h">
<polygon fill="none" stroke="black" points="500,-179.5 500,-198.5 670,-198.5 670,-179.5 500,-179.5"/>
<text text-anchor="middle" x="585" y="-186.5" font-family="Helvetica,sans-Serif" font-size="10.00">QualityControl/DatabaseInterface.h</text>
</a>
</g>
</g>
<!-- Node3&#45;&gt;Node5 -->
<g id="edge4" class="edge"><title>Node3&#45;&gt;Node5</title>
<path fill="none" stroke="midnightblue" d="M554.11,-235.083C559.282,-227.534 566.846,-216.495 573.194,-207.23"/>
<polygon fill="midnightblue" stroke="midnightblue" points="576.239,-208.979 579.004,-198.751 570.464,-205.022 576.239,-208.979"/>
</g>
<!-- Node6 -->
<g id="node6" class="node"><title>Node6</title>
<g id="a_node6"><a xlink:href="MonitorObject_8h.html" target="_top" xlink:title="QualityControl/MonitorObject.h">
<polygon fill="none" stroke="black" points="509.5,-123.5 509.5,-142.5 660.5,-142.5 660.5,-123.5 509.5,-123.5"/>
<text text-anchor="middle" x="585" y="-130.5" font-family="Helvetica,sans-Serif" font-size="10.00">QualityControl/MonitorObject.h</text>
</a>
</g>
</g>
<!-- Node5&#45;&gt;Node6 -->
<g id="edge5" class="edge"><title>Node5&#45;&gt;Node6</title>
<path fill="none" stroke="midnightblue" d="M585,-179.083C585,-172.006 585,-161.861 585,-152.986"/>
<polygon fill="midnightblue" stroke="midnightblue" points="588.5,-152.751 585,-142.751 581.5,-152.751 588.5,-152.751"/>
</g>
<!-- Node14 -->
<g id="node14" class="node"><title>Node14</title>
<polygon fill="none" stroke="#bfbfbf" points="791,-62 791,-81 843,-81 843,-62 791,-62"/>
<text text-anchor="middle" x="817" y="-69" font-family="Helvetica,sans-Serif" font-size="10.00">memory</text>
</g>
<!-- Node5&#45;&gt;Node14 -->
<g id="edge14" class="edge"><title>Node5&#45;&gt;Node14</title>
<path fill="none" stroke="midnightblue" d="M602.438,-179.319C642.76,-159.245 742.65,-109.515 790.553,-85.6667"/>
<polygon fill="midnightblue" stroke="midnightblue" points="792.284,-88.7144 799.676,-81.1245 789.165,-82.448 792.284,-88.7144"/>
</g>
<!-- Node15 -->
<g id="node15" class="node"><title>Node15</title>
<polygon fill="none" stroke="#bfbfbf" points="408.5,-123.5 408.5,-142.5 491.5,-142.5 491.5,-123.5 408.5,-123.5"/>
<text text-anchor="middle" x="450" y="-130.5" font-family="Helvetica,sans-Serif" font-size="10.00">unordered_map</text>
</g>
<!-- Node5&#45;&gt;Node15 -->
<g id="edge15" class="edge"><title>Node5&#45;&gt;Node15</title>
<path fill="none" stroke="midnightblue" d="M563.609,-179.444C541.293,-170.517 506.097,-156.439 480.792,-146.317"/>
<polygon fill="midnightblue" stroke="midnightblue" points="481.876,-142.981 471.291,-142.516 479.276,-149.48 481.876,-142.981"/>
</g>
<!-- Node7 -->
<g id="node7" class="node"><title>Node7</title>
<polygon fill="none" stroke="#bfbfbf" points="579,-62 579,-81 633,-81 633,-62 579,-62"/>
<text text-anchor="middle" x="606" y="-69" font-family="Helvetica,sans-Serif" font-size="10.00">iostream</text>
</g>
<!-- Node6&#45;&gt;Node7 -->
<g id="edge6" class="edge"><title>Node6&#45;&gt;Node7</title>
<path fill="none" stroke="midnightblue" d="M588.009,-123.475C591.034,-114.904 595.79,-101.427 599.653,-90.483"/>
<polygon fill="midnightblue" stroke="midnightblue" points="602.969,-91.6039 602.997,-81.0091 596.368,-89.2741 602.969,-91.6039"/>
</g>
<!-- Node8 -->
<g id="node8" class="node"><title>Node8</title>
<polygon fill="none" stroke="#bfbfbf" points="487.5,-62 487.5,-81 522.5,-81 522.5,-62 487.5,-62"/>
<text text-anchor="middle" x="505" y="-69" font-family="Helvetica,sans-Serif" font-size="10.00">map</text>
</g>
<!-- Node6&#45;&gt;Node8 -->
<g id="edge7" class="edge"><title>Node6&#45;&gt;Node8</title>
<path fill="none" stroke="midnightblue" d="M573.538,-123.475C560.825,-114.02 540.087,-98.5961 524.747,-87.1871"/>
<polygon fill="midnightblue" stroke="midnightblue" points="526.554,-84.1686 516.441,-81.0091 522.376,-89.7854 526.554,-84.1686"/>
</g>
<!-- Node9 -->
<g id="node9" class="node"><title>Node9</title>
<polygon fill="none" stroke="#bfbfbf" points="565.5,-0.5 565.5,-19.5 624.5,-19.5 624.5,-0.5 565.5,-0.5"/>
<text text-anchor="middle" x="595" y="-7.5" font-family="Helvetica,sans-Serif" font-size="10.00">TObject.h</text>
</g>
<!-- Node6&#45;&gt;Node9 -->
<g id="edge8" class="edge"><title>Node6&#45;&gt;Node9</title>
<path fill="none" stroke="midnightblue" d="M580.841,-123.492C574.487,-109.363 563.725,-80.2153 570,-56 572.546,-46.1752 577.753,-36.2118 582.759,-28.166"/>
<polygon fill="midnightblue" stroke="midnightblue" points="585.749,-29.9903 588.371,-19.7252 579.92,-26.1143 585.749,-29.9903"/>
</g>
<!-- Node6&#45;&gt;Node10 -->
<g id="edge9" class="edge"><title>Node6&#45;&gt;Node10</title>
<path fill="none" stroke="midnightblue" d="M555.628,-123.475C519.703,-113.048 458.768,-95.3618 418.956,-83.8066"/>
<polygon fill="midnightblue" stroke="midnightblue" points="419.896,-80.4353 409.317,-81.0091 417.945,-87.1578 419.896,-80.4353"/>
</g>
<!-- Node11 -->
<g id="node11" class="node"><title>Node11</title>
<g id="a_node11"><a xlink:href="Quality_8h.html" target="_top" xlink:title="QualityControl/Quality.h">
<polygon fill="none" stroke="black" points="651.5,-62 651.5,-81 772.5,-81 772.5,-62 651.5,-62"/>
<text text-anchor="middle" x="712" y="-69" font-family="Helvetica,sans-Serif" font-size="10.00">QualityControl/Quality.h</text>
</a>
</g>
</g>
<!-- Node6&#45;&gt;Node11 -->
<g id="edge10" class="edge"><title>Node6&#45;&gt;Node11</title>
<path fill="none" stroke="midnightblue" d="M603.196,-123.475C624.509,-113.49 660.031,-96.8476 684.663,-85.3075"/>
<polygon fill="midnightblue" stroke="midnightblue" points="686.267,-88.4211 693.838,-81.0091 683.297,-82.0822 686.267,-88.4211"/>
</g>
<!-- Node11&#45;&gt;Node9 -->
<g id="edge11" class="edge"><title>Node11&#45;&gt;Node9</title>
<path fill="none" stroke="midnightblue" d="M695.237,-61.9751C675.775,-52.078 643.455,-35.6416 620.789,-24.1151"/>
<polygon fill="midnightblue" stroke="midnightblue" points="622.232,-20.9224 611.732,-19.5091 619.059,-27.1619 622.232,-20.9224"/>
</g>
<!-- Node12 -->
<g id="node12" class="node"><title>Node12</title>
<polygon fill="none" stroke="#bfbfbf" points="686,-0.5 686,-19.5 738,-19.5 738,-0.5 686,-0.5"/>
<text text-anchor="middle" x="712" y="-7.5" font-family="Helvetica,sans-Serif" font-size="10.00">ostream</text>
</g>
<!-- Node11&#45;&gt;Node12 -->
<g id="edge12" class="edge"><title>Node11&#45;&gt;Node12</title>
<path fill="none" stroke="midnightblue" d="M712,-61.9751C712,-53.5803 712,-40.4806 712,-29.6631"/>
<polygon fill="midnightblue" stroke="midnightblue" points="715.5,-29.5091 712,-19.5091 708.5,-29.5091 715.5,-29.5091"/>
</g>
<!-- Node13 -->
<g id="node13" class="node"><title>Node13</title>
<polygon fill="none" stroke="#bfbfbf" points="1096.5,-0.5 1096.5,-19.5 1137.5,-19.5 1137.5,-0.5 1096.5,-0.5"/>
<text text-anchor="middle" x="1117" y="-7.5" font-family="Helvetica,sans-Serif" font-size="10.00">string</text>
</g>
<!-- Node11&#45;&gt;Node13 -->
<g id="edge13" class="edge"><title>Node11&#45;&gt;Node13</title>
<path fill="none" stroke="midnightblue" d="M750.785,-61.9565C760.917,-59.8644 771.846,-57.7315 782,-56 893.366,-37.0103 1026.69,-21.1328 1085.96,-14.426"/>
<polygon fill="midnightblue" stroke="midnightblue" points="1086.6,-17.8765 1096.14,-13.2817 1085.82,-10.9202 1086.6,-17.8765"/>
</g>
<!-- Node25&#45;&gt;Node5 -->
<g id="edge30" class="edge"><title>Node25&#45;&gt;Node5</title>
<path fill="none" stroke="midnightblue" d="M703.658,-235.444C680.247,-226.478 643.264,-212.314 616.81,-202.183"/>
<polygon fill="midnightblue" stroke="midnightblue" points="617.828,-198.824 607.237,-198.516 615.324,-205.361 617.828,-198.824"/>
</g>
<!-- Node25&#45;&gt;Node10 -->
<g id="edge29" class="edge"><title>Node25&#45;&gt;Node10</title>
<path fill="none" stroke="midnightblue" d="M643.253,-235.5C597.299,-228.98 539.739,-217.792 491,-199 446.337,-181.78 427.726,-181.291 399,-143 387.725,-127.971 383.137,-106.712 381.272,-91.4751"/>
<polygon fill="midnightblue" stroke="midnightblue" points="384.727,-90.831 380.311,-81.2003 377.758,-91.4828 384.727,-90.831"/>
</g>
<!-- Node25&#45;&gt;Node14 -->
<g id="edge28" class="edge"><title>Node25&#45;&gt;Node14</title>
<path fill="none" stroke="midnightblue" d="M730.638,-235.26C744.94,-208.306 788.55,-126.116 807.755,-89.9237"/>
<polygon fill="midnightblue" stroke="midnightblue" points="810.884,-91.4934 812.48,-81.0194 804.701,-88.2123 810.884,-91.4934"/>
</g>
<!-- Node26&#45;&gt;Node7 -->
<g id="edge57" class="edge"><title>Node26&#45;&gt;Node7</title>
<path fill="none" stroke="midnightblue" d="M1082.98,-291.446C1038.58,-274.789 938.263,-236.349 856,-199 772.028,-160.875 675.317,-109.839 630.791,-85.9254"/>
<polygon fill="midnightblue" stroke="midnightblue" points="632.322,-82.7748 621.858,-81.1153 629.003,-88.9381 632.322,-82.7748"/>
</g>
<!-- Node27 -->
<g id="node27" class="node"><title>Node27</title>
<g id="a_node27"><a xlink:href="TaskInterface_8h.html" target="_top" xlink:title="TaskInterface.h">
<polygon fill="none" stroke="black" points="1065.5,-235.5 1065.5,-254.5 1150.5,-254.5 1150.5,-235.5 1065.5,-235.5"/>
<text text-anchor="middle" x="1108" y="-242.5" font-family="Helvetica,sans-Serif" font-size="10.00">TaskInterface.h</text>
</a>
</g>
</g>
<!-- Node26&#45;&gt;Node27 -->
<g id="edge32" class="edge"><title>Node26&#45;&gt;Node27</title>
<path fill="none" stroke="midnightblue" d="M1106.33,-291.083C1106.59,-284.006 1106.97,-273.861 1107.3,-264.986"/>
<polygon fill="midnightblue" stroke="midnightblue" points="1110.8,-264.874 1107.68,-254.751 1103.81,-264.615 1110.8,-264.874"/>
</g>
<!-- Node42 -->
<g id="node42" class="node"><title>Node42</title>
<polygon fill="none" stroke="#bfbfbf" points="1169,-235.5 1169,-254.5 1299,-254.5 1299,-235.5 1169,-235.5"/>
<text text-anchor="middle" x="1234" y="-242.5" font-family="Helvetica,sans-Serif" font-size="10.00">InfoLogger/InfoLogger.hxx</text>
</g>
<!-- Node26&#45;&gt;Node42 -->
<g id="edge56" class="edge"><title>Node26&#45;&gt;Node42</title>
<path fill="none" stroke="midnightblue" d="M1126.28,-291.444C1147.35,-282.557 1180.52,-268.563 1204.49,-258.451"/>
<polygon fill="midnightblue" stroke="midnightblue" points="1205.96,-261.628 1213.81,-254.516 1203.24,-255.179 1205.96,-261.628"/>
</g>
<!-- Node27&#45;&gt;Node14 -->
<g id="edge33" class="edge"><title>Node27&#45;&gt;Node14</title>
<path fill="none" stroke="midnightblue" d="M1097.24,-235.127C1082.84,-222.166 1060.57,-197.578 1074,-179 1105.91,-134.86 1218.78,-164.06 1183,-123 1161.49,-98.3139 941.426,-80.879 853.25,-74.834"/>
<polygon fill="midnightblue" stroke="midnightblue" points="853.386,-71.3353 843.172,-74.1536 852.914,-78.3194 853.386,-71.3353"/>
</g>
<!-- Node28 -->
<g id="node28" class="node"><title>Node28</title>
<polygon fill="none" stroke="#bfbfbf" points="1083.5,-179.5 1083.5,-198.5 1132.5,-198.5 1132.5,-179.5 1083.5,-179.5"/>
<text text-anchor="middle" x="1108" y="-186.5" font-family="Helvetica,sans-Serif" font-size="10.00">cassert</text>
</g>
<!-- Node27&#45;&gt;Node28 -->
<g id="edge34" class="edge"><title>Node27&#45;&gt;Node28</title>
<path fill="none" stroke="midnightblue" d="M1108,-235.083C1108,-228.006 1108,-217.861 1108,-208.986"/>
<polygon fill="midnightblue" stroke="midnightblue" points="1111.5,-208.751 1108,-198.751 1104.5,-208.751 1111.5,-208.751"/>
</g>
<!-- Node29 -->
<g id="node29" class="node"><title>Node29</title>
<polygon fill="none" stroke="#bfbfbf" points="1150.5,-179.5 1150.5,-198.5 1275.5,-198.5 1275.5,-179.5 1150.5,-179.5"/>
<text text-anchor="middle" x="1213" y="-186.5" font-family="Helvetica,sans-Serif" font-size="10.00">Framework/InitContext.h</text>
</g>
<!-- Node27&#45;&gt;Node29 -->
<g id="edge35" class="edge"><title>Node27&#45;&gt;Node29</title>
<path fill="none" stroke="midnightblue" d="M1124.87,-235.324C1141.71,-226.664 1167.81,-213.242 1187.24,-203.249"/>
<polygon fill="midnightblue" stroke="midnightblue" points="1188.88,-206.341 1196.17,-198.655 1185.68,-200.116 1188.88,-206.341"/>
</g>
<!-- Node30 -->
<g id="node30" class="node"><title>Node30</title>
<polygon fill="none" stroke="#bfbfbf" points="1294,-179.5 1294,-198.5 1454,-198.5 1454,-179.5 1294,-179.5"/>
<text text-anchor="middle" x="1374" y="-186.5" font-family="Helvetica,sans-Serif" font-size="10.00">Framework/ProcessingContext.h</text>
</g>
<!-- Node27&#45;&gt;Node30 -->
<g id="edge36" class="edge"><title>Node27&#45;&gt;Node30</title>
<path fill="none" stroke="midnightblue" d="M1150.15,-235.444C1196.75,-225.984 1271.84,-210.738 1322.05,-200.547"/>
<polygon fill="midnightblue" stroke="midnightblue" points="1322.94,-203.936 1332.05,-198.516 1321.55,-197.076 1322.94,-203.936"/>
</g>
<!-- Node31 -->
<g id="node31" class="node"><title>Node31</title>
<polygon fill="none" stroke="#bfbfbf" points="1541.5,-56.5 1541.5,-86.5 1676.5,-86.5 1676.5,-56.5 1541.5,-56.5"/>
<text text-anchor="start" x="1549.5" y="-74.5" font-family="Helvetica,sans-Serif" font-size="10.00">Configuration/Configuration</text>
<text text-anchor="middle" x="1609" y="-63.5" font-family="Helvetica,sans-Serif" font-size="10.00">Interface.h</text>
</g>
<!-- Node27&#45;&gt;Node31 -->
<g id="edge37" class="edge"><title>Node27&#45;&gt;Node31</title>
<path fill="none" stroke="midnightblue" d="M1150.52,-236.318C1153.72,-235.838 1156.91,-235.392 1160,-235 1209.21,-228.764 1570.8,-234.927 1605,-199 1630.79,-171.907 1624.05,-124.901 1616.64,-96.4516"/>
<polygon fill="midnightblue" stroke="midnightblue" points="1619.92,-95.2049 1613.83,-86.5366 1613.19,-97.1119 1619.92,-95.2049"/>
</g>
<!-- Node32 -->
<g id="node32" class="node"><title>Node32</title>
<g id="a_node32"><a xlink:href="Activity_8h.html" target="_top" xlink:title="QualityControl/Activity.h">
<polygon fill="none" stroke="black" points="1472.5,-179.5 1472.5,-198.5 1595.5,-198.5 1595.5,-179.5 1472.5,-179.5"/>
<text text-anchor="middle" x="1534" y="-186.5" font-family="Helvetica,sans-Serif" font-size="10.00">QualityControl/Activity.h</text>
</a>
</g>
</g>
<!-- Node27&#45;&gt;Node32 -->
<g id="edge38" class="edge"><title>Node27&#45;&gt;Node32</title>
<path fill="none" stroke="midnightblue" d="M1150.54,-236.448C1153.74,-235.938 1156.92,-235.45 1160,-235 1291.05,-215.888 1326.74,-215.533 1462.48,-199.05"/>
<polygon fill="midnightblue" stroke="midnightblue" points="1462.93,-202.521 1472.43,-197.835 1462.08,-195.573 1462.93,-202.521"/>
</g>
<!-- Node33 -->
<g id="node33" class="node"><title>Node33</title>
<g id="a_node33"><a xlink:href="ObjectsManager_8h.html" target="_top" xlink:title="QualityControl/ObjectsManager.h">
<polygon fill="none" stroke="black" points="865.5,-179.5 865.5,-198.5 1026.5,-198.5 1026.5,-179.5 865.5,-179.5"/>
<text text-anchor="middle" x="946" y="-186.5" font-family="Helvetica,sans-Serif" font-size="10.00">QualityControl/ObjectsManager.h</text>
</a>
</g>
</g>
<!-- Node27&#45;&gt;Node33 -->
<g id="edge39" class="edge"><title>Node27&#45;&gt;Node33</title>
<path fill="none" stroke="midnightblue" d="M1082.33,-235.444C1055.08,-226.359 1011.82,-211.939 981.349,-201.783"/>
<polygon fill="midnightblue" stroke="midnightblue" points="982.143,-198.358 971.549,-198.516 979.929,-204.999 982.143,-198.358"/>
</g>
<!-- Node33&#45;&gt;Node6 -->
<g id="edge40" class="edge"><title>Node33&#45;&gt;Node6</title>
<path fill="none" stroke="midnightblue" d="M888.798,-179.444C824.503,-169.826 720.225,-154.228 652.125,-144.041"/>
<polygon fill="midnightblue" stroke="midnightblue" points="652.342,-140.534 641.934,-142.516 651.306,-147.457 652.342,-140.534"/>
</g>
<!-- Node33&#45;&gt;Node11 -->
<g id="edge41" class="edge"><title>Node33&#45;&gt;Node11</title>
<path fill="none" stroke="midnightblue" d="M918.926,-179.391C894.402,-171.214 857.543,-157.971 827,-143 792.624,-126.15 755.256,-102.072 732.736,-86.8674"/>
<polygon fill="midnightblue" stroke="midnightblue" points="734.554,-83.871 724.32,-81.1306 730.611,-89.655 734.554,-83.871"/>
</g>
<!-- Node33&#45;&gt;Node13 -->
<g id="edge55" class="edge"><title>Node33&#45;&gt;Node13</title>
<path fill="none" stroke="midnightblue" d="M916.114,-179.468C884.941,-168.958 842.823,-149.223 860,-123 911.111,-44.9725 1029.73,-21.0025 1086.13,-13.882"/>
<polygon fill="midnightblue" stroke="midnightblue" points="1086.7,-17.3396 1096.23,-12.7053 1085.89,-10.3866 1086.7,-17.3396"/>
</g>
<!-- Node34 -->
<g id="node34" class="node"><title>Node34</title>
<g id="a_node34"><a xlink:href="TaskConfig_8h.html" target="_top" xlink:title="QualityControl/TaskConfig.h">
<polygon fill="none" stroke="black" points="1456,-123.5 1456,-142.5 1596,-142.5 1596,-123.5 1456,-123.5"/>
<text text-anchor="middle" x="1526" y="-130.5" font-family="Helvetica,sans-Serif" font-size="10.00">QualityControl/TaskConfig.h</text>
</a>
</g>
</g>
<!-- Node33&#45;&gt;Node34 -->
<g id="edge42" class="edge"><title>Node33&#45;&gt;Node34</title>
<path fill="none" stroke="midnightblue" d="M1026.65,-180.492C1137.27,-170.192 1334.93,-151.79 1445.48,-141.496"/>
<polygon fill="midnightblue" stroke="midnightblue" points="1445.95,-144.969 1455.58,-140.557 1445.3,-137.999 1445.95,-144.969"/>
</g>
<!-- Node35 -->
<g id="node35" class="node"><title>Node35</title>
<g id="a_node35"><a xlink:href="ServiceDiscovery_8h_source.html" target="_top" xlink:title="QualityControl/ServiceDiscovery.h">
<polygon fill="none" stroke="black" points="1229.5,-123.5 1229.5,-142.5 1396.5,-142.5 1396.5,-123.5 1229.5,-123.5"/>
<text text-anchor="middle" x="1313" y="-130.5" font-family="Helvetica,sans-Serif" font-size="10.00">QualityControl/ServiceDiscovery.h</text>
</a>
</g>
</g>
<!-- Node33&#45;&gt;Node35 -->
<g id="edge45" class="edge"><title>Node33&#45;&gt;Node35</title>
<path fill="none" stroke="midnightblue" d="M1004.15,-179.444C1069.65,-169.806 1175.96,-154.163 1245.19,-143.978"/>
<polygon fill="midnightblue" stroke="midnightblue" points="1245.74,-147.435 1255.12,-142.516 1244.72,-140.51 1245.74,-147.435"/>
</g>
<!-- Node39 -->
<g id="node39" class="node"><title>Node39</title>
<polygon fill="none" stroke="#bfbfbf" points="869.5,-123.5 869.5,-142.5 938.5,-142.5 938.5,-123.5 869.5,-123.5"/>
<text text-anchor="middle" x="904" y="-130.5" font-family="Helvetica,sans-Serif" font-size="10.00">TObjArray.h</text>
</g>
<!-- Node33&#45;&gt;Node39 -->
<g id="edge52" class="edge"><title>Node33&#45;&gt;Node39</title>
<path fill="none" stroke="midnightblue" d="M939.065,-179.083C933.071,-171.377 924.248,-160.033 916.952,-150.653"/>
<polygon fill="midnightblue" stroke="midnightblue" points="919.709,-148.496 910.806,-142.751 914.183,-152.793 919.709,-148.496"/>
</g>
<!-- Node40 -->
<g id="node40" class="node"><title>Node40</title>
<polygon fill="none" stroke="#bfbfbf" points="956.5,-123.5 956.5,-142.5 1027.5,-142.5 1027.5,-123.5 956.5,-123.5"/>
<text text-anchor="middle" x="992" y="-130.5" font-family="Helvetica,sans-Serif" font-size="10.00">TObjString.h</text>
</g>
<!-- Node33&#45;&gt;Node40 -->
<g id="edge53" class="edge"><title>Node33&#45;&gt;Node40</title>
<path fill="none" stroke="midnightblue" d="M953.596,-179.083C960.227,-171.298 970.021,-159.801 978.058,-150.367"/>
<polygon fill="midnightblue" stroke="midnightblue" points="980.725,-152.633 984.545,-142.751 975.396,-148.094 980.725,-152.633"/>
</g>
<!-- Node41 -->
<g id="node41" class="node"><title>Node41</title>
<polygon fill="none" stroke="#bfbfbf" points="1046,-123.5 1046,-142.5 1174,-142.5 1174,-123.5 1046,-123.5"/>
<text text-anchor="middle" x="1110" y="-130.5" font-family="Helvetica,sans-Serif" font-size="10.00">boost/concept_check.hpp</text>
</g>
<!-- Node33&#45;&gt;Node41 -->
<g id="edge54" class="edge"><title>Node33&#45;&gt;Node41</title>
<path fill="none" stroke="midnightblue" d="M971.986,-179.444C999.696,-170.32 1043.75,-155.813 1074.62,-145.651"/>
<polygon fill="midnightblue" stroke="midnightblue" points="1075.73,-148.968 1084.14,-142.516 1073.54,-142.32 1075.73,-148.968"/>
</g>
<!-- Node34&#45;&gt;Node13 -->
<g id="edge43" class="edge"><title>Node34&#45;&gt;Node13</title>
<path fill="none" stroke="midnightblue" d="M1520.36,-123.105C1509.42,-106.696 1483.59,-71.8912 1452,-56 1399.02,-29.3463 1220.87,-16.729 1148.23,-12.5988"/>
<polygon fill="midnightblue" stroke="midnightblue" points="1148.08,-9.08563 1137.91,-12.0291 1147.7,-16.075 1148.08,-9.08563"/>
</g>
<!-- Node34&#45;&gt;Node31 -->
<g id="edge44" class="edge"><title>Node34&#45;&gt;Node31</title>
<path fill="none" stroke="midnightblue" d="M1537.89,-123.475C1549.13,-115.417 1566.42,-103.023 1581.14,-92.4741"/>
<polygon fill="midnightblue" stroke="midnightblue" points="1583.35,-95.1939 1589.44,-86.523 1579.27,-89.5047 1583.35,-95.1939"/>
</g>
<!-- Node35&#45;&gt;Node13 -->
<g id="edge49" class="edge"><title>Node35&#45;&gt;Node13</title>
<path fill="none" stroke="midnightblue" d="M1322.19,-123.163C1336.82,-108.033 1362.09,-76.7927 1345,-56 1320.39,-26.0588 1204.31,-15.7134 1147.91,-12.4146"/>
<polygon fill="midnightblue" stroke="midnightblue" points="1147.96,-8.91252 1137.79,-11.8613 1147.58,-15.9021 1147.96,-8.91252"/>
</g>
<!-- Node35&#45;&gt;Node14 -->
<g id="edge48" class="edge"><title>Node35&#45;&gt;Node14</title>
<path fill="none" stroke="midnightblue" d="M1241.94,-123.475C1134.65,-110.605 935.183,-86.6772 853.406,-76.8673"/>
<polygon fill="midnightblue" stroke="midnightblue" points="853.468,-73.3497 843.122,-75.6336 852.634,-80.2998 853.468,-73.3497"/>
</g>
<!-- Node35&#45;&gt;Node21 -->
<g id="edge50" class="edge"><title>Node35&#45;&gt;Node21</title>
<path fill="none" stroke="midnightblue" d="M1328.47,-123.475C1346.28,-113.666 1375.74,-97.4346 1396.63,-85.925"/>
<polygon fill="midnightblue" stroke="midnightblue" points="1398.49,-88.9001 1405.55,-81.0091 1395.11,-82.769 1398.49,-88.9001"/>
</g>
<!-- Node36 -->
<g id="node36" class="node"><title>Node36</title>
<polygon fill="none" stroke="#bfbfbf" points="1290,-62 1290,-81 1336,-81 1336,-62 1290,-62"/>
<text text-anchor="middle" x="1313" y="-69" font-family="Helvetica,sans-Serif" font-size="10.00">atomic</text>
</g>
<!-- Node35&#45;&gt;Node36 -->
<g id="edge46" class="edge"><title>Node35&#45;&gt;Node36</title>
<path fill="none" stroke="midnightblue" d="M1313,-123.475C1313,-115.08 1313,-101.981 1313,-91.1631"/>
<polygon fill="midnightblue" stroke="midnightblue" points="1316.5,-91.0091 1313,-81.0091 1309.5,-91.0091 1316.5,-91.0091"/>
</g>
<!-- Node37 -->
<g id="node37" class="node"><title>Node37</title>
<polygon fill="none" stroke="#bfbfbf" points="1100.5,-62 1100.5,-81 1159.5,-81 1159.5,-62 1100.5,-62"/>
<text text-anchor="middle" x="1130" y="-69" font-family="Helvetica,sans-Serif" font-size="10.00">curl/curl.h</text>
</g>
<!-- Node35&#45;&gt;Node37 -->
<g id="edge47" class="edge"><title>Node35&#45;&gt;Node37</title>
<path fill="none" stroke="midnightblue" d="M1284.17,-123.481C1254.99,-114.746 1208.65,-100.557 1169,-87 1166.75,-86.231 1164.44,-85.4202 1162.11,-84.5909"/>
<polygon fill="midnightblue" stroke="midnightblue" points="1163.21,-81.266 1152.61,-81.1383 1160.81,-87.8447 1163.21,-81.266"/>
</g>
<!-- Node38 -->
<g id="node38" class="node"><title>Node38</title>
<polygon fill="none" stroke="#bfbfbf" points="1178,-56.5 1178,-86.5 1272,-86.5 1272,-56.5 1178,-56.5"/>
<text text-anchor="start" x="1186" y="-74.5" font-family="Helvetica,sans-Serif" font-size="10.00">boost/asio/ip/host</text>
<text text-anchor="middle" x="1225" y="-63.5" font-family="Helvetica,sans-Serif" font-size="10.00">_name.hpp</text>
</g>
<!-- Node35&#45;&gt;Node38 -->
<g id="edge51" class="edge"><title>Node35&#45;&gt;Node38</title>
<path fill="none" stroke="midnightblue" d="M1300.39,-123.475C1288.36,-115.341 1269.8,-102.791 1254.1,-92.1788"/>
<polygon fill="midnightblue" stroke="midnightblue" points="1255.98,-89.2248 1245.74,-86.523 1252.06,-95.0237 1255.98,-89.2248"/>
</g>
</g>
</svg>
        <g id="navigator" transform="translate(0 0)" fill="#404254">
                <rect fill="#f2f5e9" fill-opacity="0.5" stroke="#606060" stroke-width=".5" x="0" y="0" width="60" height="60"/>
                <use id="zoomplus" xlink:href="#zoomPlus" x="17" y="9" onmousedown="handleZoom(evt,'in')"/>
                <use id="zoomminus" xlink:href="#zoomMin" x="42" y="9" onmousedown="handleZoom(evt,'out')"/>
                <use id="reset" xlink:href="#resetDef" x="30" y="36" onmousedown="handleReset()"/>
                <g id="arrowUp" xlink:href="#dirArrow" transform="translate(30 24)" onmousedown="handlePan(0,-1)">
                  <use xlink:href="#rim" fill="#404040">
                        <set attributeName="fill" to="#808080" begin="arrowUp.mouseover" end="arrowUp.mouseout"/>
                  </use>
                  <path fill="none" stroke="white" stroke-width="1.5" d="M0,-3.0v7 M-2.5,-0.5L0,-3.0L2.5,-0.5"/>
                </g>
                <g id="arrowRight" xlink:href="#dirArrow" transform="rotate(90) translate(36 -43)" onmousedown="handlePan(1,0)">
                  <use xlink:href="#rim" fill="#404040">
                        <set attributeName="fill" to="#808080" begin="arrowRight.mouseover" end="arrowRight.mouseout"/>
                  </use>
                  <path fill="none" stroke="white" stroke-width="1.5" d="M0,-3.0v7 M-2.5,-0.5L0,-3.0L2.5,-0.5"/>
                </g>
                <g id="arrowDown" xlink:href="#dirArrow" transform="rotate(180) translate(-30 -48)" onmousedown="handlePan(0,1)">
                  <use xlink:href="#rim" fill="#404040">
                        <set attributeName="fill" to="#808080" begin="arrowDown.mouseover" end="arrowDown.mouseout"/>
                  </use>
                  <path fill="none" stroke="white" stroke-width="1.5" d="M0,-3.0v7 M-2.5,-0.5L0,-3.0L2.5,-0.5"/>
                </g>
                <g id="arrowLeft" xlink:href="#dirArrow" transform="rotate(270) translate(-36 17)" onmousedown="handlePan(-1,0)">
                  <use xlink:href="#rim" fill="#404040">
                        <set attributeName="fill" to="#808080" begin="arrowLeft.mouseover" end="arrowLeft.mouseout"/>
                  </use>
                  <path fill="none" stroke="white" stroke-width="1.5" d="M0,-3.0v7 M-2.5,-0.5L0,-3.0L2.5,-0.5"/>
                </g>
        </g>
        <svg viewBox="0 0 15 15" width="100%" height="30px" preserveAspectRatio="xMaxYMin meet">
         <g id="arrow_out" transform="scale(0.3 0.3)">
          <a xlink:href="RepositoryBenchmark_8cxx__incl_org.svg" target="_base">
           <rect id="button" ry="5" rx="5" y="6" x="6" height="38" width="38"
                fill="#f2f5e9" fill-opacity="0.5" stroke="#606060" stroke-width="1.0"/>
           <path id="arrow"
             d="M 11.500037,31.436501 C 11.940474,20.09759 22.043105,11.32322 32.158766,21.979434 L 37.068811,17.246167 C 37.068811,17.246167 37.088388,32 37.088388,32 L 22.160133,31.978069 C 22.160133,31.978069 26.997745,27.140456 26.997745,27.140456 C 18.528582,18.264221 13.291696,25.230495 11.500037,31.436501 z"
             style="fill:#404040;"/>
          </a>
         </g>
        </svg>
</svg>
