<?xml version="1.0" encoding="UTF-8" standalone="no"?>
<!DOCTYPE svg PUBLIC "-//W3C//DTD SVG 1.1//EN"
 "http://www.w3.org/Graphics/SVG/1.1/DTD/svg11.dtd">
<!-- Generated by graphviz version 2.38.0 (20140413.2041)
 -->
<!-- Title: Framework/src/runMergerTest.cxx Pages: 1 -->
<svg width="2348pt" height="442pt"
 viewBox="0.00 0.00 2347.50 442.00" xmlns="http://www.w3.org/2000/svg" xmlns:xlink="http://www.w3.org/1999/xlink">
<g id="graph0" class="graph" transform="scale(1 1) rotate(0) translate(4 438)">
<title>Framework/src/runMergerTest.cxx</title>
<!-- Node1 -->
<g id="node1" class="node"><title>Node1</title>
<polygon fill="#bfbfbf" stroke="black" points="480,-414.5 480,-433.5 647,-433.5 647,-414.5 480,-414.5"/>
<text text-anchor="middle" x="563.5" y="-421.5" font-family="Helvetica,sans-Serif" font-size="10.00">Framework/src/runMergerTest.cxx</text>
</g>
<!-- Node2 -->
<g id="node2" class="node"><title>Node2</title>
<polygon fill="none" stroke="#bfbfbf" points="0,-353 0,-372 97,-372 97,-353 0,-353"/>
<text text-anchor="middle" x="48.5" y="-360" font-family="Helvetica,sans-Serif" font-size="10.00">fairlogger/Logger.h</text>
</g>
<!-- Node1&#45;&gt;Node2 -->
<g id="edge1" class="edge"><title>Node1&#45;&gt;Node2</title>
<path fill="none" stroke="midnightblue" d="M479.777,-417.86C388.729,-411.528 239.122,-398.953 111.5,-378 105.177,-376.962 98.5404,-375.666 92.0451,-374.278"/>
<polygon fill="midnightblue" stroke="midnightblue" points="92.5413,-370.803 82.0196,-372.046 91.0201,-377.635 92.5413,-370.803"/>
</g>
<!-- Node3 -->
<g id="node3" class="node"><title>Node3</title>
<polygon fill="none" stroke="#bfbfbf" points="117,-291.5 117,-310.5 270,-310.5 270,-291.5 117,-291.5"/>
<text text-anchor="middle" x="193.5" y="-298.5" font-family="Helvetica,sans-Serif" font-size="10.00">Framework/CompletionPolicy.h</text>
</g>
<!-- Node1&#45;&gt;Node3 -->
<g id="edge2" class="edge"><title>Node1&#45;&gt;Node3</title>
<path fill="none" stroke="midnightblue" d="M479.975,-419.911C364.161,-414.755 166.471,-402.457 144.5,-378 127.241,-358.789 152.395,-332.886 172.581,-316.824"/>
<polygon fill="midnightblue" stroke="midnightblue" points="174.942,-319.426 180.79,-310.591 170.709,-313.851 174.942,-319.426"/>
</g>
<!-- Node4 -->
<g id="node4" class="node"><title>Node4</title>
<polygon fill="none" stroke="#bfbfbf" points="154,-347.5 154,-377.5 299,-377.5 299,-347.5 154,-347.5"/>
<text text-anchor="start" x="162" y="-365.5" font-family="Helvetica,sans-Serif" font-size="10.00">Framework/CompletionPolicy</text>
<text text-anchor="middle" x="226.5" y="-354.5" font-family="Helvetica,sans-Serif" font-size="10.00">Helpers.h</text>
</g>
<!-- Node1&#45;&gt;Node4 -->
<g id="edge3" class="edge"><title>Node1&#45;&gt;Node4</title>
<path fill="none" stroke="midnightblue" d="M515.088,-414.462C465.899,-405.785 387.222,-391.905 309.361,-378.152"/>
<polygon fill="midnightblue" stroke="midnightblue" points="309.834,-374.681 299.377,-376.388 308.616,-381.574 309.834,-374.681"/>
</g>
<!-- Node5 -->
<g id="node5" class="node"><title>Node5</title>
<polygon fill="none" stroke="#bfbfbf" points="317.5,-353 317.5,-372 367.5,-372 367.5,-353 317.5,-353"/>
<text text-anchor="middle" x="342.5" y="-360" font-family="Helvetica,sans-Serif" font-size="10.00">TH1F.h</text>
</g>
<!-- Node1&#45;&gt;Node5 -->
<g id="edge4" class="edge"><title>Node1&#45;&gt;Node5</title>
<path fill="none" stroke="midnightblue" d="M519.088,-414.495C480.827,-406.653 424.368,-393.844 376.5,-378 374.581,-377.365 372.619,-376.666 370.655,-375.93"/>
<polygon fill="midnightblue" stroke="midnightblue" points="371.574,-372.527 360.99,-372.047 368.965,-379.023 371.574,-372.527"/>
</g>
<!-- Node6 -->
<g id="node6" class="node"><title>Node6</title>
<polygon fill="none" stroke="#bfbfbf" points="1983.5,-62 1983.5,-81 2035.5,-81 2035.5,-62 1983.5,-62"/>
<text text-anchor="middle" x="2009.5" y="-69" font-family="Helvetica,sans-Serif" font-size="10.00">memory</text>
</g>
<!-- Node1&#45;&gt;Node6 -->
<g id="edge5" class="edge"><title>Node1&#45;&gt;Node6</title>
<path fill="none" stroke="midnightblue" d="M647.353,-423.227C923.586,-423.549 1803.32,-421.078 2083.5,-378 2200.81,-359.964 2339.5,-420.686 2339.5,-302 2339.5,-302 2339.5,-302 2339.5,-188 2339.5,-126.308 2131.44,-89.7656 2045.73,-77.3297"/>
<polygon fill="midnightblue" stroke="midnightblue" points="2046.06,-73.8416 2035.67,-75.8993 2045.08,-80.772 2046.06,-73.8416"/>
</g>
<!-- Node7 -->
<g id="node7" class="node"><title>Node7</title>
<polygon fill="none" stroke="#bfbfbf" points="539,-353 539,-372 588,-372 588,-353 539,-353"/>
<text text-anchor="middle" x="563.5" y="-360" font-family="Helvetica,sans-Serif" font-size="10.00">random</text>
</g>
<!-- Node1&#45;&gt;Node7 -->
<g id="edge6" class="edge"><title>Node1&#45;&gt;Node7</title>
<path fill="none" stroke="midnightblue" d="M563.5,-414.475C563.5,-406.08 563.5,-392.981 563.5,-382.163"/>
<polygon fill="midnightblue" stroke="midnightblue" points="567,-382.009 563.5,-372.009 560,-382.009 567,-382.009"/>
</g>
<!-- Node8 -->
<g id="node8" class="node"><title>Node8</title>
<polygon fill="none" stroke="#bfbfbf" points="606.5,-353 606.5,-372 766.5,-372 766.5,-353 606.5,-353"/>
<text text-anchor="middle" x="686.5" y="-360" font-family="Helvetica,sans-Serif" font-size="10.00">Framework/runDataProcessing.h</text>
</g>
<!-- Node1&#45;&gt;Node8 -->
<g id="edge7" class="edge"><title>Node1&#45;&gt;Node8</title>
<path fill="none" stroke="midnightblue" d="M581.123,-414.475C601.674,-404.534 635.864,-387.995 659.707,-376.461"/>
<polygon fill="midnightblue" stroke="midnightblue" points="661.432,-379.515 668.91,-372.009 658.384,-373.213 661.432,-379.515"/>
</g>
<!-- Node9 -->
<g id="node9" class="node"><title>Node9</title>
<g id="a_node9"><a xlink:href="Checker_8h.html" target="_top" xlink:title="QualityControl/Checker.h">
<polygon fill="none" stroke="black" points="963,-353 963,-372 1090,-372 1090,-353 963,-353"/>
<text text-anchor="middle" x="1026.5" y="-360" font-family="Helvetica,sans-Serif" font-size="10.00">QualityControl/Checker.h</text>
</a>
</g>
</g>
<!-- Node1&#45;&gt;Node9 -->
<g id="edge8" class="edge"><title>Node1&#45;&gt;Node9</title>
<path fill="none" stroke="midnightblue" d="M647.071,-415.339C726.223,-407.615 848.288,-394.491 953.5,-378 960.956,-376.831 968.809,-375.441 976.491,-373.991"/>
<polygon fill="midnightblue" stroke="midnightblue" points="977.29,-377.402 986.442,-372.065 975.959,-370.529 977.29,-377.402"/>
</g>
<!-- Node43 -->
<g id="node43" class="node"><title>Node43</title>
<g id="a_node43"><a xlink:href="CheckerFactory_8h.html" target="_top" xlink:title="QualityControl/CheckerFactory.h">
<polygon fill="none" stroke="black" points="784.5,-353 784.5,-372 944.5,-372 944.5,-353 784.5,-353"/>
<text text-anchor="middle" x="864.5" y="-360" font-family="Helvetica,sans-Serif" font-size="10.00">QualityControl/CheckerFactory.h</text>
</a>
</g>
</g>
<!-- Node1&#45;&gt;Node43 -->
<g id="edge58" class="edge"><title>Node1&#45;&gt;Node43</title>
<path fill="none" stroke="midnightblue" d="M606.626,-414.475C660.605,-403.805 753.036,-385.534 811.337,-374.009"/>
<polygon fill="midnightblue" stroke="midnightblue" points="812.323,-377.382 821.454,-372.009 810.965,-370.515 812.323,-377.382"/>
</g>
<!-- Node45 -->
<g id="node45" class="node"><title>Node45</title>
<g id="a_node45"><a xlink:href="HistoMerger_8h.html" target="_top" xlink:title="QualityControl/HistoMerger.h">
<polygon fill="none" stroke="black" points="1931,-353 1931,-372 2074,-372 2074,-353 1931,-353"/>
<text text-anchor="middle" x="2002.5" y="-360" font-family="Helvetica,sans-Serif" font-size="10.00">QualityControl/HistoMerger.h</text>
</a>
</g>
</g>
<!-- Node1&#45;&gt;Node45 -->
<g id="edge60" class="edge"><title>Node1&#45;&gt;Node45</title>
<path fill="none" stroke="midnightblue" d="M647.087,-419.544C902.083,-409 1668.03,-377.33 1920.67,-366.884"/>
<polygon fill="midnightblue" stroke="midnightblue" points="1921.03,-370.372 1930.87,-366.462 1920.74,-363.378 1921.03,-370.372"/>
</g>
<!-- Node49 -->
<g id="node49" class="node"><title>Node49</title>
<g id="a_node49"><a xlink:href="TaskRunnerFactory_8h.html" target="_top" xlink:title="QualityControl/TaskRunner\lFactory.h">
<polygon fill="none" stroke="black" points="386,-347.5 386,-377.5 521,-377.5 521,-347.5 386,-347.5"/>
<text text-anchor="start" x="394" y="-365.5" font-family="Helvetica,sans-Serif" font-size="10.00">QualityControl/TaskRunner</text>
<text text-anchor="middle" x="453.5" y="-354.5" font-family="Helvetica,sans-Serif" font-size="10.00">Factory.h</text>
</a>
</g>
</g>
<!-- Node1&#45;&gt;Node49 -->
<g id="edge68" class="edge"><title>Node1&#45;&gt;Node49</title>
<path fill="none" stroke="midnightblue" d="M547.74,-414.475C532.285,-406.115 508.205,-393.09 488.255,-382.299"/>
<polygon fill="midnightblue" stroke="midnightblue" points="489.886,-379.202 479.425,-377.523 486.555,-385.359 489.886,-379.202"/>
</g>
<!-- Node9&#45;&gt;Node6 -->
<g id="edge10" class="edge"><title>Node9&#45;&gt;Node6</title>
<path fill="none" stroke="midnightblue" d="M1090.25,-358.438C1179.94,-353.249 1348.1,-340.286 1488.5,-311 1652.12,-276.871 1691.64,-259.365 1847.5,-199 1902.38,-177.744 1923.84,-182.47 1967.5,-143 1983.47,-128.561 1995.22,-106.601 2002.17,-91.0314"/>
<polygon fill="midnightblue" stroke="midnightblue" points="2005.55,-92.0192 2006.21,-81.4446 1999.1,-89.3034 2005.55,-92.0192"/>
</g>
<!-- Node10 -->
<g id="node10" class="node"><title>Node10</title>
<polygon fill="none" stroke="#bfbfbf" points="1017.5,-291.5 1017.5,-310.5 1063.5,-310.5 1063.5,-291.5 1017.5,-291.5"/>
<text text-anchor="middle" x="1040.5" y="-298.5" font-family="Helvetica,sans-Serif" font-size="10.00">chrono</text>
</g>
<!-- Node9&#45;&gt;Node10 -->
<g id="edge9" class="edge"><title>Node9&#45;&gt;Node10</title>
<path fill="none" stroke="midnightblue" d="M1028.51,-352.975C1030.5,-344.492 1033.63,-331.204 1036.19,-320.322"/>
<polygon fill="midnightblue" stroke="midnightblue" points="1039.61,-321.045 1038.5,-310.509 1032.8,-319.442 1039.61,-321.045"/>
</g>
<!-- Node11 -->
<g id="node11" class="node"><title>Node11</title>
<polygon fill="none" stroke="#bfbfbf" points="1805.5,-291.5 1805.5,-310.5 1897.5,-310.5 1897.5,-291.5 1805.5,-291.5"/>
<text text-anchor="middle" x="1851.5" y="-298.5" font-family="Helvetica,sans-Serif" font-size="10.00">Common/Timer.h</text>
</g>
<!-- Node9&#45;&gt;Node11 -->
<g id="edge11" class="edge"><title>Node9&#45;&gt;Node11</title>
<path fill="none" stroke="midnightblue" d="M1090.13,-359.087C1221.49,-353.711 1532.12,-338.966 1791.5,-311 1792.77,-310.863 1794.05,-310.72 1795.34,-310.57"/>
<polygon fill="midnightblue" stroke="midnightblue" points="1795.87,-314.03 1805.36,-309.315 1795,-307.084 1795.87,-314.03"/>
</g>
<!-- Node12 -->
<g id="node12" class="node"><title>Node12</title>
<polygon fill="none" stroke="#bfbfbf" points="1081,-56.5 1081,-86.5 1216,-86.5 1216,-56.5 1081,-56.5"/>
<text text-anchor="start" x="1089" y="-74.5" font-family="Helvetica,sans-Serif" font-size="10.00">Configuration/Configuration</text>
<text text-anchor="middle" x="1148.5" y="-63.5" font-family="Helvetica,sans-Serif" font-size="10.00">Interface.h</text>
</g>
<!-- Node9&#45;&gt;Node12 -->
<g id="edge12" class="edge"><title>Node9&#45;&gt;Node12</title>
<path fill="none" stroke="midnightblue" d="M1021.66,-352.82C1011.63,-333.984 989.5,-287.691 989.5,-246 989.5,-246 989.5,-246 989.5,-188 989.5,-137.672 1042.29,-106.996 1087.03,-90.033"/>
<polygon fill="midnightblue" stroke="midnightblue" points="1088.23,-93.3216 1096.44,-86.6194 1085.84,-86.7417 1088.23,-93.3216"/>
</g>
<!-- Node13 -->
<g id="node13" class="node"><title>Node13</title>
<polygon fill="none" stroke="#bfbfbf" points="1915.5,-291.5 1915.5,-310.5 2013.5,-310.5 2013.5,-291.5 1915.5,-291.5"/>
<text text-anchor="middle" x="1964.5" y="-298.5" font-family="Helvetica,sans-Serif" font-size="10.00">Framework/Task.h</text>
</g>
<!-- Node9&#45;&gt;Node13 -->
<g id="edge13" class="edge"><title>Node9&#45;&gt;Node13</title>
<path fill="none" stroke="midnightblue" d="M1090.17,-359.955C1233.76,-356.015 1593.92,-343.581 1905.37,-311.013"/>
<polygon fill="midnightblue" stroke="midnightblue" points="1905.92,-314.474 1915.5,-309.945 1905.18,-307.513 1905.92,-314.474"/>
</g>
<!-- Node14 -->
<g id="node14" class="node"><title>Node14</title>
<polygon fill="none" stroke="#bfbfbf" points="696,-291.5 696,-310.5 847,-310.5 847,-291.5 696,-291.5"/>
<text text-anchor="middle" x="771.5" y="-298.5" font-family="Helvetica,sans-Serif" font-size="10.00">Monitoring/MonitoringFactory.h</text>
</g>
<!-- Node9&#45;&gt;Node14 -->
<g id="edge14" class="edge"><title>Node9&#45;&gt;Node14</title>
<path fill="none" stroke="midnightblue" d="M989.965,-352.975C944.614,-342.393 867.224,-324.336 817.771,-312.797"/>
<polygon fill="midnightblue" stroke="midnightblue" points="818.501,-309.373 807.968,-310.509 816.911,-316.19 818.501,-309.373"/>
</g>
<!-- Node15 -->
<g id="node15" class="node"><title>Node15</title>
<g id="a_node15"><a xlink:href="CheckInterface_8h.html" target="_top" xlink:title="QualityControl/CheckInterface.h">
<polygon fill="none" stroke="black" points="616,-179.5 616,-198.5 773,-198.5 773,-179.5 616,-179.5"/>
<text text-anchor="middle" x="694.5" y="-186.5" font-family="Helvetica,sans-Serif" font-size="10.00">QualityControl/CheckInterface.h</text>
</a>
</g>
</g>
<!-- Node9&#45;&gt;Node15 -->
<g id="edge15" class="edge"><title>Node9&#45;&gt;Node15</title>
<path fill="none" stroke="midnightblue" d="M1010.04,-352.995C956.273,-325.223 785.572,-237.045 720.259,-203.306"/>
<polygon fill="midnightblue" stroke="midnightblue" points="721.554,-200.036 711.063,-198.556 718.342,-206.255 721.554,-200.036"/>
</g>
<!-- Node16 -->
<g id="node16" class="node"><title>Node16</title>
<g id="a_node16"><a xlink:href="MonitorObject_8h.html" target="_top" xlink:title="QualityControl/MonitorObject.h">
<polygon fill="none" stroke="black" points="648,-123.5 648,-142.5 799,-142.5 799,-123.5 648,-123.5"/>
<text text-anchor="middle" x="723.5" y="-130.5" font-family="Helvetica,sans-Serif" font-size="10.00">QualityControl/MonitorObject.h</text>
</a>
</g>
</g>
<!-- Node9&#45;&gt;Node16 -->
<g id="edge30" class="edge"><title>Node9&#45;&gt;Node16</title>
<path fill="none" stroke="midnightblue" d="M986.038,-352.998C975.472,-350.906 964.079,-348.762 953.5,-347 835.387,-327.326 793.927,-363.889 686.5,-311 623.06,-279.767 600.705,-264.268 573.5,-199 559.55,-165.531 596.881,-149.279 637.785,-141.396"/>
<polygon fill="midnightblue" stroke="midnightblue" points="638.425,-144.837 647.666,-139.656 637.211,-137.943 638.425,-144.837"/>
</g>
<!-- Node24 -->
<g id="node24" class="node"><title>Node24</title>
<g id="a_node24"><a xlink:href="DatabaseInterface_8h.html" target="_top" xlink:title="QualityControl/DatabaseInterface.h">
<polygon fill="none" stroke="black" points="791.5,-179.5 791.5,-198.5 961.5,-198.5 961.5,-179.5 791.5,-179.5"/>
<text text-anchor="middle" x="876.5" y="-186.5" font-family="Helvetica,sans-Serif" font-size="10.00">QualityControl/DatabaseInterface.h</text>
</a>
</g>
</g>
<!-- Node9&#45;&gt;Node24 -->
<g id="edge26" class="edge"><title>Node9&#45;&gt;Node24</title>
<path fill="none" stroke="midnightblue" d="M1017.18,-352.838C1006.73,-342.993 989.417,-326.302 975.5,-311 942.951,-275.212 907.738,-230.606 889.347,-206.807"/>
<polygon fill="midnightblue" stroke="midnightblue" points="892.033,-204.559 883.162,-198.767 886.485,-208.827 892.033,-204.559"/>
</g>
<!-- Node26 -->
<g id="node26" class="node"><title>Node26</title>
<g id="a_node26"><a xlink:href="QcInfoLogger_8h.html" target="_top" xlink:title="QualityControl/QcInfoLogger.h">
<polygon fill="none" stroke="black" points="1331,-291.5 1331,-310.5 1480,-310.5 1480,-291.5 1331,-291.5"/>
<text text-anchor="middle" x="1405.5" y="-298.5" font-family="Helvetica,sans-Serif" font-size="10.00">QualityControl/QcInfoLogger.h</text>
</a>
</g>
</g>
<!-- Node9&#45;&gt;Node26 -->
<g id="edge31" class="edge"><title>Node9&#45;&gt;Node26</title>
<path fill="none" stroke="midnightblue" d="M1080.8,-352.975C1149.61,-342.172 1268.05,-323.578 1341.28,-312.083"/>
<polygon fill="midnightblue" stroke="midnightblue" points="1341.96,-315.518 1351.3,-310.509 1340.88,-308.602 1341.96,-315.518"/>
</g>
<!-- Node15&#45;&gt;Node16 -->
<g id="edge16" class="edge"><title>Node15&#45;&gt;Node16</title>
<path fill="none" stroke="midnightblue" d="M699.289,-179.083C703.258,-171.691 709.025,-160.953 713.935,-151.811"/>
<polygon fill="midnightblue" stroke="midnightblue" points="717.153,-153.217 718.8,-142.751 710.986,-149.905 717.153,-153.217"/>
</g>
<!-- Node21 -->
<g id="node21" class="node"><title>Node21</title>
<g id="a_node21"><a xlink:href="Quality_8h.html" target="_top" xlink:title="QualityControl/Quality.h">
<polygon fill="none" stroke="black" points="870,-62 870,-81 991,-81 991,-62 870,-62"/>
<text text-anchor="middle" x="930.5" y="-69" font-family="Helvetica,sans-Serif" font-size="10.00">QualityControl/Quality.h</text>
</a>
</g>
</g>
<!-- Node15&#45;&gt;Node21 -->
<g id="edge25" class="edge"><title>Node15&#45;&gt;Node21</title>
<path fill="none" stroke="midnightblue" d="M718.732,-179.482C741.907,-171.072 777.644,-157.412 807.5,-143 843.701,-125.525 883.774,-101.653 908.044,-86.659"/>
<polygon fill="midnightblue" stroke="midnightblue" points="910.186,-89.448 916.827,-81.1928 906.488,-83.5048 910.186,-89.448"/>
</g>
<!-- Node17 -->
<g id="node17" class="node"><title>Node17</title>
<polygon fill="none" stroke="#bfbfbf" points="797.5,-62 797.5,-81 851.5,-81 851.5,-62 797.5,-62"/>
<text text-anchor="middle" x="824.5" y="-69" font-family="Helvetica,sans-Serif" font-size="10.00">iostream</text>
</g>
<!-- Node16&#45;&gt;Node17 -->
<g id="edge17" class="edge"><title>Node16&#45;&gt;Node17</title>
<path fill="none" stroke="midnightblue" d="M737.971,-123.475C754.471,-113.755 781.678,-97.7266 801.181,-86.2372"/>
<polygon fill="midnightblue" stroke="midnightblue" points="803.216,-89.1005 810.056,-81.0091 799.663,-83.0693 803.216,-89.1005"/>
</g>
<!-- Node18 -->
<g id="node18" class="node"><title>Node18</title>
<polygon fill="none" stroke="#bfbfbf" points="706,-62 706,-81 741,-81 741,-62 706,-62"/>
<text text-anchor="middle" x="723.5" y="-69" font-family="Helvetica,sans-Serif" font-size="10.00">map</text>
</g>
<!-- Node16&#45;&gt;Node18 -->
<g id="edge18" class="edge"><title>Node16&#45;&gt;Node18</title>
<path fill="none" stroke="midnightblue" d="M723.5,-123.475C723.5,-115.08 723.5,-101.981 723.5,-91.1631"/>
<polygon fill="midnightblue" stroke="midnightblue" points="727,-91.0091 723.5,-81.0091 720,-91.0091 727,-91.0091"/>
</g>
<!-- Node19 -->
<g id="node19" class="node"><title>Node19</title>
<polygon fill="none" stroke="#bfbfbf" points="784,-0.5 784,-19.5 843,-19.5 843,-0.5 784,-0.5"/>
<text text-anchor="middle" x="813.5" y="-7.5" font-family="Helvetica,sans-Serif" font-size="10.00">TObject.h</text>
</g>
<!-- Node16&#45;&gt;Node19 -->
<g id="edge19" class="edge"><title>Node16&#45;&gt;Node19</title>
<path fill="none" stroke="midnightblue" d="M729.973,-123.298C744.827,-103.327 781.575,-53.9212 801.001,-27.8036"/>
<polygon fill="midnightblue" stroke="midnightblue" points="803.926,-29.7359 807.086,-19.6232 798.31,-25.5581 803.926,-29.7359"/>
</g>
<!-- Node20 -->
<g id="node20" class="node"><title>Node20</title>
<polygon fill="none" stroke="#bfbfbf" points="571.5,-62 571.5,-81 687.5,-81 687.5,-62 571.5,-62"/>
<text text-anchor="middle" x="629.5" y="-69" font-family="Helvetica,sans-Serif" font-size="10.00">Common/Exceptions.h</text>
</g>
<!-- Node16&#45;&gt;Node20 -->
<g id="edge20" class="edge"><title>Node16&#45;&gt;Node20</title>
<path fill="none" stroke="midnightblue" d="M710.032,-123.475C694.815,-113.843 669.813,-98.0175 651.699,-86.5517"/>
<polygon fill="midnightblue" stroke="midnightblue" points="653.264,-83.4002 642.943,-81.0091 649.521,-89.3149 653.264,-83.4002"/>
</g>
<!-- Node16&#45;&gt;Node21 -->
<g id="edge21" class="edge"><title>Node16&#45;&gt;Node21</title>
<path fill="none" stroke="midnightblue" d="M753.158,-123.475C789.434,-113.048 850.964,-95.3618 891.164,-83.8066"/>
<polygon fill="midnightblue" stroke="midnightblue" points="892.253,-87.1355 900.897,-81.0091 890.319,-80.4079 892.253,-87.1355"/>
</g>
<!-- Node21&#45;&gt;Node19 -->
<g id="edge22" class="edge"><title>Node21&#45;&gt;Node19</title>
<path fill="none" stroke="midnightblue" d="M913.737,-61.9751C894.275,-52.078 861.955,-35.6416 839.289,-24.1151"/>
<polygon fill="midnightblue" stroke="midnightblue" points="840.732,-20.9224 830.232,-19.5091 837.559,-27.1619 840.732,-20.9224"/>
</g>
<!-- Node22 -->
<g id="node22" class="node"><title>Node22</title>
<polygon fill="none" stroke="#bfbfbf" points="904.5,-0.5 904.5,-19.5 956.5,-19.5 956.5,-0.5 904.5,-0.5"/>
<text text-anchor="middle" x="930.5" y="-7.5" font-family="Helvetica,sans-Serif" font-size="10.00">ostream</text>
</g>
<!-- Node21&#45;&gt;Node22 -->
<g id="edge23" class="edge"><title>Node21&#45;&gt;Node22</title>
<path fill="none" stroke="midnightblue" d="M930.5,-61.9751C930.5,-53.5803 930.5,-40.4806 930.5,-29.6631"/>
<polygon fill="midnightblue" stroke="midnightblue" points="934,-29.5091 930.5,-19.5091 927,-29.5091 934,-29.5091"/>
</g>
<!-- Node23 -->
<g id="node23" class="node"><title>Node23</title>
<polygon fill="none" stroke="#bfbfbf" points="1501,-0.5 1501,-19.5 1542,-19.5 1542,-0.5 1501,-0.5"/>
<text text-anchor="middle" x="1521.5" y="-7.5" font-family="Helvetica,sans-Serif" font-size="10.00">string</text>
</g>
<!-- Node21&#45;&gt;Node23 -->
<g id="edge24" class="edge"><title>Node21&#45;&gt;Node23</title>
<path fill="none" stroke="midnightblue" d="M991.224,-64.2177C1016.1,-61.6536 1045.18,-58.6692 1071.5,-56 1229.02,-40.025 1417.59,-21.2962 1490.56,-14.0637"/>
<polygon fill="midnightblue" stroke="midnightblue" points="1491.26,-17.5117 1500.87,-13.0426 1490.57,-10.5458 1491.26,-17.5117"/>
</g>
<!-- Node24&#45;&gt;Node6 -->
<g id="edge28" class="edge"><title>Node24&#45;&gt;Node6</title>
<path fill="none" stroke="midnightblue" d="M961.687,-181.838C977.256,-180.813 993.362,-179.818 1008.5,-179 1108.54,-173.592 1814.62,-175.182 1909.5,-143 1942.99,-131.64 1975.22,-105.235 1993.66,-88.1602"/>
<polygon fill="midnightblue" stroke="midnightblue" points="1996.29,-90.49 2001.12,-81.0593 1991.46,-85.4206 1996.29,-90.49"/>
</g>
<!-- Node24&#45;&gt;Node16 -->
<g id="edge27" class="edge"><title>Node24&#45;&gt;Node16</title>
<path fill="none" stroke="midnightblue" d="M852.257,-179.444C826.629,-170.399 786.015,-156.064 757.262,-145.916"/>
<polygon fill="midnightblue" stroke="midnightblue" points="758.225,-142.544 747.63,-142.516 755.895,-149.145 758.225,-142.544"/>
</g>
<!-- Node25 -->
<g id="node25" class="node"><title>Node25</title>
<polygon fill="none" stroke="#bfbfbf" points="856,-123.5 856,-142.5 939,-142.5 939,-123.5 856,-123.5"/>
<text text-anchor="middle" x="897.5" y="-130.5" font-family="Helvetica,sans-Serif" font-size="10.00">unordered_map</text>
</g>
<!-- Node24&#45;&gt;Node25 -->
<g id="edge29" class="edge"><title>Node24&#45;&gt;Node25</title>
<path fill="none" stroke="midnightblue" d="M879.968,-179.083C882.812,-171.77 886.929,-161.181 890.46,-152.103"/>
<polygon fill="midnightblue" stroke="midnightblue" points="893.734,-153.34 894.097,-142.751 887.21,-150.803 893.734,-153.34"/>
</g>
<!-- Node26&#45;&gt;Node17 -->
<g id="edge57" class="edge"><title>Node26&#45;&gt;Node17</title>
<path fill="none" stroke="midnightblue" d="M1451.51,-291.45C1474.65,-284.991 1501.52,-273.876 1519.5,-255 1543.51,-229.786 1562.02,-204.674 1538.5,-179 1507.61,-145.279 1173.74,-149.689 1128.5,-143 1008.12,-125.203 976.947,-122.314 860.5,-87 858.215,-86.3071 855.873,-85.5281 853.533,-84.7002"/>
<polygon fill="midnightblue" stroke="midnightblue" points="854.672,-81.389 844.081,-81.1166 852.19,-87.9344 854.672,-81.389"/>
</g>
<!-- Node27 -->
<g id="node27" class="node"><title>Node27</title>
<g id="a_node27"><a xlink:href="TaskInterface_8h.html" target="_top" xlink:title="TaskInterface.h">
<polygon fill="none" stroke="black" points="1426,-235.5 1426,-254.5 1511,-254.5 1511,-235.5 1426,-235.5"/>
<text text-anchor="middle" x="1468.5" y="-242.5" font-family="Helvetica,sans-Serif" font-size="10.00">TaskInterface.h</text>
</a>
</g>
</g>
<!-- Node26&#45;&gt;Node27 -->
<g id="edge32" class="edge"><title>Node26&#45;&gt;Node27</title>
<path fill="none" stroke="midnightblue" d="M1415.62,-291.324C1425.03,-283.263 1439.24,-271.077 1450.57,-261.369"/>
<polygon fill="midnightblue" stroke="midnightblue" points="1452.88,-263.999 1458.19,-254.834 1448.32,-258.684 1452.88,-263.999"/>
</g>
<!-- Node42 -->
<g id="node42" class="node"><title>Node42</title>
<polygon fill="none" stroke="#bfbfbf" points="1277.5,-235.5 1277.5,-254.5 1407.5,-254.5 1407.5,-235.5 1277.5,-235.5"/>
<text text-anchor="middle" x="1342.5" y="-242.5" font-family="Helvetica,sans-Serif" font-size="10.00">InfoLogger/InfoLogger.hxx</text>
</g>
<!-- Node26&#45;&gt;Node42 -->
<g id="edge56" class="edge"><title>Node26&#45;&gt;Node42</title>
<path fill="none" stroke="midnightblue" d="M1395.38,-291.324C1385.97,-283.263 1371.76,-271.077 1360.43,-261.369"/>
<polygon fill="midnightblue" stroke="midnightblue" points="1362.68,-258.684 1352.81,-254.834 1358.12,-263.999 1362.68,-258.684"/>
</g>
<!-- Node27&#45;&gt;Node6 -->
<g id="edge33" class="edge"><title>Node27&#45;&gt;Node6</title>
<path fill="none" stroke="midnightblue" d="M1511.16,-241.234C1574.16,-236.454 1695.43,-224.592 1795.5,-199 1863.23,-181.678 1884.31,-181.747 1942.5,-143 1964.59,-128.293 1984.81,-105.075 1997.13,-89.3369"/>
<polygon fill="midnightblue" stroke="midnightblue" points="2000.16,-91.1351 2003.42,-81.0563 1994.58,-86.8985 2000.16,-91.1351"/>
</g>
<!-- Node27&#45;&gt;Node12 -->
<g id="edge37" class="edge"><title>Node27&#45;&gt;Node12</title>
<path fill="none" stroke="midnightblue" d="M1489.99,-235.491C1517.14,-223.554 1558.11,-200.843 1538.5,-179 1488.78,-123.613 1270.84,-178.638 1205.5,-143 1185.86,-132.29 1170.46,-111.746 1160.65,-95.5862"/>
<polygon fill="midnightblue" stroke="midnightblue" points="1163.55,-93.6058 1155.52,-86.6856 1157.48,-97.0983 1163.55,-93.6058"/>
</g>
<!-- Node28 -->
<g id="node28" class="node"><title>Node28</title>
<polygon fill="none" stroke="#bfbfbf" points="1018,-179.5 1018,-198.5 1067,-198.5 1067,-179.5 1018,-179.5"/>
<text text-anchor="middle" x="1042.5" y="-186.5" font-family="Helvetica,sans-Serif" font-size="10.00">cassert</text>
</g>
<!-- Node27&#45;&gt;Node28 -->
<g id="edge34" class="edge"><title>Node27&#45;&gt;Node28</title>
<path fill="none" stroke="midnightblue" d="M1425.97,-236.403C1422.77,-235.903 1419.59,-235.429 1416.5,-235 1268.8,-214.445 1227.06,-226.591 1077.29,-199.084"/>
<polygon fill="midnightblue" stroke="midnightblue" points="1077.74,-195.608 1067.27,-197.214 1076.46,-202.489 1077.74,-195.608"/>
</g>
<!-- Node29 -->
<g id="node29" class="node"><title>Node29</title>
<polygon fill="none" stroke="#bfbfbf" points="1085,-179.5 1085,-198.5 1210,-198.5 1210,-179.5 1085,-179.5"/>
<text text-anchor="middle" x="1147.5" y="-186.5" font-family="Helvetica,sans-Serif" font-size="10.00">Framework/InitContext.h</text>
</g>
<!-- Node27&#45;&gt;Node29 -->
<g id="edge35" class="edge"><title>Node27&#45;&gt;Node29</title>
<path fill="none" stroke="midnightblue" d="M1425.94,-236.613C1422.74,-236.065 1419.57,-235.523 1416.5,-235 1345.46,-222.91 1263.81,-209.291 1209.28,-200.233"/>
<polygon fill="midnightblue" stroke="midnightblue" points="1209.52,-196.726 1199.08,-198.541 1208.38,-203.631 1209.52,-196.726"/>
</g>
<!-- Node30 -->
<g id="node30" class="node"><title>Node30</title>
<polygon fill="none" stroke="#bfbfbf" points="1228.5,-179.5 1228.5,-198.5 1388.5,-198.5 1388.5,-179.5 1228.5,-179.5"/>
<text text-anchor="middle" x="1308.5" y="-186.5" font-family="Helvetica,sans-Serif" font-size="10.00">Framework/ProcessingContext.h</text>
</g>
<!-- Node27&#45;&gt;Node30 -->
<g id="edge36" class="edge"><title>Node27&#45;&gt;Node30</title>
<path fill="none" stroke="midnightblue" d="M1443.15,-235.444C1416.23,-226.359 1373.5,-211.939 1343.41,-201.783"/>
<polygon fill="midnightblue" stroke="midnightblue" points="1344.33,-198.398 1333.73,-198.516 1342.09,-205.031 1344.33,-198.398"/>
</g>
<!-- Node31 -->
<g id="node31" class="node"><title>Node31</title>
<g id="a_node31"><a xlink:href="Activity_8h.html" target="_top" xlink:title="QualityControl/Activity.h">
<polygon fill="none" stroke="black" points="1407,-179.5 1407,-198.5 1530,-198.5 1530,-179.5 1407,-179.5"/>
<text text-anchor="middle" x="1468.5" y="-186.5" font-family="Helvetica,sans-Serif" font-size="10.00">QualityControl/Activity.h</text>
</a>
</g>
</g>
<!-- Node27&#45;&gt;Node31 -->
<g id="edge38" class="edge"><title>Node27&#45;&gt;Node31</title>
<path fill="none" stroke="midnightblue" d="M1468.5,-235.083C1468.5,-228.006 1468.5,-217.861 1468.5,-208.986"/>
<polygon fill="midnightblue" stroke="midnightblue" points="1472,-208.751 1468.5,-198.751 1465,-208.751 1472,-208.751"/>
</g>
<!-- Node32 -->
<g id="node32" class="node"><title>Node32</title>
<g id="a_node32"><a xlink:href="ObjectsManager_8h.html" target="_top" xlink:title="QualityControl/ObjectsManager.h">
<polygon fill="none" stroke="black" points="1625,-179.5 1625,-198.5 1786,-198.5 1786,-179.5 1625,-179.5"/>
<text text-anchor="middle" x="1705.5" y="-186.5" font-family="Helvetica,sans-Serif" font-size="10.00">QualityControl/ObjectsManager.h</text>
</a>
</g>
</g>
<!-- Node27&#45;&gt;Node32 -->
<g id="edge39" class="edge"><title>Node27&#45;&gt;Node32</title>
<path fill="none" stroke="midnightblue" d="M1506.05,-235.444C1547.31,-226.043 1613.64,-210.929 1658.37,-200.739"/>
<polygon fill="midnightblue" stroke="midnightblue" points="1659.15,-204.151 1668.12,-198.516 1657.59,-197.326 1659.15,-204.151"/>
</g>
<!-- Node32&#45;&gt;Node16 -->
<g id="edge40" class="edge"><title>Node32&#45;&gt;Node16</title>
<path fill="none" stroke="midnightblue" d="M1624.81,-183.621C1597.41,-182.142 1566.62,-180.489 1538.5,-179 1230.96,-162.713 1153.87,-162.238 846.5,-143 834.563,-142.253 821.979,-141.403 809.599,-140.532"/>
<polygon fill="midnightblue" stroke="midnightblue" points="809.49,-137.015 799.267,-139.796 808.993,-143.997 809.49,-137.015"/>
</g>
<!-- Node32&#45;&gt;Node21 -->
<g id="edge41" class="edge"><title>Node32&#45;&gt;Node21</title>
<path fill="none" stroke="midnightblue" d="M1624.9,-182.336C1504.61,-173.612 1283.88,-156.483 1205.5,-143 1193.95,-141.012 1047.61,-103.023 973.259,-83.6544"/>
<polygon fill="midnightblue" stroke="midnightblue" points="973.826,-80.1854 963.267,-81.0507 972.061,-86.9592 973.826,-80.1854"/>
</g>
<!-- Node32&#45;&gt;Node23 -->
<g id="edge55" class="edge"><title>Node32&#45;&gt;Node23</title>
<path fill="none" stroke="midnightblue" d="M1705.06,-179.466C1703.95,-166.057 1700.07,-139.849 1686.5,-123 1665.54,-96.9751 1648.5,-105.228 1620.5,-87 1590.76,-67.6416 1558.56,-41.9494 1539.21,-25.9489"/>
<polygon fill="midnightblue" stroke="midnightblue" points="1541.44,-23.2498 1531.52,-19.5342 1536.96,-28.6263 1541.44,-23.2498"/>
</g>
<!-- Node33 -->
<g id="node33" class="node"><title>Node33</title>
<g id="a_node33"><a xlink:href="TaskConfig_8h.html" target="_top" xlink:title="QualityControl/TaskConfig.h">
<polygon fill="none" stroke="black" points="1214.5,-123.5 1214.5,-142.5 1354.5,-142.5 1354.5,-123.5 1214.5,-123.5"/>
<text text-anchor="middle" x="1284.5" y="-130.5" font-family="Helvetica,sans-Serif" font-size="10.00">QualityControl/TaskConfig.h</text>
</a>
</g>
</g>
<!-- Node32&#45;&gt;Node33 -->
<g id="edge42" class="edge"><title>Node32&#45;&gt;Node33</title>
<path fill="none" stroke="midnightblue" d="M1638.79,-179.444C1563.19,-169.747 1440.2,-153.971 1360.83,-143.791"/>
<polygon fill="midnightblue" stroke="midnightblue" points="1361.26,-140.317 1350.9,-142.516 1360.37,-147.26 1361.26,-140.317"/>
</g>
<!-- Node34 -->
<g id="node34" class="node"><title>Node34</title>
<g id="a_node34"><a xlink:href="ServiceDiscovery_8h_source.html" target="_top" xlink:title="QualityControl/ServiceDiscovery.h">
<polygon fill="none" stroke="black" points="1733,-123.5 1733,-142.5 1900,-142.5 1900,-123.5 1733,-123.5"/>
<text text-anchor="middle" x="1816.5" y="-130.5" font-family="Helvetica,sans-Serif" font-size="10.00">QualityControl/ServiceDiscovery.h</text>
</a>
</g>
</g>
<!-- Node32&#45;&gt;Node34 -->
<g id="edge45" class="edge"><title>Node32&#45;&gt;Node34</title>
<path fill="none" stroke="midnightblue" d="M1723.33,-179.324C1741.22,-170.625 1768.98,-157.12 1789.55,-147.113"/>
<polygon fill="midnightblue" stroke="midnightblue" points="1791.25,-150.177 1798.71,-142.655 1788.19,-143.882 1791.25,-150.177"/>
</g>
<!-- Node39 -->
<g id="node39" class="node"><title>Node39</title>
<polygon fill="none" stroke="#bfbfbf" points="1373,-123.5 1373,-142.5 1442,-142.5 1442,-123.5 1373,-123.5"/>
<text text-anchor="middle" x="1407.5" y="-130.5" font-family="Helvetica,sans-Serif" font-size="10.00">TObjArray.h</text>
</g>
<!-- Node32&#45;&gt;Node39 -->
<g id="edge52" class="edge"><title>Node32&#45;&gt;Node39</title>
<path fill="none" stroke="midnightblue" d="M1654.13,-179.426C1604.78,-171.079 1527.87,-157.781 1452.37,-143.319"/>
<polygon fill="midnightblue" stroke="midnightblue" points="1452.7,-139.817 1442.21,-141.364 1451.37,-146.691 1452.7,-139.817"/>
</g>
<!-- Node40 -->
<g id="node40" class="node"><title>Node40</title>
<polygon fill="none" stroke="#bfbfbf" points="1460,-123.5 1460,-142.5 1531,-142.5 1531,-123.5 1460,-123.5"/>
<text text-anchor="middle" x="1495.5" y="-130.5" font-family="Helvetica,sans-Serif" font-size="10.00">TObjString.h</text>
</g>
<!-- Node32&#45;&gt;Node40 -->
<g id="edge53" class="edge"><title>Node32&#45;&gt;Node40</title>
<path fill="none" stroke="midnightblue" d="M1672.22,-179.444C1636.05,-170.142 1578.12,-155.246 1538.52,-145.062"/>
<polygon fill="midnightblue" stroke="midnightblue" points="1539.18,-141.617 1528.62,-142.516 1537.43,-148.397 1539.18,-141.617"/>
</g>
<!-- Node41 -->
<g id="node41" class="node"><title>Node41</title>
<polygon fill="none" stroke="#bfbfbf" points="1549.5,-123.5 1549.5,-142.5 1677.5,-142.5 1677.5,-123.5 1549.5,-123.5"/>
<text text-anchor="middle" x="1613.5" y="-130.5" font-family="Helvetica,sans-Serif" font-size="10.00">boost/concept_check.hpp</text>
</g>
<!-- Node32&#45;&gt;Node41 -->
<g id="edge54" class="edge"><title>Node32&#45;&gt;Node41</title>
<path fill="none" stroke="midnightblue" d="M1690.72,-179.324C1676.23,-170.822 1653.93,-157.729 1637.01,-147.797"/>
<polygon fill="midnightblue" stroke="midnightblue" points="1638.64,-144.698 1628.24,-142.655 1635.1,-150.735 1638.64,-144.698"/>
</g>
<!-- Node33&#45;&gt;Node12 -->
<g id="edge44" class="edge"><title>Node33&#45;&gt;Node12</title>
<path fill="none" stroke="midnightblue" d="M1265.01,-123.475C1245.48,-114.927 1214.79,-101.501 1189.81,-90.5734"/>
<polygon fill="midnightblue" stroke="midnightblue" points="1191.12,-87.3247 1180.55,-86.523 1188.31,-93.7378 1191.12,-87.3247"/>
</g>
<!-- Node33&#45;&gt;Node23 -->
<g id="edge43" class="edge"><title>Node33&#45;&gt;Node23</title>
<path fill="none" stroke="midnightblue" d="M1301.17,-123.492C1341.86,-102.714 1446.55,-49.2651 1495.52,-24.2639"/>
<polygon fill="midnightblue" stroke="midnightblue" points="1497.22,-27.3255 1504.54,-19.661 1494.04,-21.091 1497.22,-27.3255"/>
</g>
<!-- Node34&#45;&gt;Node6 -->
<g id="edge48" class="edge"><title>Node34&#45;&gt;Node6</title>
<path fill="none" stroke="midnightblue" d="M1847.74,-123.423C1878.78,-114.756 1927.67,-100.719 1969.5,-87 1972.04,-86.1656 1974.67,-85.2767 1977.3,-84.3656"/>
<polygon fill="midnightblue" stroke="midnightblue" points="1978.48,-87.6618 1986.74,-81.0257 1976.14,-81.063 1978.48,-87.6618"/>
</g>
<!-- Node34&#45;&gt;Node23 -->
<g id="edge49" class="edge"><title>Node34&#45;&gt;Node23</title>
<path fill="none" stroke="midnightblue" d="M1878.92,-123.452C1900.83,-117.118 1923.26,-106.111 1936.5,-87 1944.35,-75.6757 1945.7,-66.254 1936.5,-56 1910.89,-27.4649 1644.03,-15.3562 1552.28,-12.0155"/>
<polygon fill="midnightblue" stroke="midnightblue" points="1552.35,-8.51587 1542.23,-11.6595 1552.1,-15.5115 1552.35,-8.51587"/>
</g>
<!-- Node35 -->
<g id="node35" class="node"><title>Node35</title>
<polygon fill="none" stroke="#bfbfbf" points="1881.5,-62 1881.5,-81 1927.5,-81 1927.5,-62 1881.5,-62"/>
<text text-anchor="middle" x="1904.5" y="-69" font-family="Helvetica,sans-Serif" font-size="10.00">atomic</text>
</g>
<!-- Node34&#45;&gt;Node35 -->
<g id="edge46" class="edge"><title>Node34&#45;&gt;Node35</title>
<path fill="none" stroke="midnightblue" d="M1829.11,-123.475C1843.22,-113.931 1866.33,-98.3073 1883.25,-86.8683"/>
<polygon fill="midnightblue" stroke="midnightblue" points="1885.59,-89.5098 1891.92,-81.0091 1881.67,-83.7109 1885.59,-89.5098"/>
</g>
<!-- Node36 -->
<g id="node36" class="node"><title>Node36</title>
<polygon fill="none" stroke="#bfbfbf" points="1630,-62 1630,-81 1689,-81 1689,-62 1630,-62"/>
<text text-anchor="middle" x="1659.5" y="-69" font-family="Helvetica,sans-Serif" font-size="10.00">curl/curl.h</text>
</g>
<!-- Node34&#45;&gt;Node36 -->
<g id="edge47" class="edge"><title>Node34&#45;&gt;Node36</title>
<path fill="none" stroke="midnightblue" d="M1794.01,-123.475C1767.19,-113.313 1722.18,-96.2564 1691.69,-84.6996"/>
<polygon fill="midnightblue" stroke="midnightblue" points="1692.54,-81.2801 1681.95,-81.0091 1690.06,-87.8258 1692.54,-81.2801"/>
</g>
<!-- Node37 -->
<g id="node37" class="node"><title>Node37</title>
<polygon fill="none" stroke="#bfbfbf" points="1707.5,-62 1707.5,-81 1751.5,-81 1751.5,-62 1707.5,-62"/>
<text text-anchor="middle" x="1729.5" y="-69" font-family="Helvetica,sans-Serif" font-size="10.00">thread</text>
</g>
<!-- Node34&#45;&gt;Node37 -->
<g id="edge50" class="edge"><title>Node34&#45;&gt;Node37</title>
<path fill="none" stroke="midnightblue" d="M1804.04,-123.475C1790.08,-113.931 1767.24,-98.3073 1750.51,-86.8683"/>
<polygon fill="midnightblue" stroke="midnightblue" points="1752.17,-83.7653 1741.94,-81.0091 1748.22,-89.5433 1752.17,-83.7653"/>
</g>
<!-- Node38 -->
<g id="node38" class="node"><title>Node38</title>
<polygon fill="none" stroke="#bfbfbf" points="1769.5,-56.5 1769.5,-86.5 1863.5,-86.5 1863.5,-56.5 1769.5,-56.5"/>
<text text-anchor="start" x="1777.5" y="-74.5" font-family="Helvetica,sans-Serif" font-size="10.00">boost/asio/ip/host</text>
<text text-anchor="middle" x="1816.5" y="-63.5" font-family="Helvetica,sans-Serif" font-size="10.00">_name.hpp</text>
</g>
<!-- Node34&#45;&gt;Node38 -->
<g id="edge51" class="edge"><title>Node34&#45;&gt;Node38</title>
<path fill="none" stroke="midnightblue" d="M1816.5,-123.475C1816.5,-116.471 1816.5,-106.192 1816.5,-96.6956"/>
<polygon fill="midnightblue" stroke="midnightblue" points="1820,-96.5229 1816.5,-86.523 1813,-96.523 1820,-96.5229"/>
</g>
<!-- Node44 -->
<g id="node44" class="node"><title>Node44</title>
<polygon fill="none" stroke="#bfbfbf" points="357.5,-291.5 357.5,-310.5 521.5,-310.5 521.5,-291.5 357.5,-291.5"/>
<text text-anchor="middle" x="439.5" y="-298.5" font-family="Helvetica,sans-Serif" font-size="10.00">Framework/DataProcessorSpec.h</text>
</g>
<!-- Node43&#45;&gt;Node44 -->
<g id="edge59" class="edge"><title>Node43&#45;&gt;Node44</title>
<path fill="none" stroke="midnightblue" d="M813.708,-352.97C801.225,-350.944 787.888,-348.838 775.5,-347 687.317,-333.914 585.854,-320.559 517.7,-311.835"/>
<polygon fill="midnightblue" stroke="midnightblue" points="517.836,-308.324 507.473,-310.529 516.949,-315.268 517.836,-308.324"/>
</g>
<!-- Node45&#45;&gt;Node6 -->
<g id="edge61" class="edge"><title>Node45&#45;&gt;Node6</title>
<path fill="none" stroke="midnightblue" d="M2007.6,-352.853C2018.17,-334.081 2041.5,-287.905 2041.5,-246 2041.5,-246 2041.5,-246 2041.5,-188 2041.5,-152.434 2027.23,-112.871 2017.75,-90.5039"/>
<polygon fill="midnightblue" stroke="midnightblue" points="2020.91,-88.9991 2013.68,-81.2553 2014.51,-91.8181 2020.91,-88.9991"/>
</g>
<!-- Node45&#45;&gt;Node11 -->
<g id="edge63" class="edge"><title>Node45&#45;&gt;Node11</title>
<path fill="none" stroke="midnightblue" d="M1980.87,-352.975C1955.08,-342.813 1911.79,-325.756 1882.46,-314.2"/>
<polygon fill="midnightblue" stroke="midnightblue" points="1883.68,-310.919 1873.09,-310.509 1881.12,-317.432 1883.68,-310.919"/>
</g>
<!-- Node45&#45;&gt;Node13 -->
<g id="edge64" class="edge"><title>Node45&#45;&gt;Node13</title>
<path fill="none" stroke="midnightblue" d="M1997.06,-352.975C1991.41,-344.138 1982.44,-330.089 1975.34,-318.975"/>
<polygon fill="midnightblue" stroke="midnightblue" points="1978.27,-317.053 1969.93,-310.509 1972.37,-320.821 1978.27,-317.053"/>
</g>
<!-- Node45&#45;&gt;Node16 -->
<g id="edge67" class="edge"><title>Node45&#45;&gt;Node16</title>
<path fill="none" stroke="midnightblue" d="M1930.75,-358.103C1806.4,-351.786 1542.92,-336.509 1321.5,-311 1241.62,-301.797 658.776,-260.102 606.5,-199 584.102,-172.82 626.899,-155.161 666.884,-144.935"/>
<polygon fill="midnightblue" stroke="midnightblue" points="667.788,-148.318 676.679,-142.557 666.136,-141.515 667.788,-148.318"/>
</g>
<!-- Node46 -->
<g id="node46" class="node"><title>Node46</title>
<polygon fill="none" stroke="#bfbfbf" points="2267.5,-291.5 2267.5,-310.5 2311.5,-310.5 2311.5,-291.5 2267.5,-291.5"/>
<text text-anchor="middle" x="2289.5" y="-298.5" font-family="Helvetica,sans-Serif" font-size="10.00">vector</text>
</g>
<!-- Node45&#45;&gt;Node46 -->
<g id="edge62" class="edge"><title>Node45&#45;&gt;Node46</title>
<path fill="none" stroke="midnightblue" d="M2052.82,-352.921C2102.52,-344.146 2180.88,-329.505 2257.41,-311.106"/>
<polygon fill="midnightblue" stroke="midnightblue" points="2258.32,-314.485 2267.21,-308.724 2256.67,-307.683 2258.32,-314.485"/>
</g>
<!-- Node47 -->
<g id="node47" class="node"><title>Node47</title>
<polygon fill="none" stroke="#bfbfbf" points="2070,-291.5 2070,-310.5 2187,-310.5 2187,-291.5 2070,-291.5"/>
<text text-anchor="middle" x="2128.5" y="-298.5" font-family="Helvetica,sans-Serif" font-size="10.00">Headers/DataHeader.h</text>
</g>
<!-- Node45&#45;&gt;Node47 -->
<g id="edge65" class="edge"><title>Node45&#45;&gt;Node47</title>
<path fill="none" stroke="midnightblue" d="M2020.55,-352.975C2041.7,-342.99 2076.94,-326.348 2101.38,-314.807"/>
<polygon fill="midnightblue" stroke="midnightblue" points="2102.93,-317.944 2110.48,-310.509 2099.94,-311.614 2102.93,-317.944"/>
</g>
<!-- Node48 -->
<g id="node48" class="node"><title>Node48</title>
<polygon fill="none" stroke="#bfbfbf" points="2205.5,-291.5 2205.5,-310.5 2249.5,-310.5 2249.5,-291.5 2205.5,-291.5"/>
<text text-anchor="middle" x="2227.5" y="-298.5" font-family="Helvetica,sans-Serif" font-size="10.00">TH1.h</text>
</g>
<!-- Node45&#45;&gt;Node48 -->
<g id="edge66" class="edge"><title>Node45&#45;&gt;Node48</title>
<path fill="none" stroke="midnightblue" d="M2036.57,-352.938C2073.4,-343.614 2134.07,-328.06 2195.34,-311.268"/>
<polygon fill="midnightblue" stroke="midnightblue" points="2196.46,-314.59 2205.17,-308.564 2194.6,-307.841 2196.46,-314.59"/>
</g>
<!-- Node49&#45;&gt;Node3 -->
<g id="edge69" class="edge"><title>Node49&#45;&gt;Node3</title>
<path fill="none" stroke="midnightblue" d="M392.213,-347.475C345.791,-336.851 282.963,-322.473 240.478,-312.751"/>
<polygon fill="midnightblue" stroke="midnightblue" points="241.199,-309.325 230.671,-310.506 239.638,-316.149 241.199,-309.325"/>
</g>
<!-- Node49&#45;&gt;Node44 -->
<g id="edge70" class="edge"><title>Node49&#45;&gt;Node44</title>
<path fill="none" stroke="midnightblue" d="M450.182,-347.399C448.295,-339.377 445.908,-329.233 443.869,-320.569"/>
<polygon fill="midnightblue" stroke="midnightblue" points="447.235,-319.59 441.537,-310.658 440.421,-321.194 447.235,-319.59"/>
</g>
</g>
</svg>
