<?xml version="1.0" encoding="UTF-8" standalone="no"?>
<!DOCTYPE svg PUBLIC "-//W3C//DTD SVG 1.1//EN"
 "http://www.w3.org/Graphics/SVG/1.1/DTD/svg11.dtd">
<!-- Generated by graphviz version 2.38.0 (20140413.2041)
 -->
<!-- Title: Framework/src/runReadout.cxx Pages: 1 -->
<svg width="2557pt" height="453pt"
 viewBox="0.00 0.00 2556.50 453.00" xmlns="http://www.w3.org/2000/svg" xmlns:xlink="http://www.w3.org/1999/xlink">
<g id="graph0" class="graph" transform="scale(1 1) rotate(0) translate(4 449)">
<title>Framework/src/runReadout.cxx</title>
<!-- Node1 -->
<g id="node1" class="node"><title>Node1</title>
<polygon fill="#bfbfbf" stroke="black" points="1734,-425.5 1734,-444.5 1888,-444.5 1888,-425.5 1734,-425.5"/>
<text text-anchor="middle" x="1811" y="-432.5" font-family="Helvetica,sans-Serif" font-size="10.00">Framework/src/runReadout.cxx</text>
</g>
<!-- Node2 -->
<g id="node2" class="node"><title>Node2</title>
<polygon fill="none" stroke="#bfbfbf" points="0,-364 0,-383 138,-383 138,-364 0,-364"/>
<text text-anchor="middle" x="69" y="-371" font-family="Helvetica,sans-Serif" font-size="10.00">Framework/DataSampling.h</text>
</g>
<!-- Node1&#45;&gt;Node2 -->
<g id="edge1" class="edge"><title>Node1&#45;&gt;Node2</title>
<path fill="none" stroke="midnightblue" d="M1733.82,-433.401C1450.06,-430.968 464.846,-420.401 152,-389 141.957,-387.992 131.298,-386.474 121.085,-384.794"/>
<polygon fill="midnightblue" stroke="midnightblue" points="121.508,-381.316 111.06,-383.073 120.324,-388.215 121.508,-381.316"/>
</g>
<!-- Node3 -->
<g id="node3" class="node"><title>Node3</title>
<g id="a_node3"><a xlink:href="InfrastructureGenerator_8h.html" target="_top" xlink:title="QualityControl/Infrastructure\lGenerator.h">
<polygon fill="none" stroke="black" points="1572,-358.5 1572,-388.5 1712,-388.5 1712,-358.5 1572,-358.5"/>
<text text-anchor="start" x="1580" y="-376.5" font-family="Helvetica,sans-Serif" font-size="10.00">QualityControl/Infrastructure</text>
<text text-anchor="middle" x="1642" y="-365.5" font-family="Helvetica,sans-Serif" font-size="10.00">Generator.h</text>
</a>
</g>
</g>
<!-- Node1&#45;&gt;Node3 -->
<g id="edge2" class="edge"><title>Node1&#45;&gt;Node3</title>
<path fill="none" stroke="midnightblue" d="M1786.79,-425.475C1761.97,-416.739 1722.69,-402.907 1691.29,-391.855"/>
<polygon fill="midnightblue" stroke="midnightblue" points="1692.42,-388.543 1681.83,-388.523 1690.1,-395.145 1692.42,-388.543"/>
</g>
<!-- Node4 -->
<g id="node4" class="node"><title>Node4</title>
<polygon fill="none" stroke="#bfbfbf" points="1334.5,-0.5 1334.5,-19.5 1375.5,-19.5 1375.5,-0.5 1334.5,-0.5"/>
<text text-anchor="middle" x="1355" y="-7.5" font-family="Helvetica,sans-Serif" font-size="10.00">string</text>
</g>
<!-- Node1&#45;&gt;Node4 -->
<g id="edge63" class="edge"><title>Node1&#45;&gt;Node4</title>
<path fill="none" stroke="midnightblue" d="M1809.26,-425.419C1807.53,-416.399 1804.99,-401.77 1804,-389 1802.94,-375.263 1802.43,-371.688 1804,-358 1809.82,-307.231 1830,-297.101 1830,-246 1830,-246 1830,-246 1830,-132 1830,-76.5298 1782.37,-76.9308 1731,-56 1668.49,-30.5301 1464.35,-16.9673 1386,-12.5969"/>
<polygon fill="midnightblue" stroke="midnightblue" points="1385.98,-9.09088 1375.81,-12.0409 1385.6,-16.0805 1385.98,-9.09088"/>
</g>
<!-- Node7 -->
<g id="node7" class="node"><title>Node7</title>
<polygon fill="none" stroke="#bfbfbf" points="1813,-364 1813,-383 1863,-383 1863,-364 1813,-364"/>
<text text-anchor="middle" x="1838" y="-371" font-family="Helvetica,sans-Serif" font-size="10.00">TH1F.h</text>
</g>
<!-- Node1&#45;&gt;Node7 -->
<g id="edge6" class="edge"><title>Node1&#45;&gt;Node7</title>
<path fill="none" stroke="midnightblue" d="M1814.87,-425.475C1818.8,-416.815 1825,-403.149 1829.99,-392.145"/>
<polygon fill="midnightblue" stroke="midnightblue" points="1833.19,-393.562 1834.14,-383.009 1826.82,-390.669 1833.19,-393.562"/>
</g>
<!-- Node8 -->
<g id="node8" class="node"><title>Node8</title>
<polygon fill="none" stroke="#bfbfbf" points="1880.5,-358.5 1880.5,-388.5 2047.5,-388.5 2047.5,-358.5 1880.5,-358.5"/>
<text text-anchor="start" x="1888.5" y="-376.5" font-family="Helvetica,sans-Serif" font-size="10.00">Framework/DataSamplingReadout</text>
<text text-anchor="middle" x="1964" y="-365.5" font-family="Helvetica,sans-Serif" font-size="10.00">Adapter.h</text>
</g>
<!-- Node1&#45;&gt;Node8 -->
<g id="edge7" class="edge"><title>Node1&#45;&gt;Node8</title>
<path fill="none" stroke="midnightblue" d="M1832.92,-425.475C1855.1,-416.852 1890.04,-403.264 1918.27,-392.285"/>
<polygon fill="midnightblue" stroke="midnightblue" points="1919.89,-395.41 1927.94,-388.523 1917.35,-388.885 1919.89,-395.41"/>
</g>
<!-- Node9 -->
<g id="node9" class="node"><title>Node9</title>
<polygon fill="none" stroke="#bfbfbf" points="2066,-364 2066,-383 2226,-383 2226,-364 2066,-364"/>
<text text-anchor="middle" x="2146" y="-371" font-family="Helvetica,sans-Serif" font-size="10.00">Framework/runDataProcessing.h</text>
</g>
<!-- Node1&#45;&gt;Node9 -->
<g id="edge8" class="edge"><title>Node1&#45;&gt;Node9</title>
<path fill="none" stroke="midnightblue" d="M1859,-425.475C1919.45,-414.739 2023.23,-396.306 2088.04,-384.795"/>
<polygon fill="midnightblue" stroke="midnightblue" points="2088.86,-388.204 2098.09,-383.009 2087.63,-381.312 2088.86,-388.204"/>
</g>
<!-- Node10 -->
<g id="node10" class="node"><title>Node10</title>
<g id="a_node10"><a xlink:href="Checker_8h.html" target="_top" xlink:title="QualityControl/Checker.h">
<polygon fill="none" stroke="black" points="572.5,-364 572.5,-383 699.5,-383 699.5,-364 572.5,-364"/>
<text text-anchor="middle" x="636" y="-371" font-family="Helvetica,sans-Serif" font-size="10.00">QualityControl/Checker.h</text>
</a>
</g>
</g>
<!-- Node1&#45;&gt;Node10 -->
<g id="edge9" class="edge"><title>Node1&#45;&gt;Node10</title>
<path fill="none" stroke="midnightblue" d="M1733.9,-430.096C1519.79,-419.253 919.818,-388.872 709.763,-378.235"/>
<polygon fill="midnightblue" stroke="midnightblue" points="709.924,-374.739 699.759,-377.729 709.569,-381.73 709.924,-374.739"/>
</g>
<!-- Node19 -->
<g id="node19" class="node"><title>Node19</title>
<polygon fill="none" stroke="#bfbfbf" points="273,-62 273,-81 327,-81 327,-62 273,-62"/>
<text text-anchor="middle" x="300" y="-69" font-family="Helvetica,sans-Serif" font-size="10.00">iostream</text>
</g>
<!-- Node1&#45;&gt;Node19 -->
<g id="edge62" class="edge"><title>Node1&#45;&gt;Node19</title>
<path fill="none" stroke="midnightblue" d="M1733.73,-432.723C1498.22,-428.591 791.548,-414.364 563,-389 383.975,-369.132 166,-487.624 166,-307.5 166,-307.5 166,-307.5 166,-188 166,-135.509 225.724,-101.626 265.428,-84.9011"/>
<polygon fill="midnightblue" stroke="midnightblue" points="266.837,-88.1067 274.796,-81.1131 264.213,-81.6171 266.837,-88.1067"/>
</g>
<!-- Node44 -->
<g id="node44" class="node"><title>Node44</title>
<g id="a_node44"><a xlink:href="runnerUtils_8h.html" target="_top" xlink:title="QualityControl/runnerUtils.h">
<polygon fill="none" stroke="black" points="2244.5,-364 2244.5,-383 2381.5,-383 2381.5,-364 2244.5,-364"/>
<text text-anchor="middle" x="2313" y="-371" font-family="Helvetica,sans-Serif" font-size="10.00">QualityControl/runnerUtils.h</text>
</a>
</g>
</g>
<!-- Node1&#45;&gt;Node44 -->
<g id="edge59" class="edge"><title>Node1&#45;&gt;Node44</title>
<path fill="none" stroke="midnightblue" d="M1888.21,-427.63C1973.36,-420.18 2114.32,-406.594 2235,-389 2243.33,-387.786 2252.12,-386.326 2260.69,-384.806"/>
<polygon fill="midnightblue" stroke="midnightblue" points="2261.38,-388.237 2270.59,-383.005 2260.13,-381.35 2261.38,-388.237"/>
</g>
<!-- Node46 -->
<g id="node46" class="node"><title>Node46</title>
<g id="a_node46"><a xlink:href="ExamplePrinterSpec_8h.html" target="_top" xlink:title="QualityControl/ExamplePrinter\lSpec.h">
<polygon fill="none" stroke="black" points="2399.5,-358.5 2399.5,-388.5 2548.5,-388.5 2548.5,-358.5 2399.5,-358.5"/>
<text text-anchor="start" x="2407.5" y="-376.5" font-family="Helvetica,sans-Serif" font-size="10.00">QualityControl/ExamplePrinter</text>
<text text-anchor="middle" x="2474" y="-365.5" font-family="Helvetica,sans-Serif" font-size="10.00">Spec.h</text>
</a>
</g>
</g>
<!-- Node1&#45;&gt;Node46 -->
<g id="edge61" class="edge"><title>Node1&#45;&gt;Node46</title>
<path fill="none" stroke="midnightblue" d="M1888.17,-430.362C1997.57,-424.682 2204.2,-412.029 2389.47,-389.12"/>
<polygon fill="midnightblue" stroke="midnightblue" points="2389.9,-392.593 2399.39,-387.88 2389.04,-385.647 2389.9,-392.593"/>
</g>
<!-- Node3&#45;&gt;Node4 -->
<g id="edge3" class="edge"><title>Node3&#45;&gt;Node4</title>
<path fill="none" stroke="midnightblue" d="M1571.93,-363.696C1518.85,-353.608 1458.57,-332.74 1481,-291 1516.07,-225.741 1565.39,-249.063 1620,-199 1675.18,-148.413 1758.48,-112.172 1709,-56 1687.74,-31.8642 1468.01,-17.2734 1385.81,-12.625"/>
<polygon fill="midnightblue" stroke="midnightblue" points="1385.78,-9.11798 1375.6,-12.059 1385.39,-16.1072 1385.78,-9.11798"/>
</g>
<!-- Node5 -->
<g id="node5" class="node"><title>Node5</title>
<polygon fill="none" stroke="#bfbfbf" points="1490,-297 1490,-316 1630,-316 1630,-297 1490,-297"/>
<text text-anchor="middle" x="1560" y="-304" font-family="Helvetica,sans-Serif" font-size="10.00">Framework/WorkflowSpec.h</text>
</g>
<!-- Node3&#45;&gt;Node5 -->
<g id="edge4" class="edge"><title>Node3&#45;&gt;Node5</title>
<path fill="none" stroke="midnightblue" d="M1624.21,-358.396C1610.92,-347.86 1592.77,-333.477 1579.16,-322.689"/>
<polygon fill="midnightblue" stroke="midnightblue" points="1580.98,-319.664 1570.97,-316.195 1576.63,-325.149 1580.98,-319.664"/>
</g>
<!-- Node6 -->
<g id="node6" class="node"><title>Node6</title>
<polygon fill="none" stroke="#bfbfbf" points="1648.5,-297 1648.5,-316 1801.5,-316 1801.5,-297 1648.5,-297"/>
<text text-anchor="middle" x="1725" y="-304" font-family="Helvetica,sans-Serif" font-size="10.00">Framework/CompletionPolicy.h</text>
</g>
<!-- Node3&#45;&gt;Node6 -->
<g id="edge5" class="edge"><title>Node3&#45;&gt;Node6</title>
<path fill="none" stroke="midnightblue" d="M1660.01,-358.396C1673.59,-347.759 1692.18,-333.203 1706,-322.381"/>
<polygon fill="midnightblue" stroke="midnightblue" points="1708.18,-325.116 1713.9,-316.195 1703.87,-319.605 1708.18,-325.116"/>
</g>
<!-- Node11 -->
<g id="node11" class="node"><title>Node11</title>
<polygon fill="none" stroke="#bfbfbf" points="232,-297 232,-316 278,-316 278,-297 232,-297"/>
<text text-anchor="middle" x="255" y="-304" font-family="Helvetica,sans-Serif" font-size="10.00">chrono</text>
</g>
<!-- Node10&#45;&gt;Node11 -->
<g id="edge10" class="edge"><title>Node10&#45;&gt;Node11</title>
<path fill="none" stroke="midnightblue" d="M572.45,-368.694C501.618,-363.218 384.246,-350.446 287,-322 285.068,-321.435 283.103,-320.775 281.144,-320.053"/>
<polygon fill="midnightblue" stroke="midnightblue" points="282.178,-316.692 271.6,-316.091 279.494,-323.158 282.178,-316.692"/>
</g>
<!-- Node12 -->
<g id="node12" class="node"><title>Node12</title>
<polygon fill="none" stroke="#bfbfbf" points="752,-62 752,-81 804,-81 804,-62 752,-62"/>
<text text-anchor="middle" x="778" y="-69" font-family="Helvetica,sans-Serif" font-size="10.00">memory</text>
</g>
<!-- Node10&#45;&gt;Node12 -->
<g id="edge11" class="edge"><title>Node10&#45;&gt;Node12</title>
<path fill="none" stroke="midnightblue" d="M670.855,-363.925C693.263,-356.565 721.068,-343.622 737,-322 789.699,-250.478 784.699,-136.108 780.293,-91.3371"/>
<polygon fill="midnightblue" stroke="midnightblue" points="783.762,-90.8614 779.194,-81.3017 776.803,-91.6233 783.762,-90.8614"/>
</g>
<!-- Node13 -->
<g id="node13" class="node"><title>Node13</title>
<polygon fill="none" stroke="#bfbfbf" points="296,-297 296,-316 388,-316 388,-297 296,-297"/>
<text text-anchor="middle" x="342" y="-304" font-family="Helvetica,sans-Serif" font-size="10.00">Common/Timer.h</text>
</g>
<!-- Node10&#45;&gt;Node13 -->
<g id="edge12" class="edge"><title>Node10&#45;&gt;Node13</title>
<path fill="none" stroke="midnightblue" d="M594.93,-363.955C548.151,-354.149 469.456,-337.427 402,-322 396.971,-320.85 391.711,-319.619 386.486,-318.38"/>
<polygon fill="midnightblue" stroke="midnightblue" points="387.089,-314.925 376.549,-316.003 385.461,-321.733 387.089,-314.925"/>
</g>
<!-- Node14 -->
<g id="node14" class="node"><title>Node14</title>
<polygon fill="none" stroke="#bfbfbf" points="824.5,-56.5 824.5,-86.5 959.5,-86.5 959.5,-56.5 824.5,-56.5"/>
<text text-anchor="start" x="832.5" y="-74.5" font-family="Helvetica,sans-Serif" font-size="10.00">Configuration/Configuration</text>
<text text-anchor="middle" x="892" y="-63.5" font-family="Helvetica,sans-Serif" font-size="10.00">Interface.h</text>
</g>
<!-- Node10&#45;&gt;Node14 -->
<g id="edge13" class="edge"><title>Node10&#45;&gt;Node14</title>
<path fill="none" stroke="midnightblue" d="M673.734,-363.971C726.516,-349.553 816,-314.943 816,-246 816,-246 816,-246 816,-188 816,-149.994 845.072,-114.819 867.254,-93.5112"/>
<polygon fill="midnightblue" stroke="midnightblue" points="869.792,-95.9316 874.754,-86.5707 865.038,-90.7939 869.792,-95.9316"/>
</g>
<!-- Node15 -->
<g id="node15" class="node"><title>Node15</title>
<polygon fill="none" stroke="#bfbfbf" points="444,-297 444,-316 542,-316 542,-297 444,-297"/>
<text text-anchor="middle" x="493" y="-304" font-family="Helvetica,sans-Serif" font-size="10.00">Framework/Task.h</text>
</g>
<!-- Node10&#45;&gt;Node15 -->
<g id="edge14" class="edge"><title>Node10&#45;&gt;Node15</title>
<path fill="none" stroke="midnightblue" d="M617.011,-363.869C592.545,-352.748 549.797,-333.317 521.443,-320.429"/>
<polygon fill="midnightblue" stroke="midnightblue" points="522.62,-317.119 512.068,-316.167 519.723,-323.492 522.62,-317.119"/>
</g>
<!-- Node16 -->
<g id="node16" class="node"><title>Node16</title>
<polygon fill="none" stroke="#bfbfbf" points="560.5,-297 560.5,-316 711.5,-316 711.5,-297 560.5,-297"/>
<text text-anchor="middle" x="636" y="-304" font-family="Helvetica,sans-Serif" font-size="10.00">Monitoring/MonitoringFactory.h</text>
</g>
<!-- Node10&#45;&gt;Node16 -->
<g id="edge15" class="edge"><title>Node10&#45;&gt;Node16</title>
<path fill="none" stroke="midnightblue" d="M636,-363.734C636,-354.183 636,-338.618 636,-326.283"/>
<polygon fill="midnightblue" stroke="midnightblue" points="639.5,-326.127 636,-316.127 632.5,-326.127 639.5,-326.127"/>
</g>
<!-- Node17 -->
<g id="node17" class="node"><title>Node17</title>
<g id="a_node17"><a xlink:href="CheckInterface_8h.html" target="_top" xlink:title="QualityControl/CheckInterface.h">
<polygon fill="none" stroke="black" points="366.5,-179.5 366.5,-198.5 523.5,-198.5 523.5,-179.5 366.5,-179.5"/>
<text text-anchor="middle" x="445" y="-186.5" font-family="Helvetica,sans-Serif" font-size="10.00">QualityControl/CheckInterface.h</text>
</a>
</g>
</g>
<!-- Node10&#45;&gt;Node17 -->
<g id="edge16" class="edge"><title>Node10&#45;&gt;Node17</title>
<path fill="none" stroke="midnightblue" d="M572.275,-365.02C519.969,-357.414 451.871,-343.634 435,-322 409.059,-288.735 425.458,-235.313 436.818,-207.74"/>
<polygon fill="midnightblue" stroke="midnightblue" points="440.043,-209.099 440.826,-198.534 433.625,-206.305 440.043,-209.099"/>
</g>
<!-- Node18 -->
<g id="node18" class="node"><title>Node18</title>
<g id="a_node18"><a xlink:href="MonitorObject_8h.html" target="_top" xlink:title="QualityControl/MonitorObject.h">
<polygon fill="none" stroke="black" points="369.5,-123.5 369.5,-142.5 520.5,-142.5 520.5,-123.5 369.5,-123.5"/>
<text text-anchor="middle" x="445" y="-130.5" font-family="Helvetica,sans-Serif" font-size="10.00">QualityControl/MonitorObject.h</text>
</a>
</g>
</g>
<!-- Node10&#45;&gt;Node18 -->
<g id="edge31" class="edge"><title>Node10&#45;&gt;Node18</title>
<path fill="none" stroke="midnightblue" d="M572.336,-369.284C462.224,-363.065 245.742,-347.692 223,-322 155.746,-246.022 330.783,-173.509 409.236,-145.817"/>
<polygon fill="midnightblue" stroke="midnightblue" points="410.448,-149.101 418.746,-142.513 408.151,-142.489 410.448,-149.101"/>
</g>
<!-- Node25 -->
<g id="node25" class="node"><title>Node25</title>
<g id="a_node25"><a xlink:href="DatabaseInterface_8h.html" target="_top" xlink:title="QualityControl/DatabaseInterface.h">
<polygon fill="none" stroke="black" points="542,-179.5 542,-198.5 712,-198.5 712,-179.5 542,-179.5"/>
<text text-anchor="middle" x="627" y="-186.5" font-family="Helvetica,sans-Serif" font-size="10.00">QualityControl/DatabaseInterface.h</text>
</a>
</g>
</g>
<!-- Node10&#45;&gt;Node25 -->
<g id="edge27" class="edge"><title>Node10&#45;&gt;Node25</title>
<path fill="none" stroke="midnightblue" d="M664.06,-363.888C683.56,-356.269 708.104,-343.031 720,-322 726.783,-310.008 725.009,-303.835 720,-291 705.477,-253.787 670.112,-222.012 647.418,-204.503"/>
<polygon fill="midnightblue" stroke="midnightblue" points="649.514,-201.7 639.411,-198.509 645.319,-207.304 649.514,-201.7"/>
</g>
<!-- Node27 -->
<g id="node27" class="node"><title>Node27</title>
<g id="a_node27"><a xlink:href="QcInfoLogger_8h.html" target="_top" xlink:title="QualityControl/QcInfoLogger.h">
<polygon fill="none" stroke="black" points="884.5,-297 884.5,-316 1033.5,-316 1033.5,-297 884.5,-297"/>
<text text-anchor="middle" x="959" y="-304" font-family="Helvetica,sans-Serif" font-size="10.00">QualityControl/QcInfoLogger.h</text>
</a>
</g>
</g>
<!-- Node10&#45;&gt;Node27 -->
<g id="edge32" class="edge"><title>Node10&#45;&gt;Node27</title>
<path fill="none" stroke="midnightblue" d="M678.559,-363.936C737.341,-352.106 843.297,-330.784 906.792,-318.006"/>
<polygon fill="midnightblue" stroke="midnightblue" points="907.491,-321.436 916.604,-316.032 906.11,-314.573 907.491,-321.436"/>
</g>
<!-- Node17&#45;&gt;Node18 -->
<g id="edge17" class="edge"><title>Node17&#45;&gt;Node18</title>
<path fill="none" stroke="midnightblue" d="M445,-179.083C445,-172.006 445,-161.861 445,-152.986"/>
<polygon fill="midnightblue" stroke="midnightblue" points="448.5,-152.751 445,-142.751 441.5,-152.751 448.5,-152.751"/>
</g>
<!-- Node23 -->
<g id="node23" class="node"><title>Node23</title>
<g id="a_node23"><a xlink:href="Quality_8h.html" target="_top" xlink:title="QualityControl/Quality.h">
<polygon fill="none" stroke="black" points="612.5,-62 612.5,-81 733.5,-81 733.5,-62 612.5,-62"/>
<text text-anchor="middle" x="673" y="-69" font-family="Helvetica,sans-Serif" font-size="10.00">QualityControl/Quality.h</text>
</a>
</g>
</g>
<!-- Node17&#45;&gt;Node23 -->
<g id="edge26" class="edge"><title>Node17&#45;&gt;Node23</title>
<path fill="none" stroke="midnightblue" d="M462.137,-179.319C501.764,-159.245 599.932,-109.515 647.009,-85.6667"/>
<polygon fill="midnightblue" stroke="midnightblue" points="648.636,-88.7658 655.975,-81.1245 645.473,-82.5213 648.636,-88.7658"/>
</g>
<!-- Node18&#45;&gt;Node19 -->
<g id="edge18" class="edge"><title>Node18&#45;&gt;Node19</title>
<path fill="none" stroke="midnightblue" d="M424.225,-123.475C399.568,-113.357 358.255,-96.4046 330.098,-84.8507"/>
<polygon fill="midnightblue" stroke="midnightblue" points="331.317,-81.5674 320.736,-81.0091 328.659,-88.0434 331.317,-81.5674"/>
</g>
<!-- Node20 -->
<g id="node20" class="node"><title>Node20</title>
<polygon fill="none" stroke="#bfbfbf" points="424.5,-62 424.5,-81 459.5,-81 459.5,-62 424.5,-62"/>
<text text-anchor="middle" x="442" y="-69" font-family="Helvetica,sans-Serif" font-size="10.00">map</text>
</g>
<!-- Node18&#45;&gt;Node20 -->
<g id="edge19" class="edge"><title>Node18&#45;&gt;Node20</title>
<path fill="none" stroke="midnightblue" d="M444.57,-123.475C444.147,-115.08 443.486,-101.981 442.941,-91.1631"/>
<polygon fill="midnightblue" stroke="midnightblue" points="446.428,-90.8201 442.429,-81.0091 439.437,-91.1727 446.428,-90.8201"/>
</g>
<!-- Node21 -->
<g id="node21" class="node"><title>Node21</title>
<polygon fill="none" stroke="#bfbfbf" points="468.5,-0.5 468.5,-19.5 527.5,-19.5 527.5,-0.5 468.5,-0.5"/>
<text text-anchor="middle" x="498" y="-7.5" font-family="Helvetica,sans-Serif" font-size="10.00">TObject.h</text>
</g>
<!-- Node18&#45;&gt;Node21 -->
<g id="edge20" class="edge"><title>Node18&#45;&gt;Node21</title>
<path fill="none" stroke="midnightblue" d="M436.47,-123.146C423.456,-108.518 401.503,-78.6709 415,-56 424.603,-39.8702 442.225,-29.1662 458.769,-22.2615"/>
<polygon fill="midnightblue" stroke="midnightblue" points="460.218,-25.4546 468.316,-18.6228 457.726,-18.9135 460.218,-25.4546"/>
</g>
<!-- Node22 -->
<g id="node22" class="node"><title>Node22</title>
<polygon fill="none" stroke="#bfbfbf" points="478,-62 478,-81 594,-81 594,-62 478,-62"/>
<text text-anchor="middle" x="536" y="-69" font-family="Helvetica,sans-Serif" font-size="10.00">Common/Exceptions.h</text>
</g>
<!-- Node18&#45;&gt;Node22 -->
<g id="edge21" class="edge"><title>Node18&#45;&gt;Node22</title>
<path fill="none" stroke="midnightblue" d="M458.038,-123.475C472.769,-113.843 496.973,-98.0175 514.509,-86.5517"/>
<polygon fill="midnightblue" stroke="midnightblue" points="516.532,-89.411 522.986,-81.0091 512.701,-83.5522 516.532,-89.411"/>
</g>
<!-- Node18&#45;&gt;Node23 -->
<g id="edge22" class="edge"><title>Node18&#45;&gt;Node23</title>
<path fill="none" stroke="midnightblue" d="M477.667,-123.475C517.877,-112.982 586.258,-95.1367 630.515,-83.587"/>
<polygon fill="midnightblue" stroke="midnightblue" points="631.602,-86.9208 640.394,-81.0091 629.834,-80.1477 631.602,-86.9208"/>
</g>
<!-- Node23&#45;&gt;Node4 -->
<g id="edge25" class="edge"><title>Node23&#45;&gt;Node4</title>
<path fill="none" stroke="midnightblue" d="M709.535,-61.9904C720.267,-59.7467 732.061,-57.5285 743,-56 964.538,-25.0457 1234.36,-14.5964 1324.24,-11.8392"/>
<polygon fill="midnightblue" stroke="midnightblue" points="1324.4,-15.3361 1334.29,-11.5403 1324.19,-8.33917 1324.4,-15.3361"/>
</g>
<!-- Node23&#45;&gt;Node21 -->
<g id="edge23" class="edge"><title>Node23&#45;&gt;Node21</title>
<path fill="none" stroke="midnightblue" d="M647.927,-61.9751C617.648,-51.6804 566.56,-34.3103 532.559,-22.7502"/>
<polygon fill="midnightblue" stroke="midnightblue" points="533.621,-19.4145 523.027,-19.5091 531.368,-26.0419 533.621,-19.4145"/>
</g>
<!-- Node24 -->
<g id="node24" class="node"><title>Node24</title>
<polygon fill="none" stroke="#bfbfbf" points="647,-0.5 647,-19.5 699,-19.5 699,-0.5 647,-0.5"/>
<text text-anchor="middle" x="673" y="-7.5" font-family="Helvetica,sans-Serif" font-size="10.00">ostream</text>
</g>
<!-- Node23&#45;&gt;Node24 -->
<g id="edge24" class="edge"><title>Node23&#45;&gt;Node24</title>
<path fill="none" stroke="midnightblue" d="M673,-61.9751C673,-53.5803 673,-40.4806 673,-29.6631"/>
<polygon fill="midnightblue" stroke="midnightblue" points="676.5,-29.5091 673,-19.5091 669.5,-29.5091 676.5,-29.5091"/>
</g>
<!-- Node25&#45;&gt;Node12 -->
<g id="edge29" class="edge"><title>Node25&#45;&gt;Node12</title>
<path fill="none" stroke="midnightblue" d="M638.35,-179.319C663.928,-159.753 726.337,-112.017 758.351,-87.5295"/>
<polygon fill="midnightblue" stroke="midnightblue" points="760.702,-90.1375 766.519,-81.282 756.449,-84.5775 760.702,-90.1375"/>
</g>
<!-- Node25&#45;&gt;Node18 -->
<g id="edge28" class="edge"><title>Node25&#45;&gt;Node18</title>
<path fill="none" stroke="midnightblue" d="M598.162,-179.444C567.144,-170.241 517.671,-155.562 483.382,-145.388"/>
<polygon fill="midnightblue" stroke="midnightblue" points="484.286,-142.006 473.704,-142.516 482.295,-148.716 484.286,-142.006"/>
</g>
<!-- Node26 -->
<g id="node26" class="node"><title>Node26</title>
<polygon fill="none" stroke="#bfbfbf" points="585.5,-123.5 585.5,-142.5 668.5,-142.5 668.5,-123.5 585.5,-123.5"/>
<text text-anchor="middle" x="627" y="-130.5" font-family="Helvetica,sans-Serif" font-size="10.00">unordered_map</text>
</g>
<!-- Node25&#45;&gt;Node26 -->
<g id="edge30" class="edge"><title>Node25&#45;&gt;Node26</title>
<path fill="none" stroke="midnightblue" d="M627,-179.083C627,-172.006 627,-161.861 627,-152.986"/>
<polygon fill="midnightblue" stroke="midnightblue" points="630.5,-152.751 627,-142.751 623.5,-152.751 630.5,-152.751"/>
</g>
<!-- Node27&#45;&gt;Node19 -->
<g id="edge58" class="edge"><title>Node27&#45;&gt;Node19</title>
<path fill="none" stroke="midnightblue" d="M884.47,-300.911C742.073,-290.786 438.251,-262.226 357,-199 322.413,-172.086 308.198,-119.536 302.868,-91.381"/>
<polygon fill="midnightblue" stroke="midnightblue" points="306.273,-90.5321 301.14,-81.2637 299.373,-91.7101 306.273,-90.5321"/>
</g>
<!-- Node28 -->
<g id="node28" class="node"><title>Node28</title>
<g id="a_node28"><a xlink:href="TaskInterface_8h.html" target="_top" xlink:title="TaskInterface.h">
<polygon fill="none" stroke="black" points="958.5,-235.5 958.5,-254.5 1043.5,-254.5 1043.5,-235.5 958.5,-235.5"/>
<text text-anchor="middle" x="1001" y="-242.5" font-family="Helvetica,sans-Serif" font-size="10.00">TaskInterface.h</text>
</a>
</g>
</g>
<!-- Node27&#45;&gt;Node28 -->
<g id="edge33" class="edge"><title>Node27&#45;&gt;Node28</title>
<path fill="none" stroke="midnightblue" d="M965.018,-296.975C971.255,-288.138 981.173,-274.089 989.018,-262.975"/>
<polygon fill="midnightblue" stroke="midnightblue" points="992.086,-264.697 994.994,-254.509 986.367,-260.66 992.086,-264.697"/>
</g>
<!-- Node43 -->
<g id="node43" class="node"><title>Node43</title>
<polygon fill="none" stroke="#bfbfbf" points="1062,-235.5 1062,-254.5 1192,-254.5 1192,-235.5 1062,-235.5"/>
<text text-anchor="middle" x="1127" y="-242.5" font-family="Helvetica,sans-Serif" font-size="10.00">InfoLogger/InfoLogger.hxx</text>
</g>
<!-- Node27&#45;&gt;Node43 -->
<g id="edge57" class="edge"><title>Node27&#45;&gt;Node43</title>
<path fill="none" stroke="midnightblue" d="M983.07,-296.975C1012.01,-286.725 1060.76,-269.459 1093.4,-257.899"/>
<polygon fill="midnightblue" stroke="midnightblue" points="1094.72,-261.147 1102.97,-254.509 1092.38,-254.548 1094.72,-261.147"/>
</g>
<!-- Node28&#45;&gt;Node12 -->
<g id="edge34" class="edge"><title>Node28&#45;&gt;Node12</title>
<path fill="none" stroke="midnightblue" d="M972.917,-235.357C951.028,-227.821 920.507,-215.505 897,-199 851.527,-167.072 809.86,-115.564 790.081,-89.2076"/>
<polygon fill="midnightblue" stroke="midnightblue" points="792.783,-86.9738 784.028,-81.0071 787.151,-91.1312 792.783,-86.9738"/>
</g>
<!-- Node28&#45;&gt;Node14 -->
<g id="edge38" class="edge"><title>Node28&#45;&gt;Node14</title>
<path fill="none" stroke="midnightblue" d="M966.753,-235.382C947.345,-228.693 924.345,-217.376 911,-199 889.208,-168.992 887.761,-124.306 889.39,-96.8601"/>
<polygon fill="midnightblue" stroke="midnightblue" points="892.904,-96.8232 890.193,-86.5809 885.925,-96.2779 892.904,-96.8232"/>
</g>
<!-- Node29 -->
<g id="node29" class="node"><title>Node29</title>
<polygon fill="none" stroke="#bfbfbf" points="1099.5,-179.5 1099.5,-198.5 1148.5,-198.5 1148.5,-179.5 1099.5,-179.5"/>
<text text-anchor="middle" x="1124" y="-186.5" font-family="Helvetica,sans-Serif" font-size="10.00">cassert</text>
</g>
<!-- Node28&#45;&gt;Node29 -->
<g id="edge35" class="edge"><title>Node28&#45;&gt;Node29</title>
<path fill="none" stroke="midnightblue" d="M1020.49,-235.444C1040.64,-226.596 1072.32,-212.687 1095.33,-202.586"/>
<polygon fill="midnightblue" stroke="midnightblue" points="1096.85,-205.741 1104.6,-198.516 1094.04,-199.332 1096.85,-205.741"/>
</g>
<!-- Node30 -->
<g id="node30" class="node"><title>Node30</title>
<polygon fill="none" stroke="#bfbfbf" points="1166.5,-179.5 1166.5,-198.5 1291.5,-198.5 1291.5,-179.5 1166.5,-179.5"/>
<text text-anchor="middle" x="1229" y="-186.5" font-family="Helvetica,sans-Serif" font-size="10.00">Framework/InitContext.h</text>
</g>
<!-- Node28&#45;&gt;Node30 -->
<g id="edge36" class="edge"><title>Node28&#45;&gt;Node30</title>
<path fill="none" stroke="midnightblue" d="M1037.13,-235.444C1076.65,-226.083 1140.1,-211.056 1183.11,-200.868"/>
<polygon fill="midnightblue" stroke="midnightblue" points="1184.12,-204.227 1193.04,-198.516 1182.5,-197.415 1184.12,-204.227"/>
</g>
<!-- Node31 -->
<g id="node31" class="node"><title>Node31</title>
<polygon fill="none" stroke="#bfbfbf" points="1310,-179.5 1310,-198.5 1470,-198.5 1470,-179.5 1310,-179.5"/>
<text text-anchor="middle" x="1390" y="-186.5" font-family="Helvetica,sans-Serif" font-size="10.00">Framework/ProcessingContext.h</text>
</g>
<!-- Node28&#45;&gt;Node31 -->
<g id="edge37" class="edge"><title>Node28&#45;&gt;Node31</title>
<path fill="none" stroke="midnightblue" d="M1043.55,-236.499C1046.74,-235.977 1049.92,-235.472 1053,-235 1140.68,-221.563 1241.56,-208.394 1309.92,-199.809"/>
<polygon fill="midnightblue" stroke="midnightblue" points="1310.69,-203.239 1320.18,-198.524 1309.82,-196.294 1310.69,-203.239"/>
</g>
<!-- Node32 -->
<g id="node32" class="node"><title>Node32</title>
<g id="a_node32"><a xlink:href="Activity_8h.html" target="_top" xlink:title="QualityControl/Activity.h">
<polygon fill="none" stroke="black" points="1488.5,-179.5 1488.5,-198.5 1611.5,-198.5 1611.5,-179.5 1488.5,-179.5"/>
<text text-anchor="middle" x="1550" y="-186.5" font-family="Helvetica,sans-Serif" font-size="10.00">QualityControl/Activity.h</text>
</a>
</g>
</g>
<!-- Node28&#45;&gt;Node32 -->
<g id="edge39" class="edge"><title>Node28&#45;&gt;Node32</title>
<path fill="none" stroke="midnightblue" d="M1043.52,-236.33C1046.72,-235.848 1049.91,-235.397 1053,-235 1238.24,-211.189 1288.34,-218.682 1478.4,-199.013"/>
<polygon fill="midnightblue" stroke="midnightblue" points="1478.86,-202.484 1488.44,-197.963 1478.13,-195.522 1478.86,-202.484"/>
</g>
<!-- Node33 -->
<g id="node33" class="node"><title>Node33</title>
<g id="a_node33"><a xlink:href="ObjectsManager_8h.html" target="_top" xlink:title="QualityControl/ObjectsManager.h">
<polygon fill="none" stroke="black" points="920.5,-179.5 920.5,-198.5 1081.5,-198.5 1081.5,-179.5 920.5,-179.5"/>
<text text-anchor="middle" x="1001" y="-186.5" font-family="Helvetica,sans-Serif" font-size="10.00">QualityControl/ObjectsManager.h</text>
</a>
</g>
</g>
<!-- Node28&#45;&gt;Node33 -->
<g id="edge40" class="edge"><title>Node28&#45;&gt;Node33</title>
<path fill="none" stroke="midnightblue" d="M1001,-235.083C1001,-228.006 1001,-217.861 1001,-208.986"/>
<polygon fill="midnightblue" stroke="midnightblue" points="1004.5,-208.751 1001,-198.751 997.5,-208.751 1004.5,-208.751"/>
</g>
<!-- Node33&#45;&gt;Node4 -->
<g id="edge56" class="edge"><title>Node33&#45;&gt;Node4</title>
<path fill="none" stroke="midnightblue" d="M1080.88,-179.469C1194.5,-167.244 1389.42,-145.889 1392,-143 1409.39,-123.499 1368.68,-88.7064 1368,-87 1360.59,-68.3844 1357.4,-45.5578 1356.03,-29.8073"/>
<polygon fill="midnightblue" stroke="midnightblue" points="1359.52,-29.4784 1355.32,-19.7505 1352.53,-29.9727 1359.52,-29.4784"/>
</g>
<!-- Node33&#45;&gt;Node18 -->
<g id="edge41" class="edge"><title>Node33&#45;&gt;Node18</title>
<path fill="none" stroke="midnightblue" d="M920.45,-180.177C816.658,-170.096 636.972,-152.645 530.726,-142.326"/>
<polygon fill="midnightblue" stroke="midnightblue" points="530.97,-138.833 520.679,-141.35 530.294,-145.8 530.97,-138.833"/>
</g>
<!-- Node33&#45;&gt;Node23 -->
<g id="edge42" class="edge"><title>Node33&#45;&gt;Node23</title>
<path fill="none" stroke="midnightblue" d="M976.615,-179.413C918.857,-159.075 773.584,-107.919 707.134,-84.5197"/>
<polygon fill="midnightblue" stroke="midnightblue" points="708.141,-81.1636 697.546,-81.1434 705.816,-87.7662 708.141,-81.1636"/>
</g>
<!-- Node34 -->
<g id="node34" class="node"><title>Node34</title>
<g id="a_node34"><a xlink:href="TaskConfig_8h.html" target="_top" xlink:title="QualityControl/TaskConfig.h">
<polygon fill="none" stroke="black" points="1243,-123.5 1243,-142.5 1383,-142.5 1383,-123.5 1243,-123.5"/>
<text text-anchor="middle" x="1313" y="-130.5" font-family="Helvetica,sans-Serif" font-size="10.00">QualityControl/TaskConfig.h</text>
</a>
</g>
</g>
<!-- Node33&#45;&gt;Node34 -->
<g id="edge43" class="edge"><title>Node33&#45;&gt;Node34</title>
<path fill="none" stroke="midnightblue" d="M1050.44,-179.444C1105.66,-169.885 1195.02,-154.419 1253.89,-144.23"/>
<polygon fill="midnightblue" stroke="midnightblue" points="1254.54,-147.671 1263.79,-142.516 1253.34,-140.773 1254.54,-147.671"/>
</g>
<!-- Node35 -->
<g id="node35" class="node"><title>Node35</title>
<g id="a_node35"><a xlink:href="ServiceDiscovery_8h_source.html" target="_top" xlink:title="QualityControl/ServiceDiscovery.h">
<polygon fill="none" stroke="black" points="1438.5,-123.5 1438.5,-142.5 1605.5,-142.5 1605.5,-123.5 1438.5,-123.5"/>
<text text-anchor="middle" x="1522" y="-130.5" font-family="Helvetica,sans-Serif" font-size="10.00">QualityControl/ServiceDiscovery.h</text>
</a>
</g>
</g>
<!-- Node33&#45;&gt;Node35 -->
<g id="edge46" class="edge"><title>Node33&#45;&gt;Node35</title>
<path fill="none" stroke="midnightblue" d="M1081.55,-179.651C1175.58,-169.906 1330.77,-153.82 1429.61,-143.576"/>
<polygon fill="midnightblue" stroke="midnightblue" points="1430,-147.054 1439.59,-142.542 1429.28,-140.091 1430,-147.054"/>
</g>
<!-- Node40 -->
<g id="node40" class="node"><title>Node40</title>
<polygon fill="none" stroke="#bfbfbf" points="920.5,-123.5 920.5,-142.5 989.5,-142.5 989.5,-123.5 920.5,-123.5"/>
<text text-anchor="middle" x="955" y="-130.5" font-family="Helvetica,sans-Serif" font-size="10.00">TObjArray.h</text>
</g>
<!-- Node33&#45;&gt;Node40 -->
<g id="edge53" class="edge"><title>Node33&#45;&gt;Node40</title>
<path fill="none" stroke="midnightblue" d="M993.404,-179.083C986.773,-171.298 976.979,-159.801 968.942,-150.367"/>
<polygon fill="midnightblue" stroke="midnightblue" points="971.604,-148.094 962.455,-142.751 966.275,-152.633 971.604,-148.094"/>
</g>
<!-- Node41 -->
<g id="node41" class="node"><title>Node41</title>
<polygon fill="none" stroke="#bfbfbf" points="1007.5,-123.5 1007.5,-142.5 1078.5,-142.5 1078.5,-123.5 1007.5,-123.5"/>
<text text-anchor="middle" x="1043" y="-130.5" font-family="Helvetica,sans-Serif" font-size="10.00">TObjString.h</text>
</g>
<!-- Node33&#45;&gt;Node41 -->
<g id="edge54" class="edge"><title>Node33&#45;&gt;Node41</title>
<path fill="none" stroke="midnightblue" d="M1007.94,-179.083C1013.93,-171.377 1022.75,-160.033 1030.05,-150.653"/>
<polygon fill="midnightblue" stroke="midnightblue" points="1032.82,-152.793 1036.19,-142.751 1027.29,-148.496 1032.82,-152.793"/>
</g>
<!-- Node42 -->
<g id="node42" class="node"><title>Node42</title>
<polygon fill="none" stroke="#bfbfbf" points="1097,-123.5 1097,-142.5 1225,-142.5 1225,-123.5 1097,-123.5"/>
<text text-anchor="middle" x="1161" y="-130.5" font-family="Helvetica,sans-Serif" font-size="10.00">boost/concept_check.hpp</text>
</g>
<!-- Node33&#45;&gt;Node42 -->
<g id="edge55" class="edge"><title>Node33&#45;&gt;Node42</title>
<path fill="none" stroke="midnightblue" d="M1026.35,-179.444C1053.27,-170.359 1096,-155.939 1126.09,-145.783"/>
<polygon fill="midnightblue" stroke="midnightblue" points="1127.41,-149.031 1135.77,-142.516 1125.17,-142.398 1127.41,-149.031"/>
</g>
<!-- Node34&#45;&gt;Node4 -->
<g id="edge44" class="edge"><title>Node34&#45;&gt;Node4</title>
<path fill="none" stroke="midnightblue" d="M1312.62,-123.218C1312.29,-108.694 1312.94,-78.993 1322,-56 1326.07,-45.6737 1333.1,-35.5777 1339.64,-27.5739"/>
<polygon fill="midnightblue" stroke="midnightblue" points="1342.47,-29.6508 1346.36,-19.7982 1337.17,-25.071 1342.47,-29.6508"/>
</g>
<!-- Node34&#45;&gt;Node14 -->
<g id="edge45" class="edge"><title>Node34&#45;&gt;Node14</title>
<path fill="none" stroke="midnightblue" d="M1252.68,-123.475C1178.22,-112.952 1051.45,-95.0349 969.75,-83.4884"/>
<polygon fill="midnightblue" stroke="midnightblue" points="969.914,-79.9769 959.522,-82.0429 968.934,-86.908 969.914,-79.9769"/>
</g>
<!-- Node35&#45;&gt;Node4 -->
<g id="edge50" class="edge"><title>Node35&#45;&gt;Node4</title>
<path fill="none" stroke="midnightblue" d="M1470.19,-123.47C1444.55,-117.044 1414.55,-105.955 1393,-87 1375.64,-71.7354 1365.3,-46.6874 1359.88,-29.5494"/>
<polygon fill="midnightblue" stroke="midnightblue" points="1363.15,-28.2476 1357.01,-19.6118 1356.43,-30.1903 1363.15,-28.2476"/>
</g>
<!-- Node35&#45;&gt;Node12 -->
<g id="edge49" class="edge"><title>Node35&#45;&gt;Node12</title>
<path fill="none" stroke="midnightblue" d="M1438.44,-126.13C1423,-125.07 1407.01,-123.988 1392,-123 1135.61,-106.127 1065.87,-142.547 815,-87 811.998,-86.3353 808.92,-85.4627 805.884,-84.4747"/>
<polygon fill="midnightblue" stroke="midnightblue" points="807.063,-81.1792 796.469,-81.0385 804.663,-87.7549 807.063,-81.1792"/>
</g>
<!-- Node36 -->
<g id="node36" class="node"><title>Node36</title>
<polygon fill="none" stroke="#bfbfbf" points="1514,-62 1514,-81 1560,-81 1560,-62 1514,-62"/>
<text text-anchor="middle" x="1537" y="-69" font-family="Helvetica,sans-Serif" font-size="10.00">atomic</text>
</g>
<!-- Node35&#45;&gt;Node36 -->
<g id="edge47" class="edge"><title>Node35&#45;&gt;Node36</title>
<path fill="none" stroke="midnightblue" d="M1524.15,-123.475C1526.29,-114.992 1529.64,-101.704 1532.38,-90.8222"/>
<polygon fill="midnightblue" stroke="midnightblue" points="1535.8,-91.5613 1534.85,-81.0091 1529.02,-89.8501 1535.8,-91.5613"/>
</g>
<!-- Node37 -->
<g id="node37" class="node"><title>Node37</title>
<polygon fill="none" stroke="#bfbfbf" points="1578.5,-62 1578.5,-81 1637.5,-81 1637.5,-62 1578.5,-62"/>
<text text-anchor="middle" x="1608" y="-69" font-family="Helvetica,sans-Serif" font-size="10.00">curl/curl.h</text>
</g>
<!-- Node35&#45;&gt;Node37 -->
<g id="edge48" class="edge"><title>Node35&#45;&gt;Node37</title>
<path fill="none" stroke="midnightblue" d="M1534.32,-123.475C1548.12,-113.931 1570.7,-98.3073 1587.23,-86.8683"/>
<polygon fill="midnightblue" stroke="midnightblue" points="1589.47,-89.577 1595.7,-81.0091 1585.49,-83.8205 1589.47,-89.577"/>
</g>
<!-- Node38 -->
<g id="node38" class="node"><title>Node38</title>
<polygon fill="none" stroke="#bfbfbf" points="1656,-62 1656,-81 1700,-81 1700,-62 1656,-62"/>
<text text-anchor="middle" x="1678" y="-69" font-family="Helvetica,sans-Serif" font-size="10.00">thread</text>
</g>
<!-- Node35&#45;&gt;Node38 -->
<g id="edge51" class="edge"><title>Node35&#45;&gt;Node38</title>
<path fill="none" stroke="midnightblue" d="M1547.39,-123.43C1572.61,-114.768 1612.28,-100.736 1646,-87 1647.41,-86.4248 1648.85,-85.8237 1650.31,-85.2072"/>
<polygon fill="midnightblue" stroke="midnightblue" points="1652.08,-88.2509 1659.83,-81.0271 1649.27,-81.8411 1652.08,-88.2509"/>
</g>
<!-- Node39 -->
<g id="node39" class="node"><title>Node39</title>
<polygon fill="none" stroke="#bfbfbf" points="1402,-56.5 1402,-86.5 1496,-86.5 1496,-56.5 1402,-56.5"/>
<text text-anchor="start" x="1410" y="-74.5" font-family="Helvetica,sans-Serif" font-size="10.00">boost/asio/ip/host</text>
<text text-anchor="middle" x="1449" y="-63.5" font-family="Helvetica,sans-Serif" font-size="10.00">_name.hpp</text>
</g>
<!-- Node35&#45;&gt;Node39 -->
<g id="edge52" class="edge"><title>Node35&#45;&gt;Node39</title>
<path fill="none" stroke="midnightblue" d="M1511.54,-123.475C1501.84,-115.567 1487.01,-103.485 1474.23,-93.0675"/>
<polygon fill="midnightblue" stroke="midnightblue" points="1476.17,-90.1279 1466.2,-86.523 1471.74,-95.5539 1476.17,-90.1279"/>
</g>
<!-- Node45 -->
<g id="node45" class="node"><title>Node45</title>
<polygon fill="none" stroke="#bfbfbf" points="2245.5,-291.5 2245.5,-321.5 2380.5,-321.5 2380.5,-291.5 2245.5,-291.5"/>
<text text-anchor="start" x="2253.5" y="-309.5" font-family="Helvetica,sans-Serif" font-size="10.00">Configuration/Configuration</text>
<text text-anchor="middle" x="2313" y="-298.5" font-family="Helvetica,sans-Serif" font-size="10.00">Factory.h</text>
</g>
<!-- Node44&#45;&gt;Node45 -->
<g id="edge60" class="edge"><title>Node44&#45;&gt;Node45</title>
<path fill="none" stroke="midnightblue" d="M2313,-363.734C2313,-355.541 2313,-342.923 2313,-331.714"/>
<polygon fill="midnightblue" stroke="midnightblue" points="2316.5,-331.589 2313,-321.589 2309.5,-331.589 2316.5,-331.589"/>
</g>
</g>
</svg>
