<?xml version="1.0" encoding="UTF-8" standalone="no"?>
<!DOCTYPE svg PUBLIC "-//W3C//DTD SVG 1.1//EN"
 "http://www.w3.org/Graphics/SVG/1.1/DTD/svg11.dtd">
<!-- Generated by graphviz version 2.38.0 (20140413.2041)
 -->
<!-- Title: Modules/TOF/src/runTOF.cxx Pages: 1 -->
<svg width="2474pt" height="453pt"
 viewBox="0.00 0.00 2474.00 453.00" xmlns="http://www.w3.org/2000/svg" xmlns:xlink="http://www.w3.org/1999/xlink">
<g id="graph0" class="graph" transform="scale(1 1) rotate(0) translate(4 449)">
<title>Modules/TOF/src/runTOF.cxx</title>
<!-- Node1 -->
<g id="node1" class="node"><title>Node1</title>
<polygon fill="#bfbfbf" stroke="black" points="1753,-425.5 1753,-444.5 1900,-444.5 1900,-425.5 1753,-425.5"/>
<text text-anchor="middle" x="1826.5" y="-432.5" font-family="Helvetica,sans-Serif" font-size="10.00">Modules/TOF/src/runTOF.cxx</text>
</g>
<!-- Node2 -->
<g id="node2" class="node"><title>Node2</title>
<polygon fill="none" stroke="#bfbfbf" points="876.5,-364 876.5,-383 1014.5,-383 1014.5,-364 876.5,-364"/>
<text text-anchor="middle" x="945.5" y="-371" font-family="Helvetica,sans-Serif" font-size="10.00">Framework/DataSampling.h</text>
</g>
<!-- Node1&#45;&gt;Node2 -->
<g id="edge1" class="edge"><title>Node1&#45;&gt;Node2</title>
<path fill="none" stroke="midnightblue" d="M1752.88,-433.016C1611.17,-430.429 1290.88,-421.21 1023.5,-389 1014.56,-387.923 1005.09,-386.45 995.961,-384.854"/>
<polygon fill="midnightblue" stroke="midnightblue" points="996.297,-381.357 985.832,-383.013 995.046,-388.245 996.297,-381.357"/>
</g>
<!-- Node3 -->
<g id="node3" class="node"><title>Node3</title>
<g id="a_node3"><a xlink:href="InfrastructureGenerator_8h.html" target="_top" xlink:title="QualityControl/Infrastructure\lGenerator.h">
<polygon fill="none" stroke="black" points="1573.5,-358.5 1573.5,-388.5 1713.5,-388.5 1713.5,-358.5 1573.5,-358.5"/>
<text text-anchor="start" x="1581.5" y="-376.5" font-family="Helvetica,sans-Serif" font-size="10.00">QualityControl/Infrastructure</text>
<text text-anchor="middle" x="1643.5" y="-365.5" font-family="Helvetica,sans-Serif" font-size="10.00">Generator.h</text>
</a>
</g>
</g>
<!-- Node1&#45;&gt;Node3 -->
<g id="edge2" class="edge"><title>Node1&#45;&gt;Node3</title>
<path fill="none" stroke="midnightblue" d="M1800.28,-425.475C1773.3,-416.701 1730.5,-402.788 1696.44,-391.712"/>
<polygon fill="midnightblue" stroke="midnightblue" points="1697.22,-388.287 1686.63,-388.523 1695.06,-394.944 1697.22,-388.287"/>
</g>
<!-- Node7 -->
<g id="node7" class="node"><title>Node7</title>
<polygon fill="none" stroke="#bfbfbf" points="1732,-364 1732,-383 1829,-383 1829,-364 1732,-364"/>
<text text-anchor="middle" x="1780.5" y="-371" font-family="Helvetica,sans-Serif" font-size="10.00">fairlogger/Logger.h</text>
</g>
<!-- Node1&#45;&gt;Node7 -->
<g id="edge6" class="edge"><title>Node1&#45;&gt;Node7</title>
<path fill="none" stroke="midnightblue" d="M1819.91,-425.475C1813.01,-416.55 1802,-402.307 1793.37,-391.143"/>
<polygon fill="midnightblue" stroke="midnightblue" points="1795.96,-388.78 1787.08,-383.009 1790.43,-393.061 1795.96,-388.78"/>
</g>
<!-- Node8 -->
<g id="node8" class="node"><title>Node8</title>
<polygon fill="none" stroke="#bfbfbf" points="1847.5,-364 1847.5,-383 1897.5,-383 1897.5,-364 1847.5,-364"/>
<text text-anchor="middle" x="1872.5" y="-371" font-family="Helvetica,sans-Serif" font-size="10.00">TH1F.h</text>
</g>
<!-- Node1&#45;&gt;Node8 -->
<g id="edge7" class="edge"><title>Node1&#45;&gt;Node8</title>
<path fill="none" stroke="midnightblue" d="M1833.09,-425.475C1839.99,-416.55 1851,-402.307 1859.63,-391.143"/>
<polygon fill="midnightblue" stroke="midnightblue" points="1862.57,-393.061 1865.92,-383.009 1857.04,-388.78 1862.57,-393.061"/>
</g>
<!-- Node9 -->
<g id="node9" class="node"><title>Node9</title>
<polygon fill="none" stroke="#bfbfbf" points="1319.5,-62 1319.5,-81 1371.5,-81 1371.5,-62 1319.5,-62"/>
<text text-anchor="middle" x="1345.5" y="-69" font-family="Helvetica,sans-Serif" font-size="10.00">memory</text>
</g>
<!-- Node1&#45;&gt;Node9 -->
<g id="edge8" class="edge"><title>Node1&#45;&gt;Node9</title>
<path fill="none" stroke="midnightblue" d="M1752.83,-427.953C1686.45,-421.332 1594.76,-408.92 1564.5,-389 1528.41,-365.243 1511.5,-350.708 1511.5,-307.5 1511.5,-307.5 1511.5,-307.5 1511.5,-244 1511.5,-222.828 1405.7,-126.156 1363.03,-88.0272"/>
<polygon fill="midnightblue" stroke="midnightblue" points="1365.18,-85.2582 1355.39,-81.2217 1360.53,-90.4859 1365.18,-85.2582"/>
</g>
<!-- Node10 -->
<g id="node10" class="node"><title>Node10</title>
<polygon fill="none" stroke="#bfbfbf" points="1916,-364 1916,-383 1965,-383 1965,-364 1916,-364"/>
<text text-anchor="middle" x="1940.5" y="-371" font-family="Helvetica,sans-Serif" font-size="10.00">random</text>
</g>
<!-- Node1&#45;&gt;Node10 -->
<g id="edge9" class="edge"><title>Node1&#45;&gt;Node10</title>
<path fill="none" stroke="midnightblue" d="M1842.83,-425.475C1861.71,-415.622 1893.01,-399.288 1915.08,-387.77"/>
<polygon fill="midnightblue" stroke="midnightblue" points="1916.95,-390.739 1924.2,-383.009 1913.71,-384.533 1916.95,-390.739"/>
</g>
<!-- Node11 -->
<g id="node11" class="node"><title>Node11</title>
<polygon fill="none" stroke="#bfbfbf" points="1983.5,-364 1983.5,-383 2143.5,-383 2143.5,-364 1983.5,-364"/>
<text text-anchor="middle" x="2063.5" y="-371" font-family="Helvetica,sans-Serif" font-size="10.00">Framework/runDataProcessing.h</text>
</g>
<!-- Node1&#45;&gt;Node11 -->
<g id="edge10" class="edge"><title>Node1&#45;&gt;Node11</title>
<path fill="none" stroke="midnightblue" d="M1860.46,-425.475C1902.34,-414.959 1973.63,-397.062 2019.63,-385.514"/>
<polygon fill="midnightblue" stroke="midnightblue" points="2020.76,-388.839 2029.61,-383.009 2019.06,-382.049 2020.76,-388.839"/>
</g>
<!-- Node12 -->
<g id="node12" class="node"><title>Node12</title>
<g id="a_node12"><a xlink:href="Checker_8h.html" target="_top" xlink:title="QualityControl/Checker.h">
<polygon fill="none" stroke="black" points="1033,-364 1033,-383 1160,-383 1160,-364 1033,-364"/>
<text text-anchor="middle" x="1096.5" y="-371" font-family="Helvetica,sans-Serif" font-size="10.00">QualityControl/Checker.h</text>
</a>
</g>
</g>
<!-- Node1&#45;&gt;Node12 -->
<g id="edge11" class="edge"><title>Node1&#45;&gt;Node12</title>
<path fill="none" stroke="midnightblue" d="M1752.82,-427.995C1612.97,-416.595 1310.49,-391.942 1170.43,-380.526"/>
<polygon fill="midnightblue" stroke="midnightblue" points="1170.48,-377.018 1160.23,-379.694 1169.91,-383.995 1170.48,-377.018"/>
</g>
<!-- Node45 -->
<g id="node45" class="node"><title>Node45</title>
<g id="a_node45"><a xlink:href="runnerUtils_8h.html" target="_top" xlink:title="QualityControl/runnerUtils.h">
<polygon fill="none" stroke="black" points="2162,-364 2162,-383 2299,-383 2299,-364 2162,-364"/>
<text text-anchor="middle" x="2230.5" y="-371" font-family="Helvetica,sans-Serif" font-size="10.00">QualityControl/runnerUtils.h</text>
</a>
</g>
</g>
<!-- Node1&#45;&gt;Node45 -->
<g id="edge61" class="edge"><title>Node1&#45;&gt;Node45</title>
<path fill="none" stroke="midnightblue" d="M1895.01,-425.487C1961.07,-417.055 2063.81,-403.357 2152.5,-389 2160.24,-387.746 2168.4,-386.333 2176.41,-384.893"/>
<polygon fill="midnightblue" stroke="midnightblue" points="2177.22,-388.303 2186.42,-383.064 2175.96,-381.417 2177.22,-388.303"/>
</g>
<!-- Node47 -->
<g id="node47" class="node"><title>Node47</title>
<g id="a_node47"><a xlink:href="ExamplePrinterSpec_8h.html" target="_top" xlink:title="QualityControl/ExamplePrinter\lSpec.h">
<polygon fill="none" stroke="black" points="2317,-358.5 2317,-388.5 2466,-388.5 2466,-358.5 2317,-358.5"/>
<text text-anchor="start" x="2325" y="-376.5" font-family="Helvetica,sans-Serif" font-size="10.00">QualityControl/ExamplePrinter</text>
<text text-anchor="middle" x="2391.5" y="-365.5" font-family="Helvetica,sans-Serif" font-size="10.00">Spec.h</text>
</a>
</g>
</g>
<!-- Node1&#45;&gt;Node47 -->
<g id="edge63" class="edge"><title>Node1&#45;&gt;Node47</title>
<path fill="none" stroke="midnightblue" d="M1900.2,-428.958C1992.8,-422.21 2156.81,-408.899 2306.59,-389.193"/>
<polygon fill="midnightblue" stroke="midnightblue" points="2307.43,-392.611 2316.89,-387.824 2306.51,-385.672 2307.43,-392.611"/>
</g>
<!-- Node4 -->
<g id="node4" class="node"><title>Node4</title>
<polygon fill="none" stroke="#bfbfbf" points="1271,-0.5 1271,-19.5 1312,-19.5 1312,-0.5 1271,-0.5"/>
<text text-anchor="middle" x="1291.5" y="-7.5" font-family="Helvetica,sans-Serif" font-size="10.00">string</text>
</g>
<!-- Node3&#45;&gt;Node4 -->
<g id="edge3" class="edge"><title>Node3&#45;&gt;Node4</title>
<path fill="none" stroke="midnightblue" d="M1649.9,-358.415C1659.74,-335.399 1677.5,-288.071 1677.5,-246 1677.5,-246 1677.5,-246 1677.5,-132 1677.5,-97.0722 1683.81,-78.9758 1657.5,-56 1607.88,-12.6617 1401.47,-9.9224 1322.46,-10.5137"/>
<polygon fill="midnightblue" stroke="midnightblue" points="1322.15,-7.01649 1312.18,-10.6154 1322.22,-14.0161 1322.15,-7.01649"/>
</g>
<!-- Node5 -->
<g id="node5" class="node"><title>Node5</title>
<polygon fill="none" stroke="#bfbfbf" points="1705.5,-297 1705.5,-316 1845.5,-316 1845.5,-297 1705.5,-297"/>
<text text-anchor="middle" x="1775.5" y="-304" font-family="Helvetica,sans-Serif" font-size="10.00">Framework/WorkflowSpec.h</text>
</g>
<!-- Node3&#45;&gt;Node5 -->
<g id="edge4" class="edge"><title>Node3&#45;&gt;Node5</title>
<path fill="none" stroke="midnightblue" d="M1672.14,-358.396C1695,-347.142 1726.76,-331.501 1749.02,-320.538"/>
<polygon fill="midnightblue" stroke="midnightblue" points="1750.8,-323.565 1758.22,-316.007 1747.71,-317.285 1750.8,-323.565"/>
</g>
<!-- Node6 -->
<g id="node6" class="node"><title>Node6</title>
<polygon fill="none" stroke="#bfbfbf" points="1864,-297 1864,-316 2017,-316 2017,-297 1864,-297"/>
<text text-anchor="middle" x="1940.5" y="-304" font-family="Helvetica,sans-Serif" font-size="10.00">Framework/CompletionPolicy.h</text>
</g>
<!-- Node3&#45;&gt;Node6 -->
<g id="edge5" class="edge"><title>Node3&#45;&gt;Node6</title>
<path fill="none" stroke="midnightblue" d="M1707.58,-358.476C1762.78,-346.395 1841.28,-329.215 1891.56,-318.211"/>
<polygon fill="midnightblue" stroke="midnightblue" points="1892.51,-321.586 1901.53,-316.029 1891.01,-314.748 1892.51,-321.586"/>
</g>
<!-- Node12&#45;&gt;Node9 -->
<g id="edge13" class="edge"><title>Node12&#45;&gt;Node9</title>
<path fill="none" stroke="midnightblue" d="M1160.04,-369.872C1240.14,-362.76 1367.5,-337.123 1367.5,-246 1367.5,-246 1367.5,-246 1367.5,-188 1367.5,-153.091 1357.68,-113.279 1351.16,-90.6935"/>
<polygon fill="midnightblue" stroke="midnightblue" points="1354.51,-89.6619 1348.29,-81.0867 1347.8,-91.6705 1354.51,-89.6619"/>
</g>
<!-- Node13 -->
<g id="node13" class="node"><title>Node13</title>
<polygon fill="none" stroke="#bfbfbf" points="1029.5,-297 1029.5,-316 1075.5,-316 1075.5,-297 1029.5,-297"/>
<text text-anchor="middle" x="1052.5" y="-304" font-family="Helvetica,sans-Serif" font-size="10.00">chrono</text>
</g>
<!-- Node12&#45;&gt;Node13 -->
<g id="edge12" class="edge"><title>Node12&#45;&gt;Node13</title>
<path fill="none" stroke="midnightblue" d="M1090.57,-363.734C1083.77,-353.695 1072.48,-337.014 1063.95,-324.421"/>
<polygon fill="midnightblue" stroke="midnightblue" points="1066.84,-322.446 1058.34,-316.127 1061.05,-326.37 1066.84,-322.446"/>
</g>
<!-- Node14 -->
<g id="node14" class="node"><title>Node14</title>
<polygon fill="none" stroke="#bfbfbf" points="1093.5,-297 1093.5,-316 1185.5,-316 1185.5,-297 1093.5,-297"/>
<text text-anchor="middle" x="1139.5" y="-304" font-family="Helvetica,sans-Serif" font-size="10.00">Common/Timer.h</text>
</g>
<!-- Node12&#45;&gt;Node14 -->
<g id="edge14" class="edge"><title>Node12&#45;&gt;Node14</title>
<path fill="none" stroke="midnightblue" d="M1102.3,-363.734C1108.88,-353.793 1119.76,-337.338 1128.06,-324.789"/>
<polygon fill="midnightblue" stroke="midnightblue" points="1131.19,-326.399 1133.79,-316.127 1125.36,-322.536 1131.19,-326.399"/>
</g>
<!-- Node15 -->
<g id="node15" class="node"><title>Node15</title>
<polygon fill="none" stroke="#bfbfbf" points="1514,-56.5 1514,-86.5 1649,-86.5 1649,-56.5 1514,-56.5"/>
<text text-anchor="start" x="1522" y="-74.5" font-family="Helvetica,sans-Serif" font-size="10.00">Configuration/Configuration</text>
<text text-anchor="middle" x="1581.5" y="-63.5" font-family="Helvetica,sans-Serif" font-size="10.00">Interface.h</text>
</g>
<!-- Node12&#45;&gt;Node15 -->
<g id="edge15" class="edge"><title>Node12&#45;&gt;Node15</title>
<path fill="none" stroke="midnightblue" d="M1160.12,-370.991C1303.51,-365.867 1639.5,-343.461 1639.5,-246 1639.5,-246 1639.5,-246 1639.5,-188 1639.5,-152.542 1617.4,-116.85 1600.48,-94.7229"/>
<polygon fill="midnightblue" stroke="midnightblue" points="1603.04,-92.3177 1594.09,-86.6608 1597.56,-96.6694 1603.04,-92.3177"/>
</g>
<!-- Node16 -->
<g id="node16" class="node"><title>Node16</title>
<polygon fill="none" stroke="#bfbfbf" points="1203.5,-297 1203.5,-316 1301.5,-316 1301.5,-297 1203.5,-297"/>
<text text-anchor="middle" x="1252.5" y="-304" font-family="Helvetica,sans-Serif" font-size="10.00">Framework/Task.h</text>
</g>
<!-- Node12&#45;&gt;Node16 -->
<g id="edge16" class="edge"><title>Node12&#45;&gt;Node16</title>
<path fill="none" stroke="midnightblue" d="M1117.22,-363.869C1144.14,-352.65 1191.36,-332.977 1222.28,-320.092"/>
<polygon fill="midnightblue" stroke="midnightblue" points="1223.81,-323.244 1231.7,-316.167 1221.12,-316.783 1223.81,-323.244"/>
</g>
<!-- Node17 -->
<g id="node17" class="node"><title>Node17</title>
<polygon fill="none" stroke="#bfbfbf" points="0,-297 0,-316 151,-316 151,-297 0,-297"/>
<text text-anchor="middle" x="75.5" y="-304" font-family="Helvetica,sans-Serif" font-size="10.00">Monitoring/MonitoringFactory.h</text>
</g>
<!-- Node12&#45;&gt;Node17 -->
<g id="edge17" class="edge"><title>Node12&#45;&gt;Node17</title>
<path fill="none" stroke="midnightblue" d="M1059.16,-363.934C1047.77,-361.632 1035.18,-359.396 1023.5,-358 644.531,-312.686 545.23,-360.421 165.5,-322 154.65,-320.902 143.12,-319.345 132.063,-317.655"/>
<polygon fill="midnightblue" stroke="midnightblue" points="132.498,-314.18 122.074,-316.075 131.405,-321.094 132.498,-314.18"/>
</g>
<!-- Node18 -->
<g id="node18" class="node"><title>Node18</title>
<g id="a_node18"><a xlink:href="CheckInterface_8h.html" target="_top" xlink:title="QualityControl/CheckInterface.h">
<polygon fill="none" stroke="black" points="208,-179.5 208,-198.5 365,-198.5 365,-179.5 208,-179.5"/>
<text text-anchor="middle" x="286.5" y="-186.5" font-family="Helvetica,sans-Serif" font-size="10.00">QualityControl/CheckInterface.h</text>
</a>
</g>
</g>
<!-- Node12&#45;&gt;Node18 -->
<g id="edge18" class="edge"><title>Node12&#45;&gt;Node18</title>
<path fill="none" stroke="midnightblue" d="M1056.44,-363.938C1045.77,-361.822 1034.22,-359.683 1023.5,-358 886.037,-336.428 848.65,-350.715 712.5,-322 561.943,-290.247 388.424,-228.248 318.319,-202.097"/>
<polygon fill="midnightblue" stroke="midnightblue" points="319.334,-198.739 308.741,-198.506 316.876,-205.294 319.334,-198.739"/>
</g>
<!-- Node19 -->
<g id="node19" class="node"><title>Node19</title>
<g id="a_node19"><a xlink:href="MonitorObject_8h.html" target="_top" xlink:title="QualityControl/MonitorObject.h">
<polygon fill="none" stroke="black" points="262,-123.5 262,-142.5 413,-142.5 413,-123.5 262,-123.5"/>
<text text-anchor="middle" x="337.5" y="-130.5" font-family="Helvetica,sans-Serif" font-size="10.00">QualityControl/MonitorObject.h</text>
</a>
</g>
</g>
<!-- Node12&#45;&gt;Node19 -->
<g id="edge33" class="edge"><title>Node12&#45;&gt;Node19</title>
<path fill="none" stroke="midnightblue" d="M1057.62,-363.93C1046.63,-361.739 1034.63,-359.563 1023.5,-358 838.607,-332.036 309.006,-349.492 198.5,-199 177.289,-170.114 216.751,-153.638 258.979,-144.505"/>
<polygon fill="midnightblue" stroke="midnightblue" points="259.763,-147.918 268.869,-142.503 258.374,-141.057 259.763,-147.918"/>
</g>
<!-- Node26 -->
<g id="node26" class="node"><title>Node26</title>
<g id="a_node26"><a xlink:href="DatabaseInterface_8h.html" target="_top" xlink:title="QualityControl/DatabaseInterface.h">
<polygon fill="none" stroke="black" points="383.5,-179.5 383.5,-198.5 553.5,-198.5 553.5,-179.5 383.5,-179.5"/>
<text text-anchor="middle" x="468.5" y="-186.5" font-family="Helvetica,sans-Serif" font-size="10.00">QualityControl/DatabaseInterface.h</text>
</a>
</g>
</g>
<!-- Node12&#45;&gt;Node26 -->
<g id="edge29" class="edge"><title>Node12&#45;&gt;Node26</title>
<path fill="none" stroke="midnightblue" d="M1053.7,-363.949C935.899,-340.279 612.615,-274.37 567.5,-255 537.163,-241.975 505.934,-219.717 486.868,-204.933"/>
<polygon fill="midnightblue" stroke="midnightblue" points="488.792,-201.993 478.776,-198.538 484.451,-207.484 488.792,-201.993"/>
</g>
<!-- Node28 -->
<g id="node28" class="node"><title>Node28</title>
<g id="a_node28"><a xlink:href="QcInfoLogger_8h.html" target="_top" xlink:title="QualityControl/QcInfoLogger.h">
<polygon fill="none" stroke="black" points="863,-297 863,-316 1012,-316 1012,-297 863,-297"/>
<text text-anchor="middle" x="937.5" y="-304" font-family="Helvetica,sans-Serif" font-size="10.00">QualityControl/QcInfoLogger.h</text>
</a>
</g>
</g>
<!-- Node12&#45;&gt;Node28 -->
<g id="edge34" class="edge"><title>Node12&#45;&gt;Node28</title>
<path fill="none" stroke="midnightblue" d="M1075.39,-363.869C1047.87,-352.619 999.552,-332.867 968.041,-319.985"/>
<polygon fill="midnightblue" stroke="midnightblue" points="969.029,-316.608 958.448,-316.064 966.38,-323.088 969.029,-316.608"/>
</g>
<!-- Node18&#45;&gt;Node19 -->
<g id="edge19" class="edge"><title>Node18&#45;&gt;Node19</title>
<path fill="none" stroke="midnightblue" d="M294.922,-179.083C302.348,-171.22 313.352,-159.569 322.312,-150.081"/>
<polygon fill="midnightblue" stroke="midnightblue" points="324.913,-152.424 329.235,-142.751 319.824,-147.618 324.913,-152.424"/>
</g>
<!-- Node24 -->
<g id="node24" class="node"><title>Node24</title>
<g id="a_node24"><a xlink:href="Quality_8h.html" target="_top" xlink:title="QualityControl/Quality.h">
<polygon fill="none" stroke="black" points="484,-62 484,-81 605,-81 605,-62 484,-62"/>
<text text-anchor="middle" x="544.5" y="-69" font-family="Helvetica,sans-Serif" font-size="10.00">QualityControl/Quality.h</text>
</a>
</g>
</g>
<!-- Node18&#45;&gt;Node24 -->
<g id="edge28" class="edge"><title>Node18&#45;&gt;Node24</title>
<path fill="none" stroke="midnightblue" d="M317.996,-179.433C345.791,-171.422 387.116,-158.401 421.5,-143 441.161,-134.194 491.447,-104.466 521.282,-86.5467"/>
<polygon fill="midnightblue" stroke="midnightblue" points="523.424,-89.3424 530.185,-81.1852 519.813,-83.3458 523.424,-89.3424"/>
</g>
<!-- Node20 -->
<g id="node20" class="node"><title>Node20</title>
<polygon fill="none" stroke="#bfbfbf" points="411.5,-62 411.5,-81 465.5,-81 465.5,-62 411.5,-62"/>
<text text-anchor="middle" x="438.5" y="-69" font-family="Helvetica,sans-Serif" font-size="10.00">iostream</text>
</g>
<!-- Node19&#45;&gt;Node20 -->
<g id="edge20" class="edge"><title>Node19&#45;&gt;Node20</title>
<path fill="none" stroke="midnightblue" d="M351.971,-123.475C368.471,-113.755 395.678,-97.7266 415.181,-86.2372"/>
<polygon fill="midnightblue" stroke="midnightblue" points="417.216,-89.1005 424.056,-81.0091 413.663,-83.0693 417.216,-89.1005"/>
</g>
<!-- Node21 -->
<g id="node21" class="node"><title>Node21</title>
<polygon fill="none" stroke="#bfbfbf" points="320,-62 320,-81 355,-81 355,-62 320,-62"/>
<text text-anchor="middle" x="337.5" y="-69" font-family="Helvetica,sans-Serif" font-size="10.00">map</text>
</g>
<!-- Node19&#45;&gt;Node21 -->
<g id="edge21" class="edge"><title>Node19&#45;&gt;Node21</title>
<path fill="none" stroke="midnightblue" d="M337.5,-123.475C337.5,-115.08 337.5,-101.981 337.5,-91.1631"/>
<polygon fill="midnightblue" stroke="midnightblue" points="341,-91.0091 337.5,-81.0091 334,-91.0091 341,-91.0091"/>
</g>
<!-- Node22 -->
<g id="node22" class="node"><title>Node22</title>
<polygon fill="none" stroke="#bfbfbf" points="398,-0.5 398,-19.5 457,-19.5 457,-0.5 398,-0.5"/>
<text text-anchor="middle" x="427.5" y="-7.5" font-family="Helvetica,sans-Serif" font-size="10.00">TObject.h</text>
</g>
<!-- Node19&#45;&gt;Node22 -->
<g id="edge22" class="edge"><title>Node19&#45;&gt;Node22</title>
<path fill="none" stroke="midnightblue" d="M343.973,-123.298C358.827,-103.327 395.575,-53.9212 415.001,-27.8036"/>
<polygon fill="midnightblue" stroke="midnightblue" points="417.926,-29.7359 421.086,-19.6232 412.31,-25.5581 417.926,-29.7359"/>
</g>
<!-- Node23 -->
<g id="node23" class="node"><title>Node23</title>
<polygon fill="none" stroke="#bfbfbf" points="185.5,-62 185.5,-81 301.5,-81 301.5,-62 185.5,-62"/>
<text text-anchor="middle" x="243.5" y="-69" font-family="Helvetica,sans-Serif" font-size="10.00">Common/Exceptions.h</text>
</g>
<!-- Node19&#45;&gt;Node23 -->
<g id="edge23" class="edge"><title>Node19&#45;&gt;Node23</title>
<path fill="none" stroke="midnightblue" d="M324.032,-123.475C308.815,-113.843 283.813,-98.0175 265.699,-86.5517"/>
<polygon fill="midnightblue" stroke="midnightblue" points="267.264,-83.4002 256.943,-81.0091 263.521,-89.3149 267.264,-83.4002"/>
</g>
<!-- Node19&#45;&gt;Node24 -->
<g id="edge24" class="edge"><title>Node19&#45;&gt;Node24</title>
<path fill="none" stroke="midnightblue" d="M367.158,-123.475C403.434,-113.048 464.964,-95.3618 505.164,-83.8066"/>
<polygon fill="midnightblue" stroke="midnightblue" points="506.253,-87.1355 514.897,-81.0091 504.319,-80.4079 506.253,-87.1355"/>
</g>
<!-- Node24&#45;&gt;Node4 -->
<g id="edge27" class="edge"><title>Node24&#45;&gt;Node4</title>
<path fill="none" stroke="midnightblue" d="M605.127,-62.7995C624.983,-60.4255 647.165,-57.9309 667.5,-56 894.791,-34.4184 1169.54,-17.9384 1260.56,-12.733"/>
<polygon fill="midnightblue" stroke="midnightblue" points="1260.95,-16.2166 1270.73,-12.1545 1260.55,-9.22791 1260.95,-16.2166"/>
</g>
<!-- Node24&#45;&gt;Node22 -->
<g id="edge25" class="edge"><title>Node24&#45;&gt;Node22</title>
<path fill="none" stroke="midnightblue" d="M527.737,-61.9751C508.275,-52.078 475.955,-35.6416 453.289,-24.1151"/>
<polygon fill="midnightblue" stroke="midnightblue" points="454.732,-20.9224 444.232,-19.5091 451.559,-27.1619 454.732,-20.9224"/>
</g>
<!-- Node25 -->
<g id="node25" class="node"><title>Node25</title>
<polygon fill="none" stroke="#bfbfbf" points="518.5,-0.5 518.5,-19.5 570.5,-19.5 570.5,-0.5 518.5,-0.5"/>
<text text-anchor="middle" x="544.5" y="-7.5" font-family="Helvetica,sans-Serif" font-size="10.00">ostream</text>
</g>
<!-- Node24&#45;&gt;Node25 -->
<g id="edge26" class="edge"><title>Node24&#45;&gt;Node25</title>
<path fill="none" stroke="midnightblue" d="M544.5,-61.9751C544.5,-53.5803 544.5,-40.4806 544.5,-29.6631"/>
<polygon fill="midnightblue" stroke="midnightblue" points="548,-29.5091 544.5,-19.5091 541,-29.5091 548,-29.5091"/>
</g>
<!-- Node26&#45;&gt;Node9 -->
<g id="edge31" class="edge"><title>Node26&#45;&gt;Node9</title>
<path fill="none" stroke="midnightblue" d="M553.643,-181.112C672.712,-171.21 878.194,-153.043 911.5,-143 929.773,-137.49 931.299,-128.743 949.5,-123 1077.43,-82.6305 1238.3,-74.4376 1309.15,-72.8425"/>
<polygon fill="midnightblue" stroke="midnightblue" points="1309.41,-76.3384 1319.34,-72.6456 1309.27,-69.3397 1309.41,-76.3384"/>
</g>
<!-- Node26&#45;&gt;Node19 -->
<g id="edge30" class="edge"><title>Node26&#45;&gt;Node19</title>
<path fill="none" stroke="midnightblue" d="M447.743,-179.444C426.184,-170.557 392.237,-156.563 367.706,-146.451"/>
<polygon fill="midnightblue" stroke="midnightblue" points="368.739,-143.092 358.16,-142.516 366.072,-149.563 368.739,-143.092"/>
</g>
<!-- Node27 -->
<g id="node27" class="node"><title>Node27</title>
<polygon fill="none" stroke="#bfbfbf" points="470,-123.5 470,-142.5 553,-142.5 553,-123.5 470,-123.5"/>
<text text-anchor="middle" x="511.5" y="-130.5" font-family="Helvetica,sans-Serif" font-size="10.00">unordered_map</text>
</g>
<!-- Node26&#45;&gt;Node27 -->
<g id="edge32" class="edge"><title>Node26&#45;&gt;Node27</title>
<path fill="none" stroke="midnightblue" d="M475.601,-179.083C481.737,-171.377 490.77,-160.033 498.239,-150.653"/>
<polygon fill="midnightblue" stroke="midnightblue" points="501.04,-152.754 504.532,-142.751 495.564,-148.394 501.04,-152.754"/>
</g>
<!-- Node28&#45;&gt;Node20 -->
<g id="edge60" class="edge"><title>Node28&#45;&gt;Node20</title>
<path fill="none" stroke="midnightblue" d="M862.859,-298.577C788.744,-288.194 675.617,-262.449 600.5,-199 571.496,-174.502 589.456,-148.687 561.5,-123 560.587,-122.161 505.477,-99.6934 469.342,-85.0122"/>
<polygon fill="midnightblue" stroke="midnightblue" points="470.296,-81.6221 459.714,-81.1022 467.662,-88.1077 470.296,-81.6221"/>
</g>
<!-- Node29 -->
<g id="node29" class="node"><title>Node29</title>
<g id="a_node29"><a xlink:href="TaskInterface_8h.html" target="_top" xlink:title="TaskInterface.h">
<polygon fill="none" stroke="black" points="895,-235.5 895,-254.5 980,-254.5 980,-235.5 895,-235.5"/>
<text text-anchor="middle" x="937.5" y="-242.5" font-family="Helvetica,sans-Serif" font-size="10.00">TaskInterface.h</text>
</a>
</g>
</g>
<!-- Node28&#45;&gt;Node29 -->
<g id="edge35" class="edge"><title>Node28&#45;&gt;Node29</title>
<path fill="none" stroke="midnightblue" d="M937.5,-296.975C937.5,-288.58 937.5,-275.481 937.5,-264.663"/>
<polygon fill="midnightblue" stroke="midnightblue" points="941,-264.509 937.5,-254.509 934,-264.509 941,-264.509"/>
</g>
<!-- Node44 -->
<g id="node44" class="node"><title>Node44</title>
<polygon fill="none" stroke="#bfbfbf" points="998.5,-235.5 998.5,-254.5 1128.5,-254.5 1128.5,-235.5 998.5,-235.5"/>
<text text-anchor="middle" x="1063.5" y="-242.5" font-family="Helvetica,sans-Serif" font-size="10.00">InfoLogger/InfoLogger.hxx</text>
</g>
<!-- Node28&#45;&gt;Node44 -->
<g id="edge59" class="edge"><title>Node28&#45;&gt;Node44</title>
<path fill="none" stroke="midnightblue" d="M955.553,-296.975C976.698,-286.99 1011.94,-270.348 1036.38,-258.807"/>
<polygon fill="midnightblue" stroke="midnightblue" points="1037.93,-261.944 1045.48,-254.509 1034.94,-255.614 1037.93,-261.944"/>
</g>
<!-- Node29&#45;&gt;Node9 -->
<g id="edge36" class="edge"><title>Node29&#45;&gt;Node9</title>
<path fill="none" stroke="midnightblue" d="M980.035,-236.427C983.234,-235.922 986.416,-235.44 989.5,-235 1060.34,-224.894 1254.9,-245.252 1309.5,-199 1341.2,-172.149 1346.02,-119.572 1346.16,-91.3968"/>
<polygon fill="midnightblue" stroke="midnightblue" points="1349.66,-91.2181 1346.01,-81.2716 1342.66,-91.3229 1349.66,-91.2181"/>
</g>
<!-- Node29&#45;&gt;Node15 -->
<g id="edge40" class="edge"><title>Node29&#45;&gt;Node15</title>
<path fill="none" stroke="midnightblue" d="M980.031,-236.401C983.231,-235.902 986.415,-235.428 989.5,-235 1121.59,-216.659 1499.14,-247.093 1582.5,-143 1592.72,-130.237 1592,-111.598 1588.98,-96.691"/>
<polygon fill="midnightblue" stroke="midnightblue" points="1592.29,-95.501 1586.49,-86.6328 1585.49,-97.1805 1592.29,-95.501"/>
</g>
<!-- Node30 -->
<g id="node30" class="node"><title>Node30</title>
<polygon fill="none" stroke="#bfbfbf" points="610,-179.5 610,-198.5 659,-198.5 659,-179.5 610,-179.5"/>
<text text-anchor="middle" x="634.5" y="-186.5" font-family="Helvetica,sans-Serif" font-size="10.00">cassert</text>
</g>
<!-- Node29&#45;&gt;Node30 -->
<g id="edge37" class="edge"><title>Node29&#45;&gt;Node30</title>
<path fill="none" stroke="midnightblue" d="M894.69,-238.23C843.214,-230.99 754.04,-217.493 669.099,-199.19"/>
<polygon fill="midnightblue" stroke="midnightblue" points="669.816,-195.764 659.3,-197.052 668.324,-202.603 669.816,-195.764"/>
</g>
<!-- Node31 -->
<g id="node31" class="node"><title>Node31</title>
<polygon fill="none" stroke="#bfbfbf" points="677,-179.5 677,-198.5 802,-198.5 802,-179.5 677,-179.5"/>
<text text-anchor="middle" x="739.5" y="-186.5" font-family="Helvetica,sans-Serif" font-size="10.00">Framework/InitContext.h</text>
</g>
<!-- Node29&#45;&gt;Node31 -->
<g id="edge38" class="edge"><title>Node29&#45;&gt;Node31</title>
<path fill="none" stroke="midnightblue" d="M906.126,-235.444C872.237,-226.201 818.097,-211.436 780.776,-201.257"/>
<polygon fill="midnightblue" stroke="midnightblue" points="781.295,-197.771 770.727,-198.516 779.454,-204.524 781.295,-197.771"/>
</g>
<!-- Node32 -->
<g id="node32" class="node"><title>Node32</title>
<polygon fill="none" stroke="#bfbfbf" points="820.5,-179.5 820.5,-198.5 980.5,-198.5 980.5,-179.5 820.5,-179.5"/>
<text text-anchor="middle" x="900.5" y="-186.5" font-family="Helvetica,sans-Serif" font-size="10.00">Framework/ProcessingContext.h</text>
</g>
<!-- Node29&#45;&gt;Node32 -->
<g id="edge39" class="edge"><title>Node29&#45;&gt;Node32</title>
<path fill="none" stroke="midnightblue" d="M931.39,-235.083C926.218,-227.534 918.654,-216.495 912.306,-207.23"/>
<polygon fill="midnightblue" stroke="midnightblue" points="915.036,-205.022 906.496,-198.751 909.261,-208.979 915.036,-205.022"/>
</g>
<!-- Node33 -->
<g id="node33" class="node"><title>Node33</title>
<g id="a_node33"><a xlink:href="Activity_8h.html" target="_top" xlink:title="QualityControl/Activity.h">
<polygon fill="none" stroke="black" points="999,-179.5 999,-198.5 1122,-198.5 1122,-179.5 999,-179.5"/>
<text text-anchor="middle" x="1060.5" y="-186.5" font-family="Helvetica,sans-Serif" font-size="10.00">QualityControl/Activity.h</text>
</a>
</g>
</g>
<!-- Node29&#45;&gt;Node33 -->
<g id="edge41" class="edge"><title>Node29&#45;&gt;Node33</title>
<path fill="none" stroke="midnightblue" d="M956.99,-235.444C977.142,-226.596 1008.82,-212.687 1031.83,-202.586"/>
<polygon fill="midnightblue" stroke="midnightblue" points="1033.35,-205.741 1041.1,-198.516 1030.54,-199.332 1033.35,-205.741"/>
</g>
<!-- Node34 -->
<g id="node34" class="node"><title>Node34</title>
<g id="a_node34"><a xlink:href="ObjectsManager_8h.html" target="_top" xlink:title="QualityControl/ObjectsManager.h">
<polygon fill="none" stroke="black" points="1140,-179.5 1140,-198.5 1301,-198.5 1301,-179.5 1140,-179.5"/>
<text text-anchor="middle" x="1220.5" y="-186.5" font-family="Helvetica,sans-Serif" font-size="10.00">QualityControl/ObjectsManager.h</text>
</a>
</g>
</g>
<!-- Node29&#45;&gt;Node34 -->
<g id="edge42" class="edge"><title>Node29&#45;&gt;Node34</title>
<path fill="none" stroke="midnightblue" d="M980.174,-235.857C1029.64,-226.418 1111.29,-210.839 1165.48,-200.498"/>
<polygon fill="midnightblue" stroke="midnightblue" points="1166.44,-203.879 1175.6,-198.567 1165.13,-197.003 1166.44,-203.879"/>
</g>
<!-- Node34&#45;&gt;Node4 -->
<g id="edge58" class="edge"><title>Node34&#45;&gt;Node4</title>
<path fill="none" stroke="midnightblue" d="M1235.13,-179.243C1246.97,-171.328 1263.02,-158.552 1271.5,-143 1291.31,-106.659 1293.21,-56.7884 1292.55,-29.9468"/>
<polygon fill="midnightblue" stroke="midnightblue" points="1296.04,-29.5138 1292.14,-19.6619 1289.05,-29.7939 1296.04,-29.5138"/>
</g>
<!-- Node34&#45;&gt;Node19 -->
<g id="edge43" class="edge"><title>Node34&#45;&gt;Node19</title>
<path fill="none" stroke="midnightblue" d="M1139.56,-179.729C1136.5,-179.473 1133.47,-179.229 1130.5,-179 833.169,-156.158 758.109,-161.882 460.5,-143 448.564,-142.243 435.98,-141.387 423.6,-140.513"/>
<polygon fill="midnightblue" stroke="midnightblue" points="423.492,-136.996 413.268,-139.776 422.993,-143.979 423.492,-136.996"/>
</g>
<!-- Node34&#45;&gt;Node24 -->
<g id="edge44" class="edge"><title>Node34&#45;&gt;Node24</title>
<path fill="none" stroke="midnightblue" d="M1139.55,-179.863C1136.5,-179.57 1133.47,-179.281 1130.5,-179 951.033,-162.031 902.052,-183.96 726.5,-143 669.191,-129.629 605.877,-101.953 571.081,-85.5355"/>
<polygon fill="midnightblue" stroke="midnightblue" points="572.584,-82.3747 562.052,-81.2247 569.568,-88.6917 572.584,-82.3747"/>
</g>
<!-- Node35 -->
<g id="node35" class="node"><title>Node35</title>
<g id="a_node35"><a xlink:href="TaskConfig_8h.html" target="_top" xlink:title="QualityControl/TaskConfig.h">
<polygon fill="none" stroke="black" points="1433.5,-123.5 1433.5,-142.5 1573.5,-142.5 1573.5,-123.5 1433.5,-123.5"/>
<text text-anchor="middle" x="1503.5" y="-130.5" font-family="Helvetica,sans-Serif" font-size="10.00">QualityControl/TaskConfig.h</text>
</a>
</g>
</g>
<!-- Node34&#45;&gt;Node35 -->
<g id="edge45" class="edge"><title>Node34&#45;&gt;Node35</title>
<path fill="none" stroke="midnightblue" d="M1265.34,-179.444C1315.12,-169.944 1395.48,-154.611 1448.89,-144.42"/>
<polygon fill="midnightblue" stroke="midnightblue" points="1449.7,-147.829 1458.87,-142.516 1448.39,-140.953 1449.7,-147.829"/>
</g>
<!-- Node36 -->
<g id="node36" class="node"><title>Node36</title>
<g id="a_node36"><a xlink:href="ServiceDiscovery_8h_source.html" target="_top" xlink:title="QualityControl/ServiceDiscovery.h">
<polygon fill="none" stroke="black" points="736,-123.5 736,-142.5 903,-142.5 903,-123.5 736,-123.5"/>
<text text-anchor="middle" x="819.5" y="-130.5" font-family="Helvetica,sans-Serif" font-size="10.00">QualityControl/ServiceDiscovery.h</text>
</a>
</g>
</g>
<!-- Node34&#45;&gt;Node36 -->
<g id="edge48" class="edge"><title>Node34&#45;&gt;Node36</title>
<path fill="none" stroke="midnightblue" d="M1156.96,-179.444C1085.1,-169.767 968.279,-154.035 892.67,-143.853"/>
<polygon fill="midnightblue" stroke="midnightblue" points="893.12,-140.382 882.742,-142.516 892.186,-147.32 893.12,-140.382"/>
</g>
<!-- Node41 -->
<g id="node41" class="node"><title>Node41</title>
<polygon fill="none" stroke="#bfbfbf" points="1105,-123.5 1105,-142.5 1174,-142.5 1174,-123.5 1105,-123.5"/>
<text text-anchor="middle" x="1139.5" y="-130.5" font-family="Helvetica,sans-Serif" font-size="10.00">TObjArray.h</text>
</g>
<!-- Node34&#45;&gt;Node41 -->
<g id="edge55" class="edge"><title>Node34&#45;&gt;Node41</title>
<path fill="none" stroke="midnightblue" d="M1207.49,-179.324C1194.97,-170.979 1175.82,-158.212 1161.03,-148.352"/>
<polygon fill="midnightblue" stroke="midnightblue" points="1162.74,-145.289 1152.48,-142.655 1158.86,-151.114 1162.74,-145.289"/>
</g>
<!-- Node42 -->
<g id="node42" class="node"><title>Node42</title>
<polygon fill="none" stroke="#bfbfbf" points="1192,-123.5 1192,-142.5 1263,-142.5 1263,-123.5 1192,-123.5"/>
<text text-anchor="middle" x="1227.5" y="-130.5" font-family="Helvetica,sans-Serif" font-size="10.00">TObjString.h</text>
</g>
<!-- Node34&#45;&gt;Node42 -->
<g id="edge56" class="edge"><title>Node34&#45;&gt;Node42</title>
<path fill="none" stroke="midnightblue" d="M1221.66,-179.083C1222.58,-171.927 1223.92,-161.635 1225.08,-152.691"/>
<polygon fill="midnightblue" stroke="midnightblue" points="1228.55,-153.118 1226.37,-142.751 1221.61,-152.218 1228.55,-153.118"/>
</g>
<!-- Node43 -->
<g id="node43" class="node"><title>Node43</title>
<polygon fill="none" stroke="#bfbfbf" points="958.5,-123.5 958.5,-142.5 1086.5,-142.5 1086.5,-123.5 958.5,-123.5"/>
<text text-anchor="middle" x="1022.5" y="-130.5" font-family="Helvetica,sans-Serif" font-size="10.00">boost/concept_check.hpp</text>
</g>
<!-- Node34&#45;&gt;Node43 -->
<g id="edge57" class="edge"><title>Node34&#45;&gt;Node43</title>
<path fill="none" stroke="midnightblue" d="M1189.13,-179.444C1155.24,-170.201 1101.1,-155.436 1063.78,-145.257"/>
<polygon fill="midnightblue" stroke="midnightblue" points="1064.3,-141.771 1053.73,-142.516 1062.45,-148.524 1064.3,-141.771"/>
</g>
<!-- Node35&#45;&gt;Node4 -->
<g id="edge46" class="edge"><title>Node35&#45;&gt;Node4</title>
<path fill="none" stroke="midnightblue" d="M1490.43,-123.414C1468.2,-108.923 1421.45,-78.9479 1380.5,-56 1360.11,-44.573 1336.47,-32.6838 1318.69,-23.9976"/>
<polygon fill="midnightblue" stroke="midnightblue" points="1319.99,-20.7395 1309.46,-19.5248 1316.94,-27.0378 1319.99,-20.7395"/>
</g>
<!-- Node35&#45;&gt;Node15 -->
<g id="edge47" class="edge"><title>Node35&#45;&gt;Node15</title>
<path fill="none" stroke="midnightblue" d="M1514.68,-123.475C1525.14,-115.492 1541.18,-103.254 1554.93,-92.7703"/>
<polygon fill="midnightblue" stroke="midnightblue" points="1557.29,-95.3708 1563.12,-86.523 1553.04,-89.8053 1557.29,-95.3708"/>
</g>
<!-- Node36&#45;&gt;Node4 -->
<g id="edge52" class="edge"><title>Node36&#45;&gt;Node4</title>
<path fill="none" stroke="midnightblue" d="M852.69,-123.492C940.315,-101.028 1176.9,-40.3785 1261.18,-18.7737"/>
<polygon fill="midnightblue" stroke="midnightblue" points="1262.09,-22.1535 1270.9,-16.2798 1260.35,-15.3727 1262.09,-22.1535"/>
</g>
<!-- Node36&#45;&gt;Node9 -->
<g id="edge51" class="edge"><title>Node36&#45;&gt;Node9</title>
<path fill="none" stroke="midnightblue" d="M894.863,-123.475C1009.8,-110.473 1224.52,-86.1854 1309.52,-76.5701"/>
<polygon fill="midnightblue" stroke="midnightblue" points="1309.92,-80.0473 1319.46,-75.4454 1309.13,-73.0917 1309.92,-80.0473"/>
</g>
<!-- Node37 -->
<g id="node37" class="node"><title>Node37</title>
<polygon fill="none" stroke="#bfbfbf" points="928.5,-62 928.5,-81 974.5,-81 974.5,-62 928.5,-62"/>
<text text-anchor="middle" x="951.5" y="-69" font-family="Helvetica,sans-Serif" font-size="10.00">atomic</text>
</g>
<!-- Node36&#45;&gt;Node37 -->
<g id="edge49" class="edge"><title>Node36&#45;&gt;Node37</title>
<path fill="none" stroke="midnightblue" d="M838.677,-123.388C858.813,-114.342 891.391,-99.6927 919.5,-87 920.688,-86.4635 921.901,-85.9154 923.126,-85.3616"/>
<polygon fill="midnightblue" stroke="midnightblue" points="924.885,-88.4074 932.552,-81.0955 921.999,-82.0301 924.885,-88.4074"/>
</g>
<!-- Node38 -->
<g id="node38" class="node"><title>Node38</title>
<polygon fill="none" stroke="#bfbfbf" points="677,-62 677,-81 736,-81 736,-62 677,-62"/>
<text text-anchor="middle" x="706.5" y="-69" font-family="Helvetica,sans-Serif" font-size="10.00">curl/curl.h</text>
</g>
<!-- Node36&#45;&gt;Node38 -->
<g id="edge50" class="edge"><title>Node36&#45;&gt;Node38</title>
<path fill="none" stroke="midnightblue" d="M803.31,-123.475C784.598,-113.622 753.577,-97.2883 731.701,-85.7697"/>
<polygon fill="midnightblue" stroke="midnightblue" points="733.139,-82.5713 722.66,-81.0091 729.878,-88.7651 733.139,-82.5713"/>
</g>
<!-- Node39 -->
<g id="node39" class="node"><title>Node39</title>
<polygon fill="none" stroke="#bfbfbf" points="754.5,-62 754.5,-81 798.5,-81 798.5,-62 754.5,-62"/>
<text text-anchor="middle" x="776.5" y="-69" font-family="Helvetica,sans-Serif" font-size="10.00">thread</text>
</g>
<!-- Node36&#45;&gt;Node39 -->
<g id="edge53" class="edge"><title>Node36&#45;&gt;Node39</title>
<path fill="none" stroke="midnightblue" d="M813.339,-123.475C806.889,-114.55 796.596,-100.307 788.527,-89.1425"/>
<polygon fill="midnightblue" stroke="midnightblue" points="791.344,-87.064 782.649,-81.0091 785.67,-91.1642 791.344,-87.064"/>
</g>
<!-- Node40 -->
<g id="node40" class="node"><title>Node40</title>
<polygon fill="none" stroke="#bfbfbf" points="816.5,-56.5 816.5,-86.5 910.5,-86.5 910.5,-56.5 816.5,-56.5"/>
<text text-anchor="start" x="824.5" y="-74.5" font-family="Helvetica,sans-Serif" font-size="10.00">boost/asio/ip/host</text>
<text text-anchor="middle" x="863.5" y="-63.5" font-family="Helvetica,sans-Serif" font-size="10.00">_name.hpp</text>
</g>
<!-- Node36&#45;&gt;Node40 -->
<g id="edge54" class="edge"><title>Node36&#45;&gt;Node40</title>
<path fill="none" stroke="midnightblue" d="M825.804,-123.475C831.373,-115.944 839.743,-104.626 847.182,-94.5663"/>
<polygon fill="midnightblue" stroke="midnightblue" points="849.998,-96.6444 853.13,-86.523 844.37,-92.4823 849.998,-96.6444"/>
</g>
<!-- Node46 -->
<g id="node46" class="node"><title>Node46</title>
<polygon fill="none" stroke="#bfbfbf" points="2163,-291.5 2163,-321.5 2298,-321.5 2298,-291.5 2163,-291.5"/>
<text text-anchor="start" x="2171" y="-309.5" font-family="Helvetica,sans-Serif" font-size="10.00">Configuration/Configuration</text>
<text text-anchor="middle" x="2230.5" y="-298.5" font-family="Helvetica,sans-Serif" font-size="10.00">Factory.h</text>
</g>
<!-- Node45&#45;&gt;Node46 -->
<g id="edge62" class="edge"><title>Node45&#45;&gt;Node46</title>
<path fill="none" stroke="midnightblue" d="M2230.5,-363.734C2230.5,-355.541 2230.5,-342.923 2230.5,-331.714"/>
<polygon fill="midnightblue" stroke="midnightblue" points="2234,-331.589 2230.5,-321.589 2227,-331.589 2234,-331.589"/>
</g>
</g>
</svg>
