<?xml version="1.0" encoding="UTF-8" standalone="no"?>
<!DOCTYPE svg PUBLIC "-//W3C//DTD SVG 1.1//EN"
 "http://www.w3.org/Graphics/SVG/1.1/DTD/svg11.dtd">
<!-- Generated by graphviz version 2.38.0 (20140413.2041)
 -->
<!-- Title: Modules/Skeleton/src/SkeletonTask.cxx Pages: 1 -->
<!--zoomable 386 -->
<svg id="main" version="1.1" xmlns="http://www.w3.org/2000/svg" xmlns:xlink="http://www.w3.org/1999/xlink" xml:space="preserve" onload="init(evt)">
<style type="text/css"><![CDATA[
.edge:hover path { stroke: red; }
.edge:hover polygon { stroke: red; fill: red; }
]]></style>
<script type="text/javascript"><![CDATA[
var edges = document.getElementsByTagName('g');
if (edges && edges.length) {
  for (var i=0;i<edges.length;i++) {
    if (edges[i].id.substr(0,4)=='edge') {
      edges[i].setAttribute('class','edge');
    }
  }
}
]]></script>
        <defs>
                <circle id="rim" cx="0" cy="0" r="7"/>
                <circle id="rim2" cx="0" cy="0" r="3.5"/>
                <g id="zoomPlus">
                        <use xlink:href="#rim" fill="#404040">
                                <set attributeName="fill" to="#808080" begin="zoomplus.mouseover" end="zoomplus.mouseout"/>
                        </use>
                        <path d="M-4,0h8M0,-4v8" fill="none" stroke="white" stroke-width="1.5" pointer-events="none"/>
                </g>
                <g id="zoomMin">
                        <use xlink:href="#rim" fill="#404040">
                                <set attributeName="fill" to="#808080" begin="zoomminus.mouseover" end="zoomminus.mouseout"/>
                        </use>
                        <path d="M-4,0h8" fill="none" stroke="white" stroke-width="1.5" pointer-events="none"/>
                </g>
                <g id="dirArrow">
                        <path fill="none" stroke="white" stroke-width="1.5" d="M0,-3.0v7 M-2.5,-0.5L0,-3.0L2.5,-0.5"/>
                </g>
               <g id="resetDef">
                       <use xlink:href="#rim2" fill="#404040">
                               <set attributeName="fill" to="#808080" begin="reset.mouseover" end="reset.mouseout"/>
                       </use>
               </g>
        </defs>

<script type="text/javascript">
var viewWidth = 1166;
var viewHeight = 386;
var sectionId = 'dynsection-0';
</script>
<script xlink:href="svgpan.js"/>
<svg id="graph" class="graph">
<g id="viewport">
<title>Modules/Skeleton/src/SkeletonTask.cxx</title>
<!-- Node1 -->
<g id="node1" class="node"><title>Node1</title>
<polygon fill="#bfbfbf" stroke="black" points="252.5,-347.5 252.5,-377.5 363.5,-377.5 363.5,-347.5 252.5,-347.5"/>
<text text-anchor="start" x="260.5" y="-365.5" font-family="Helvetica,sans-Serif" font-size="10.00">Modules/Skeleton/src</text>
<text text-anchor="middle" x="308" y="-354.5" font-family="Helvetica,sans-Serif" font-size="10.00">/SkeletonTask.cxx</text>
</g>
<!-- Node2 -->
<g id="node2" class="node"><title>Node2</title>
<polygon fill="none" stroke="#bfbfbf" points="151.5,-291.5 151.5,-310.5 216.5,-310.5 216.5,-291.5 151.5,-291.5"/>
<text text-anchor="middle" x="184" y="-298.5" font-family="Helvetica,sans-Serif" font-size="10.00">TCanvas.h</text>
</g>
<!-- Node1&#45;&gt;Node2 -->
<g id="edge1" class="edge"><title>Node1&#45;&gt;Node2</title>
<path fill="none" stroke="midnightblue" d="M278.614,-347.399C258.18,-337.595 231.14,-324.619 211.201,-315.052"/>
<polygon fill="midnightblue" stroke="midnightblue" points="212.573,-311.828 202.043,-310.658 209.545,-318.139 212.573,-311.828"/>
</g>
<!-- Node3 -->
<g id="node3" class="node"><title>Node3</title>
<polygon fill="none" stroke="#bfbfbf" points="235,-291.5 235,-310.5 279,-310.5 279,-291.5 235,-291.5"/>
<text text-anchor="middle" x="257" y="-298.5" font-family="Helvetica,sans-Serif" font-size="10.00">TH1.h</text>
</g>
<!-- Node1&#45;&gt;Node3 -->
<g id="edge2" class="edge"><title>Node1&#45;&gt;Node3</title>
<path fill="none" stroke="midnightblue" d="M295.914,-347.399C288.426,-338.664 278.782,-327.413 270.968,-318.296"/>
<polygon fill="midnightblue" stroke="midnightblue" points="273.586,-315.973 264.421,-310.658 268.271,-320.528 273.586,-315.973"/>
</g>
<!-- Node4 -->
<g id="node4" class="node"><title>Node4</title>
<g id="a_node4"><a xlink:href="QcInfoLogger_8h.html" target="_top" xlink:title="QualityControl/QcInfoLogger.h">
<polygon fill="none" stroke="black" points="441.5,-291.5 441.5,-310.5 590.5,-310.5 590.5,-291.5 441.5,-291.5"/>
<text text-anchor="middle" x="516" y="-298.5" font-family="Helvetica,sans-Serif" font-size="10.00">QualityControl/QcInfoLogger.h</text>
</a>
</g>
</g>
<!-- Node1&#45;&gt;Node4 -->
<g id="edge3" class="edge"><title>Node1&#45;&gt;Node4</title>
<path fill="none" stroke="midnightblue" d="M357.03,-347.475C393.384,-337.075 442.314,-323.078 476.245,-313.372"/>
<polygon fill="midnightblue" stroke="midnightblue" points="477.612,-316.622 486.263,-310.506 475.686,-309.892 477.612,-316.622"/>
</g>
<!-- Node31 -->
<g id="node31" class="node"><title>Node31</title>
<g id="a_node31"><a xlink:href="SkeletonTask_8h.html" target="_top" xlink:title="Skeleton/SkeletonTask.h">
<polygon fill="none" stroke="black" points="297,-291.5 297,-310.5 423,-310.5 423,-291.5 297,-291.5"/>
<text text-anchor="middle" x="360" y="-298.5" font-family="Helvetica,sans-Serif" font-size="10.00">Skeleton/SkeletonTask.h</text>
</a>
</g>
</g>
<!-- Node1&#45;&gt;Node31 -->
<g id="edge38" class="edge"><title>Node1&#45;&gt;Node31</title>
<path fill="none" stroke="midnightblue" d="M320.323,-347.399C327.957,-338.664 337.791,-327.413 345.758,-318.296"/>
<polygon fill="midnightblue" stroke="midnightblue" points="348.488,-320.491 352.434,-310.658 343.218,-315.884 348.488,-320.491"/>
</g>
<!-- Node5 -->
<g id="node5" class="node"><title>Node5</title>
<g id="a_node5"><a xlink:href="TaskInterface_8h.html" target="_top" xlink:title="TaskInterface.h">
<polygon fill="none" stroke="black" points="317.5,-235.5 317.5,-254.5 402.5,-254.5 402.5,-235.5 317.5,-235.5"/>
<text text-anchor="middle" x="360" y="-242.5" font-family="Helvetica,sans-Serif" font-size="10.00">TaskInterface.h</text>
</a>
</g>
</g>
<!-- Node4&#45;&gt;Node5 -->
<g id="edge4" class="edge"><title>Node4&#45;&gt;Node5</title>
<path fill="none" stroke="midnightblue" d="M491.281,-291.444C465.152,-282.399 423.741,-268.064 394.424,-257.916"/>
<polygon fill="midnightblue" stroke="midnightblue" points="395.198,-254.48 384.603,-254.516 392.908,-261.095 395.198,-254.48"/>
</g>
<!-- Node14 -->
<g id="node14" class="node"><title>Node14</title>
<polygon fill="none" stroke="#bfbfbf" points="1104,-62 1104,-81 1158,-81 1158,-62 1104,-62"/>
<text text-anchor="middle" x="1131" y="-69" font-family="Helvetica,sans-Serif" font-size="10.00">iostream</text>
</g>
<!-- Node4&#45;&gt;Node14 -->
<g id="edge37" class="edge"><title>Node4&#45;&gt;Node14</title>
<path fill="none" stroke="midnightblue" d="M590.651,-292.861C743.183,-276.571 1082.05,-231.079 1151,-143 1163.08,-127.569 1153.38,-105.185 1143.74,-89.8007"/>
<polygon fill="midnightblue" stroke="midnightblue" points="1146.45,-87.5611 1137.94,-81.2513 1140.66,-91.4914 1146.45,-87.5611"/>
</g>
<!-- Node30 -->
<g id="node30" class="node"><title>Node30</title>
<polygon fill="none" stroke="#bfbfbf" points="451,-235.5 451,-254.5 581,-254.5 581,-235.5 451,-235.5"/>
<text text-anchor="middle" x="516" y="-242.5" font-family="Helvetica,sans-Serif" font-size="10.00">InfoLogger/InfoLogger.hxx</text>
</g>
<!-- Node4&#45;&gt;Node30 -->
<g id="edge36" class="edge"><title>Node4&#45;&gt;Node30</title>
<path fill="none" stroke="midnightblue" d="M516,-291.083C516,-284.006 516,-273.861 516,-264.986"/>
<polygon fill="midnightblue" stroke="midnightblue" points="519.5,-264.751 516,-254.751 512.5,-264.751 519.5,-264.751"/>
</g>
<!-- Node6 -->
<g id="node6" class="node"><title>Node6</title>
<polygon fill="none" stroke="#bfbfbf" points="0,-62 0,-81 52,-81 52,-62 0,-62"/>
<text text-anchor="middle" x="26" y="-69" font-family="Helvetica,sans-Serif" font-size="10.00">memory</text>
</g>
<!-- Node5&#45;&gt;Node6 -->
<g id="edge5" class="edge"><title>Node5&#45;&gt;Node6</title>
<path fill="none" stroke="midnightblue" d="M317.304,-244.506C237.755,-244.462 71.5167,-239.401 34,-199 6.88886,-169.804 14.1246,-118.631 20.6848,-91.1706"/>
<polygon fill="midnightblue" stroke="midnightblue" points="24.1246,-91.8502 23.2662,-81.2902 17.3519,-90.0807 24.1246,-91.8502"/>
</g>
<!-- Node7 -->
<g id="node7" class="node"><title>Node7</title>
<polygon fill="none" stroke="#bfbfbf" points="184.5,-179.5 184.5,-198.5 233.5,-198.5 233.5,-179.5 184.5,-179.5"/>
<text text-anchor="middle" x="209" y="-186.5" font-family="Helvetica,sans-Serif" font-size="10.00">cassert</text>
</g>
<!-- Node5&#45;&gt;Node7 -->
<g id="edge6" class="edge"><title>Node5&#45;&gt;Node7</title>
<path fill="none" stroke="midnightblue" d="M336.074,-235.444C310.781,-226.399 270.698,-212.064 242.32,-201.916"/>
<polygon fill="midnightblue" stroke="midnightblue" points="243.409,-198.588 232.814,-198.516 241.052,-205.179 243.409,-198.588"/>
</g>
<!-- Node8 -->
<g id="node8" class="node"><title>Node8</title>
<polygon fill="none" stroke="#bfbfbf" points="251.5,-179.5 251.5,-198.5 376.5,-198.5 376.5,-179.5 251.5,-179.5"/>
<text text-anchor="middle" x="314" y="-186.5" font-family="Helvetica,sans-Serif" font-size="10.00">Framework/InitContext.h</text>
</g>
<!-- Node5&#45;&gt;Node8 -->
<g id="edge7" class="edge"><title>Node5&#45;&gt;Node8</title>
<path fill="none" stroke="midnightblue" d="M352.404,-235.083C345.773,-227.298 335.979,-215.801 327.942,-206.367"/>
<polygon fill="midnightblue" stroke="midnightblue" points="330.604,-204.094 321.455,-198.751 325.275,-208.633 330.604,-204.094"/>
</g>
<!-- Node9 -->
<g id="node9" class="node"><title>Node9</title>
<polygon fill="none" stroke="#bfbfbf" points="433,-179.5 433,-198.5 593,-198.5 593,-179.5 433,-179.5"/>
<text text-anchor="middle" x="513" y="-186.5" font-family="Helvetica,sans-Serif" font-size="10.00">Framework/ProcessingContext.h</text>
</g>
<!-- Node5&#45;&gt;Node9 -->
<g id="edge8" class="edge"><title>Node5&#45;&gt;Node9</title>
<path fill="none" stroke="midnightblue" d="M384.243,-235.444C409.871,-226.399 450.485,-212.064 479.238,-201.916"/>
<polygon fill="midnightblue" stroke="midnightblue" points="480.605,-205.145 488.87,-198.516 478.275,-198.544 480.605,-205.145"/>
</g>
<!-- Node10 -->
<g id="node10" class="node"><title>Node10</title>
<polygon fill="none" stroke="#bfbfbf" points="435.5,-56.5 435.5,-86.5 570.5,-86.5 570.5,-56.5 435.5,-56.5"/>
<text text-anchor="start" x="443.5" y="-74.5" font-family="Helvetica,sans-Serif" font-size="10.00">Configuration/Configuration</text>
<text text-anchor="middle" x="503" y="-63.5" font-family="Helvetica,sans-Serif" font-size="10.00">Interface.h</text>
</g>
<!-- Node5&#45;&gt;Node10 -->
<g id="edge9" class="edge"><title>Node5&#45;&gt;Node10</title>
<path fill="none" stroke="midnightblue" d="M365.14,-235.46C370.501,-226.472 379.072,-211.871 386,-199 403.899,-165.746 398.736,-151.07 424,-123 435.256,-110.494 450.3,-99.8549 464.24,-91.6132"/>
<polygon fill="midnightblue" stroke="midnightblue" points="466.21,-94.5195 473.189,-86.5479 462.762,-88.4276 466.21,-94.5195"/>
</g>
<!-- Node11 -->
<g id="node11" class="node"><title>Node11</title>
<g id="a_node11"><a xlink:href="Activity_8h.html" target="_top" xlink:title="QualityControl/Activity.h">
<polygon fill="none" stroke="black" points="43.5,-179.5 43.5,-198.5 166.5,-198.5 166.5,-179.5 43.5,-179.5"/>
<text text-anchor="middle" x="105" y="-186.5" font-family="Helvetica,sans-Serif" font-size="10.00">QualityControl/Activity.h</text>
</a>
</g>
</g>
<!-- Node5&#45;&gt;Node11 -->
<g id="edge10" class="edge"><title>Node5&#45;&gt;Node11</title>
<path fill="none" stroke="midnightblue" d="M319.594,-235.444C275.017,-226.004 203.232,-210.802 155.108,-200.611"/>
<polygon fill="midnightblue" stroke="midnightblue" points="155.725,-197.164 145.216,-198.516 154.274,-204.012 155.725,-197.164"/>
</g>
<!-- Node12 -->
<g id="node12" class="node"><title>Node12</title>
<g id="a_node12"><a xlink:href="ObjectsManager_8h.html" target="_top" xlink:title="QualityControl/ObjectsManager.h">
<polygon fill="none" stroke="black" points="666.5,-179.5 666.5,-198.5 827.5,-198.5 827.5,-179.5 666.5,-179.5"/>
<text text-anchor="middle" x="747" y="-186.5" font-family="Helvetica,sans-Serif" font-size="10.00">QualityControl/ObjectsManager.h</text>
</a>
</g>
</g>
<!-- Node5&#45;&gt;Node12 -->
<g id="edge11" class="edge"><title>Node5&#45;&gt;Node12</title>
<path fill="none" stroke="midnightblue" d="M402.523,-238.067C468.427,-228.871 595.964,-211.075 676.003,-199.907"/>
<polygon fill="midnightblue" stroke="midnightblue" points="676.584,-203.36 686.004,-198.511 675.616,-196.427 676.584,-203.36"/>
</g>
<!-- Node13 -->
<g id="node13" class="node"><title>Node13</title>
<g id="a_node13"><a xlink:href="MonitorObject_8h.html" target="_top" xlink:title="QualityControl/MonitorObject.h">
<polygon fill="none" stroke="black" points="775.5,-123.5 775.5,-142.5 926.5,-142.5 926.5,-123.5 775.5,-123.5"/>
<text text-anchor="middle" x="851" y="-130.5" font-family="Helvetica,sans-Serif" font-size="10.00">QualityControl/MonitorObject.h</text>
</a>
</g>
</g>
<!-- Node12&#45;&gt;Node13 -->
<g id="edge12" class="edge"><title>Node12&#45;&gt;Node13</title>
<path fill="none" stroke="midnightblue" d="M763.709,-179.324C780.312,-170.703 806.002,-157.364 825.22,-147.386"/>
<polygon fill="midnightblue" stroke="midnightblue" points="827.07,-150.369 834.332,-142.655 823.844,-144.156 827.07,-150.369"/>
</g>
<!-- Node18 -->
<g id="node18" class="node"><title>Node18</title>
<g id="a_node18"><a xlink:href="Quality_8h.html" target="_top" xlink:title="QualityControl/Quality.h">
<polygon fill="none" stroke="black" points="925.5,-62 925.5,-81 1046.5,-81 1046.5,-62 925.5,-62"/>
<text text-anchor="middle" x="986" y="-69" font-family="Helvetica,sans-Serif" font-size="10.00">QualityControl/Quality.h</text>
</a>
</g>
</g>
<!-- Node12&#45;&gt;Node18 -->
<g id="edge21" class="edge"><title>Node12&#45;&gt;Node18</title>
<path fill="none" stroke="midnightblue" d="M827.526,-181.683C863.166,-175.792 904.131,-164.515 936,-143 955.362,-129.928 969.666,-106.681 977.904,-90.4699"/>
<polygon fill="midnightblue" stroke="midnightblue" points="981.067,-91.9688 982.24,-81.4391 974.756,-88.939 981.067,-91.9688"/>
</g>
<!-- Node20 -->
<g id="node20" class="node"><title>Node20</title>
<polygon fill="none" stroke="#bfbfbf" points="622.5,-0.5 622.5,-19.5 663.5,-19.5 663.5,-0.5 622.5,-0.5"/>
<text text-anchor="middle" x="643" y="-7.5" font-family="Helvetica,sans-Serif" font-size="10.00">string</text>
</g>
<!-- Node12&#45;&gt;Node20 -->
<g id="edge35" class="edge"><title>Node12&#45;&gt;Node20</title>
<path fill="none" stroke="midnightblue" d="M745.951,-179.424C744.052,-166.41 739.155,-141.26 728,-123 715.872,-103.147 704.685,-105.044 690,-87 674.916,-68.4664 660.969,-44.7217 652.251,-28.7464"/>
<polygon fill="midnightblue" stroke="midnightblue" points="655.334,-27.0905 647.535,-19.9196 649.16,-30.3891 655.334,-27.0905"/>
</g>
<!-- Node21 -->
<g id="node21" class="node"><title>Node21</title>
<g id="a_node21"><a xlink:href="TaskConfig_8h.html" target="_top" xlink:title="QualityControl/TaskConfig.h">
<polygon fill="none" stroke="black" points="433,-123.5 433,-142.5 573,-142.5 573,-123.5 433,-123.5"/>
<text text-anchor="middle" x="503" y="-130.5" font-family="Helvetica,sans-Serif" font-size="10.00">QualityControl/TaskConfig.h</text>
</a>
</g>
</g>
<!-- Node12&#45;&gt;Node21 -->
<g id="edge22" class="edge"><title>Node12&#45;&gt;Node21</title>
<path fill="none" stroke="midnightblue" d="M708.337,-179.444C665.862,-170.043 597.569,-154.929 551.526,-144.739"/>
<polygon fill="midnightblue" stroke="midnightblue" points="552.002,-141.26 541.482,-142.516 550.489,-148.095 552.002,-141.26"/>
</g>
<!-- Node22 -->
<g id="node22" class="node"><title>Node22</title>
<g id="a_node22"><a xlink:href="ServiceDiscovery_8h_source.html" target="_top" xlink:title="QualityControl/ServiceDiscovery.h">
<polygon fill="none" stroke="black" points="161.5,-123.5 161.5,-142.5 328.5,-142.5 328.5,-123.5 161.5,-123.5"/>
<text text-anchor="middle" x="245" y="-130.5" font-family="Helvetica,sans-Serif" font-size="10.00">QualityControl/ServiceDiscovery.h</text>
</a>
</g>
</g>
<!-- Node12&#45;&gt;Node22 -->
<g id="edge25" class="edge"><title>Node12&#45;&gt;Node22</title>
<path fill="none" stroke="midnightblue" d="M667.734,-179.473C577.097,-169.724 429.066,-153.8 334.395,-143.616"/>
<polygon fill="midnightblue" stroke="midnightblue" points="334.581,-140.116 324.264,-142.526 333.832,-147.076 334.581,-140.116"/>
</g>
<!-- Node27 -->
<g id="node27" class="node"><title>Node27</title>
<polygon fill="none" stroke="#bfbfbf" points="983.5,-123.5 983.5,-142.5 1052.5,-142.5 1052.5,-123.5 983.5,-123.5"/>
<text text-anchor="middle" x="1018" y="-130.5" font-family="Helvetica,sans-Serif" font-size="10.00">TObjArray.h</text>
</g>
<!-- Node12&#45;&gt;Node27 -->
<g id="edge32" class="edge"><title>Node12&#45;&gt;Node27</title>
<path fill="none" stroke="midnightblue" d="M789.941,-179.444C840.067,-169.455 922.566,-153.016 973.396,-142.888"/>
<polygon fill="midnightblue" stroke="midnightblue" points="974.306,-146.275 983.429,-140.889 972.938,-139.41 974.306,-146.275"/>
</g>
<!-- Node28 -->
<g id="node28" class="node"><title>Node28</title>
<polygon fill="none" stroke="#bfbfbf" points="1070.5,-123.5 1070.5,-142.5 1141.5,-142.5 1141.5,-123.5 1070.5,-123.5"/>
<text text-anchor="middle" x="1106" y="-130.5" font-family="Helvetica,sans-Serif" font-size="10.00">TObjString.h</text>
</g>
<!-- Node12&#45;&gt;Node28 -->
<g id="edge33" class="edge"><title>Node12&#45;&gt;Node28</title>
<path fill="none" stroke="midnightblue" d="M815.084,-179.47C876.699,-171.479 970.174,-158.678 1060.37,-143.204"/>
<polygon fill="midnightblue" stroke="midnightblue" points="1061.24,-146.606 1070.49,-141.453 1060.04,-139.708 1061.24,-146.606"/>
</g>
<!-- Node29 -->
<g id="node29" class="node"><title>Node29</title>
<polygon fill="none" stroke="#bfbfbf" points="591,-123.5 591,-142.5 719,-142.5 719,-123.5 591,-123.5"/>
<text text-anchor="middle" x="655" y="-130.5" font-family="Helvetica,sans-Serif" font-size="10.00">boost/concept_check.hpp</text>
</g>
<!-- Node12&#45;&gt;Node29 -->
<g id="edge34" class="edge"><title>Node12&#45;&gt;Node29</title>
<path fill="none" stroke="midnightblue" d="M732.219,-179.324C717.733,-170.822 695.427,-157.729 678.507,-147.797"/>
<polygon fill="midnightblue" stroke="midnightblue" points="680.141,-144.698 669.745,-142.655 676.597,-150.735 680.141,-144.698"/>
</g>
<!-- Node13&#45;&gt;Node14 -->
<g id="edge13" class="edge"><title>Node13&#45;&gt;Node14</title>
<path fill="none" stroke="midnightblue" d="M891.117,-123.475C945.271,-111.967 1041.03,-91.6186 1093.7,-80.4269"/>
<polygon fill="midnightblue" stroke="midnightblue" points="1094.58,-83.8182 1103.63,-78.316 1093.12,-76.9711 1094.58,-83.8182"/>
</g>
<!-- Node15 -->
<g id="node15" class="node"><title>Node15</title>
<polygon fill="none" stroke="#bfbfbf" points="833.5,-62 833.5,-81 868.5,-81 868.5,-62 833.5,-62"/>
<text text-anchor="middle" x="851" y="-69" font-family="Helvetica,sans-Serif" font-size="10.00">map</text>
</g>
<!-- Node13&#45;&gt;Node15 -->
<g id="edge14" class="edge"><title>Node13&#45;&gt;Node15</title>
<path fill="none" stroke="midnightblue" d="M851,-123.475C851,-115.08 851,-101.981 851,-91.1631"/>
<polygon fill="midnightblue" stroke="midnightblue" points="854.5,-91.0091 851,-81.0091 847.5,-91.0091 854.5,-91.0091"/>
</g>
<!-- Node16 -->
<g id="node16" class="node"><title>Node16</title>
<polygon fill="none" stroke="#bfbfbf" points="874.5,-0.5 874.5,-19.5 933.5,-19.5 933.5,-0.5 874.5,-0.5"/>
<text text-anchor="middle" x="904" y="-7.5" font-family="Helvetica,sans-Serif" font-size="10.00">TObject.h</text>
</g>
<!-- Node13&#45;&gt;Node16 -->
<g id="edge15" class="edge"><title>Node13&#45;&gt;Node16</title>
<path fill="none" stroke="midnightblue" d="M856.951,-123.339C862.846,-114.493 871.857,-100.22 878,-87 886.796,-68.072 894.194,-45.2982 898.822,-29.6456"/>
<polygon fill="midnightblue" stroke="midnightblue" points="902.293,-30.2407 901.683,-19.6634 895.563,-28.3122 902.293,-30.2407"/>
</g>
<!-- Node17 -->
<g id="node17" class="node"><title>Node17</title>
<polygon fill="none" stroke="#bfbfbf" points="699,-62 699,-81 815,-81 815,-62 699,-62"/>
<text text-anchor="middle" x="757" y="-69" font-family="Helvetica,sans-Serif" font-size="10.00">Common/Exceptions.h</text>
</g>
<!-- Node13&#45;&gt;Node17 -->
<g id="edge16" class="edge"><title>Node13&#45;&gt;Node17</title>
<path fill="none" stroke="midnightblue" d="M837.532,-123.475C822.315,-113.843 797.313,-98.0175 779.199,-86.5517"/>
<polygon fill="midnightblue" stroke="midnightblue" points="780.764,-83.4002 770.443,-81.0091 777.021,-89.3149 780.764,-83.4002"/>
</g>
<!-- Node13&#45;&gt;Node18 -->
<g id="edge17" class="edge"><title>Node13&#45;&gt;Node18</title>
<path fill="none" stroke="midnightblue" d="M870.342,-123.475C893.099,-113.445 931.092,-96.7002 957.288,-85.1546"/>
<polygon fill="midnightblue" stroke="midnightblue" points="958.955,-88.2449 966.694,-81.0091 956.131,-81.8395 958.955,-88.2449"/>
</g>
<!-- Node18&#45;&gt;Node16 -->
<g id="edge18" class="edge"><title>Node18&#45;&gt;Node16</title>
<path fill="none" stroke="midnightblue" d="M974.251,-61.9751C961.221,-52.5199 939.964,-37.0961 924.241,-25.6871"/>
<polygon fill="midnightblue" stroke="midnightblue" points="925.876,-22.5492 915.727,-19.5091 921.765,-28.2149 925.876,-22.5492"/>
</g>
<!-- Node19 -->
<g id="node19" class="node"><title>Node19</title>
<polygon fill="none" stroke="#bfbfbf" points="960,-0.5 960,-19.5 1012,-19.5 1012,-0.5 960,-0.5"/>
<text text-anchor="middle" x="986" y="-7.5" font-family="Helvetica,sans-Serif" font-size="10.00">ostream</text>
</g>
<!-- Node18&#45;&gt;Node19 -->
<g id="edge19" class="edge"><title>Node18&#45;&gt;Node19</title>
<path fill="none" stroke="midnightblue" d="M986,-61.9751C986,-53.5803 986,-40.4806 986,-29.6631"/>
<polygon fill="midnightblue" stroke="midnightblue" points="989.5,-29.5091 986,-19.5091 982.5,-29.5091 989.5,-29.5091"/>
</g>
<!-- Node18&#45;&gt;Node20 -->
<g id="edge20" class="edge"><title>Node18&#45;&gt;Node20</title>
<path fill="none" stroke="midnightblue" d="M936.856,-61.9751C864.861,-49.486 732.836,-26.5838 673.407,-16.2747"/>
<polygon fill="midnightblue" stroke="midnightblue" points="673.968,-12.8197 663.516,-14.559 672.771,-19.7167 673.968,-12.8197"/>
</g>
<!-- Node21&#45;&gt;Node10 -->
<g id="edge24" class="edge"><title>Node21&#45;&gt;Node10</title>
<path fill="none" stroke="midnightblue" d="M503,-123.475C503,-116.471 503,-106.192 503,-96.6956"/>
<polygon fill="midnightblue" stroke="midnightblue" points="506.5,-96.5229 503,-86.523 499.5,-96.523 506.5,-96.5229"/>
</g>
<!-- Node21&#45;&gt;Node20 -->
<g id="edge23" class="edge"><title>Node21&#45;&gt;Node20</title>
<path fill="none" stroke="midnightblue" d="M521.593,-123.453C537.962,-115.409 561.939,-102.33 580,-87 600.535,-69.5712 619.6,-44.8996 631.261,-28.4461"/>
<polygon fill="midnightblue" stroke="midnightblue" points="634.414,-30.0399 637.226,-19.825 628.658,-26.0568 634.414,-30.0399"/>
</g>
<!-- Node22&#45;&gt;Node6 -->
<g id="edge28" class="edge"><title>Node22&#45;&gt;Node6</title>
<path fill="none" stroke="midnightblue" d="M210.065,-123.468C175.022,-114.779 119.573,-100.676 72,-87 68.6804,-86.0457 65.2362,-85.0225 61.7939,-83.9773"/>
<polygon fill="midnightblue" stroke="midnightblue" points="62.7897,-80.6218 52.2021,-81.0127 60.7226,-87.3097 62.7897,-80.6218"/>
</g>
<!-- Node22&#45;&gt;Node20 -->
<g id="edge29" class="edge"><title>Node22&#45;&gt;Node20</title>
<path fill="none" stroke="midnightblue" d="M285.399,-123.49C314.932,-116.285 355.36,-104.336 388,-87 407.555,-76.6138 406.953,-65.4011 427,-56 488.705,-27.0633 568.975,-16.6125 612.198,-12.9293"/>
<polygon fill="midnightblue" stroke="midnightblue" points="612.66,-16.4039 622.355,-12.1316 612.112,-9.4254 612.66,-16.4039"/>
</g>
<!-- Node23 -->
<g id="node23" class="node"><title>Node23</title>
<polygon fill="none" stroke="#bfbfbf" points="81,-62 81,-81 127,-81 127,-62 81,-62"/>
<text text-anchor="middle" x="104" y="-69" font-family="Helvetica,sans-Serif" font-size="10.00">atomic</text>
</g>
<!-- Node22&#45;&gt;Node23 -->
<g id="edge26" class="edge"><title>Node22&#45;&gt;Node23</title>
<path fill="none" stroke="midnightblue" d="M223.606,-123.418C201.563,-114.516 166.249,-100.093 136,-87 134.636,-86.4094 133.241,-85.7999 131.834,-85.1803"/>
<polygon fill="midnightblue" stroke="midnightblue" points="133.124,-81.9232 122.566,-81.0411 130.269,-88.3147 133.124,-81.9232"/>
</g>
<!-- Node24 -->
<g id="node24" class="node"><title>Node24</title>
<polygon fill="none" stroke="#bfbfbf" points="145.5,-62 145.5,-81 204.5,-81 204.5,-62 145.5,-62"/>
<text text-anchor="middle" x="175" y="-69" font-family="Helvetica,sans-Serif" font-size="10.00">curl/curl.h</text>
</g>
<!-- Node22&#45;&gt;Node24 -->
<g id="edge27" class="edge"><title>Node22&#45;&gt;Node24</title>
<path fill="none" stroke="midnightblue" d="M234.971,-123.475C223.951,-114.108 206.04,-98.8839 192.657,-87.5081"/>
<polygon fill="midnightblue" stroke="midnightblue" points="194.897,-84.8188 185.011,-81.0091 190.363,-90.1524 194.897,-84.8188"/>
</g>
<!-- Node25 -->
<g id="node25" class="node"><title>Node25</title>
<polygon fill="none" stroke="#bfbfbf" points="223,-62 223,-81 267,-81 267,-62 223,-62"/>
<text text-anchor="middle" x="245" y="-69" font-family="Helvetica,sans-Serif" font-size="10.00">thread</text>
</g>
<!-- Node22&#45;&gt;Node25 -->
<g id="edge30" class="edge"><title>Node22&#45;&gt;Node25</title>
<path fill="none" stroke="midnightblue" d="M245,-123.475C245,-115.08 245,-101.981 245,-91.1631"/>
<polygon fill="midnightblue" stroke="midnightblue" points="248.5,-91.0091 245,-81.0091 241.5,-91.0091 248.5,-91.0091"/>
</g>
<!-- Node26 -->
<g id="node26" class="node"><title>Node26</title>
<polygon fill="none" stroke="#bfbfbf" points="285,-56.5 285,-86.5 379,-86.5 379,-56.5 285,-56.5"/>
<text text-anchor="start" x="293" y="-74.5" font-family="Helvetica,sans-Serif" font-size="10.00">boost/asio/ip/host</text>
<text text-anchor="middle" x="332" y="-63.5" font-family="Helvetica,sans-Serif" font-size="10.00">_name.hpp</text>
</g>
<!-- Node22&#45;&gt;Node26 -->
<g id="edge31" class="edge"><title>Node22&#45;&gt;Node26</title>
<path fill="none" stroke="midnightblue" d="M257.465,-123.475C269.358,-115.341 287.709,-102.791 303.226,-92.1788"/>
<polygon fill="midnightblue" stroke="midnightblue" points="305.217,-95.0571 311.496,-86.523 301.266,-89.2792 305.217,-95.0571"/>
</g>
<!-- Node31&#45;&gt;Node5 -->
<g id="edge39" class="edge"><title>Node31&#45;&gt;Node5</title>
<path fill="none" stroke="midnightblue" d="M360,-291.083C360,-284.006 360,-273.861 360,-264.986"/>
<polygon fill="midnightblue" stroke="midnightblue" points="363.5,-264.751 360,-254.751 356.5,-264.751 363.5,-264.751"/>
</g>
</g>
</svg>
        <g id="navigator" transform="translate(0 0)" fill="#404254">
                <rect fill="#f2f5e9" fill-opacity="0.5" stroke="#606060" stroke-width=".5" x="0" y="0" width="60" height="60"/>
                <use id="zoomplus" xlink:href="#zoomPlus" x="17" y="9" onmousedown="handleZoom(evt,'in')"/>
                <use id="zoomminus" xlink:href="#zoomMin" x="42" y="9" onmousedown="handleZoom(evt,'out')"/>
                <use id="reset" xlink:href="#resetDef" x="30" y="36" onmousedown="handleReset()"/>
                <g id="arrowUp" xlink:href="#dirArrow" transform="translate(30 24)" onmousedown="handlePan(0,-1)">
                  <use xlink:href="#rim" fill="#404040">
                        <set attributeName="fill" to="#808080" begin="arrowUp.mouseover" end="arrowUp.mouseout"/>
                  </use>
                  <path fill="none" stroke="white" stroke-width="1.5" d="M0,-3.0v7 M-2.5,-0.5L0,-3.0L2.5,-0.5"/>
                </g>
                <g id="arrowRight" xlink:href="#dirArrow" transform="rotate(90) translate(36 -43)" onmousedown="handlePan(1,0)">
                  <use xlink:href="#rim" fill="#404040">
                        <set attributeName="fill" to="#808080" begin="arrowRight.mouseover" end="arrowRight.mouseout"/>
                  </use>
                  <path fill="none" stroke="white" stroke-width="1.5" d="M0,-3.0v7 M-2.5,-0.5L0,-3.0L2.5,-0.5"/>
                </g>
                <g id="arrowDown" xlink:href="#dirArrow" transform="rotate(180) translate(-30 -48)" onmousedown="handlePan(0,1)">
                  <use xlink:href="#rim" fill="#404040">
                        <set attributeName="fill" to="#808080" begin="arrowDown.mouseover" end="arrowDown.mouseout"/>
                  </use>
                  <path fill="none" stroke="white" stroke-width="1.5" d="M0,-3.0v7 M-2.5,-0.5L0,-3.0L2.5,-0.5"/>
                </g>
                <g id="arrowLeft" xlink:href="#dirArrow" transform="rotate(270) translate(-36 17)" onmousedown="handlePan(-1,0)">
                  <use xlink:href="#rim" fill="#404040">
                        <set attributeName="fill" to="#808080" begin="arrowLeft.mouseover" end="arrowLeft.mouseout"/>
                  </use>
                  <path fill="none" stroke="white" stroke-width="1.5" d="M0,-3.0v7 M-2.5,-0.5L0,-3.0L2.5,-0.5"/>
                </g>
        </g>
        <svg viewBox="0 0 15 15" width="100%" height="30px" preserveAspectRatio="xMaxYMin meet">
         <g id="arrow_out" transform="scale(0.3 0.3)">
          <a xlink:href="SkeletonTask_8cxx__incl_org.svg" target="_base">
           <rect id="button" ry="5" rx="5" y="6" x="6" height="38" width="38"
                fill="#f2f5e9" fill-opacity="0.5" stroke="#606060" stroke-width="1.0"/>
           <path id="arrow"
             d="M 11.500037,31.436501 C 11.940474,20.09759 22.043105,11.32322 32.158766,21.979434 L 37.068811,17.246167 C 37.068811,17.246167 37.088388,32 37.088388,32 L 22.160133,31.978069 C 22.160133,31.978069 26.997745,27.140456 26.997745,27.140456 C 18.528582,18.264221 13.291696,25.230495 11.500037,31.436501 z"
             style="fill:#404040;"/>
          </a>
         </g>
        </svg>
</svg>
