<?xml version="1.0" encoding="UTF-8" standalone="no"?>
<!DOCTYPE svg PUBLIC "-//W3C//DTD SVG 1.1//EN"
 "http://www.w3.org/Graphics/SVG/1.1/DTD/svg11.dtd">
<!-- Generated by graphviz version 2.38.0 (20140413.2041)
 -->
<!-- Title: o2::quality_control::core::TaskConfig Pages: 1 -->
<svg width="327pt" height="215pt"
 viewBox="0.00 0.00 326.50 215.00" xmlns="http://www.w3.org/2000/svg" xmlns:xlink="http://www.w3.org/1999/xlink">
<g id="graph0" class="graph" transform="scale(1 1) rotate(0) translate(4 211)">
<title>o2::quality_control::core::TaskConfig</title>
<!-- Node1 -->
<g id="node1" class="node"><title>Node1</title>
<polygon fill="#bfbfbf" stroke="black" points="93.5,-0.5 93.5,-68.5 191.5,-68.5 191.5,-0.5 93.5,-0.5"/>
<text text-anchor="start" x="101.5" y="-56.5" font-family="Helvetica,sans-Serif" font-size="10.00">o2::quality_control</text>
<text text-anchor="middle" x="142.5" y="-45.5" font-family="Helvetica,sans-Serif" font-size="10.00">::core::TaskConfig</text>
<polyline fill="none" stroke="black" points="93.5,-38.5 191.5,-38.5 "/>
<text text-anchor="middle" x="142.5" y="-26.5" font-family="Helvetica,sans-Serif" font-size="10.00"> </text>
<polyline fill="none" stroke="black" points="93.5,-19.5 191.5,-19.5 "/>
<text text-anchor="middle" x="142.5" y="-7.5" font-family="Helvetica,sans-Serif" font-size="10.00"> </text>
</g>
<!-- Node2 -->
<g id="node2" class="node"><title>Node2</title>
<polygon fill="none" stroke="#bfbfbf" points="0,-149.5 0,-206.5 29,-206.5 29,-149.5 0,-149.5"/>
<text text-anchor="middle" x="14.5" y="-194.5" font-family="Helvetica,sans-Serif" font-size="10.00">int</text>
<polyline fill="none" stroke="#bfbfbf" points="0,-187.5 29,-187.5 "/>
<text text-anchor="middle" x="14.5" y="-175.5" font-family="Helvetica,sans-Serif" font-size="10.00"> </text>
<polyline fill="none" stroke="#bfbfbf" points="0,-168.5 29,-168.5 "/>
<text text-anchor="middle" x="14.5" y="-156.5" font-family="Helvetica,sans-Serif" font-size="10.00"> </text>
</g>
<!-- Node2&#45;&gt;Node1 -->
<g id="edge1" class="edge"><title>Node2&#45;&gt;Node1</title>
<path fill="none" stroke="#404040" d="M14.1299,-149.115C15.2559,-129.814 19.6388,-104.542 33.5,-87 45.8577,-71.3611 64.1057,-60.2307 82.1512,-52.4187"/>
<polygon fill="none" stroke="#404040" points="82.1592,-52.4156 86.2519,-46.4784 93.3065,-47.9728 89.2138,-53.91 82.1592,-52.4156"/>
<text text-anchor="middle" x="86" y="-112" font-family="Helvetica,sans-Serif" font-size="10.00"> +maxNumberCycles</text>
<text text-anchor="middle" x="86" y="-101" font-family="Helvetica,sans-Serif" font-size="10.00">+cycleDurationSeconds</text>
</g>
<!-- Node3 -->
<g id="node3" class="node"><title>Node3</title>
<polygon fill="none" stroke="#bfbfbf" points="122,-149.5 122,-206.5 163,-206.5 163,-149.5 122,-149.5"/>
<text text-anchor="middle" x="142.5" y="-194.5" font-family="Helvetica,sans-Serif" font-size="10.00">string</text>
<polyline fill="none" stroke="#bfbfbf" points="122,-187.5 163,-187.5 "/>
<text text-anchor="middle" x="142.5" y="-175.5" font-family="Helvetica,sans-Serif" font-size="10.00"> </text>
<polyline fill="none" stroke="#bfbfbf" points="122,-168.5 163,-168.5 "/>
<text text-anchor="middle" x="142.5" y="-156.5" font-family="Helvetica,sans-Serif" font-size="10.00"> </text>
</g>
<!-- Node3&#45;&gt;Node1 -->
<g id="edge2" class="edge"><title>Node3&#45;&gt;Node1</title>
<path fill="none" stroke="#404040" d="M142.5,-149.381C142.5,-129.837 142.5,-103.193 142.5,-80.5898"/>
<polygon fill="none" stroke="#404040" points="142.5,-80.5192 138.5,-74.5192 142.5,-68.5192 146.5,-74.5192 142.5,-80.5192"/>
<text text-anchor="middle" x="176" y="-123" font-family="Helvetica,sans-Serif" font-size="10.00"> +moduleName</text>
<text text-anchor="middle" x="176" y="-112" font-family="Helvetica,sans-Serif" font-size="10.00">+consulUrl</text>
<text text-anchor="middle" x="176" y="-101" font-family="Helvetica,sans-Serif" font-size="10.00">+taskName</text>
<text text-anchor="middle" x="176" y="-90" font-family="Helvetica,sans-Serif" font-size="10.00">+className</text>
</g>
<!-- Node4 -->
<g id="node4" class="node"><title>Node4</title>
<polygon fill="none" stroke="#bfbfbf" points="194,-149.5 194,-206.5 271,-206.5 271,-149.5 194,-149.5"/>
<text text-anchor="middle" x="232.5" y="-194.5" font-family="Helvetica,sans-Serif" font-size="10.00">KeyValueMap</text>
<polyline fill="none" stroke="#bfbfbf" points="194,-187.5 271,-187.5 "/>
<text text-anchor="middle" x="232.5" y="-175.5" font-family="Helvetica,sans-Serif" font-size="10.00"> </text>
<polyline fill="none" stroke="#bfbfbf" points="194,-168.5 271,-168.5 "/>
<text text-anchor="middle" x="232.5" y="-156.5" font-family="Helvetica,sans-Serif" font-size="10.00"> </text>
</g>
<!-- Node4&#45;&gt;Node1 -->
<g id="edge3" class="edge"><title>Node4&#45;&gt;Node1</title>
<path fill="none" stroke="#404040" d="M230.606,-149.497C228.206,-130.615 222.775,-105.687 210.5,-87 207.665,-82.6832 204.34,-78.5869 200.711,-74.7309"/>
<polygon fill="none" stroke="#404040" points="200.449,-74.4794 193.349,-73.2184 191.782,-66.1795 198.882,-67.4405 200.449,-74.4794"/>
<text text-anchor="middle" x="272.5" y="-106.5" font-family="Helvetica,sans-Serif" font-size="10.00"> +customParameters</text>
</g>
</g>
</svg>
