<?xml version="1.0" encoding="UTF-8" standalone="no"?>
<!DOCTYPE svg PUBLIC "-//W3C//DTD SVG 1.1//EN"
 "http://www.w3.org/Graphics/SVG/1.1/DTD/svg11.dtd">
<!-- Generated by graphviz version 2.38.0 (20140413.2041)
 -->
<!-- Title: Framework/src/TaskRunner.cxx Pages: 1 -->
<svg width="2897pt" height="453pt"
 viewBox="0.00 0.00 2896.50 453.00" xmlns="http://www.w3.org/2000/svg" xmlns:xlink="http://www.w3.org/1999/xlink">
<g id="graph0" class="graph" transform="scale(1 1) rotate(0) translate(4 449)">
<title>Framework/src/TaskRunner.cxx</title>
<!-- Node1 -->
<g id="node1" class="node"><title>Node1</title>
<polygon fill="#bfbfbf" stroke="black" points="811.5,-425.5 811.5,-444.5 968.5,-444.5 968.5,-425.5 811.5,-425.5"/>
<text text-anchor="middle" x="890" y="-432.5" font-family="Helvetica,sans-Serif" font-size="10.00">Framework/src/TaskRunner.cxx</text>
</g>
<!-- Node2 -->
<g id="node2" class="node"><title>Node2</title>
<polygon fill="none" stroke="#bfbfbf" points="996,-62 996,-81 1048,-81 1048,-62 996,-62"/>
<text text-anchor="middle" x="1022" y="-69" font-family="Helvetica,sans-Serif" font-size="10.00">memory</text>
</g>
<!-- Node1&#45;&gt;Node2 -->
<g id="edge1" class="edge"><title>Node1&#45;&gt;Node2</title>
<path fill="none" stroke="midnightblue" d="M968.549,-432.288C1160.13,-427.73 1637.5,-413.917 1661,-389 1687.53,-360.873 1682.22,-334.327 1661,-302 1638.94,-268.383 1606.47,-294.396 1578,-266 1548.13,-236.202 1573.23,-205.003 1540,-179 1465.08,-120.373 1422.29,-161.654 1329,-143 1230.56,-123.316 1115.44,-95.6101 1058.18,-81.509"/>
<polygon fill="midnightblue" stroke="midnightblue" points="1058.72,-78.0388 1048.17,-79.0393 1057.04,-84.8347 1058.72,-78.0388"/>
</g>
<!-- Node3 -->
<g id="node3" class="node"><title>Node3</title>
<polygon fill="none" stroke="#bfbfbf" points="313,-62 313,-81 367,-81 367,-62 313,-62"/>
<text text-anchor="middle" x="340" y="-69" font-family="Helvetica,sans-Serif" font-size="10.00">iostream</text>
</g>
<!-- Node1&#45;&gt;Node3 -->
<g id="edge2" class="edge"><title>Node1&#45;&gt;Node3</title>
<path fill="none" stroke="midnightblue" d="M811.373,-433.917C614.543,-433.132 111.691,-427.351 47,-389 12.8372,-368.747 0,-352.715 0,-313 0,-313 0,-313 0,-188 0,-124.65 214.294,-89.0901 302.626,-77.1233"/>
<polygon fill="midnightblue" stroke="midnightblue" points="303.298,-80.5649 312.751,-75.7806 302.378,-73.6256 303.298,-80.5649"/>
</g>
<!-- Node4 -->
<g id="node4" class="node"><title>Node4</title>
<polygon fill="none" stroke="#bfbfbf" points="66,-364 66,-383 184,-383 184,-364 66,-364"/>
<text text-anchor="middle" x="125" y="-371" font-family="Helvetica,sans-Serif" font-size="10.00">fairmq/FairMQDevice.h</text>
</g>
<!-- Node1&#45;&gt;Node4 -->
<g id="edge3" class="edge"><title>Node1&#45;&gt;Node4</title>
<path fill="none" stroke="midnightblue" d="M811.321,-432.239C682.589,-428.607 419.131,-418.024 198,-389 189.894,-387.936 181.335,-386.512 173.043,-384.971"/>
<polygon fill="midnightblue" stroke="midnightblue" points="173.592,-381.513 163.109,-383.05 172.262,-388.385 173.592,-381.513"/>
</g>
<!-- Node5 -->
<g id="node5" class="node"><title>Node5</title>
<polygon fill="none" stroke="#bfbfbf" points="452,-62 452,-81 568,-81 568,-62 452,-62"/>
<text text-anchor="middle" x="510" y="-69" font-family="Helvetica,sans-Serif" font-size="10.00">Common/Exceptions.h</text>
</g>
<!-- Node1&#45;&gt;Node5 -->
<g id="edge4" class="edge"><title>Node1&#45;&gt;Node5</title>
<path fill="none" stroke="midnightblue" d="M811.489,-433.736C646.344,-432.457 274.608,-425.507 231,-389 204.303,-366.65 212,-347.817 212,-313 212,-313 212,-313 212,-249.5 212,-143.178 353.959,-99.3046 441.917,-82.3248"/>
<polygon fill="midnightblue" stroke="midnightblue" points="442.644,-85.7497 451.835,-80.4794 441.364,-78.8678 442.644,-85.7497"/>
</g>
<!-- Node6 -->
<g id="node6" class="node"><title>Node6</title>
<polygon fill="none" stroke="#bfbfbf" points="240.5,-358.5 240.5,-388.5 375.5,-388.5 375.5,-358.5 240.5,-358.5"/>
<text text-anchor="start" x="248.5" y="-376.5" font-family="Helvetica,sans-Serif" font-size="10.00">Configuration/Configuration</text>
<text text-anchor="middle" x="308" y="-365.5" font-family="Helvetica,sans-Serif" font-size="10.00">Factory.h</text>
</g>
<!-- Node1&#45;&gt;Node6 -->
<g id="edge5" class="edge"><title>Node1&#45;&gt;Node6</title>
<path fill="none" stroke="midnightblue" d="M811.44,-429.375C714.033,-423.108 542.742,-410.346 385.857,-389.021"/>
<polygon fill="midnightblue" stroke="midnightblue" points="385.929,-385.498 375.545,-387.604 384.976,-392.433 385.929,-385.498"/>
</g>
<!-- Node7 -->
<g id="node7" class="node"><title>Node7</title>
<polygon fill="none" stroke="#bfbfbf" points="394,-364 394,-383 532,-383 532,-364 394,-364"/>
<text text-anchor="middle" x="463" y="-371" font-family="Helvetica,sans-Serif" font-size="10.00">Framework/DataSampling.h</text>
</g>
<!-- Node1&#45;&gt;Node7 -->
<g id="edge6" class="edge"><title>Node1&#45;&gt;Node7</title>
<path fill="none" stroke="midnightblue" d="M814.259,-425.464C743.45,-417.193 634.844,-403.761 541,-389 533.068,-387.752 524.704,-386.321 516.515,-384.854"/>
<polygon fill="midnightblue" stroke="midnightblue" points="517.121,-381.407 506.655,-383.058 515.866,-388.294 517.121,-381.407"/>
</g>
<!-- Node8 -->
<g id="node8" class="node"><title>Node8</title>
<polygon fill="none" stroke="#bfbfbf" points="550.5,-364 550.5,-383 715.5,-383 715.5,-364 550.5,-364"/>
<text text-anchor="middle" x="633" y="-371" font-family="Helvetica,sans-Serif" font-size="10.00">Framework/DataSamplingPolicy.h</text>
</g>
<!-- Node1&#45;&gt;Node8 -->
<g id="edge7" class="edge"><title>Node1&#45;&gt;Node8</title>
<path fill="none" stroke="midnightblue" d="M853.178,-425.475C807.471,-414.893 729.475,-396.836 679.634,-385.297"/>
<polygon fill="midnightblue" stroke="midnightblue" points="680.285,-381.855 669.754,-383.009 678.706,-388.674 680.285,-381.855"/>
</g>
<!-- Node9 -->
<g id="node9" class="node"><title>Node9</title>
<polygon fill="none" stroke="#bfbfbf" points="734,-364 734,-383 882,-383 882,-364 734,-364"/>
<text text-anchor="middle" x="808" y="-371" font-family="Helvetica,sans-Serif" font-size="10.00">Framework/CallbackService.h</text>
</g>
<!-- Node1&#45;&gt;Node9 -->
<g id="edge8" class="edge"><title>Node1&#45;&gt;Node9</title>
<path fill="none" stroke="midnightblue" d="M878.251,-425.475C865.221,-416.02 843.964,-400.596 828.241,-389.187"/>
<polygon fill="midnightblue" stroke="midnightblue" points="829.876,-386.049 819.727,-383.009 825.765,-391.715 829.876,-386.049"/>
</g>
<!-- Node10 -->
<g id="node10" class="node"><title>Node10</title>
<polygon fill="none" stroke="#bfbfbf" points="900.5,-364 900.5,-383 1043.5,-383 1043.5,-364 900.5,-364"/>
<text text-anchor="middle" x="972" y="-371" font-family="Helvetica,sans-Serif" font-size="10.00">Framework/TimesliceIndex.h</text>
</g>
<!-- Node1&#45;&gt;Node10 -->
<g id="edge9" class="edge"><title>Node1&#45;&gt;Node10</title>
<path fill="none" stroke="midnightblue" d="M901.749,-425.475C914.779,-416.02 936.036,-400.596 951.759,-389.187"/>
<polygon fill="midnightblue" stroke="midnightblue" points="954.235,-391.715 960.273,-383.009 950.124,-386.049 954.235,-391.715"/>
</g>
<!-- Node11 -->
<g id="node11" class="node"><title>Node11</title>
<polygon fill="none" stroke="#bfbfbf" points="1062,-364 1062,-383 1202,-383 1202,-364 1062,-364"/>
<text text-anchor="middle" x="1132" y="-371" font-family="Helvetica,sans-Serif" font-size="10.00">Framework/DataSpecUtils.h</text>
</g>
<!-- Node1&#45;&gt;Node11 -->
<g id="edge10" class="edge"><title>Node1&#45;&gt;Node11</title>
<path fill="none" stroke="midnightblue" d="M924.673,-425.475C967.532,-414.937 1040.54,-396.986 1087.5,-385.441"/>
<polygon fill="midnightblue" stroke="midnightblue" points="1088.52,-388.796 1097.39,-383.009 1086.85,-381.998 1088.52,-388.796"/>
</g>
<!-- Node12 -->
<g id="node12" class="node"><title>Node12</title>
<polygon fill="none" stroke="#bfbfbf" points="1220,-358.5 1220,-388.5 1354,-388.5 1354,-358.5 1220,-358.5"/>
<text text-anchor="start" x="1228" y="-376.5" font-family="Helvetica,sans-Serif" font-size="10.00">Framework/DataDescriptor</text>
<text text-anchor="middle" x="1287" y="-365.5" font-family="Helvetica,sans-Serif" font-size="10.00">QueryBuilder.h</text>
</g>
<!-- Node1&#45;&gt;Node12 -->
<g id="edge11" class="edge"><title>Node1&#45;&gt;Node12</title>
<path fill="none" stroke="midnightblue" d="M957.781,-425.483C1020.56,-417.371 1116.78,-404.37 1209.75,-389.16"/>
<polygon fill="midnightblue" stroke="midnightblue" points="1210.6,-392.567 1219.9,-387.489 1209.46,-385.66 1210.6,-392.567"/>
</g>
<!-- Node13 -->
<g id="node13" class="node"><title>Node13</title>
<polygon fill="none" stroke="#bfbfbf" points="1372.5,-364 1372.5,-383 1489.5,-383 1489.5,-364 1372.5,-364"/>
<text text-anchor="middle" x="1431" y="-371" font-family="Helvetica,sans-Serif" font-size="10.00">Headers/DataHeader.h</text>
</g>
<!-- Node1&#45;&gt;Node13 -->
<g id="edge12" class="edge"><title>Node1&#45;&gt;Node13</title>
<path fill="none" stroke="midnightblue" d="M968.596,-429.305C1062.73,-423.04 1225.01,-410.204 1363,-389 1370.14,-387.903 1377.65,-386.528 1384.97,-385.063"/>
<polygon fill="midnightblue" stroke="midnightblue" points="1385.71,-388.485 1394.79,-383.029 1384.29,-381.631 1385.71,-388.485"/>
</g>
<!-- Node14 -->
<g id="node14" class="node"><title>Node14</title>
<polygon fill="none" stroke="#bfbfbf" points="1587.5,-241 1587.5,-260 1738.5,-260 1738.5,-241 1587.5,-241"/>
<text text-anchor="middle" x="1663" y="-248" font-family="Helvetica,sans-Serif" font-size="10.00">Monitoring/MonitoringFactory.h</text>
</g>
<!-- Node1&#45;&gt;Node14 -->
<g id="edge13" class="edge"><title>Node1&#45;&gt;Node14</title>
<path fill="none" stroke="midnightblue" d="M968.734,-432.487C1166.53,-428.304 1670.29,-415.125 1695,-389 1721.57,-360.906 1705.77,-339.135 1695,-302 1691.41,-289.611 1683.76,-277.349 1676.84,-268.011"/>
<polygon fill="midnightblue" stroke="midnightblue" points="1679.52,-265.75 1670.59,-260.045 1674.01,-270.072 1679.52,-265.75"/>
</g>
<!-- Node15 -->
<g id="node15" class="node"><title>Node15</title>
<g id="a_node15"><a xlink:href="QcInfoLogger_8h.html" target="_top" xlink:title="QualityControl/QcInfoLogger.h">
<polygon fill="none" stroke="black" points="259.5,-302.5 259.5,-321.5 408.5,-321.5 408.5,-302.5 259.5,-302.5"/>
<text text-anchor="middle" x="334" y="-309.5" font-family="Helvetica,sans-Serif" font-size="10.00">QualityControl/QcInfoLogger.h</text>
</a>
</g>
</g>
<!-- Node1&#45;&gt;Node15 -->
<g id="edge14" class="edge"><title>Node1&#45;&gt;Node15</title>
<path fill="none" stroke="midnightblue" d="M811.496,-432.647C608.951,-428.775 82.7116,-416.138 57,-389 47.524,-378.998 48.0729,-368.494 57,-358 81.3837,-329.335 177.21,-318.879 249.374,-315.094"/>
<polygon fill="midnightblue" stroke="midnightblue" points="249.573,-318.589 259.39,-314.603 249.231,-311.597 249.573,-318.589"/>
</g>
<!-- Node39 -->
<g id="node39" class="node"><title>Node39</title>
<g id="a_node39"><a xlink:href="TaskFactory_8h.html" target="_top" xlink:title="QualityControl/TaskFactory.h">
<polygon fill="none" stroke="black" points="1507.5,-364 1507.5,-383 1652.5,-383 1652.5,-364 1507.5,-364"/>
<text text-anchor="middle" x="1580" y="-371" font-family="Helvetica,sans-Serif" font-size="10.00">QualityControl/TaskFactory.h</text>
</a>
</g>
</g>
<!-- Node1&#45;&gt;Node39 -->
<g id="edge49" class="edge"><title>Node1&#45;&gt;Node39</title>
<path fill="none" stroke="midnightblue" d="M968.957,-430.71C1085.17,-425.289 1308.95,-412.649 1498,-389 1507.17,-387.853 1516.86,-386.376 1526.26,-384.804"/>
<polygon fill="midnightblue" stroke="midnightblue" points="1527.03,-388.222 1536.29,-383.073 1525.84,-381.324 1527.03,-388.222"/>
</g>
<!-- Node43 -->
<g id="node43" class="node"><title>Node43</title>
<g id="a_node43"><a xlink:href="TaskRunner_8h.html" target="_top" xlink:title="QualityControl/TaskRunner.h">
<polygon fill="none" stroke="black" points="1910.5,-302.5 1910.5,-321.5 2053.5,-321.5 2053.5,-302.5 1910.5,-302.5"/>
<text text-anchor="middle" x="1982" y="-309.5" font-family="Helvetica,sans-Serif" font-size="10.00">QualityControl/TaskRunner.h</text>
</a>
</g>
</g>
<!-- Node1&#45;&gt;Node43 -->
<g id="edge58" class="edge"><title>Node1&#45;&gt;Node43</title>
<path fill="none" stroke="midnightblue" d="M968.581,-432.241C1148.81,-427.812 1587.59,-414.678 1733,-389 1813.45,-374.794 1904.41,-342.765 1950.95,-325.161"/>
<polygon fill="midnightblue" stroke="midnightblue" points="1952.36,-328.368 1960.45,-321.531 1949.86,-321.829 1952.36,-328.368"/>
</g>
<!-- Node15&#45;&gt;Node3 -->
<g id="edge48" class="edge"><title>Node15&#45;&gt;Node3</title>
<path fill="none" stroke="midnightblue" d="M312.192,-302.447C297.055,-295.221 278.045,-283.264 269,-266 262.606,-253.796 266.182,-248.487 269,-235 280.659,-179.197 312.597,-119.103 329.379,-90.1207"/>
<polygon fill="midnightblue" stroke="midnightblue" points="332.56,-91.6165 334.625,-81.2248 326.53,-88.061 332.56,-91.6165"/>
</g>
<!-- Node16 -->
<g id="node16" class="node"><title>Node16</title>
<g id="a_node16"><a xlink:href="TaskInterface_8h.html" target="_top" xlink:title="TaskInterface.h">
<polygon fill="none" stroke="black" points="1142.5,-241 1142.5,-260 1227.5,-260 1227.5,-241 1142.5,-241"/>
<text text-anchor="middle" x="1185" y="-248" font-family="Helvetica,sans-Serif" font-size="10.00">TaskInterface.h</text>
</a>
</g>
</g>
<!-- Node15&#45;&gt;Node16 -->
<g id="edge15" class="edge"><title>Node15&#45;&gt;Node16</title>
<path fill="none" stroke="midnightblue" d="M408.775,-305.772C577.901,-293.947 986.419,-265.384 1132.21,-255.191"/>
<polygon fill="midnightblue" stroke="midnightblue" points="1132.51,-258.679 1142.24,-254.49 1132.02,-251.696 1132.51,-258.679"/>
</g>
<!-- Node38 -->
<g id="node38" class="node"><title>Node38</title>
<polygon fill="none" stroke="#bfbfbf" points="278,-241 278,-260 408,-260 408,-241 278,-241"/>
<text text-anchor="middle" x="343" y="-248" font-family="Helvetica,sans-Serif" font-size="10.00">InfoLogger/InfoLogger.hxx</text>
</g>
<!-- Node15&#45;&gt;Node38 -->
<g id="edge47" class="edge"><title>Node15&#45;&gt;Node38</title>
<path fill="none" stroke="midnightblue" d="M335.289,-302.475C336.559,-294.08 338.541,-280.981 340.177,-270.163"/>
<polygon fill="midnightblue" stroke="midnightblue" points="343.678,-270.42 341.713,-260.009 336.757,-269.373 343.678,-270.42"/>
</g>
<!-- Node16&#45;&gt;Node2 -->
<g id="edge16" class="edge"><title>Node16&#45;&gt;Node2</title>
<path fill="none" stroke="midnightblue" d="M1142.35,-250.052C1057.2,-250.145 870.866,-244.957 831,-199 780.181,-140.417 917.588,-97.6872 985.967,-80.6478"/>
<polygon fill="midnightblue" stroke="midnightblue" points="987.028,-83.992 995.918,-78.2281 985.374,-77.1902 987.028,-83.992"/>
</g>
<!-- Node17 -->
<g id="node17" class="node"><title>Node17</title>
<polygon fill="none" stroke="#bfbfbf" points="1160.5,-179.5 1160.5,-198.5 1209.5,-198.5 1209.5,-179.5 1160.5,-179.5"/>
<text text-anchor="middle" x="1185" y="-186.5" font-family="Helvetica,sans-Serif" font-size="10.00">cassert</text>
</g>
<!-- Node16&#45;&gt;Node17 -->
<g id="edge17" class="edge"><title>Node16&#45;&gt;Node17</title>
<path fill="none" stroke="midnightblue" d="M1185,-240.975C1185,-232.58 1185,-219.481 1185,-208.663"/>
<polygon fill="midnightblue" stroke="midnightblue" points="1188.5,-208.509 1185,-198.509 1181.5,-208.509 1188.5,-208.509"/>
</g>
<!-- Node18 -->
<g id="node18" class="node"><title>Node18</title>
<polygon fill="none" stroke="#bfbfbf" points="1227.5,-179.5 1227.5,-198.5 1352.5,-198.5 1352.5,-179.5 1227.5,-179.5"/>
<text text-anchor="middle" x="1290" y="-186.5" font-family="Helvetica,sans-Serif" font-size="10.00">Framework/InitContext.h</text>
</g>
<!-- Node16&#45;&gt;Node18 -->
<g id="edge18" class="edge"><title>Node16&#45;&gt;Node18</title>
<path fill="none" stroke="midnightblue" d="M1200.04,-240.975C1217.28,-231.211 1245.74,-215.081 1266.03,-203.581"/>
<polygon fill="midnightblue" stroke="midnightblue" points="1268.01,-206.484 1274.98,-198.509 1264.56,-200.394 1268.01,-206.484"/>
</g>
<!-- Node19 -->
<g id="node19" class="node"><title>Node19</title>
<polygon fill="none" stroke="#bfbfbf" points="1371,-179.5 1371,-198.5 1531,-198.5 1531,-179.5 1371,-179.5"/>
<text text-anchor="middle" x="1451" y="-186.5" font-family="Helvetica,sans-Serif" font-size="10.00">Framework/ProcessingContext.h</text>
</g>
<!-- Node16&#45;&gt;Node19 -->
<g id="edge19" class="edge"><title>Node16&#45;&gt;Node19</title>
<path fill="none" stroke="midnightblue" d="M1223.11,-240.975C1270.52,-230.371 1351.48,-212.26 1403.06,-200.724"/>
<polygon fill="midnightblue" stroke="midnightblue" points="1403.96,-204.108 1412.96,-198.509 1402.44,-197.276 1403.96,-204.108"/>
</g>
<!-- Node20 -->
<g id="node20" class="node"><title>Node20</title>
<polygon fill="none" stroke="#bfbfbf" points="1632.5,-56.5 1632.5,-86.5 1767.5,-86.5 1767.5,-56.5 1632.5,-56.5"/>
<text text-anchor="start" x="1640.5" y="-74.5" font-family="Helvetica,sans-Serif" font-size="10.00">Configuration/Configuration</text>
<text text-anchor="middle" x="1700" y="-63.5" font-family="Helvetica,sans-Serif" font-size="10.00">Interface.h</text>
</g>
<!-- Node16&#45;&gt;Node20 -->
<g id="edge20" class="edge"><title>Node16&#45;&gt;Node20</title>
<path fill="none" stroke="midnightblue" d="M1227.8,-246.646C1309.76,-240.656 1485.56,-225.126 1540,-199 1584.51,-177.642 1582.04,-153.312 1621,-123 1635.36,-111.825 1652.25,-100.78 1666.71,-91.8819"/>
<polygon fill="midnightblue" stroke="midnightblue" points="1668.63,-94.815 1675.36,-86.6371 1665,-88.8295 1668.63,-94.815"/>
</g>
<!-- Node21 -->
<g id="node21" class="node"><title>Node21</title>
<g id="a_node21"><a xlink:href="Activity_8h.html" target="_top" xlink:title="QualityControl/Activity.h">
<polygon fill="none" stroke="black" points="840.5,-179.5 840.5,-198.5 963.5,-198.5 963.5,-179.5 840.5,-179.5"/>
<text text-anchor="middle" x="902" y="-186.5" font-family="Helvetica,sans-Serif" font-size="10.00">QualityControl/Activity.h</text>
</a>
</g>
</g>
<!-- Node16&#45;&gt;Node21 -->
<g id="edge21" class="edge"><title>Node16&#45;&gt;Node21</title>
<path fill="none" stroke="midnightblue" d="M1144.45,-240.975C1093.81,-230.327 1007.16,-212.109 952.324,-200.581"/>
<polygon fill="midnightblue" stroke="midnightblue" points="952.978,-197.142 942.472,-198.509 951.538,-203.992 952.978,-197.142"/>
</g>
<!-- Node22 -->
<g id="node22" class="node"><title>Node22</title>
<g id="a_node22"><a xlink:href="ObjectsManager_8h.html" target="_top" xlink:title="QualityControl/ObjectsManager.h">
<polygon fill="none" stroke="black" points="981.5,-179.5 981.5,-198.5 1142.5,-198.5 1142.5,-179.5 981.5,-179.5"/>
<text text-anchor="middle" x="1062" y="-186.5" font-family="Helvetica,sans-Serif" font-size="10.00">QualityControl/ObjectsManager.h</text>
</a>
</g>
</g>
<!-- Node16&#45;&gt;Node22 -->
<g id="edge22" class="edge"><title>Node16&#45;&gt;Node22</title>
<path fill="none" stroke="midnightblue" d="M1167.38,-240.975C1146.83,-231.034 1112.64,-214.495 1088.79,-202.961"/>
<polygon fill="midnightblue" stroke="midnightblue" points="1090.12,-199.713 1079.59,-198.509 1087.07,-206.015 1090.12,-199.713"/>
</g>
<!-- Node23 -->
<g id="node23" class="node"><title>Node23</title>
<g id="a_node23"><a xlink:href="MonitorObject_8h.html" target="_top" xlink:title="QualityControl/MonitorObject.h">
<polygon fill="none" stroke="black" points="551.5,-123.5 551.5,-142.5 702.5,-142.5 702.5,-123.5 551.5,-123.5"/>
<text text-anchor="middle" x="627" y="-130.5" font-family="Helvetica,sans-Serif" font-size="10.00">QualityControl/MonitorObject.h</text>
</a>
</g>
</g>
<!-- Node22&#45;&gt;Node23 -->
<g id="edge23" class="edge"><title>Node22&#45;&gt;Node23</title>
<path fill="none" stroke="midnightblue" d="M993.073,-179.444C914.882,-169.737 787.618,-153.939 705.621,-143.76"/>
<polygon fill="midnightblue" stroke="midnightblue" points="705.96,-140.275 695.605,-142.516 705.097,-147.222 705.96,-140.275"/>
</g>
<!-- Node26 -->
<g id="node26" class="node"><title>Node26</title>
<g id="a_node26"><a xlink:href="Quality_8h.html" target="_top" xlink:title="QualityControl/Quality.h">
<polygon fill="none" stroke="black" points="678.5,-62 678.5,-81 799.5,-81 799.5,-62 678.5,-62"/>
<text text-anchor="middle" x="739" y="-69" font-family="Helvetica,sans-Serif" font-size="10.00">QualityControl/Quality.h</text>
</a>
</g>
</g>
<!-- Node22&#45;&gt;Node26 -->
<g id="edge32" class="edge"><title>Node22&#45;&gt;Node26</title>
<path fill="none" stroke="midnightblue" d="M1009.15,-179.495C969.948,-172.262 915.626,-160.276 870,-143 829.557,-127.686 785.978,-102.246 760.666,-86.4763"/>
<polygon fill="midnightblue" stroke="midnightblue" points="762.532,-83.5152 752.207,-81.1407 758.798,-89.4359 762.532,-83.5152"/>
</g>
<!-- Node28 -->
<g id="node28" class="node"><title>Node28</title>
<polygon fill="none" stroke="#bfbfbf" points="1406.5,-0.5 1406.5,-19.5 1447.5,-19.5 1447.5,-0.5 1406.5,-0.5"/>
<text text-anchor="middle" x="1427" y="-7.5" font-family="Helvetica,sans-Serif" font-size="10.00">string</text>
</g>
<!-- Node22&#45;&gt;Node28 -->
<g id="edge46" class="edge"><title>Node22&#45;&gt;Node28</title>
<path fill="none" stroke="midnightblue" d="M1103.42,-179.439C1130.26,-172.551 1165.11,-160.999 1192,-143 1234.91,-114.282 1225.3,-83.5105 1269,-56 1308.75,-30.9762 1362.74,-19.5257 1396.2,-14.5406"/>
<polygon fill="midnightblue" stroke="midnightblue" points="1396.87,-17.9807 1406.3,-13.1403 1395.91,-11.047 1396.87,-17.9807"/>
</g>
<!-- Node29 -->
<g id="node29" class="node"><title>Node29</title>
<g id="a_node29"><a xlink:href="TaskConfig_8h.html" target="_top" xlink:title="QualityControl/TaskConfig.h">
<polygon fill="none" stroke="black" points="1630,-123.5 1630,-142.5 1770,-142.5 1770,-123.5 1630,-123.5"/>
<text text-anchor="middle" x="1700" y="-130.5" font-family="Helvetica,sans-Serif" font-size="10.00">QualityControl/TaskConfig.h</text>
</a>
</g>
</g>
<!-- Node22&#45;&gt;Node29 -->
<g id="edge33" class="edge"><title>Node22&#45;&gt;Node29</title>
<path fill="none" stroke="midnightblue" d="M1142.52,-179.788C1145.38,-179.518 1148.22,-179.255 1151,-179 1317.53,-163.757 1512.7,-148.342 1619.69,-140.102"/>
<polygon fill="midnightblue" stroke="midnightblue" points="1620.06,-143.584 1629.77,-139.328 1619.53,-136.605 1620.06,-143.584"/>
</g>
<!-- Node30 -->
<g id="node30" class="node"><title>Node30</title>
<g id="a_node30"><a xlink:href="ServiceDiscovery_8h_source.html" target="_top" xlink:title="QualityControl/ServiceDiscovery.h">
<polygon fill="none" stroke="black" points="1338.5,-123.5 1338.5,-142.5 1505.5,-142.5 1505.5,-123.5 1338.5,-123.5"/>
<text text-anchor="middle" x="1422" y="-130.5" font-family="Helvetica,sans-Serif" font-size="10.00">QualityControl/ServiceDiscovery.h</text>
</a>
</g>
</g>
<!-- Node22&#45;&gt;Node30 -->
<g id="edge36" class="edge"><title>Node22&#45;&gt;Node30</title>
<path fill="none" stroke="midnightblue" d="M1119.04,-179.444C1183.16,-169.826 1287.15,-154.228 1355.06,-144.041"/>
<polygon fill="midnightblue" stroke="midnightblue" points="1355.85,-147.461 1365.22,-142.516 1354.82,-140.539 1355.85,-147.461"/>
</g>
<!-- Node35 -->
<g id="node35" class="node"><title>Node35</title>
<polygon fill="none" stroke="#bfbfbf" points="1025.5,-123.5 1025.5,-142.5 1094.5,-142.5 1094.5,-123.5 1025.5,-123.5"/>
<text text-anchor="middle" x="1060" y="-130.5" font-family="Helvetica,sans-Serif" font-size="10.00">TObjArray.h</text>
</g>
<!-- Node22&#45;&gt;Node35 -->
<g id="edge43" class="edge"><title>Node22&#45;&gt;Node35</title>
<path fill="none" stroke="midnightblue" d="M1061.67,-179.083C1061.41,-172.006 1061.03,-161.861 1060.7,-152.986"/>
<polygon fill="midnightblue" stroke="midnightblue" points="1064.19,-152.615 1060.32,-142.751 1057.2,-152.874 1064.19,-152.615"/>
</g>
<!-- Node36 -->
<g id="node36" class="node"><title>Node36</title>
<polygon fill="none" stroke="#bfbfbf" points="1112.5,-123.5 1112.5,-142.5 1183.5,-142.5 1183.5,-123.5 1112.5,-123.5"/>
<text text-anchor="middle" x="1148" y="-130.5" font-family="Helvetica,sans-Serif" font-size="10.00">TObjString.h</text>
</g>
<!-- Node22&#45;&gt;Node36 -->
<g id="edge44" class="edge"><title>Node22&#45;&gt;Node36</title>
<path fill="none" stroke="midnightblue" d="M1075.82,-179.324C1089.23,-170.9 1109.82,-157.971 1125.59,-148.074"/>
<polygon fill="midnightblue" stroke="midnightblue" points="1127.61,-150.936 1134.22,-142.655 1123.89,-145.008 1127.61,-150.936"/>
</g>
<!-- Node37 -->
<g id="node37" class="node"><title>Node37</title>
<polygon fill="none" stroke="#bfbfbf" points="879,-123.5 879,-142.5 1007,-142.5 1007,-123.5 879,-123.5"/>
<text text-anchor="middle" x="943" y="-130.5" font-family="Helvetica,sans-Serif" font-size="10.00">boost/concept_check.hpp</text>
</g>
<!-- Node22&#45;&gt;Node37 -->
<g id="edge45" class="edge"><title>Node22&#45;&gt;Node37</title>
<path fill="none" stroke="midnightblue" d="M1043.14,-179.444C1023.73,-170.636 993.27,-156.812 971.035,-146.722"/>
<polygon fill="midnightblue" stroke="midnightblue" points="972.32,-143.462 961.768,-142.516 969.428,-149.836 972.32,-143.462"/>
</g>
<!-- Node23&#45;&gt;Node3 -->
<g id="edge24" class="edge"><title>Node23&#45;&gt;Node3</title>
<path fill="none" stroke="midnightblue" d="M585.88,-123.475C529.965,-111.883 430.778,-91.3198 377.056,-80.1823"/>
<polygon fill="midnightblue" stroke="midnightblue" points="377.761,-76.7542 367.259,-78.1513 376.34,-83.6085 377.761,-76.7542"/>
</g>
<!-- Node23&#45;&gt;Node5 -->
<g id="edge27" class="edge"><title>Node23&#45;&gt;Node5</title>
<path fill="none" stroke="midnightblue" d="M610.237,-123.475C590.775,-113.578 558.455,-97.1416 535.789,-85.6151"/>
<polygon fill="midnightblue" stroke="midnightblue" points="537.232,-82.4224 526.732,-81.0091 534.059,-88.6619 537.232,-82.4224"/>
</g>
<!-- Node24 -->
<g id="node24" class="node"><title>Node24</title>
<polygon fill="none" stroke="#bfbfbf" points="586.5,-62 586.5,-81 621.5,-81 621.5,-62 586.5,-62"/>
<text text-anchor="middle" x="604" y="-69" font-family="Helvetica,sans-Serif" font-size="10.00">map</text>
</g>
<!-- Node23&#45;&gt;Node24 -->
<g id="edge25" class="edge"><title>Node23&#45;&gt;Node24</title>
<path fill="none" stroke="midnightblue" d="M623.705,-123.475C620.391,-114.904 615.182,-101.427 610.951,-90.483"/>
<polygon fill="midnightblue" stroke="midnightblue" points="614.159,-89.0745 607.289,-81.0091 607.63,-91.5984 614.159,-89.0745"/>
</g>
<!-- Node25 -->
<g id="node25" class="node"><title>Node25</title>
<polygon fill="none" stroke="#bfbfbf" points="627.5,-0.5 627.5,-19.5 686.5,-19.5 686.5,-0.5 627.5,-0.5"/>
<text text-anchor="middle" x="657" y="-7.5" font-family="Helvetica,sans-Serif" font-size="10.00">TObject.h</text>
</g>
<!-- Node23&#45;&gt;Node25 -->
<g id="edge26" class="edge"><title>Node23&#45;&gt;Node25</title>
<path fill="none" stroke="midnightblue" d="M629.158,-123.298C634.001,-103.763 645.827,-56.0646 652.402,-29.5471"/>
<polygon fill="midnightblue" stroke="midnightblue" points="655.853,-30.1716 654.862,-19.6232 649.058,-28.487 655.853,-30.1716"/>
</g>
<!-- Node23&#45;&gt;Node26 -->
<g id="edge28" class="edge"><title>Node23&#45;&gt;Node26</title>
<path fill="none" stroke="midnightblue" d="M643.047,-123.475C661.593,-113.622 692.34,-97.2883 714.022,-85.7697"/>
<polygon fill="midnightblue" stroke="midnightblue" points="715.794,-88.7916 722.983,-81.0091 712.51,-82.6098 715.794,-88.7916"/>
</g>
<!-- Node26&#45;&gt;Node25 -->
<g id="edge29" class="edge"><title>Node26&#45;&gt;Node25</title>
<path fill="none" stroke="midnightblue" d="M727.251,-61.9751C714.221,-52.5199 692.964,-37.0961 677.241,-25.6871"/>
<polygon fill="midnightblue" stroke="midnightblue" points="678.876,-22.5492 668.727,-19.5091 674.765,-28.2149 678.876,-22.5492"/>
</g>
<!-- Node27 -->
<g id="node27" class="node"><title>Node27</title>
<polygon fill="none" stroke="#bfbfbf" points="713,-0.5 713,-19.5 765,-19.5 765,-0.5 713,-0.5"/>
<text text-anchor="middle" x="739" y="-7.5" font-family="Helvetica,sans-Serif" font-size="10.00">ostream</text>
</g>
<!-- Node26&#45;&gt;Node27 -->
<g id="edge30" class="edge"><title>Node26&#45;&gt;Node27</title>
<path fill="none" stroke="midnightblue" d="M739,-61.9751C739,-53.5803 739,-40.4806 739,-29.6631"/>
<polygon fill="midnightblue" stroke="midnightblue" points="742.5,-29.5091 739,-19.5091 735.5,-29.5091 742.5,-29.5091"/>
</g>
<!-- Node26&#45;&gt;Node28 -->
<g id="edge31" class="edge"><title>Node26&#45;&gt;Node28</title>
<path fill="none" stroke="midnightblue" d="M799.754,-65.2459C941.667,-52.9728 1290.89,-22.7714 1396.35,-13.6506"/>
<polygon fill="midnightblue" stroke="midnightblue" points="1396.67,-17.1358 1406.34,-12.7871 1396.07,-10.1618 1396.67,-17.1358"/>
</g>
<!-- Node29&#45;&gt;Node20 -->
<g id="edge35" class="edge"><title>Node29&#45;&gt;Node20</title>
<path fill="none" stroke="midnightblue" d="M1700,-123.475C1700,-116.471 1700,-106.192 1700,-96.6956"/>
<polygon fill="midnightblue" stroke="midnightblue" points="1703.5,-96.5229 1700,-86.523 1696.5,-96.523 1703.5,-96.5229"/>
</g>
<!-- Node29&#45;&gt;Node28 -->
<g id="edge34" class="edge"><title>Node29&#45;&gt;Node28</title>
<path fill="none" stroke="midnightblue" d="M1728.02,-123.397C1745.17,-116.515 1765.75,-104.984 1776,-87 1782.82,-75.0304 1785.1,-66.3466 1776,-56 1755.1,-32.2357 1539.41,-17.4612 1457.94,-12.6917"/>
<polygon fill="midnightblue" stroke="midnightblue" points="1457.99,-9.18899 1447.8,-12.1099 1457.59,-16.1775 1457.99,-9.18899"/>
</g>
<!-- Node30&#45;&gt;Node2 -->
<g id="edge39" class="edge"><title>Node30&#45;&gt;Node2</title>
<path fill="none" stroke="midnightblue" d="M1364.69,-123.475C1281.06,-111.035 1127.98,-88.2648 1058.29,-77.8976"/>
<polygon fill="midnightblue" stroke="midnightblue" points="1058.64,-74.4117 1048.23,-76.4022 1057.61,-81.3355 1058.64,-74.4117"/>
</g>
<!-- Node30&#45;&gt;Node28 -->
<g id="edge40" class="edge"><title>Node30&#45;&gt;Node28</title>
<path fill="none" stroke="midnightblue" d="M1480.52,-123.431C1521.87,-116.038 1572.15,-103.876 1585,-87 1620.51,-40.3576 1513.17,-20.8808 1457.82,-14.0937"/>
<polygon fill="midnightblue" stroke="midnightblue" points="1458.15,-10.609 1447.81,-12.9357 1457.35,-17.5626 1458.15,-10.609"/>
</g>
<!-- Node31 -->
<g id="node31" class="node"><title>Node31</title>
<polygon fill="none" stroke="#bfbfbf" points="1530,-62 1530,-81 1576,-81 1576,-62 1530,-62"/>
<text text-anchor="middle" x="1553" y="-69" font-family="Helvetica,sans-Serif" font-size="10.00">atomic</text>
</g>
<!-- Node30&#45;&gt;Node31 -->
<g id="edge37" class="edge"><title>Node30&#45;&gt;Node31</title>
<path fill="none" stroke="midnightblue" d="M1440.77,-123.475C1462.85,-113.445 1499.72,-96.7002 1525.14,-85.1546"/>
<polygon fill="midnightblue" stroke="midnightblue" points="1526.61,-88.3313 1534.27,-81.0091 1523.71,-81.9579 1526.61,-88.3313"/>
</g>
<!-- Node32 -->
<g id="node32" class="node"><title>Node32</title>
<polygon fill="none" stroke="#bfbfbf" points="1278.5,-62 1278.5,-81 1337.5,-81 1337.5,-62 1278.5,-62"/>
<text text-anchor="middle" x="1308" y="-69" font-family="Helvetica,sans-Serif" font-size="10.00">curl/curl.h</text>
</g>
<!-- Node30&#45;&gt;Node32 -->
<g id="edge38" class="edge"><title>Node30&#45;&gt;Node32</title>
<path fill="none" stroke="midnightblue" d="M1405.67,-123.475C1386.79,-113.622 1355.49,-97.2883 1333.42,-85.7697"/>
<polygon fill="midnightblue" stroke="midnightblue" points="1334.79,-82.5333 1324.3,-81.0091 1331.55,-88.7389 1334.79,-82.5333"/>
</g>
<!-- Node33 -->
<g id="node33" class="node"><title>Node33</title>
<polygon fill="none" stroke="#bfbfbf" points="1356,-62 1356,-81 1400,-81 1400,-62 1356,-62"/>
<text text-anchor="middle" x="1378" y="-69" font-family="Helvetica,sans-Serif" font-size="10.00">thread</text>
</g>
<!-- Node30&#45;&gt;Node33 -->
<g id="edge41" class="edge"><title>Node30&#45;&gt;Node33</title>
<path fill="none" stroke="midnightblue" d="M1415.7,-123.475C1409.1,-114.55 1398.56,-100.307 1390.31,-89.1425"/>
<polygon fill="midnightblue" stroke="midnightblue" points="1393.05,-86.9684 1384.29,-81.0091 1387.42,-91.1305 1393.05,-86.9684"/>
</g>
<!-- Node34 -->
<g id="node34" class="node"><title>Node34</title>
<polygon fill="none" stroke="#bfbfbf" points="1418,-56.5 1418,-86.5 1512,-86.5 1512,-56.5 1418,-56.5"/>
<text text-anchor="start" x="1426" y="-74.5" font-family="Helvetica,sans-Serif" font-size="10.00">boost/asio/ip/host</text>
<text text-anchor="middle" x="1465" y="-63.5" font-family="Helvetica,sans-Serif" font-size="10.00">_name.hpp</text>
</g>
<!-- Node30&#45;&gt;Node34 -->
<g id="edge42" class="edge"><title>Node30&#45;&gt;Node34</title>
<path fill="none" stroke="midnightblue" d="M1428.16,-123.475C1433.55,-116.019 1441.62,-104.852 1448.83,-94.8685"/>
<polygon fill="midnightblue" stroke="midnightblue" points="1451.85,-96.6781 1454.87,-86.523 1446.17,-92.5779 1451.85,-96.6781"/>
</g>
<!-- Node39&#45;&gt;Node2 -->
<g id="edge51" class="edge"><title>Node39&#45;&gt;Node2</title>
<path fill="none" stroke="midnightblue" d="M1533.21,-363.984C1521.71,-361.958 1509.42,-359.849 1498,-358 1337.47,-332.006 774,-414.12 774,-251.5 774,-251.5 774,-251.5 774,-188 774,-95.8031 916.591,-77.017 985.53,-73.3221"/>
<polygon fill="midnightblue" stroke="midnightblue" points="986.098,-76.8 995.928,-72.8497 985.78,-69.8072 986.098,-76.8"/>
</g>
<!-- Node39&#45;&gt;Node3 -->
<g id="edge50" class="edge"><title>Node39&#45;&gt;Node3</title>
<path fill="none" stroke="midnightblue" d="M1538.02,-363.934C1525.22,-361.632 1511.08,-359.396 1498,-358 1392.19,-346.709 636.104,-369.728 541,-322 437.932,-270.276 369.976,-138.694 347.859,-90.5231"/>
<polygon fill="midnightblue" stroke="midnightblue" points="350.917,-88.7882 343.632,-81.0953 344.53,-91.6521 350.917,-88.7882"/>
</g>
<!-- Node39&#45;&gt;Node5 -->
<g id="edge57" class="edge"><title>Node39&#45;&gt;Node5</title>
<path fill="none" stroke="midnightblue" d="M1538.02,-363.982C1525.22,-361.681 1511.08,-359.435 1498,-358 1315.15,-337.941 850.04,-364.223 671,-322 596.157,-304.35 513,-328.396 513,-251.5 513,-251.5 513,-251.5 513,-188 513,-153.852 511.673,-114.045 510.784,-91.2053"/>
<polygon fill="midnightblue" stroke="midnightblue" points="514.281,-91.0419 510.38,-81.1914 507.287,-91.3245 514.281,-91.0419"/>
</g>
<!-- Node39&#45;&gt;Node15 -->
<g id="edge55" class="edge"><title>Node39&#45;&gt;Node15</title>
<path fill="none" stroke="midnightblue" d="M1538.45,-363.976C1525.54,-361.646 1511.23,-359.384 1498,-358 1022.11,-308.216 899.394,-354.36 422,-322 421.062,-321.936 420.118,-321.871 419.169,-321.803"/>
<polygon fill="midnightblue" stroke="midnightblue" points="419.102,-318.288 408.863,-321.009 418.564,-325.267 419.102,-318.288"/>
</g>
<!-- Node39&#45;&gt;Node29 -->
<g id="edge56" class="edge"><title>Node39&#45;&gt;Node29</title>
<path fill="none" stroke="midnightblue" d="M1559.49,-363.955C1534.91,-352.305 1498.41,-329.684 1510,-302 1541.84,-225.94 1628.76,-171.262 1673.15,-147.382"/>
<polygon fill="midnightblue" stroke="midnightblue" points="1674.97,-150.378 1682.19,-142.626 1671.71,-144.182 1674.97,-150.378"/>
</g>
<!-- Node40 -->
<g id="node40" class="node"><title>Node40</title>
<polygon fill="none" stroke="#bfbfbf" points="1519,-302.5 1519,-321.5 1575,-321.5 1575,-302.5 1519,-302.5"/>
<text text-anchor="middle" x="1547" y="-309.5" font-family="Helvetica,sans-Serif" font-size="10.00">TClass.h</text>
</g>
<!-- Node39&#45;&gt;Node40 -->
<g id="edge52" class="edge"><title>Node39&#45;&gt;Node40</title>
<path fill="none" stroke="midnightblue" d="M1575.27,-363.975C1570.42,-355.227 1562.73,-341.369 1556.6,-330.309"/>
<polygon fill="midnightblue" stroke="midnightblue" points="1559.63,-328.557 1551.72,-321.509 1553.51,-331.952 1559.63,-328.557"/>
</g>
<!-- Node41 -->
<g id="node41" class="node"><title>Node41</title>
<polygon fill="none" stroke="#bfbfbf" points="1593.5,-302.5 1593.5,-321.5 1652.5,-321.5 1652.5,-302.5 1593.5,-302.5"/>
<text text-anchor="middle" x="1623" y="-309.5" font-family="Helvetica,sans-Serif" font-size="10.00">TROOT.h</text>
</g>
<!-- Node39&#45;&gt;Node41 -->
<g id="edge53" class="edge"><title>Node39&#45;&gt;Node41</title>
<path fill="none" stroke="midnightblue" d="M1586.16,-363.975C1592.61,-355.05 1602.9,-340.807 1610.97,-329.643"/>
<polygon fill="midnightblue" stroke="midnightblue" points="1613.83,-331.664 1616.85,-321.509 1608.16,-327.564 1613.83,-331.664"/>
</g>
<!-- Node42 -->
<g id="node42" class="node"><title>Node42</title>
<polygon fill="none" stroke="#bfbfbf" points="680.5,-302.5 680.5,-321.5 745.5,-321.5 745.5,-302.5 680.5,-302.5"/>
<text text-anchor="middle" x="713" y="-309.5" font-family="Helvetica,sans-Serif" font-size="10.00">TSystem.h</text>
</g>
<!-- Node39&#45;&gt;Node42 -->
<g id="edge54" class="edge"><title>Node39&#45;&gt;Node42</title>
<path fill="none" stroke="midnightblue" d="M1537.59,-363.949C1524.9,-361.676 1510.93,-359.453 1498,-358 1171.66,-321.336 1086.07,-360.977 760,-322 758.531,-321.824 757.038,-321.63 755.533,-321.419"/>
<polygon fill="midnightblue" stroke="midnightblue" points="755.947,-317.941 745.524,-319.841 754.856,-324.856 755.947,-317.941"/>
</g>
<!-- Node43&#45;&gt;Node14 -->
<g id="edge67" class="edge"><title>Node43&#45;&gt;Node14</title>
<path fill="none" stroke="midnightblue" d="M1936.3,-302.475C1878.85,-291.761 1780.32,-273.382 1718.58,-261.866"/>
<polygon fill="midnightblue" stroke="midnightblue" points="1719.09,-258.402 1708.62,-260.009 1717.81,-265.283 1719.09,-258.402"/>
</g>
<!-- Node43&#45;&gt;Node16 -->
<g id="edge70" class="edge"><title>Node43&#45;&gt;Node16</title>
<path fill="none" stroke="midnightblue" d="M1910.22,-305.641C1752.1,-293.837 1376.8,-265.819 1237.9,-255.449"/>
<polygon fill="midnightblue" stroke="midnightblue" points="1237.76,-251.929 1227.53,-254.675 1237.24,-258.91 1237.76,-251.929"/>
</g>
<!-- Node43&#45;&gt;Node20 -->
<g id="edge68" class="edge"><title>Node43&#45;&gt;Node20</title>
<path fill="none" stroke="midnightblue" d="M1938.89,-302.446C1914.22,-295.813 1883.92,-284.531 1862,-266 1805.88,-218.556 1829.84,-176.064 1779,-123 1767.27,-110.754 1752,-100.112 1738.02,-91.7963"/>
<polygon fill="midnightblue" stroke="midnightblue" points="1739.49,-88.6026 1729.07,-86.6742 1736.01,-94.6784 1739.49,-88.6026"/>
</g>
<!-- Node43&#45;&gt;Node29 -->
<g id="edge69" class="edge"><title>Node43&#45;&gt;Node29</title>
<path fill="none" stroke="midnightblue" d="M1929.35,-302.432C1898.52,-295.778 1859.73,-284.48 1829,-266 1777.69,-235.138 1732.55,-178.994 1711.91,-150.925"/>
<polygon fill="midnightblue" stroke="midnightblue" points="1714.57,-148.623 1705.88,-142.559 1708.89,-152.717 1714.57,-148.623"/>
</g>
<!-- Node43&#45;&gt;Node30 -->
<g id="edge71" class="edge"><title>Node43&#45;&gt;Node30</title>
<path fill="none" stroke="midnightblue" d="M1910.06,-302.676C1871.53,-296.25 1824.09,-285.095 1785,-266 1765.42,-256.433 1766.15,-245.408 1747,-235 1675.62,-196.206 1650.6,-203.047 1573,-179 1535.09,-167.252 1491.64,-154.365 1461.12,-145.404"/>
<polygon fill="midnightblue" stroke="midnightblue" points="1461.87,-141.977 1451.29,-142.523 1459.9,-148.694 1461.87,-141.977"/>
</g>
<!-- Node44 -->
<g id="node44" class="node"><title>Node44</title>
<polygon fill="none" stroke="#bfbfbf" points="1871,-235.5 1871,-265.5 1973,-265.5 1973,-235.5 1871,-235.5"/>
<text text-anchor="start" x="1879" y="-253.5" font-family="Helvetica,sans-Serif" font-size="10.00">boost/accumulators</text>
<text text-anchor="middle" x="1922" y="-242.5" font-family="Helvetica,sans-Serif" font-size="10.00">/accumulators.hpp</text>
</g>
<!-- Node43&#45;&gt;Node44 -->
<g id="edge59" class="edge"><title>Node43&#45;&gt;Node44</title>
<path fill="none" stroke="midnightblue" d="M1973.4,-302.475C1965.58,-294.718 1953.71,-282.943 1943.34,-272.665"/>
<polygon fill="midnightblue" stroke="midnightblue" points="1945.71,-270.079 1936.14,-265.523 1940.78,-275.05 1945.71,-270.079"/>
</g>
<!-- Node45 -->
<g id="node45" class="node"><title>Node45</title>
<polygon fill="none" stroke="#bfbfbf" points="1991,-235.5 1991,-265.5 2093,-265.5 2093,-235.5 1991,-235.5"/>
<text text-anchor="start" x="1999" y="-253.5" font-family="Helvetica,sans-Serif" font-size="10.00">boost/accumulators</text>
<text text-anchor="middle" x="2042" y="-242.5" font-family="Helvetica,sans-Serif" font-size="10.00">/statistics.hpp</text>
</g>
<!-- Node43&#45;&gt;Node45 -->
<g id="edge60" class="edge"><title>Node43&#45;&gt;Node45</title>
<path fill="none" stroke="midnightblue" d="M1990.6,-302.475C1998.42,-294.718 2010.29,-282.943 2020.66,-272.665"/>
<polygon fill="midnightblue" stroke="midnightblue" points="2023.22,-275.05 2027.86,-265.523 2018.29,-270.079 2023.22,-275.05"/>
</g>
<!-- Node46 -->
<g id="node46" class="node"><title>Node46</title>
<polygon fill="none" stroke="#bfbfbf" points="2111,-241 2111,-260 2191,-260 2191,-241 2111,-241"/>
<text text-anchor="middle" x="2151" y="-248" font-family="Helvetica,sans-Serif" font-size="10.00">boost/asio.hpp</text>
</g>
<!-- Node43&#45;&gt;Node46 -->
<g id="edge61" class="edge"><title>Node43&#45;&gt;Node46</title>
<path fill="none" stroke="midnightblue" d="M2006.21,-302.475C2035.33,-292.225 2084.37,-274.959 2117.2,-263.399"/>
<polygon fill="midnightblue" stroke="midnightblue" points="2118.56,-266.631 2126.83,-260.009 2116.24,-260.029 2118.56,-266.631"/>
</g>
<!-- Node47 -->
<g id="node47" class="node"><title>Node47</title>
<polygon fill="none" stroke="#bfbfbf" points="2209,-235.5 2209,-265.5 2309,-265.5 2309,-235.5 2209,-235.5"/>
<text text-anchor="start" x="2217" y="-253.5" font-family="Helvetica,sans-Serif" font-size="10.00">boost/serialization</text>
<text text-anchor="middle" x="2259" y="-242.5" font-family="Helvetica,sans-Serif" font-size="10.00">/array_wrapper.hpp</text>
</g>
<!-- Node43&#45;&gt;Node47 -->
<g id="edge62" class="edge"><title>Node43&#45;&gt;Node47</title>
<path fill="none" stroke="midnightblue" d="M2025.95,-302.43C2067.89,-294.138 2133.12,-280.955 2198.72,-266.245"/>
<polygon fill="midnightblue" stroke="midnightblue" points="2199.83,-269.581 2208.82,-263.968 2198.29,-262.753 2199.83,-269.581"/>
</g>
<!-- Node48 -->
<g id="node48" class="node"><title>Node48</title>
<polygon fill="none" stroke="#bfbfbf" points="2327,-241 2327,-260 2419,-260 2419,-241 2327,-241"/>
<text text-anchor="middle" x="2373" y="-248" font-family="Helvetica,sans-Serif" font-size="10.00">Common/Timer.h</text>
</g>
<!-- Node43&#45;&gt;Node48 -->
<g id="edge63" class="edge"><title>Node43&#45;&gt;Node48</title>
<path fill="none" stroke="midnightblue" d="M2053.54,-304.032C2121.86,-296.764 2227.5,-283.917 2318,-266 2323.08,-264.995 2328.38,-263.794 2333.6,-262.519"/>
<polygon fill="midnightblue" stroke="midnightblue" points="2334.64,-265.866 2343.47,-260.008 2332.92,-259.082 2334.64,-265.866"/>
</g>
<!-- Node49 -->
<g id="node49" class="node"><title>Node49</title>
<polygon fill="none" stroke="#bfbfbf" points="2437,-241 2437,-260 2535,-260 2535,-241 2437,-241"/>
<text text-anchor="middle" x="2486" y="-248" font-family="Helvetica,sans-Serif" font-size="10.00">Framework/Task.h</text>
</g>
<!-- Node43&#45;&gt;Node49 -->
<g id="edge64" class="edge"><title>Node43&#45;&gt;Node49</title>
<path fill="none" stroke="midnightblue" d="M2053.89,-306.953C2142.4,-301.234 2297.09,-288.844 2428,-266 2433.76,-264.994 2439.8,-263.728 2445.71,-262.365"/>
<polygon fill="midnightblue" stroke="midnightblue" points="2446.57,-265.758 2455.47,-260.009 2444.93,-258.954 2446.57,-265.758"/>
</g>
<!-- Node50 -->
<g id="node50" class="node"><title>Node50</title>
<polygon fill="none" stroke="#bfbfbf" points="2553,-241 2553,-260 2717,-260 2717,-241 2553,-241"/>
<text text-anchor="middle" x="2635" y="-248" font-family="Helvetica,sans-Serif" font-size="10.00">Framework/DataProcessorSpec.h</text>
</g>
<!-- Node43&#45;&gt;Node50 -->
<g id="edge65" class="edge"><title>Node43&#45;&gt;Node50</title>
<path fill="none" stroke="midnightblue" d="M2053.59,-307.064C2160.56,-300.777 2368.33,-286.996 2544,-266 2554.35,-264.763 2565.33,-263.216 2575.95,-261.597"/>
<polygon fill="midnightblue" stroke="midnightblue" points="2576.64,-265.031 2585.98,-260.03 2575.56,-258.115 2576.64,-265.031"/>
</g>
<!-- Node51 -->
<g id="node51" class="node"><title>Node51</title>
<polygon fill="none" stroke="#bfbfbf" points="2735.5,-241 2735.5,-260 2888.5,-260 2888.5,-241 2735.5,-241"/>
<text text-anchor="middle" x="2812" y="-248" font-family="Helvetica,sans-Serif" font-size="10.00">Framework/CompletionPolicy.h</text>
</g>
<!-- Node43&#45;&gt;Node51 -->
<g id="edge66" class="edge"><title>Node43&#45;&gt;Node51</title>
<path fill="none" stroke="midnightblue" d="M2053.52,-309.21C2186.38,-305.321 2480.12,-294.084 2726,-266 2736.04,-264.853 2746.69,-263.319 2756.95,-261.676"/>
<polygon fill="midnightblue" stroke="midnightblue" points="2757.75,-265.092 2767.05,-260.009 2756.61,-258.186 2757.75,-265.092"/>
</g>
</g>
</svg>
