<?xml version="1.0" encoding="UTF-8" standalone="no"?>
<!DOCTYPE svg PUBLIC "-//W3C//DTD SVG 1.1//EN"
 "http://www.w3.org/Graphics/SVG/1.1/DTD/svg11.dtd">
<!-- Generated by graphviz version 2.38.0 (20140413.2041)
 -->
<!-- Title: Framework/include/QualityControl/TaskRunnerFactory.h Pages: 1 -->
<svg width="687pt" height="106pt"
 viewBox="0.00 0.00 686.50 106.00" xmlns="http://www.w3.org/2000/svg" xmlns:xlink="http://www.w3.org/1999/xlink">
<g id="graph0" class="graph" transform="scale(1 1) rotate(0) translate(4 102)">
<title>Framework/include/QualityControl/TaskRunnerFactory.h</title>
<!-- Node1 -->
<g id="node1" class="node"><title>Node1</title>
<polygon fill="#bfbfbf" stroke="black" points="256.5,-67.5 256.5,-97.5 402.5,-97.5 402.5,-67.5 256.5,-67.5"/>
<text text-anchor="start" x="264.5" y="-85.5" font-family="Helvetica,sans-Serif" font-size="10.00">Framework/include/Quality</text>
<text text-anchor="middle" x="329.5" y="-74.5" font-family="Helvetica,sans-Serif" font-size="10.00">Control/TaskRunnerFactory.h</text>
</g>
<!-- Node2 -->
<g id="node2" class="node"><title>Node2</title>
<polygon fill="none" stroke="#bfbfbf" points="0,-0.5 0,-30.5 143,-30.5 143,-0.5 0,-0.5"/>
<text text-anchor="start" x="8" y="-18.5" font-family="Helvetica,sans-Serif" font-size="10.00">Framework/src/Infrastructure</text>
<text text-anchor="middle" x="71.5" y="-7.5" font-family="Helvetica,sans-Serif" font-size="10.00">Generator.cxx</text>
</g>
<!-- Node1&#45;&gt;Node2 -->
<g id="edge1" class="edge"><title>Node1&#45;&gt;Node2</title>
<path fill="none" stroke="midnightblue" d="M263.946,-64.9844C221.805,-54.3674 167.635,-40.7201 127.509,-30.6109"/>
<polygon fill="midnightblue" stroke="midnightblue" points="263.283,-68.4268 273.835,-67.476 264.994,-61.6389 263.283,-68.4268"/>
</g>
<!-- Node3 -->
<g id="node3" class="node"><title>Node3</title>
<g id="a_node3"><a xlink:href="runMergerTest_8cxx.html" target="_top" xlink:title="This is DPL workflow to see HistoMerger in action. ">
<polygon fill="none" stroke="black" points="161,-6 161,-25 328,-25 328,-6 161,-6"/>
<text text-anchor="middle" x="244.5" y="-13" font-family="Helvetica,sans-Serif" font-size="10.00">Framework/src/runMergerTest.cxx</text>
</a>
</g>
</g>
<!-- Node1&#45;&gt;Node3 -->
<g id="edge2" class="edge"><title>Node1&#45;&gt;Node3</title>
<path fill="none" stroke="midnightblue" d="M302.703,-61.008C286.923,-48.9412 267.783,-34.3046 255.87,-25.1945"/>
<polygon fill="midnightblue" stroke="midnightblue" points="300.987,-64.1017 311.056,-67.396 305.239,-58.5412 300.987,-64.1017"/>
</g>
<!-- Node4 -->
<g id="node4" class="node"><title>Node4</title>
<g id="a_node4"><a xlink:href="TaskRunnerFactory_8cxx.html" target="_top" xlink:title="Framework/src/TaskRunner\lFactory.cxx">
<polygon fill="none" stroke="black" points="346.5,-0.5 346.5,-30.5 484.5,-30.5 484.5,-0.5 346.5,-0.5"/>
<text text-anchor="start" x="354.5" y="-18.5" font-family="Helvetica,sans-Serif" font-size="10.00">Framework/src/TaskRunner</text>
<text text-anchor="middle" x="415.5" y="-7.5" font-family="Helvetica,sans-Serif" font-size="10.00">Factory.cxx</text>
</a>
</g>
</g>
<!-- Node1&#45;&gt;Node4 -->
<g id="edge3" class="edge"><title>Node1&#45;&gt;Node4</title>
<path fill="none" stroke="midnightblue" d="M356.401,-61.1677C369.552,-51.2283 385.05,-39.5144 396.876,-30.5765"/>
<polygon fill="midnightblue" stroke="midnightblue" points="354.028,-58.5741 348.161,-67.396 358.249,-64.1585 354.028,-58.5741"/>
</g>
<!-- Node5 -->
<g id="node5" class="node"><title>Node5</title>
<g id="a_node5"><a xlink:href="testTaskRunner_8cxx.html" target="_top" xlink:title="Framework/test/testTaskRunner.cxx">
<polygon fill="none" stroke="black" points="502.5,-6 502.5,-25 678.5,-25 678.5,-6 502.5,-6"/>
<text text-anchor="middle" x="590.5" y="-13" font-family="Helvetica,sans-Serif" font-size="10.00">Framework/test/testTaskRunner.cxx</text>
</a>
</g>
</g>
<!-- Node1&#45;&gt;Node5 -->
<g id="edge4" class="edge"><title>Node1&#45;&gt;Node5</title>
<path fill="none" stroke="midnightblue" d="M395.794,-64.9899C446.944,-52.2516 515.62,-35.1484 556.254,-25.0287"/>
<polygon fill="midnightblue" stroke="midnightblue" points="394.67,-61.663 385.812,-67.476 396.361,-68.4556 394.67,-61.663"/>
</g>
</g>
</svg>
