<?xml version="1.0" encoding="UTF-8" standalone="no"?>
<!DOCTYPE svg PUBLIC "-//W3C//DTD SVG 1.1//EN"
 "http://www.w3.org/Graphics/SVG/1.1/DTD/svg11.dtd">
<!-- Generated by graphviz version 2.38.0 (20140413.2041)
 -->
<!-- Title: Framework/include/QualityControl/TaskFactory.h Pages: 1 -->
<svg width="1375pt" height="106pt"
 viewBox="0.00 0.00 1375.00 106.00" xmlns="http://www.w3.org/2000/svg" xmlns:xlink="http://www.w3.org/1999/xlink">
<g id="graph0" class="graph" transform="scale(1 1) rotate(0) translate(4 102)">
<title>Framework/include/QualityControl/TaskFactory.h</title>
<!-- Node1 -->
<g id="node1" class="node"><title>Node1</title>
<polygon fill="#bfbfbf" stroke="black" points="676,-67.5 676,-97.5 809,-97.5 809,-67.5 676,-67.5"/>
<text text-anchor="start" x="684" y="-85.5" font-family="Helvetica,sans-Serif" font-size="10.00">Framework/include/Quality</text>
<text text-anchor="middle" x="742.5" y="-74.5" font-family="Helvetica,sans-Serif" font-size="10.00">Control/TaskFactory.h</text>
</g>
<!-- Node2 -->
<g id="node2" class="node"><title>Node2</title>
<g id="a_node2"><a xlink:href="TaskRunner_8cxx.html" target="_top" xlink:title="Framework/src/TaskRunner.cxx">
<polygon fill="none" stroke="black" points="0,-6 0,-25 157,-25 157,-6 0,-6"/>
<text text-anchor="middle" x="78.5" y="-13" font-family="Helvetica,sans-Serif" font-size="10.00">Framework/src/TaskRunner.cxx</text>
</a>
</g>
</g>
<!-- Node1&#45;&gt;Node2 -->
<g id="edge1" class="edge"><title>Node1&#45;&gt;Node2</title>
<path fill="none" stroke="midnightblue" d="M665.605,-76.6817C554.815,-69.306 343.979,-53.6487 165.5,-31 152.588,-29.3615 138.659,-27.2125 125.812,-25.0726"/>
<polygon fill="midnightblue" stroke="midnightblue" points="665.475,-80.1807 675.684,-77.3482 665.937,-73.1959 665.475,-80.1807"/>
</g>
<!-- Node3 -->
<g id="node3" class="node"><title>Node3</title>
<g id="a_node3"><a xlink:href="testTaskInterface_8cxx.html" target="_top" xlink:title="Framework/test/testTaskInterface.cxx">
<polygon fill="none" stroke="black" points="175,-6 175,-25 358,-25 358,-6 175,-6"/>
<text text-anchor="middle" x="266.5" y="-13" font-family="Helvetica,sans-Serif" font-size="10.00">Framework/test/testTaskInterface.cxx</text>
</a>
</g>
</g>
<!-- Node1&#45;&gt;Node3 -->
<g id="edge2" class="edge"><title>Node1&#45;&gt;Node3</title>
<path fill="none" stroke="midnightblue" d="M665.943,-71.4568C589.943,-61.4303 470.131,-45.472 366.5,-31 352.948,-29.1075 338.371,-27.0221 324.652,-25.0371"/>
<polygon fill="midnightblue" stroke="midnightblue" points="665.538,-74.9336 675.909,-72.7708 666.453,-67.9937 665.538,-74.9336"/>
</g>
<!-- Node4 -->
<g id="node4" class="node"><title>Node4</title>
<g id="a_node4"><a xlink:href="testQcDaq_8cxx.html" target="_top" xlink:title="Modules/Daq/test/testQcDaq.cxx">
<polygon fill="none" stroke="black" points="376,-6 376,-25 539,-25 539,-6 376,-6"/>
<text text-anchor="middle" x="457.5" y="-13" font-family="Helvetica,sans-Serif" font-size="10.00">Modules/Daq/test/testQcDaq.cxx</text>
</a>
</g>
</g>
<!-- Node1&#45;&gt;Node4 -->
<g id="edge3" class="edge"><title>Node1&#45;&gt;Node4</title>
<path fill="none" stroke="midnightblue" d="M671.154,-65.2282C615.195,-52.4656 539.543,-35.2116 494.895,-25.0287"/>
<polygon fill="midnightblue" stroke="midnightblue" points="670.482,-68.6647 681.01,-67.476 672.039,-61.8399 670.482,-68.6647"/>
</g>
<!-- Node5 -->
<g id="node5" class="node"><title>Node5</title>
<g id="a_node5"><a xlink:href="testEMCAL_8cxx.html" target="_top" xlink:title="Modules/EMCAL/test\l/testEMCAL.cxx">
<polygon fill="none" stroke="black" points="557.5,-0.5 557.5,-30.5 667.5,-30.5 667.5,-0.5 557.5,-0.5"/>
<text text-anchor="start" x="565.5" y="-18.5" font-family="Helvetica,sans-Serif" font-size="10.00">Modules/EMCAL/test</text>
<text text-anchor="middle" x="612.5" y="-7.5" font-family="Helvetica,sans-Serif" font-size="10.00">/testEMCAL.cxx</text>
</a>
</g>
</g>
<!-- Node1&#45;&gt;Node5 -->
<g id="edge4" class="edge"><title>Node1&#45;&gt;Node5</title>
<path fill="none" stroke="midnightblue" d="M705.207,-62.8533C684.652,-52.5761 659.55,-40.0252 640.653,-30.5765"/>
<polygon fill="midnightblue" stroke="midnightblue" points="703.782,-66.0543 714.292,-67.396 706.913,-59.7933 703.782,-66.0543"/>
</g>
<!-- Node6 -->
<g id="node6" class="node"><title>Node6</title>
<polygon fill="none" stroke="#bfbfbf" points="685.5,-0.5 685.5,-30.5 799.5,-30.5 799.5,-0.5 685.5,-0.5"/>
<text text-anchor="start" x="693.5" y="-18.5" font-family="Helvetica,sans-Serif" font-size="10.00">Modules/Example/test</text>
<text text-anchor="middle" x="742.5" y="-7.5" font-family="Helvetica,sans-Serif" font-size="10.00">/testFactory.cxx</text>
</g>
<!-- Node1&#45;&gt;Node6 -->
<g id="edge5" class="edge"><title>Node1&#45;&gt;Node6</title>
<path fill="none" stroke="midnightblue" d="M742.5,-57.1081C742.5,-48.1539 742.5,-38.3227 742.5,-30.5765"/>
<polygon fill="midnightblue" stroke="midnightblue" points="739,-57.3959 742.5,-67.396 746,-57.396 739,-57.3959"/>
</g>
<!-- Node7 -->
<g id="node7" class="node"><title>Node7</title>
<g id="a_node7"><a xlink:href="testQcExample_8cxx.html" target="_top" xlink:title="Modules/Example/test\l/testQcExample.cxx">
<polygon fill="none" stroke="black" points="817.5,-0.5 817.5,-30.5 931.5,-30.5 931.5,-0.5 817.5,-0.5"/>
<text text-anchor="start" x="825.5" y="-18.5" font-family="Helvetica,sans-Serif" font-size="10.00">Modules/Example/test</text>
<text text-anchor="middle" x="874.5" y="-7.5" font-family="Helvetica,sans-Serif" font-size="10.00">/testQcExample.cxx</text>
</a>
</g>
</g>
<!-- Node1&#45;&gt;Node7 -->
<g id="edge6" class="edge"><title>Node1&#45;&gt;Node7</title>
<path fill="none" stroke="midnightblue" d="M780.367,-62.8533C801.238,-52.5761 826.726,-40.0252 845.914,-30.5765"/>
<polygon fill="midnightblue" stroke="midnightblue" points="778.567,-59.8383 771.142,-67.396 781.66,-66.1182 778.567,-59.8383"/>
</g>
<!-- Node8 -->
<g id="node8" class="node"><title>Node8</title>
<polygon fill="none" stroke="#bfbfbf" points="949.5,-0.5 949.5,-30.5 1063.5,-30.5 1063.5,-0.5 949.5,-0.5"/>
<text text-anchor="start" x="957.5" y="-18.5" font-family="Helvetica,sans-Serif" font-size="10.00">Modules/Skeleton/test</text>
<text text-anchor="middle" x="1006.5" y="-7.5" font-family="Helvetica,sans-Serif" font-size="10.00">/.testEmpty.cxx</text>
</g>
<!-- Node1&#45;&gt;Node8 -->
<g id="edge7" class="edge"><title>Node1&#45;&gt;Node8</title>
<path fill="none" stroke="midnightblue" d="M809.306,-65.0515C852.466,-54.425 908.042,-40.7414 949.188,-30.6109"/>
<polygon fill="midnightblue" stroke="midnightblue" points="808.332,-61.6867 799.459,-67.476 810.006,-68.4837 808.332,-61.6867"/>
</g>
<!-- Node9 -->
<g id="node9" class="node"><title>Node9</title>
<g id="a_node9"><a xlink:href="testQcSkeleton_8cxx.html" target="_top" xlink:title="Modules/Skeleton/test\l/testQcSkeleton.cxx">
<polygon fill="none" stroke="black" points="1081.5,-0.5 1081.5,-30.5 1195.5,-30.5 1195.5,-0.5 1081.5,-0.5"/>
<text text-anchor="start" x="1089.5" y="-18.5" font-family="Helvetica,sans-Serif" font-size="10.00">Modules/Skeleton/test</text>
<text text-anchor="middle" x="1138.5" y="-7.5" font-family="Helvetica,sans-Serif" font-size="10.00">/testQcSkeleton.cxx</text>
</a>
</g>
</g>
<!-- Node1&#45;&gt;Node9 -->
<g id="edge8" class="edge"><title>Node1&#45;&gt;Node9</title>
<path fill="none" stroke="midnightblue" d="M819.137,-71.1981C886.172,-61.8475 986.055,-47.0929 1072.5,-31 1075.38,-30.4632 1078.33,-29.893 1081.31,-29.301"/>
<polygon fill="midnightblue" stroke="midnightblue" points="818.503,-67.7525 809.08,-72.5949 819.466,-74.686 818.503,-67.7525"/>
</g>
<!-- Node10 -->
<g id="node10" class="node"><title>Node10</title>
<g id="a_node10"><a xlink:href="testTOF_8cxx.html" target="_top" xlink:title="Modules/TOF/test/testTOF.cxx">
<polygon fill="none" stroke="black" points="1214,-6 1214,-25 1367,-25 1367,-6 1214,-6"/>
<text text-anchor="middle" x="1290.5" y="-13" font-family="Helvetica,sans-Serif" font-size="10.00">Modules/TOF/test/testTOF.cxx</text>
</a>
</g>
</g>
<!-- Node1&#45;&gt;Node10 -->
<g id="edge9" class="edge"><title>Node1&#45;&gt;Node10</title>
<path fill="none" stroke="midnightblue" d="M819.252,-74.4886C911.059,-65.7836 1069.31,-49.7694 1204.5,-31 1216.95,-29.2718 1230.36,-27.14 1242.81,-25.048"/>
<polygon fill="midnightblue" stroke="midnightblue" points="818.839,-71.012 809.212,-75.4365 819.497,-77.981 818.839,-71.012"/>
</g>
</g>
</svg>
