<?xml version="1.0" encoding="UTF-8" standalone="no"?>
<!DOCTYPE svg PUBLIC "-//W3C//DTD SVG 1.1//EN"
 "http://www.w3.org/Graphics/SVG/1.1/DTD/svg11.dtd">
<!-- Generated by graphviz version 2.38.0 (20140413.2041)
 -->
<!-- Title: Framework/src/TaskRunnerFactory.cxx Pages: 1 -->
<svg width="1867pt" height="408pt"
 viewBox="0.00 0.00 1867.00 408.00" xmlns="http://www.w3.org/2000/svg" xmlns:xlink="http://www.w3.org/1999/xlink">
<g id="graph0" class="graph" transform="scale(1 1) rotate(0) translate(4 404)">
<title>Framework/src/TaskRunnerFactory.cxx</title>
<!-- Node1 -->
<g id="node1" class="node"><title>Node1</title>
<polygon fill="#bfbfbf" stroke="black" points="190,-369.5 190,-399.5 328,-399.5 328,-369.5 190,-369.5"/>
<text text-anchor="start" x="198" y="-387.5" font-family="Helvetica,sans-Serif" font-size="10.00">Framework/src/TaskRunner</text>
<text text-anchor="middle" x="259" y="-376.5" font-family="Helvetica,sans-Serif" font-size="10.00">Factory.cxx</text>
</g>
<!-- Node2 -->
<g id="node2" class="node"><title>Node2</title>
<polygon fill="none" stroke="#bfbfbf" points="43,-308 43,-327 173,-327 173,-308 43,-308"/>
<text text-anchor="middle" x="108" y="-315" font-family="Helvetica,sans-Serif" font-size="10.00">Framework/DeviceSpec.h</text>
</g>
<!-- Node1&#45;&gt;Node2 -->
<g id="edge1" class="edge"><title>Node1&#45;&gt;Node2</title>
<path fill="none" stroke="midnightblue" d="M226.235,-369.396C199.741,-357.991 162.777,-342.079 137.265,-331.098"/>
<polygon fill="midnightblue" stroke="midnightblue" points="138.331,-327.746 127.762,-327.007 135.564,-334.176 138.331,-327.746"/>
</g>
<!-- Node3 -->
<g id="node3" class="node"><title>Node3</title>
<g id="a_node3"><a xlink:href="TaskRunnerFactory_8h.html" target="_top" xlink:title="QualityControl/TaskRunner\lFactory.h">
<polygon fill="none" stroke="black" points="191.5,-302.5 191.5,-332.5 326.5,-332.5 326.5,-302.5 191.5,-302.5"/>
<text text-anchor="start" x="199.5" y="-320.5" font-family="Helvetica,sans-Serif" font-size="10.00">QualityControl/TaskRunner</text>
<text text-anchor="middle" x="259" y="-309.5" font-family="Helvetica,sans-Serif" font-size="10.00">Factory.h</text>
</a>
</g>
</g>
<!-- Node1&#45;&gt;Node3 -->
<g id="edge2" class="edge"><title>Node1&#45;&gt;Node3</title>
<path fill="none" stroke="midnightblue" d="M259,-369.396C259,-361.645 259,-351.812 259,-342.86"/>
<polygon fill="midnightblue" stroke="midnightblue" points="262.5,-342.576 259,-332.577 255.5,-342.577 262.5,-342.576"/>
</g>
<!-- Node6 -->
<g id="node6" class="node"><title>Node6</title>
<g id="a_node6"><a xlink:href="TaskRunner_8h.html" target="_top" xlink:title="QualityControl/TaskRunner.h">
<polygon fill="none" stroke="black" points="707.5,-308 707.5,-327 850.5,-327 850.5,-308 707.5,-308"/>
<text text-anchor="middle" x="779" y="-315" font-family="Helvetica,sans-Serif" font-size="10.00">QualityControl/TaskRunner.h</text>
</a>
</g>
</g>
<!-- Node1&#45;&gt;Node6 -->
<g id="edge5" class="edge"><title>Node1&#45;&gt;Node6</title>
<path fill="none" stroke="midnightblue" d="M328.052,-374.869C424.608,-362.799 599.466,-340.942 700.736,-328.283"/>
<polygon fill="midnightblue" stroke="midnightblue" points="701.415,-331.725 710.903,-327.012 700.546,-324.78 701.415,-331.725"/>
</g>
<!-- Node4 -->
<g id="node4" class="node"><title>Node4</title>
<polygon fill="none" stroke="#bfbfbf" points="182.5,-241 182.5,-260 335.5,-260 335.5,-241 182.5,-241"/>
<text text-anchor="middle" x="259" y="-248" font-family="Helvetica,sans-Serif" font-size="10.00">Framework/CompletionPolicy.h</text>
</g>
<!-- Node3&#45;&gt;Node4 -->
<g id="edge3" class="edge"><title>Node3&#45;&gt;Node4</title>
<path fill="none" stroke="midnightblue" d="M259,-302.396C259,-293.064 259,-280.714 259,-270.517"/>
<polygon fill="midnightblue" stroke="midnightblue" points="262.5,-270.195 259,-260.195 255.5,-270.195 262.5,-270.195"/>
</g>
<!-- Node5 -->
<g id="node5" class="node"><title>Node5</title>
<polygon fill="none" stroke="#bfbfbf" points="0,-241 0,-260 164,-260 164,-241 0,-241"/>
<text text-anchor="middle" x="82" y="-248" font-family="Helvetica,sans-Serif" font-size="10.00">Framework/DataProcessorSpec.h</text>
</g>
<!-- Node3&#45;&gt;Node5 -->
<g id="edge4" class="edge"><title>Node3&#45;&gt;Node5</title>
<path fill="none" stroke="midnightblue" d="M220.594,-302.396C188.987,-290.789 144.671,-274.515 114.729,-263.519"/>
<polygon fill="midnightblue" stroke="midnightblue" points="115.759,-260.169 105.165,-260.007 113.346,-266.74 115.759,-260.169"/>
</g>
<!-- Node6&#45;&gt;Node4 -->
<g id="edge13" class="edge"><title>Node6&#45;&gt;Node4</title>
<path fill="none" stroke="midnightblue" d="M707.434,-309.307C621.282,-300.387 472.291,-284.125 345,-266 335.973,-264.715 326.434,-263.232 317.124,-261.715"/>
<polygon fill="midnightblue" stroke="midnightblue" points="317.583,-258.244 307.146,-260.064 316.441,-265.15 317.583,-258.244"/>
</g>
<!-- Node6&#45;&gt;Node5 -->
<g id="edge12" class="edge"><title>Node6&#45;&gt;Node5</title>
<path fill="none" stroke="midnightblue" d="M707.457,-312.279C593.914,-305.189 365.582,-289.334 173,-266 162.65,-264.746 151.671,-263.191 141.056,-261.569"/>
<polygon fill="midnightblue" stroke="midnightblue" points="141.442,-258.087 131.022,-260.001 140.362,-265.003 141.442,-258.087"/>
</g>
<!-- Node7 -->
<g id="node7" class="node"><title>Node7</title>
<polygon fill="none" stroke="#bfbfbf" points="1197,-235.5 1197,-265.5 1299,-265.5 1299,-235.5 1197,-235.5"/>
<text text-anchor="start" x="1205" y="-253.5" font-family="Helvetica,sans-Serif" font-size="10.00">boost/accumulators</text>
<text text-anchor="middle" x="1248" y="-242.5" font-family="Helvetica,sans-Serif" font-size="10.00">/accumulators.hpp</text>
</g>
<!-- Node6&#45;&gt;Node7 -->
<g id="edge6" class="edge"><title>Node6&#45;&gt;Node7</title>
<path fill="none" stroke="midnightblue" d="M850.824,-309.607C931.844,-301.348 1067.39,-286.073 1183,-266 1184.28,-265.777 1185.58,-265.547 1186.88,-265.308"/>
<polygon fill="midnightblue" stroke="midnightblue" points="1187.84,-268.688 1197,-263.359 1186.52,-261.814 1187.84,-268.688"/>
</g>
<!-- Node8 -->
<g id="node8" class="node"><title>Node8</title>
<polygon fill="none" stroke="#bfbfbf" points="1317,-235.5 1317,-265.5 1419,-265.5 1419,-235.5 1317,-235.5"/>
<text text-anchor="start" x="1325" y="-253.5" font-family="Helvetica,sans-Serif" font-size="10.00">boost/accumulators</text>
<text text-anchor="middle" x="1368" y="-242.5" font-family="Helvetica,sans-Serif" font-size="10.00">/statistics.hpp</text>
</g>
<!-- Node6&#45;&gt;Node8 -->
<g id="edge7" class="edge"><title>Node6&#45;&gt;Node8</title>
<path fill="none" stroke="midnightblue" d="M850.866,-312.881C951.021,-307.118 1138.32,-293.734 1306.67,-266.072"/>
<polygon fill="midnightblue" stroke="midnightblue" points="1307.42,-269.495 1316.71,-264.401 1306.27,-262.59 1307.42,-269.495"/>
</g>
<!-- Node9 -->
<g id="node9" class="node"><title>Node9</title>
<polygon fill="none" stroke="#bfbfbf" points="1437,-241 1437,-260 1517,-260 1517,-241 1437,-241"/>
<text text-anchor="middle" x="1477" y="-248" font-family="Helvetica,sans-Serif" font-size="10.00">boost/asio.hpp</text>
</g>
<!-- Node6&#45;&gt;Node9 -->
<g id="edge8" class="edge"><title>Node6&#45;&gt;Node9</title>
<path fill="none" stroke="midnightblue" d="M850.701,-315.821C971.015,-313.593 1220.74,-304.29 1428,-266 1432.54,-265.161 1437.26,-264.065 1441.89,-262.85"/>
<polygon fill="midnightblue" stroke="midnightblue" points="1443.14,-266.135 1451.81,-260.054 1441.24,-259.398 1443.14,-266.135"/>
</g>
<!-- Node10 -->
<g id="node10" class="node"><title>Node10</title>
<polygon fill="none" stroke="#bfbfbf" points="1535,-235.5 1535,-265.5 1635,-265.5 1635,-235.5 1535,-235.5"/>
<text text-anchor="start" x="1543" y="-253.5" font-family="Helvetica,sans-Serif" font-size="10.00">boost/serialization</text>
<text text-anchor="middle" x="1585" y="-242.5" font-family="Helvetica,sans-Serif" font-size="10.00">/array_wrapper.hpp</text>
</g>
<!-- Node6&#45;&gt;Node10 -->
<g id="edge9" class="edge"><title>Node6&#45;&gt;Node10</title>
<path fill="none" stroke="midnightblue" d="M850.523,-315.781C982.295,-313.559 1272.26,-304.486 1524.81,-265.996"/>
<polygon fill="midnightblue" stroke="midnightblue" points="1525.56,-269.422 1534.91,-264.438 1524.49,-262.504 1525.56,-269.422"/>
</g>
<!-- Node11 -->
<g id="node11" class="node"><title>Node11</title>
<polygon fill="none" stroke="#bfbfbf" points="354,-241 354,-260 446,-260 446,-241 354,-241"/>
<text text-anchor="middle" x="400" y="-248" font-family="Helvetica,sans-Serif" font-size="10.00">Common/Timer.h</text>
</g>
<!-- Node6&#45;&gt;Node11 -->
<g id="edge10" class="edge"><title>Node6&#45;&gt;Node11</title>
<path fill="none" stroke="midnightblue" d="M710.991,-307.978C645.176,-299.242 542.764,-284.357 455,-266 450.179,-264.992 445.149,-263.826 440.175,-262.602"/>
<polygon fill="midnightblue" stroke="midnightblue" points="440.68,-259.119 430.126,-260.041 438.952,-265.902 440.68,-259.119"/>
</g>
<!-- Node12 -->
<g id="node12" class="node"><title>Node12</title>
<polygon fill="none" stroke="#bfbfbf" points="464,-241 464,-260 562,-260 562,-241 464,-241"/>
<text text-anchor="middle" x="513" y="-248" font-family="Helvetica,sans-Serif" font-size="10.00">Framework/Task.h</text>
</g>
<!-- Node6&#45;&gt;Node12 -->
<g id="edge11" class="edge"><title>Node6&#45;&gt;Node12</title>
<path fill="none" stroke="midnightblue" d="M743.651,-307.995C702.252,-298.017 631.616,-280.935 571,-266 566.392,-264.865 561.581,-263.673 556.785,-262.48"/>
<polygon fill="midnightblue" stroke="midnightblue" points="557.583,-259.072 547.033,-260.049 555.89,-265.864 557.583,-259.072"/>
</g>
<!-- Node13 -->
<g id="node13" class="node"><title>Node13</title>
<polygon fill="none" stroke="#bfbfbf" points="580.5,-241 580.5,-260 731.5,-260 731.5,-241 580.5,-241"/>
<text text-anchor="middle" x="656" y="-248" font-family="Helvetica,sans-Serif" font-size="10.00">Monitoring/MonitoringFactory.h</text>
</g>
<!-- Node6&#45;&gt;Node13 -->
<g id="edge14" class="edge"><title>Node6&#45;&gt;Node13</title>
<path fill="none" stroke="midnightblue" d="M762.667,-307.869C741.898,-296.893 705.814,-277.824 681.43,-264.938"/>
<polygon fill="midnightblue" stroke="midnightblue" points="682.878,-261.745 672.401,-260.167 679.607,-267.934 682.878,-261.745"/>
</g>
<!-- Node14 -->
<g id="node14" class="node"><title>Node14</title>
<polygon fill="none" stroke="#bfbfbf" points="636.5,-56.5 636.5,-86.5 771.5,-86.5 771.5,-56.5 636.5,-56.5"/>
<text text-anchor="start" x="644.5" y="-74.5" font-family="Helvetica,sans-Serif" font-size="10.00">Configuration/Configuration</text>
<text text-anchor="middle" x="704" y="-63.5" font-family="Helvetica,sans-Serif" font-size="10.00">Interface.h</text>
</g>
<!-- Node6&#45;&gt;Node14 -->
<g id="edge15" class="edge"><title>Node6&#45;&gt;Node14</title>
<path fill="none" stroke="midnightblue" d="M774.334,-307.791C761.27,-282.927 724.287,-209.141 709,-143 705.511,-127.907 704.248,-110.554 703.863,-96.8412"/>
<polygon fill="midnightblue" stroke="midnightblue" points="707.361,-96.6853 703.717,-86.7369 700.362,-96.7865 707.361,-96.6853"/>
</g>
<!-- Node15 -->
<g id="node15" class="node"><title>Node15</title>
<g id="a_node15"><a xlink:href="TaskConfig_8h.html" target="_top" xlink:title="QualityControl/TaskConfig.h">
<polygon fill="none" stroke="black" points="732,-123.5 732,-142.5 872,-142.5 872,-123.5 732,-123.5"/>
<text text-anchor="middle" x="802" y="-130.5" font-family="Helvetica,sans-Serif" font-size="10.00">QualityControl/TaskConfig.h</text>
</a>
</g>
</g>
<!-- Node6&#45;&gt;Node15 -->
<g id="edge16" class="edge"><title>Node6&#45;&gt;Node15</title>
<path fill="none" stroke="midnightblue" d="M780.109,-307.698C783.654,-279.573 794.759,-191.458 799.649,-152.657"/>
<polygon fill="midnightblue" stroke="midnightblue" points="803.124,-153.073 800.902,-142.714 796.179,-152.198 803.124,-153.073"/>
</g>
<!-- Node17 -->
<g id="node17" class="node"><title>Node17</title>
<g id="a_node17"><a xlink:href="TaskInterface_8h.html" target="_top" xlink:title="QualityControl/TaskInterface.h">
<polygon fill="none" stroke="black" points="991,-241 991,-260 1141,-260 1141,-241 991,-241"/>
<text text-anchor="middle" x="1066" y="-248" font-family="Helvetica,sans-Serif" font-size="10.00">QualityControl/TaskInterface.h</text>
</a>
</g>
</g>
<!-- Node6&#45;&gt;Node17 -->
<g id="edge19" class="edge"><title>Node6&#45;&gt;Node17</title>
<path fill="none" stroke="midnightblue" d="M816.815,-307.936C868.652,-296.196 961.774,-275.105 1018.33,-262.297"/>
<polygon fill="midnightblue" stroke="midnightblue" points="1019.12,-265.706 1028.1,-260.083 1017.57,-258.879 1019.12,-265.706"/>
</g>
<!-- Node31 -->
<g id="node31" class="node"><title>Node31</title>
<g id="a_node31"><a xlink:href="ServiceDiscovery_8h_source.html" target="_top" xlink:title="QualityControl/ServiceDiscovery.h">
<polygon fill="none" stroke="black" points="1500.5,-123.5 1500.5,-142.5 1667.5,-142.5 1667.5,-123.5 1500.5,-123.5"/>
<text text-anchor="middle" x="1584" y="-130.5" font-family="Helvetica,sans-Serif" font-size="10.00">QualityControl/ServiceDiscovery.h</text>
</a>
</g>
</g>
<!-- Node6&#45;&gt;Node31 -->
<g id="edge49" class="edge"><title>Node6&#45;&gt;Node31</title>
<path fill="none" stroke="midnightblue" d="M850.858,-311.37C943.178,-303.983 1097.76,-288.694 1150,-266 1169.99,-257.316 1167.84,-243.281 1188,-235 1265.85,-203.023 1500.14,-252.623 1565,-199 1578.43,-187.897 1582.68,-167.862 1583.87,-152.959"/>
<polygon fill="midnightblue" stroke="midnightblue" points="1587.38,-152.933 1584.3,-142.797 1580.38,-152.643 1587.38,-152.933"/>
</g>
<!-- Node15&#45;&gt;Node14 -->
<g id="edge18" class="edge"><title>Node15&#45;&gt;Node14</title>
<path fill="none" stroke="midnightblue" d="M787.959,-123.475C774.438,-115.266 753.507,-102.558 735.927,-91.8845"/>
<polygon fill="midnightblue" stroke="midnightblue" points="737.461,-88.721 727.097,-86.523 733.828,-94.7046 737.461,-88.721"/>
</g>
<!-- Node16 -->
<g id="node16" class="node"><title>Node16</title>
<polygon fill="none" stroke="#bfbfbf" points="1376.5,-0.5 1376.5,-19.5 1417.5,-19.5 1417.5,-0.5 1376.5,-0.5"/>
<text text-anchor="middle" x="1397" y="-7.5" font-family="Helvetica,sans-Serif" font-size="10.00">string</text>
</g>
<!-- Node15&#45;&gt;Node16 -->
<g id="edge17" class="edge"><title>Node15&#45;&gt;Node16</title>
<path fill="none" stroke="midnightblue" d="M817.242,-123.375C846.804,-107.101 914.44,-72.06 976,-56 1133.3,-14.9627 1178.75,-40.6859 1340,-20 1348.62,-18.8943 1357.94,-17.5047 1366.5,-16.1506"/>
<polygon fill="midnightblue" stroke="midnightblue" points="1367.15,-19.5909 1376.46,-14.5378 1366.03,-12.6808 1367.15,-19.5909"/>
</g>
<!-- Node17&#45;&gt;Node14 -->
<g id="edge24" class="edge"><title>Node17&#45;&gt;Node14</title>
<path fill="none" stroke="midnightblue" d="M990.873,-240.986C940.471,-233.663 873.266,-220.739 817,-199 771.638,-181.474 752.367,-181.761 723,-143 712.935,-129.715 708.197,-111.479 705.969,-96.8824"/>
<polygon fill="midnightblue" stroke="midnightblue" points="709.396,-96.073 704.707,-86.5719 702.448,-96.9229 709.396,-96.073"/>
</g>
<!-- Node18 -->
<g id="node18" class="node"><title>Node18</title>
<polygon fill="none" stroke="#bfbfbf" points="1453,-62 1453,-81 1505,-81 1505,-62 1453,-62"/>
<text text-anchor="middle" x="1479" y="-69" font-family="Helvetica,sans-Serif" font-size="10.00">memory</text>
</g>
<!-- Node17&#45;&gt;Node18 -->
<g id="edge20" class="edge"><title>Node17&#45;&gt;Node18</title>
<path fill="none" stroke="midnightblue" d="M1116.67,-240.959C1178.68,-230.211 1279.9,-211.631 1316,-199 1334.39,-192.567 1337.53,-187.615 1355,-179 1388.52,-162.47 1402.6,-167.298 1431,-143 1448.17,-128.313 1461.92,-106.09 1470.23,-90.5306"/>
<polygon fill="midnightblue" stroke="midnightblue" points="1473.46,-91.9123 1474.89,-81.4148 1467.22,-88.7276 1473.46,-91.9123"/>
</g>
<!-- Node19 -->
<g id="node19" class="node"><title>Node19</title>
<polygon fill="none" stroke="#bfbfbf" points="1363.5,-179.5 1363.5,-198.5 1412.5,-198.5 1412.5,-179.5 1363.5,-179.5"/>
<text text-anchor="middle" x="1388" y="-186.5" font-family="Helvetica,sans-Serif" font-size="10.00">cassert</text>
</g>
<!-- Node17&#45;&gt;Node19 -->
<g id="edge21" class="edge"><title>Node17&#45;&gt;Node19</title>
<path fill="none" stroke="midnightblue" d="M1118.31,-240.974C1175.22,-231.51 1268.81,-215.397 1349,-199 1350.45,-198.704 1351.92,-198.395 1353.41,-198.078"/>
<polygon fill="midnightblue" stroke="midnightblue" points="1354.27,-201.472 1363.28,-195.901 1352.76,-194.637 1354.27,-201.472"/>
</g>
<!-- Node20 -->
<g id="node20" class="node"><title>Node20</title>
<polygon fill="none" stroke="#bfbfbf" points="1430.5,-179.5 1430.5,-198.5 1555.5,-198.5 1555.5,-179.5 1430.5,-179.5"/>
<text text-anchor="middle" x="1493" y="-186.5" font-family="Helvetica,sans-Serif" font-size="10.00">Framework/InitContext.h</text>
</g>
<!-- Node17&#45;&gt;Node20 -->
<g id="edge22" class="edge"><title>Node17&#45;&gt;Node20</title>
<path fill="none" stroke="midnightblue" d="M1116.79,-240.963C1129.27,-238.937 1142.61,-236.834 1155,-235 1204.66,-227.65 1336.88,-210.287 1420.46,-199.405"/>
<polygon fill="midnightblue" stroke="midnightblue" points="1420.94,-202.872 1430.41,-198.111 1420.04,-195.931 1420.94,-202.872"/>
</g>
<!-- Node21 -->
<g id="node21" class="node"><title>Node21</title>
<polygon fill="none" stroke="#bfbfbf" points="826,-179.5 826,-198.5 986,-198.5 986,-179.5 826,-179.5"/>
<text text-anchor="middle" x="906" y="-186.5" font-family="Helvetica,sans-Serif" font-size="10.00">Framework/ProcessingContext.h</text>
</g>
<!-- Node17&#45;&gt;Node21 -->
<g id="edge23" class="edge"><title>Node17&#45;&gt;Node21</title>
<path fill="none" stroke="midnightblue" d="M1043.08,-240.975C1015.63,-230.769 969.484,-213.608 938.401,-202.049"/>
<polygon fill="midnightblue" stroke="midnightblue" points="939.474,-198.714 928.882,-198.509 937.035,-205.275 939.474,-198.714"/>
</g>
<!-- Node22 -->
<g id="node22" class="node"><title>Node22</title>
<g id="a_node22"><a xlink:href="Activity_8h.html" target="_top" xlink:title="QualityControl/Activity.h">
<polygon fill="none" stroke="black" points="1004.5,-179.5 1004.5,-198.5 1127.5,-198.5 1127.5,-179.5 1004.5,-179.5"/>
<text text-anchor="middle" x="1066" y="-186.5" font-family="Helvetica,sans-Serif" font-size="10.00">QualityControl/Activity.h</text>
</a>
</g>
</g>
<!-- Node17&#45;&gt;Node22 -->
<g id="edge25" class="edge"><title>Node17&#45;&gt;Node22</title>
<path fill="none" stroke="midnightblue" d="M1066,-240.975C1066,-232.58 1066,-219.481 1066,-208.663"/>
<polygon fill="midnightblue" stroke="midnightblue" points="1069.5,-208.509 1066,-198.509 1062.5,-208.509 1069.5,-208.509"/>
</g>
<!-- Node23 -->
<g id="node23" class="node"><title>Node23</title>
<g id="a_node23"><a xlink:href="ObjectsManager_8h.html" target="_top" xlink:title="QualityControl/ObjectsManager.h">
<polygon fill="none" stroke="black" points="1145.5,-179.5 1145.5,-198.5 1306.5,-198.5 1306.5,-179.5 1145.5,-179.5"/>
<text text-anchor="middle" x="1226" y="-186.5" font-family="Helvetica,sans-Serif" font-size="10.00">QualityControl/ObjectsManager.h</text>
</a>
</g>
</g>
<!-- Node17&#45;&gt;Node23 -->
<g id="edge26" class="edge"><title>Node17&#45;&gt;Node23</title>
<path fill="none" stroke="midnightblue" d="M1088.92,-240.975C1116.37,-230.769 1162.52,-213.608 1193.6,-202.049"/>
<polygon fill="midnightblue" stroke="midnightblue" points="1194.97,-205.275 1203.12,-198.509 1192.53,-198.714 1194.97,-205.275"/>
</g>
<!-- Node23&#45;&gt;Node15 -->
<g id="edge37" class="edge"><title>Node23&#45;&gt;Node15</title>
<path fill="none" stroke="midnightblue" d="M1158.82,-179.444C1082.68,-169.747 958.809,-153.971 878.877,-143.791"/>
<polygon fill="midnightblue" stroke="midnightblue" points="879.232,-140.308 868.87,-142.516 878.347,-147.252 879.232,-140.308"/>
</g>
<!-- Node23&#45;&gt;Node16 -->
<g id="edge48" class="edge"><title>Node23&#45;&gt;Node16</title>
<path fill="none" stroke="midnightblue" d="M1300.08,-179.463C1345.65,-172.515 1397.93,-160.885 1412,-143 1438.18,-109.731 1419.11,-56.3106 1406.21,-28.7387"/>
<polygon fill="midnightblue" stroke="midnightblue" points="1409.24,-26.9593 1401.68,-19.533 1402.96,-30.0507 1409.24,-26.9593"/>
</g>
<!-- Node24 -->
<g id="node24" class="node"><title>Node24</title>
<g id="a_node24"><a xlink:href="MonitorObject_8h.html" target="_top" xlink:title="QualityControl/MonitorObject.h">
<polygon fill="none" stroke="black" points="979.5,-123.5 979.5,-142.5 1130.5,-142.5 1130.5,-123.5 979.5,-123.5"/>
<text text-anchor="middle" x="1055" y="-130.5" font-family="Helvetica,sans-Serif" font-size="10.00">QualityControl/MonitorObject.h</text>
</a>
</g>
</g>
<!-- Node23&#45;&gt;Node24 -->
<g id="edge27" class="edge"><title>Node23&#45;&gt;Node24</title>
<path fill="none" stroke="midnightblue" d="M1198.9,-179.444C1170.01,-170.32 1124.08,-155.813 1091.89,-145.651"/>
<polygon fill="midnightblue" stroke="midnightblue" points="1092.56,-142.19 1081.97,-142.516 1090.45,-148.865 1092.56,-142.19"/>
</g>
<!-- Node29 -->
<g id="node29" class="node"><title>Node29</title>
<g id="a_node29"><a xlink:href="Quality_8h.html" target="_top" xlink:title="QualityControl/Quality.h">
<polygon fill="none" stroke="black" points="1244.5,-62 1244.5,-81 1365.5,-81 1365.5,-62 1244.5,-62"/>
<text text-anchor="middle" x="1305" y="-69" font-family="Helvetica,sans-Serif" font-size="10.00">QualityControl/Quality.h</text>
</a>
</g>
</g>
<!-- Node23&#45;&gt;Node29 -->
<g id="edge36" class="edge"><title>Node23&#45;&gt;Node29</title>
<path fill="none" stroke="midnightblue" d="M1242.98,-179.406C1256.58,-171.673 1275.12,-159.064 1286,-143 1296.54,-127.443 1301.24,-106.268 1303.33,-91.1946"/>
<polygon fill="midnightblue" stroke="midnightblue" points="1306.84,-91.3816 1304.48,-81.0518 1299.88,-90.5956 1306.84,-91.3816"/>
</g>
<!-- Node23&#45;&gt;Node31 -->
<g id="edge38" class="edge"><title>Node23&#45;&gt;Node31</title>
<path fill="none" stroke="midnightblue" d="M1282.73,-179.444C1346.49,-169.826 1449.9,-154.228 1517.43,-144.041"/>
<polygon fill="midnightblue" stroke="midnightblue" points="1518.17,-147.469 1527.54,-142.516 1517.13,-140.547 1518.17,-147.469"/>
</g>
<!-- Node36 -->
<g id="node36" class="node"><title>Node36</title>
<polygon fill="none" stroke="#bfbfbf" points="1333.5,-123.5 1333.5,-142.5 1402.5,-142.5 1402.5,-123.5 1333.5,-123.5"/>
<text text-anchor="middle" x="1368" y="-130.5" font-family="Helvetica,sans-Serif" font-size="10.00">TObjArray.h</text>
</g>
<!-- Node23&#45;&gt;Node36 -->
<g id="edge45" class="edge"><title>Node23&#45;&gt;Node36</title>
<path fill="none" stroke="midnightblue" d="M1248.5,-179.444C1272.08,-170.478 1309.32,-156.314 1335.96,-146.183"/>
<polygon fill="midnightblue" stroke="midnightblue" points="1337.5,-149.342 1345.6,-142.516 1335.01,-142.8 1337.5,-149.342"/>
</g>
<!-- Node37 -->
<g id="node37" class="node"><title>Node37</title>
<polygon fill="none" stroke="#bfbfbf" points="890.5,-123.5 890.5,-142.5 961.5,-142.5 961.5,-123.5 890.5,-123.5"/>
<text text-anchor="middle" x="926" y="-130.5" font-family="Helvetica,sans-Serif" font-size="10.00">TObjString.h</text>
</g>
<!-- Node23&#45;&gt;Node37 -->
<g id="edge46" class="edge"><title>Node23&#45;&gt;Node37</title>
<path fill="none" stroke="midnightblue" d="M1175.62,-179.457C1126.25,-171.007 1048.6,-157.509 971.707,-143.099"/>
<polygon fill="midnightblue" stroke="midnightblue" points="972.322,-139.654 961.847,-141.246 971.028,-146.533 972.322,-139.654"/>
</g>
<!-- Node38 -->
<g id="node38" class="node"><title>Node38</title>
<polygon fill="none" stroke="#bfbfbf" points="1149,-123.5 1149,-142.5 1277,-142.5 1277,-123.5 1149,-123.5"/>
<text text-anchor="middle" x="1213" y="-130.5" font-family="Helvetica,sans-Serif" font-size="10.00">boost/concept_check.hpp</text>
</g>
<!-- Node23&#45;&gt;Node38 -->
<g id="edge47" class="edge"><title>Node23&#45;&gt;Node38</title>
<path fill="none" stroke="midnightblue" d="M1223.85,-179.083C1222.13,-171.927 1219.65,-161.635 1217.5,-152.691"/>
<polygon fill="midnightblue" stroke="midnightblue" points="1220.85,-151.654 1215.11,-142.751 1214.04,-153.293 1220.85,-151.654"/>
</g>
<!-- Node25 -->
<g id="node25" class="node"><title>Node25</title>
<polygon fill="none" stroke="#bfbfbf" points="1119,-62 1119,-81 1173,-81 1173,-62 1119,-62"/>
<text text-anchor="middle" x="1146" y="-69" font-family="Helvetica,sans-Serif" font-size="10.00">iostream</text>
</g>
<!-- Node24&#45;&gt;Node25 -->
<g id="edge28" class="edge"><title>Node24&#45;&gt;Node25</title>
<path fill="none" stroke="midnightblue" d="M1068.04,-123.475C1082.77,-113.843 1106.97,-98.0175 1124.51,-86.5517"/>
<polygon fill="midnightblue" stroke="midnightblue" points="1126.53,-89.411 1132.99,-81.0091 1122.7,-83.5522 1126.53,-89.411"/>
</g>
<!-- Node26 -->
<g id="node26" class="node"><title>Node26</title>
<polygon fill="none" stroke="#bfbfbf" points="1191.5,-62 1191.5,-81 1226.5,-81 1226.5,-62 1191.5,-62"/>
<text text-anchor="middle" x="1209" y="-69" font-family="Helvetica,sans-Serif" font-size="10.00">map</text>
</g>
<!-- Node24&#45;&gt;Node26 -->
<g id="edge29" class="edge"><title>Node24&#45;&gt;Node26</title>
<path fill="none" stroke="midnightblue" d="M1082.97,-123.446C1109.03,-115.162 1148.74,-101.722 1182,-87 1183,-86.5585 1184.01,-86.0948 1185.02,-85.6152"/>
<polygon fill="midnightblue" stroke="midnightblue" points="1186.72,-88.679 1194.07,-81.0427 1183.56,-82.4324 1186.72,-88.679"/>
</g>
<!-- Node27 -->
<g id="node27" class="node"><title>Node27</title>
<polygon fill="none" stroke="#bfbfbf" points="1045.5,-0.5 1045.5,-19.5 1104.5,-19.5 1104.5,-0.5 1045.5,-0.5"/>
<text text-anchor="middle" x="1075" y="-7.5" font-family="Helvetica,sans-Serif" font-size="10.00">TObject.h</text>
</g>
<!-- Node24&#45;&gt;Node27 -->
<g id="edge30" class="edge"><title>Node24&#45;&gt;Node27</title>
<path fill="none" stroke="midnightblue" d="M1025.12,-123.387C1007.46,-116.587 986.549,-105.15 976,-87 969.076,-75.0882 968.541,-67.584 976,-56 989.059,-35.719 1013.74,-24.473 1035.19,-18.2953"/>
<polygon fill="midnightblue" stroke="midnightblue" points="1036.29,-21.628 1045.08,-15.7258 1034.53,-14.8529 1036.29,-21.628"/>
</g>
<!-- Node28 -->
<g id="node28" class="node"><title>Node28</title>
<polygon fill="none" stroke="#bfbfbf" points="985,-62 985,-81 1101,-81 1101,-62 985,-62"/>
<text text-anchor="middle" x="1043" y="-69" font-family="Helvetica,sans-Serif" font-size="10.00">Common/Exceptions.h</text>
</g>
<!-- Node24&#45;&gt;Node28 -->
<g id="edge31" class="edge"><title>Node24&#45;&gt;Node28</title>
<path fill="none" stroke="midnightblue" d="M1053.28,-123.475C1051.57,-114.992 1048.89,-101.704 1046.7,-90.8222"/>
<polygon fill="midnightblue" stroke="midnightblue" points="1050.12,-90.1197 1044.72,-81.0091 1043.26,-91.5037 1050.12,-90.1197"/>
</g>
<!-- Node24&#45;&gt;Node29 -->
<g id="edge32" class="edge"><title>Node24&#45;&gt;Node29</title>
<path fill="none" stroke="midnightblue" d="M1090.82,-123.475C1135.19,-112.915 1210.84,-94.911 1259.33,-83.3689"/>
<polygon fill="midnightblue" stroke="midnightblue" points="1260.33,-86.7294 1269.25,-81.0091 1258.71,-79.9196 1260.33,-86.7294"/>
</g>
<!-- Node29&#45;&gt;Node16 -->
<g id="edge35" class="edge"><title>Node29&#45;&gt;Node16</title>
<path fill="none" stroke="midnightblue" d="M1318.18,-61.9751C1333.07,-52.3431 1357.54,-36.5175 1375.27,-25.0517"/>
<polygon fill="midnightblue" stroke="midnightblue" points="1377.35,-27.8787 1383.84,-19.5091 1373.55,-22.0008 1377.35,-27.8787"/>
</g>
<!-- Node29&#45;&gt;Node27 -->
<g id="edge33" class="edge"><title>Node29&#45;&gt;Node27</title>
<path fill="none" stroke="midnightblue" d="M1272.05,-61.9751C1230.45,-51.2132 1158.96,-32.7194 1114.48,-21.2137"/>
<polygon fill="midnightblue" stroke="midnightblue" points="1115.16,-17.7753 1104.61,-18.6591 1113.41,-24.5522 1115.16,-17.7753"/>
</g>
<!-- Node30 -->
<g id="node30" class="node"><title>Node30</title>
<polygon fill="none" stroke="#bfbfbf" points="1279,-0.5 1279,-19.5 1331,-19.5 1331,-0.5 1279,-0.5"/>
<text text-anchor="middle" x="1305" y="-7.5" font-family="Helvetica,sans-Serif" font-size="10.00">ostream</text>
</g>
<!-- Node29&#45;&gt;Node30 -->
<g id="edge34" class="edge"><title>Node29&#45;&gt;Node30</title>
<path fill="none" stroke="midnightblue" d="M1305,-61.9751C1305,-53.5803 1305,-40.4806 1305,-29.6631"/>
<polygon fill="midnightblue" stroke="midnightblue" points="1308.5,-29.5091 1305,-19.5091 1301.5,-29.5091 1308.5,-29.5091"/>
</g>
<!-- Node31&#45;&gt;Node16 -->
<g id="edge42" class="edge"><title>Node31&#45;&gt;Node16</title>
<path fill="none" stroke="midnightblue" d="M1578.06,-123.27C1567.09,-107.741 1542.19,-75.1551 1514,-56 1487.38,-37.9131 1452.48,-25.7066 1427.74,-18.622"/>
<polygon fill="midnightblue" stroke="midnightblue" points="1428.38,-15.1695 1417.81,-15.8971 1426.53,-21.9198 1428.38,-15.1695"/>
</g>
<!-- Node31&#45;&gt;Node18 -->
<g id="edge41" class="edge"><title>Node31&#45;&gt;Node18</title>
<path fill="none" stroke="midnightblue" d="M1568.96,-123.475C1551.72,-113.711 1523.26,-97.5807 1502.97,-86.0808"/>
<polygon fill="midnightblue" stroke="midnightblue" points="1504.44,-82.8942 1494.02,-81.0091 1500.99,-88.9843 1504.44,-82.8942"/>
</g>
<!-- Node32 -->
<g id="node32" class="node"><title>Node32</title>
<polygon fill="none" stroke="#bfbfbf" points="1561,-62 1561,-81 1607,-81 1607,-62 1561,-62"/>
<text text-anchor="middle" x="1584" y="-69" font-family="Helvetica,sans-Serif" font-size="10.00">atomic</text>
</g>
<!-- Node31&#45;&gt;Node32 -->
<g id="edge39" class="edge"><title>Node31&#45;&gt;Node32</title>
<path fill="none" stroke="midnightblue" d="M1584,-123.475C1584,-115.08 1584,-101.981 1584,-91.1631"/>
<polygon fill="midnightblue" stroke="midnightblue" points="1587.5,-91.0091 1584,-81.0091 1580.5,-91.0091 1587.5,-91.0091"/>
</g>
<!-- Node33 -->
<g id="node33" class="node"><title>Node33</title>
<polygon fill="none" stroke="#bfbfbf" points="1625.5,-62 1625.5,-81 1684.5,-81 1684.5,-62 1625.5,-62"/>
<text text-anchor="middle" x="1655" y="-69" font-family="Helvetica,sans-Serif" font-size="10.00">curl/curl.h</text>
</g>
<!-- Node31&#45;&gt;Node33 -->
<g id="edge40" class="edge"><title>Node31&#45;&gt;Node33</title>
<path fill="none" stroke="midnightblue" d="M1594.17,-123.475C1605.35,-114.108 1623.52,-98.8839 1637.09,-87.5081"/>
<polygon fill="midnightblue" stroke="midnightblue" points="1639.43,-90.1148 1644.85,-81.0091 1634.93,-84.7496 1639.43,-90.1148"/>
</g>
<!-- Node34 -->
<g id="node34" class="node"><title>Node34</title>
<polygon fill="none" stroke="#bfbfbf" points="1703,-62 1703,-81 1747,-81 1747,-62 1703,-62"/>
<text text-anchor="middle" x="1725" y="-69" font-family="Helvetica,sans-Serif" font-size="10.00">thread</text>
</g>
<!-- Node31&#45;&gt;Node34 -->
<g id="edge43" class="edge"><title>Node31&#45;&gt;Node34</title>
<path fill="none" stroke="midnightblue" d="M1606.05,-123.351C1628.35,-114.514 1663.76,-100.248 1694,-87 1695.19,-86.477 1696.41,-85.9371 1697.64,-85.3871"/>
<polygon fill="midnightblue" stroke="midnightblue" points="1699.4,-88.4295 1707.04,-81.0847 1696.49,-82.0646 1699.4,-88.4295"/>
</g>
<!-- Node35 -->
<g id="node35" class="node"><title>Node35</title>
<polygon fill="none" stroke="#bfbfbf" points="1765,-56.5 1765,-86.5 1859,-86.5 1859,-56.5 1765,-56.5"/>
<text text-anchor="start" x="1773" y="-74.5" font-family="Helvetica,sans-Serif" font-size="10.00">boost/asio/ip/host</text>
<text text-anchor="middle" x="1812" y="-63.5" font-family="Helvetica,sans-Serif" font-size="10.00">_name.hpp</text>
</g>
<!-- Node31&#45;&gt;Node35 -->
<g id="edge44" class="edge"><title>Node31&#45;&gt;Node35</title>
<path fill="none" stroke="midnightblue" d="M1616.67,-123.475C1652.65,-114.085 1711.19,-98.807 1754.82,-87.4219"/>
<polygon fill="midnightblue" stroke="midnightblue" points="1755.93,-90.7486 1764.73,-84.8369 1754.17,-83.9755 1755.93,-90.7486"/>
</g>
</g>
</svg>
