<?xml version="1.0" encoding="UTF-8" standalone="no"?>
<!DOCTYPE svg PUBLIC "-//W3C//DTD SVG 1.1//EN"
 "http://www.w3.org/Graphics/SVG/1.1/DTD/svg11.dtd">
<!-- Generated by graphviz version 2.38.0 (20140413.2041)
 -->
<!-- Title: Framework/include/QualityControl/TaskRunner.h Pages: 1 -->
<svg width="2422pt" height="341pt"
 viewBox="0.00 0.00 2422.00 341.00" xmlns="http://www.w3.org/2000/svg" xmlns:xlink="http://www.w3.org/1999/xlink">
<g id="graph0" class="graph" transform="scale(1 1) rotate(0) translate(4 337)">
<title>Framework/include/QualityControl/TaskRunner.h</title>
<!-- Node1 -->
<g id="node1" class="node"><title>Node1</title>
<polygon fill="#bfbfbf" stroke="black" points="697.5,-302.5 697.5,-332.5 830.5,-332.5 830.5,-302.5 697.5,-302.5"/>
<text text-anchor="start" x="705.5" y="-320.5" font-family="Helvetica,sans-Serif" font-size="10.00">Framework/include/Quality</text>
<text text-anchor="middle" x="764" y="-309.5" font-family="Helvetica,sans-Serif" font-size="10.00">Control/TaskRunner.h</text>
</g>
<!-- Node2 -->
<g id="node2" class="node"><title>Node2</title>
<polygon fill="none" stroke="#bfbfbf" points="0,-235.5 0,-265.5 102,-265.5 102,-235.5 0,-235.5"/>
<text text-anchor="start" x="8" y="-253.5" font-family="Helvetica,sans-Serif" font-size="10.00">boost/accumulators</text>
<text text-anchor="middle" x="51" y="-242.5" font-family="Helvetica,sans-Serif" font-size="10.00">/accumulators.hpp</text>
</g>
<!-- Node1&#45;&gt;Node2 -->
<g id="edge1" class="edge"><title>Node1&#45;&gt;Node2</title>
<path fill="none" stroke="midnightblue" d="M697.315,-314.859C580.497,-311.217 331.231,-300.024 112.348,-266.046"/>
<polygon fill="midnightblue" stroke="midnightblue" points="112.7,-262.558 102.278,-264.463 111.613,-269.473 112.7,-262.558"/>
</g>
<!-- Node3 -->
<g id="node3" class="node"><title>Node3</title>
<polygon fill="none" stroke="#bfbfbf" points="120,-235.5 120,-265.5 222,-265.5 222,-235.5 120,-235.5"/>
<text text-anchor="start" x="128" y="-253.5" font-family="Helvetica,sans-Serif" font-size="10.00">boost/accumulators</text>
<text text-anchor="middle" x="171" y="-242.5" font-family="Helvetica,sans-Serif" font-size="10.00">/statistics.hpp</text>
</g>
<!-- Node1&#45;&gt;Node3 -->
<g id="edge2" class="edge"><title>Node1&#45;&gt;Node3</title>
<path fill="none" stroke="midnightblue" d="M697.128,-313.232C597.691,-307.696 404.909,-294.362 232.316,-266.069"/>
<polygon fill="midnightblue" stroke="midnightblue" points="232.726,-262.589 222.288,-264.404 231.58,-269.494 232.726,-262.589"/>
</g>
<!-- Node4 -->
<g id="node4" class="node"><title>Node4</title>
<polygon fill="none" stroke="#bfbfbf" points="240,-241 240,-260 320,-260 320,-241 240,-241"/>
<text text-anchor="middle" x="280" y="-248" font-family="Helvetica,sans-Serif" font-size="10.00">boost/asio.hpp</text>
</g>
<!-- Node1&#45;&gt;Node4 -->
<g id="edge3" class="edge"><title>Node1&#45;&gt;Node4</title>
<path fill="none" stroke="midnightblue" d="M697.481,-312.351C611.659,-306.183 458.05,-292.38 329,-266 324.578,-265.096 319.978,-263.979 315.446,-262.769"/>
<polygon fill="midnightblue" stroke="midnightblue" points="316.304,-259.374 305.728,-260.018 314.397,-266.109 316.304,-259.374"/>
</g>
<!-- Node5 -->
<g id="node5" class="node"><title>Node5</title>
<polygon fill="none" stroke="#bfbfbf" points="338,-235.5 338,-265.5 438,-265.5 438,-235.5 338,-235.5"/>
<text text-anchor="start" x="346" y="-253.5" font-family="Helvetica,sans-Serif" font-size="10.00">boost/serialization</text>
<text text-anchor="middle" x="388" y="-242.5" font-family="Helvetica,sans-Serif" font-size="10.00">/array_wrapper.hpp</text>
</g>
<!-- Node1&#45;&gt;Node5 -->
<g id="edge4" class="edge"><title>Node1&#45;&gt;Node5</title>
<path fill="none" stroke="midnightblue" d="M697.227,-307.506C635.138,-298.77 539.881,-284.419 448.159,-266.139"/>
<polygon fill="midnightblue" stroke="midnightblue" points="448.642,-262.666 438.148,-264.125 447.262,-269.528 448.642,-262.666"/>
</g>
<!-- Node6 -->
<g id="node6" class="node"><title>Node6</title>
<polygon fill="none" stroke="#bfbfbf" points="456,-241 456,-260 548,-260 548,-241 456,-241"/>
<text text-anchor="middle" x="502" y="-248" font-family="Helvetica,sans-Serif" font-size="10.00">Common/Timer.h</text>
</g>
<!-- Node1&#45;&gt;Node6 -->
<g id="edge5" class="edge"><title>Node1&#45;&gt;Node6</title>
<path fill="none" stroke="midnightblue" d="M705.039,-302.422C663.582,-292.449 606.838,-278.648 557,-266 552.684,-264.905 548.182,-263.745 543.693,-262.578"/>
<polygon fill="midnightblue" stroke="midnightblue" points="544.526,-259.179 533.966,-260.034 542.754,-265.951 544.526,-259.179"/>
</g>
<!-- Node7 -->
<g id="node7" class="node"><title>Node7</title>
<polygon fill="none" stroke="#bfbfbf" points="566,-241 566,-260 664,-260 664,-241 566,-241"/>
<text text-anchor="middle" x="615" y="-248" font-family="Helvetica,sans-Serif" font-size="10.00">Framework/Task.h</text>
</g>
<!-- Node1&#45;&gt;Node7 -->
<g id="edge6" class="edge"><title>Node1&#45;&gt;Node7</title>
<path fill="none" stroke="midnightblue" d="M731.669,-302.396C705.525,-290.991 669.051,-275.079 643.878,-264.098"/>
<polygon fill="midnightblue" stroke="midnightblue" points="645.066,-260.798 634.501,-260.007 642.267,-267.214 645.066,-260.798"/>
</g>
<!-- Node8 -->
<g id="node8" class="node"><title>Node8</title>
<polygon fill="none" stroke="#bfbfbf" points="682,-241 682,-260 846,-260 846,-241 682,-241"/>
<text text-anchor="middle" x="764" y="-248" font-family="Helvetica,sans-Serif" font-size="10.00">Framework/DataProcessorSpec.h</text>
</g>
<!-- Node1&#45;&gt;Node8 -->
<g id="edge7" class="edge"><title>Node1&#45;&gt;Node8</title>
<path fill="none" stroke="midnightblue" d="M764,-302.396C764,-293.064 764,-280.714 764,-270.517"/>
<polygon fill="midnightblue" stroke="midnightblue" points="767.5,-270.195 764,-260.195 760.5,-270.195 767.5,-270.195"/>
</g>
<!-- Node9 -->
<g id="node9" class="node"><title>Node9</title>
<polygon fill="none" stroke="#bfbfbf" points="864.5,-241 864.5,-260 1017.5,-260 1017.5,-241 864.5,-241"/>
<text text-anchor="middle" x="941" y="-248" font-family="Helvetica,sans-Serif" font-size="10.00">Framework/CompletionPolicy.h</text>
</g>
<!-- Node1&#45;&gt;Node9 -->
<g id="edge8" class="edge"><title>Node1&#45;&gt;Node9</title>
<path fill="none" stroke="midnightblue" d="M802.406,-302.396C834.013,-290.789 878.329,-274.515 908.271,-263.519"/>
<polygon fill="midnightblue" stroke="midnightblue" points="909.654,-266.74 917.835,-260.007 907.241,-260.169 909.654,-266.74"/>
</g>
<!-- Node10 -->
<g id="node10" class="node"><title>Node10</title>
<polygon fill="none" stroke="#bfbfbf" points="1035.5,-241 1035.5,-260 1186.5,-260 1186.5,-241 1035.5,-241"/>
<text text-anchor="middle" x="1111" y="-248" font-family="Helvetica,sans-Serif" font-size="10.00">Monitoring/MonitoringFactory.h</text>
</g>
<!-- Node1&#45;&gt;Node10 -->
<g id="edge9" class="edge"><title>Node1&#45;&gt;Node10</title>
<path fill="none" stroke="midnightblue" d="M830.905,-303.967C896.293,-291.719 994.66,-273.293 1055.74,-261.852"/>
<polygon fill="midnightblue" stroke="midnightblue" points="1056.4,-265.289 1065.58,-260.008 1055.11,-258.409 1056.4,-265.289"/>
</g>
<!-- Node11 -->
<g id="node11" class="node"><title>Node11</title>
<polygon fill="none" stroke="#bfbfbf" points="1185.5,-56.5 1185.5,-86.5 1320.5,-86.5 1320.5,-56.5 1185.5,-56.5"/>
<text text-anchor="start" x="1193.5" y="-74.5" font-family="Helvetica,sans-Serif" font-size="10.00">Configuration/Configuration</text>
<text text-anchor="middle" x="1253" y="-63.5" font-family="Helvetica,sans-Serif" font-size="10.00">Interface.h</text>
</g>
<!-- Node1&#45;&gt;Node11 -->
<g id="edge10" class="edge"><title>Node1&#45;&gt;Node11</title>
<path fill="none" stroke="midnightblue" d="M830.759,-317.389C938.038,-317.426 1142.23,-311.32 1196,-266 1246.51,-223.423 1253.53,-138.524 1253.73,-96.7955"/>
<polygon fill="midnightblue" stroke="midnightblue" points="1257.23,-96.6742 1253.64,-86.704 1250.23,-96.733 1257.23,-96.6742"/>
</g>
<!-- Node12 -->
<g id="node12" class="node"><title>Node12</title>
<g id="a_node12"><a xlink:href="TaskConfig_8h.html" target="_top" xlink:title="QualityControl/TaskConfig.h">
<polygon fill="none" stroke="black" points="1281,-123.5 1281,-142.5 1421,-142.5 1421,-123.5 1281,-123.5"/>
<text text-anchor="middle" x="1351" y="-130.5" font-family="Helvetica,sans-Serif" font-size="10.00">QualityControl/TaskConfig.h</text>
</a>
</g>
</g>
<!-- Node1&#45;&gt;Node12 -->
<g id="edge11" class="edge"><title>Node1&#45;&gt;Node12</title>
<path fill="none" stroke="midnightblue" d="M830.566,-314.97C942.004,-311.472 1160.82,-300.329 1229,-266 1281.34,-239.648 1322.53,-180.937 1340.77,-151.514"/>
<polygon fill="midnightblue" stroke="midnightblue" points="1343.89,-153.119 1346.06,-142.748 1337.9,-149.502 1343.89,-153.119"/>
</g>
<!-- Node14 -->
<g id="node14" class="node"><title>Node14</title>
<g id="a_node14"><a xlink:href="TaskInterface_8h.html" target="_top" xlink:title="QualityControl/TaskInterface.h">
<polygon fill="none" stroke="black" points="1680,-241 1680,-260 1830,-260 1830,-241 1680,-241"/>
<text text-anchor="middle" x="1755" y="-248" font-family="Helvetica,sans-Serif" font-size="10.00">QualityControl/TaskInterface.h</text>
</a>
</g>
</g>
<!-- Node1&#45;&gt;Node14 -->
<g id="edge14" class="edge"><title>Node1&#45;&gt;Node14</title>
<path fill="none" stroke="midnightblue" d="M830.561,-312.134C1005.04,-300.69 1475.54,-269.83 1669.56,-257.104"/>
<polygon fill="midnightblue" stroke="midnightblue" points="1669.96,-260.585 1679.71,-256.438 1669.5,-253.6 1669.96,-260.585"/>
</g>
<!-- Node28 -->
<g id="node28" class="node"><title>Node28</title>
<g id="a_node28"><a xlink:href="ServiceDiscovery_8h_source.html" target="_top" xlink:title="QualityControl/ServiceDiscovery.h">
<polygon fill="none" stroke="black" points="2073.5,-123.5 2073.5,-142.5 2240.5,-142.5 2240.5,-123.5 2073.5,-123.5"/>
<text text-anchor="middle" x="2157" y="-130.5" font-family="Helvetica,sans-Serif" font-size="10.00">QualityControl/ServiceDiscovery.h</text>
</a>
</g>
</g>
<!-- Node1&#45;&gt;Node28 -->
<g id="edge44" class="edge"><title>Node1&#45;&gt;Node28</title>
<path fill="none" stroke="midnightblue" d="M830.658,-316.844C999.87,-316.965 1459.53,-312.591 1839,-266 1989.71,-247.496 2077.74,-316.422 2174,-199 2185.06,-185.514 2177.4,-165.612 2169.12,-151.387"/>
<polygon fill="midnightblue" stroke="midnightblue" points="2171.84,-149.14 2163.51,-142.594 2165.94,-152.906 2171.84,-149.14"/>
</g>
<!-- Node12&#45;&gt;Node11 -->
<g id="edge13" class="edge"><title>Node12&#45;&gt;Node11</title>
<path fill="none" stroke="midnightblue" d="M1336.96,-123.475C1323.44,-115.266 1302.51,-102.558 1284.93,-91.8845"/>
<polygon fill="midnightblue" stroke="midnightblue" points="1286.46,-88.721 1276.1,-86.523 1282.83,-94.7046 1286.46,-88.721"/>
</g>
<!-- Node13 -->
<g id="node13" class="node"><title>Node13</title>
<polygon fill="none" stroke="#bfbfbf" points="1928.5,-0.5 1928.5,-19.5 1969.5,-19.5 1969.5,-0.5 1928.5,-0.5"/>
<text text-anchor="middle" x="1949" y="-7.5" font-family="Helvetica,sans-Serif" font-size="10.00">string</text>
</g>
<!-- Node12&#45;&gt;Node13 -->
<g id="edge12" class="edge"><title>Node12&#45;&gt;Node13</title>
<path fill="none" stroke="midnightblue" d="M1366.24,-123.375C1395.8,-107.101 1463.44,-72.06 1525,-56 1682.3,-14.9627 1727.68,-40.064 1889,-20 1898.57,-18.8099 1908.97,-17.32 1918.38,-15.897"/>
<polygon fill="midnightblue" stroke="midnightblue" points="1919.14,-19.3215 1928.49,-14.3383 1918.07,-12.4033 1919.14,-19.3215"/>
</g>
<!-- Node14&#45;&gt;Node11 -->
<g id="edge19" class="edge"><title>Node14&#45;&gt;Node11</title>
<path fill="none" stroke="midnightblue" d="M1679.99,-243.304C1558.37,-231.631 1326.22,-202.067 1272,-143 1260.55,-130.526 1255.88,-111.875 1254.02,-96.8893"/>
<polygon fill="midnightblue" stroke="midnightblue" points="1257.5,-96.4141 1253.12,-86.766 1250.52,-97.0382 1257.5,-96.4141"/>
</g>
<!-- Node15 -->
<g id="node15" class="node"><title>Node15</title>
<polygon fill="none" stroke="#bfbfbf" points="2008,-62 2008,-81 2060,-81 2060,-62 2008,-62"/>
<text text-anchor="middle" x="2034" y="-69" font-family="Helvetica,sans-Serif" font-size="10.00">memory</text>
</g>
<!-- Node14&#45;&gt;Node15 -->
<g id="edge15" class="edge"><title>Node14&#45;&gt;Node15</title>
<path fill="none" stroke="midnightblue" d="M1808.46,-240.951C1843.48,-233.642 1889.22,-220.749 1925,-199 1970.67,-171.239 2007.09,-117.857 2023.9,-90.1533"/>
<polygon fill="midnightblue" stroke="midnightblue" points="2027.11,-91.5938 2029.18,-81.2035 2021.09,-88.0341 2027.11,-91.5938"/>
</g>
<!-- Node16 -->
<g id="node16" class="node"><title>Node16</title>
<polygon fill="none" stroke="#bfbfbf" points="1972.5,-179.5 1972.5,-198.5 2021.5,-198.5 2021.5,-179.5 1972.5,-179.5"/>
<text text-anchor="middle" x="1997" y="-186.5" font-family="Helvetica,sans-Serif" font-size="10.00">cassert</text>
</g>
<!-- Node14&#45;&gt;Node16 -->
<g id="edge16" class="edge"><title>Node14&#45;&gt;Node16</title>
<path fill="none" stroke="midnightblue" d="M1789.67,-240.975C1835.72,-229.653 1916.58,-209.772 1962.53,-198.475"/>
<polygon fill="midnightblue" stroke="midnightblue" points="1963.45,-201.853 1972.33,-196.067 1961.78,-195.056 1963.45,-201.853"/>
</g>
<!-- Node17 -->
<g id="node17" class="node"><title>Node17</title>
<polygon fill="none" stroke="#bfbfbf" points="2039.5,-179.5 2039.5,-198.5 2164.5,-198.5 2164.5,-179.5 2039.5,-179.5"/>
<text text-anchor="middle" x="2102" y="-186.5" font-family="Helvetica,sans-Serif" font-size="10.00">Framework/InitContext.h</text>
</g>
<!-- Node14&#45;&gt;Node17 -->
<g id="edge17" class="edge"><title>Node14&#45;&gt;Node17</title>
<path fill="none" stroke="midnightblue" d="M1804.72,-240.975C1867.46,-230.216 1975.27,-211.73 2042.37,-200.224"/>
<polygon fill="midnightblue" stroke="midnightblue" points="2043.11,-203.649 2052.38,-198.509 2041.93,-196.75 2043.11,-203.649"/>
</g>
<!-- Node18 -->
<g id="node18" class="node"><title>Node18</title>
<polygon fill="none" stroke="#bfbfbf" points="1435,-179.5 1435,-198.5 1595,-198.5 1595,-179.5 1435,-179.5"/>
<text text-anchor="middle" x="1515" y="-186.5" font-family="Helvetica,sans-Serif" font-size="10.00">Framework/ProcessingContext.h</text>
</g>
<!-- Node14&#45;&gt;Node18 -->
<g id="edge18" class="edge"><title>Node14&#45;&gt;Node18</title>
<path fill="none" stroke="midnightblue" d="M1720.61,-240.975C1678.11,-230.437 1605.7,-212.486 1559.13,-200.941"/>
<polygon fill="midnightblue" stroke="midnightblue" points="1559.87,-197.518 1549.32,-198.509 1558.19,-204.313 1559.87,-197.518"/>
</g>
<!-- Node19 -->
<g id="node19" class="node"><title>Node19</title>
<g id="a_node19"><a xlink:href="Activity_8h.html" target="_top" xlink:title="QualityControl/Activity.h">
<polygon fill="none" stroke="black" points="1613.5,-179.5 1613.5,-198.5 1736.5,-198.5 1736.5,-179.5 1613.5,-179.5"/>
<text text-anchor="middle" x="1675" y="-186.5" font-family="Helvetica,sans-Serif" font-size="10.00">QualityControl/Activity.h</text>
</a>
</g>
</g>
<!-- Node14&#45;&gt;Node19 -->
<g id="edge20" class="edge"><title>Node14&#45;&gt;Node19</title>
<path fill="none" stroke="midnightblue" d="M1743.54,-240.975C1730.83,-231.52 1710.09,-216.096 1694.75,-204.687"/>
<polygon fill="midnightblue" stroke="midnightblue" points="1696.55,-201.669 1686.44,-198.509 1692.38,-207.285 1696.55,-201.669"/>
</g>
<!-- Node20 -->
<g id="node20" class="node"><title>Node20</title>
<g id="a_node20"><a xlink:href="ObjectsManager_8h.html" target="_top" xlink:title="QualityControl/ObjectsManager.h">
<polygon fill="none" stroke="black" points="1754.5,-179.5 1754.5,-198.5 1915.5,-198.5 1915.5,-179.5 1754.5,-179.5"/>
<text text-anchor="middle" x="1835" y="-186.5" font-family="Helvetica,sans-Serif" font-size="10.00">QualityControl/ObjectsManager.h</text>
</a>
</g>
</g>
<!-- Node14&#45;&gt;Node20 -->
<g id="edge21" class="edge"><title>Node14&#45;&gt;Node20</title>
<path fill="none" stroke="midnightblue" d="M1766.46,-240.975C1779.17,-231.52 1799.91,-216.096 1815.25,-204.687"/>
<polygon fill="midnightblue" stroke="midnightblue" points="1817.62,-207.285 1823.56,-198.509 1813.45,-201.669 1817.62,-207.285"/>
</g>
<!-- Node20&#45;&gt;Node12 -->
<g id="edge32" class="edge"><title>Node20&#45;&gt;Node12</title>
<path fill="none" stroke="midnightblue" d="M1758.3,-179.482C1679.26,-170.698 1552.15,-156.557 1431.41,-143.044"/>
<polygon fill="midnightblue" stroke="midnightblue" points="1431.57,-139.541 1421.24,-141.906 1430.79,-146.497 1431.57,-139.541"/>
</g>
<!-- Node20&#45;&gt;Node13 -->
<g id="edge43" class="edge"><title>Node20&#45;&gt;Node13</title>
<path fill="none" stroke="midnightblue" d="M1903.11,-179.482C1925.24,-173.117 1947.55,-162.082 1961,-143 1985.11,-108.793 1968.91,-56.5724 1957.5,-29.1942"/>
<polygon fill="midnightblue" stroke="midnightblue" points="1960.56,-27.4436 1953.32,-19.7049 1954.15,-30.2671 1960.56,-27.4436"/>
</g>
<!-- Node21 -->
<g id="node21" class="node"><title>Node21</title>
<g id="a_node21"><a xlink:href="MonitorObject_8h.html" target="_top" xlink:title="QualityControl/MonitorObject.h">
<polygon fill="none" stroke="black" points="1528.5,-123.5 1528.5,-142.5 1679.5,-142.5 1679.5,-123.5 1528.5,-123.5"/>
<text text-anchor="middle" x="1604" y="-130.5" font-family="Helvetica,sans-Serif" font-size="10.00">QualityControl/MonitorObject.h</text>
</a>
</g>
</g>
<!-- Node20&#45;&gt;Node21 -->
<g id="edge22" class="edge"><title>Node20&#45;&gt;Node21</title>
<path fill="none" stroke="midnightblue" d="M1798.4,-179.444C1758.27,-170.063 1693.8,-154.993 1650.22,-144.804"/>
<polygon fill="midnightblue" stroke="midnightblue" points="1650.97,-141.385 1640.43,-142.516 1649.37,-148.201 1650.97,-141.385"/>
</g>
<!-- Node26 -->
<g id="node26" class="node"><title>Node26</title>
<g id="a_node26"><a xlink:href="Quality_8h.html" target="_top" xlink:title="QualityControl/Quality.h">
<polygon fill="none" stroke="black" points="1793.5,-62 1793.5,-81 1914.5,-81 1914.5,-62 1793.5,-62"/>
<text text-anchor="middle" x="1854" y="-69" font-family="Helvetica,sans-Serif" font-size="10.00">QualityControl/Quality.h</text>
</a>
</g>
</g>
<!-- Node20&#45;&gt;Node26 -->
<g id="edge31" class="edge"><title>Node20&#45;&gt;Node26</title>
<path fill="none" stroke="midnightblue" d="M1836.43,-179.319C1839.48,-160.757 1846.71,-116.839 1850.88,-91.4734"/>
<polygon fill="midnightblue" stroke="midnightblue" points="1854.39,-91.7175 1852.56,-81.282 1847.48,-90.5812 1854.39,-91.7175"/>
</g>
<!-- Node20&#45;&gt;Node28 -->
<g id="edge33" class="edge"><title>Node20&#45;&gt;Node28</title>
<path fill="none" stroke="midnightblue" d="M1886.02,-179.444C1943.02,-169.885 2035.24,-154.419 2096,-144.23"/>
<polygon fill="midnightblue" stroke="midnightblue" points="2096.93,-147.622 2106.22,-142.516 2095.78,-140.719 2096.93,-147.622"/>
</g>
<!-- Node33 -->
<g id="node33" class="node"><title>Node33</title>
<polygon fill="none" stroke="#bfbfbf" points="1882.5,-123.5 1882.5,-142.5 1951.5,-142.5 1951.5,-123.5 1882.5,-123.5"/>
<text text-anchor="middle" x="1917" y="-130.5" font-family="Helvetica,sans-Serif" font-size="10.00">TObjArray.h</text>
</g>
<!-- Node20&#45;&gt;Node33 -->
<g id="edge40" class="edge"><title>Node20&#45;&gt;Node33</title>
<path fill="none" stroke="midnightblue" d="M1848.17,-179.324C1860.85,-170.979 1880.23,-158.212 1895.21,-148.352"/>
<polygon fill="midnightblue" stroke="midnightblue" points="1897.43,-151.078 1903.86,-142.655 1893.58,-145.231 1897.43,-151.078"/>
</g>
<!-- Node34 -->
<g id="node34" class="node"><title>Node34</title>
<polygon fill="none" stroke="#bfbfbf" points="1439.5,-123.5 1439.5,-142.5 1510.5,-142.5 1510.5,-123.5 1439.5,-123.5"/>
<text text-anchor="middle" x="1475" y="-130.5" font-family="Helvetica,sans-Serif" font-size="10.00">TObjString.h</text>
</g>
<!-- Node20&#45;&gt;Node34 -->
<g id="edge41" class="edge"><title>Node20&#45;&gt;Node34</title>
<path fill="none" stroke="midnightblue" d="M1767.55,-179.466C1705.89,-171.414 1611.97,-158.519 1520.78,-143.053"/>
<polygon fill="midnightblue" stroke="midnightblue" points="1521.27,-139.586 1510.83,-141.352 1520.1,-146.486 1521.27,-139.586"/>
</g>
<!-- Node35 -->
<g id="node35" class="node"><title>Node35</title>
<polygon fill="none" stroke="#bfbfbf" points="1698,-123.5 1698,-142.5 1826,-142.5 1826,-123.5 1698,-123.5"/>
<text text-anchor="middle" x="1762" y="-130.5" font-family="Helvetica,sans-Serif" font-size="10.00">boost/concept_check.hpp</text>
</g>
<!-- Node20&#45;&gt;Node35 -->
<g id="edge42" class="edge"><title>Node20&#45;&gt;Node35</title>
<path fill="none" stroke="midnightblue" d="M1823.27,-179.324C1812.16,-171.107 1795.26,-158.602 1782.02,-148.807"/>
<polygon fill="midnightblue" stroke="midnightblue" points="1784.06,-145.967 1773.94,-142.834 1779.9,-151.595 1784.06,-145.967"/>
</g>
<!-- Node22 -->
<g id="node22" class="node"><title>Node22</title>
<polygon fill="none" stroke="#bfbfbf" points="1668,-62 1668,-81 1722,-81 1722,-62 1668,-62"/>
<text text-anchor="middle" x="1695" y="-69" font-family="Helvetica,sans-Serif" font-size="10.00">iostream</text>
</g>
<!-- Node21&#45;&gt;Node22 -->
<g id="edge23" class="edge"><title>Node21&#45;&gt;Node22</title>
<path fill="none" stroke="midnightblue" d="M1617.04,-123.475C1631.77,-113.843 1655.97,-98.0175 1673.51,-86.5517"/>
<polygon fill="midnightblue" stroke="midnightblue" points="1675.53,-89.411 1681.99,-81.0091 1671.7,-83.5522 1675.53,-89.411"/>
</g>
<!-- Node23 -->
<g id="node23" class="node"><title>Node23</title>
<polygon fill="none" stroke="#bfbfbf" points="1740.5,-62 1740.5,-81 1775.5,-81 1775.5,-62 1740.5,-62"/>
<text text-anchor="middle" x="1758" y="-69" font-family="Helvetica,sans-Serif" font-size="10.00">map</text>
</g>
<!-- Node21&#45;&gt;Node23 -->
<g id="edge24" class="edge"><title>Node21&#45;&gt;Node23</title>
<path fill="none" stroke="midnightblue" d="M1631.97,-123.446C1658.03,-115.162 1697.74,-101.722 1731,-87 1732,-86.5585 1733.01,-86.0948 1734.02,-85.6152"/>
<polygon fill="midnightblue" stroke="midnightblue" points="1735.72,-88.679 1743.07,-81.0427 1732.56,-82.4324 1735.72,-88.679"/>
</g>
<!-- Node24 -->
<g id="node24" class="node"><title>Node24</title>
<polygon fill="none" stroke="#bfbfbf" points="1594.5,-0.5 1594.5,-19.5 1653.5,-19.5 1653.5,-0.5 1594.5,-0.5"/>
<text text-anchor="middle" x="1624" y="-7.5" font-family="Helvetica,sans-Serif" font-size="10.00">TObject.h</text>
</g>
<!-- Node21&#45;&gt;Node24 -->
<g id="edge25" class="edge"><title>Node21&#45;&gt;Node24</title>
<path fill="none" stroke="midnightblue" d="M1574.12,-123.387C1556.46,-116.587 1535.55,-105.15 1525,-87 1518.08,-75.0882 1517.54,-67.584 1525,-56 1538.06,-35.719 1562.74,-24.473 1584.19,-18.2953"/>
<polygon fill="midnightblue" stroke="midnightblue" points="1585.29,-21.628 1594.08,-15.7258 1583.53,-14.8529 1585.29,-21.628"/>
</g>
<!-- Node25 -->
<g id="node25" class="node"><title>Node25</title>
<polygon fill="none" stroke="#bfbfbf" points="1534,-62 1534,-81 1650,-81 1650,-62 1534,-62"/>
<text text-anchor="middle" x="1592" y="-69" font-family="Helvetica,sans-Serif" font-size="10.00">Common/Exceptions.h</text>
</g>
<!-- Node21&#45;&gt;Node25 -->
<g id="edge26" class="edge"><title>Node21&#45;&gt;Node25</title>
<path fill="none" stroke="midnightblue" d="M1602.28,-123.475C1600.57,-114.992 1597.89,-101.704 1595.7,-90.8222"/>
<polygon fill="midnightblue" stroke="midnightblue" points="1599.12,-90.1197 1593.72,-81.0091 1592.26,-91.5037 1599.12,-90.1197"/>
</g>
<!-- Node21&#45;&gt;Node26 -->
<g id="edge27" class="edge"><title>Node21&#45;&gt;Node26</title>
<path fill="none" stroke="midnightblue" d="M1639.82,-123.475C1684.19,-112.915 1759.84,-94.911 1808.33,-83.3689"/>
<polygon fill="midnightblue" stroke="midnightblue" points="1809.33,-86.7294 1818.25,-81.0091 1807.71,-79.9196 1809.33,-86.7294"/>
</g>
<!-- Node26&#45;&gt;Node13 -->
<g id="edge30" class="edge"><title>Node26&#45;&gt;Node13</title>
<path fill="none" stroke="midnightblue" d="M1867.61,-61.9751C1883.06,-52.2989 1908.49,-36.3721 1926.82,-24.8941"/>
<polygon fill="midnightblue" stroke="midnightblue" points="1928.8,-27.7834 1935.41,-19.5091 1925.08,-21.8509 1928.8,-27.7834"/>
</g>
<!-- Node26&#45;&gt;Node24 -->
<g id="edge28" class="edge"><title>Node26&#45;&gt;Node24</title>
<path fill="none" stroke="midnightblue" d="M1821.05,-61.9751C1779.45,-51.2132 1707.96,-32.7194 1663.48,-21.2137"/>
<polygon fill="midnightblue" stroke="midnightblue" points="1664.16,-17.7753 1653.61,-18.6591 1662.41,-24.5522 1664.16,-17.7753"/>
</g>
<!-- Node27 -->
<g id="node27" class="node"><title>Node27</title>
<polygon fill="none" stroke="#bfbfbf" points="1828,-0.5 1828,-19.5 1880,-19.5 1880,-0.5 1828,-0.5"/>
<text text-anchor="middle" x="1854" y="-7.5" font-family="Helvetica,sans-Serif" font-size="10.00">ostream</text>
</g>
<!-- Node26&#45;&gt;Node27 -->
<g id="edge29" class="edge"><title>Node26&#45;&gt;Node27</title>
<path fill="none" stroke="midnightblue" d="M1854,-61.9751C1854,-53.5803 1854,-40.4806 1854,-29.6631"/>
<polygon fill="midnightblue" stroke="midnightblue" points="1857.5,-29.5091 1854,-19.5091 1850.5,-29.5091 1857.5,-29.5091"/>
</g>
<!-- Node28&#45;&gt;Node13 -->
<g id="edge37" class="edge"><title>Node28&#45;&gt;Node13</title>
<path fill="none" stroke="midnightblue" d="M2147.46,-123.42C2126.51,-104.64 2077.68,-61.1509 2069,-56 2040.41,-39.0344 2004.32,-26.5436 1979.22,-19.0835"/>
<polygon fill="midnightblue" stroke="midnightblue" points="1980.09,-15.6942 1969.52,-16.2879 1978.16,-22.4204 1980.09,-15.6942"/>
</g>
<!-- Node28&#45;&gt;Node15 -->
<g id="edge36" class="edge"><title>Node28&#45;&gt;Node15</title>
<path fill="none" stroke="midnightblue" d="M2139.38,-123.475C2118.83,-113.534 2084.64,-96.9947 2060.79,-85.461"/>
<polygon fill="midnightblue" stroke="midnightblue" points="2062.12,-82.2131 2051.59,-81.0091 2059.07,-88.5145 2062.12,-82.2131"/>
</g>
<!-- Node29 -->
<g id="node29" class="node"><title>Node29</title>
<polygon fill="none" stroke="#bfbfbf" points="2116,-62 2116,-81 2162,-81 2162,-62 2116,-62"/>
<text text-anchor="middle" x="2139" y="-69" font-family="Helvetica,sans-Serif" font-size="10.00">atomic</text>
</g>
<!-- Node28&#45;&gt;Node29 -->
<g id="edge34" class="edge"><title>Node28&#45;&gt;Node29</title>
<path fill="none" stroke="midnightblue" d="M2154.42,-123.475C2151.85,-114.992 2147.83,-101.704 2144.54,-90.8222"/>
<polygon fill="midnightblue" stroke="midnightblue" points="2147.82,-89.5672 2141.57,-81.0091 2141.12,-91.5942 2147.82,-89.5672"/>
</g>
<!-- Node30 -->
<g id="node30" class="node"><title>Node30</title>
<polygon fill="none" stroke="#bfbfbf" points="2180.5,-62 2180.5,-81 2239.5,-81 2239.5,-62 2180.5,-62"/>
<text text-anchor="middle" x="2210" y="-69" font-family="Helvetica,sans-Serif" font-size="10.00">curl/curl.h</text>
</g>
<!-- Node28&#45;&gt;Node30 -->
<g id="edge35" class="edge"><title>Node28&#45;&gt;Node30</title>
<path fill="none" stroke="midnightblue" d="M2164.59,-123.475C2172.7,-114.373 2185.73,-99.741 2195.76,-88.483"/>
<polygon fill="midnightblue" stroke="midnightblue" points="2198.38,-90.8043 2202.42,-81.0091 2193.16,-86.1483 2198.38,-90.8043"/>
</g>
<!-- Node31 -->
<g id="node31" class="node"><title>Node31</title>
<polygon fill="none" stroke="#bfbfbf" points="2258,-62 2258,-81 2302,-81 2302,-62 2258,-62"/>
<text text-anchor="middle" x="2280" y="-69" font-family="Helvetica,sans-Serif" font-size="10.00">thread</text>
</g>
<!-- Node28&#45;&gt;Node31 -->
<g id="edge38" class="edge"><title>Node28&#45;&gt;Node31</title>
<path fill="none" stroke="midnightblue" d="M2174.62,-123.475C2195.17,-113.534 2229.36,-96.9947 2253.21,-85.461"/>
<polygon fill="midnightblue" stroke="midnightblue" points="2254.93,-88.5145 2262.41,-81.0091 2251.88,-82.2131 2254.93,-88.5145"/>
</g>
<!-- Node32 -->
<g id="node32" class="node"><title>Node32</title>
<polygon fill="none" stroke="#bfbfbf" points="2320,-56.5 2320,-86.5 2414,-86.5 2414,-56.5 2320,-56.5"/>
<text text-anchor="start" x="2328" y="-74.5" font-family="Helvetica,sans-Serif" font-size="10.00">boost/asio/ip/host</text>
<text text-anchor="middle" x="2367" y="-63.5" font-family="Helvetica,sans-Serif" font-size="10.00">_name.hpp</text>
</g>
<!-- Node28&#45;&gt;Node32 -->
<g id="edge39" class="edge"><title>Node28&#45;&gt;Node32</title>
<path fill="none" stroke="midnightblue" d="M2187.09,-123.475C2219.08,-114.41 2270.43,-99.8603 2310.1,-88.621"/>
<polygon fill="midnightblue" stroke="midnightblue" points="2311.25,-91.9338 2319.92,-85.8402 2309.34,-85.1989 2311.25,-91.9338"/>
</g>
</g>
</svg>
