<?xml version="1.0" encoding="UTF-8" standalone="no"?>
<!DOCTYPE svg PUBLIC "-//W3C//DTD SVG 1.1//EN"
 "http://www.w3.org/Graphics/SVG/1.1/DTD/svg11.dtd">
<!-- Generated by graphviz version 2.38.0 (20140413.2041)
 -->
<!-- Title: Modules/Skeleton/test/testQcSkeleton.cxx Pages: 1 -->
<svg width="1195pt" height="442pt"
 viewBox="0.00 0.00 1195.00 442.00" xmlns="http://www.w3.org/2000/svg" xmlns:xlink="http://www.w3.org/1999/xlink">
<g id="graph0" class="graph" transform="scale(1 1) rotate(0) translate(4 438)">
<title>Modules/Skeleton/test/testQcSkeleton.cxx</title>
<!-- Node1 -->
<g id="node1" class="node"><title>Node1</title>
<polygon fill="#bfbfbf" stroke="black" points="611,-403.5 611,-433.5 725,-433.5 725,-403.5 611,-403.5"/>
<text text-anchor="start" x="619" y="-421.5" font-family="Helvetica,sans-Serif" font-size="10.00">Modules/Skeleton/test</text>
<text text-anchor="middle" x="668" y="-410.5" font-family="Helvetica,sans-Serif" font-size="10.00">/testQcSkeleton.cxx</text>
</g>
<!-- Node2 -->
<g id="node2" class="node"><title>Node2</title>
<polygon fill="none" stroke="#bfbfbf" points="161.5,-179.5 161.5,-198.5 286.5,-198.5 286.5,-179.5 161.5,-179.5"/>
<text text-anchor="middle" x="224" y="-186.5" font-family="Helvetica,sans-Serif" font-size="10.00">Framework/InitContext.h</text>
</g>
<!-- Node1&#45;&gt;Node2 -->
<g id="edge1" class="edge"><title>Node1&#45;&gt;Node2</title>
<path fill="none" stroke="midnightblue" d="M610.727,-411.704C504.691,-399.693 284.264,-368.306 237,-311 212.994,-281.894 216.153,-234.517 220.26,-208.522"/>
<polygon fill="midnightblue" stroke="midnightblue" points="223.735,-208.977 222.061,-198.515 216.845,-207.737 223.735,-208.977"/>
</g>
<!-- Node3 -->
<g id="node3" class="node"><title>Node3</title>
<g id="a_node3"><a xlink:href="TaskFactory_8h.html" target="_top" xlink:title="QualityControl/TaskFactory.h">
<polygon fill="none" stroke="black" points="428.5,-347.5 428.5,-366.5 573.5,-366.5 573.5,-347.5 428.5,-347.5"/>
<text text-anchor="middle" x="501" y="-354.5" font-family="Helvetica,sans-Serif" font-size="10.00">QualityControl/TaskFactory.h</text>
</a>
</g>
</g>
<!-- Node1&#45;&gt;Node3 -->
<g id="edge2" class="edge"><title>Node1&#45;&gt;Node3</title>
<path fill="none" stroke="midnightblue" d="M628.423,-403.399C599.903,-393.238 561.826,-379.672 534.743,-370.022"/>
<polygon fill="midnightblue" stroke="midnightblue" points="535.895,-366.717 525.3,-366.658 533.545,-373.311 535.895,-366.717"/>
</g>
<!-- Node8 -->
<g id="node8" class="node"><title>Node8</title>
<polygon fill="none" stroke="#bfbfbf" points="668.5,-291.5 668.5,-310.5 733.5,-310.5 733.5,-291.5 668.5,-291.5"/>
<text text-anchor="middle" x="701" y="-298.5" font-family="Helvetica,sans-Serif" font-size="10.00">TSystem.h</text>
</g>
<!-- Node1&#45;&gt;Node8 -->
<g id="edge47" class="edge"><title>Node1&#45;&gt;Node8</title>
<path fill="none" stroke="midnightblue" d="M656.067,-403.356C645.369,-388.855 632.683,-365.824 642,-347 648.603,-333.659 661.265,-323.194 673.171,-315.726"/>
<polygon fill="midnightblue" stroke="midnightblue" points="675.118,-318.643 682.016,-310.602 671.609,-312.587 675.118,-318.643"/>
</g>
<!-- Node33 -->
<g id="node33" class="node"><title>Node33</title>
<g id="a_node33"><a xlink:href="SkeletonTask_8h.html" target="_top" xlink:title="Skeleton/SkeletonTask.h">
<polygon fill="none" stroke="black" points="651,-347.5 651,-366.5 777,-366.5 777,-347.5 651,-347.5"/>
<text text-anchor="middle" x="714" y="-354.5" font-family="Helvetica,sans-Serif" font-size="10.00">Skeleton/SkeletonTask.h</text>
</a>
</g>
</g>
<!-- Node1&#45;&gt;Node33 -->
<g id="edge45" class="edge"><title>Node1&#45;&gt;Node33</title>
<path fill="none" stroke="midnightblue" d="M678.901,-403.399C685.586,-394.753 694.176,-383.642 701.185,-374.576"/>
<polygon fill="midnightblue" stroke="midnightblue" points="703.959,-376.71 707.307,-366.658 698.421,-372.428 703.959,-376.71"/>
</g>
<!-- Node34 -->
<g id="node34" class="node"><title>Node34</title>
<polygon fill="none" stroke="#bfbfbf" points="795.5,-347.5 795.5,-366.5 914.5,-366.5 914.5,-347.5 795.5,-347.5"/>
<text text-anchor="middle" x="855" y="-354.5" font-family="Helvetica,sans-Serif" font-size="10.00">boost/test/unit_test.hpp</text>
</g>
<!-- Node1&#45;&gt;Node34 -->
<g id="edge48" class="edge"><title>Node1&#45;&gt;Node34</title>
<path fill="none" stroke="midnightblue" d="M712.316,-403.399C744.629,-393.118 787.898,-379.351 818.286,-369.682"/>
<polygon fill="midnightblue" stroke="midnightblue" points="819.595,-372.938 828.063,-366.571 817.472,-366.268 819.595,-372.938"/>
</g>
<!-- Node35 -->
<g id="node35" class="node"><title>Node35</title>
<polygon fill="none" stroke="#bfbfbf" points="933,-347.5 933,-366.5 977,-366.5 977,-347.5 933,-347.5"/>
<text text-anchor="middle" x="955" y="-354.5" font-family="Helvetica,sans-Serif" font-size="10.00">TH1.h</text>
</g>
<!-- Node1&#45;&gt;Node35 -->
<g id="edge49" class="edge"><title>Node1&#45;&gt;Node35</title>
<path fill="none" stroke="midnightblue" d="M725.248,-407.494C774.884,-398.516 848.827,-384.422 922.728,-366.9"/>
<polygon fill="midnightblue" stroke="midnightblue" points="923.768,-370.25 932.679,-364.519 922.139,-363.442 923.768,-370.25"/>
</g>
<!-- Node4 -->
<g id="node4" class="node"><title>Node4</title>
<polygon fill="none" stroke="#bfbfbf" points="0,-62 0,-81 54,-81 54,-62 0,-62"/>
<text text-anchor="middle" x="27" y="-69" font-family="Helvetica,sans-Serif" font-size="10.00">iostream</text>
</g>
<!-- Node3&#45;&gt;Node4 -->
<g id="edge3" class="edge"><title>Node3&#45;&gt;Node4</title>
<path fill="none" stroke="midnightblue" d="M428.236,-352.109C345.709,-346.635 217.131,-334.575 175,-311 87.5992,-262.095 45.1433,-137.994 31.7988,-90.9564"/>
<polygon fill="midnightblue" stroke="midnightblue" points="35.1485,-89.936 29.1425,-81.2079 28.3947,-91.7763 35.1485,-89.936"/>
</g>
<!-- Node5 -->
<g id="node5" class="node"><title>Node5</title>
<polygon fill="none" stroke="#bfbfbf" points="1135,-62 1135,-81 1187,-81 1187,-62 1135,-62"/>
<text text-anchor="middle" x="1161" y="-69" font-family="Helvetica,sans-Serif" font-size="10.00">memory</text>
</g>
<!-- Node3&#45;&gt;Node5 -->
<g id="edge4" class="edge"><title>Node3&#45;&gt;Node5</title>
<path fill="none" stroke="midnightblue" d="M518.568,-347.337C547.28,-333.51 606.344,-306.441 659,-291 877.92,-226.803 1017.85,-374.179 1164,-199 1189.48,-168.459 1177.42,-117.843 1168.17,-90.8247"/>
<polygon fill="midnightblue" stroke="midnightblue" points="1171.34,-89.3016 1164.62,-81.1151 1164.77,-91.7088 1171.34,-89.3016"/>
</g>
<!-- Node6 -->
<g id="node6" class="node"><title>Node6</title>
<polygon fill="none" stroke="#bfbfbf" points="529,-291.5 529,-310.5 585,-310.5 585,-291.5 529,-291.5"/>
<text text-anchor="middle" x="557" y="-298.5" font-family="Helvetica,sans-Serif" font-size="10.00">TClass.h</text>
</g>
<!-- Node3&#45;&gt;Node6 -->
<g id="edge5" class="edge"><title>Node3&#45;&gt;Node6</title>
<path fill="none" stroke="midnightblue" d="M509.997,-347.324C518.194,-339.42 530.506,-327.548 540.472,-317.938"/>
<polygon fill="midnightblue" stroke="midnightblue" points="543.07,-320.295 547.839,-310.834 538.211,-315.256 543.07,-320.295"/>
</g>
<!-- Node7 -->
<g id="node7" class="node"><title>Node7</title>
<polygon fill="none" stroke="#bfbfbf" points="413.5,-291.5 413.5,-310.5 472.5,-310.5 472.5,-291.5 413.5,-291.5"/>
<text text-anchor="middle" x="443" y="-298.5" font-family="Helvetica,sans-Serif" font-size="10.00">TROOT.h</text>
</g>
<!-- Node3&#45;&gt;Node7 -->
<g id="edge6" class="edge"><title>Node3&#45;&gt;Node7</title>
<path fill="none" stroke="midnightblue" d="M491.681,-347.324C483.107,-339.341 470.188,-327.313 459.812,-317.653"/>
<polygon fill="midnightblue" stroke="midnightblue" points="462.192,-315.086 452.488,-310.834 457.422,-320.21 462.192,-315.086"/>
</g>
<!-- Node3&#45;&gt;Node8 -->
<g id="edge7" class="edge"><title>Node3&#45;&gt;Node8</title>
<path fill="none" stroke="midnightblue" d="M532.691,-347.444C567.068,-338.162 622.077,-323.309 659.789,-313.127"/>
<polygon fill="midnightblue" stroke="midnightblue" points="660.716,-316.502 669.458,-310.516 658.891,-309.744 660.716,-316.502"/>
</g>
<!-- Node9 -->
<g id="node9" class="node"><title>Node9</title>
<g id="a_node9"><a xlink:href="QcInfoLogger_8h.html" target="_top" xlink:title="QualityControl/QcInfoLogger.h">
<polygon fill="none" stroke="black" points="246.5,-291.5 246.5,-310.5 395.5,-310.5 395.5,-291.5 246.5,-291.5"/>
<text text-anchor="middle" x="321" y="-298.5" font-family="Helvetica,sans-Serif" font-size="10.00">QualityControl/QcInfoLogger.h</text>
</a>
</g>
</g>
<!-- Node3&#45;&gt;Node9 -->
<g id="edge8" class="edge"><title>Node3&#45;&gt;Node9</title>
<path fill="none" stroke="midnightblue" d="M472.478,-347.444C441.934,-338.28 393.292,-323.688 359.397,-313.519"/>
<polygon fill="midnightblue" stroke="midnightblue" points="359.972,-310.038 349.388,-310.516 357.961,-316.742 359.972,-310.038"/>
</g>
<!-- Node19 -->
<g id="node19" class="node"><title>Node19</title>
<polygon fill="none" stroke="#bfbfbf" points="72,-62 72,-81 188,-81 188,-62 72,-62"/>
<text text-anchor="middle" x="130" y="-69" font-family="Helvetica,sans-Serif" font-size="10.00">Common/Exceptions.h</text>
</g>
<!-- Node3&#45;&gt;Node19 -->
<g id="edge44" class="edge"><title>Node3&#45;&gt;Node19</title>
<path fill="none" stroke="midnightblue" d="M428.295,-349.151C321.049,-337.007 133,-307.014 133,-246 133,-246 133,-246 133,-188 133,-153.852 131.673,-114.045 130.784,-91.2053"/>
<polygon fill="midnightblue" stroke="midnightblue" points="134.281,-91.0419 130.38,-81.1914 127.287,-91.3245 134.281,-91.0419"/>
</g>
<!-- Node23 -->
<g id="node23" class="node"><title>Node23</title>
<g id="a_node23"><a xlink:href="TaskConfig_8h.html" target="_top" xlink:title="QualityControl/TaskConfig.h">
<polygon fill="none" stroke="black" points="431,-123.5 431,-142.5 571,-142.5 571,-123.5 431,-123.5"/>
<text text-anchor="middle" x="501" y="-130.5" font-family="Helvetica,sans-Serif" font-size="10.00">QualityControl/TaskConfig.h</text>
</a>
</g>
</g>
<!-- Node3&#45;&gt;Node23 -->
<g id="edge43" class="edge"><title>Node3&#45;&gt;Node23</title>
<path fill="none" stroke="midnightblue" d="M501,-347.297C501,-314.633 501,-198.866 501,-152.957"/>
<polygon fill="midnightblue" stroke="midnightblue" points="504.5,-152.884 501,-142.884 497.5,-152.884 504.5,-152.884"/>
</g>
<!-- Node9&#45;&gt;Node4 -->
<g id="edge42" class="edge"><title>Node9&#45;&gt;Node4</title>
<path fill="none" stroke="midnightblue" d="M321.928,-291.308C323.763,-269.312 325.345,-210.927 295,-179 252.516,-134.301 218.418,-165.495 161,-143 120.236,-127.03 75.7971,-102 49.718,-86.4584"/>
<polygon fill="midnightblue" stroke="midnightblue" points="51.3534,-83.3576 40.9814,-81.196 47.7416,-89.3539 51.3534,-83.3576"/>
</g>
<!-- Node10 -->
<g id="node10" class="node"><title>Node10</title>
<g id="a_node10"><a xlink:href="TaskInterface_8h.html" target="_top" xlink:title="TaskInterface.h">
<polygon fill="none" stroke="black" points="719.5,-235.5 719.5,-254.5 804.5,-254.5 804.5,-235.5 719.5,-235.5"/>
<text text-anchor="middle" x="762" y="-242.5" font-family="Helvetica,sans-Serif" font-size="10.00">TaskInterface.h</text>
</a>
</g>
</g>
<!-- Node9&#45;&gt;Node10 -->
<g id="edge9" class="edge"><title>Node9&#45;&gt;Node10</title>
<path fill="none" stroke="midnightblue" d="M390.878,-291.444C479.319,-280.614 629.688,-262.201 709.157,-252.471"/>
<polygon fill="midnightblue" stroke="midnightblue" points="709.92,-255.903 719.42,-251.214 709.069,-248.955 709.92,-255.903"/>
</g>
<!-- Node32 -->
<g id="node32" class="node"><title>Node32</title>
<polygon fill="none" stroke="#bfbfbf" points="343,-235.5 343,-254.5 473,-254.5 473,-235.5 343,-235.5"/>
<text text-anchor="middle" x="408" y="-242.5" font-family="Helvetica,sans-Serif" font-size="10.00">InfoLogger/InfoLogger.hxx</text>
</g>
<!-- Node9&#45;&gt;Node32 -->
<g id="edge41" class="edge"><title>Node9&#45;&gt;Node32</title>
<path fill="none" stroke="midnightblue" d="M334.978,-291.324C348.55,-282.9 369.38,-269.971 385.325,-260.074"/>
<polygon fill="midnightblue" stroke="midnightblue" points="387.406,-262.902 394.057,-254.655 383.714,-256.954 387.406,-262.902"/>
</g>
<!-- Node10&#45;&gt;Node2 -->
<g id="edge12" class="edge"><title>Node10&#45;&gt;Node2</title>
<path fill="none" stroke="midnightblue" d="M719.334,-239.718C627.538,-230.504 410.409,-208.71 296.547,-197.282"/>
<polygon fill="midnightblue" stroke="midnightblue" points="296.825,-193.792 286.526,-196.276 296.126,-200.757 296.825,-193.792"/>
</g>
<!-- Node10&#45;&gt;Node5 -->
<g id="edge10" class="edge"><title>Node10&#45;&gt;Node5</title>
<path fill="none" stroke="midnightblue" d="M786.51,-235.437C810.399,-226.889 847.61,-213.037 879,-199 896.783,-191.048 899.575,-185.322 918,-179 999.294,-151.105 1035.03,-188.414 1108,-143 1128.46,-130.269 1143.79,-106.555 1152.57,-90.1688"/>
<polygon fill="midnightblue" stroke="midnightblue" points="1155.78,-91.5785 1157.17,-81.0762 1149.53,-88.4148 1155.78,-91.5785"/>
</g>
<!-- Node11 -->
<g id="node11" class="node"><title>Node11</title>
<polygon fill="none" stroke="#bfbfbf" points="927.5,-179.5 927.5,-198.5 976.5,-198.5 976.5,-179.5 927.5,-179.5"/>
<text text-anchor="middle" x="952" y="-186.5" font-family="Helvetica,sans-Serif" font-size="10.00">cassert</text>
</g>
<!-- Node10&#45;&gt;Node11 -->
<g id="edge11" class="edge"><title>Node10&#45;&gt;Node11</title>
<path fill="none" stroke="midnightblue" d="M792.106,-235.444C826.201,-225.753 881.658,-209.992 917.478,-199.811"/>
<polygon fill="midnightblue" stroke="midnightblue" points="918.81,-203.072 927.472,-196.971 916.897,-196.338 918.81,-203.072"/>
</g>
<!-- Node12 -->
<g id="node12" class="node"><title>Node12</title>
<polygon fill="none" stroke="#bfbfbf" points="995,-179.5 995,-198.5 1155,-198.5 1155,-179.5 995,-179.5"/>
<text text-anchor="middle" x="1075" y="-186.5" font-family="Helvetica,sans-Serif" font-size="10.00">Framework/ProcessingContext.h</text>
</g>
<!-- Node10&#45;&gt;Node12 -->
<g id="edge13" class="edge"><title>Node10&#45;&gt;Node12</title>
<path fill="none" stroke="midnightblue" d="M804.538,-236.661C859.084,-227.251 953.971,-210.88 1015.62,-200.245"/>
<polygon fill="midnightblue" stroke="midnightblue" points="1016.33,-203.674 1025.59,-198.525 1015.14,-196.776 1016.33,-203.674"/>
</g>
<!-- Node13 -->
<g id="node13" class="node"><title>Node13</title>
<polygon fill="none" stroke="#bfbfbf" points="436.5,-56.5 436.5,-86.5 571.5,-86.5 571.5,-56.5 436.5,-56.5"/>
<text text-anchor="start" x="444.5" y="-74.5" font-family="Helvetica,sans-Serif" font-size="10.00">Configuration/Configuration</text>
<text text-anchor="middle" x="504" y="-63.5" font-family="Helvetica,sans-Serif" font-size="10.00">Interface.h</text>
</g>
<!-- Node10&#45;&gt;Node13 -->
<g id="edge14" class="edge"><title>Node10&#45;&gt;Node13</title>
<path fill="none" stroke="midnightblue" d="M719.309,-238.067C635.686,-225.438 455.514,-192.906 422,-143 407.97,-122.109 431.112,-103.767 456.347,-91.0324"/>
<polygon fill="midnightblue" stroke="midnightblue" points="458.144,-94.0536 465.673,-86.6 455.139,-87.7313 458.144,-94.0536"/>
</g>
<!-- Node14 -->
<g id="node14" class="node"><title>Node14</title>
<g id="a_node14"><a xlink:href="Activity_8h.html" target="_top" xlink:title="QualityControl/Activity.h">
<polygon fill="none" stroke="black" points="568.5,-179.5 568.5,-198.5 691.5,-198.5 691.5,-179.5 568.5,-179.5"/>
<text text-anchor="middle" x="630" y="-186.5" font-family="Helvetica,sans-Serif" font-size="10.00">QualityControl/Activity.h</text>
</a>
</g>
</g>
<!-- Node10&#45;&gt;Node14 -->
<g id="edge15" class="edge"><title>Node10&#45;&gt;Node14</title>
<path fill="none" stroke="midnightblue" d="M741.084,-235.444C719.264,-226.517 684.85,-212.439 660.108,-202.317"/>
<polygon fill="midnightblue" stroke="midnightblue" points="661.399,-199.063 650.818,-198.516 658.748,-205.542 661.399,-199.063"/>
</g>
<!-- Node15 -->
<g id="node15" class="node"><title>Node15</title>
<g id="a_node15"><a xlink:href="ObjectsManager_8h.html" target="_top" xlink:title="QualityControl/ObjectsManager.h">
<polygon fill="none" stroke="black" points="709.5,-179.5 709.5,-198.5 870.5,-198.5 870.5,-179.5 709.5,-179.5"/>
<text text-anchor="middle" x="790" y="-186.5" font-family="Helvetica,sans-Serif" font-size="10.00">QualityControl/ObjectsManager.h</text>
</a>
</g>
</g>
<!-- Node10&#45;&gt;Node15 -->
<g id="edge16" class="edge"><title>Node10&#45;&gt;Node15</title>
<path fill="none" stroke="midnightblue" d="M766.624,-235.083C770.456,-227.691 776.024,-216.953 780.765,-207.811"/>
<polygon fill="midnightblue" stroke="midnightblue" points="783.966,-209.24 785.462,-198.751 777.752,-206.018 783.966,-209.24"/>
</g>
<!-- Node16 -->
<g id="node16" class="node"><title>Node16</title>
<g id="a_node16"><a xlink:href="MonitorObject_8h.html" target="_top" xlink:title="QualityControl/MonitorObject.h">
<polygon fill="none" stroke="black" points="170.5,-123.5 170.5,-142.5 321.5,-142.5 321.5,-123.5 170.5,-123.5"/>
<text text-anchor="middle" x="246" y="-130.5" font-family="Helvetica,sans-Serif" font-size="10.00">QualityControl/MonitorObject.h</text>
</a>
</g>
</g>
<!-- Node15&#45;&gt;Node16 -->
<g id="edge17" class="edge"><title>Node15&#45;&gt;Node16</title>
<path fill="none" stroke="midnightblue" d="M709.047,-179.901C705.993,-179.597 702.969,-179.296 700,-179 571.614,-166.218 422.796,-151.483 331.53,-142.455"/>
<polygon fill="midnightblue" stroke="midnightblue" points="331.809,-138.966 321.513,-141.464 331.12,-145.932 331.809,-138.966"/>
</g>
<!-- Node20 -->
<g id="node20" class="node"><title>Node20</title>
<g id="a_node20"><a xlink:href="Quality_8h.html" target="_top" xlink:title="QualityControl/Quality.h">
<polygon fill="none" stroke="black" points="297.5,-62 297.5,-81 418.5,-81 418.5,-62 297.5,-62"/>
<text text-anchor="middle" x="358" y="-69" font-family="Helvetica,sans-Serif" font-size="10.00">QualityControl/Quality.h</text>
</a>
</g>
</g>
<!-- Node15&#45;&gt;Node20 -->
<g id="edge26" class="edge"><title>Node15&#45;&gt;Node20</title>
<path fill="none" stroke="midnightblue" d="M709.222,-179.565C604.76,-168.445 434.611,-149.528 422,-143 398.684,-130.93 379.664,-106.7 368.585,-90.0444"/>
<polygon fill="midnightblue" stroke="midnightblue" points="371.323,-87.8269 363.006,-81.2625 365.414,-91.5802 371.323,-87.8269"/>
</g>
<!-- Node22 -->
<g id="node22" class="node"><title>Node22</title>
<polygon fill="none" stroke="#bfbfbf" points="756.5,-0.5 756.5,-19.5 797.5,-19.5 797.5,-0.5 756.5,-0.5"/>
<text text-anchor="middle" x="777" y="-7.5" font-family="Helvetica,sans-Serif" font-size="10.00">string</text>
</g>
<!-- Node15&#45;&gt;Node22 -->
<g id="edge40" class="edge"><title>Node15&#45;&gt;Node22</title>
<path fill="none" stroke="midnightblue" d="M862.081,-179.49C947.895,-169.011 1080.64,-151.553 1088,-143 1169.32,-48.4767 901.128,-19.9152 807.819,-12.946"/>
<polygon fill="midnightblue" stroke="midnightblue" points="807.814,-9.43689 797.591,-12.217 807.317,-16.4192 807.814,-9.43689"/>
</g>
<!-- Node15&#45;&gt;Node23 -->
<g id="edge27" class="edge"><title>Node15&#45;&gt;Node23</title>
<path fill="none" stroke="midnightblue" d="M744.207,-179.444C693.263,-169.925 610.966,-154.547 556.426,-144.356"/>
<polygon fill="midnightblue" stroke="midnightblue" points="557.051,-140.913 546.579,-142.516 555.766,-147.794 557.051,-140.913"/>
</g>
<!-- Node24 -->
<g id="node24" class="node"><title>Node24</title>
<g id="a_node24"><a xlink:href="ServiceDiscovery_8h_source.html" target="_top" xlink:title="QualityControl/ServiceDiscovery.h">
<polygon fill="none" stroke="black" points="589.5,-123.5 589.5,-142.5 756.5,-142.5 756.5,-123.5 589.5,-123.5"/>
<text text-anchor="middle" x="673" y="-130.5" font-family="Helvetica,sans-Serif" font-size="10.00">QualityControl/ServiceDiscovery.h</text>
</a>
</g>
</g>
<!-- Node15&#45;&gt;Node24 -->
<g id="edge30" class="edge"><title>Node15&#45;&gt;Node24</title>
<path fill="none" stroke="midnightblue" d="M771.461,-179.444C752.377,-170.636 722.425,-156.812 700.564,-146.722"/>
<polygon fill="midnightblue" stroke="midnightblue" points="701.999,-143.529 691.452,-142.516 699.065,-149.885 701.999,-143.529"/>
</g>
<!-- Node29 -->
<g id="node29" class="node"><title>Node29</title>
<polygon fill="none" stroke="#bfbfbf" points="774.5,-123.5 774.5,-142.5 843.5,-142.5 843.5,-123.5 774.5,-123.5"/>
<text text-anchor="middle" x="809" y="-130.5" font-family="Helvetica,sans-Serif" font-size="10.00">TObjArray.h</text>
</g>
<!-- Node15&#45;&gt;Node29 -->
<g id="edge37" class="edge"><title>Node15&#45;&gt;Node29</title>
<path fill="none" stroke="midnightblue" d="M793.137,-179.083C795.683,-171.849 799.356,-161.409 802.527,-152.397"/>
<polygon fill="midnightblue" stroke="midnightblue" points="805.903,-153.346 805.921,-142.751 799.3,-151.023 805.903,-153.346"/>
</g>
<!-- Node30 -->
<g id="node30" class="node"><title>Node30</title>
<polygon fill="none" stroke="#bfbfbf" points="861.5,-123.5 861.5,-142.5 932.5,-142.5 932.5,-123.5 861.5,-123.5"/>
<text text-anchor="middle" x="897" y="-130.5" font-family="Helvetica,sans-Serif" font-size="10.00">TObjString.h</text>
</g>
<!-- Node15&#45;&gt;Node30 -->
<g id="edge38" class="edge"><title>Node15&#45;&gt;Node30</title>
<path fill="none" stroke="midnightblue" d="M807.191,-179.324C824.351,-170.664 850.946,-157.242 870.747,-147.249"/>
<polygon fill="midnightblue" stroke="midnightblue" points="872.501,-150.285 879.851,-142.655 869.347,-144.035 872.501,-150.285"/>
</g>
<!-- Node31 -->
<g id="node31" class="node"><title>Node31</title>
<polygon fill="none" stroke="#bfbfbf" points="951,-123.5 951,-142.5 1079,-142.5 1079,-123.5 951,-123.5"/>
<text text-anchor="middle" x="1015" y="-130.5" font-family="Helvetica,sans-Serif" font-size="10.00">boost/concept_check.hpp</text>
</g>
<!-- Node15&#45;&gt;Node31 -->
<g id="edge39" class="edge"><title>Node15&#45;&gt;Node31</title>
<path fill="none" stroke="midnightblue" d="M825.652,-179.444C864.656,-170.083 927.266,-155.056 969.717,-144.868"/>
<polygon fill="midnightblue" stroke="midnightblue" points="970.608,-148.254 979.515,-142.516 968.974,-141.447 970.608,-148.254"/>
</g>
<!-- Node16&#45;&gt;Node4 -->
<g id="edge18" class="edge"><title>Node16&#45;&gt;Node4</title>
<path fill="none" stroke="midnightblue" d="M204.102,-123.47C166.702,-115.439 110.641,-102.366 63,-87 60.8638,-86.311 58.674,-85.5558 56.4806,-84.7632"/>
<polygon fill="midnightblue" stroke="midnightblue" points="57.5883,-81.4397 46.9977,-81.1394 55.0895,-87.9785 57.5883,-81.4397"/>
</g>
<!-- Node17 -->
<g id="node17" class="node"><title>Node17</title>
<polygon fill="none" stroke="#bfbfbf" points="244.5,-62 244.5,-81 279.5,-81 279.5,-62 244.5,-62"/>
<text text-anchor="middle" x="262" y="-69" font-family="Helvetica,sans-Serif" font-size="10.00">map</text>
</g>
<!-- Node16&#45;&gt;Node17 -->
<g id="edge19" class="edge"><title>Node16&#45;&gt;Node17</title>
<path fill="none" stroke="midnightblue" d="M248.292,-123.475C250.574,-114.992 254.147,-101.704 257.073,-90.8222"/>
<polygon fill="midnightblue" stroke="midnightblue" points="260.495,-91.5749 259.712,-81.0091 253.735,-89.7571 260.495,-91.5749"/>
</g>
<!-- Node18 -->
<g id="node18" class="node"><title>Node18</title>
<polygon fill="none" stroke="#bfbfbf" points="220.5,-0.5 220.5,-19.5 279.5,-19.5 279.5,-0.5 220.5,-0.5"/>
<text text-anchor="middle" x="250" y="-7.5" font-family="Helvetica,sans-Serif" font-size="10.00">TObject.h</text>
</g>
<!-- Node16&#45;&gt;Node18 -->
<g id="edge20" class="edge"><title>Node16&#45;&gt;Node18</title>
<path fill="none" stroke="midnightblue" d="M242.947,-123.093C238.472,-108.882 231.071,-80.214 235,-56 236.468,-46.9568 239.492,-37.275 242.444,-29.2176"/>
<polygon fill="midnightblue" stroke="midnightblue" points="245.763,-30.3393 246.144,-19.7514 239.244,-27.7907 245.763,-30.3393"/>
</g>
<!-- Node16&#45;&gt;Node19 -->
<g id="edge21" class="edge"><title>Node16&#45;&gt;Node19</title>
<path fill="none" stroke="midnightblue" d="M229.38,-123.475C210.085,-113.578 178.041,-97.1416 155.569,-85.6151"/>
<polygon fill="midnightblue" stroke="midnightblue" points="157.084,-82.4589 146.589,-81.0091 153.89,-88.6873 157.084,-82.4589"/>
</g>
<!-- Node16&#45;&gt;Node20 -->
<g id="edge22" class="edge"><title>Node16&#45;&gt;Node20</title>
<path fill="none" stroke="midnightblue" d="M262.047,-123.475C280.593,-113.622 311.34,-97.2883 333.022,-85.7697"/>
<polygon fill="midnightblue" stroke="midnightblue" points="334.794,-88.7916 341.983,-81.0091 331.51,-82.6098 334.794,-88.7916"/>
</g>
<!-- Node20&#45;&gt;Node18 -->
<g id="edge23" class="edge"><title>Node20&#45;&gt;Node18</title>
<path fill="none" stroke="midnightblue" d="M342.526,-61.9751C324.722,-52.1664 295.259,-35.9346 274.368,-24.425"/>
<polygon fill="midnightblue" stroke="midnightblue" points="275.893,-21.269 265.445,-19.5091 272.515,-27.4001 275.893,-21.269"/>
</g>
<!-- Node21 -->
<g id="node21" class="node"><title>Node21</title>
<polygon fill="none" stroke="#bfbfbf" points="332,-0.5 332,-19.5 384,-19.5 384,-0.5 332,-0.5"/>
<text text-anchor="middle" x="358" y="-7.5" font-family="Helvetica,sans-Serif" font-size="10.00">ostream</text>
</g>
<!-- Node20&#45;&gt;Node21 -->
<g id="edge24" class="edge"><title>Node20&#45;&gt;Node21</title>
<path fill="none" stroke="midnightblue" d="M358,-61.9751C358,-53.5803 358,-40.4806 358,-29.6631"/>
<polygon fill="midnightblue" stroke="midnightblue" points="361.5,-29.5091 358,-19.5091 354.5,-29.5091 361.5,-29.5091"/>
</g>
<!-- Node20&#45;&gt;Node22 -->
<g id="edge25" class="edge"><title>Node20&#45;&gt;Node22</title>
<path fill="none" stroke="midnightblue" d="M395.859,-61.9805C405.948,-59.8647 416.862,-57.7142 427,-56 544.389,-36.1512 685.243,-20.5061 746.291,-14.1204"/>
<polygon fill="midnightblue" stroke="midnightblue" points="746.816,-17.5847 756.402,-13.0714 746.094,-10.6221 746.816,-17.5847"/>
</g>
<!-- Node23&#45;&gt;Node13 -->
<g id="edge29" class="edge"><title>Node23&#45;&gt;Node13</title>
<path fill="none" stroke="midnightblue" d="M501.43,-123.475C501.783,-116.471 502.301,-106.192 502.78,-96.6956"/>
<polygon fill="midnightblue" stroke="midnightblue" points="506.285,-96.6866 503.293,-86.523 499.294,-96.334 506.285,-96.6866"/>
</g>
<!-- Node23&#45;&gt;Node22 -->
<g id="edge28" class="edge"><title>Node23&#45;&gt;Node22</title>
<path fill="none" stroke="midnightblue" d="M517.786,-123.408C534.091,-114.839 559.342,-100.972 580,-87 598.341,-74.5948 599.305,-66.1173 619,-56 660.55,-34.6566 713.603,-22.2045 746.435,-16.0027"/>
<polygon fill="midnightblue" stroke="midnightblue" points="747.129,-19.434 756.344,-14.2054 745.88,-12.5463 747.129,-19.434"/>
</g>
<!-- Node24&#45;&gt;Node5 -->
<g id="edge33" class="edge"><title>Node24&#45;&gt;Node5</title>
<path fill="none" stroke="midnightblue" d="M742.919,-123.475C848.222,-110.636 1043.79,-86.7915 1124.6,-76.9379"/>
<polygon fill="midnightblue" stroke="midnightblue" points="1125.27,-80.3822 1134.78,-75.6975 1124.43,-73.4336 1125.27,-80.3822"/>
</g>
<!-- Node24&#45;&gt;Node22 -->
<g id="edge34" class="edge"><title>Node24&#45;&gt;Node22</title>
<path fill="none" stroke="midnightblue" d="M752.935,-123.475C825.588,-114.901 923.214,-100.983 935,-87 972.873,-42.0675 863.767,-21.6828 807.826,-14.375"/>
<polygon fill="midnightblue" stroke="midnightblue" points="808.081,-10.8799 797.726,-13.122 807.219,-17.8267 808.081,-10.8799"/>
</g>
<!-- Node25 -->
<g id="node25" class="node"><title>Node25</title>
<polygon fill="none" stroke="#bfbfbf" points="628,-62 628,-81 674,-81 674,-62 628,-62"/>
<text text-anchor="middle" x="651" y="-69" font-family="Helvetica,sans-Serif" font-size="10.00">atomic</text>
</g>
<!-- Node24&#45;&gt;Node25 -->
<g id="edge31" class="edge"><title>Node24&#45;&gt;Node25</title>
<path fill="none" stroke="midnightblue" d="M669.848,-123.475C666.679,-114.904 661.696,-101.427 657.649,-90.483"/>
<polygon fill="midnightblue" stroke="midnightblue" points="660.897,-89.1747 654.146,-81.0091 654.332,-91.6023 660.897,-89.1747"/>
</g>
<!-- Node26 -->
<g id="node26" class="node"><title>Node26</title>
<polygon fill="none" stroke="#bfbfbf" points="692.5,-62 692.5,-81 751.5,-81 751.5,-62 692.5,-62"/>
<text text-anchor="middle" x="722" y="-69" font-family="Helvetica,sans-Serif" font-size="10.00">curl/curl.h</text>
</g>
<!-- Node24&#45;&gt;Node26 -->
<g id="edge32" class="edge"><title>Node24&#45;&gt;Node26</title>
<path fill="none" stroke="midnightblue" d="M680.021,-123.475C687.443,-114.462 699.333,-100.025 708.567,-88.8118"/>
<polygon fill="midnightblue" stroke="midnightblue" points="711.337,-90.9534 714.993,-81.0091 705.934,-86.5034 711.337,-90.9534"/>
</g>
<!-- Node27 -->
<g id="node27" class="node"><title>Node27</title>
<polygon fill="none" stroke="#bfbfbf" points="770,-62 770,-81 814,-81 814,-62 770,-62"/>
<text text-anchor="middle" x="792" y="-69" font-family="Helvetica,sans-Serif" font-size="10.00">thread</text>
</g>
<!-- Node24&#45;&gt;Node27 -->
<g id="edge35" class="edge"><title>Node24&#45;&gt;Node27</title>
<path fill="none" stroke="midnightblue" d="M690.05,-123.475C709.844,-113.578 742.717,-97.1416 765.77,-85.6151"/>
<polygon fill="midnightblue" stroke="midnightblue" points="767.603,-88.6118 774.982,-81.0091 764.472,-82.3508 767.603,-88.6118"/>
</g>
<!-- Node28 -->
<g id="node28" class="node"><title>Node28</title>
<polygon fill="none" stroke="#bfbfbf" points="832,-56.5 832,-86.5 926,-86.5 926,-56.5 832,-56.5"/>
<text text-anchor="start" x="840" y="-74.5" font-family="Helvetica,sans-Serif" font-size="10.00">boost/asio/ip/host</text>
<text text-anchor="middle" x="879" y="-63.5" font-family="Helvetica,sans-Serif" font-size="10.00">_name.hpp</text>
</g>
<!-- Node24&#45;&gt;Node28 -->
<g id="edge36" class="edge"><title>Node24&#45;&gt;Node28</title>
<path fill="none" stroke="midnightblue" d="M702.515,-123.475C733.459,-114.537 782.867,-100.267 821.545,-89.095"/>
<polygon fill="midnightblue" stroke="midnightblue" points="823,-92.3178 831.636,-86.1803 821.058,-85.5927 823,-92.3178"/>
</g>
<!-- Node33&#45;&gt;Node10 -->
<g id="edge46" class="edge"><title>Node33&#45;&gt;Node10</title>
<path fill="none" stroke="midnightblue" d="M720.284,-347.414C726.484,-338.626 735.896,-324.397 742,-311 748.884,-295.891 754.24,-277.768 757.67,-264.501"/>
<polygon fill="midnightblue" stroke="midnightblue" points="761.098,-265.218 760.088,-254.671 754.3,-263.545 761.098,-265.218"/>
</g>
</g>
</svg>
