<?xml version="1.0" encoding="UTF-8" standalone="no"?>
<!DOCTYPE svg PUBLIC "-//W3C//DTD SVG 1.1//EN"
 "http://www.w3.org/Graphics/SVG/1.1/DTD/svg11.dtd">
<!-- Generated by graphviz version 2.38.0 (20140413.2041)
 -->
<!-- Title: Modules/EMCAL/test/testEMCAL.cxx Pages: 1 -->
<svg width="1316pt" height="442pt"
 viewBox="0.00 0.00 1315.50 442.00" xmlns="http://www.w3.org/2000/svg" xmlns:xlink="http://www.w3.org/1999/xlink">
<g id="graph0" class="graph" transform="scale(1 1) rotate(0) translate(4 438)">
<title>Modules/EMCAL/test/testEMCAL.cxx</title>
<!-- Node1 -->
<g id="node1" class="node"><title>Node1</title>
<polygon fill="#bfbfbf" stroke="black" points="713.5,-403.5 713.5,-433.5 823.5,-433.5 823.5,-403.5 713.5,-403.5"/>
<text text-anchor="start" x="721.5" y="-421.5" font-family="Helvetica,sans-Serif" font-size="10.00">Modules/EMCAL/test</text>
<text text-anchor="middle" x="768.5" y="-410.5" font-family="Helvetica,sans-Serif" font-size="10.00">/testEMCAL.cxx</text>
</g>
<!-- Node2 -->
<g id="node2" class="node"><title>Node2</title>
<g id="a_node2"><a xlink:href="TaskFactory_8h.html" target="_top" xlink:title="QualityControl/TaskFactory.h">
<polygon fill="none" stroke="black" points="621,-347.5 621,-366.5 766,-366.5 766,-347.5 621,-347.5"/>
<text text-anchor="middle" x="693.5" y="-354.5" font-family="Helvetica,sans-Serif" font-size="10.00">QualityControl/TaskFactory.h</text>
</a>
</g>
</g>
<!-- Node1&#45;&gt;Node2 -->
<g id="edge1" class="edge"><title>Node1&#45;&gt;Node2</title>
<path fill="none" stroke="midnightblue" d="M750.726,-403.399C739.154,-394.218 724.077,-382.258 712.304,-372.918"/>
<polygon fill="midnightblue" stroke="midnightblue" points="714.423,-370.131 704.413,-366.658 710.072,-375.615 714.423,-370.131"/>
</g>
<!-- Node33 -->
<g id="node33" class="node"><title>Node33</title>
<polygon fill="none" stroke="#bfbfbf" points="784,-347.5 784,-366.5 903,-366.5 903,-347.5 784,-347.5"/>
<text text-anchor="middle" x="843.5" y="-354.5" font-family="Helvetica,sans-Serif" font-size="10.00">boost/test/unit_test.hpp</text>
</g>
<!-- Node1&#45;&gt;Node33 -->
<g id="edge44" class="edge"><title>Node1&#45;&gt;Node33</title>
<path fill="none" stroke="midnightblue" d="M786.274,-403.399C797.846,-394.218 812.923,-382.258 824.696,-372.918"/>
<polygon fill="midnightblue" stroke="midnightblue" points="826.928,-375.615 832.587,-366.658 822.577,-370.131 826.928,-375.615"/>
</g>
<!-- Node3 -->
<g id="node3" class="node"><title>Node3</title>
<polygon fill="none" stroke="#bfbfbf" points="1253.5,-62 1253.5,-81 1307.5,-81 1307.5,-62 1253.5,-62"/>
<text text-anchor="middle" x="1280.5" y="-69" font-family="Helvetica,sans-Serif" font-size="10.00">iostream</text>
</g>
<!-- Node2&#45;&gt;Node3 -->
<g id="edge2" class="edge"><title>Node2&#45;&gt;Node3</title>
<path fill="none" stroke="midnightblue" d="M766.272,-347.877C852.831,-337.998 992.076,-321.363 1043.5,-311 1149.73,-289.592 1278.5,-354.366 1278.5,-246 1278.5,-246 1278.5,-246 1278.5,-188 1278.5,-153.859 1279.38,-114.049 1279.98,-91.2074"/>
<polygon fill="midnightblue" stroke="midnightblue" points="1283.48,-91.2831 1280.25,-81.1925 1276.48,-91.0946 1283.48,-91.2831"/>
</g>
<!-- Node4 -->
<g id="node4" class="node"><title>Node4</title>
<polygon fill="none" stroke="#bfbfbf" points="214.5,-62 214.5,-81 266.5,-81 266.5,-62 214.5,-62"/>
<text text-anchor="middle" x="240.5" y="-69" font-family="Helvetica,sans-Serif" font-size="10.00">memory</text>
</g>
<!-- Node2&#45;&gt;Node4 -->
<g id="edge3" class="edge"><title>Node2&#45;&gt;Node4</title>
<path fill="none" stroke="midnightblue" d="M642.64,-347.455C528.14,-327.07 256.025,-271.807 203.5,-199 187.101,-176.27 221.7,-168.864 232.5,-143 239.391,-126.497 241.039,-106.037 241.174,-91.4161"/>
<polygon fill="midnightblue" stroke="midnightblue" points="244.67,-91.0797 241.03,-81.1298 237.671,-91.178 244.67,-91.0797"/>
</g>
<!-- Node5 -->
<g id="node5" class="node"><title>Node5</title>
<polygon fill="none" stroke="#bfbfbf" points="549.5,-291.5 549.5,-310.5 605.5,-310.5 605.5,-291.5 549.5,-291.5"/>
<text text-anchor="middle" x="577.5" y="-298.5" font-family="Helvetica,sans-Serif" font-size="10.00">TClass.h</text>
</g>
<!-- Node2&#45;&gt;Node5 -->
<g id="edge4" class="edge"><title>Node2&#45;&gt;Node5</title>
<path fill="none" stroke="midnightblue" d="M675.119,-347.444C656.284,-338.675 626.769,-324.935 605.121,-314.858"/>
<polygon fill="midnightblue" stroke="midnightblue" points="606.338,-311.564 595.795,-310.516 603.383,-317.91 606.338,-311.564"/>
</g>
<!-- Node6 -->
<g id="node6" class="node"><title>Node6</title>
<polygon fill="none" stroke="#bfbfbf" points="624,-291.5 624,-310.5 683,-310.5 683,-291.5 624,-291.5"/>
<text text-anchor="middle" x="653.5" y="-298.5" font-family="Helvetica,sans-Serif" font-size="10.00">TROOT.h</text>
</g>
<!-- Node2&#45;&gt;Node6 -->
<g id="edge5" class="edge"><title>Node2&#45;&gt;Node6</title>
<path fill="none" stroke="midnightblue" d="M686.895,-347.083C681.245,-339.455 672.955,-328.264 666.049,-318.941"/>
<polygon fill="midnightblue" stroke="midnightblue" points="668.747,-316.703 659.982,-310.751 663.122,-320.87 668.747,-316.703"/>
</g>
<!-- Node7 -->
<g id="node7" class="node"><title>Node7</title>
<polygon fill="none" stroke="#bfbfbf" points="701,-291.5 701,-310.5 766,-310.5 766,-291.5 701,-291.5"/>
<text text-anchor="middle" x="733.5" y="-298.5" font-family="Helvetica,sans-Serif" font-size="10.00">TSystem.h</text>
</g>
<!-- Node2&#45;&gt;Node7 -->
<g id="edge6" class="edge"><title>Node2&#45;&gt;Node7</title>
<path fill="none" stroke="midnightblue" d="M700.105,-347.083C705.755,-339.455 714.045,-328.264 720.951,-318.941"/>
<polygon fill="midnightblue" stroke="midnightblue" points="723.878,-320.87 727.018,-310.751 718.253,-316.703 723.878,-320.87"/>
</g>
<!-- Node8 -->
<g id="node8" class="node"><title>Node8</title>
<g id="a_node8"><a xlink:href="QcInfoLogger_8h.html" target="_top" xlink:title="QualityControl/QcInfoLogger.h">
<polygon fill="none" stroke="black" points="784,-291.5 784,-310.5 933,-310.5 933,-291.5 784,-291.5"/>
<text text-anchor="middle" x="858.5" y="-298.5" font-family="Helvetica,sans-Serif" font-size="10.00">QualityControl/QcInfoLogger.h</text>
</a>
</g>
</g>
<!-- Node2&#45;&gt;Node8 -->
<g id="edge7" class="edge"><title>Node2&#45;&gt;Node8</title>
<path fill="none" stroke="midnightblue" d="M719.645,-347.444C747.523,-338.32 791.848,-323.813 822.9,-313.651"/>
<polygon fill="midnightblue" stroke="midnightblue" points="824.062,-316.953 832.478,-310.516 821.885,-310.3 824.062,-316.953"/>
</g>
<!-- Node19 -->
<g id="node19" class="node"><title>Node19</title>
<polygon fill="none" stroke="#bfbfbf" points="1119.5,-62 1119.5,-81 1235.5,-81 1235.5,-62 1119.5,-62"/>
<text text-anchor="middle" x="1177.5" y="-69" font-family="Helvetica,sans-Serif" font-size="10.00">Common/Exceptions.h</text>
</g>
<!-- Node2&#45;&gt;Node19 -->
<g id="edge43" class="edge"><title>Node2&#45;&gt;Node19</title>
<path fill="none" stroke="midnightblue" d="M750.074,-347.499C889.15,-326.222 1236.5,-270.618 1236.5,-246 1236.5,-246 1236.5,-246 1236.5,-188 1236.5,-149.013 1209.51,-109.929 1192.04,-88.7131"/>
<polygon fill="midnightblue" stroke="midnightblue" points="1194.61,-86.3373 1185.46,-81.0085 1189.29,-90.8848 1194.61,-86.3373"/>
</g>
<!-- Node23 -->
<g id="node23" class="node"><title>Node23</title>
<g id="a_node23"><a xlink:href="TaskConfig_8h.html" target="_top" xlink:title="QualityControl/TaskConfig.h">
<polygon fill="none" stroke="black" points="83.5,-123.5 83.5,-142.5 223.5,-142.5 223.5,-123.5 83.5,-123.5"/>
<text text-anchor="middle" x="153.5" y="-130.5" font-family="Helvetica,sans-Serif" font-size="10.00">QualityControl/TaskConfig.h</text>
</a>
</g>
</g>
<!-- Node2&#45;&gt;Node23 -->
<g id="edge42" class="edge"><title>Node2&#45;&gt;Node23</title>
<path fill="none" stroke="midnightblue" d="M620.847,-355.541C476.569,-353.87 164.973,-346.182 132.5,-311 91.6206,-266.71 125.102,-187.355 143.456,-151.93"/>
<polygon fill="midnightblue" stroke="midnightblue" points="146.712,-153.265 148.363,-142.8 140.546,-149.952 146.712,-153.265"/>
</g>
<!-- Node8&#45;&gt;Node3 -->
<g id="edge41" class="edge"><title>Node8&#45;&gt;Node3</title>
<path fill="none" stroke="midnightblue" d="M878.595,-291.472C929.993,-269.386 1069.91,-207.527 1179.5,-143 1209.06,-125.594 1241.24,-102.317 1261.14,-87.3627"/>
<polygon fill="midnightblue" stroke="midnightblue" points="1263.51,-89.9575 1269.37,-81.1287 1259.28,-84.3781 1263.51,-89.9575"/>
</g>
<!-- Node9 -->
<g id="node9" class="node"><title>Node9</title>
<g id="a_node9"><a xlink:href="TaskInterface_8h.html" target="_top" xlink:title="TaskInterface.h">
<polygon fill="none" stroke="black" points="427,-235.5 427,-254.5 512,-254.5 512,-235.5 427,-235.5"/>
<text text-anchor="middle" x="469.5" y="-242.5" font-family="Helvetica,sans-Serif" font-size="10.00">TaskInterface.h</text>
</a>
</g>
</g>
<!-- Node8&#45;&gt;Node9 -->
<g id="edge8" class="edge"><title>Node8&#45;&gt;Node9</title>
<path fill="none" stroke="midnightblue" d="M796.862,-291.444C721.107,-280.927 593.844,-263.261 522.354,-253.337"/>
<polygon fill="midnightblue" stroke="midnightblue" points="522.61,-249.839 512.224,-251.931 521.647,-256.773 522.61,-249.839"/>
</g>
<!-- Node32 -->
<g id="node32" class="node"><title>Node32</title>
<polygon fill="none" stroke="#bfbfbf" points="793.5,-235.5 793.5,-254.5 923.5,-254.5 923.5,-235.5 793.5,-235.5"/>
<text text-anchor="middle" x="858.5" y="-242.5" font-family="Helvetica,sans-Serif" font-size="10.00">InfoLogger/InfoLogger.hxx</text>
</g>
<!-- Node8&#45;&gt;Node32 -->
<g id="edge40" class="edge"><title>Node8&#45;&gt;Node32</title>
<path fill="none" stroke="midnightblue" d="M858.5,-291.083C858.5,-284.006 858.5,-273.861 858.5,-264.986"/>
<polygon fill="midnightblue" stroke="midnightblue" points="862,-264.751 858.5,-254.751 855,-264.751 862,-264.751"/>
</g>
<!-- Node9&#45;&gt;Node4 -->
<g id="edge9" class="edge"><title>Node9&#45;&gt;Node4</title>
<path fill="none" stroke="midnightblue" d="M449.948,-235.432C432,-227.187 405.01,-213.816 383.5,-199 333.251,-164.389 281.329,-114.147 256.121,-88.6482"/>
<polygon fill="midnightblue" stroke="midnightblue" points="258.409,-85.9831 248.911,-81.29 253.409,-90.8822 258.409,-85.9831"/>
</g>
<!-- Node10 -->
<g id="node10" class="node"><title>Node10</title>
<polygon fill="none" stroke="#bfbfbf" points="393,-179.5 393,-198.5 442,-198.5 442,-179.5 393,-179.5"/>
<text text-anchor="middle" x="417.5" y="-186.5" font-family="Helvetica,sans-Serif" font-size="10.00">cassert</text>
</g>
<!-- Node9&#45;&gt;Node10 -->
<g id="edge10" class="edge"><title>Node9&#45;&gt;Node10</title>
<path fill="none" stroke="midnightblue" d="M460.913,-235.083C453.341,-227.22 442.122,-215.569 432.986,-206.081"/>
<polygon fill="midnightblue" stroke="midnightblue" points="435.385,-203.527 425.927,-198.751 430.342,-208.382 435.385,-203.527"/>
</g>
<!-- Node11 -->
<g id="node11" class="node"><title>Node11</title>
<polygon fill="none" stroke="#bfbfbf" points="460,-179.5 460,-198.5 585,-198.5 585,-179.5 460,-179.5"/>
<text text-anchor="middle" x="522.5" y="-186.5" font-family="Helvetica,sans-Serif" font-size="10.00">Framework/InitContext.h</text>
</g>
<!-- Node9&#45;&gt;Node11 -->
<g id="edge11" class="edge"><title>Node9&#45;&gt;Node11</title>
<path fill="none" stroke="midnightblue" d="M478.252,-235.083C485.97,-227.22 497.405,-215.569 506.717,-206.081"/>
<polygon fill="midnightblue" stroke="midnightblue" points="509.404,-208.34 513.911,-198.751 504.408,-203.436 509.404,-208.34"/>
</g>
<!-- Node12 -->
<g id="node12" class="node"><title>Node12</title>
<polygon fill="none" stroke="#bfbfbf" points="603.5,-179.5 603.5,-198.5 763.5,-198.5 763.5,-179.5 603.5,-179.5"/>
<text text-anchor="middle" x="683.5" y="-186.5" font-family="Helvetica,sans-Serif" font-size="10.00">Framework/ProcessingContext.h</text>
</g>
<!-- Node9&#45;&gt;Node12 -->
<g id="edge12" class="edge"><title>Node9&#45;&gt;Node12</title>
<path fill="none" stroke="midnightblue" d="M503.409,-235.444C540.349,-226.122 599.554,-211.183 639.918,-200.997"/>
<polygon fill="midnightblue" stroke="midnightblue" points="640.91,-204.357 649.75,-198.516 639.197,-197.57 640.91,-204.357"/>
</g>
<!-- Node13 -->
<g id="node13" class="node"><title>Node13</title>
<polygon fill="none" stroke="#bfbfbf" points="0,-56.5 0,-86.5 135,-86.5 135,-56.5 0,-56.5"/>
<text text-anchor="start" x="8" y="-74.5" font-family="Helvetica,sans-Serif" font-size="10.00">Configuration/Configuration</text>
<text text-anchor="middle" x="67.5" y="-63.5" font-family="Helvetica,sans-Serif" font-size="10.00">Interface.h</text>
</g>
<!-- Node9&#45;&gt;Node13 -->
<g id="edge13" class="edge"><title>Node9&#45;&gt;Node13</title>
<path fill="none" stroke="midnightblue" d="M426.858,-240C373.714,-234.286 280.504,-221.859 203.5,-199 143.582,-181.213 111.328,-193.5 74.5,-143 64.9709,-129.933 63.3837,-111.691 64.0941,-97.0373"/>
<polygon fill="midnightblue" stroke="midnightblue" points="67.6155,-96.9405 64.9917,-86.6757 60.6416,-96.3363 67.6155,-96.9405"/>
</g>
<!-- Node14 -->
<g id="node14" class="node"><title>Node14</title>
<g id="a_node14"><a xlink:href="Activity_8h.html" target="_top" xlink:title="QualityControl/Activity.h">
<polygon fill="none" stroke="black" points="213,-179.5 213,-198.5 336,-198.5 336,-179.5 213,-179.5"/>
<text text-anchor="middle" x="274.5" y="-186.5" font-family="Helvetica,sans-Serif" font-size="10.00">QualityControl/Activity.h</text>
</a>
</g>
</g>
<!-- Node9&#45;&gt;Node14 -->
<g id="edge14" class="edge"><title>Node9&#45;&gt;Node14</title>
<path fill="none" stroke="midnightblue" d="M438.602,-235.444C405.226,-226.201 351.906,-211.436 315.151,-201.257"/>
<polygon fill="midnightblue" stroke="midnightblue" points="315.825,-197.812 305.254,-198.516 313.957,-204.558 315.825,-197.812"/>
</g>
<!-- Node15 -->
<g id="node15" class="node"><title>Node15</title>
<g id="a_node15"><a xlink:href="ObjectsManager_8h.html" target="_top" xlink:title="QualityControl/ObjectsManager.h">
<polygon fill="none" stroke="black" points="782,-179.5 782,-198.5 943,-198.5 943,-179.5 782,-179.5"/>
<text text-anchor="middle" x="862.5" y="-186.5" font-family="Helvetica,sans-Serif" font-size="10.00">QualityControl/ObjectsManager.h</text>
</a>
</g>
</g>
<!-- Node9&#45;&gt;Node15 -->
<g id="edge15" class="edge"><title>Node9&#45;&gt;Node15</title>
<path fill="none" stroke="midnightblue" d="M512.306,-238.118C579.079,-228.943 708.802,-211.119 790.245,-199.928"/>
<polygon fill="midnightblue" stroke="midnightblue" points="790.991,-203.359 800.421,-198.53 790.038,-196.424 790.991,-203.359"/>
</g>
<!-- Node16 -->
<g id="node16" class="node"><title>Node16</title>
<g id="a_node16"><a xlink:href="MonitorObject_8h.html" target="_top" xlink:title="QualityControl/MonitorObject.h">
<polygon fill="none" stroke="black" points="1019,-123.5 1019,-142.5 1170,-142.5 1170,-123.5 1019,-123.5"/>
<text text-anchor="middle" x="1094.5" y="-130.5" font-family="Helvetica,sans-Serif" font-size="10.00">QualityControl/MonitorObject.h</text>
</a>
</g>
</g>
<!-- Node15&#45;&gt;Node16 -->
<g id="edge16" class="edge"><title>Node15&#45;&gt;Node16</title>
<path fill="none" stroke="midnightblue" d="M899.261,-179.444C939.563,-170.063 1004.31,-154.993 1048.08,-144.804"/>
<polygon fill="midnightblue" stroke="midnightblue" points="1048.96,-148.192 1057.91,-142.516 1047.38,-141.375 1048.96,-148.192"/>
</g>
<!-- Node20 -->
<g id="node20" class="node"><title>Node20</title>
<g id="a_node20"><a xlink:href="Quality_8h.html" target="_top" xlink:title="QualityControl/Quality.h">
<polygon fill="none" stroke="black" points="889,-62 889,-81 1010,-81 1010,-62 889,-62"/>
<text text-anchor="middle" x="949.5" y="-69" font-family="Helvetica,sans-Serif" font-size="10.00">QualityControl/Quality.h</text>
</a>
</g>
</g>
<!-- Node15&#45;&gt;Node20 -->
<g id="edge25" class="edge"><title>Node15&#45;&gt;Node20</title>
<path fill="none" stroke="midnightblue" d="M914.779,-179.478C936.092,-173.151 958.693,-162.143 971.5,-143 982.364,-126.762 972.501,-104.877 962.736,-89.8209"/>
<polygon fill="midnightblue" stroke="midnightblue" points="965.464,-87.6152 956.855,-81.44 959.734,-91.6361 965.464,-87.6152"/>
</g>
<!-- Node22 -->
<g id="node22" class="node"><title>Node22</title>
<polygon fill="none" stroke="#bfbfbf" points="451,-0.5 451,-19.5 492,-19.5 492,-0.5 451,-0.5"/>
<text text-anchor="middle" x="471.5" y="-7.5" font-family="Helvetica,sans-Serif" font-size="10.00">string</text>
</g>
<!-- Node15&#45;&gt;Node22 -->
<g id="edge39" class="edge"><title>Node15&#45;&gt;Node22</title>
<path fill="none" stroke="midnightblue" d="M781.841,-180.149C729.375,-173.38 667.331,-161.685 648.5,-143 620.406,-115.123 656.599,-84.8459 629.5,-56 596.494,-20.8659 538.2,-12.5092 502.396,-10.8866"/>
<polygon fill="midnightblue" stroke="midnightblue" points="502.16,-7.378 492.06,-10.577 501.95,-14.3749 502.16,-7.378"/>
</g>
<!-- Node15&#45;&gt;Node23 -->
<g id="edge26" class="edge"><title>Node15&#45;&gt;Node23</title>
<path fill="none" stroke="midnightblue" d="M781.557,-179.801C778.5,-179.525 775.472,-179.257 772.5,-179 579.267,-162.318 351.737,-146.847 233.676,-139.132"/>
<polygon fill="midnightblue" stroke="midnightblue" points="233.842,-135.636 223.636,-138.477 233.387,-142.621 233.842,-135.636"/>
</g>
<!-- Node24 -->
<g id="node24" class="node"><title>Node24</title>
<g id="a_node24"><a xlink:href="ServiceDiscovery_8h_source.html" target="_top" xlink:title="QualityControl/ServiceDiscovery.h">
<polygon fill="none" stroke="black" points="392,-123.5 392,-142.5 559,-142.5 559,-123.5 392,-123.5"/>
<text text-anchor="middle" x="475.5" y="-130.5" font-family="Helvetica,sans-Serif" font-size="10.00">QualityControl/ServiceDiscovery.h</text>
</a>
</g>
</g>
<!-- Node15&#45;&gt;Node24 -->
<g id="edge29" class="edge"><title>Node15&#45;&gt;Node24</title>
<path fill="none" stroke="midnightblue" d="M801.179,-179.444C731.969,-169.786 619.545,-154.099 546.562,-143.916"/>
<polygon fill="midnightblue" stroke="midnightblue" points="546.922,-140.432 536.534,-142.516 545.955,-147.365 546.922,-140.432"/>
</g>
<!-- Node29 -->
<g id="node29" class="node"><title>Node29</title>
<polygon fill="none" stroke="#bfbfbf" points="658,-123.5 658,-142.5 727,-142.5 727,-123.5 658,-123.5"/>
<text text-anchor="middle" x="692.5" y="-130.5" font-family="Helvetica,sans-Serif" font-size="10.00">TObjArray.h</text>
</g>
<!-- Node15&#45;&gt;Node29 -->
<g id="edge36" class="edge"><title>Node15&#45;&gt;Node29</title>
<path fill="none" stroke="midnightblue" d="M835.563,-179.444C806.84,-170.32 761.171,-155.813 729.179,-145.651"/>
<polygon fill="midnightblue" stroke="midnightblue" points="729.901,-142.208 719.311,-142.516 727.782,-148.88 729.901,-142.208"/>
</g>
<!-- Node30 -->
<g id="node30" class="node"><title>Node30</title>
<polygon fill="none" stroke="#bfbfbf" points="745,-123.5 745,-142.5 816,-142.5 816,-123.5 745,-123.5"/>
<text text-anchor="middle" x="780.5" y="-130.5" font-family="Helvetica,sans-Serif" font-size="10.00">TObjString.h</text>
</g>
<!-- Node15&#45;&gt;Node30 -->
<g id="edge37" class="edge"><title>Node15&#45;&gt;Node30</title>
<path fill="none" stroke="midnightblue" d="M849.325,-179.324C836.653,-170.979 817.267,-158.212 802.294,-148.352"/>
<polygon fill="midnightblue" stroke="midnightblue" points="803.919,-145.231 793.642,-142.655 800.069,-151.078 803.919,-145.231"/>
</g>
<!-- Node31 -->
<g id="node31" class="node"><title>Node31</title>
<polygon fill="none" stroke="#bfbfbf" points="834.5,-123.5 834.5,-142.5 962.5,-142.5 962.5,-123.5 834.5,-123.5"/>
<text text-anchor="middle" x="898.5" y="-130.5" font-family="Helvetica,sans-Serif" font-size="10.00">boost/concept_check.hpp</text>
</g>
<!-- Node15&#45;&gt;Node31 -->
<g id="edge38" class="edge"><title>Node15&#45;&gt;Node31</title>
<path fill="none" stroke="midnightblue" d="M868.445,-179.083C873.477,-171.534 880.837,-160.495 887.013,-151.23"/>
<polygon fill="midnightblue" stroke="midnightblue" points="890.031,-153.013 892.666,-142.751 884.207,-149.13 890.031,-153.013"/>
</g>
<!-- Node16&#45;&gt;Node3 -->
<g id="edge17" class="edge"><title>Node16&#45;&gt;Node3</title>
<path fill="none" stroke="midnightblue" d="M1126.08,-123.432C1156.63,-114.935 1204.09,-101.166 1244.5,-87 1246.41,-86.3313 1248.36,-85.6202 1250.33,-84.8858"/>
<polygon fill="midnightblue" stroke="midnightblue" points="1252.01,-87.9888 1260.06,-81.1084 1249.47,-81.4628 1252.01,-87.9888"/>
</g>
<!-- Node17 -->
<g id="node17" class="node"><title>Node17</title>
<polygon fill="none" stroke="#bfbfbf" points="1028,-62 1028,-81 1063,-81 1063,-62 1028,-62"/>
<text text-anchor="middle" x="1045.5" y="-69" font-family="Helvetica,sans-Serif" font-size="10.00">map</text>
</g>
<!-- Node16&#45;&gt;Node17 -->
<g id="edge18" class="edge"><title>Node16&#45;&gt;Node17</title>
<path fill="none" stroke="midnightblue" d="M1087.48,-123.475C1080.06,-114.462 1068.17,-100.025 1058.93,-88.8118"/>
<polygon fill="midnightblue" stroke="midnightblue" points="1061.57,-86.5034 1052.51,-81.0091 1056.16,-90.9534 1061.57,-86.5034"/>
</g>
<!-- Node18 -->
<g id="node18" class="node"><title>Node18</title>
<polygon fill="none" stroke="#bfbfbf" points="1028,-0.5 1028,-19.5 1087,-19.5 1087,-0.5 1028,-0.5"/>
<text text-anchor="middle" x="1057.5" y="-7.5" font-family="Helvetica,sans-Serif" font-size="10.00">TObject.h</text>
</g>
<!-- Node16&#45;&gt;Node18 -->
<g id="edge19" class="edge"><title>Node16&#45;&gt;Node18</title>
<path fill="none" stroke="midnightblue" d="M1091.83,-123.101C1087.57,-108.902 1078.94,-80.2491 1071.5,-56 1068.8,-47.1894 1065.76,-37.4201 1063.21,-29.2415"/>
<polygon fill="midnightblue" stroke="midnightblue" points="1066.53,-28.1214 1060.2,-19.6207 1059.85,-30.2095 1066.53,-28.1214"/>
</g>
<!-- Node16&#45;&gt;Node19 -->
<g id="edge20" class="edge"><title>Node16&#45;&gt;Node19</title>
<path fill="none" stroke="midnightblue" d="M1106.39,-123.475C1119.7,-113.931 1141.5,-98.3073 1157.46,-86.8683"/>
<polygon fill="midnightblue" stroke="midnightblue" points="1159.54,-89.68 1165.63,-81.0091 1155.46,-83.9908 1159.54,-89.68"/>
</g>
<!-- Node16&#45;&gt;Node20 -->
<g id="edge21" class="edge"><title>Node16&#45;&gt;Node20</title>
<path fill="none" stroke="midnightblue" d="M1073.73,-123.475C1049.07,-113.357 1007.75,-96.4046 979.598,-84.8507"/>
<polygon fill="midnightblue" stroke="midnightblue" points="980.817,-81.5674 970.236,-81.0091 978.159,-88.0434 980.817,-81.5674"/>
</g>
<!-- Node20&#45;&gt;Node18 -->
<g id="edge22" class="edge"><title>Node20&#45;&gt;Node18</title>
<path fill="none" stroke="midnightblue" d="M964.974,-61.9751C982.778,-52.1664 1012.24,-35.9346 1033.13,-24.425"/>
<polygon fill="midnightblue" stroke="midnightblue" points="1034.99,-27.4001 1042.05,-19.5091 1031.61,-21.269 1034.99,-27.4001"/>
</g>
<!-- Node21 -->
<g id="node21" class="node"><title>Node21</title>
<polygon fill="none" stroke="#bfbfbf" points="923.5,-0.5 923.5,-19.5 975.5,-19.5 975.5,-0.5 923.5,-0.5"/>
<text text-anchor="middle" x="949.5" y="-7.5" font-family="Helvetica,sans-Serif" font-size="10.00">ostream</text>
</g>
<!-- Node20&#45;&gt;Node21 -->
<g id="edge23" class="edge"><title>Node20&#45;&gt;Node21</title>
<path fill="none" stroke="midnightblue" d="M949.5,-61.9751C949.5,-53.5803 949.5,-40.4806 949.5,-29.6631"/>
<polygon fill="midnightblue" stroke="midnightblue" points="953,-29.5091 949.5,-19.5091 946,-29.5091 953,-29.5091"/>
</g>
<!-- Node20&#45;&gt;Node22 -->
<g id="edge24" class="edge"><title>Node20&#45;&gt;Node22</title>
<path fill="none" stroke="midnightblue" d="M888.961,-62.9643C786.03,-50.1518 580.498,-24.5677 502.495,-14.8581"/>
<polygon fill="midnightblue" stroke="midnightblue" points="502.714,-11.3585 492.358,-13.5964 501.85,-18.3049 502.714,-11.3585"/>
</g>
<!-- Node23&#45;&gt;Node13 -->
<g id="edge28" class="edge"><title>Node23&#45;&gt;Node13</title>
<path fill="none" stroke="midnightblue" d="M141.178,-123.475C129.531,-115.417 111.617,-103.023 96.3701,-92.4741"/>
<polygon fill="midnightblue" stroke="midnightblue" points="97.9835,-89.3343 87.7685,-86.523 94.0008,-95.0909 97.9835,-89.3343"/>
</g>
<!-- Node23&#45;&gt;Node22 -->
<g id="edge27" class="edge"><title>Node23&#45;&gt;Node22</title>
<path fill="none" stroke="midnightblue" d="M156.777,-123.227C163.322,-107.021 179.644,-72.5428 205.5,-56 244.114,-31.295 379.199,-18.0606 440.648,-13.1993"/>
<polygon fill="midnightblue" stroke="midnightblue" points="441.18,-16.6689 450.883,-12.4136 440.644,-9.68939 441.18,-16.6689"/>
</g>
<!-- Node24&#45;&gt;Node4 -->
<g id="edge32" class="edge"><title>Node24&#45;&gt;Node4</title>
<path fill="none" stroke="midnightblue" d="M431.737,-123.482C391.956,-115.366 331.813,-102.161 280.5,-87 277.868,-86.2223 275.157,-85.3649 272.446,-84.4674"/>
<polygon fill="midnightblue" stroke="midnightblue" points="273.361,-81.0803 262.767,-81.1114 271.068,-87.6941 273.361,-81.0803"/>
</g>
<!-- Node24&#45;&gt;Node22 -->
<g id="edge33" class="edge"><title>Node24&#45;&gt;Node22</title>
<path fill="none" stroke="midnightblue" d="M417.765,-123.459C376.577,-116.047 326.306,-103.848 313.5,-87 278.026,-40.3295 385.346,-20.8669 440.69,-14.0886"/>
<polygon fill="midnightblue" stroke="midnightblue" points="441.159,-17.5578 450.69,-12.9322 440.355,-10.6041 441.159,-17.5578"/>
</g>
<!-- Node25 -->
<g id="node25" class="node"><title>Node25</title>
<polygon fill="none" stroke="#bfbfbf" points="434.5,-62 434.5,-81 480.5,-81 480.5,-62 434.5,-62"/>
<text text-anchor="middle" x="457.5" y="-69" font-family="Helvetica,sans-Serif" font-size="10.00">atomic</text>
</g>
<!-- Node24&#45;&gt;Node25 -->
<g id="edge30" class="edge"><title>Node24&#45;&gt;Node25</title>
<path fill="none" stroke="midnightblue" d="M472.921,-123.475C470.355,-114.992 466.335,-101.704 463.043,-90.8222"/>
<polygon fill="midnightblue" stroke="midnightblue" points="466.32,-89.5672 460.074,-81.0091 459.62,-91.5942 466.32,-89.5672"/>
</g>
<!-- Node26 -->
<g id="node26" class="node"><title>Node26</title>
<polygon fill="none" stroke="#bfbfbf" points="499,-62 499,-81 558,-81 558,-62 499,-62"/>
<text text-anchor="middle" x="528.5" y="-69" font-family="Helvetica,sans-Serif" font-size="10.00">curl/curl.h</text>
</g>
<!-- Node24&#45;&gt;Node26 -->
<g id="edge31" class="edge"><title>Node24&#45;&gt;Node26</title>
<path fill="none" stroke="midnightblue" d="M483.094,-123.475C491.201,-114.373 504.235,-99.741 514.263,-88.483"/>
<polygon fill="midnightblue" stroke="midnightblue" points="516.883,-90.8043 520.92,-81.0091 511.656,-86.1483 516.883,-90.8043"/>
</g>
<!-- Node27 -->
<g id="node27" class="node"><title>Node27</title>
<polygon fill="none" stroke="#bfbfbf" points="576.5,-62 576.5,-81 620.5,-81 620.5,-62 576.5,-62"/>
<text text-anchor="middle" x="598.5" y="-69" font-family="Helvetica,sans-Serif" font-size="10.00">thread</text>
</g>
<!-- Node24&#45;&gt;Node27 -->
<g id="edge34" class="edge"><title>Node24&#45;&gt;Node27</title>
<path fill="none" stroke="midnightblue" d="M493.123,-123.475C513.674,-113.534 547.864,-96.9947 571.707,-85.461"/>
<polygon fill="midnightblue" stroke="midnightblue" points="573.432,-88.5145 580.91,-81.0091 570.384,-82.2131 573.432,-88.5145"/>
</g>
<!-- Node28 -->
<g id="node28" class="node"><title>Node28</title>
<polygon fill="none" stroke="#bfbfbf" points="322.5,-56.5 322.5,-86.5 416.5,-86.5 416.5,-56.5 322.5,-56.5"/>
<text text-anchor="start" x="330.5" y="-74.5" font-family="Helvetica,sans-Serif" font-size="10.00">boost/asio/ip/host</text>
<text text-anchor="middle" x="369.5" y="-63.5" font-family="Helvetica,sans-Serif" font-size="10.00">_name.hpp</text>
</g>
<!-- Node24&#45;&gt;Node28 -->
<g id="edge35" class="edge"><title>Node24&#45;&gt;Node28</title>
<path fill="none" stroke="midnightblue" d="M460.313,-123.475C445.487,-115.153 422.424,-102.207 403.251,-91.445"/>
<polygon fill="midnightblue" stroke="midnightblue" points="404.915,-88.3658 394.482,-86.523 401.489,-94.4699 404.915,-88.3658"/>
</g>
</g>
</svg>
