<?xml version="1.0" encoding="UTF-8" standalone="no"?>
<!DOCTYPE svg PUBLIC "-//W3C//DTD SVG 1.1//EN"
 "http://www.w3.org/Graphics/SVG/1.1/DTD/svg11.dtd">
<!-- Generated by graphviz version 2.38.0 (20140413.2041)
 -->
<!-- Title: Framework/test/testChecker.cxx Pages: 1 -->
<!--zoomable 431 -->
<svg id="main" version="1.1" xmlns="http://www.w3.org/2000/svg" xmlns:xlink="http://www.w3.org/1999/xlink" xml:space="preserve" onload="init(evt)">
<style type="text/css"><![CDATA[
.edge:hover path { stroke: red; }
.edge:hover polygon { stroke: red; fill: red; }
]]></style>
<script type="text/javascript"><![CDATA[
var edges = document.getElementsByTagName('g');
if (edges && edges.length) {
  for (var i=0;i<edges.length;i++) {
    if (edges[i].id.substr(0,4)=='edge') {
      edges[i].setAttribute('class','edge');
    }
  }
}
]]></script>
        <defs>
                <circle id="rim" cx="0" cy="0" r="7"/>
                <circle id="rim2" cx="0" cy="0" r="3.5"/>
                <g id="zoomPlus">
                        <use xlink:href="#rim" fill="#404040">
                                <set attributeName="fill" to="#808080" begin="zoomplus.mouseover" end="zoomplus.mouseout"/>
                        </use>
                        <path d="M-4,0h8M0,-4v8" fill="none" stroke="white" stroke-width="1.5" pointer-events="none"/>
                </g>
                <g id="zoomMin">
                        <use xlink:href="#rim" fill="#404040">
                                <set attributeName="fill" to="#808080" begin="zoomminus.mouseover" end="zoomminus.mouseout"/>
                        </use>
                        <path d="M-4,0h8" fill="none" stroke="white" stroke-width="1.5" pointer-events="none"/>
                </g>
                <g id="dirArrow">
                        <path fill="none" stroke="white" stroke-width="1.5" d="M0,-3.0v7 M-2.5,-0.5L0,-3.0L2.5,-0.5"/>
                </g>
               <g id="resetDef">
                       <use xlink:href="#rim2" fill="#404040">
                               <set attributeName="fill" to="#808080" begin="reset.mouseover" end="reset.mouseout"/>
                       </use>
               </g>
        </defs>

<script type="text/javascript">
var viewWidth = 1825;
var viewHeight = 431;
var sectionId = 'dynsection-0';
</script>
<script xlink:href="svgpan.js"/>
<svg id="graph" class="graph">
<g id="viewport">
<title>Framework/test/testChecker.cxx</title>
<!-- Node1 -->
<g id="node1" class="node"><title>Node1</title>
<polygon fill="#bfbfbf" stroke="black" points="614,-403.5 614,-422.5 774,-422.5 774,-403.5 614,-403.5"/>
<text text-anchor="middle" x="694" y="-410.5" font-family="Helvetica,sans-Serif" font-size="10.00">Framework/test/testChecker.cxx</text>
</g>
<!-- Node2 -->
<g id="node2" class="node"><title>Node2</title>
<g id="a_node2"><a xlink:href="CheckerFactory_8h.html" target="_top" xlink:title="QualityControl/CheckerFactory.h">
<polygon fill="none" stroke="black" points="3,-347.5 3,-366.5 163,-366.5 163,-347.5 3,-347.5"/>
<text text-anchor="middle" x="83" y="-354.5" font-family="Helvetica,sans-Serif" font-size="10.00">QualityControl/CheckerFactory.h</text>
</a>
</g>
</g>
<!-- Node1&#45;&gt;Node2 -->
<g id="edge1" class="edge"><title>Node1&#45;&gt;Node2</title>
<path fill="none" stroke="midnightblue" d="M613.986,-405.208C512.537,-396.555 332.256,-381.033 178,-367 176.479,-366.862 174.944,-366.722 173.399,-366.58"/>
<polygon fill="midnightblue" stroke="midnightblue" points="173.355,-363.061 163.076,-365.629 172.713,-370.032 173.355,-363.061"/>
</g>
<!-- Node4 -->
<g id="node4" class="node"><title>Node4</title>
<g id="a_node4"><a xlink:href="Checker_8h.html" target="_top" xlink:title="QualityControl/Checker.h">
<polygon fill="none" stroke="black" points="555.5,-347.5 555.5,-366.5 682.5,-366.5 682.5,-347.5 555.5,-347.5"/>
<text text-anchor="middle" x="619" y="-354.5" font-family="Helvetica,sans-Serif" font-size="10.00">QualityControl/Checker.h</text>
</a>
</g>
</g>
<!-- Node1&#45;&gt;Node4 -->
<g id="edge3" class="edge"><title>Node1&#45;&gt;Node4</title>
<path fill="none" stroke="midnightblue" d="M681.95,-403.324C670.537,-395.107 653.169,-382.602 639.565,-372.807"/>
<polygon fill="midnightblue" stroke="midnightblue" points="641.43,-369.837 631.269,-366.834 637.34,-375.517 641.43,-369.837"/>
</g>
<!-- Node13 -->
<g id="node13" class="node"><title>Node13</title>
<polygon fill="none" stroke="#bfbfbf" points="391,-62 391,-81 445,-81 445,-62 391,-62"/>
<text text-anchor="middle" x="418" y="-69" font-family="Helvetica,sans-Serif" font-size="10.00">iostream</text>
</g>
<!-- Node1&#45;&gt;Node13 -->
<g id="edge56" class="edge"><title>Node1&#45;&gt;Node13</title>
<path fill="none" stroke="midnightblue" d="M613.902,-410.823C472.173,-406.551 192,-387.317 192,-302 192,-302 192,-302 192,-188 192,-104.312 316.394,-81.2274 380.606,-74.8859"/>
<polygon fill="midnightblue" stroke="midnightblue" points="381.093,-78.3564 390.739,-73.9749 380.466,-71.3845 381.093,-78.3564"/>
</g>
<!-- Node39 -->
<g id="node39" class="node"><title>Node39</title>
<polygon fill="none" stroke="#bfbfbf" points="701,-347.5 701,-366.5 839,-366.5 839,-347.5 701,-347.5"/>
<text text-anchor="middle" x="770" y="-354.5" font-family="Helvetica,sans-Serif" font-size="10.00">Framework/DataSampling.h</text>
</g>
<!-- Node1&#45;&gt;Node39 -->
<g id="edge53" class="edge"><title>Node1&#45;&gt;Node39</title>
<path fill="none" stroke="midnightblue" d="M706.211,-403.324C717.776,-395.107 735.375,-382.602 749.161,-372.807"/>
<polygon fill="midnightblue" stroke="midnightblue" points="751.443,-375.479 757.567,-366.834 747.388,-369.773 751.443,-375.479"/>
</g>
<!-- Node40 -->
<g id="node40" class="node"><title>Node40</title>
<polygon fill="none" stroke="#bfbfbf" points="857,-347.5 857,-366.5 997,-366.5 997,-347.5 857,-347.5"/>
<text text-anchor="middle" x="927" y="-354.5" font-family="Helvetica,sans-Serif" font-size="10.00">Framework/DataSpecUtils.h</text>
</g>
<!-- Node1&#45;&gt;Node40 -->
<g id="edge54" class="edge"><title>Node1&#45;&gt;Node40</title>
<path fill="none" stroke="midnightblue" d="M730.92,-403.444C771.395,-394.063 836.421,-378.993 880.384,-368.804"/>
<polygon fill="midnightblue" stroke="midnightblue" points="881.302,-372.184 890.253,-366.516 879.721,-365.365 881.302,-372.184"/>
</g>
<!-- Node41 -->
<g id="node41" class="node"><title>Node41</title>
<polygon fill="none" stroke="#bfbfbf" points="1015.5,-347.5 1015.5,-366.5 1134.5,-366.5 1134.5,-347.5 1015.5,-347.5"/>
<text text-anchor="middle" x="1075" y="-354.5" font-family="Helvetica,sans-Serif" font-size="10.00">boost/test/unit_test.hpp</text>
</g>
<!-- Node1&#45;&gt;Node41 -->
<g id="edge55" class="edge"><title>Node1&#45;&gt;Node41</title>
<path fill="none" stroke="midnightblue" d="M754.371,-403.444C822.468,-393.792 933.06,-378.117 1004.91,-367.933"/>
<polygon fill="midnightblue" stroke="midnightblue" points="1005.82,-371.341 1015.23,-366.472 1004.83,-364.41 1005.82,-371.341"/>
</g>
<!-- Node3 -->
<g id="node3" class="node"><title>Node3</title>
<polygon fill="none" stroke="#bfbfbf" points="0,-291.5 0,-310.5 164,-310.5 164,-291.5 0,-291.5"/>
<text text-anchor="middle" x="82" y="-298.5" font-family="Helvetica,sans-Serif" font-size="10.00">Framework/DataProcessorSpec.h</text>
</g>
<!-- Node2&#45;&gt;Node3 -->
<g id="edge2" class="edge"><title>Node2&#45;&gt;Node3</title>
<path fill="none" stroke="midnightblue" d="M82.8349,-347.083C82.7038,-340.006 82.5159,-329.861 82.3516,-320.986"/>
<polygon fill="midnightblue" stroke="midnightblue" points="85.8467,-320.685 82.1621,-310.751 78.8479,-320.814 85.8467,-320.685"/>
</g>
<!-- Node5 -->
<g id="node5" class="node"><title>Node5</title>
<polygon fill="none" stroke="#bfbfbf" points="1094,-291.5 1094,-310.5 1140,-310.5 1140,-291.5 1094,-291.5"/>
<text text-anchor="middle" x="1117" y="-298.5" font-family="Helvetica,sans-Serif" font-size="10.00">chrono</text>
</g>
<!-- Node4&#45;&gt;Node5 -->
<g id="edge4" class="edge"><title>Node4&#45;&gt;Node5</title>
<path fill="none" stroke="midnightblue" d="M682.688,-348.029C685.835,-347.672 688.953,-347.327 692,-347 863.159,-328.614 910.767,-342.346 1083.75,-310.917"/>
<polygon fill="midnightblue" stroke="midnightblue" points="1084.5,-314.338 1093.7,-309.085 1083.23,-307.454 1084.5,-314.338"/>
</g>
<!-- Node6 -->
<g id="node6" class="node"><title>Node6</title>
<polygon fill="none" stroke="#bfbfbf" points="1430,-62 1430,-81 1482,-81 1482,-62 1430,-62"/>
<text text-anchor="middle" x="1456" y="-69" font-family="Helvetica,sans-Serif" font-size="10.00">memory</text>
</g>
<!-- Node4&#45;&gt;Node6 -->
<g id="edge5" class="edge"><title>Node4&#45;&gt;Node6</title>
<path fill="none" stroke="midnightblue" d="M682.683,-347.981C685.832,-347.637 688.951,-347.308 692,-347 781.361,-337.976 1494,-335.815 1494,-246 1494,-246 1494,-246 1494,-188 1494,-151.754 1476.91,-112.171 1465.65,-90.0327"/>
<polygon fill="midnightblue" stroke="midnightblue" points="1468.73,-88.3745 1460.97,-81.1633 1462.54,-91.641 1468.73,-88.3745"/>
</g>
<!-- Node7 -->
<g id="node7" class="node"><title>Node7</title>
<polygon fill="none" stroke="#bfbfbf" points="698,-291.5 698,-310.5 790,-310.5 790,-291.5 698,-291.5"/>
<text text-anchor="middle" x="744" y="-298.5" font-family="Helvetica,sans-Serif" font-size="10.00">Common/Timer.h</text>
</g>
<!-- Node4&#45;&gt;Node7 -->
<g id="edge6" class="edge"><title>Node4&#45;&gt;Node7</title>
<path fill="none" stroke="midnightblue" d="M638.807,-347.444C659.287,-338.596 691.483,-324.687 714.865,-314.586"/>
<polygon fill="midnightblue" stroke="midnightblue" points="716.494,-317.695 724.286,-310.516 713.718,-311.269 716.494,-317.695"/>
</g>
<!-- Node8 -->
<g id="node8" class="node"><title>Node8</title>
<polygon fill="none" stroke="#bfbfbf" points="830.5,-56.5 830.5,-86.5 965.5,-86.5 965.5,-56.5 830.5,-56.5"/>
<text text-anchor="start" x="838.5" y="-74.5" font-family="Helvetica,sans-Serif" font-size="10.00">Configuration/Configuration</text>
<text text-anchor="middle" x="898" y="-63.5" font-family="Helvetica,sans-Serif" font-size="10.00">Interface.h</text>
</g>
<!-- Node4&#45;&gt;Node8 -->
<g id="edge7" class="edge"><title>Node4&#45;&gt;Node8</title>
<path fill="none" stroke="midnightblue" d="M626.574,-347.258C633.753,-338.577 644.395,-324.63 651,-311 664.126,-283.915 670,-276.098 670,-246 670,-246 670,-246 670,-188 670,-148.382 697.337,-143.89 731,-123 747.951,-112.481 791.675,-99.416 830.131,-89.2106"/>
<polygon fill="midnightblue" stroke="midnightblue" points="831.506,-92.4685 840.291,-86.547 829.731,-85.6973 831.506,-92.4685"/>
</g>
<!-- Node9 -->
<g id="node9" class="node"><title>Node9</title>
<polygon fill="none" stroke="#bfbfbf" points="808,-291.5 808,-310.5 906,-310.5 906,-291.5 808,-291.5"/>
<text text-anchor="middle" x="857" y="-298.5" font-family="Helvetica,sans-Serif" font-size="10.00">Framework/Task.h</text>
</g>
<!-- Node4&#45;&gt;Node9 -->
<g id="edge8" class="edge"><title>Node4&#45;&gt;Node9</title>
<path fill="none" stroke="midnightblue" d="M656.712,-347.444C698.143,-338.043 764.757,-322.929 809.667,-312.739"/>
<polygon fill="midnightblue" stroke="midnightblue" points="810.487,-316.142 819.465,-310.516 808.938,-309.316 810.487,-316.142"/>
</g>
<!-- Node10 -->
<g id="node10" class="node"><title>Node10</title>
<polygon fill="none" stroke="#bfbfbf" points="924.5,-291.5 924.5,-310.5 1075.5,-310.5 1075.5,-291.5 924.5,-291.5"/>
<text text-anchor="middle" x="1000" y="-298.5" font-family="Helvetica,sans-Serif" font-size="10.00">Monitoring/MonitoringFactory.h</text>
</g>
<!-- Node4&#45;&gt;Node10 -->
<g id="edge9" class="edge"><title>Node4&#45;&gt;Node10</title>
<path fill="none" stroke="midnightblue" d="M679.371,-347.444C747.368,-337.806 857.736,-322.163 929.598,-311.978"/>
<polygon fill="midnightblue" stroke="midnightblue" points="930.502,-315.385 939.912,-310.516 929.52,-308.454 930.502,-315.385"/>
</g>
<!-- Node11 -->
<g id="node11" class="node"><title>Node11</title>
<g id="a_node11"><a xlink:href="CheckInterface_8h.html" target="_top" xlink:title="QualityControl/CheckInterface.h">
<polygon fill="none" stroke="black" points="484.5,-179.5 484.5,-198.5 641.5,-198.5 641.5,-179.5 484.5,-179.5"/>
<text text-anchor="middle" x="563" y="-186.5" font-family="Helvetica,sans-Serif" font-size="10.00">QualityControl/CheckInterface.h</text>
</a>
</g>
</g>
<!-- Node4&#45;&gt;Node11 -->
<g id="edge10" class="edge"><title>Node4&#45;&gt;Node11</title>
<path fill="none" stroke="midnightblue" d="M555.431,-350.639C529.195,-344.921 501.189,-333.515 485,-311 474.853,-296.889 478.635,-258.652 494,-235 503.052,-221.066 518.101,-210.51 531.838,-203.137"/>
<polygon fill="midnightblue" stroke="midnightblue" points="533.665,-206.137 541.049,-198.539 530.539,-199.874 533.665,-206.137"/>
</g>
<!-- Node12 -->
<g id="node12" class="node"><title>Node12</title>
<g id="a_node12"><a xlink:href="MonitorObject_8h.html" target="_top" xlink:title="QualityControl/MonitorObject.h">
<polygon fill="none" stroke="black" points="446.5,-123.5 446.5,-142.5 597.5,-142.5 597.5,-123.5 446.5,-123.5"/>
<text text-anchor="middle" x="522" y="-130.5" font-family="Helvetica,sans-Serif" font-size="10.00">QualityControl/MonitorObject.h</text>
</a>
</g>
</g>
<!-- Node4&#45;&gt;Node12 -->
<g id="edge25" class="edge"><title>Node4&#45;&gt;Node12</title>
<path fill="none" stroke="midnightblue" d="M555.44,-352.45C526.357,-347.267 494.355,-335.785 476,-311 441.085,-263.852 451.961,-232.955 475,-179 480.147,-166.947 490.281,-156.576 499.826,-148.839"/>
<polygon fill="midnightblue" stroke="midnightblue" points="502.04,-151.553 507.922,-142.741 497.828,-145.962 502.04,-151.553"/>
</g>
<!-- Node20 -->
<g id="node20" class="node"><title>Node20</title>
<g id="a_node20"><a xlink:href="DatabaseInterface_8h.html" target="_top" xlink:title="QualityControl/DatabaseInterface.h">
<polygon fill="none" stroke="black" points="220,-179.5 220,-198.5 390,-198.5 390,-179.5 220,-179.5"/>
<text text-anchor="middle" x="305" y="-186.5" font-family="Helvetica,sans-Serif" font-size="10.00">QualityControl/DatabaseInterface.h</text>
</a>
</g>
</g>
<!-- Node4&#45;&gt;Node20 -->
<g id="edge21" class="edge"><title>Node4&#45;&gt;Node20</title>
<path fill="none" stroke="midnightblue" d="M555.416,-350.233C493.375,-343.557 404.321,-330.863 376,-311 339.896,-285.679 319.347,-235.65 310.41,-208.529"/>
<polygon fill="midnightblue" stroke="midnightblue" points="313.679,-207.256 307.366,-198.747 306.995,-209.336 313.679,-207.256"/>
</g>
<!-- Node22 -->
<g id="node22" class="node"><title>Node22</title>
<g id="a_node22"><a xlink:href="QcInfoLogger_8h.html" target="_top" xlink:title="QualityControl/QcInfoLogger.h">
<polygon fill="none" stroke="black" points="493.5,-291.5 493.5,-310.5 642.5,-310.5 642.5,-291.5 493.5,-291.5"/>
<text text-anchor="middle" x="568" y="-298.5" font-family="Helvetica,sans-Serif" font-size="10.00">QualityControl/QcInfoLogger.h</text>
</a>
</g>
</g>
<!-- Node4&#45;&gt;Node22 -->
<g id="edge26" class="edge"><title>Node4&#45;&gt;Node22</title>
<path fill="none" stroke="midnightblue" d="M610.578,-347.083C603.152,-339.22 592.148,-327.569 583.188,-318.081"/>
<polygon fill="midnightblue" stroke="midnightblue" points="585.676,-315.618 576.265,-310.751 580.587,-320.424 585.676,-315.618"/>
</g>
<!-- Node11&#45;&gt;Node12 -->
<g id="edge11" class="edge"><title>Node11&#45;&gt;Node12</title>
<path fill="none" stroke="midnightblue" d="M556.23,-179.083C550.438,-171.455 541.942,-160.264 534.862,-150.941"/>
<polygon fill="midnightblue" stroke="midnightblue" points="537.479,-148.599 528.644,-142.751 531.904,-152.832 537.479,-148.599"/>
</g>
<!-- Node17 -->
<g id="node17" class="node"><title>Node17</title>
<g id="a_node17"><a xlink:href="Quality_8h.html" target="_top" xlink:title="QualityControl/Quality.h">
<polygon fill="none" stroke="black" points="691.5,-62 691.5,-81 812.5,-81 812.5,-62 691.5,-62"/>
<text text-anchor="middle" x="752" y="-69" font-family="Helvetica,sans-Serif" font-size="10.00">QualityControl/Quality.h</text>
</a>
</g>
</g>
<!-- Node11&#45;&gt;Node17 -->
<g id="edge20" class="edge"><title>Node11&#45;&gt;Node17</title>
<path fill="none" stroke="midnightblue" d="M574.429,-179.308C591.668,-166.362 625.55,-141.549 656,-123 678.564,-109.255 705.229,-95.4081 724.723,-85.6993"/>
<polygon fill="midnightblue" stroke="midnightblue" points="726.517,-88.7172 733.935,-81.1532 723.419,-82.4399 726.517,-88.7172"/>
</g>
<!-- Node12&#45;&gt;Node13 -->
<g id="edge12" class="edge"><title>Node12&#45;&gt;Node13</title>
<path fill="none" stroke="midnightblue" d="M507.099,-123.475C490.032,-113.711 461.839,-97.5807 441.738,-86.0808"/>
<polygon fill="midnightblue" stroke="midnightblue" points="443.291,-82.9371 432.873,-81.0091 439.815,-89.013 443.291,-82.9371"/>
</g>
<!-- Node14 -->
<g id="node14" class="node"><title>Node14</title>
<polygon fill="none" stroke="#bfbfbf" points="503.5,-62 503.5,-81 538.5,-81 538.5,-62 503.5,-62"/>
<text text-anchor="middle" x="521" y="-69" font-family="Helvetica,sans-Serif" font-size="10.00">map</text>
</g>
<!-- Node12&#45;&gt;Node14 -->
<g id="edge13" class="edge"><title>Node12&#45;&gt;Node14</title>
<path fill="none" stroke="midnightblue" d="M521.857,-123.475C521.716,-115.08 521.495,-101.981 521.314,-91.1631"/>
<polygon fill="midnightblue" stroke="midnightblue" points="524.811,-90.9488 521.143,-81.0091 517.812,-91.0665 524.811,-90.9488"/>
</g>
<!-- Node15 -->
<g id="node15" class="node"><title>Node15</title>
<polygon fill="none" stroke="#bfbfbf" points="547.5,-0.5 547.5,-19.5 606.5,-19.5 606.5,-0.5 547.5,-0.5"/>
<text text-anchor="middle" x="577" y="-7.5" font-family="Helvetica,sans-Serif" font-size="10.00">TObject.h</text>
</g>
<!-- Node12&#45;&gt;Node15 -->
<g id="edge14" class="edge"><title>Node12&#45;&gt;Node15</title>
<path fill="none" stroke="midnightblue" d="M513.863,-123.101C501.464,-108.41 480.621,-78.4731 494,-56 503.603,-39.8702 521.225,-29.1662 537.769,-22.2615"/>
<polygon fill="midnightblue" stroke="midnightblue" points="539.218,-25.4546 547.316,-18.6228 536.726,-18.9135 539.218,-25.4546"/>
</g>
<!-- Node16 -->
<g id="node16" class="node"><title>Node16</title>
<polygon fill="none" stroke="#bfbfbf" points="557,-62 557,-81 673,-81 673,-62 557,-62"/>
<text text-anchor="middle" x="615" y="-69" font-family="Helvetica,sans-Serif" font-size="10.00">Common/Exceptions.h</text>
</g>
<!-- Node12&#45;&gt;Node16 -->
<g id="edge15" class="edge"><title>Node12&#45;&gt;Node16</title>
<path fill="none" stroke="midnightblue" d="M535.325,-123.475C550.38,-113.843 575.116,-98.0175 593.037,-86.5517"/>
<polygon fill="midnightblue" stroke="midnightblue" points="595.163,-89.3466 601.7,-81.0091 591.39,-83.4501 595.163,-89.3466"/>
</g>
<!-- Node12&#45;&gt;Node17 -->
<g id="edge16" class="edge"><title>Node12&#45;&gt;Node17</title>
<path fill="none" stroke="midnightblue" d="M554.953,-123.475C595.602,-112.959 664.787,-95.0615 709.424,-83.5142"/>
<polygon fill="midnightblue" stroke="midnightblue" points="710.303,-86.9021 719.108,-81.0091 708.55,-80.1252 710.303,-86.9021"/>
</g>
<!-- Node17&#45;&gt;Node15 -->
<g id="edge17" class="edge"><title>Node17&#45;&gt;Node15</title>
<path fill="none" stroke="midnightblue" d="M726.927,-61.9751C696.648,-51.6804 645.56,-34.3103 611.559,-22.7502"/>
<polygon fill="midnightblue" stroke="midnightblue" points="612.621,-19.4145 602.027,-19.5091 610.368,-26.0419 612.621,-19.4145"/>
</g>
<!-- Node18 -->
<g id="node18" class="node"><title>Node18</title>
<polygon fill="none" stroke="#bfbfbf" points="726,-0.5 726,-19.5 778,-19.5 778,-0.5 726,-0.5"/>
<text text-anchor="middle" x="752" y="-7.5" font-family="Helvetica,sans-Serif" font-size="10.00">ostream</text>
</g>
<!-- Node17&#45;&gt;Node18 -->
<g id="edge18" class="edge"><title>Node17&#45;&gt;Node18</title>
<path fill="none" stroke="midnightblue" d="M752,-61.9751C752,-53.5803 752,-40.4806 752,-29.6631"/>
<polygon fill="midnightblue" stroke="midnightblue" points="755.5,-29.5091 752,-19.5091 748.5,-29.5091 755.5,-29.5091"/>
</g>
<!-- Node19 -->
<g id="node19" class="node"><title>Node19</title>
<polygon fill="none" stroke="#bfbfbf" points="1269.5,-0.5 1269.5,-19.5 1310.5,-19.5 1310.5,-0.5 1269.5,-0.5"/>
<text text-anchor="middle" x="1290" y="-7.5" font-family="Helvetica,sans-Serif" font-size="10.00">string</text>
</g>
<!-- Node17&#45;&gt;Node19 -->
<g id="edge19" class="edge"><title>Node17&#45;&gt;Node19</title>
<path fill="none" stroke="midnightblue" d="M789.283,-61.9961C799.82,-59.8058 811.324,-57.6141 822,-56 985.849,-31.2272 1184.15,-17.4452 1259.21,-12.8015"/>
<polygon fill="midnightblue" stroke="midnightblue" points="1259.61,-16.2841 1269.37,-12.1824 1259.18,-9.29702 1259.61,-16.2841"/>
</g>
<!-- Node20&#45;&gt;Node6 -->
<g id="edge23" class="edge"><title>Node20&#45;&gt;Node6</title>
<path fill="none" stroke="midnightblue" d="M390.06,-183.116C576.727,-172.337 1006.95,-147.138 1022,-143 1040.78,-137.837 1042.39,-128.766 1061,-123 1188.82,-83.3892 1349.17,-74.8077 1419.78,-72.9779"/>
<polygon fill="midnightblue" stroke="midnightblue" points="1420.01,-76.4736 1429.93,-72.7462 1419.85,-69.4755 1420.01,-76.4736"/>
</g>
<!-- Node20&#45;&gt;Node12 -->
<g id="edge22" class="edge"><title>Node20&#45;&gt;Node12</title>
<path fill="none" stroke="midnightblue" d="M339.384,-179.444C376.922,-170.102 437.131,-155.119 478.067,-144.933"/>
<polygon fill="midnightblue" stroke="midnightblue" points="478.918,-148.328 487.777,-142.516 477.227,-141.535 478.918,-148.328"/>
</g>
<!-- Node21 -->
<g id="node21" class="node"><title>Node21</title>
<polygon fill="none" stroke="#bfbfbf" points="263.5,-123.5 263.5,-142.5 346.5,-142.5 346.5,-123.5 263.5,-123.5"/>
<text text-anchor="middle" x="305" y="-130.5" font-family="Helvetica,sans-Serif" font-size="10.00">unordered_map</text>
</g>
<!-- Node20&#45;&gt;Node21 -->
<g id="edge24" class="edge"><title>Node20&#45;&gt;Node21</title>
<path fill="none" stroke="midnightblue" d="M305,-179.083C305,-172.006 305,-161.861 305,-152.986"/>
<polygon fill="midnightblue" stroke="midnightblue" points="308.5,-152.751 305,-142.751 301.5,-152.751 308.5,-152.751"/>
</g>
<!-- Node22&#45;&gt;Node13 -->
<g id="edge52" class="edge"><title>Node22&#45;&gt;Node13</title>
<path fill="none" stroke="midnightblue" d="M547.68,-291.444C531.499,-283.809 509.13,-271.319 494,-255 448.941,-206.399 428.616,-127.28 421.349,-91.3355"/>
<polygon fill="midnightblue" stroke="midnightblue" points="424.742,-90.4445 419.433,-81.2757 417.866,-91.7539 424.742,-90.4445"/>
</g>
<!-- Node23 -->
<g id="node23" class="node"><title>Node23</title>
<g id="a_node23"><a xlink:href="TaskInterface_8h.html" target="_top" xlink:title="TaskInterface.h">
<polygon fill="none" stroke="black" points="911.5,-235.5 911.5,-254.5 996.5,-254.5 996.5,-235.5 911.5,-235.5"/>
<text text-anchor="middle" x="954" y="-242.5" font-family="Helvetica,sans-Serif" font-size="10.00">TaskInterface.h</text>
</a>
</g>
</g>
<!-- Node22&#45;&gt;Node23 -->
<g id="edge27" class="edge"><title>Node22&#45;&gt;Node23</title>
<path fill="none" stroke="midnightblue" d="M629.163,-291.444C704.232,-280.942 830.275,-263.309 901.267,-253.377"/>
<polygon fill="midnightblue" stroke="midnightblue" points="901.91,-256.821 911.329,-251.97 900.94,-249.889 901.91,-256.821"/>
</g>
<!-- Node38 -->
<g id="node38" class="node"><title>Node38</title>
<polygon fill="none" stroke="#bfbfbf" points="503,-235.5 503,-254.5 633,-254.5 633,-235.5 503,-235.5"/>
<text text-anchor="middle" x="568" y="-242.5" font-family="Helvetica,sans-Serif" font-size="10.00">InfoLogger/InfoLogger.hxx</text>
</g>
<!-- Node22&#45;&gt;Node38 -->
<g id="edge51" class="edge"><title>Node22&#45;&gt;Node38</title>
<path fill="none" stroke="midnightblue" d="M568,-291.083C568,-284.006 568,-273.861 568,-264.986"/>
<polygon fill="midnightblue" stroke="midnightblue" points="571.5,-264.751 568,-254.751 564.5,-264.751 571.5,-264.751"/>
</g>
<!-- Node23&#45;&gt;Node6 -->
<g id="edge28" class="edge"><title>Node23&#45;&gt;Node6</title>
<path fill="none" stroke="midnightblue" d="M996.831,-242.976C1109.08,-239.883 1405.33,-228.94 1437,-199 1466.36,-171.244 1463.59,-119.049 1459.52,-91.1694"/>
<polygon fill="midnightblue" stroke="midnightblue" points="1462.95,-90.445 1457.85,-81.1584 1456.05,-91.5984 1462.95,-90.445"/>
</g>
<!-- Node23&#45;&gt;Node8 -->
<g id="edge32" class="edge"><title>Node23&#45;&gt;Node8</title>
<path fill="none" stroke="midnightblue" d="M911.126,-241.748C852.156,-237.652 750.712,-226.68 728,-199 688.546,-150.916 775.355,-111.169 838.859,-89.7195"/>
<polygon fill="midnightblue" stroke="midnightblue" points="840.033,-93.0177 848.434,-86.5622 837.841,-86.3698 840.033,-93.0177"/>
</g>
<!-- Node24 -->
<g id="node24" class="node"><title>Node24</title>
<polygon fill="none" stroke="#bfbfbf" points="877.5,-179.5 877.5,-198.5 926.5,-198.5 926.5,-179.5 877.5,-179.5"/>
<text text-anchor="middle" x="902" y="-186.5" font-family="Helvetica,sans-Serif" font-size="10.00">cassert</text>
</g>
<!-- Node23&#45;&gt;Node24 -->
<g id="edge29" class="edge"><title>Node23&#45;&gt;Node24</title>
<path fill="none" stroke="midnightblue" d="M945.413,-235.083C937.841,-227.22 926.622,-215.569 917.486,-206.081"/>
<polygon fill="midnightblue" stroke="midnightblue" points="919.885,-203.527 910.427,-198.751 914.842,-208.382 919.885,-203.527"/>
</g>
<!-- Node25 -->
<g id="node25" class="node"><title>Node25</title>
<polygon fill="none" stroke="#bfbfbf" points="944.5,-179.5 944.5,-198.5 1069.5,-198.5 1069.5,-179.5 944.5,-179.5"/>
<text text-anchor="middle" x="1007" y="-186.5" font-family="Helvetica,sans-Serif" font-size="10.00">Framework/InitContext.h</text>
</g>
<!-- Node23&#45;&gt;Node25 -->
<g id="edge30" class="edge"><title>Node23&#45;&gt;Node25</title>
<path fill="none" stroke="midnightblue" d="M962.752,-235.083C970.47,-227.22 981.905,-215.569 991.217,-206.081"/>
<polygon fill="midnightblue" stroke="midnightblue" points="993.904,-208.34 998.411,-198.751 988.908,-203.436 993.904,-208.34"/>
</g>
<!-- Node26 -->
<g id="node26" class="node"><title>Node26</title>
<polygon fill="none" stroke="#bfbfbf" points="1088,-179.5 1088,-198.5 1248,-198.5 1248,-179.5 1088,-179.5"/>
<text text-anchor="middle" x="1168" y="-186.5" font-family="Helvetica,sans-Serif" font-size="10.00">Framework/ProcessingContext.h</text>
</g>
<!-- Node23&#45;&gt;Node26 -->
<g id="edge31" class="edge"><title>Node23&#45;&gt;Node26</title>
<path fill="none" stroke="midnightblue" d="M987.909,-235.444C1024.85,-226.122 1084.05,-211.183 1124.42,-200.997"/>
<polygon fill="midnightblue" stroke="midnightblue" points="1125.41,-204.357 1134.25,-198.516 1123.7,-197.57 1125.41,-204.357"/>
</g>
<!-- Node27 -->
<g id="node27" class="node"><title>Node27</title>
<g id="a_node27"><a xlink:href="Activity_8h.html" target="_top" xlink:title="QualityControl/Activity.h">
<polygon fill="none" stroke="black" points="736.5,-179.5 736.5,-198.5 859.5,-198.5 859.5,-179.5 736.5,-179.5"/>
<text text-anchor="middle" x="798" y="-186.5" font-family="Helvetica,sans-Serif" font-size="10.00">QualityControl/Activity.h</text>
</a>
</g>
</g>
<!-- Node23&#45;&gt;Node27 -->
<g id="edge33" class="edge"><title>Node23&#45;&gt;Node27</title>
<path fill="none" stroke="midnightblue" d="M929.281,-235.444C903.152,-226.399 861.741,-212.064 832.424,-201.916"/>
<polygon fill="midnightblue" stroke="midnightblue" points="833.198,-198.48 822.603,-198.516 830.908,-205.095 833.198,-198.48"/>
</g>
<!-- Node28 -->
<g id="node28" class="node"><title>Node28</title>
<g id="a_node28"><a xlink:href="ObjectsManager_8h.html" target="_top" xlink:title="QualityControl/ObjectsManager.h">
<polygon fill="none" stroke="black" points="1266.5,-179.5 1266.5,-198.5 1427.5,-198.5 1427.5,-179.5 1266.5,-179.5"/>
<text text-anchor="middle" x="1347" y="-186.5" font-family="Helvetica,sans-Serif" font-size="10.00">QualityControl/ObjectsManager.h</text>
</a>
</g>
</g>
<!-- Node23&#45;&gt;Node28 -->
<g id="edge34" class="edge"><title>Node23&#45;&gt;Node28</title>
<path fill="none" stroke="midnightblue" d="M996.806,-238.118C1063.58,-228.943 1193.3,-211.119 1274.74,-199.928"/>
<polygon fill="midnightblue" stroke="midnightblue" points="1275.49,-203.359 1284.92,-198.53 1274.54,-196.424 1275.49,-203.359"/>
</g>
<!-- Node28&#45;&gt;Node12 -->
<g id="edge35" class="edge"><title>Node28&#45;&gt;Node12</title>
<path fill="none" stroke="midnightblue" d="M1266.06,-179.758C1263,-179.493 1259.97,-179.24 1257,-179 1022.35,-160.091 744.98,-145.102 607.757,-138.177"/>
<polygon fill="midnightblue" stroke="midnightblue" points="607.884,-134.679 597.721,-137.672 607.533,-141.67 607.884,-134.679"/>
</g>
<!-- Node28&#45;&gt;Node17 -->
<g id="edge36" class="edge"><title>Node28&#45;&gt;Node17</title>
<path fill="none" stroke="midnightblue" d="M1266.05,-179.873C1262.99,-179.576 1259.97,-179.285 1257,-179 1082.4,-162.273 1030.13,-199.268 864,-143 827.631,-130.682 791.014,-104.401 769.974,-87.6373"/>
<polygon fill="midnightblue" stroke="midnightblue" points="771.919,-84.7078 761.956,-81.1043 767.497,-90.1344 771.919,-84.7078"/>
</g>
<!-- Node28&#45;&gt;Node19 -->
<g id="edge50" class="edge"><title>Node28&#45;&gt;Node19</title>
<path fill="none" stroke="midnightblue" d="M1357.61,-179.181C1370.8,-167.069 1390.71,-144.355 1383,-123 1368.31,-82.3174 1331.7,-45.9753 1309.04,-26.3513"/>
<polygon fill="midnightblue" stroke="midnightblue" points="1311.02,-23.4403 1301.12,-19.6746 1306.51,-28.794 1311.02,-23.4403"/>
</g>
<!-- Node29 -->
<g id="node29" class="node"><title>Node29</title>
<g id="a_node29"><a xlink:href="TaskConfig_8h.html" target="_top" xlink:title="QualityControl/TaskConfig.h">
<polygon fill="none" stroke="black" points="873,-123.5 873,-142.5 1013,-142.5 1013,-123.5 873,-123.5"/>
<text text-anchor="middle" x="943" y="-130.5" font-family="Helvetica,sans-Serif" font-size="10.00">QualityControl/TaskConfig.h</text>
</a>
</g>
</g>
<!-- Node28&#45;&gt;Node29 -->
<g id="edge37" class="edge"><title>Node28&#45;&gt;Node29</title>
<path fill="none" stroke="midnightblue" d="M1282.98,-179.444C1210.59,-169.767 1092.89,-154.035 1016.72,-143.853"/>
<polygon fill="midnightblue" stroke="midnightblue" points="1017.09,-140.372 1006.72,-142.516 1016.16,-147.311 1017.09,-140.372"/>
</g>
<!-- Node30 -->
<g id="node30" class="node"><title>Node30</title>
<g id="a_node30"><a xlink:href="ServiceDiscovery_8h_source.html" target="_top" xlink:title="QualityControl/ServiceDiscovery.h">
<polygon fill="none" stroke="black" points="1525.5,-123.5 1525.5,-142.5 1692.5,-142.5 1692.5,-123.5 1525.5,-123.5"/>
<text text-anchor="middle" x="1609" y="-130.5" font-family="Helvetica,sans-Serif" font-size="10.00">QualityControl/ServiceDiscovery.h</text>
</a>
</g>
</g>
<!-- Node28&#45;&gt;Node30 -->
<g id="edge40" class="edge"><title>Node28&#45;&gt;Node30</title>
<path fill="none" stroke="midnightblue" d="M1388.51,-179.444C1434.41,-169.984 1508.38,-154.738 1557.83,-144.547"/>
<polygon fill="midnightblue" stroke="midnightblue" points="1558.59,-147.963 1567.68,-142.516 1557.18,-141.107 1558.59,-147.963"/>
</g>
<!-- Node35 -->
<g id="node35" class="node"><title>Node35</title>
<polygon fill="none" stroke="#bfbfbf" points="1069.5,-123.5 1069.5,-142.5 1138.5,-142.5 1138.5,-123.5 1069.5,-123.5"/>
<text text-anchor="middle" x="1104" y="-130.5" font-family="Helvetica,sans-Serif" font-size="10.00">TObjArray.h</text>
</g>
<!-- Node28&#45;&gt;Node35 -->
<g id="edge47" class="edge"><title>Node28&#45;&gt;Node35</title>
<path fill="none" stroke="midnightblue" d="M1308.5,-179.444C1265.07,-169.794 1194.56,-154.125 1148.73,-143.941"/>
<polygon fill="midnightblue" stroke="midnightblue" points="1149.3,-140.482 1138.78,-141.729 1147.78,-147.315 1149.3,-140.482"/>
</g>
<!-- Node36 -->
<g id="node36" class="node"><title>Node36</title>
<polygon fill="none" stroke="#bfbfbf" points="1156.5,-123.5 1156.5,-142.5 1227.5,-142.5 1227.5,-123.5 1156.5,-123.5"/>
<text text-anchor="middle" x="1192" y="-130.5" font-family="Helvetica,sans-Serif" font-size="10.00">TObjString.h</text>
</g>
<!-- Node28&#45;&gt;Node36 -->
<g id="edge48" class="edge"><title>Node28&#45;&gt;Node36</title>
<path fill="none" stroke="midnightblue" d="M1322.44,-179.444C1296.48,-170.399 1255.33,-156.064 1226.2,-145.916"/>
<polygon fill="midnightblue" stroke="midnightblue" points="1227.04,-142.501 1216.45,-142.516 1224.74,-149.112 1227.04,-142.501"/>
</g>
<!-- Node37 -->
<g id="node37" class="node"><title>Node37</title>
<polygon fill="none" stroke="#bfbfbf" points="1246,-123.5 1246,-142.5 1374,-142.5 1374,-123.5 1246,-123.5"/>
<text text-anchor="middle" x="1310" y="-130.5" font-family="Helvetica,sans-Serif" font-size="10.00">boost/concept_check.hpp</text>
</g>
<!-- Node28&#45;&gt;Node37 -->
<g id="edge49" class="edge"><title>Node28&#45;&gt;Node37</title>
<path fill="none" stroke="midnightblue" d="M1340.89,-179.083C1335.72,-171.534 1328.15,-160.495 1321.81,-151.23"/>
<polygon fill="midnightblue" stroke="midnightblue" points="1324.54,-149.022 1316,-142.751 1318.76,-152.979 1324.54,-149.022"/>
</g>
<!-- Node29&#45;&gt;Node8 -->
<g id="edge39" class="edge"><title>Node29&#45;&gt;Node8</title>
<path fill="none" stroke="midnightblue" d="M936.553,-123.475C930.857,-115.944 922.297,-104.626 914.689,-94.5663"/>
<polygon fill="midnightblue" stroke="midnightblue" points="917.429,-92.3875 908.606,-86.523 911.846,-96.6101 917.429,-92.3875"/>
</g>
<!-- Node29&#45;&gt;Node19 -->
<g id="edge38" class="edge"><title>Node29&#45;&gt;Node19</title>
<path fill="none" stroke="midnightblue" d="M967.4,-123.492C1029.18,-101.95 1191.66,-45.2929 1259.53,-21.626"/>
<polygon fill="midnightblue" stroke="midnightblue" points="1260.92,-24.8488 1269.21,-18.2513 1258.61,-18.2391 1260.92,-24.8488"/>
</g>
<!-- Node30&#45;&gt;Node6 -->
<g id="edge43" class="edge"><title>Node30&#45;&gt;Node6</title>
<path fill="none" stroke="midnightblue" d="M1585.86,-123.398C1562.02,-114.481 1523.8,-100.046 1491,-87 1489.36,-86.3483 1487.68,-85.674 1485.99,-84.989"/>
<polygon fill="midnightblue" stroke="midnightblue" points="1486.9,-81.58 1476.32,-81.0321 1484.25,-88.0586 1486.9,-81.58"/>
</g>
<!-- Node30&#45;&gt;Node19 -->
<g id="edge44" class="edge"><title>Node30&#45;&gt;Node19</title>
<path fill="none" stroke="midnightblue" d="M1692.79,-125.771C1763.01,-117.482 1846,-98.5439 1807,-56 1774.04,-20.0439 1426.87,-12.7185 1320.68,-11.3149"/>
<polygon fill="midnightblue" stroke="midnightblue" points="1320.66,-7.81441 1310.62,-11.1903 1320.57,-14.8139 1320.66,-7.81441"/>
</g>
<!-- Node31 -->
<g id="node31" class="node"><title>Node31</title>
<polygon fill="none" stroke="#bfbfbf" points="1674,-62 1674,-81 1720,-81 1720,-62 1674,-62"/>
<text text-anchor="middle" x="1697" y="-69" font-family="Helvetica,sans-Serif" font-size="10.00">atomic</text>
</g>
<!-- Node30&#45;&gt;Node31 -->
<g id="edge41" class="edge"><title>Node30&#45;&gt;Node31</title>
<path fill="none" stroke="midnightblue" d="M1621.61,-123.475C1635.72,-113.931 1658.83,-98.3073 1675.75,-86.8683"/>
<polygon fill="midnightblue" stroke="midnightblue" points="1678.09,-89.5098 1684.42,-81.0091 1674.17,-83.7109 1678.09,-89.5098"/>
</g>
<!-- Node32 -->
<g id="node32" class="node"><title>Node32</title>
<polygon fill="none" stroke="#bfbfbf" points="1738.5,-62 1738.5,-81 1797.5,-81 1797.5,-62 1738.5,-62"/>
<text text-anchor="middle" x="1768" y="-69" font-family="Helvetica,sans-Serif" font-size="10.00">curl/curl.h</text>
</g>
<!-- Node30&#45;&gt;Node32 -->
<g id="edge42" class="edge"><title>Node30&#45;&gt;Node32</title>
<path fill="none" stroke="midnightblue" d="M1631.78,-123.475C1659.05,-113.269 1704.91,-96.108 1735.8,-84.5492"/>
<polygon fill="midnightblue" stroke="midnightblue" points="1737.12,-87.7919 1745.26,-81.0091 1734.67,-81.2359 1737.12,-87.7919"/>
</g>
<!-- Node33 -->
<g id="node33" class="node"><title>Node33</title>
<polygon fill="none" stroke="#bfbfbf" points="1500,-62 1500,-81 1544,-81 1544,-62 1500,-62"/>
<text text-anchor="middle" x="1522" y="-69" font-family="Helvetica,sans-Serif" font-size="10.00">thread</text>
</g>
<!-- Node30&#45;&gt;Node33 -->
<g id="edge45" class="edge"><title>Node30&#45;&gt;Node33</title>
<path fill="none" stroke="midnightblue" d="M1596.54,-123.475C1582.58,-113.931 1559.74,-98.3073 1543.01,-86.8683"/>
<polygon fill="midnightblue" stroke="midnightblue" points="1544.67,-83.7653 1534.44,-81.0091 1540.72,-89.5433 1544.67,-83.7653"/>
</g>
<!-- Node34 -->
<g id="node34" class="node"><title>Node34</title>
<polygon fill="none" stroke="#bfbfbf" points="1562,-56.5 1562,-86.5 1656,-86.5 1656,-56.5 1562,-56.5"/>
<text text-anchor="start" x="1570" y="-74.5" font-family="Helvetica,sans-Serif" font-size="10.00">boost/asio/ip/host</text>
<text text-anchor="middle" x="1609" y="-63.5" font-family="Helvetica,sans-Serif" font-size="10.00">_name.hpp</text>
</g>
<!-- Node30&#45;&gt;Node34 -->
<g id="edge46" class="edge"><title>Node30&#45;&gt;Node34</title>
<path fill="none" stroke="midnightblue" d="M1609,-123.475C1609,-116.471 1609,-106.192 1609,-96.6956"/>
<polygon fill="midnightblue" stroke="midnightblue" points="1612.5,-96.5229 1609,-86.523 1605.5,-96.523 1612.5,-96.5229"/>
</g>
</g>
</svg>
        <g id="navigator" transform="translate(0 0)" fill="#404254">
                <rect fill="#f2f5e9" fill-opacity="0.5" stroke="#606060" stroke-width=".5" x="0" y="0" width="60" height="60"/>
                <use id="zoomplus" xlink:href="#zoomPlus" x="17" y="9" onmousedown="handleZoom(evt,'in')"/>
                <use id="zoomminus" xlink:href="#zoomMin" x="42" y="9" onmousedown="handleZoom(evt,'out')"/>
                <use id="reset" xlink:href="#resetDef" x="30" y="36" onmousedown="handleReset()"/>
                <g id="arrowUp" xlink:href="#dirArrow" transform="translate(30 24)" onmousedown="handlePan(0,-1)">
                  <use xlink:href="#rim" fill="#404040">
                        <set attributeName="fill" to="#808080" begin="arrowUp.mouseover" end="arrowUp.mouseout"/>
                  </use>
                  <path fill="none" stroke="white" stroke-width="1.5" d="M0,-3.0v7 M-2.5,-0.5L0,-3.0L2.5,-0.5"/>
                </g>
                <g id="arrowRight" xlink:href="#dirArrow" transform="rotate(90) translate(36 -43)" onmousedown="handlePan(1,0)">
                  <use xlink:href="#rim" fill="#404040">
                        <set attributeName="fill" to="#808080" begin="arrowRight.mouseover" end="arrowRight.mouseout"/>
                  </use>
                  <path fill="none" stroke="white" stroke-width="1.5" d="M0,-3.0v7 M-2.5,-0.5L0,-3.0L2.5,-0.5"/>
                </g>
                <g id="arrowDown" xlink:href="#dirArrow" transform="rotate(180) translate(-30 -48)" onmousedown="handlePan(0,1)">
                  <use xlink:href="#rim" fill="#404040">
                        <set attributeName="fill" to="#808080" begin="arrowDown.mouseover" end="arrowDown.mouseout"/>
                  </use>
                  <path fill="none" stroke="white" stroke-width="1.5" d="M0,-3.0v7 M-2.5,-0.5L0,-3.0L2.5,-0.5"/>
                </g>
                <g id="arrowLeft" xlink:href="#dirArrow" transform="rotate(270) translate(-36 17)" onmousedown="handlePan(-1,0)">
                  <use xlink:href="#rim" fill="#404040">
                        <set attributeName="fill" to="#808080" begin="arrowLeft.mouseover" end="arrowLeft.mouseout"/>
                  </use>
                  <path fill="none" stroke="white" stroke-width="1.5" d="M0,-3.0v7 M-2.5,-0.5L0,-3.0L2.5,-0.5"/>
                </g>
        </g>
        <svg viewBox="0 0 15 15" width="100%" height="30px" preserveAspectRatio="xMaxYMin meet">
         <g id="arrow_out" transform="scale(0.3 0.3)">
          <a xlink:href="testChecker_8cxx__incl_org.svg" target="_base">
           <rect id="button" ry="5" rx="5" y="6" x="6" height="38" width="38"
                fill="#f2f5e9" fill-opacity="0.5" stroke="#606060" stroke-width="1.0"/>
           <path id="arrow"
             d="M 11.500037,31.436501 C 11.940474,20.09759 22.043105,11.32322 32.158766,21.979434 L 37.068811,17.246167 C 37.068811,17.246167 37.088388,32 37.088388,32 L 22.160133,31.978069 C 22.160133,31.978069 26.997745,27.140456 26.997745,27.140456 C 18.528582,18.264221 13.291696,25.230495 11.500037,31.436501 z"
             style="fill:#404040;"/>
          </a>
         </g>
        </svg>
</svg>
