<?xml version="1.0" encoding="UTF-8" standalone="no"?>
<!DOCTYPE svg PUBLIC "-//W3C//DTD SVG 1.1//EN"
 "http://www.w3.org/Graphics/SVG/1.1/DTD/svg11.dtd">
<!-- Generated by graphviz version 2.38.0 (20140413.2041)
 -->
<!-- Title: Framework/test/testQcInfoLogger.cxx Pages: 1 -->
<svg width="1388pt" height="397pt"
 viewBox="0.00 0.00 1388.00 397.00" xmlns="http://www.w3.org/2000/svg" xmlns:xlink="http://www.w3.org/1999/xlink">
<g id="graph0" class="graph" transform="scale(1 1) rotate(0) translate(4 393)">
<title>Framework/test/testQcInfoLogger.cxx</title>
<!-- Node1 -->
<g id="node1" class="node"><title>Node1</title>
<polygon fill="#bfbfbf" stroke="black" points="1139.5,-358.5 1139.5,-388.5 1273.5,-388.5 1273.5,-358.5 1139.5,-358.5"/>
<text text-anchor="start" x="1147.5" y="-376.5" font-family="Helvetica,sans-Serif" font-size="10.00">Framework/test/testQcInfo</text>
<text text-anchor="middle" x="1206.5" y="-365.5" font-family="Helvetica,sans-Serif" font-size="10.00">Logger.cxx</text>
</g>
<!-- Node2 -->
<g id="node2" class="node"><title>Node2</title>
<g id="a_node2"><a xlink:href="QcInfoLogger_8h.html" target="_top" xlink:title="../include/QualityControl\l/QcInfoLogger.h">
<polygon fill="none" stroke="black" points="913.5,-291.5 913.5,-321.5 1035.5,-321.5 1035.5,-291.5 913.5,-291.5"/>
<text text-anchor="start" x="921.5" y="-309.5" font-family="Helvetica,sans-Serif" font-size="10.00">../include/QualityControl</text>
<text text-anchor="middle" x="974.5" y="-298.5" font-family="Helvetica,sans-Serif" font-size="10.00">/QcInfoLogger.h</text>
</a>
</g>
</g>
<!-- Node1&#45;&gt;Node2 -->
<g id="edge1" class="edge"><title>Node1&#45;&gt;Node2</title>
<path fill="none" stroke="midnightblue" d="M1156.45,-358.476C1120.74,-348.472 1072.55,-334.971 1034.74,-324.377"/>
<polygon fill="midnightblue" stroke="midnightblue" points="1035.44,-320.939 1024.87,-321.611 1033.55,-327.679 1035.44,-320.939"/>
</g>
<!-- Node5 -->
<g id="node5" class="node"><title>Node5</title>
<polygon fill="none" stroke="#bfbfbf" points="1155,-179.5 1155,-198.5 1204,-198.5 1204,-179.5 1155,-179.5"/>
<text text-anchor="middle" x="1179.5" y="-186.5" font-family="Helvetica,sans-Serif" font-size="10.00">cassert</text>
</g>
<!-- Node1&#45;&gt;Node5 -->
<g id="edge37" class="edge"><title>Node1&#45;&gt;Node5</title>
<path fill="none" stroke="midnightblue" d="M1204.43,-358.483C1199.63,-326.097 1187.79,-246.037 1182.33,-209.159"/>
<polygon fill="midnightblue" stroke="midnightblue" points="1185.73,-208.199 1180.8,-198.819 1178.81,-209.223 1185.73,-208.199"/>
</g>
<!-- Node12 -->
<g id="node12" class="node"><title>Node12</title>
<polygon fill="none" stroke="#bfbfbf" points="1133.5,-62 1133.5,-81 1187.5,-81 1187.5,-62 1133.5,-62"/>
<text text-anchor="middle" x="1160.5" y="-69" font-family="Helvetica,sans-Serif" font-size="10.00">iostream</text>
</g>
<!-- Node1&#45;&gt;Node12 -->
<g id="edge38" class="edge"><title>Node1&#45;&gt;Node12</title>
<path fill="none" stroke="midnightblue" d="M1211.39,-358.278C1218.92,-335.07 1232.5,-287.479 1232.5,-246 1232.5,-246 1232.5,-246 1232.5,-188 1232.5,-147.143 1199.65,-108.786 1178.33,-88.1915"/>
<polygon fill="midnightblue" stroke="midnightblue" points="1180.52,-85.4488 1170.82,-81.1999 1175.75,-90.5739 1180.52,-85.4488"/>
</g>
<!-- Node29 -->
<g id="node29" class="node"><title>Node29</title>
<polygon fill="none" stroke="#bfbfbf" points="1261,-297 1261,-316 1380,-316 1380,-297 1261,-297"/>
<text text-anchor="middle" x="1320.5" y="-304" font-family="Helvetica,sans-Serif" font-size="10.00">boost/test/unit_test.hpp</text>
</g>
<!-- Node1&#45;&gt;Node29 -->
<g id="edge36" class="edge"><title>Node1&#45;&gt;Node29</title>
<path fill="none" stroke="midnightblue" d="M1231.24,-358.396C1250.71,-347.294 1277.67,-331.921 1296.85,-320.983"/>
<polygon fill="midnightblue" stroke="midnightblue" points="1298.63,-324.001 1305.58,-316.007 1295.16,-317.92 1298.63,-324.001"/>
</g>
<!-- Node3 -->
<g id="node3" class="node"><title>Node3</title>
<g id="a_node3"><a xlink:href="TaskInterface_8h.html" target="_top" xlink:title="TaskInterface.h">
<polygon fill="none" stroke="black" points="815,-235.5 815,-254.5 900,-254.5 900,-235.5 815,-235.5"/>
<text text-anchor="middle" x="857.5" y="-242.5" font-family="Helvetica,sans-Serif" font-size="10.00">TaskInterface.h</text>
</a>
</g>
</g>
<!-- Node2&#45;&gt;Node3 -->
<g id="edge2" class="edge"><title>Node2&#45;&gt;Node3</title>
<path fill="none" stroke="midnightblue" d="M946.773,-291.399C927.668,-281.684 902.442,-268.855 883.68,-259.314"/>
<polygon fill="midnightblue" stroke="midnightblue" points="885.025,-256.071 874.525,-254.658 881.852,-262.311 885.025,-256.071"/>
</g>
<!-- Node2&#45;&gt;Node12 -->
<g id="edge35" class="edge"><title>Node2&#45;&gt;Node12</title>
<path fill="none" stroke="midnightblue" d="M998.677,-291.43C1027.93,-273.337 1077.04,-239.385 1107.5,-199 1133.09,-165.066 1148.76,-116.952 1155.91,-90.9309"/>
<polygon fill="midnightblue" stroke="midnightblue" points="1159.3,-91.7981 1158.45,-81.2373 1152.53,-90.0219 1159.3,-91.7981"/>
</g>
<!-- Node28 -->
<g id="node28" class="node"><title>Node28</title>
<polygon fill="none" stroke="#bfbfbf" points="666.5,-235.5 666.5,-254.5 796.5,-254.5 796.5,-235.5 666.5,-235.5"/>
<text text-anchor="middle" x="731.5" y="-242.5" font-family="Helvetica,sans-Serif" font-size="10.00">InfoLogger/InfoLogger.hxx</text>
</g>
<!-- Node2&#45;&gt;Node28 -->
<g id="edge34" class="edge"><title>Node2&#45;&gt;Node28</title>
<path fill="none" stroke="midnightblue" d="M917.22,-291.475C874.108,-280.918 815.857,-266.655 776.162,-256.936"/>
<polygon fill="midnightblue" stroke="midnightblue" points="776.786,-253.485 766.24,-254.506 775.121,-260.284 776.786,-253.485"/>
</g>
<!-- Node4 -->
<g id="node4" class="node"><title>Node4</title>
<polygon fill="none" stroke="#bfbfbf" points="627.5,-62 627.5,-81 679.5,-81 679.5,-62 627.5,-62"/>
<text text-anchor="middle" x="653.5" y="-69" font-family="Helvetica,sans-Serif" font-size="10.00">memory</text>
</g>
<!-- Node3&#45;&gt;Node4 -->
<g id="edge3" class="edge"><title>Node3&#45;&gt;Node4</title>
<path fill="none" stroke="midnightblue" d="M837.705,-235.349C821.948,-227.659 800.177,-215.141 785.5,-199 760.094,-171.059 773.809,-150.093 747.5,-123 730.939,-105.946 707.363,-93.3004 687.965,-84.9286"/>
<polygon fill="midnightblue" stroke="midnightblue" points="689.125,-81.621 678.545,-81.0507 686.46,-88.094 689.125,-81.621"/>
</g>
<!-- Node3&#45;&gt;Node5 -->
<g id="edge4" class="edge"><title>Node3&#45;&gt;Node5</title>
<path fill="none" stroke="midnightblue" d="M900.259,-236.829C964.652,-226.03 1085.28,-205.8 1144.67,-195.842"/>
<polygon fill="midnightblue" stroke="midnightblue" points="1145.39,-199.269 1154.67,-194.164 1144.23,-192.366 1145.39,-199.269"/>
</g>
<!-- Node6 -->
<g id="node6" class="node"><title>Node6</title>
<polygon fill="none" stroke="#bfbfbf" points="795,-179.5 795,-198.5 920,-198.5 920,-179.5 795,-179.5"/>
<text text-anchor="middle" x="857.5" y="-186.5" font-family="Helvetica,sans-Serif" font-size="10.00">Framework/InitContext.h</text>
</g>
<!-- Node3&#45;&gt;Node6 -->
<g id="edge5" class="edge"><title>Node3&#45;&gt;Node6</title>
<path fill="none" stroke="midnightblue" d="M857.5,-235.083C857.5,-228.006 857.5,-217.861 857.5,-208.986"/>
<polygon fill="midnightblue" stroke="midnightblue" points="861,-208.751 857.5,-198.751 854,-208.751 861,-208.751"/>
</g>
<!-- Node7 -->
<g id="node7" class="node"><title>Node7</title>
<polygon fill="none" stroke="#bfbfbf" points="938.5,-179.5 938.5,-198.5 1098.5,-198.5 1098.5,-179.5 938.5,-179.5"/>
<text text-anchor="middle" x="1018.5" y="-186.5" font-family="Helvetica,sans-Serif" font-size="10.00">Framework/ProcessingContext.h</text>
</g>
<!-- Node3&#45;&gt;Node7 -->
<g id="edge6" class="edge"><title>Node3&#45;&gt;Node7</title>
<path fill="none" stroke="midnightblue" d="M883.011,-235.444C910.096,-226.359 953.09,-211.939 983.369,-201.783"/>
<polygon fill="midnightblue" stroke="midnightblue" points="984.74,-205.015 993.108,-198.516 982.514,-198.378 984.74,-205.015"/>
</g>
<!-- Node8 -->
<g id="node8" class="node"><title>Node8</title>
<polygon fill="none" stroke="#bfbfbf" points="0,-56.5 0,-86.5 135,-86.5 135,-56.5 0,-56.5"/>
<text text-anchor="start" x="8" y="-74.5" font-family="Helvetica,sans-Serif" font-size="10.00">Configuration/Configuration</text>
<text text-anchor="middle" x="67.5" y="-63.5" font-family="Helvetica,sans-Serif" font-size="10.00">Interface.h</text>
</g>
<!-- Node3&#45;&gt;Node8 -->
<g id="edge7" class="edge"><title>Node3&#45;&gt;Node8</title>
<path fill="none" stroke="midnightblue" d="M814.974,-236.366C811.772,-235.875 808.588,-235.413 805.5,-235 644.751,-213.487 198.176,-255.649 81.5,-143 69.3639,-131.283 66.1413,-112.281 65.8024,-96.9553"/>
<polygon fill="midnightblue" stroke="midnightblue" points="69.3079,-96.6609 65.9792,-86.6026 62.3089,-96.5413 69.3079,-96.6609"/>
</g>
<!-- Node9 -->
<g id="node9" class="node"><title>Node9</title>
<g id="a_node9"><a xlink:href="Activity_8h.html" target="_top" xlink:title="QualityControl/Activity.h">
<polygon fill="none" stroke="black" points="436,-179.5 436,-198.5 559,-198.5 559,-179.5 436,-179.5"/>
<text text-anchor="middle" x="497.5" y="-186.5" font-family="Helvetica,sans-Serif" font-size="10.00">QualityControl/Activity.h</text>
</a>
</g>
</g>
<!-- Node3&#45;&gt;Node9 -->
<g id="edge8" class="edge"><title>Node3&#45;&gt;Node9</title>
<path fill="none" stroke="midnightblue" d="M814.948,-236.541C811.752,-236.01 808.576,-235.491 805.5,-235 724.745,-222.115 631.841,-208.739 569.367,-199.955"/>
<polygon fill="midnightblue" stroke="midnightblue" points="569.613,-196.455 559.224,-198.532 568.64,-203.387 569.613,-196.455"/>
</g>
<!-- Node10 -->
<g id="node10" class="node"><title>Node10</title>
<g id="a_node10"><a xlink:href="ObjectsManager_8h.html" target="_top" xlink:title="QualityControl/ObjectsManager.h">
<polygon fill="none" stroke="black" points="577,-179.5 577,-198.5 738,-198.5 738,-179.5 577,-179.5"/>
<text text-anchor="middle" x="657.5" y="-186.5" font-family="Helvetica,sans-Serif" font-size="10.00">QualityControl/ObjectsManager.h</text>
</a>
</g>
</g>
<!-- Node3&#45;&gt;Node10 -->
<g id="edge9" class="edge"><title>Node3&#45;&gt;Node10</title>
<path fill="none" stroke="midnightblue" d="M825.809,-235.444C791.432,-226.162 736.423,-211.309 698.711,-201.127"/>
<polygon fill="midnightblue" stroke="midnightblue" points="699.609,-197.744 689.042,-198.516 697.784,-204.502 699.609,-197.744"/>
</g>
<!-- Node11 -->
<g id="node11" class="node"><title>Node11</title>
<g id="a_node11"><a xlink:href="MonitorObject_8h.html" target="_top" xlink:title="QualityControl/MonitorObject.h">
<polygon fill="none" stroke="black" points="858,-123.5 858,-142.5 1009,-142.5 1009,-123.5 858,-123.5"/>
<text text-anchor="middle" x="933.5" y="-130.5" font-family="Helvetica,sans-Serif" font-size="10.00">QualityControl/MonitorObject.h</text>
</a>
</g>
</g>
<!-- Node10&#45;&gt;Node11 -->
<g id="edge10" class="edge"><title>Node10&#45;&gt;Node11</title>
<path fill="none" stroke="midnightblue" d="M701.233,-179.444C749.683,-169.964 827.829,-154.675 879.918,-144.483"/>
<polygon fill="midnightblue" stroke="midnightblue" points="880.83,-147.871 889.972,-142.516 879.486,-141.002 880.83,-147.871"/>
</g>
<!-- Node16 -->
<g id="node16" class="node"><title>Node16</title>
<g id="a_node16"><a xlink:href="Quality_8h.html" target="_top" xlink:title="QualityControl/Quality.h">
<polygon fill="none" stroke="black" points="994,-62 994,-81 1115,-81 1115,-62 994,-62"/>
<text text-anchor="middle" x="1054.5" y="-69" font-family="Helvetica,sans-Serif" font-size="10.00">QualityControl/Quality.h</text>
</a>
</g>
</g>
<!-- Node10&#45;&gt;Node16 -->
<g id="edge19" class="edge"><title>Node10&#45;&gt;Node16</title>
<path fill="none" stroke="midnightblue" d="M738.141,-181.875C837.216,-173.742 995.011,-158.582 1017.5,-143 1035.04,-130.847 1044.88,-107.714 1049.93,-91.2636"/>
<polygon fill="midnightblue" stroke="midnightblue" points="1053.43,-91.7283 1052.69,-81.1591 1046.68,-89.8804 1053.43,-91.7283"/>
</g>
<!-- Node18 -->
<g id="node18" class="node"><title>Node18</title>
<polygon fill="none" stroke="#bfbfbf" points="544,-0.5 544,-19.5 585,-19.5 585,-0.5 544,-0.5"/>
<text text-anchor="middle" x="564.5" y="-7.5" font-family="Helvetica,sans-Serif" font-size="10.00">string</text>
</g>
<!-- Node10&#45;&gt;Node18 -->
<g id="edge33" class="edge"><title>Node10&#45;&gt;Node18</title>
<path fill="none" stroke="midnightblue" d="M694.602,-179.458C713.945,-172.918 735.928,-161.724 747.5,-143 752.173,-135.439 750.64,-131.316 747.5,-123 733.486,-85.8797 721.282,-78.3534 688.5,-56 659.769,-36.4089 621.496,-24.2267 595.109,-17.5567"/>
<polygon fill="midnightblue" stroke="midnightblue" points="595.82,-14.1281 585.279,-15.1875 594.18,-20.9333 595.82,-14.1281"/>
</g>
<!-- Node19 -->
<g id="node19" class="node"><title>Node19</title>
<g id="a_node19"><a xlink:href="TaskConfig_8h.html" target="_top" xlink:title="QualityControl/TaskConfig.h">
<polygon fill="none" stroke="black" points="90.5,-123.5 90.5,-142.5 230.5,-142.5 230.5,-123.5 90.5,-123.5"/>
<text text-anchor="middle" x="160.5" y="-130.5" font-family="Helvetica,sans-Serif" font-size="10.00">QualityControl/TaskConfig.h</text>
</a>
</g>
</g>
<!-- Node10&#45;&gt;Node19 -->
<g id="edge20" class="edge"><title>Node10&#45;&gt;Node19</title>
<path fill="none" stroke="midnightblue" d="M576.961,-179.479C494.994,-170.773 363.974,-156.763 240.705,-143.128"/>
<polygon fill="midnightblue" stroke="midnightblue" points="241.033,-139.643 230.709,-142.021 240.263,-146.601 241.033,-139.643"/>
</g>
<!-- Node20 -->
<g id="node20" class="node"><title>Node20</title>
<g id="a_node20"><a xlink:href="ServiceDiscovery_8h_source.html" target="_top" xlink:title="QualityControl/ServiceDiscovery.h">
<polygon fill="none" stroke="black" points="249,-123.5 249,-142.5 416,-142.5 416,-123.5 249,-123.5"/>
<text text-anchor="middle" x="332.5" y="-130.5" font-family="Helvetica,sans-Serif" font-size="10.00">QualityControl/ServiceDiscovery.h</text>
</a>
</g>
</g>
<!-- Node10&#45;&gt;Node20 -->
<g id="edge23" class="edge"><title>Node10&#45;&gt;Node20</title>
<path fill="none" stroke="midnightblue" d="M606.003,-179.444C548.356,-169.865 455.01,-154.356 393.688,-144.167"/>
<polygon fill="midnightblue" stroke="midnightblue" points="394.195,-140.703 383.756,-142.516 393.047,-147.608 394.195,-140.703"/>
</g>
<!-- Node25 -->
<g id="node25" class="node"><title>Node25</title>
<polygon fill="none" stroke="#bfbfbf" points="434,-123.5 434,-142.5 503,-142.5 503,-123.5 434,-123.5"/>
<text text-anchor="middle" x="468.5" y="-130.5" font-family="Helvetica,sans-Serif" font-size="10.00">TObjArray.h</text>
</g>
<!-- Node10&#45;&gt;Node25 -->
<g id="edge30" class="edge"><title>Node10&#45;&gt;Node25</title>
<path fill="none" stroke="midnightblue" d="M627.552,-179.444C595.342,-170.241 543.966,-155.562 508.358,-145.388"/>
<polygon fill="midnightblue" stroke="midnightblue" points="508.884,-141.898 498.308,-142.516 506.961,-148.629 508.884,-141.898"/>
</g>
<!-- Node26 -->
<g id="node26" class="node"><title>Node26</title>
<polygon fill="none" stroke="#bfbfbf" points="521,-123.5 521,-142.5 592,-142.5 592,-123.5 521,-123.5"/>
<text text-anchor="middle" x="556.5" y="-130.5" font-family="Helvetica,sans-Serif" font-size="10.00">TObjString.h</text>
</g>
<!-- Node10&#45;&gt;Node26 -->
<g id="edge31" class="edge"><title>Node10&#45;&gt;Node26</title>
<path fill="none" stroke="midnightblue" d="M641.273,-179.324C625.149,-170.703 600.2,-157.364 581.536,-147.386"/>
<polygon fill="midnightblue" stroke="midnightblue" points="583.156,-144.283 572.687,-142.655 579.856,-150.456 583.156,-144.283"/>
</g>
<!-- Node27 -->
<g id="node27" class="node"><title>Node27</title>
<polygon fill="none" stroke="#bfbfbf" points="610.5,-123.5 610.5,-142.5 738.5,-142.5 738.5,-123.5 610.5,-123.5"/>
<text text-anchor="middle" x="674.5" y="-130.5" font-family="Helvetica,sans-Serif" font-size="10.00">boost/concept_check.hpp</text>
</g>
<!-- Node10&#45;&gt;Node27 -->
<g id="edge32" class="edge"><title>Node10&#45;&gt;Node27</title>
<path fill="none" stroke="midnightblue" d="M660.307,-179.083C662.585,-171.849 665.871,-161.409 668.708,-152.397"/>
<polygon fill="midnightblue" stroke="midnightblue" points="672.081,-153.341 671.745,-142.751 665.404,-151.239 672.081,-153.341"/>
</g>
<!-- Node11&#45;&gt;Node12 -->
<g id="edge11" class="edge"><title>Node11&#45;&gt;Node12</title>
<path fill="none" stroke="midnightblue" d="M977.363,-123.446C1016.18,-115.443 1074.16,-102.426 1123.5,-87 1125.78,-86.2878 1128.12,-85.5033 1130.46,-84.679"/>
<polygon fill="midnightblue" stroke="midnightblue" points="1131.79,-87.9178 1139.94,-81.1502 1129.35,-81.3572 1131.79,-87.9178"/>
</g>
<!-- Node13 -->
<g id="node13" class="node"><title>Node13</title>
<polygon fill="none" stroke="#bfbfbf" points="902,-62 902,-81 937,-81 937,-62 902,-62"/>
<text text-anchor="middle" x="919.5" y="-69" font-family="Helvetica,sans-Serif" font-size="10.00">map</text>
</g>
<!-- Node11&#45;&gt;Node13 -->
<g id="edge12" class="edge"><title>Node11&#45;&gt;Node13</title>
<path fill="none" stroke="midnightblue" d="M931.494,-123.475C929.498,-114.992 926.372,-101.704 923.811,-90.8222"/>
<polygon fill="midnightblue" stroke="midnightblue" points="927.2,-89.9416 921.502,-81.0091 920.386,-91.5449 927.2,-89.9416"/>
</g>
<!-- Node14 -->
<g id="node14" class="node"><title>Node14</title>
<polygon fill="none" stroke="#bfbfbf" points="943,-0.5 943,-19.5 1002,-19.5 1002,-0.5 943,-0.5"/>
<text text-anchor="middle" x="972.5" y="-7.5" font-family="Helvetica,sans-Serif" font-size="10.00">TObject.h</text>
</g>
<!-- Node11&#45;&gt;Node14 -->
<g id="edge13" class="edge"><title>Node11&#45;&gt;Node14</title>
<path fill="none" stroke="midnightblue" d="M936.305,-123.298C942.629,-103.676 958.112,-55.6382 966.636,-29.1933"/>
<polygon fill="midnightblue" stroke="midnightblue" points="969.984,-30.2147 969.721,-19.6232 963.322,-28.0673 969.984,-30.2147"/>
</g>
<!-- Node15 -->
<g id="node15" class="node"><title>Node15</title>
<polygon fill="none" stroke="#bfbfbf" points="767.5,-62 767.5,-81 883.5,-81 883.5,-62 767.5,-62"/>
<text text-anchor="middle" x="825.5" y="-69" font-family="Helvetica,sans-Serif" font-size="10.00">Common/Exceptions.h</text>
</g>
<!-- Node11&#45;&gt;Node15 -->
<g id="edge14" class="edge"><title>Node11&#45;&gt;Node15</title>
<path fill="none" stroke="midnightblue" d="M918.026,-123.475C900.222,-113.666 870.759,-97.4346 849.868,-85.925"/>
<polygon fill="midnightblue" stroke="midnightblue" points="851.393,-82.769 840.945,-81.0091 848.015,-88.9001 851.393,-82.769"/>
</g>
<!-- Node11&#45;&gt;Node16 -->
<g id="edge15" class="edge"><title>Node11&#45;&gt;Node16</title>
<path fill="none" stroke="midnightblue" d="M950.836,-123.475C971.053,-113.534 1004.69,-96.9947 1028.14,-85.461"/>
<polygon fill="midnightblue" stroke="midnightblue" points="1029.77,-88.5627 1037.2,-81.0091 1026.68,-82.281 1029.77,-88.5627"/>
</g>
<!-- Node16&#45;&gt;Node14 -->
<g id="edge16" class="edge"><title>Node16&#45;&gt;Node14</title>
<path fill="none" stroke="midnightblue" d="M1042.75,-61.9751C1029.72,-52.5199 1008.46,-37.0961 992.741,-25.6871"/>
<polygon fill="midnightblue" stroke="midnightblue" points="994.376,-22.5492 984.227,-19.5091 990.265,-28.2149 994.376,-22.5492"/>
</g>
<!-- Node17 -->
<g id="node17" class="node"><title>Node17</title>
<polygon fill="none" stroke="#bfbfbf" points="1028.5,-0.5 1028.5,-19.5 1080.5,-19.5 1080.5,-0.5 1028.5,-0.5"/>
<text text-anchor="middle" x="1054.5" y="-7.5" font-family="Helvetica,sans-Serif" font-size="10.00">ostream</text>
</g>
<!-- Node16&#45;&gt;Node17 -->
<g id="edge17" class="edge"><title>Node16&#45;&gt;Node17</title>
<path fill="none" stroke="midnightblue" d="M1054.5,-61.9751C1054.5,-53.5803 1054.5,-40.4806 1054.5,-29.6631"/>
<polygon fill="midnightblue" stroke="midnightblue" points="1058,-29.5091 1054.5,-19.5091 1051,-29.5091 1058,-29.5091"/>
</g>
<!-- Node16&#45;&gt;Node18 -->
<g id="edge18" class="edge"><title>Node16&#45;&gt;Node18</title>
<path fill="none" stroke="midnightblue" d="M993.983,-62.2888C978.206,-60.1922 961.222,-57.974 945.5,-56 815.289,-39.6504 659.821,-21.8114 595.107,-14.4605"/>
<polygon fill="midnightblue" stroke="midnightblue" points="595.494,-10.9821 585.163,-13.3325 594.705,-17.9374 595.494,-10.9821"/>
</g>
<!-- Node19&#45;&gt;Node8 -->
<g id="edge22" class="edge"><title>Node19&#45;&gt;Node8</title>
<path fill="none" stroke="midnightblue" d="M147.175,-123.475C134.462,-115.341 114.845,-102.791 98.2584,-92.1788"/>
<polygon fill="midnightblue" stroke="midnightblue" points="99.7281,-88.964 89.4183,-86.523 95.9556,-94.8605 99.7281,-88.964"/>
</g>
<!-- Node19&#45;&gt;Node18 -->
<g id="edge21" class="edge"><title>Node19&#45;&gt;Node18</title>
<path fill="none" stroke="midnightblue" d="M161.981,-123.194C165.22,-106.934 174.566,-72.3683 197.5,-56 251.145,-17.7128 454.855,-11.8946 533.377,-11.0912"/>
<polygon fill="midnightblue" stroke="midnightblue" points="533.626,-14.5894 543.597,-11.0083 533.569,-7.58961 533.626,-14.5894"/>
</g>
<!-- Node20&#45;&gt;Node4 -->
<g id="edge26" class="edge"><title>Node20&#45;&gt;Node4</title>
<path fill="none" stroke="midnightblue" d="M378.491,-123.475C442.926,-111.532 558.737,-90.0651 617.375,-79.1961"/>
<polygon fill="midnightblue" stroke="midnightblue" points="618.1,-82.6213 627.295,-77.3573 616.825,-75.7385 618.1,-82.6213"/>
</g>
<!-- Node20&#45;&gt;Node18 -->
<g id="edge27" class="edge"><title>Node20&#45;&gt;Node18</title>
<path fill="none" stroke="midnightblue" d="M340.342,-123.242C356.547,-105.322 393.544,-65.3643 409.5,-56 448.908,-32.8729 501.001,-20.9504 533.631,-15.3419"/>
<polygon fill="midnightblue" stroke="midnightblue" points="534.593,-18.7315 543.904,-13.6749 533.472,-11.8219 534.593,-18.7315"/>
</g>
<!-- Node21 -->
<g id="node21" class="node"><title>Node21</title>
<polygon fill="none" stroke="#bfbfbf" points="418.5,-62 418.5,-81 464.5,-81 464.5,-62 418.5,-62"/>
<text text-anchor="middle" x="441.5" y="-69" font-family="Helvetica,sans-Serif" font-size="10.00">atomic</text>
</g>
<!-- Node20&#45;&gt;Node21 -->
<g id="edge24" class="edge"><title>Node20&#45;&gt;Node21</title>
<path fill="none" stroke="midnightblue" d="M348.117,-123.475C366.086,-113.666 395.821,-97.4346 416.906,-85.925"/>
<polygon fill="midnightblue" stroke="midnightblue" points="418.811,-88.8726 425.912,-81.0091 415.458,-82.7284 418.811,-88.8726"/>
</g>
<!-- Node22 -->
<g id="node22" class="node"><title>Node22</title>
<polygon fill="none" stroke="#bfbfbf" points="483,-62 483,-81 542,-81 542,-62 483,-62"/>
<text text-anchor="middle" x="512.5" y="-69" font-family="Helvetica,sans-Serif" font-size="10.00">curl/curl.h</text>
</g>
<!-- Node20&#45;&gt;Node22 -->
<g id="edge25" class="edge"><title>Node20&#45;&gt;Node22</title>
<path fill="none" stroke="midnightblue" d="M360.718,-123.422C389.275,-114.641 434.638,-100.417 473.5,-87 475.747,-86.2242 478.061,-85.4083 480.387,-84.5754"/>
<polygon fill="midnightblue" stroke="midnightblue" points="481.683,-87.8281 489.88,-81.115 479.286,-81.2514 481.683,-87.8281"/>
</g>
<!-- Node23 -->
<g id="node23" class="node"><title>Node23</title>
<polygon fill="none" stroke="#bfbfbf" points="206.5,-62 206.5,-81 250.5,-81 250.5,-62 206.5,-62"/>
<text text-anchor="middle" x="228.5" y="-69" font-family="Helvetica,sans-Serif" font-size="10.00">thread</text>
</g>
<!-- Node20&#45;&gt;Node23 -->
<g id="edge28" class="edge"><title>Node20&#45;&gt;Node23</title>
<path fill="none" stroke="midnightblue" d="M317.599,-123.475C300.532,-113.711 272.339,-97.5807 252.238,-86.0808"/>
<polygon fill="midnightblue" stroke="midnightblue" points="253.791,-82.9371 243.373,-81.0091 250.315,-89.013 253.791,-82.9371"/>
</g>
<!-- Node24 -->
<g id="node24" class="node"><title>Node24</title>
<polygon fill="none" stroke="#bfbfbf" points="268.5,-56.5 268.5,-86.5 362.5,-86.5 362.5,-56.5 268.5,-56.5"/>
<text text-anchor="start" x="276.5" y="-74.5" font-family="Helvetica,sans-Serif" font-size="10.00">boost/asio/ip/host</text>
<text text-anchor="middle" x="315.5" y="-63.5" font-family="Helvetica,sans-Serif" font-size="10.00">_name.hpp</text>
</g>
<!-- Node20&#45;&gt;Node24 -->
<g id="edge29" class="edge"><title>Node20&#45;&gt;Node24</title>
<path fill="none" stroke="midnightblue" d="M330.064,-123.475C328.042,-116.396 325.063,-105.97 322.326,-96.3896"/>
<polygon fill="midnightblue" stroke="midnightblue" points="325.619,-95.1767 319.507,-86.523 318.889,-97.0998 325.619,-95.1767"/>
</g>
</g>
</svg>
