<?xml version="1.0" encoding="UTF-8" standalone="no"?>
<!DOCTYPE svg PUBLIC "-//W3C//DTD SVG 1.1//EN"
 "http://www.w3.org/Graphics/SVG/1.1/DTD/svg11.dtd">
<!-- Generated by graphviz version 2.38.0 (20140413.2041)
 -->
<!-- Title: Framework/test/testTaskRunner.cxx Pages: 1 -->
<!--zoomable 397 -->
<svg id="main" version="1.1" xmlns="http://www.w3.org/2000/svg" xmlns:xlink="http://www.w3.org/1999/xlink" xml:space="preserve" onload="init(evt)">
<style type="text/css"><![CDATA[
.edge:hover path { stroke: red; }
.edge:hover polygon { stroke: red; fill: red; }
]]></style>
<script type="text/javascript"><![CDATA[
var edges = document.getElementsByTagName('g');
if (edges && edges.length) {
  for (var i=0;i<edges.length;i++) {
    if (edges[i].id.substr(0,4)=='edge') {
      edges[i].setAttribute('class','edge');
    }
  }
}
]]></script>
        <defs>
                <circle id="rim" cx="0" cy="0" r="7"/>
                <circle id="rim2" cx="0" cy="0" r="3.5"/>
                <g id="zoomPlus">
                        <use xlink:href="#rim" fill="#404040">
                                <set attributeName="fill" to="#808080" begin="zoomplus.mouseover" end="zoomplus.mouseout"/>
                        </use>
                        <path d="M-4,0h8M0,-4v8" fill="none" stroke="white" stroke-width="1.5" pointer-events="none"/>
                </g>
                <g id="zoomMin">
                        <use xlink:href="#rim" fill="#404040">
                                <set attributeName="fill" to="#808080" begin="zoomminus.mouseover" end="zoomminus.mouseout"/>
                        </use>
                        <path d="M-4,0h8" fill="none" stroke="white" stroke-width="1.5" pointer-events="none"/>
                </g>
                <g id="dirArrow">
                        <path fill="none" stroke="white" stroke-width="1.5" d="M0,-3.0v7 M-2.5,-0.5L0,-3.0L2.5,-0.5"/>
                </g>
               <g id="resetDef">
                       <use xlink:href="#rim2" fill="#404040">
                               <set attributeName="fill" to="#808080" begin="reset.mouseover" end="reset.mouseout"/>
                       </use>
               </g>
        </defs>

<script type="text/javascript">
var viewWidth = 2406;
var viewHeight = 397;
var sectionId = 'dynsection-0';
</script>
<script xlink:href="svgpan.js"/>
<svg id="graph" class="graph">
<g id="viewport">
<title>Framework/test/testTaskRunner.cxx</title>
<!-- Node1 -->
<g id="node1" class="node"><title>Node1</title>
<polygon fill="#bfbfbf" stroke="black" points="1848.5,-369.5 1848.5,-388.5 2024.5,-388.5 2024.5,-369.5 1848.5,-369.5"/>
<text text-anchor="middle" x="1936.5" y="-376.5" font-family="Helvetica,sans-Serif" font-size="10.00">Framework/test/testTaskRunner.cxx</text>
</g>
<!-- Node2 -->
<g id="node2" class="node"><title>Node2</title>
<polygon fill="none" stroke="#bfbfbf" points="283,-308 283,-327 402,-327 402,-308 283,-308"/>
<text text-anchor="middle" x="342.5" y="-315" font-family="Helvetica,sans-Serif" font-size="10.00">getTestDataDirectory.h</text>
</g>
<!-- Node1&#45;&gt;Node2 -->
<g id="edge1" class="edge"><title>Node1&#45;&gt;Node2</title>
<path fill="none" stroke="midnightblue" d="M1848.01,-377.49C1566.17,-375.535 691.573,-366.83 410.5,-333 402.663,-332.057 394.393,-330.649 386.423,-329.076"/>
<polygon fill="midnightblue" stroke="midnightblue" points="387.046,-325.631 376.542,-327.018 385.618,-332.484 387.046,-325.631"/>
</g>
<!-- Node3 -->
<g id="node3" class="node"><title>Node3</title>
<g id="a_node3"><a xlink:href="TaskRunnerFactory_8h.html" target="_top" xlink:title="QualityControl/TaskRunner\lFactory.h">
<polygon fill="none" stroke="black" points="420,-302.5 420,-332.5 555,-332.5 555,-302.5 420,-302.5"/>
<text text-anchor="start" x="428" y="-320.5" font-family="Helvetica,sans-Serif" font-size="10.00">QualityControl/TaskRunner</text>
<text text-anchor="middle" x="487.5" y="-309.5" font-family="Helvetica,sans-Serif" font-size="10.00">Factory.h</text>
</a>
</g>
</g>
<!-- Node1&#45;&gt;Node3 -->
<g id="edge2" class="edge"><title>Node1&#45;&gt;Node3</title>
<path fill="none" stroke="midnightblue" d="M1848.21,-374.578C1658.94,-367.214 1200.08,-349.22 815.5,-333 729.954,-329.392 631.869,-325.026 565.414,-322.033"/>
<polygon fill="midnightblue" stroke="midnightblue" points="565.174,-318.519 555.026,-321.565 564.859,-325.512 565.174,-318.519"/>
</g>
<!-- Node6 -->
<g id="node6" class="node"><title>Node6</title>
<g id="a_node6"><a xlink:href="TaskRunner_8h.html" target="_top" xlink:title="QualityControl/TaskRunner.h">
<polygon fill="none" stroke="black" points="825,-308 825,-327 968,-327 968,-308 825,-308"/>
<text text-anchor="middle" x="896.5" y="-315" font-family="Helvetica,sans-Serif" font-size="10.00">QualityControl/TaskRunner.h</text>
</a>
</g>
</g>
<!-- Node1&#45;&gt;Node6 -->
<g id="edge5" class="edge"><title>Node1&#45;&gt;Node6</title>
<path fill="none" stroke="midnightblue" d="M1848.28,-372.953C1649.76,-361.595 1170.3,-334.164 978.15,-323.171"/>
<polygon fill="midnightblue" stroke="midnightblue" points="978.298,-319.674 968.115,-322.597 977.898,-326.663 978.298,-319.674"/>
</g>
<!-- Node25 -->
<g id="node25" class="node"><title>Node25</title>
<polygon fill="none" stroke="#bfbfbf" points="2059.5,-62 2059.5,-81 2113.5,-81 2113.5,-62 2059.5,-62"/>
<text text-anchor="middle" x="2086.5" y="-69" font-family="Helvetica,sans-Serif" font-size="10.00">iostream</text>
</g>
<!-- Node1&#45;&gt;Node25 -->
<g id="edge53" class="edge"><title>Node1&#45;&gt;Node25</title>
<path fill="none" stroke="midnightblue" d="M1936.5,-369.411C1936.5,-348.977 1936.5,-295.863 1936.5,-251.5 1936.5,-251.5 1936.5,-251.5 1936.5,-188 1936.5,-156.985 2018.02,-108.927 2060.87,-85.8109"/>
<polygon fill="midnightblue" stroke="midnightblue" points="2062.69,-88.8037 2069.87,-81.0122 2059.4,-82.626 2062.69,-88.8037"/>
</g>
<!-- Node39 -->
<g id="node39" class="node"><title>Node39</title>
<polygon fill="none" stroke="#bfbfbf" points="1964.5,-308 1964.5,-327 2102.5,-327 2102.5,-308 1964.5,-308"/>
<text text-anchor="middle" x="2033.5" y="-315" font-family="Helvetica,sans-Serif" font-size="10.00">Framework/DataSampling.h</text>
</g>
<!-- Node1&#45;&gt;Node39 -->
<g id="edge50" class="edge"><title>Node1&#45;&gt;Node39</title>
<path fill="none" stroke="midnightblue" d="M1950.4,-369.475C1966.17,-359.799 1992.14,-343.872 2010.85,-332.394"/>
<polygon fill="midnightblue" stroke="midnightblue" points="2012.93,-335.221 2019.63,-327.009 2009.27,-329.254 2012.93,-335.221"/>
</g>
<!-- Node40 -->
<g id="node40" class="node"><title>Node40</title>
<polygon fill="none" stroke="#bfbfbf" points="2120.5,-308 2120.5,-327 2260.5,-327 2260.5,-308 2120.5,-308"/>
<text text-anchor="middle" x="2190.5" y="-315" font-family="Helvetica,sans-Serif" font-size="10.00">Framework/DataSpecUtils.h</text>
</g>
<!-- Node1&#45;&gt;Node40 -->
<g id="edge51" class="edge"><title>Node1&#45;&gt;Node40</title>
<path fill="none" stroke="midnightblue" d="M1972.89,-369.475C2018.07,-358.893 2095.15,-340.836 2144.41,-329.297"/>
<polygon fill="midnightblue" stroke="midnightblue" points="2145.24,-332.698 2154.18,-327.009 2143.64,-325.882 2145.24,-332.698"/>
</g>
<!-- Node41 -->
<g id="node41" class="node"><title>Node41</title>
<polygon fill="none" stroke="#bfbfbf" points="2279,-308 2279,-327 2398,-327 2398,-308 2279,-308"/>
<text text-anchor="middle" x="2338.5" y="-315" font-family="Helvetica,sans-Serif" font-size="10.00">boost/test/unit_test.hpp</text>
</g>
<!-- Node1&#45;&gt;Node41 -->
<g id="edge52" class="edge"><title>Node1&#45;&gt;Node41</title>
<path fill="none" stroke="midnightblue" d="M2011.13,-369.491C2078.78,-361.405 2181.11,-348.239 2269.5,-333 2276.23,-331.84 2283.3,-330.498 2290.24,-329.107"/>
<polygon fill="midnightblue" stroke="midnightblue" points="2291.18,-332.488 2300.27,-327.051 2289.77,-325.63 2291.18,-332.488"/>
</g>
<!-- Node4 -->
<g id="node4" class="node"><title>Node4</title>
<polygon fill="none" stroke="#bfbfbf" points="0,-241 0,-260 153,-260 153,-241 0,-241"/>
<text text-anchor="middle" x="76.5" y="-248" font-family="Helvetica,sans-Serif" font-size="10.00">Framework/CompletionPolicy.h</text>
</g>
<!-- Node3&#45;&gt;Node4 -->
<g id="edge3" class="edge"><title>Node3&#45;&gt;Node4</title>
<path fill="none" stroke="midnightblue" d="M419.922,-303.608C416.739,-303.053 413.586,-302.514 410.5,-302 300.638,-283.69 272.532,-283.26 162.5,-266 153.914,-264.653 144.855,-263.181 135.967,-261.708"/>
<polygon fill="midnightblue" stroke="midnightblue" points="136.478,-258.245 126.038,-260.051 135.325,-265.15 136.478,-258.245"/>
</g>
<!-- Node5 -->
<g id="node5" class="node"><title>Node5</title>
<polygon fill="none" stroke="#bfbfbf" points="171.5,-241 171.5,-260 335.5,-260 335.5,-241 171.5,-241"/>
<text text-anchor="middle" x="253.5" y="-248" font-family="Helvetica,sans-Serif" font-size="10.00">Framework/DataProcessorSpec.h</text>
</g>
<!-- Node3&#45;&gt;Node5 -->
<g id="edge4" class="edge"><title>Node3&#45;&gt;Node5</title>
<path fill="none" stroke="midnightblue" d="M437.014,-302.476C394.249,-290.597 333.733,-273.787 294.063,-262.768"/>
<polygon fill="midnightblue" stroke="midnightblue" points="294.775,-259.333 284.203,-260.029 292.902,-266.077 294.775,-259.333"/>
</g>
<!-- Node6&#45;&gt;Node4 -->
<g id="edge13" class="edge"><title>Node6&#45;&gt;Node4</title>
<path fill="none" stroke="midnightblue" d="M824.911,-313.914C693.358,-308.643 404.458,-294.651 162.5,-266 152.576,-264.825 142.053,-263.292 131.899,-261.664"/>
<polygon fill="midnightblue" stroke="midnightblue" points="132.341,-258.189 121.905,-260.013 131.201,-265.096 132.341,-258.189"/>
</g>
<!-- Node6&#45;&gt;Node5 -->
<g id="edge12" class="edge"><title>Node6&#45;&gt;Node5</title>
<path fill="none" stroke="midnightblue" d="M824.88,-311.483C719.452,-303.751 516.377,-287.531 344.5,-266 334.275,-264.719 323.434,-263.165 312.935,-261.556"/>
<polygon fill="midnightblue" stroke="midnightblue" points="313.425,-258.09 303.005,-260.003 312.344,-265.006 313.425,-258.09"/>
</g>
<!-- Node7 -->
<g id="node7" class="node"><title>Node7</title>
<polygon fill="none" stroke="#bfbfbf" points="1138.5,-235.5 1138.5,-265.5 1240.5,-265.5 1240.5,-235.5 1138.5,-235.5"/>
<text text-anchor="start" x="1146.5" y="-253.5" font-family="Helvetica,sans-Serif" font-size="10.00">boost/accumulators</text>
<text text-anchor="middle" x="1189.5" y="-242.5" font-family="Helvetica,sans-Serif" font-size="10.00">/accumulators.hpp</text>
</g>
<!-- Node6&#45;&gt;Node7 -->
<g id="edge6" class="edge"><title>Node6&#45;&gt;Node7</title>
<path fill="none" stroke="midnightblue" d="M937.392,-307.943C981.968,-298.548 1055.65,-282.819 1128.63,-266.17"/>
<polygon fill="midnightblue" stroke="midnightblue" points="1129.49,-269.565 1138.46,-263.923 1127.93,-262.741 1129.49,-269.565"/>
</g>
<!-- Node8 -->
<g id="node8" class="node"><title>Node8</title>
<polygon fill="none" stroke="#bfbfbf" points="1663.5,-235.5 1663.5,-265.5 1765.5,-265.5 1765.5,-235.5 1663.5,-235.5"/>
<text text-anchor="start" x="1671.5" y="-253.5" font-family="Helvetica,sans-Serif" font-size="10.00">boost/accumulators</text>
<text text-anchor="middle" x="1714.5" y="-242.5" font-family="Helvetica,sans-Serif" font-size="10.00">/statistics.hpp</text>
</g>
<!-- Node6&#45;&gt;Node8 -->
<g id="edge7" class="edge"><title>Node6&#45;&gt;Node8</title>
<path fill="none" stroke="midnightblue" d="M968.258,-315.324C1102.61,-312.319 1401,-301.837 1649.5,-266 1650.76,-265.819 1652.02,-265.627 1653.3,-265.425"/>
<polygon fill="midnightblue" stroke="midnightblue" points="1653.93,-268.867 1663.19,-263.706 1652.73,-261.97 1653.93,-268.867"/>
</g>
<!-- Node9 -->
<g id="node9" class="node"><title>Node9</title>
<polygon fill="none" stroke="#bfbfbf" points="1783.5,-241 1783.5,-260 1863.5,-260 1863.5,-241 1783.5,-241"/>
<text text-anchor="middle" x="1823.5" y="-248" font-family="Helvetica,sans-Serif" font-size="10.00">boost/asio.hpp</text>
</g>
<!-- Node6&#45;&gt;Node9 -->
<g id="edge8" class="edge"><title>Node6&#45;&gt;Node9</title>
<path fill="none" stroke="midnightblue" d="M968.136,-314.505C1148.91,-309.131 1620.14,-292.908 1774.5,-266 1779.27,-265.168 1784.24,-264.031 1789.1,-262.756"/>
<polygon fill="midnightblue" stroke="midnightblue" points="1790.17,-266.093 1798.84,-260.002 1788.26,-259.357 1790.17,-266.093"/>
</g>
<!-- Node10 -->
<g id="node10" class="node"><title>Node10</title>
<polygon fill="none" stroke="#bfbfbf" points="353.5,-235.5 353.5,-265.5 453.5,-265.5 453.5,-235.5 353.5,-235.5"/>
<text text-anchor="start" x="361.5" y="-253.5" font-family="Helvetica,sans-Serif" font-size="10.00">boost/serialization</text>
<text text-anchor="middle" x="403.5" y="-242.5" font-family="Helvetica,sans-Serif" font-size="10.00">/array_wrapper.hpp</text>
</g>
<!-- Node6&#45;&gt;Node10 -->
<g id="edge9" class="edge"><title>Node6&#45;&gt;Node10</title>
<path fill="none" stroke="midnightblue" d="M824.675,-310.915C740.38,-303.738 596.284,-289.533 463.562,-266.051"/>
<polygon fill="midnightblue" stroke="midnightblue" points="464.081,-262.588 453.62,-264.27 462.847,-269.478 464.081,-262.588"/>
</g>
<!-- Node11 -->
<g id="node11" class="node"><title>Node11</title>
<polygon fill="none" stroke="#bfbfbf" points="471.5,-241 471.5,-260 563.5,-260 563.5,-241 471.5,-241"/>
<text text-anchor="middle" x="517.5" y="-248" font-family="Helvetica,sans-Serif" font-size="10.00">Common/Timer.h</text>
</g>
<!-- Node6&#45;&gt;Node11 -->
<g id="edge10" class="edge"><title>Node6&#45;&gt;Node11</title>
<path fill="none" stroke="midnightblue" d="M828.491,-307.978C762.676,-299.242 660.264,-284.357 572.5,-266 567.679,-264.992 562.649,-263.826 557.675,-262.602"/>
<polygon fill="midnightblue" stroke="midnightblue" points="558.18,-259.119 547.626,-260.041 556.452,-265.902 558.18,-259.119"/>
</g>
<!-- Node12 -->
<g id="node12" class="node"><title>Node12</title>
<polygon fill="none" stroke="#bfbfbf" points="581.5,-241 581.5,-260 679.5,-260 679.5,-241 581.5,-241"/>
<text text-anchor="middle" x="630.5" y="-248" font-family="Helvetica,sans-Serif" font-size="10.00">Framework/Task.h</text>
</g>
<!-- Node6&#45;&gt;Node12 -->
<g id="edge11" class="edge"><title>Node6&#45;&gt;Node12</title>
<path fill="none" stroke="midnightblue" d="M861.151,-307.995C819.752,-298.017 749.116,-280.935 688.5,-266 683.892,-264.865 679.081,-263.673 674.285,-262.48"/>
<polygon fill="midnightblue" stroke="midnightblue" points="675.083,-259.072 664.533,-260.049 673.39,-265.864 675.083,-259.072"/>
</g>
<!-- Node13 -->
<g id="node13" class="node"><title>Node13</title>
<polygon fill="none" stroke="#bfbfbf" points="698,-241 698,-260 849,-260 849,-241 698,-241"/>
<text text-anchor="middle" x="773.5" y="-248" font-family="Helvetica,sans-Serif" font-size="10.00">Monitoring/MonitoringFactory.h</text>
</g>
<!-- Node6&#45;&gt;Node13 -->
<g id="edge14" class="edge"><title>Node6&#45;&gt;Node13</title>
<path fill="none" stroke="midnightblue" d="M880.167,-307.869C859.398,-296.893 823.314,-277.824 798.93,-264.938"/>
<polygon fill="midnightblue" stroke="midnightblue" points="800.378,-261.745 789.901,-260.167 797.107,-267.934 800.378,-261.745"/>
</g>
<!-- Node14 -->
<g id="node14" class="node"><title>Node14</title>
<polygon fill="none" stroke="#bfbfbf" points="782,-56.5 782,-86.5 917,-86.5 917,-56.5 782,-56.5"/>
<text text-anchor="start" x="790" y="-74.5" font-family="Helvetica,sans-Serif" font-size="10.00">Configuration/Configuration</text>
<text text-anchor="middle" x="849.5" y="-63.5" font-family="Helvetica,sans-Serif" font-size="10.00">Interface.h</text>
</g>
<!-- Node6&#45;&gt;Node14 -->
<g id="edge15" class="edge"><title>Node6&#45;&gt;Node14</title>
<path fill="none" stroke="midnightblue" d="M894.827,-307.816C888.295,-273.902 864.362,-149.658 854.159,-96.6866"/>
<polygon fill="midnightblue" stroke="midnightblue" points="857.584,-95.9635 852.256,-86.8061 850.71,-97.2876 857.584,-95.9635"/>
</g>
<!-- Node15 -->
<g id="node15" class="node"><title>Node15</title>
<g id="a_node15"><a xlink:href="TaskConfig_8h.html" target="_top" xlink:title="QualityControl/TaskConfig.h">
<polygon fill="none" stroke="black" points="877.5,-123.5 877.5,-142.5 1017.5,-142.5 1017.5,-123.5 877.5,-123.5"/>
<text text-anchor="middle" x="947.5" y="-130.5" font-family="Helvetica,sans-Serif" font-size="10.00">QualityControl/TaskConfig.h</text>
</a>
</g>
</g>
<!-- Node6&#45;&gt;Node15 -->
<g id="edge16" class="edge"><title>Node6&#45;&gt;Node15</title>
<path fill="none" stroke="midnightblue" d="M895.268,-307.998C892.423,-285.73 887.038,-224.302 906.5,-179 911.369,-167.667 920.319,-157.315 928.618,-149.405"/>
<polygon fill="midnightblue" stroke="midnightblue" points="931.092,-151.888 936.22,-142.617 926.43,-146.666 931.092,-151.888"/>
</g>
<!-- Node17 -->
<g id="node17" class="node"><title>Node17</title>
<g id="a_node17"><a xlink:href="TaskInterface_8h.html" target="_top" xlink:title="QualityControl/TaskInterface.h">
<polygon fill="none" stroke="black" points="970.5,-241 970.5,-260 1120.5,-260 1120.5,-241 970.5,-241"/>
<text text-anchor="middle" x="1045.5" y="-248" font-family="Helvetica,sans-Serif" font-size="10.00">QualityControl/TaskInterface.h</text>
</a>
</g>
</g>
<!-- Node6&#45;&gt;Node17 -->
<g id="edge19" class="edge"><title>Node6&#45;&gt;Node17</title>
<path fill="none" stroke="midnightblue" d="M916.286,-307.869C941.89,-296.699 986.71,-277.147 1016.25,-264.26"/>
<polygon fill="midnightblue" stroke="midnightblue" points="1017.87,-267.374 1025.63,-260.167 1015.07,-260.958 1017.87,-267.374"/>
</g>
<!-- Node31 -->
<g id="node31" class="node"><title>Node31</title>
<g id="a_node31"><a xlink:href="ServiceDiscovery_8h_source.html" target="_top" xlink:title="QualityControl/ServiceDiscovery.h">
<polygon fill="none" stroke="black" points="1461,-123.5 1461,-142.5 1628,-142.5 1628,-123.5 1461,-123.5"/>
<text text-anchor="middle" x="1544.5" y="-130.5" font-family="Helvetica,sans-Serif" font-size="10.00">QualityControl/ServiceDiscovery.h</text>
</a>
</g>
</g>
<!-- Node6&#45;&gt;Node31 -->
<g id="edge49" class="edge"><title>Node6&#45;&gt;Node31</title>
<path fill="none" stroke="midnightblue" d="M968.157,-316.135C1133.65,-313.603 1534.57,-297.24 1616.5,-199 1633.31,-178.843 1602.96,-159.136 1576.65,-146.804"/>
<polygon fill="midnightblue" stroke="midnightblue" points="1577.79,-143.481 1567.23,-142.607 1574.94,-149.874 1577.79,-143.481"/>
</g>
<!-- Node15&#45;&gt;Node14 -->
<g id="edge18" class="edge"><title>Node15&#45;&gt;Node14</title>
<path fill="none" stroke="midnightblue" d="M933.459,-123.475C919.938,-115.266 899.007,-102.558 881.427,-91.8845"/>
<polygon fill="midnightblue" stroke="midnightblue" points="882.961,-88.721 872.597,-86.523 879.328,-94.7046 882.961,-88.721"/>
</g>
<!-- Node16 -->
<g id="node16" class="node"><title>Node16</title>
<polygon fill="none" stroke="#bfbfbf" points="1398,-0.5 1398,-19.5 1439,-19.5 1439,-0.5 1398,-0.5"/>
<text text-anchor="middle" x="1418.5" y="-7.5" font-family="Helvetica,sans-Serif" font-size="10.00">string</text>
</g>
<!-- Node15&#45;&gt;Node16 -->
<g id="edge17" class="edge"><title>Node15&#45;&gt;Node16</title>
<path fill="none" stroke="midnightblue" d="M977.659,-123.456C1028.88,-109.026 1136.19,-79.1403 1227.5,-56 1283.95,-41.6941 1350.17,-26.4305 1387.94,-17.8658"/>
<polygon fill="midnightblue" stroke="midnightblue" points="1388.83,-21.2536 1397.81,-15.6341 1387.29,-14.426 1388.83,-21.2536"/>
</g>
<!-- Node17&#45;&gt;Node14 -->
<g id="edge24" class="edge"><title>Node17&#45;&gt;Node14</title>
<path fill="none" stroke="midnightblue" d="M1001.63,-240.997C972.388,-233.647 934.356,-220.688 906.5,-199 873.972,-173.675 859.461,-125.677 853.415,-96.638"/>
<polygon fill="midnightblue" stroke="midnightblue" points="856.798,-95.6939 851.492,-86.5235 849.921,-97.0013 856.798,-95.6939"/>
</g>
<!-- Node18 -->
<g id="node18" class="node"><title>Node18</title>
<polygon fill="none" stroke="#bfbfbf" points="1623.5,-62 1623.5,-81 1675.5,-81 1675.5,-62 1623.5,-62"/>
<text text-anchor="middle" x="1649.5" y="-69" font-family="Helvetica,sans-Serif" font-size="10.00">memory</text>
</g>
<!-- Node17&#45;&gt;Node18 -->
<g id="edge20" class="edge"><title>Node17&#45;&gt;Node18</title>
<path fill="none" stroke="midnightblue" d="M1090.28,-240.94C1102.93,-238.75 1116.72,-236.571 1129.5,-235 1183.35,-228.377 1573.07,-231.529 1616.5,-199 1649.71,-174.124 1652.32,-120.267 1651.09,-91.5063"/>
<polygon fill="midnightblue" stroke="midnightblue" points="1654.57,-90.9476 1650.44,-81.189 1647.58,-91.3903 1654.57,-90.9476"/>
</g>
<!-- Node19 -->
<g id="node19" class="node"><title>Node19</title>
<polygon fill="none" stroke="#bfbfbf" points="916,-179.5 916,-198.5 965,-198.5 965,-179.5 916,-179.5"/>
<text text-anchor="middle" x="940.5" y="-186.5" font-family="Helvetica,sans-Serif" font-size="10.00">cassert</text>
</g>
<!-- Node17&#45;&gt;Node19 -->
<g id="edge21" class="edge"><title>Node17&#45;&gt;Node19</title>
<path fill="none" stroke="midnightblue" d="M1030.46,-240.975C1013.22,-231.211 984.76,-215.081 964.466,-203.581"/>
<polygon fill="midnightblue" stroke="midnightblue" points="965.942,-200.394 955.516,-198.509 962.491,-206.484 965.942,-200.394"/>
</g>
<!-- Node20 -->
<g id="node20" class="node"><title>Node20</title>
<polygon fill="none" stroke="#bfbfbf" points="983,-179.5 983,-198.5 1108,-198.5 1108,-179.5 983,-179.5"/>
<text text-anchor="middle" x="1045.5" y="-186.5" font-family="Helvetica,sans-Serif" font-size="10.00">Framework/InitContext.h</text>
</g>
<!-- Node17&#45;&gt;Node20 -->
<g id="edge22" class="edge"><title>Node17&#45;&gt;Node20</title>
<path fill="none" stroke="midnightblue" d="M1045.5,-240.975C1045.5,-232.58 1045.5,-219.481 1045.5,-208.663"/>
<polygon fill="midnightblue" stroke="midnightblue" points="1049,-208.509 1045.5,-198.509 1042,-208.509 1049,-208.509"/>
</g>
<!-- Node21 -->
<g id="node21" class="node"><title>Node21</title>
<polygon fill="none" stroke="#bfbfbf" points="1126.5,-179.5 1126.5,-198.5 1286.5,-198.5 1286.5,-179.5 1126.5,-179.5"/>
<text text-anchor="middle" x="1206.5" y="-186.5" font-family="Helvetica,sans-Serif" font-size="10.00">Framework/ProcessingContext.h</text>
</g>
<!-- Node17&#45;&gt;Node21 -->
<g id="edge23" class="edge"><title>Node17&#45;&gt;Node21</title>
<path fill="none" stroke="midnightblue" d="M1068.57,-240.975C1096.18,-230.769 1142.62,-213.608 1173.9,-202.049"/>
<polygon fill="midnightblue" stroke="midnightblue" points="1175.31,-205.259 1183.48,-198.509 1172.88,-198.693 1175.31,-205.259"/>
</g>
<!-- Node22 -->
<g id="node22" class="node"><title>Node22</title>
<g id="a_node22"><a xlink:href="Activity_8h.html" target="_top" xlink:title="QualityControl/Activity.h">
<polygon fill="none" stroke="black" points="1305,-179.5 1305,-198.5 1428,-198.5 1428,-179.5 1305,-179.5"/>
<text text-anchor="middle" x="1366.5" y="-186.5" font-family="Helvetica,sans-Serif" font-size="10.00">QualityControl/Activity.h</text>
</a>
</g>
</g>
<!-- Node17&#45;&gt;Node22 -->
<g id="edge25" class="edge"><title>Node17&#45;&gt;Node22</title>
<path fill="none" stroke="midnightblue" d="M1091.49,-240.975C1149.3,-230.261 1248.45,-211.882 1310.58,-200.366"/>
<polygon fill="midnightblue" stroke="midnightblue" points="1311.4,-203.773 1320.59,-198.509 1310.12,-196.89 1311.4,-203.773"/>
</g>
<!-- Node23 -->
<g id="node23" class="node"><title>Node23</title>
<g id="a_node23"><a xlink:href="ObjectsManager_8h.html" target="_top" xlink:title="QualityControl/ObjectsManager.h">
<polygon fill="none" stroke="black" points="1446,-179.5 1446,-198.5 1607,-198.5 1607,-179.5 1446,-179.5"/>
<text text-anchor="middle" x="1526.5" y="-186.5" font-family="Helvetica,sans-Serif" font-size="10.00">QualityControl/ObjectsManager.h</text>
</a>
</g>
</g>
<!-- Node17&#45;&gt;Node23 -->
<g id="edge26" class="edge"><title>Node17&#45;&gt;Node23</title>
<path fill="none" stroke="midnightblue" d="M1092.08,-240.964C1104.24,-238.872 1117.34,-236.737 1129.5,-235 1186.76,-226.82 1337.9,-210.2 1436.3,-199.608"/>
<polygon fill="midnightblue" stroke="midnightblue" points="1436.68,-203.088 1446.25,-198.539 1435.93,-196.128 1436.68,-203.088"/>
</g>
<!-- Node23&#45;&gt;Node15 -->
<g id="edge37" class="edge"><title>Node23&#45;&gt;Node15</title>
<path fill="none" stroke="midnightblue" d="M1445.97,-179.809C1443.11,-179.533 1440.28,-179.263 1437.5,-179 1258.59,-162.1 1211.17,-161.252 1027.71,-142.996"/>
<polygon fill="midnightblue" stroke="midnightblue" points="1028.03,-139.51 1017.73,-141.999 1027.33,-146.476 1028.03,-139.51"/>
</g>
<!-- Node23&#45;&gt;Node16 -->
<g id="edge48" class="edge"><title>Node23&#45;&gt;Node16</title>
<path fill="none" stroke="midnightblue" d="M1488.06,-179.455C1420.55,-163.531 1285.55,-127.261 1261.5,-87 1231.8,-37.2787 1334.1,-19.4313 1387.75,-13.5839"/>
<polygon fill="midnightblue" stroke="midnightblue" points="1388.18,-17.0583 1397.78,-12.5686 1387.48,-10.0939 1388.18,-17.0583"/>
</g>
<!-- Node24 -->
<g id="node24" class="node"><title>Node24</title>
<g id="a_node24"><a xlink:href="MonitorObject_8h.html" target="_top" xlink:title="QualityControl/MonitorObject.h">
<polygon fill="none" stroke="black" points="1757,-123.5 1757,-142.5 1908,-142.5 1908,-123.5 1757,-123.5"/>
<text text-anchor="middle" x="1832.5" y="-130.5" font-family="Helvetica,sans-Serif" font-size="10.00">QualityControl/MonitorObject.h</text>
</a>
</g>
</g>
<!-- Node23&#45;&gt;Node24 -->
<g id="edge27" class="edge"><title>Node23&#45;&gt;Node24</title>
<path fill="none" stroke="midnightblue" d="M1574.99,-179.444C1629.04,-169.905 1716.43,-154.483 1774.17,-144.293"/>
<polygon fill="midnightblue" stroke="midnightblue" points="1775,-147.701 1784.24,-142.516 1773.78,-140.808 1775,-147.701"/>
</g>
<!-- Node29 -->
<g id="node29" class="node"><title>Node29</title>
<g id="a_node29"><a xlink:href="Quality_8h.html" target="_top" xlink:title="QualityControl/Quality.h">
<polygon fill="none" stroke="black" points="1694,-62 1694,-81 1815,-81 1815,-62 1694,-62"/>
<text text-anchor="middle" x="1754.5" y="-69" font-family="Helvetica,sans-Serif" font-size="10.00">QualityControl/Quality.h</text>
</a>
</g>
</g>
<!-- Node23&#45;&gt;Node29 -->
<g id="edge36" class="edge"><title>Node23&#45;&gt;Node29</title>
<path fill="none" stroke="midnightblue" d="M1550.8,-179.407C1573.61,-171.046 1608.49,-157.51 1637.5,-143 1672.17,-125.659 1710.27,-101.717 1733.29,-86.675"/>
<polygon fill="midnightblue" stroke="midnightblue" points="1735.47,-89.4304 1741.89,-81.0053 1731.61,-83.5854 1735.47,-89.4304"/>
</g>
<!-- Node23&#45;&gt;Node31 -->
<g id="edge38" class="edge"><title>Node23&#45;&gt;Node31</title>
<path fill="none" stroke="midnightblue" d="M1529.47,-179.083C1531.88,-171.849 1535.36,-161.409 1538.37,-152.397"/>
<polygon fill="midnightblue" stroke="midnightblue" points="1541.74,-153.345 1541.58,-142.751 1535.1,-151.131 1541.74,-153.345"/>
</g>
<!-- Node36 -->
<g id="node36" class="node"><title>Node36</title>
<polygon fill="none" stroke="#bfbfbf" points="1374,-123.5 1374,-142.5 1443,-142.5 1443,-123.5 1374,-123.5"/>
<text text-anchor="middle" x="1408.5" y="-130.5" font-family="Helvetica,sans-Serif" font-size="10.00">TObjArray.h</text>
</g>
<!-- Node23&#45;&gt;Node36 -->
<g id="edge45" class="edge"><title>Node23&#45;&gt;Node36</title>
<path fill="none" stroke="midnightblue" d="M1507.8,-179.444C1488.56,-170.636 1458.35,-156.812 1436.3,-146.722"/>
<polygon fill="midnightblue" stroke="midnightblue" points="1437.66,-143.495 1427.11,-142.516 1434.75,-149.86 1437.66,-143.495"/>
</g>
<!-- Node37 -->
<g id="node37" class="node"><title>Node37</title>
<polygon fill="none" stroke="#bfbfbf" points="1036,-123.5 1036,-142.5 1107,-142.5 1107,-123.5 1036,-123.5"/>
<text text-anchor="middle" x="1071.5" y="-130.5" font-family="Helvetica,sans-Serif" font-size="10.00">TObjString.h</text>
</g>
<!-- Node23&#45;&gt;Node37 -->
<g id="edge46" class="edge"><title>Node23&#45;&gt;Node37</title>
<path fill="none" stroke="midnightblue" d="M1445.67,-179.515C1342.8,-168.662 1172.67,-150.508 1117.31,-142.912"/>
<polygon fill="midnightblue" stroke="midnightblue" points="1117.71,-139.433 1107.31,-141.458 1116.7,-146.36 1117.71,-139.433"/>
</g>
<!-- Node38 -->
<g id="node38" class="node"><title>Node38</title>
<polygon fill="none" stroke="#bfbfbf" points="1125.5,-123.5 1125.5,-142.5 1253.5,-142.5 1253.5,-123.5 1125.5,-123.5"/>
<text text-anchor="middle" x="1189.5" y="-130.5" font-family="Helvetica,sans-Serif" font-size="10.00">boost/concept_check.hpp</text>
</g>
<!-- Node23&#45;&gt;Node38 -->
<g id="edge47" class="edge"><title>Node23&#45;&gt;Node38</title>
<path fill="none" stroke="midnightblue" d="M1473.1,-179.444C1413.2,-169.846 1316.13,-154.292 1252.55,-144.104"/>
<polygon fill="midnightblue" stroke="midnightblue" points="1253.08,-140.643 1242.65,-142.516 1251.97,-147.555 1253.08,-140.643"/>
</g>
<!-- Node24&#45;&gt;Node25 -->
<g id="edge28" class="edge"><title>Node24&#45;&gt;Node25</title>
<path fill="none" stroke="midnightblue" d="M1887.38,-123.481C1931.87,-115.905 1995.93,-103.476 2050.5,-87 2052.79,-86.3098 2055.13,-85.5329 2057.47,-84.7064"/>
<polygon fill="midnightblue" stroke="midnightblue" points="2058.81,-87.941 2066.92,-81.1255 2056.33,-81.395 2058.81,-87.941"/>
</g>
<!-- Node26 -->
<g id="node26" class="node"><title>Node26</title>
<polygon fill="none" stroke="#bfbfbf" points="2006,-62 2006,-81 2041,-81 2041,-62 2006,-62"/>
<text text-anchor="middle" x="2023.5" y="-69" font-family="Helvetica,sans-Serif" font-size="10.00">map</text>
</g>
<!-- Node24&#45;&gt;Node26 -->
<g id="edge29" class="edge"><title>Node24&#45;&gt;Node26</title>
<path fill="none" stroke="midnightblue" d="M1873.43,-123.469C1907.12,-115.811 1955.79,-103.276 1996.5,-87 1997.54,-86.5852 1998.59,-86.1409 1999.64,-85.6747"/>
<polygon fill="midnightblue" stroke="midnightblue" points="2001.51,-88.654 2008.93,-81.0942 1998.42,-82.375 2001.51,-88.654"/>
</g>
<!-- Node27 -->
<g id="node27" class="node"><title>Node27</title>
<polygon fill="none" stroke="#bfbfbf" points="1806,-0.5 1806,-19.5 1865,-19.5 1865,-0.5 1806,-0.5"/>
<text text-anchor="middle" x="1835.5" y="-7.5" font-family="Helvetica,sans-Serif" font-size="10.00">TObject.h</text>
</g>
<!-- Node24&#45;&gt;Node27 -->
<g id="edge30" class="edge"><title>Node24&#45;&gt;Node27</title>
<path fill="none" stroke="midnightblue" d="M1832.72,-123.298C1833.2,-103.85 1834.37,-56.49 1835.03,-29.9036"/>
<polygon fill="midnightblue" stroke="midnightblue" points="1838.54,-29.7069 1835.29,-19.6232 1831.54,-29.5333 1838.54,-29.7069"/>
</g>
<!-- Node28 -->
<g id="node28" class="node"><title>Node28</title>
<polygon fill="none" stroke="#bfbfbf" points="1871.5,-62 1871.5,-81 1987.5,-81 1987.5,-62 1871.5,-62"/>
<text text-anchor="middle" x="1929.5" y="-69" font-family="Helvetica,sans-Serif" font-size="10.00">Common/Exceptions.h</text>
</g>
<!-- Node24&#45;&gt;Node28 -->
<g id="edge31" class="edge"><title>Node24&#45;&gt;Node28</title>
<path fill="none" stroke="midnightblue" d="M1846.4,-123.475C1862.17,-113.799 1888.14,-97.8721 1906.85,-86.3941"/>
<polygon fill="midnightblue" stroke="midnightblue" points="1908.93,-89.2213 1915.63,-81.0091 1905.27,-83.2544 1908.93,-89.2213"/>
</g>
<!-- Node24&#45;&gt;Node29 -->
<g id="edge32" class="edge"><title>Node24&#45;&gt;Node29</title>
<path fill="none" stroke="midnightblue" d="M1821.32,-123.475C1808.93,-114.02 1788.71,-98.5961 1773.75,-87.1871"/>
<polygon fill="midnightblue" stroke="midnightblue" points="1775.73,-84.2914 1765.65,-81.0091 1771.48,-89.857 1775.73,-84.2914"/>
</g>
<!-- Node29&#45;&gt;Node16 -->
<g id="edge35" class="edge"><title>Node29&#45;&gt;Node16</title>
<path fill="none" stroke="midnightblue" d="M1714.57,-61.9655C1704.75,-59.9396 1694.26,-57.8353 1684.5,-56 1599.59,-40.0294 1498.94,-23.7098 1449.31,-15.8364"/>
<polygon fill="midnightblue" stroke="midnightblue" points="1449.66,-12.3486 1439.24,-14.2432 1448.57,-19.2626 1449.66,-12.3486"/>
</g>
<!-- Node29&#45;&gt;Node27 -->
<g id="edge33" class="edge"><title>Node29&#45;&gt;Node27</title>
<path fill="none" stroke="midnightblue" d="M1766.11,-61.9751C1778.98,-52.5199 1799.97,-37.0961 1815.51,-25.6871"/>
<polygon fill="midnightblue" stroke="midnightblue" points="1817.93,-28.25 1823.92,-19.5091 1813.78,-22.6085 1817.93,-28.25"/>
</g>
<!-- Node30 -->
<g id="node30" class="node"><title>Node30</title>
<polygon fill="none" stroke="#bfbfbf" points="1728.5,-0.5 1728.5,-19.5 1780.5,-19.5 1780.5,-0.5 1728.5,-0.5"/>
<text text-anchor="middle" x="1754.5" y="-7.5" font-family="Helvetica,sans-Serif" font-size="10.00">ostream</text>
</g>
<!-- Node29&#45;&gt;Node30 -->
<g id="edge34" class="edge"><title>Node29&#45;&gt;Node30</title>
<path fill="none" stroke="midnightblue" d="M1754.5,-61.9751C1754.5,-53.5803 1754.5,-40.4806 1754.5,-29.6631"/>
<polygon fill="midnightblue" stroke="midnightblue" points="1758,-29.5091 1754.5,-19.5091 1751,-29.5091 1758,-29.5091"/>
</g>
<!-- Node31&#45;&gt;Node16 -->
<g id="edge42" class="edge"><title>Node31&#45;&gt;Node16</title>
<path fill="none" stroke="midnightblue" d="M1553.51,-123.309C1567.86,-108.399 1592.72,-77.4806 1576.5,-56 1561.2,-35.7405 1490.79,-21.8983 1449.3,-15.3442"/>
<polygon fill="midnightblue" stroke="midnightblue" points="1449.59,-11.8484 1439.18,-13.7989 1448.54,-18.7682 1449.59,-11.8484"/>
</g>
<!-- Node31&#45;&gt;Node18 -->
<g id="edge41" class="edge"><title>Node31&#45;&gt;Node18</title>
<path fill="none" stroke="midnightblue" d="M1559.54,-123.475C1576.78,-113.711 1605.24,-97.5807 1625.53,-86.0808"/>
<polygon fill="midnightblue" stroke="midnightblue" points="1627.51,-88.9843 1634.48,-81.0091 1624.06,-82.8942 1627.51,-88.9843"/>
</g>
<!-- Node32 -->
<g id="node32" class="node"><title>Node32</title>
<polygon fill="none" stroke="#bfbfbf" points="1521.5,-62 1521.5,-81 1567.5,-81 1567.5,-62 1521.5,-62"/>
<text text-anchor="middle" x="1544.5" y="-69" font-family="Helvetica,sans-Serif" font-size="10.00">atomic</text>
</g>
<!-- Node31&#45;&gt;Node32 -->
<g id="edge39" class="edge"><title>Node31&#45;&gt;Node32</title>
<path fill="none" stroke="midnightblue" d="M1544.5,-123.475C1544.5,-115.08 1544.5,-101.981 1544.5,-91.1631"/>
<polygon fill="midnightblue" stroke="midnightblue" points="1548,-91.0091 1544.5,-81.0091 1541,-91.0091 1548,-91.0091"/>
</g>
<!-- Node33 -->
<g id="node33" class="node"><title>Node33</title>
<polygon fill="none" stroke="#bfbfbf" points="1270,-62 1270,-81 1329,-81 1329,-62 1270,-62"/>
<text text-anchor="middle" x="1299.5" y="-69" font-family="Helvetica,sans-Serif" font-size="10.00">curl/curl.h</text>
</g>
<!-- Node31&#45;&gt;Node33 -->
<g id="edge40" class="edge"><title>Node31&#45;&gt;Node33</title>
<path fill="none" stroke="midnightblue" d="M1496.15,-123.435C1454.09,-115.513 1391.71,-102.62 1338.5,-87 1335.86,-86.2256 1333.15,-85.3609 1330.43,-84.45"/>
<polygon fill="midnightblue" stroke="midnightblue" points="1331.37,-81.068 1320.77,-81.0266 1329.03,-87.666 1331.37,-81.068"/>
</g>
<!-- Node34 -->
<g id="node34" class="node"><title>Node34</title>
<polygon fill="none" stroke="#bfbfbf" points="1347.5,-62 1347.5,-81 1391.5,-81 1391.5,-62 1347.5,-62"/>
<text text-anchor="middle" x="1369.5" y="-69" font-family="Helvetica,sans-Serif" font-size="10.00">thread</text>
</g>
<!-- Node31&#45;&gt;Node34 -->
<g id="edge43" class="edge"><title>Node31&#45;&gt;Node34</title>
<path fill="none" stroke="midnightblue" d="M1512.9,-123.453C1483.44,-115.173 1438.47,-101.736 1400.5,-87 1399.08,-86.4491 1397.63,-85.8633 1396.18,-85.255"/>
<polygon fill="midnightblue" stroke="midnightblue" points="1397.26,-81.9046 1386.7,-81.047 1394.42,-88.3028 1397.26,-81.9046"/>
</g>
<!-- Node35 -->
<g id="node35" class="node"><title>Node35</title>
<polygon fill="none" stroke="#bfbfbf" points="1409.5,-56.5 1409.5,-86.5 1503.5,-86.5 1503.5,-56.5 1409.5,-56.5"/>
<text text-anchor="start" x="1417.5" y="-74.5" font-family="Helvetica,sans-Serif" font-size="10.00">boost/asio/ip/host</text>
<text text-anchor="middle" x="1456.5" y="-63.5" font-family="Helvetica,sans-Serif" font-size="10.00">_name.hpp</text>
</g>
<!-- Node31&#45;&gt;Node35 -->
<g id="edge44" class="edge"><title>Node31&#45;&gt;Node35</title>
<path fill="none" stroke="midnightblue" d="M1531.89,-123.475C1519.86,-115.341 1501.3,-102.791 1485.6,-92.1788"/>
<polygon fill="midnightblue" stroke="midnightblue" points="1487.48,-89.2248 1477.24,-86.523 1483.56,-95.0237 1487.48,-89.2248"/>
</g>
</g>
</svg>
        <g id="navigator" transform="translate(0 0)" fill="#404254">
                <rect fill="#f2f5e9" fill-opacity="0.5" stroke="#606060" stroke-width=".5" x="0" y="0" width="60" height="60"/>
                <use id="zoomplus" xlink:href="#zoomPlus" x="17" y="9" onmousedown="handleZoom(evt,'in')"/>
                <use id="zoomminus" xlink:href="#zoomMin" x="42" y="9" onmousedown="handleZoom(evt,'out')"/>
                <use id="reset" xlink:href="#resetDef" x="30" y="36" onmousedown="handleReset()"/>
                <g id="arrowUp" xlink:href="#dirArrow" transform="translate(30 24)" onmousedown="handlePan(0,-1)">
                  <use xlink:href="#rim" fill="#404040">
                        <set attributeName="fill" to="#808080" begin="arrowUp.mouseover" end="arrowUp.mouseout"/>
                  </use>
                  <path fill="none" stroke="white" stroke-width="1.5" d="M0,-3.0v7 M-2.5,-0.5L0,-3.0L2.5,-0.5"/>
                </g>
                <g id="arrowRight" xlink:href="#dirArrow" transform="rotate(90) translate(36 -43)" onmousedown="handlePan(1,0)">
                  <use xlink:href="#rim" fill="#404040">
                        <set attributeName="fill" to="#808080" begin="arrowRight.mouseover" end="arrowRight.mouseout"/>
                  </use>
                  <path fill="none" stroke="white" stroke-width="1.5" d="M0,-3.0v7 M-2.5,-0.5L0,-3.0L2.5,-0.5"/>
                </g>
                <g id="arrowDown" xlink:href="#dirArrow" transform="rotate(180) translate(-30 -48)" onmousedown="handlePan(0,1)">
                  <use xlink:href="#rim" fill="#404040">
                        <set attributeName="fill" to="#808080" begin="arrowDown.mouseover" end="arrowDown.mouseout"/>
                  </use>
                  <path fill="none" stroke="white" stroke-width="1.5" d="M0,-3.0v7 M-2.5,-0.5L0,-3.0L2.5,-0.5"/>
                </g>
                <g id="arrowLeft" xlink:href="#dirArrow" transform="rotate(270) translate(-36 17)" onmousedown="handlePan(-1,0)">
                  <use xlink:href="#rim" fill="#404040">
                        <set attributeName="fill" to="#808080" begin="arrowLeft.mouseover" end="arrowLeft.mouseout"/>
                  </use>
                  <path fill="none" stroke="white" stroke-width="1.5" d="M0,-3.0v7 M-2.5,-0.5L0,-3.0L2.5,-0.5"/>
                </g>
        </g>
        <svg viewBox="0 0 15 15" width="100%" height="30px" preserveAspectRatio="xMaxYMin meet">
         <g id="arrow_out" transform="scale(0.3 0.3)">
          <a xlink:href="testTaskRunner_8cxx__incl_org.svg" target="_base">
           <rect id="button" ry="5" rx="5" y="6" x="6" height="38" width="38"
                fill="#f2f5e9" fill-opacity="0.5" stroke="#606060" stroke-width="1.0"/>
           <path id="arrow"
             d="M 11.500037,31.436501 C 11.940474,20.09759 22.043105,11.32322 32.158766,21.979434 L 37.068811,17.246167 C 37.068811,17.246167 37.088388,32 37.088388,32 L 22.160133,31.978069 C 22.160133,31.978069 26.997745,27.140456 26.997745,27.140456 C 18.528582,18.264221 13.291696,25.230495 11.500037,31.436501 z"
             style="fill:#404040;"/>
          </a>
         </g>
        </svg>
</svg>
