<?xml version="1.0" encoding="UTF-8" standalone="no"?>
<!DOCTYPE svg PUBLIC "-//W3C//DTD SVG 1.1//EN"
 "http://www.w3.org/Graphics/SVG/1.1/DTD/svg11.dtd">
<!-- Generated by graphviz version 2.38.0 (20140413.2041)
 -->
<!-- Title: Modules/Daq/test/testQcDaq.cxx Pages: 1 -->
<svg width="1452pt" height="431pt"
 viewBox="0.00 0.00 1451.50 431.00" xmlns="http://www.w3.org/2000/svg" xmlns:xlink="http://www.w3.org/1999/xlink">
<g id="graph0" class="graph" transform="scale(1 1) rotate(0) translate(4 427)">
<title>Modules/Daq/test/testQcDaq.cxx</title>
<!-- Node1 -->
<g id="node1" class="node"><title>Node1</title>
<polygon fill="#bfbfbf" stroke="black" points="1079,-403.5 1079,-422.5 1242,-422.5 1242,-403.5 1079,-403.5"/>
<text text-anchor="middle" x="1160.5" y="-410.5" font-family="Helvetica,sans-Serif" font-size="10.00">Modules/Daq/test/testQcDaq.cxx</text>
</g>
<!-- Node2 -->
<g id="node2" class="node"><title>Node2</title>
<g id="a_node2"><a xlink:href="DaqTask_8h.html" target="_top" xlink:title="Daq/DaqTask.h">
<polygon fill="none" stroke="black" points="186.5,-347.5 186.5,-366.5 272.5,-366.5 272.5,-347.5 186.5,-347.5"/>
<text text-anchor="middle" x="229.5" y="-354.5" font-family="Helvetica,sans-Serif" font-size="10.00">Daq/DaqTask.h</text>
</a>
</g>
</g>
<!-- Node1&#45;&gt;Node2 -->
<g id="edge1" class="edge"><title>Node1&#45;&gt;Node2</title>
<path fill="none" stroke="midnightblue" d="M1078.7,-407.255C891.968,-396.425 438.499,-370.122 282.926,-361.099"/>
<polygon fill="midnightblue" stroke="midnightblue" points="282.867,-357.59 272.681,-360.505 282.461,-364.578 282.867,-357.59"/>
</g>
<!-- Node30 -->
<g id="node30" class="node"><title>Node30</title>
<g id="a_node30"><a xlink:href="TaskFactory_8h.html" target="_top" xlink:title="QualityControl/TaskFactory.h">
<polygon fill="none" stroke="black" points="987,-347.5 987,-366.5 1132,-366.5 1132,-347.5 987,-347.5"/>
<text text-anchor="middle" x="1059.5" y="-354.5" font-family="Helvetica,sans-Serif" font-size="10.00">QualityControl/TaskFactory.h</text>
</a>
</g>
</g>
<!-- Node1&#45;&gt;Node30 -->
<g id="edge36" class="edge"><title>Node1&#45;&gt;Node30</title>
<path fill="none" stroke="midnightblue" d="M1144.27,-403.324C1128.15,-394.703 1103.2,-381.364 1084.54,-371.386"/>
<polygon fill="midnightblue" stroke="midnightblue" points="1086.16,-368.283 1075.69,-366.655 1082.86,-374.456 1086.16,-368.283"/>
</g>
<!-- Node33 -->
<g id="node33" class="node"><title>Node33</title>
<polygon fill="none" stroke="#bfbfbf" points="1378,-291.5 1378,-310.5 1443,-310.5 1443,-291.5 1378,-291.5"/>
<text text-anchor="middle" x="1410.5" y="-298.5" font-family="Helvetica,sans-Serif" font-size="10.00">TSystem.h</text>
</g>
<!-- Node1&#45;&gt;Node33 -->
<g id="edge48" class="edge"><title>Node1&#45;&gt;Node33</title>
<path fill="none" stroke="midnightblue" d="M1160.35,-403.374C1160.61,-389.349 1163.3,-361.694 1179.5,-347 1240.85,-291.335 1282.22,-325.526 1368.01,-311.093"/>
<polygon fill="midnightblue" stroke="midnightblue" points="1368.66,-314.532 1377.84,-309.257 1367.37,-307.651 1368.66,-314.532"/>
</g>
<!-- Node36 -->
<g id="node36" class="node"><title>Node36</title>
<polygon fill="none" stroke="#bfbfbf" points="1188.5,-347.5 1188.5,-366.5 1232.5,-366.5 1232.5,-347.5 1188.5,-347.5"/>
<text text-anchor="middle" x="1210.5" y="-354.5" font-family="Helvetica,sans-Serif" font-size="10.00">TH1.h</text>
</g>
<!-- Node1&#45;&gt;Node36 -->
<g id="edge49" class="edge"><title>Node1&#45;&gt;Node36</title>
<path fill="none" stroke="midnightblue" d="M1168.76,-403.083C1175.96,-395.298 1186.61,-383.801 1195.35,-374.367"/>
<polygon fill="midnightblue" stroke="midnightblue" points="1198.17,-376.467 1202.4,-366.751 1193.03,-371.711 1198.17,-376.467"/>
</g>
<!-- Node37 -->
<g id="node37" class="node"><title>Node37</title>
<polygon fill="none" stroke="#bfbfbf" points="1251,-347.5 1251,-366.5 1370,-366.5 1370,-347.5 1251,-347.5"/>
<text text-anchor="middle" x="1310.5" y="-354.5" font-family="Helvetica,sans-Serif" font-size="10.00">boost/test/unit_test.hpp</text>
</g>
<!-- Node1&#45;&gt;Node37 -->
<g id="edge50" class="edge"><title>Node1&#45;&gt;Node37</title>
<path fill="none" stroke="midnightblue" d="M1184.27,-403.444C1209.39,-394.399 1249.21,-380.064 1277.4,-369.916"/>
<polygon fill="midnightblue" stroke="midnightblue" points="1278.62,-373.197 1286.84,-366.516 1276.25,-366.611 1278.62,-373.197"/>
</g>
<!-- Node3 -->
<g id="node3" class="node"><title>Node3</title>
<g id="a_node3"><a xlink:href="TaskInterface_8h.html" target="_top" xlink:title="QualityControl/TaskInterface.h">
<polygon fill="none" stroke="black" points="712.5,-235.5 712.5,-254.5 862.5,-254.5 862.5,-235.5 712.5,-235.5"/>
<text text-anchor="middle" x="787.5" y="-242.5" font-family="Helvetica,sans-Serif" font-size="10.00">QualityControl/TaskInterface.h</text>
</a>
</g>
</g>
<!-- Node2&#45;&gt;Node3 -->
<g id="edge2" class="edge"><title>Node2&#45;&gt;Node3</title>
<path fill="none" stroke="midnightblue" d="M272.821,-347.46C373.76,-327.562 624.353,-278.162 734.327,-256.482"/>
<polygon fill="midnightblue" stroke="midnightblue" points="735.072,-259.903 744.207,-254.535 733.718,-253.035 735.072,-259.903"/>
</g>
<!-- Node28 -->
<g id="node28" class="node"><title>Node28</title>
<polygon fill="none" stroke="#bfbfbf" points="91,-291.5 91,-310.5 156,-310.5 156,-291.5 91,-291.5"/>
<text text-anchor="middle" x="123.5" y="-298.5" font-family="Helvetica,sans-Serif" font-size="10.00">TCanvas.h</text>
</g>
<!-- Node2&#45;&gt;Node28 -->
<g id="edge34" class="edge"><title>Node2&#45;&gt;Node28</title>
<path fill="none" stroke="midnightblue" d="M212.469,-347.324C195.47,-338.664 169.124,-325.242 149.507,-315.249"/>
<polygon fill="midnightblue" stroke="midnightblue" points="150.988,-312.075 140.488,-310.655 147.81,-318.312 150.988,-312.075"/>
</g>
<!-- Node29 -->
<g id="node29" class="node"><title>Node29</title>
<polygon fill="none" stroke="#bfbfbf" points="0,-291.5 0,-310.5 73,-310.5 73,-291.5 0,-291.5"/>
<text text-anchor="middle" x="36.5" y="-298.5" font-family="Helvetica,sans-Serif" font-size="10.00">TPaveText.h</text>
</g>
<!-- Node2&#45;&gt;Node29 -->
<g id="edge35" class="edge"><title>Node2&#45;&gt;Node29</title>
<path fill="none" stroke="midnightblue" d="M198.919,-347.444C165.885,-338.201 113.112,-323.436 76.7341,-313.257"/>
<polygon fill="midnightblue" stroke="midnightblue" points="77.5116,-309.84 66.9383,-310.516 75.6254,-316.582 77.5116,-309.84"/>
</g>
<!-- Node4 -->
<g id="node4" class="node"><title>Node4</title>
<polygon fill="none" stroke="#bfbfbf" points="196.5,-62 196.5,-81 248.5,-81 248.5,-62 196.5,-62"/>
<text text-anchor="middle" x="222.5" y="-69" font-family="Helvetica,sans-Serif" font-size="10.00">memory</text>
</g>
<!-- Node3&#45;&gt;Node4 -->
<g id="edge3" class="edge"><title>Node3&#45;&gt;Node4</title>
<path fill="none" stroke="midnightblue" d="M712.281,-240.167C578.602,-231.775 307.471,-207.126 241.5,-143 227.749,-129.633 223.615,-107.445 222.534,-91.5291"/>
<polygon fill="midnightblue" stroke="midnightblue" points="226.023,-91.1422 222.192,-81.2642 219.027,-91.3751 226.023,-91.1422"/>
</g>
<!-- Node5 -->
<g id="node5" class="node"><title>Node5</title>
<polygon fill="none" stroke="#bfbfbf" points="1027,-179.5 1027,-198.5 1076,-198.5 1076,-179.5 1027,-179.5"/>
<text text-anchor="middle" x="1051.5" y="-186.5" font-family="Helvetica,sans-Serif" font-size="10.00">cassert</text>
</g>
<!-- Node3&#45;&gt;Node5 -->
<g id="edge4" class="edge"><title>Node3&#45;&gt;Node5</title>
<path fill="none" stroke="midnightblue" d="M836.842,-235.478C881.566,-227.508 949.494,-214.797 1016.77,-199.287"/>
<polygon fill="midnightblue" stroke="midnightblue" points="1017.74,-202.655 1026.68,-196.979 1016.15,-195.837 1017.74,-202.655"/>
</g>
<!-- Node6 -->
<g id="node6" class="node"><title>Node6</title>
<polygon fill="none" stroke="#bfbfbf" points="1094,-179.5 1094,-198.5 1219,-198.5 1219,-179.5 1094,-179.5"/>
<text text-anchor="middle" x="1156.5" y="-186.5" font-family="Helvetica,sans-Serif" font-size="10.00">Framework/InitContext.h</text>
</g>
<!-- Node3&#45;&gt;Node6 -->
<g id="edge5" class="edge"><title>Node3&#45;&gt;Node6</title>
<path fill="none" stroke="midnightblue" d="M845.969,-235.444C911.825,-225.806 1018.72,-210.163 1088.32,-199.978"/>
<polygon fill="midnightblue" stroke="midnightblue" points="1088.92,-203.428 1098.3,-198.516 1087.9,-196.501 1088.92,-203.428"/>
</g>
<!-- Node7 -->
<g id="node7" class="node"><title>Node7</title>
<polygon fill="none" stroke="#bfbfbf" points="528.5,-179.5 528.5,-198.5 688.5,-198.5 688.5,-179.5 528.5,-179.5"/>
<text text-anchor="middle" x="608.5" y="-186.5" font-family="Helvetica,sans-Serif" font-size="10.00">Framework/ProcessingContext.h</text>
</g>
<!-- Node3&#45;&gt;Node7 -->
<g id="edge6" class="edge"><title>Node3&#45;&gt;Node7</title>
<path fill="none" stroke="midnightblue" d="M759.137,-235.444C728.762,-226.28 680.39,-211.688 646.684,-201.519"/>
<polygon fill="midnightblue" stroke="midnightblue" points="647.315,-198.054 636.73,-198.516 645.293,-204.756 647.315,-198.054"/>
</g>
<!-- Node8 -->
<g id="node8" class="node"><title>Node8</title>
<polygon fill="none" stroke="#bfbfbf" points="326,-56.5 326,-86.5 461,-86.5 461,-56.5 326,-56.5"/>
<text text-anchor="start" x="334" y="-74.5" font-family="Helvetica,sans-Serif" font-size="10.00">Configuration/Configuration</text>
<text text-anchor="middle" x="393.5" y="-63.5" font-family="Helvetica,sans-Serif" font-size="10.00">Interface.h</text>
</g>
<!-- Node3&#45;&gt;Node8 -->
<g id="edge7" class="edge"><title>Node3&#45;&gt;Node8</title>
<path fill="none" stroke="midnightblue" d="M712.368,-240.062C657.307,-235.13 581.646,-224.022 519.5,-199 478.561,-182.517 468.057,-174.843 437.5,-143 424.061,-128.995 412.595,-110.24 404.741,-95.5954"/>
<polygon fill="midnightblue" stroke="midnightblue" points="407.82,-93.9297 400.116,-86.6563 401.602,-97.1463 407.82,-93.9297"/>
</g>
<!-- Node9 -->
<g id="node9" class="node"><title>Node9</title>
<g id="a_node9"><a xlink:href="Activity_8h.html" target="_top" xlink:title="QualityControl/Activity.h">
<polygon fill="none" stroke="black" points="886,-179.5 886,-198.5 1009,-198.5 1009,-179.5 886,-179.5"/>
<text text-anchor="middle" x="947.5" y="-186.5" font-family="Helvetica,sans-Serif" font-size="10.00">QualityControl/Activity.h</text>
</a>
</g>
</g>
<!-- Node3&#45;&gt;Node9 -->
<g id="edge8" class="edge"><title>Node3&#45;&gt;Node9</title>
<path fill="none" stroke="midnightblue" d="M812.852,-235.444C839.769,-226.359 882.496,-211.939 912.587,-201.783"/>
<polygon fill="midnightblue" stroke="midnightblue" points="913.91,-205.031 922.266,-198.516 911.672,-198.398 913.91,-205.031"/>
</g>
<!-- Node10 -->
<g id="node10" class="node"><title>Node10</title>
<g id="a_node10"><a xlink:href="ObjectsManager_8h.html" target="_top" xlink:title="QualityControl/ObjectsManager.h">
<polygon fill="none" stroke="black" points="707,-179.5 707,-198.5 868,-198.5 868,-179.5 707,-179.5"/>
<text text-anchor="middle" x="787.5" y="-186.5" font-family="Helvetica,sans-Serif" font-size="10.00">QualityControl/ObjectsManager.h</text>
</a>
</g>
</g>
<!-- Node3&#45;&gt;Node10 -->
<g id="edge9" class="edge"><title>Node3&#45;&gt;Node10</title>
<path fill="none" stroke="midnightblue" d="M787.5,-235.083C787.5,-228.006 787.5,-217.861 787.5,-208.986"/>
<polygon fill="midnightblue" stroke="midnightblue" points="791,-208.751 787.5,-198.751 784,-208.751 791,-208.751"/>
</g>
<!-- Node11 -->
<g id="node11" class="node"><title>Node11</title>
<g id="a_node11"><a xlink:href="MonitorObject_8h.html" target="_top" xlink:title="QualityControl/MonitorObject.h">
<polygon fill="none" stroke="black" points="1030,-123.5 1030,-142.5 1181,-142.5 1181,-123.5 1030,-123.5"/>
<text text-anchor="middle" x="1105.5" y="-130.5" font-family="Helvetica,sans-Serif" font-size="10.00">QualityControl/MonitorObject.h</text>
</a>
</g>
</g>
<!-- Node10&#45;&gt;Node11 -->
<g id="edge10" class="edge"><title>Node10&#45;&gt;Node11</title>
<path fill="none" stroke="midnightblue" d="M837.888,-179.444C894.176,-169.885 985.252,-154.419 1045.26,-144.23"/>
<polygon fill="midnightblue" stroke="midnightblue" points="1046.07,-147.641 1055.35,-142.516 1044.9,-140.74 1046.07,-147.641"/>
</g>
<!-- Node16 -->
<g id="node16" class="node"><title>Node16</title>
<g id="a_node16"><a xlink:href="Quality_8h.html" target="_top" xlink:title="QualityControl/Quality.h">
<polygon fill="none" stroke="black" points="1122,-62 1122,-81 1243,-81 1243,-62 1122,-62"/>
<text text-anchor="middle" x="1182.5" y="-69" font-family="Helvetica,sans-Serif" font-size="10.00">QualityControl/Quality.h</text>
</a>
</g>
</g>
<!-- Node10&#45;&gt;Node16 -->
<g id="edge19" class="edge"><title>Node10&#45;&gt;Node16</title>
<path fill="none" stroke="midnightblue" d="M868.384,-179.642C985.268,-167.47 1187.83,-145.984 1190.5,-143 1203.17,-128.841 1197.67,-106.157 1191.29,-90.3567"/>
<polygon fill="midnightblue" stroke="midnightblue" points="1194.44,-88.8233 1187.16,-81.1268 1188.05,-91.684 1194.44,-88.8233"/>
</g>
<!-- Node18 -->
<g id="node18" class="node"><title>Node18</title>
<polygon fill="none" stroke="#bfbfbf" points="886,-0.5 886,-19.5 927,-19.5 927,-0.5 886,-0.5"/>
<text text-anchor="middle" x="906.5" y="-7.5" font-family="Helvetica,sans-Serif" font-size="10.00">string</text>
</g>
<!-- Node10&#45;&gt;Node18 -->
<g id="edge33" class="edge"><title>Node10&#45;&gt;Node18</title>
<path fill="none" stroke="midnightblue" d="M868.013,-179.531C915.063,-172.735 967.981,-161.251 982.5,-143 995.31,-126.897 996.529,-96.8245 970.5,-56 961.921,-42.5446 947.737,-31.9617 934.9,-24.4487"/>
<polygon fill="midnightblue" stroke="midnightblue" points="936.343,-21.2488 925.889,-19.5234 932.985,-27.391 936.343,-21.2488"/>
</g>
<!-- Node19 -->
<g id="node19" class="node"><title>Node19</title>
<g id="a_node19"><a xlink:href="TaskConfig_8h.html" target="_top" xlink:title="QualityControl/TaskConfig.h">
<polygon fill="none" stroke="black" points="250.5,-123.5 250.5,-142.5 390.5,-142.5 390.5,-123.5 250.5,-123.5"/>
<text text-anchor="middle" x="320.5" y="-130.5" font-family="Helvetica,sans-Serif" font-size="10.00">QualityControl/TaskConfig.h</text>
</a>
</g>
</g>
<!-- Node10&#45;&gt;Node19 -->
<g id="edge20" class="edge"><title>Node10&#45;&gt;Node19</title>
<path fill="none" stroke="midnightblue" d="M713.76,-179.473C628.587,-169.625 488.929,-153.476 400.994,-143.308"/>
<polygon fill="midnightblue" stroke="midnightblue" points="401.134,-139.801 390.798,-142.129 400.33,-146.754 401.134,-139.801"/>
</g>
<!-- Node20 -->
<g id="node20" class="node"><title>Node20</title>
<g id="a_node20"><a xlink:href="ServiceDiscovery_8h_source.html" target="_top" xlink:title="QualityControl/ServiceDiscovery.h">
<polygon fill="none" stroke="black" points="446,-123.5 446,-142.5 613,-142.5 613,-123.5 446,-123.5"/>
<text text-anchor="middle" x="529.5" y="-130.5" font-family="Helvetica,sans-Serif" font-size="10.00">QualityControl/ServiceDiscovery.h</text>
</a>
</g>
</g>
<!-- Node10&#45;&gt;Node20 -->
<g id="edge23" class="edge"><title>Node10&#45;&gt;Node20</title>
<path fill="none" stroke="midnightblue" d="M746.619,-179.444C701.517,-170.004 628.888,-154.802 580.198,-144.611"/>
<polygon fill="midnightblue" stroke="midnightblue" points="580.695,-141.139 570.19,-142.516 579.26,-147.991 580.695,-141.139"/>
</g>
<!-- Node25 -->
<g id="node25" class="node"><title>Node25</title>
<polygon fill="none" stroke="#bfbfbf" points="669,-123.5 669,-142.5 738,-142.5 738,-123.5 669,-123.5"/>
<text text-anchor="middle" x="703.5" y="-130.5" font-family="Helvetica,sans-Serif" font-size="10.00">TObjArray.h</text>
</g>
<!-- Node10&#45;&gt;Node25 -->
<g id="edge30" class="edge"><title>Node10&#45;&gt;Node25</title>
<path fill="none" stroke="midnightblue" d="M774.004,-179.324C760.9,-170.9 740.788,-157.971 725.393,-148.074"/>
<polygon fill="midnightblue" stroke="midnightblue" points="727.267,-145.118 716.963,-142.655 723.482,-151.006 727.267,-145.118"/>
</g>
<!-- Node26 -->
<g id="node26" class="node"><title>Node26</title>
<polygon fill="none" stroke="#bfbfbf" points="756,-123.5 756,-142.5 827,-142.5 827,-123.5 756,-123.5"/>
<text text-anchor="middle" x="791.5" y="-130.5" font-family="Helvetica,sans-Serif" font-size="10.00">TObjString.h</text>
</g>
<!-- Node10&#45;&gt;Node26 -->
<g id="edge31" class="edge"><title>Node10&#45;&gt;Node26</title>
<path fill="none" stroke="midnightblue" d="M788.161,-179.083C788.685,-172.006 789.436,-161.861 790.094,-152.986"/>
<polygon fill="midnightblue" stroke="midnightblue" points="793.603,-152.982 790.852,-142.751 786.623,-152.465 793.603,-152.982"/>
</g>
<!-- Node27 -->
<g id="node27" class="node"><title>Node27</title>
<polygon fill="none" stroke="#bfbfbf" points="845.5,-123.5 845.5,-142.5 973.5,-142.5 973.5,-123.5 845.5,-123.5"/>
<text text-anchor="middle" x="909.5" y="-130.5" font-family="Helvetica,sans-Serif" font-size="10.00">boost/concept_check.hpp</text>
</g>
<!-- Node10&#45;&gt;Node27 -->
<g id="edge32" class="edge"><title>Node10&#45;&gt;Node27</title>
<path fill="none" stroke="midnightblue" d="M806.831,-179.444C826.82,-170.596 858.243,-156.687 881.064,-146.586"/>
<polygon fill="midnightblue" stroke="midnightblue" points="882.532,-149.764 890.259,-142.516 879.698,-143.363 882.532,-149.764"/>
</g>
<!-- Node12 -->
<g id="node12" class="node"><title>Node12</title>
<polygon fill="none" stroke="#bfbfbf" points="1261.5,-62 1261.5,-81 1315.5,-81 1315.5,-62 1261.5,-62"/>
<text text-anchor="middle" x="1288.5" y="-69" font-family="Helvetica,sans-Serif" font-size="10.00">iostream</text>
</g>
<!-- Node11&#45;&gt;Node12 -->
<g id="edge11" class="edge"><title>Node11&#45;&gt;Node12</title>
<path fill="none" stroke="midnightblue" d="M1136.16,-123.448C1166.07,-114.908 1212.74,-101.062 1252.5,-87 1254.41,-86.3259 1256.36,-85.6107 1258.32,-84.8733"/>
<polygon fill="midnightblue" stroke="midnightblue" points="1260,-87.9749 1268.06,-81.0881 1257.47,-81.4509 1260,-87.9749"/>
</g>
<!-- Node13 -->
<g id="node13" class="node"><title>Node13</title>
<polygon fill="none" stroke="#bfbfbf" points="1030,-62 1030,-81 1065,-81 1065,-62 1030,-62"/>
<text text-anchor="middle" x="1047.5" y="-69" font-family="Helvetica,sans-Serif" font-size="10.00">map</text>
</g>
<!-- Node11&#45;&gt;Node13 -->
<g id="edge12" class="edge"><title>Node11&#45;&gt;Node13</title>
<path fill="none" stroke="midnightblue" d="M1097.19,-123.475C1088.32,-114.373 1074.05,-99.741 1063.08,-88.483"/>
<polygon fill="midnightblue" stroke="midnightblue" points="1065.28,-85.7268 1055.79,-81.0091 1060.27,-90.613 1065.28,-85.7268"/>
</g>
<!-- Node14 -->
<g id="node14" class="node"><title>Node14</title>
<polygon fill="none" stroke="#bfbfbf" points="1071,-0.5 1071,-19.5 1130,-19.5 1130,-0.5 1071,-0.5"/>
<text text-anchor="middle" x="1100.5" y="-7.5" font-family="Helvetica,sans-Serif" font-size="10.00">TObject.h</text>
</g>
<!-- Node11&#45;&gt;Node14 -->
<g id="edge13" class="edge"><title>Node11&#45;&gt;Node14</title>
<path fill="none" stroke="midnightblue" d="M1105.14,-123.298C1104.34,-103.85 1102.38,-56.49 1101.28,-29.9036"/>
<polygon fill="midnightblue" stroke="midnightblue" points="1104.77,-29.4701 1100.86,-19.6232 1097.77,-29.7592 1104.77,-29.4701"/>
</g>
<!-- Node15 -->
<g id="node15" class="node"><title>Node15</title>
<polygon fill="none" stroke="#bfbfbf" points="845.5,-62 845.5,-81 961.5,-81 961.5,-62 845.5,-62"/>
<text text-anchor="middle" x="903.5" y="-69" font-family="Helvetica,sans-Serif" font-size="10.00">Common/Exceptions.h</text>
</g>
<!-- Node11&#45;&gt;Node15 -->
<g id="edge14" class="edge"><title>Node11&#45;&gt;Node15</title>
<path fill="none" stroke="midnightblue" d="M1076.56,-123.475C1041.23,-113.07 981.369,-95.4367 942.135,-83.8801"/>
<polygon fill="midnightblue" stroke="midnightblue" points="942.969,-80.4773 932.388,-81.0091 940.992,-87.1921 942.969,-80.4773"/>
</g>
<!-- Node11&#45;&gt;Node16 -->
<g id="edge15" class="edge"><title>Node11&#45;&gt;Node16</title>
<path fill="none" stroke="midnightblue" d="M1116.53,-123.475C1128.77,-114.02 1148.73,-98.5961 1163.49,-87.1871"/>
<polygon fill="midnightblue" stroke="midnightblue" points="1165.72,-89.8931 1171.49,-81.0091 1161.44,-84.3541 1165.72,-89.8931"/>
</g>
<!-- Node16&#45;&gt;Node14 -->
<g id="edge16" class="edge"><title>Node16&#45;&gt;Node14</title>
<path fill="none" stroke="midnightblue" d="M1170.75,-61.9751C1157.72,-52.5199 1136.46,-37.0961 1120.74,-25.6871"/>
<polygon fill="midnightblue" stroke="midnightblue" points="1122.38,-22.5492 1112.23,-19.5091 1118.27,-28.2149 1122.38,-22.5492"/>
</g>
<!-- Node17 -->
<g id="node17" class="node"><title>Node17</title>
<polygon fill="none" stroke="#bfbfbf" points="1156.5,-0.5 1156.5,-19.5 1208.5,-19.5 1208.5,-0.5 1156.5,-0.5"/>
<text text-anchor="middle" x="1182.5" y="-7.5" font-family="Helvetica,sans-Serif" font-size="10.00">ostream</text>
</g>
<!-- Node16&#45;&gt;Node17 -->
<g id="edge17" class="edge"><title>Node16&#45;&gt;Node17</title>
<path fill="none" stroke="midnightblue" d="M1182.5,-61.9751C1182.5,-53.5803 1182.5,-40.4806 1182.5,-29.6631"/>
<polygon fill="midnightblue" stroke="midnightblue" points="1186,-29.5091 1182.5,-19.5091 1179,-29.5091 1186,-29.5091"/>
</g>
<!-- Node16&#45;&gt;Node18 -->
<g id="edge18" class="edge"><title>Node16&#45;&gt;Node18</title>
<path fill="none" stroke="midnightblue" d="M1142.96,-61.9751C1087.43,-50.0053 987.539,-28.4703 937.228,-17.6243"/>
<polygon fill="midnightblue" stroke="midnightblue" points="937.791,-14.1655 927.278,-15.4794 936.316,-21.0083 937.791,-14.1655"/>
</g>
<!-- Node19&#45;&gt;Node8 -->
<g id="edge22" class="edge"><title>Node19&#45;&gt;Node8</title>
<path fill="none" stroke="midnightblue" d="M330.959,-123.475C340.661,-115.567 355.485,-103.485 368.266,-93.0675"/>
<polygon fill="midnightblue" stroke="midnightblue" points="370.755,-95.5539 376.295,-86.523 366.333,-90.1279 370.755,-95.5539"/>
</g>
<!-- Node19&#45;&gt;Node18 -->
<g id="edge21" class="edge"><title>Node19&#45;&gt;Node18</title>
<path fill="none" stroke="midnightblue" d="M316.54,-123.369C310.016,-107.706 299.347,-74.5109 316.5,-56 354.717,-14.757 759.097,-11.1446 875.385,-10.9631"/>
<polygon fill="midnightblue" stroke="midnightblue" points="875.72,-14.463 885.717,-10.9551 875.714,-7.46297 875.72,-14.463"/>
</g>
<!-- Node20&#45;&gt;Node4 -->
<g id="edge26" class="edge"><title>Node20&#45;&gt;Node4</title>
<path fill="none" stroke="midnightblue" d="M485.514,-123.475C424.486,-111.647 315.267,-90.4793 258.692,-79.5143"/>
<polygon fill="midnightblue" stroke="midnightblue" points="259.247,-76.0569 248.764,-77.5902 257.915,-82.9291 259.247,-76.0569"/>
</g>
<!-- Node20&#45;&gt;Node18 -->
<g id="edge27" class="edge"><title>Node20&#45;&gt;Node18</title>
<path fill="none" stroke="midnightblue" d="M594.495,-123.482C658.509,-114.573 751.493,-100.089 785.5,-87 790.817,-84.9536 850.825,-46.6994 884.284,-25.2628"/>
<polygon fill="midnightblue" stroke="midnightblue" points="886.421,-28.0506 892.95,-19.7066 882.643,-22.1578 886.421,-28.0506"/>
</g>
<!-- Node21 -->
<g id="node21" class="node"><title>Node21</title>
<polygon fill="none" stroke="#bfbfbf" points="730.5,-62 730.5,-81 776.5,-81 776.5,-62 730.5,-62"/>
<text text-anchor="middle" x="753.5" y="-69" font-family="Helvetica,sans-Serif" font-size="10.00">atomic</text>
</g>
<!-- Node20&#45;&gt;Node21 -->
<g id="edge24" class="edge"><title>Node20&#45;&gt;Node21</title>
<path fill="none" stroke="midnightblue" d="M577.569,-123.442C616.852,-115.806 673.528,-103.315 721.5,-87 723.167,-86.4329 724.866,-85.8093 726.567,-85.1491"/>
<polygon fill="midnightblue" stroke="midnightblue" points="728.292,-88.2201 736.144,-81.1069 725.57,-81.771 728.292,-88.2201"/>
</g>
<!-- Node22 -->
<g id="node22" class="node"><title>Node22</title>
<polygon fill="none" stroke="#bfbfbf" points="479,-62 479,-81 538,-81 538,-62 479,-62"/>
<text text-anchor="middle" x="508.5" y="-69" font-family="Helvetica,sans-Serif" font-size="10.00">curl/curl.h</text>
</g>
<!-- Node20&#45;&gt;Node22 -->
<g id="edge25" class="edge"><title>Node20&#45;&gt;Node22</title>
<path fill="none" stroke="midnightblue" d="M526.491,-123.475C523.466,-114.904 518.71,-101.427 514.847,-90.483"/>
<polygon fill="midnightblue" stroke="midnightblue" points="518.132,-89.2741 511.503,-81.0091 511.531,-91.6039 518.132,-89.2741"/>
</g>
<!-- Node23 -->
<g id="node23" class="node"><title>Node23</title>
<polygon fill="none" stroke="#bfbfbf" points="556.5,-62 556.5,-81 600.5,-81 600.5,-62 556.5,-62"/>
<text text-anchor="middle" x="578.5" y="-69" font-family="Helvetica,sans-Serif" font-size="10.00">thread</text>
</g>
<!-- Node20&#45;&gt;Node23 -->
<g id="edge28" class="edge"><title>Node20&#45;&gt;Node23</title>
<path fill="none" stroke="midnightblue" d="M536.521,-123.475C543.943,-114.462 555.833,-100.025 565.067,-88.8118"/>
<polygon fill="midnightblue" stroke="midnightblue" points="567.837,-90.9534 571.493,-81.0091 562.434,-86.5034 567.837,-90.9534"/>
</g>
<!-- Node24 -->
<g id="node24" class="node"><title>Node24</title>
<polygon fill="none" stroke="#bfbfbf" points="618.5,-56.5 618.5,-86.5 712.5,-86.5 712.5,-56.5 618.5,-56.5"/>
<text text-anchor="start" x="626.5" y="-74.5" font-family="Helvetica,sans-Serif" font-size="10.00">boost/asio/ip/host</text>
<text text-anchor="middle" x="665.5" y="-63.5" font-family="Helvetica,sans-Serif" font-size="10.00">_name.hpp</text>
</g>
<!-- Node20&#45;&gt;Node24 -->
<g id="edge29" class="edge"><title>Node20&#45;&gt;Node24</title>
<path fill="none" stroke="midnightblue" d="M548.985,-123.475C568.524,-114.927 599.212,-101.501 624.189,-90.5734"/>
<polygon fill="midnightblue" stroke="midnightblue" points="625.689,-93.7378 633.447,-86.523 622.883,-87.3247 625.689,-93.7378"/>
</g>
<!-- Node30&#45;&gt;Node4 -->
<g id="edge38" class="edge"><title>Node30&#45;&gt;Node4</title>
<path fill="none" stroke="midnightblue" d="M986.777,-354.456C776.808,-349.041 184.5,-326.62 184.5,-246 184.5,-246 184.5,-246 184.5,-188 184.5,-151.754 201.595,-112.171 212.853,-90.0327"/>
<polygon fill="midnightblue" stroke="midnightblue" points="215.961,-91.641 217.532,-81.1633 209.77,-88.3745 215.961,-91.641"/>
</g>
<!-- Node30&#45;&gt;Node12 -->
<g id="edge37" class="edge"><title>Node30&#45;&gt;Node12</title>
<path fill="none" stroke="midnightblue" d="M1054.98,-347.286C1048.82,-334.092 1039.72,-308.71 1050.5,-291 1096.81,-214.935 1166.61,-263.036 1228.5,-199 1258.8,-167.648 1276.1,-118.125 1283.74,-91.2885"/>
<polygon fill="midnightblue" stroke="midnightblue" points="1287.21,-91.8613 1286.43,-81.2951 1280.45,-90.0401 1287.21,-91.8613"/>
</g>
<!-- Node30&#45;&gt;Node15 -->
<g id="edge47" class="edge"><title>Node30&#45;&gt;Node15</title>
<path fill="none" stroke="midnightblue" d="M997.765,-347.434C868.605,-328.108 577.042,-276.661 519.5,-199 476.352,-140.765 532.521,-181.311 621.5,-143 639.392,-135.297 642.131,-129.485 660.5,-123 678.109,-116.784 783.294,-95.83 849.376,-82.9484"/>
<polygon fill="midnightblue" stroke="midnightblue" points="850.08,-86.3772 859.227,-81.0314 848.742,-79.5061 850.08,-86.3772"/>
</g>
<!-- Node30&#45;&gt;Node19 -->
<g id="edge46" class="edge"><title>Node30&#45;&gt;Node19</title>
<path fill="none" stroke="midnightblue" d="M986.989,-354.077C835.265,-349.563 494.502,-336.678 448.5,-311 383.402,-274.663 342.801,-189.752 327.463,-152.3"/>
<polygon fill="midnightblue" stroke="midnightblue" points="330.594,-150.7 323.66,-142.689 324.085,-153.276 330.594,-150.7"/>
</g>
<!-- Node31 -->
<g id="node31" class="node"><title>Node31</title>
<polygon fill="none" stroke="#bfbfbf" points="1059.5,-291.5 1059.5,-310.5 1115.5,-310.5 1115.5,-291.5 1059.5,-291.5"/>
<text text-anchor="middle" x="1087.5" y="-298.5" font-family="Helvetica,sans-Serif" font-size="10.00">TClass.h</text>
</g>
<!-- Node30&#45;&gt;Node31 -->
<g id="edge39" class="edge"><title>Node30&#45;&gt;Node31</title>
<path fill="none" stroke="midnightblue" d="M1064.12,-347.083C1067.96,-339.691 1073.52,-328.953 1078.26,-319.811"/>
<polygon fill="midnightblue" stroke="midnightblue" points="1081.47,-321.24 1082.96,-310.751 1075.25,-318.018 1081.47,-321.24"/>
</g>
<!-- Node32 -->
<g id="node32" class="node"><title>Node32</title>
<polygon fill="none" stroke="#bfbfbf" points="1134,-291.5 1134,-310.5 1193,-310.5 1193,-291.5 1134,-291.5"/>
<text text-anchor="middle" x="1163.5" y="-298.5" font-family="Helvetica,sans-Serif" font-size="10.00">TROOT.h</text>
</g>
<!-- Node30&#45;&gt;Node32 -->
<g id="edge40" class="edge"><title>Node30&#45;&gt;Node32</title>
<path fill="none" stroke="midnightblue" d="M1076.21,-347.324C1092.81,-338.703 1118.5,-325.364 1137.72,-315.386"/>
<polygon fill="midnightblue" stroke="midnightblue" points="1139.57,-318.369 1146.83,-310.655 1136.34,-312.156 1139.57,-318.369"/>
</g>
<!-- Node30&#45;&gt;Node33 -->
<g id="edge41" class="edge"><title>Node30&#45;&gt;Node33</title>
<path fill="none" stroke="midnightblue" d="M1128.07,-347.486C1188.76,-339.621 1279.96,-327.005 1367.98,-311.178"/>
<polygon fill="midnightblue" stroke="midnightblue" points="1368.65,-314.614 1377.87,-309.385 1367.4,-307.726 1368.65,-314.614"/>
</g>
<!-- Node34 -->
<g id="node34" class="node"><title>Node34</title>
<g id="a_node34"><a xlink:href="QcInfoLogger_8h.html" target="_top" xlink:title="QualityControl/QcInfoLogger.h">
<polygon fill="none" stroke="black" points="1211,-291.5 1211,-310.5 1360,-310.5 1360,-291.5 1211,-291.5"/>
<text text-anchor="middle" x="1285.5" y="-298.5" font-family="Helvetica,sans-Serif" font-size="10.00">QualityControl/QcInfoLogger.h</text>
</a>
</g>
</g>
<!-- Node30&#45;&gt;Node34 -->
<g id="edge42" class="edge"><title>Node30&#45;&gt;Node34</title>
<path fill="none" stroke="midnightblue" d="M1095.31,-347.444C1134.49,-338.083 1197.38,-323.056 1240.02,-312.868"/>
<polygon fill="midnightblue" stroke="midnightblue" points="1240.94,-316.245 1249.86,-310.516 1239.32,-309.436 1240.94,-316.245"/>
</g>
<!-- Node34&#45;&gt;Node3 -->
<g id="edge43" class="edge"><title>Node34&#45;&gt;Node3</title>
<path fill="none" stroke="midnightblue" d="M1210.94,-291.916C1120.36,-282.093 967.882,-265.56 872.732,-255.242"/>
<polygon fill="midnightblue" stroke="midnightblue" points="872.884,-251.738 862.565,-254.14 872.13,-258.697 872.884,-251.738"/>
</g>
<!-- Node34&#45;&gt;Node12 -->
<g id="edge45" class="edge"><title>Node34&#45;&gt;Node12</title>
<path fill="none" stroke="midnightblue" d="M1285.61,-291.36C1286.05,-258.138 1287.63,-138.16 1288.25,-91.3705"/>
<polygon fill="midnightblue" stroke="midnightblue" points="1291.75,-91.1944 1288.39,-81.1491 1284.75,-91.102 1291.75,-91.1944"/>
</g>
<!-- Node35 -->
<g id="node35" class="node"><title>Node35</title>
<polygon fill="none" stroke="#bfbfbf" points="1313.5,-235.5 1313.5,-254.5 1443.5,-254.5 1443.5,-235.5 1313.5,-235.5"/>
<text text-anchor="middle" x="1378.5" y="-242.5" font-family="Helvetica,sans-Serif" font-size="10.00">InfoLogger/InfoLogger.hxx</text>
</g>
<!-- Node34&#45;&gt;Node35 -->
<g id="edge44" class="edge"><title>Node34&#45;&gt;Node35</title>
<path fill="none" stroke="midnightblue" d="M1300.44,-291.324C1315.09,-282.822 1337.63,-269.729 1354.74,-259.797"/>
<polygon fill="midnightblue" stroke="midnightblue" points="1356.7,-262.703 1363.6,-254.655 1353.19,-256.649 1356.7,-262.703"/>
</g>
</g>
</svg>
