<?xml version="1.0" encoding="UTF-8" standalone="no"?>
<!DOCTYPE svg PUBLIC "-//W3C//DTD SVG 1.1//EN"
 "http://www.w3.org/Graphics/SVG/1.1/DTD/svg11.dtd">
<!-- Generated by graphviz version 2.38.0 (20140413.2041)
 -->
<!-- Title: Framework/test/testTaskInterface.cxx Pages: 1 -->
<!--zoomable 442 -->
<svg id="main" version="1.1" xmlns="http://www.w3.org/2000/svg" xmlns:xlink="http://www.w3.org/1999/xlink" xml:space="preserve" onload="init(evt)">
<style type="text/css"><![CDATA[
.edge:hover path { stroke: red; }
.edge:hover polygon { stroke: red; fill: red; }
]]></style>
<script type="text/javascript"><![CDATA[
var edges = document.getElementsByTagName('g');
if (edges && edges.length) {
  for (var i=0;i<edges.length;i++) {
    if (edges[i].id.substr(0,4)=='edge') {
      edges[i].setAttribute('class','edge');
    }
  }
}
]]></script>
        <defs>
                <circle id="rim" cx="0" cy="0" r="7"/>
                <circle id="rim2" cx="0" cy="0" r="3.5"/>
                <g id="zoomPlus">
                        <use xlink:href="#rim" fill="#404040">
                                <set attributeName="fill" to="#808080" begin="zoomplus.mouseover" end="zoomplus.mouseout"/>
                        </use>
                        <path d="M-4,0h8M0,-4v8" fill="none" stroke="white" stroke-width="1.5" pointer-events="none"/>
                </g>
                <g id="zoomMin">
                        <use xlink:href="#rim" fill="#404040">
                                <set attributeName="fill" to="#808080" begin="zoomminus.mouseover" end="zoomminus.mouseout"/>
                        </use>
                        <path d="M-4,0h8" fill="none" stroke="white" stroke-width="1.5" pointer-events="none"/>
                </g>
                <g id="dirArrow">
                        <path fill="none" stroke="white" stroke-width="1.5" d="M0,-3.0v7 M-2.5,-0.5L0,-3.0L2.5,-0.5"/>
                </g>
               <g id="resetDef">
                       <use xlink:href="#rim2" fill="#404040">
                               <set attributeName="fill" to="#808080" begin="reset.mouseover" end="reset.mouseout"/>
                       </use>
               </g>
        </defs>

<script type="text/javascript">
var viewWidth = 1405;
var viewHeight = 442;
var sectionId = 'dynsection-0';
</script>
<script xlink:href="svgpan.js"/>
<svg id="graph" class="graph">
<g id="viewport">
<title>Framework/test/testTaskInterface.cxx</title>
<!-- Node1 -->
<g id="node1" class="node"><title>Node1</title>
<polygon fill="#bfbfbf" stroke="black" points="519.5,-414.5 519.5,-433.5 702.5,-433.5 702.5,-414.5 519.5,-414.5"/>
<text text-anchor="middle" x="611" y="-421.5" font-family="Helvetica,sans-Serif" font-size="10.00">Framework/test/testTaskInterface.cxx</text>
</g>
<!-- Node2 -->
<g id="node2" class="node"><title>Node2</title>
<g id="a_node2"><a xlink:href="TaskFactory_8h.html" target="_top" xlink:title="QualityControl/TaskFactory.h">
<polygon fill="none" stroke="black" points="284.5,-353 284.5,-372 429.5,-372 429.5,-353 284.5,-353"/>
<text text-anchor="middle" x="357" y="-360" font-family="Helvetica,sans-Serif" font-size="10.00">QualityControl/TaskFactory.h</text>
</a>
</g>
</g>
<!-- Node1&#45;&gt;Node2 -->
<g id="edge1" class="edge"><title>Node1&#45;&gt;Node2</title>
<path fill="none" stroke="midnightblue" d="M574.608,-414.475C529.435,-403.893 452.349,-385.836 403.09,-374.297"/>
<polygon fill="midnightblue" stroke="midnightblue" points="403.859,-370.882 393.324,-372.009 402.263,-377.698 403.859,-370.882"/>
</g>
<!-- Node3 -->
<g id="node3" class="node"><title>Node3</title>
<polygon fill="none" stroke="#bfbfbf" points="326,-62 326,-81 380,-81 380,-62 326,-62"/>
<text text-anchor="middle" x="353" y="-69" font-family="Helvetica,sans-Serif" font-size="10.00">iostream</text>
</g>
<!-- Node1&#45;&gt;Node3 -->
<g id="edge47" class="edge"><title>Node1&#45;&gt;Node3</title>
<path fill="none" stroke="midnightblue" d="M603.932,-414.263C566.269,-367.699 390.711,-150.558 386,-143 375.416,-126.019 366.036,-105.098 360.008,-90.474"/>
<polygon fill="midnightblue" stroke="midnightblue" points="363.213,-89.0632 356.242,-81.0853 356.717,-91.6695 363.213,-89.0632"/>
</g>
<!-- Node9 -->
<g id="node9" class="node"><title>Node9</title>
<g id="a_node9"><a xlink:href="TaskInterface_8h.html" target="_top" xlink:title="TaskInterface.h">
<polygon fill="none" stroke="black" points="648.5,-235.5 648.5,-254.5 733.5,-254.5 733.5,-235.5 648.5,-235.5"/>
<text text-anchor="middle" x="691" y="-242.5" font-family="Helvetica,sans-Serif" font-size="10.00">TaskInterface.h</text>
</a>
</g>
</g>
<!-- Node1&#45;&gt;Node9 -->
<g id="edge44" class="edge"><title>Node1&#45;&gt;Node9</title>
<path fill="none" stroke="midnightblue" d="M612.306,-414.3C614.657,-399.893 620.285,-370.357 630,-347 643.048,-315.629 664.794,-282.512 678.49,-263.08"/>
<polygon fill="midnightblue" stroke="midnightblue" points="681.511,-264.874 684.494,-254.707 675.822,-260.795 681.511,-264.874"/>
</g>
<!-- Node33 -->
<g id="node33" class="node"><title>Node33</title>
<polygon fill="none" stroke="#bfbfbf" points="639,-347.5 639,-377.5 751,-377.5 751,-347.5 639,-347.5"/>
<text text-anchor="start" x="647" y="-365.5" font-family="Helvetica,sans-Serif" font-size="10.00">boost/test/output_test</text>
<text text-anchor="middle" x="695" y="-354.5" font-family="Helvetica,sans-Serif" font-size="10.00">_stream.hpp</text>
</g>
<!-- Node1&#45;&gt;Node33 -->
<g id="edge45" class="edge"><title>Node1&#45;&gt;Node33</title>
<path fill="none" stroke="midnightblue" d="M623.035,-414.475C634.412,-406.417 651.909,-394.023 666.801,-383.474"/>
<polygon fill="midnightblue" stroke="midnightblue" points="669.066,-386.159 675.203,-377.523 665.02,-380.447 669.066,-386.159"/>
</g>
<!-- Node34 -->
<g id="node34" class="node"><title>Node34</title>
<polygon fill="none" stroke="#bfbfbf" points="769.5,-353 769.5,-372 888.5,-372 888.5,-353 769.5,-353"/>
<text text-anchor="middle" x="829" y="-360" font-family="Helvetica,sans-Serif" font-size="10.00">boost/test/unit_test.hpp</text>
</g>
<!-- Node1&#45;&gt;Node34 -->
<g id="edge46" class="edge"><title>Node1&#45;&gt;Node34</title>
<path fill="none" stroke="midnightblue" d="M642.234,-414.475C680.6,-404.004 745.787,-386.212 788.111,-374.66"/>
<polygon fill="midnightblue" stroke="midnightblue" points="789.098,-378.019 797.824,-372.009 787.255,-371.266 789.098,-378.019"/>
</g>
<!-- Node2&#45;&gt;Node3 -->
<g id="edge2" class="edge"><title>Node2&#45;&gt;Node3</title>
<path fill="none" stroke="midnightblue" d="M384.33,-352.958C403.668,-345.319 428.181,-332.026 440,-311 456.551,-281.555 455.54,-264.991 440,-235 427.236,-210.366 408.189,-219.039 389,-199 368.536,-177.63 361.338,-171.389 353,-143 348.047,-126.135 348.651,-106.006 350.136,-91.5822"/>
<polygon fill="midnightblue" stroke="midnightblue" points="353.64,-91.7701 351.426,-81.4091 346.696,-90.889 353.64,-91.7701"/>
</g>
<!-- Node4 -->
<g id="node4" class="node"><title>Node4</title>
<polygon fill="none" stroke="#bfbfbf" points="1345,-62 1345,-81 1397,-81 1397,-62 1345,-62"/>
<text text-anchor="middle" x="1371" y="-69" font-family="Helvetica,sans-Serif" font-size="10.00">memory</text>
</g>
<!-- Node2&#45;&gt;Node4 -->
<g id="edge3" class="edge"><title>Node2&#45;&gt;Node4</title>
<path fill="none" stroke="midnightblue" d="M429.706,-359.532C587.618,-352.925 971.118,-324.165 1262,-199 1300.54,-182.416 1311.4,-175.445 1338,-143 1350.82,-127.359 1359.93,-105.909 1365.29,-90.7884"/>
<polygon fill="midnightblue" stroke="midnightblue" points="1368.68,-91.6644 1368.52,-81.0708 1362.04,-89.4537 1368.68,-91.6644"/>
</g>
<!-- Node5 -->
<g id="node5" class="node"><title>Node5</title>
<polygon fill="none" stroke="#bfbfbf" points="0,-291.5 0,-310.5 56,-310.5 56,-291.5 0,-291.5"/>
<text text-anchor="middle" x="28" y="-298.5" font-family="Helvetica,sans-Serif" font-size="10.00">TClass.h</text>
</g>
<!-- Node2&#45;&gt;Node5 -->
<g id="edge4" class="edge"><title>Node2&#45;&gt;Node5</title>
<path fill="none" stroke="midnightblue" d="M301.082,-352.977C244.28,-344.061 153.574,-329.116 66.0636,-311.113"/>
<polygon fill="midnightblue" stroke="midnightblue" points="66.7397,-307.679 56.2374,-309.076 65.3186,-314.533 66.7397,-307.679"/>
</g>
<!-- Node6 -->
<g id="node6" class="node"><title>Node6</title>
<polygon fill="none" stroke="#bfbfbf" points="74.5,-291.5 74.5,-310.5 133.5,-310.5 133.5,-291.5 74.5,-291.5"/>
<text text-anchor="middle" x="104" y="-298.5" font-family="Helvetica,sans-Serif" font-size="10.00">TROOT.h</text>
</g>
<!-- Node2&#45;&gt;Node6 -->
<g id="edge5" class="edge"><title>Node2&#45;&gt;Node6</title>
<path fill="none" stroke="midnightblue" d="M320.475,-352.943C279.701,-343.385 211.472,-327.377 143.84,-311.431"/>
<polygon fill="midnightblue" stroke="midnightblue" points="144.406,-307.969 133.869,-309.08 142.799,-314.782 144.406,-307.969"/>
</g>
<!-- Node7 -->
<g id="node7" class="node"><title>Node7</title>
<polygon fill="none" stroke="#bfbfbf" points="151.5,-291.5 151.5,-310.5 216.5,-310.5 216.5,-291.5 151.5,-291.5"/>
<text text-anchor="middle" x="184" y="-298.5" font-family="Helvetica,sans-Serif" font-size="10.00">TSystem.h</text>
</g>
<!-- Node2&#45;&gt;Node7 -->
<g id="edge6" class="edge"><title>Node2&#45;&gt;Node7</title>
<path fill="none" stroke="midnightblue" d="M332.213,-352.975C302.409,-342.725 252.209,-325.459 218.598,-313.899"/>
<polygon fill="midnightblue" stroke="midnightblue" points="219.335,-310.452 208.741,-310.509 217.059,-317.071 219.335,-310.452"/>
</g>
<!-- Node8 -->
<g id="node8" class="node"><title>Node8</title>
<g id="a_node8"><a xlink:href="QcInfoLogger_8h.html" target="_top" xlink:title="QualityControl/QcInfoLogger.h">
<polygon fill="none" stroke="black" points="282.5,-291.5 282.5,-310.5 431.5,-310.5 431.5,-291.5 282.5,-291.5"/>
<text text-anchor="middle" x="357" y="-298.5" font-family="Helvetica,sans-Serif" font-size="10.00">QualityControl/QcInfoLogger.h</text>
</a>
</g>
</g>
<!-- Node2&#45;&gt;Node8 -->
<g id="edge7" class="edge"><title>Node2&#45;&gt;Node8</title>
<path fill="none" stroke="midnightblue" d="M357,-352.975C357,-344.58 357,-331.481 357,-320.663"/>
<polygon fill="midnightblue" stroke="midnightblue" points="360.5,-320.509 357,-310.509 353.5,-320.509 360.5,-320.509"/>
</g>
<!-- Node19 -->
<g id="node19" class="node"><title>Node19</title>
<polygon fill="none" stroke="#bfbfbf" points="185,-62 185,-81 301,-81 301,-62 185,-62"/>
<text text-anchor="middle" x="243" y="-69" font-family="Helvetica,sans-Serif" font-size="10.00">Common/Exceptions.h</text>
</g>
<!-- Node2&#45;&gt;Node19 -->
<g id="edge43" class="edge"><title>Node2&#45;&gt;Node19</title>
<path fill="none" stroke="midnightblue" d="M330.913,-352.911C311.626,-345.13 286.466,-331.674 273,-311 227.308,-240.85 234.805,-134.188 240.188,-91.3137"/>
<polygon fill="midnightblue" stroke="midnightblue" points="243.683,-91.5895 241.573,-81.2069 236.748,-90.6392 243.683,-91.5895"/>
</g>
<!-- Node23 -->
<g id="node23" class="node"><title>Node23</title>
<g id="a_node23"><a xlink:href="TaskConfig_8h.html" target="_top" xlink:title="QualityControl/TaskConfig.h">
<polygon fill="none" stroke="black" points="603,-123.5 603,-142.5 743,-142.5 743,-123.5 603,-123.5"/>
<text text-anchor="middle" x="673" y="-130.5" font-family="Helvetica,sans-Serif" font-size="10.00">QualityControl/TaskConfig.h</text>
</a>
</g>
</g>
<!-- Node2&#45;&gt;Node23 -->
<g id="edge42" class="edge"><title>Node2&#45;&gt;Node23</title>
<path fill="none" stroke="midnightblue" d="M397.161,-352.947C422.122,-345.694 453.133,-332.865 473,-311 514.493,-265.334 471.597,-221.842 516,-179 536.627,-159.098 565.443,-147.897 592.766,-141.629"/>
<polygon fill="midnightblue" stroke="midnightblue" points="593.678,-145.014 602.746,-139.536 592.241,-138.163 593.678,-145.014"/>
</g>
<!-- Node8&#45;&gt;Node3 -->
<g id="edge41" class="edge"><title>Node8&#45;&gt;Node3</title>
<path fill="none" stroke="midnightblue" d="M335.192,-291.447C320.055,-284.221 301.045,-272.264 292,-255 261.827,-197.413 312.78,-121.915 338.953,-89.0166"/>
<polygon fill="midnightblue" stroke="midnightblue" points="341.676,-91.2163 345.3,-81.2608 336.258,-86.7829 341.676,-91.2163"/>
</g>
<!-- Node8&#45;&gt;Node9 -->
<g id="edge8" class="edge"><title>Node8&#45;&gt;Node9</title>
<path fill="none" stroke="midnightblue" d="M409.923,-291.444C472.477,-281.33 575.933,-264.604 638.362,-254.51"/>
<polygon fill="midnightblue" stroke="midnightblue" points="639.079,-257.94 648.393,-252.889 637.962,-251.03 639.079,-257.94"/>
</g>
<!-- Node32 -->
<g id="node32" class="node"><title>Node32</title>
<polygon fill="none" stroke="#bfbfbf" points="301,-235.5 301,-254.5 431,-254.5 431,-235.5 301,-235.5"/>
<text text-anchor="middle" x="366" y="-242.5" font-family="Helvetica,sans-Serif" font-size="10.00">InfoLogger/InfoLogger.hxx</text>
</g>
<!-- Node8&#45;&gt;Node32 -->
<g id="edge40" class="edge"><title>Node8&#45;&gt;Node32</title>
<path fill="none" stroke="midnightblue" d="M358.486,-291.083C359.679,-283.927 361.394,-273.635 362.885,-264.691"/>
<polygon fill="midnightblue" stroke="midnightblue" points="366.35,-265.19 364.541,-254.751 359.445,-264.04 366.35,-265.19"/>
</g>
<!-- Node9&#45;&gt;Node4 -->
<g id="edge9" class="edge"><title>Node9&#45;&gt;Node4</title>
<path fill="none" stroke="midnightblue" d="M733.834,-243.006C844.01,-240.034 1134.95,-229.453 1226,-199 1270.32,-184.176 1280.19,-174.186 1315,-143 1332.93,-126.934 1349.56,-104.678 1359.96,-89.4981"/>
<polygon fill="midnightblue" stroke="midnightblue" points="1362.94,-91.338 1365.59,-81.0791 1357.12,-87.4482 1362.94,-91.338"/>
</g>
<!-- Node10 -->
<g id="node10" class="node"><title>Node10</title>
<polygon fill="none" stroke="#bfbfbf" points="666.5,-179.5 666.5,-198.5 715.5,-198.5 715.5,-179.5 666.5,-179.5"/>
<text text-anchor="middle" x="691" y="-186.5" font-family="Helvetica,sans-Serif" font-size="10.00">cassert</text>
</g>
<!-- Node9&#45;&gt;Node10 -->
<g id="edge10" class="edge"><title>Node9&#45;&gt;Node10</title>
<path fill="none" stroke="midnightblue" d="M691,-235.083C691,-228.006 691,-217.861 691,-208.986"/>
<polygon fill="midnightblue" stroke="midnightblue" points="694.5,-208.751 691,-198.751 687.5,-208.751 694.5,-208.751"/>
</g>
<!-- Node11 -->
<g id="node11" class="node"><title>Node11</title>
<polygon fill="none" stroke="#bfbfbf" points="733.5,-179.5 733.5,-198.5 858.5,-198.5 858.5,-179.5 733.5,-179.5"/>
<text text-anchor="middle" x="796" y="-186.5" font-family="Helvetica,sans-Serif" font-size="10.00">Framework/InitContext.h</text>
</g>
<!-- Node9&#45;&gt;Node11 -->
<g id="edge11" class="edge"><title>Node9&#45;&gt;Node11</title>
<path fill="none" stroke="midnightblue" d="M707.87,-235.324C724.709,-226.664 750.807,-213.242 770.238,-203.249"/>
<polygon fill="midnightblue" stroke="midnightblue" points="771.88,-206.341 779.172,-198.655 768.678,-200.116 771.88,-206.341"/>
</g>
<!-- Node12 -->
<g id="node12" class="node"><title>Node12</title>
<polygon fill="none" stroke="#bfbfbf" points="877,-179.5 877,-198.5 1037,-198.5 1037,-179.5 877,-179.5"/>
<text text-anchor="middle" x="957" y="-186.5" font-family="Helvetica,sans-Serif" font-size="10.00">Framework/ProcessingContext.h</text>
</g>
<!-- Node9&#45;&gt;Node12 -->
<g id="edge12" class="edge"><title>Node9&#45;&gt;Node12</title>
<path fill="none" stroke="midnightblue" d="M733.148,-235.444C779.746,-225.984 854.844,-210.738 905.045,-200.547"/>
<polygon fill="midnightblue" stroke="midnightblue" points="905.945,-203.936 915.049,-198.516 904.552,-197.076 905.945,-203.936"/>
</g>
<!-- Node13 -->
<g id="node13" class="node"><title>Node13</title>
<polygon fill="none" stroke="#bfbfbf" points="645.5,-56.5 645.5,-86.5 780.5,-86.5 780.5,-56.5 645.5,-56.5"/>
<text text-anchor="start" x="653.5" y="-74.5" font-family="Helvetica,sans-Serif" font-size="10.00">Configuration/Configuration</text>
<text text-anchor="middle" x="713" y="-63.5" font-family="Helvetica,sans-Serif" font-size="10.00">Interface.h</text>
</g>
<!-- Node9&#45;&gt;Node13 -->
<g id="edge13" class="edge"><title>Node9&#45;&gt;Node13</title>
<path fill="none" stroke="midnightblue" d="M648.489,-239.028C602.049,-232.62 532.099,-219.762 516,-199 510.553,-191.975 511.942,-186.909 516,-179 531.121,-149.529 613.39,-112.107 666.719,-90.3757"/>
<polygon fill="midnightblue" stroke="midnightblue" points="668.352,-93.4913 676.317,-86.5059 665.734,-86.9991 668.352,-93.4913"/>
</g>
<!-- Node14 -->
<g id="node14" class="node"><title>Node14</title>
<g id="a_node14"><a xlink:href="Activity_8h.html" target="_top" xlink:title="QualityControl/Activity.h">
<polygon fill="none" stroke="black" points="525.5,-179.5 525.5,-198.5 648.5,-198.5 648.5,-179.5 525.5,-179.5"/>
<text text-anchor="middle" x="587" y="-186.5" font-family="Helvetica,sans-Serif" font-size="10.00">QualityControl/Activity.h</text>
</a>
</g>
</g>
<!-- Node9&#45;&gt;Node14 -->
<g id="edge14" class="edge"><title>Node9&#45;&gt;Node14</title>
<path fill="none" stroke="midnightblue" d="M674.291,-235.324C657.688,-226.703 631.998,-213.364 612.78,-203.386"/>
<polygon fill="midnightblue" stroke="midnightblue" points="614.156,-200.156 603.668,-198.655 610.93,-206.369 614.156,-200.156"/>
</g>
<!-- Node15 -->
<g id="node15" class="node"><title>Node15</title>
<g id="a_node15"><a xlink:href="ObjectsManager_8h.html" target="_top" xlink:title="QualityControl/ObjectsManager.h">
<polygon fill="none" stroke="black" points="1055.5,-179.5 1055.5,-198.5 1216.5,-198.5 1216.5,-179.5 1055.5,-179.5"/>
<text text-anchor="middle" x="1136" y="-186.5" font-family="Helvetica,sans-Serif" font-size="10.00">QualityControl/ObjectsManager.h</text>
</a>
</g>
</g>
<!-- Node9&#45;&gt;Node15 -->
<g id="edge15" class="edge"><title>Node9&#45;&gt;Node15</title>
<path fill="none" stroke="midnightblue" d="M733.668,-238.822C807.76,-229.831 961.314,-211.198 1055.82,-199.729"/>
<polygon fill="midnightblue" stroke="midnightblue" points="1056.41,-203.184 1065.91,-198.505 1055.57,-196.235 1056.41,-203.184"/>
</g>
<!-- Node16 -->
<g id="node16" class="node"><title>Node16</title>
<g id="a_node16"><a xlink:href="MonitorObject_8h.html" target="_top" xlink:title="QualityControl/MonitorObject.h">
<polygon fill="none" stroke="black" points="395.5,-123.5 395.5,-142.5 546.5,-142.5 546.5,-123.5 395.5,-123.5"/>
<text text-anchor="middle" x="471" y="-130.5" font-family="Helvetica,sans-Serif" font-size="10.00">QualityControl/MonitorObject.h</text>
</a>
</g>
</g>
<!-- Node15&#45;&gt;Node16 -->
<g id="edge16" class="edge"><title>Node15&#45;&gt;Node16</title>
<path fill="none" stroke="midnightblue" d="M1055.05,-179.822C1052,-179.54 1048.97,-179.265 1046,-179 953.442,-170.751 692.846,-150.809 556.527,-140.465"/>
<polygon fill="midnightblue" stroke="midnightblue" points="556.767,-136.974 546.531,-139.707 556.237,-143.954 556.767,-136.974"/>
</g>
<!-- Node20 -->
<g id="node20" class="node"><title>Node20</title>
<g id="a_node20"><a xlink:href="Quality_8h.html" target="_top" xlink:title="QualityControl/Quality.h">
<polygon fill="none" stroke="black" points="506.5,-62 506.5,-81 627.5,-81 627.5,-62 506.5,-62"/>
<text text-anchor="middle" x="567" y="-69" font-family="Helvetica,sans-Serif" font-size="10.00">QualityControl/Quality.h</text>
</a>
</g>
</g>
<!-- Node15&#45;&gt;Node20 -->
<g id="edge25" class="edge"><title>Node15&#45;&gt;Node20</title>
<path fill="none" stroke="midnightblue" d="M1113.4,-179.487C1090.96,-170.868 1055.73,-156.867 1026,-143 1008.7,-134.933 1006.27,-128.519 988,-123 837.88,-77.6554 791.981,-110.935 637,-87 629.748,-85.88 622.112,-84.5039 614.656,-83.0497"/>
<polygon fill="midnightblue" stroke="midnightblue" points="615.148,-79.5786 604.654,-81.0351 613.766,-86.4408 615.148,-79.5786"/>
</g>
<!-- Node22 -->
<g id="node22" class="node"><title>Node22</title>
<polygon fill="none" stroke="#bfbfbf" points="857.5,-0.5 857.5,-19.5 898.5,-19.5 898.5,-0.5 857.5,-0.5"/>
<text text-anchor="middle" x="878" y="-7.5" font-family="Helvetica,sans-Serif" font-size="10.00">string</text>
</g>
<!-- Node15&#45;&gt;Node22 -->
<g id="edge39" class="edge"><title>Node15&#45;&gt;Node22</title>
<path fill="none" stroke="midnightblue" d="M1193.74,-179.459C1234.92,-172.047 1285.19,-159.848 1298,-143 1318.24,-116.374 1298.65,-78.4584 1268,-56 1211.04,-14.2668 990.806,-10.6102 908.906,-10.7326"/>
<polygon fill="midnightblue" stroke="midnightblue" points="908.726,-7.23317 898.739,-10.7689 908.751,-14.2331 908.726,-7.23317"/>
</g>
<!-- Node15&#45;&gt;Node23 -->
<g id="edge26" class="edge"><title>Node15&#45;&gt;Node23</title>
<path fill="none" stroke="midnightblue" d="M1062.89,-179.473C978.57,-169.639 840.388,-153.523 753.184,-143.352"/>
<polygon fill="midnightblue" stroke="midnightblue" points="753.41,-139.855 743.072,-142.173 752.599,-146.808 753.41,-139.855"/>
</g>
<!-- Node24 -->
<g id="node24" class="node"><title>Node24</title>
<g id="a_node24"><a xlink:href="ServiceDiscovery_8h_source.html" target="_top" xlink:title="QualityControl/ServiceDiscovery.h">
<polygon fill="none" stroke="black" points="1034.5,-123.5 1034.5,-142.5 1201.5,-142.5 1201.5,-123.5 1034.5,-123.5"/>
<text text-anchor="middle" x="1118" y="-130.5" font-family="Helvetica,sans-Serif" font-size="10.00">QualityControl/ServiceDiscovery.h</text>
</a>
</g>
</g>
<!-- Node15&#45;&gt;Node24 -->
<g id="edge29" class="edge"><title>Node15&#45;&gt;Node24</title>
<path fill="none" stroke="midnightblue" d="M1133.03,-179.083C1130.62,-171.849 1127.14,-161.409 1124.13,-152.397"/>
<polygon fill="midnightblue" stroke="midnightblue" points="1127.4,-151.131 1120.92,-142.751 1120.76,-153.345 1127.4,-151.131"/>
</g>
<!-- Node29 -->
<g id="node29" class="node"><title>Node29</title>
<polygon fill="none" stroke="#bfbfbf" points="1219.5,-123.5 1219.5,-142.5 1288.5,-142.5 1288.5,-123.5 1219.5,-123.5"/>
<text text-anchor="middle" x="1254" y="-130.5" font-family="Helvetica,sans-Serif" font-size="10.00">TObjArray.h</text>
</g>
<!-- Node15&#45;&gt;Node29 -->
<g id="edge36" class="edge"><title>Node15&#45;&gt;Node29</title>
<path fill="none" stroke="midnightblue" d="M1154.7,-179.444C1173.94,-170.636 1204.15,-156.812 1226.2,-146.722"/>
<polygon fill="midnightblue" stroke="midnightblue" points="1227.75,-149.86 1235.39,-142.516 1224.84,-143.495 1227.75,-149.86"/>
</g>
<!-- Node30 -->
<g id="node30" class="node"><title>Node30</title>
<polygon fill="none" stroke="#bfbfbf" points="761.5,-123.5 761.5,-142.5 832.5,-142.5 832.5,-123.5 761.5,-123.5"/>
<text text-anchor="middle" x="797" y="-130.5" font-family="Helvetica,sans-Serif" font-size="10.00">TObjString.h</text>
</g>
<!-- Node15&#45;&gt;Node30 -->
<g id="edge37" class="edge"><title>Node15&#45;&gt;Node30</title>
<path fill="none" stroke="midnightblue" d="M1075.06,-179.497C1017.71,-171.31 929.212,-158.194 842.812,-143.076"/>
<polygon fill="midnightblue" stroke="midnightblue" points="843.289,-139.606 832.834,-141.32 842.075,-146.5 843.289,-139.606"/>
</g>
<!-- Node31 -->
<g id="node31" class="node"><title>Node31</title>
<polygon fill="none" stroke="#bfbfbf" points="851,-123.5 851,-142.5 979,-142.5 979,-123.5 851,-123.5"/>
<text text-anchor="middle" x="915" y="-130.5" font-family="Helvetica,sans-Serif" font-size="10.00">boost/concept_check.hpp</text>
</g>
<!-- Node15&#45;&gt;Node31 -->
<g id="edge38" class="edge"><title>Node15&#45;&gt;Node31</title>
<path fill="none" stroke="midnightblue" d="M1100.98,-179.444C1062.75,-170.102 1001.43,-155.119 959.743,-144.933"/>
<polygon fill="midnightblue" stroke="midnightblue" points="960.399,-141.49 949.854,-142.516 958.738,-148.29 960.399,-141.49"/>
</g>
<!-- Node16&#45;&gt;Node3 -->
<g id="edge17" class="edge"><title>Node16&#45;&gt;Node3</title>
<path fill="none" stroke="midnightblue" d="M454.093,-123.475C434.466,-113.578 401.869,-97.1416 379.01,-85.6151"/>
<polygon fill="midnightblue" stroke="midnightblue" points="380.38,-82.3863 369.875,-81.0091 377.228,-88.6367 380.38,-82.3863"/>
</g>
<!-- Node17 -->
<g id="node17" class="node"><title>Node17</title>
<polygon fill="none" stroke="#bfbfbf" points="453.5,-62 453.5,-81 488.5,-81 488.5,-62 453.5,-62"/>
<text text-anchor="middle" x="471" y="-69" font-family="Helvetica,sans-Serif" font-size="10.00">map</text>
</g>
<!-- Node16&#45;&gt;Node17 -->
<g id="edge18" class="edge"><title>Node16&#45;&gt;Node17</title>
<path fill="none" stroke="midnightblue" d="M471,-123.475C471,-115.08 471,-101.981 471,-91.1631"/>
<polygon fill="midnightblue" stroke="midnightblue" points="474.5,-91.0091 471,-81.0091 467.5,-91.0091 474.5,-91.0091"/>
</g>
<!-- Node18 -->
<g id="node18" class="node"><title>Node18</title>
<polygon fill="none" stroke="#bfbfbf" points="429.5,-0.5 429.5,-19.5 488.5,-19.5 488.5,-0.5 429.5,-0.5"/>
<text text-anchor="middle" x="459" y="-7.5" font-family="Helvetica,sans-Serif" font-size="10.00">TObject.h</text>
</g>
<!-- Node16&#45;&gt;Node18 -->
<g id="edge19" class="edge"><title>Node16&#45;&gt;Node18</title>
<path fill="none" stroke="midnightblue" d="M463.849,-123.364C457.227,-114.763 447.843,-100.873 444,-87 438.575,-67.4127 444.782,-44.466 450.779,-28.9523"/>
<polygon fill="midnightblue" stroke="midnightblue" points="454.091,-30.1064 454.751,-19.5322 447.641,-27.3866 454.091,-30.1064"/>
</g>
<!-- Node16&#45;&gt;Node19 -->
<g id="edge20" class="edge"><title>Node16&#45;&gt;Node19</title>
<path fill="none" stroke="midnightblue" d="M438.333,-123.475C398.123,-112.982 329.742,-95.1367 285.485,-83.587"/>
<polygon fill="midnightblue" stroke="midnightblue" points="286.166,-80.1477 275.606,-81.0091 284.398,-86.9208 286.166,-80.1477"/>
</g>
<!-- Node16&#45;&gt;Node20 -->
<g id="edge21" class="edge"><title>Node16&#45;&gt;Node20</title>
<path fill="none" stroke="midnightblue" d="M484.754,-123.475C500.366,-113.799 526.063,-97.8721 544.583,-86.3941"/>
<polygon fill="midnightblue" stroke="midnightblue" points="546.615,-89.2522 553.271,-81.0091 542.927,-83.3023 546.615,-89.2522"/>
</g>
<!-- Node20&#45;&gt;Node18 -->
<g id="edge22" class="edge"><title>Node20&#45;&gt;Node18</title>
<path fill="none" stroke="midnightblue" d="M551.526,-61.9751C533.722,-52.1664 504.259,-35.9346 483.368,-24.425"/>
<polygon fill="midnightblue" stroke="midnightblue" points="484.893,-21.269 474.445,-19.5091 481.515,-27.4001 484.893,-21.269"/>
</g>
<!-- Node21 -->
<g id="node21" class="node"><title>Node21</title>
<polygon fill="none" stroke="#bfbfbf" points="541,-0.5 541,-19.5 593,-19.5 593,-0.5 541,-0.5"/>
<text text-anchor="middle" x="567" y="-7.5" font-family="Helvetica,sans-Serif" font-size="10.00">ostream</text>
</g>
<!-- Node20&#45;&gt;Node21 -->
<g id="edge23" class="edge"><title>Node20&#45;&gt;Node21</title>
<path fill="none" stroke="midnightblue" d="M567,-61.9751C567,-53.5803 567,-40.4806 567,-29.6631"/>
<polygon fill="midnightblue" stroke="midnightblue" points="570.5,-29.5091 567,-19.5091 563.5,-29.5091 570.5,-29.5091"/>
</g>
<!-- Node20&#45;&gt;Node22 -->
<g id="edge24" class="edge"><title>Node20&#45;&gt;Node22</title>
<path fill="none" stroke="midnightblue" d="M607.689,-61.9306C617.293,-59.947 627.502,-57.8703 637,-56 712.55,-41.1233 801.674,-24.8001 847.458,-16.5041"/>
<polygon fill="midnightblue" stroke="midnightblue" points="848.125,-19.9404 857.342,-14.716 846.878,-13.0523 848.125,-19.9404"/>
</g>
<!-- Node23&#45;&gt;Node13 -->
<g id="edge28" class="edge"><title>Node23&#45;&gt;Node13</title>
<path fill="none" stroke="midnightblue" d="M678.731,-123.475C683.743,-116.019 691.251,-104.852 697.962,-94.8685"/>
<polygon fill="midnightblue" stroke="midnightblue" points="700.898,-96.7747 703.573,-86.523 695.089,-92.8693 700.898,-96.7747"/>
</g>
<!-- Node23&#45;&gt;Node22 -->
<g id="edge27" class="edge"><title>Node23&#45;&gt;Node22</title>
<path fill="none" stroke="midnightblue" d="M703.645,-123.415C728.052,-115.839 762.557,-103.442 790,-87 818.275,-70.0601 846.281,-43.8117 862.858,-27.0204"/>
<polygon fill="midnightblue" stroke="midnightblue" points="865.584,-29.2366 870.029,-19.6193 860.557,-24.3656 865.584,-29.2366"/>
</g>
<!-- Node24&#45;&gt;Node4 -->
<g id="edge32" class="edge"><title>Node24&#45;&gt;Node4</title>
<path fill="none" stroke="midnightblue" d="M1154.25,-123.475C1202.37,-112.159 1286.83,-92.294 1334.88,-80.9937"/>
<polygon fill="midnightblue" stroke="midnightblue" points="1335.91,-84.3477 1344.84,-78.6513 1334.31,-77.5336 1335.91,-84.3477"/>
</g>
<!-- Node24&#45;&gt;Node22 -->
<g id="edge33" class="edge"><title>Node24&#45;&gt;Node22</title>
<path fill="none" stroke="midnightblue" d="M1057.77,-123.427C1025.13,-116.903 985.039,-105.735 953,-87 926.836,-71.7006 903.5,-44.9432 890.052,-27.6043"/>
<polygon fill="midnightblue" stroke="midnightblue" points="892.767,-25.3922 883.958,-19.5063 887.174,-29.6012 892.767,-25.3922"/>
</g>
<!-- Node25 -->
<g id="node25" class="node"><title>Node25</title>
<polygon fill="none" stroke="#bfbfbf" points="1213,-62 1213,-81 1259,-81 1259,-62 1213,-62"/>
<text text-anchor="middle" x="1236" y="-69" font-family="Helvetica,sans-Serif" font-size="10.00">atomic</text>
</g>
<!-- Node24&#45;&gt;Node25 -->
<g id="edge30" class="edge"><title>Node24&#45;&gt;Node25</title>
<path fill="none" stroke="midnightblue" d="M1134.91,-123.475C1154.53,-113.578 1187.13,-97.1416 1209.99,-85.6151"/>
<polygon fill="midnightblue" stroke="midnightblue" points="1211.77,-88.6367 1219.12,-81.0091 1208.62,-82.3863 1211.77,-88.6367"/>
</g>
<!-- Node26 -->
<g id="node26" class="node"><title>Node26</title>
<polygon fill="none" stroke="#bfbfbf" points="961.5,-62 961.5,-81 1020.5,-81 1020.5,-62 961.5,-62"/>
<text text-anchor="middle" x="991" y="-69" font-family="Helvetica,sans-Serif" font-size="10.00">curl/curl.h</text>
</g>
<!-- Node24&#45;&gt;Node26 -->
<g id="edge31" class="edge"><title>Node24&#45;&gt;Node26</title>
<path fill="none" stroke="midnightblue" d="M1099.8,-123.475C1078.49,-113.49 1042.97,-96.8476 1018.34,-85.3075"/>
<polygon fill="midnightblue" stroke="midnightblue" points="1019.7,-82.0822 1009.16,-81.0091 1016.73,-88.4211 1019.7,-82.0822"/>
</g>
<!-- Node27 -->
<g id="node27" class="node"><title>Node27</title>
<polygon fill="none" stroke="#bfbfbf" points="1039,-62 1039,-81 1083,-81 1083,-62 1039,-62"/>
<text text-anchor="middle" x="1061" y="-69" font-family="Helvetica,sans-Serif" font-size="10.00">thread</text>
</g>
<!-- Node24&#45;&gt;Node27 -->
<g id="edge34" class="edge"><title>Node24&#45;&gt;Node27</title>
<path fill="none" stroke="midnightblue" d="M1109.83,-123.475C1101.11,-114.373 1087.1,-99.741 1076.31,-88.483"/>
<polygon fill="midnightblue" stroke="midnightblue" points="1078.6,-85.809 1069.15,-81.0091 1073.54,-90.6515 1078.6,-85.809"/>
</g>
<!-- Node28 -->
<g id="node28" class="node"><title>Node28</title>
<polygon fill="none" stroke="#bfbfbf" points="1101,-56.5 1101,-86.5 1195,-86.5 1195,-56.5 1101,-56.5"/>
<text text-anchor="start" x="1109" y="-74.5" font-family="Helvetica,sans-Serif" font-size="10.00">boost/asio/ip/host</text>
<text text-anchor="middle" x="1148" y="-63.5" font-family="Helvetica,sans-Serif" font-size="10.00">_name.hpp</text>
</g>
<!-- Node24&#45;&gt;Node28 -->
<g id="edge35" class="edge"><title>Node24&#45;&gt;Node28</title>
<path fill="none" stroke="midnightblue" d="M1122.3,-123.475C1125.98,-116.17 1131.46,-105.302 1136.42,-95.475"/>
<polygon fill="midnightblue" stroke="midnightblue" points="1139.55,-97.028 1140.93,-86.523 1133.3,-93.8764 1139.55,-97.028"/>
</g>
</g>
</svg>
        <g id="navigator" transform="translate(0 0)" fill="#404254">
                <rect fill="#f2f5e9" fill-opacity="0.5" stroke="#606060" stroke-width=".5" x="0" y="0" width="60" height="60"/>
                <use id="zoomplus" xlink:href="#zoomPlus" x="17" y="9" onmousedown="handleZoom(evt,'in')"/>
                <use id="zoomminus" xlink:href="#zoomMin" x="42" y="9" onmousedown="handleZoom(evt,'out')"/>
                <use id="reset" xlink:href="#resetDef" x="30" y="36" onmousedown="handleReset()"/>
                <g id="arrowUp" xlink:href="#dirArrow" transform="translate(30 24)" onmousedown="handlePan(0,-1)">
                  <use xlink:href="#rim" fill="#404040">
                        <set attributeName="fill" to="#808080" begin="arrowUp.mouseover" end="arrowUp.mouseout"/>
                  </use>
                  <path fill="none" stroke="white" stroke-width="1.5" d="M0,-3.0v7 M-2.5,-0.5L0,-3.0L2.5,-0.5"/>
                </g>
                <g id="arrowRight" xlink:href="#dirArrow" transform="rotate(90) translate(36 -43)" onmousedown="handlePan(1,0)">
                  <use xlink:href="#rim" fill="#404040">
                        <set attributeName="fill" to="#808080" begin="arrowRight.mouseover" end="arrowRight.mouseout"/>
                  </use>
                  <path fill="none" stroke="white" stroke-width="1.5" d="M0,-3.0v7 M-2.5,-0.5L0,-3.0L2.5,-0.5"/>
                </g>
                <g id="arrowDown" xlink:href="#dirArrow" transform="rotate(180) translate(-30 -48)" onmousedown="handlePan(0,1)">
                  <use xlink:href="#rim" fill="#404040">
                        <set attributeName="fill" to="#808080" begin="arrowDown.mouseover" end="arrowDown.mouseout"/>
                  </use>
                  <path fill="none" stroke="white" stroke-width="1.5" d="M0,-3.0v7 M-2.5,-0.5L0,-3.0L2.5,-0.5"/>
                </g>
                <g id="arrowLeft" xlink:href="#dirArrow" transform="rotate(270) translate(-36 17)" onmousedown="handlePan(-1,0)">
                  <use xlink:href="#rim" fill="#404040">
                        <set attributeName="fill" to="#808080" begin="arrowLeft.mouseover" end="arrowLeft.mouseout"/>
                  </use>
                  <path fill="none" stroke="white" stroke-width="1.5" d="M0,-3.0v7 M-2.5,-0.5L0,-3.0L2.5,-0.5"/>
                </g>
        </g>
        <svg viewBox="0 0 15 15" width="100%" height="30px" preserveAspectRatio="xMaxYMin meet">
         <g id="arrow_out" transform="scale(0.3 0.3)">
          <a xlink:href="testTaskInterface_8cxx__incl_org.svg" target="_base">
           <rect id="button" ry="5" rx="5" y="6" x="6" height="38" width="38"
                fill="#f2f5e9" fill-opacity="0.5" stroke="#606060" stroke-width="1.0"/>
           <path id="arrow"
             d="M 11.500037,31.436501 C 11.940474,20.09759 22.043105,11.32322 32.158766,21.979434 L 37.068811,17.246167 C 37.068811,17.246167 37.088388,32 37.088388,32 L 22.160133,31.978069 C 22.160133,31.978069 26.997745,27.140456 26.997745,27.140456 C 18.528582,18.264221 13.291696,25.230495 11.500037,31.436501 z"
             style="fill:#404040;"/>
          </a>
         </g>
        </svg>
</svg>
