<?xml version="1.0" encoding="UTF-8" standalone="no"?>
<!DOCTYPE svg PUBLIC "-//W3C//DTD SVG 1.1//EN"
 "http://www.w3.org/Graphics/SVG/1.1/DTD/svg11.dtd">
<!-- Generated by graphviz version 2.38.0 (20140413.2041)
 -->
<!-- Title: Framework/test/testCcdbDatabase.cxx Pages: 1 -->
<svg width="955pt" height="319pt"
 viewBox="0.00 0.00 954.50 319.00" xmlns="http://www.w3.org/2000/svg" xmlns:xlink="http://www.w3.org/1999/xlink">
<g id="graph0" class="graph" transform="scale(1 1) rotate(0) translate(4 315)">
<title>Framework/test/testCcdbDatabase.cxx</title>
<!-- Node1 -->
<g id="node1" class="node"><title>Node1</title>
<polygon fill="#bfbfbf" stroke="black" points="485,-291.5 485,-310.5 673,-310.5 673,-291.5 485,-291.5"/>
<text text-anchor="middle" x="579" y="-298.5" font-family="Helvetica,sans-Serif" font-size="10.00">Framework/test/testCcdbDatabase.cxx</text>
</g>
<!-- Node2 -->
<g id="node2" class="node"><title>Node2</title>
<g id="a_node2"><a xlink:href="DatabaseFactory_8h.html" target="_top" xlink:title="QualityControl/DatabaseFactory.h">
<polygon fill="none" stroke="black" points="32.5,-230 32.5,-249 197.5,-249 197.5,-230 32.5,-230"/>
<text text-anchor="middle" x="115" y="-237" font-family="Helvetica,sans-Serif" font-size="10.00">QualityControl/DatabaseFactory.h</text>
</a>
</g>
</g>
<!-- Node1&#45;&gt;Node2 -->
<g id="edge1" class="edge"><title>Node1&#45;&gt;Node2</title>
<path fill="none" stroke="midnightblue" d="M512.52,-291.475C427.587,-280.584 280.899,-261.774 191.438,-250.302"/>
<polygon fill="midnightblue" stroke="midnightblue" points="191.721,-246.81 181.357,-249.009 190.83,-253.753 191.721,-246.81"/>
</g>
<!-- Node13 -->
<g id="node13" class="node"><title>Node13</title>
<polygon fill="none" stroke="#bfbfbf" points="346.5,-112.5 346.5,-131.5 429.5,-131.5 429.5,-112.5 346.5,-112.5"/>
<text text-anchor="middle" x="388" y="-119.5" font-family="Helvetica,sans-Serif" font-size="10.00">unordered_map</text>
</g>
<!-- Node1&#45;&gt;Node13 -->
<g id="edge16" class="edge"><title>Node1&#45;&gt;Node13</title>
<path fill="none" stroke="midnightblue" d="M521.885,-291.48C496.115,-285.128 466.852,-274.098 446,-255 443.742,-252.932 411.047,-176.899 395.766,-141.186"/>
<polygon fill="midnightblue" stroke="midnightblue" points="398.945,-139.717 391.796,-131.898 392.508,-142.469 398.945,-139.717"/>
</g>
<!-- Node14 -->
<g id="node14" class="node"><title>Node14</title>
<g id="a_node14"><a xlink:href="CcdbDatabase_8h.html" target="_top" xlink:title="QualityControl/CcdbDatabase.h">
<polygon fill="none" stroke="black" points="243.5,-230 243.5,-249 398.5,-249 398.5,-230 243.5,-230"/>
<text text-anchor="middle" x="321" y="-237" font-family="Helvetica,sans-Serif" font-size="10.00">QualityControl/CcdbDatabase.h</text>
</a>
</g>
</g>
<!-- Node1&#45;&gt;Node14 -->
<g id="edge17" class="edge"><title>Node1&#45;&gt;Node14</title>
<path fill="none" stroke="midnightblue" d="M542.035,-291.475C496.15,-280.893 417.85,-262.836 367.815,-251.297"/>
<polygon fill="midnightblue" stroke="midnightblue" points="368.427,-247.846 357.897,-249.009 366.854,-254.667 368.427,-247.846"/>
</g>
<!-- Node16 -->
<g id="node16" class="node"><title>Node16</title>
<polygon fill="none" stroke="#bfbfbf" points="455.5,-230 455.5,-249 574.5,-249 574.5,-230 455.5,-230"/>
<text text-anchor="middle" x="515" y="-237" font-family="Helvetica,sans-Serif" font-size="10.00">boost/test/unit_test.hpp</text>
</g>
<!-- Node1&#45;&gt;Node16 -->
<g id="edge20" class="edge"><title>Node1&#45;&gt;Node16</title>
<path fill="none" stroke="midnightblue" d="M569.83,-291.475C559.85,-282.197 543.688,-267.171 531.491,-255.831"/>
<polygon fill="midnightblue" stroke="midnightblue" points="533.86,-253.255 524.153,-249.009 529.093,-258.381 533.86,-253.255"/>
</g>
<!-- Node17 -->
<g id="node17" class="node"><title>Node17</title>
<polygon fill="none" stroke="#bfbfbf" points="592.5,-224.5 592.5,-254.5 693.5,-254.5 693.5,-224.5 592.5,-224.5"/>
<text text-anchor="start" x="600.5" y="-242.5" font-family="Helvetica,sans-Serif" font-size="10.00">boost/property_tree</text>
<text text-anchor="middle" x="643" y="-231.5" font-family="Helvetica,sans-Serif" font-size="10.00">/ptree.hpp</text>
</g>
<!-- Node1&#45;&gt;Node17 -->
<g id="edge21" class="edge"><title>Node1&#45;&gt;Node17</title>
<path fill="none" stroke="midnightblue" d="M588.17,-291.475C596.595,-283.643 609.425,-271.714 620.556,-261.366"/>
<polygon fill="midnightblue" stroke="midnightblue" points="622.976,-263.895 627.916,-254.523 618.209,-258.769 622.976,-263.895"/>
</g>
<!-- Node18 -->
<g id="node18" class="node"><title>Node18</title>
<polygon fill="none" stroke="#bfbfbf" points="711.5,-224.5 711.5,-254.5 812.5,-254.5 812.5,-224.5 711.5,-224.5"/>
<text text-anchor="start" x="719.5" y="-242.5" font-family="Helvetica,sans-Serif" font-size="10.00">boost/property_tree</text>
<text text-anchor="middle" x="762" y="-231.5" font-family="Helvetica,sans-Serif" font-size="10.00">/json_parser.hpp</text>
</g>
<!-- Node1&#45;&gt;Node18 -->
<g id="edge22" class="edge"><title>Node1&#45;&gt;Node18</title>
<path fill="none" stroke="midnightblue" d="M605.219,-291.475C632.205,-282.701 674.997,-268.788 709.061,-257.712"/>
<polygon fill="midnightblue" stroke="midnightblue" points="710.443,-260.944 718.871,-254.523 708.278,-254.287 710.443,-260.944"/>
</g>
<!-- Node19 -->
<g id="node19" class="node"><title>Node19</title>
<polygon fill="none" stroke="#bfbfbf" points="831,-230 831,-249 881,-249 881,-230 831,-230"/>
<text text-anchor="middle" x="856" y="-237" font-family="Helvetica,sans-Serif" font-size="10.00">TH1F.h</text>
</g>
<!-- Node1&#45;&gt;Node19 -->
<g id="edge23" class="edge"><title>Node1&#45;&gt;Node19</title>
<path fill="none" stroke="midnightblue" d="M646.992,-291.498C696.25,-284.355 764.084,-272.479 822,-255 824.146,-254.352 826.34,-253.611 828.528,-252.814"/>
<polygon fill="midnightblue" stroke="midnightblue" points="829.922,-256.027 837.923,-249.081 827.337,-249.522 829.922,-256.027"/>
</g>
<!-- Node20 -->
<g id="node20" class="node"><title>Node20</title>
<polygon fill="none" stroke="#bfbfbf" points="899.5,-230 899.5,-249 946.5,-249 946.5,-230 899.5,-230"/>
<text text-anchor="middle" x="923" y="-237" font-family="Helvetica,sans-Serif" font-size="10.00">TFile.h</text>
</g>
<!-- Node1&#45;&gt;Node20 -->
<g id="edge24" class="edge"><title>Node1&#45;&gt;Node20</title>
<path fill="none" stroke="midnightblue" d="M673.267,-293.034C735.663,-286.804 818.802,-275.385 890,-255 892.151,-254.384 894.344,-253.658 896.527,-252.863"/>
<polygon fill="midnightblue" stroke="midnightblue" points="897.906,-256.081 905.857,-249.079 895.275,-249.594 897.906,-256.081"/>
</g>
<!-- Node3 -->
<g id="node3" class="node"><title>Node3</title>
<polygon fill="none" stroke="#bfbfbf" points="69,-112.5 69,-131.5 121,-131.5 121,-112.5 69,-112.5"/>
<text text-anchor="middle" x="95" y="-119.5" font-family="Helvetica,sans-Serif" font-size="10.00">memory</text>
</g>
<!-- Node2&#45;&gt;Node3 -->
<g id="edge2" class="edge"><title>Node2&#45;&gt;Node3</title>
<path fill="none" stroke="midnightblue" d="M113.448,-229.926C111.636,-219.883 108.561,-202.74 106,-188 103.303,-172.476 100.326,-154.85 98.1493,-141.873"/>
<polygon fill="midnightblue" stroke="midnightblue" points="101.572,-141.121 96.4701,-131.836 94.6681,-142.276 101.572,-141.121"/>
</g>
<!-- Node4 -->
<g id="node4" class="node"><title>Node4</title>
<polygon fill="none" stroke="#bfbfbf" points="0,-56.5 0,-75.5 116,-75.5 116,-56.5 0,-56.5"/>
<text text-anchor="middle" x="58" y="-63.5" font-family="Helvetica,sans-Serif" font-size="10.00">Common/Exceptions.h</text>
</g>
<!-- Node2&#45;&gt;Node4 -->
<g id="edge3" class="edge"><title>Node2&#45;&gt;Node4</title>
<path fill="none" stroke="midnightblue" d="M108.855,-229.932C96.7661,-212.512 70.1861,-171.28 60,-132 56.0545,-116.785 55.8088,-98.8955 56.4057,-85.7398"/>
<polygon fill="midnightblue" stroke="midnightblue" points="59.9098,-85.7922 57.0754,-75.5836 52.9249,-85.3317 59.9098,-85.7922"/>
</g>
<!-- Node5 -->
<g id="node5" class="node"><title>Node5</title>
<g id="a_node5"><a xlink:href="DatabaseInterface_8h.html" target="_top" xlink:title="QualityControl/DatabaseInterface.h">
<polygon fill="none" stroke="black" points="115,-168.5 115,-187.5 285,-187.5 285,-168.5 115,-168.5"/>
<text text-anchor="middle" x="200" y="-175.5" font-family="Helvetica,sans-Serif" font-size="10.00">QualityControl/DatabaseInterface.h</text>
</a>
</g>
</g>
<!-- Node2&#45;&gt;Node5 -->
<g id="edge4" class="edge"><title>Node2&#45;&gt;Node5</title>
<path fill="none" stroke="midnightblue" d="M127.178,-229.975C140.812,-220.431 163.132,-204.807 179.474,-193.368"/>
<polygon fill="midnightblue" stroke="midnightblue" points="181.659,-196.111 187.844,-187.509 177.645,-190.376 181.659,-196.111"/>
</g>
<!-- Node5&#45;&gt;Node3 -->
<g id="edge14" class="edge"><title>Node5&#45;&gt;Node3</title>
<path fill="none" stroke="midnightblue" d="M183.13,-168.324C166.291,-159.664 140.193,-146.242 120.762,-136.249"/>
<polygon fill="midnightblue" stroke="midnightblue" points="122.322,-133.116 111.828,-131.655 119.12,-139.341 122.322,-133.116"/>
</g>
<!-- Node6 -->
<g id="node6" class="node"><title>Node6</title>
<g id="a_node6"><a xlink:href="MonitorObject_8h.html" target="_top" xlink:title="QualityControl/MonitorObject.h">
<polygon fill="none" stroke="black" points="139.5,-112.5 139.5,-131.5 290.5,-131.5 290.5,-112.5 139.5,-112.5"/>
<text text-anchor="middle" x="215" y="-119.5" font-family="Helvetica,sans-Serif" font-size="10.00">QualityControl/MonitorObject.h</text>
</a>
</g>
</g>
<!-- Node5&#45;&gt;Node6 -->
<g id="edge5" class="edge"><title>Node5&#45;&gt;Node6</title>
<path fill="none" stroke="midnightblue" d="M202.477,-168.083C204.486,-160.849 207.386,-150.409 209.89,-141.397"/>
<polygon fill="midnightblue" stroke="midnightblue" points="213.265,-142.323 212.569,-131.751 206.52,-140.449 213.265,-142.323"/>
</g>
<!-- Node5&#45;&gt;Node13 -->
<g id="edge15" class="edge"><title>Node5&#45;&gt;Node13</title>
<path fill="none" stroke="midnightblue" d="M229.789,-168.444C261.829,-159.241 312.933,-144.562 348.353,-134.388"/>
<polygon fill="midnightblue" stroke="midnightblue" points="349.705,-137.641 358.35,-131.516 347.773,-130.913 349.705,-137.641"/>
</g>
<!-- Node6&#45;&gt;Node4 -->
<g id="edge9" class="edge"><title>Node6&#45;&gt;Node4</title>
<path fill="none" stroke="midnightblue" d="M190.123,-112.444C163.711,-103.359 121.785,-88.9388 92.2584,-78.7831"/>
<polygon fill="midnightblue" stroke="midnightblue" points="93.3554,-75.4593 82.7607,-75.5164 91.0786,-82.0787 93.3554,-75.4593"/>
</g>
<!-- Node7 -->
<g id="node7" class="node"><title>Node7</title>
<polygon fill="none" stroke="#bfbfbf" points="374,-56.5 374,-75.5 428,-75.5 428,-56.5 374,-56.5"/>
<text text-anchor="middle" x="401" y="-63.5" font-family="Helvetica,sans-Serif" font-size="10.00">iostream</text>
</g>
<!-- Node6&#45;&gt;Node7 -->
<g id="edge6" class="edge"><title>Node6&#45;&gt;Node7</title>
<path fill="none" stroke="midnightblue" d="M244.472,-112.444C276.824,-103.051 328.822,-87.9549 363.919,-77.7654"/>
<polygon fill="midnightblue" stroke="midnightblue" points="365.156,-81.0509 373.784,-74.9015 363.204,-74.3285 365.156,-81.0509"/>
</g>
<!-- Node8 -->
<g id="node8" class="node"><title>Node8</title>
<polygon fill="none" stroke="#bfbfbf" points="142.5,-56.5 142.5,-75.5 177.5,-75.5 177.5,-56.5 142.5,-56.5"/>
<text text-anchor="middle" x="160" y="-63.5" font-family="Helvetica,sans-Serif" font-size="10.00">map</text>
</g>
<!-- Node6&#45;&gt;Node8 -->
<g id="edge7" class="edge"><title>Node6&#45;&gt;Node8</title>
<path fill="none" stroke="midnightblue" d="M205.918,-112.083C197.829,-104.141 185.805,-92.3354 176.09,-82.7973"/>
<polygon fill="midnightblue" stroke="midnightblue" points="178.501,-80.2595 168.913,-75.7511 173.597,-85.2545 178.501,-80.2595"/>
</g>
<!-- Node9 -->
<g id="node9" class="node"><title>Node9</title>
<polygon fill="none" stroke="#bfbfbf" points="181.5,-0.5 181.5,-19.5 240.5,-19.5 240.5,-0.5 181.5,-0.5"/>
<text text-anchor="middle" x="211" y="-7.5" font-family="Helvetica,sans-Serif" font-size="10.00">TObject.h</text>
</g>
<!-- Node6&#45;&gt;Node9 -->
<g id="edge8" class="edge"><title>Node6&#45;&gt;Node9</title>
<path fill="none" stroke="midnightblue" d="M214.686,-112.368C214.041,-94.617 212.552,-53.6664 211.676,-29.5974"/>
<polygon fill="midnightblue" stroke="midnightblue" points="215.174,-29.4576 211.312,-19.5914 208.178,-29.712 215.174,-29.4576"/>
</g>
<!-- Node10 -->
<g id="node10" class="node"><title>Node10</title>
<g id="a_node10"><a xlink:href="Quality_8h.html" target="_top" xlink:title="QualityControl/Quality.h">
<polygon fill="none" stroke="black" points="234.5,-56.5 234.5,-75.5 355.5,-75.5 355.5,-56.5 234.5,-56.5"/>
<text text-anchor="middle" x="295" y="-63.5" font-family="Helvetica,sans-Serif" font-size="10.00">QualityControl/Quality.h</text>
</a>
</g>
</g>
<!-- Node6&#45;&gt;Node10 -->
<g id="edge10" class="edge"><title>Node6&#45;&gt;Node10</title>
<path fill="none" stroke="midnightblue" d="M227.853,-112.324C240.216,-103.979 259.13,-91.2122 273.737,-81.3524"/>
<polygon fill="midnightblue" stroke="midnightblue" points="275.848,-84.1503 282.179,-75.6545 271.932,-78.3483 275.848,-84.1503"/>
</g>
<!-- Node10&#45;&gt;Node9 -->
<g id="edge11" class="edge"><title>Node10&#45;&gt;Node9</title>
<path fill="none" stroke="midnightblue" d="M281.504,-56.324C268.4,-47.9002 248.288,-34.9709 232.893,-25.0741"/>
<polygon fill="midnightblue" stroke="midnightblue" points="234.767,-22.118 224.463,-19.6545 230.982,-28.0063 234.767,-22.118"/>
</g>
<!-- Node11 -->
<g id="node11" class="node"><title>Node11</title>
<polygon fill="none" stroke="#bfbfbf" points="328,-0.5 328,-19.5 380,-19.5 380,-0.5 328,-0.5"/>
<text text-anchor="middle" x="354" y="-7.5" font-family="Helvetica,sans-Serif" font-size="10.00">ostream</text>
</g>
<!-- Node10&#45;&gt;Node11 -->
<g id="edge12" class="edge"><title>Node10&#45;&gt;Node11</title>
<path fill="none" stroke="midnightblue" d="M304.479,-56.324C313.201,-48.3414 326.343,-36.3128 336.898,-26.6529"/>
<polygon fill="midnightblue" stroke="midnightblue" points="339.334,-29.1674 344.348,-19.8339 334.608,-24.0036 339.334,-29.1674"/>
</g>
<!-- Node12 -->
<g id="node12" class="node"><title>Node12</title>
<polygon fill="none" stroke="#bfbfbf" points="268.5,-0.5 268.5,-19.5 309.5,-19.5 309.5,-0.5 268.5,-0.5"/>
<text text-anchor="middle" x="289" y="-7.5" font-family="Helvetica,sans-Serif" font-size="10.00">string</text>
</g>
<!-- Node10&#45;&gt;Node12 -->
<g id="edge13" class="edge"><title>Node10&#45;&gt;Node12</title>
<path fill="none" stroke="midnightblue" d="M294.009,-56.083C293.214,-48.9272 292.071,-38.6353 291.077,-29.6911"/>
<polygon fill="midnightblue" stroke="midnightblue" points="294.555,-29.3034 289.972,-19.7511 287.598,-30.0765 294.555,-29.3034"/>
</g>
<!-- Node14&#45;&gt;Node5 -->
<g id="edge19" class="edge"><title>Node14&#45;&gt;Node5</title>
<path fill="none" stroke="midnightblue" d="M303.664,-229.975C283.447,-220.034 249.813,-203.495 226.358,-191.961"/>
<polygon fill="midnightblue" stroke="midnightblue" points="227.822,-188.781 217.304,-187.509 224.733,-195.063 227.822,-188.781"/>
</g>
<!-- Node15 -->
<g id="node15" class="node"><title>Node15</title>
<polygon fill="none" stroke="#bfbfbf" points="303.5,-168.5 303.5,-187.5 398.5,-187.5 398.5,-168.5 303.5,-168.5"/>
<text text-anchor="middle" x="351" y="-175.5" font-family="Helvetica,sans-Serif" font-size="10.00">CCDB/CcdbApi.h</text>
</g>
<!-- Node14&#45;&gt;Node15 -->
<g id="edge18" class="edge"><title>Node14&#45;&gt;Node15</title>
<path fill="none" stroke="midnightblue" d="M325.298,-229.975C329.665,-221.315 336.555,-207.649 342.103,-196.645"/>
<polygon fill="midnightblue" stroke="midnightblue" points="345.333,-198.014 346.71,-187.509 339.082,-194.863 345.333,-198.014"/>
</g>
</g>
</svg>
