<?xml version="1.0" encoding="UTF-8" standalone="no"?>
<!DOCTYPE svg PUBLIC "-//W3C//DTD SVG 1.1//EN"
 "http://www.w3.org/Graphics/SVG/1.1/DTD/svg11.dtd">
<!-- Generated by graphviz version 2.38.0 (20140413.2041)
 -->
<!-- Title: Framework/test/testWorkflow.cxx Pages: 1 -->
<!--zoomable 453 -->
<svg id="main" version="1.1" xmlns="http://www.w3.org/2000/svg" xmlns:xlink="http://www.w3.org/1999/xlink" xml:space="preserve" onload="init(evt)">
<style type="text/css"><![CDATA[
.edge:hover path { stroke: red; }
.edge:hover polygon { stroke: red; fill: red; }
]]></style>
<script type="text/javascript"><![CDATA[
var edges = document.getElementsByTagName('g');
if (edges && edges.length) {
  for (var i=0;i<edges.length;i++) {
    if (edges[i].id.substr(0,4)=='edge') {
      edges[i].setAttribute('class','edge');
    }
  }
}
]]></script>
        <defs>
                <circle id="rim" cx="0" cy="0" r="7"/>
                <circle id="rim2" cx="0" cy="0" r="3.5"/>
                <g id="zoomPlus">
                        <use xlink:href="#rim" fill="#404040">
                                <set attributeName="fill" to="#808080" begin="zoomplus.mouseover" end="zoomplus.mouseout"/>
                        </use>
                        <path d="M-4,0h8M0,-4v8" fill="none" stroke="white" stroke-width="1.5" pointer-events="none"/>
                </g>
                <g id="zoomMin">
                        <use xlink:href="#rim" fill="#404040">
                                <set attributeName="fill" to="#808080" begin="zoomminus.mouseover" end="zoomminus.mouseout"/>
                        </use>
                        <path d="M-4,0h8" fill="none" stroke="white" stroke-width="1.5" pointer-events="none"/>
                </g>
                <g id="dirArrow">
                        <path fill="none" stroke="white" stroke-width="1.5" d="M0,-3.0v7 M-2.5,-0.5L0,-3.0L2.5,-0.5"/>
                </g>
               <g id="resetDef">
                       <use xlink:href="#rim2" fill="#404040">
                               <set attributeName="fill" to="#808080" begin="reset.mouseover" end="reset.mouseout"/>
                       </use>
               </g>
        </defs>

<script type="text/javascript">
var viewWidth = 2603;
var viewHeight = 453;
var sectionId = 'dynsection-0';
</script>
<script xlink:href="svgpan.js"/>
<svg id="graph" class="graph">
<g id="viewport">
<title>Framework/test/testWorkflow.cxx</title>
<!-- Node1 -->
<g id="node1" class="node"><title>Node1</title>
<polygon fill="#bfbfbf" stroke="black" points="1965,-425.5 1965,-444.5 2129,-444.5 2129,-425.5 1965,-425.5"/>
<text text-anchor="middle" x="2047" y="-432.5" font-family="Helvetica,sans-Serif" font-size="10.00">Framework/test/testWorkflow.cxx</text>
</g>
<!-- Node2 -->
<g id="node2" class="node"><title>Node2</title>
<polygon fill="none" stroke="#bfbfbf" points="429.5,-364 429.5,-383 548.5,-383 548.5,-364 429.5,-364"/>
<text text-anchor="middle" x="489" y="-371" font-family="Helvetica,sans-Serif" font-size="10.00">getTestDataDirectory.h</text>
</g>
<!-- Node1&#45;&gt;Node2 -->
<g id="edge1" class="edge"><title>Node1&#45;&gt;Node2</title>
<path fill="none" stroke="midnightblue" d="M1964.9,-433.466C1694.42,-431.399 832.882,-422.305 557,-389 549.164,-388.054 540.894,-386.645 532.923,-385.072"/>
<polygon fill="midnightblue" stroke="midnightblue" points="533.546,-381.626 523.043,-383.013 532.119,-388.479 533.546,-381.626"/>
</g>
<!-- Node3 -->
<g id="node3" class="node"><title>Node3</title>
<g id="a_node3"><a xlink:href="Checker_8h.html" target="_top" xlink:title="QualityControl/Checker.h">
<polygon fill="none" stroke="black" points="566.5,-364 566.5,-383 693.5,-383 693.5,-364 566.5,-364"/>
<text text-anchor="middle" x="630" y="-371" font-family="Helvetica,sans-Serif" font-size="10.00">QualityControl/Checker.h</text>
</a>
</g>
</g>
<!-- Node1&#45;&gt;Node3 -->
<g id="edge2" class="edge"><title>Node1&#45;&gt;Node3</title>
<path fill="none" stroke="midnightblue" d="M1964.95,-430.555C1711.78,-419.924 945.358,-387.742 703.769,-377.598"/>
<polygon fill="midnightblue" stroke="midnightblue" points="703.825,-374.097 693.687,-377.174 703.531,-381.091 703.825,-374.097"/>
</g>
<!-- Node38 -->
<g id="node38" class="node"><title>Node38</title>
<g id="a_node38"><a xlink:href="InfrastructureGenerator_8h.html" target="_top" xlink:title="QualityControl/Infrastructure\lGenerator.h">
<polygon fill="none" stroke="black" points="1737,-358.5 1737,-388.5 1877,-388.5 1877,-358.5 1737,-358.5"/>
<text text-anchor="start" x="1745" y="-376.5" font-family="Helvetica,sans-Serif" font-size="10.00">QualityControl/Infrastructure</text>
<text text-anchor="middle" x="1807" y="-365.5" font-family="Helvetica,sans-Serif" font-size="10.00">Generator.h</text>
</a>
</g>
</g>
<!-- Node1&#45;&gt;Node38 -->
<g id="edge52" class="edge"><title>Node1&#45;&gt;Node38</title>
<path fill="none" stroke="midnightblue" d="M2012.61,-425.475C1976.39,-416.494 1918.44,-402.128 1873.28,-390.933"/>
<polygon fill="midnightblue" stroke="midnightblue" points="1874.11,-387.532 1863.56,-388.523 1872.43,-394.327 1874.11,-387.532"/>
</g>
<!-- Node41 -->
<g id="node41" class="node"><title>Node41</title>
<g id="a_node41"><a xlink:href="runnerUtils_8h.html" target="_top" xlink:title="QualityControl/runnerUtils.h">
<polygon fill="none" stroke="black" points="1895.5,-364 1895.5,-383 2032.5,-383 2032.5,-364 1895.5,-364"/>
<text text-anchor="middle" x="1964" y="-371" font-family="Helvetica,sans-Serif" font-size="10.00">QualityControl/runnerUtils.h</text>
</a>
</g>
</g>
<!-- Node1&#45;&gt;Node41 -->
<g id="edge56" class="edge"><title>Node1&#45;&gt;Node41</title>
<path fill="none" stroke="midnightblue" d="M2035.11,-425.475C2021.8,-415.931 2000,-400.307 1984.04,-388.868"/>
<polygon fill="midnightblue" stroke="midnightblue" points="1986.04,-385.991 1975.87,-383.009 1981.96,-391.68 1986.04,-385.991"/>
</g>
<!-- Node43 -->
<g id="node43" class="node"><title>Node43</title>
<polygon fill="none" stroke="#bfbfbf" points="2051,-364 2051,-383 2211,-383 2211,-364 2051,-364"/>
<text text-anchor="middle" x="2131" y="-371" font-family="Helvetica,sans-Serif" font-size="10.00">Framework/runDataProcessing.h</text>
</g>
<!-- Node1&#45;&gt;Node43 -->
<g id="edge58" class="edge"><title>Node1&#45;&gt;Node43</title>
<path fill="none" stroke="midnightblue" d="M2059.04,-425.475C2072.51,-415.931 2094.57,-400.307 2110.72,-388.868"/>
<polygon fill="midnightblue" stroke="midnightblue" points="2112.85,-391.645 2118.99,-383.009 2108.8,-385.933 2112.85,-391.645"/>
</g>
<!-- Node44 -->
<g id="node44" class="node"><title>Node44</title>
<polygon fill="none" stroke="#bfbfbf" points="2229.5,-364 2229.5,-383 2370.5,-383 2370.5,-364 2229.5,-364"/>
<text text-anchor="middle" x="2300" y="-371" font-family="Helvetica,sans-Serif" font-size="10.00">Framework/ControlService.h</text>
</g>
<!-- Node1&#45;&gt;Node44 -->
<g id="edge59" class="edge"><title>Node1&#45;&gt;Node44</title>
<path fill="none" stroke="midnightblue" d="M2083.25,-425.475C2128.15,-414.915 2204.71,-396.911 2253.78,-385.369"/>
<polygon fill="midnightblue" stroke="midnightblue" points="2254.89,-388.706 2263.82,-383.009 2253.28,-381.891 2254.89,-388.706"/>
</g>
<!-- Node45 -->
<g id="node45" class="node"><title>Node45</title>
<polygon fill="none" stroke="#bfbfbf" points="2389,-364 2389,-383 2527,-383 2527,-364 2389,-364"/>
<text text-anchor="middle" x="2458" y="-371" font-family="Helvetica,sans-Serif" font-size="10.00">Framework/DataSampling.h</text>
</g>
<!-- Node1&#45;&gt;Node45 -->
<g id="edge60" class="edge"><title>Node1&#45;&gt;Node45</title>
<path fill="none" stroke="midnightblue" d="M2117.63,-425.484C2185.14,-417.102 2289.71,-403.484 2380,-389 2387.93,-387.728 2396.29,-386.284 2404.48,-384.811"/>
<polygon fill="midnightblue" stroke="midnightblue" points="2405.13,-388.25 2414.34,-383.011 2403.87,-381.364 2405.13,-388.25"/>
</g>
<!-- Node46 -->
<g id="node46" class="node"><title>Node46</title>
<polygon fill="none" stroke="#bfbfbf" points="2545,-364 2545,-383 2595,-383 2595,-364 2545,-364"/>
<text text-anchor="middle" x="2570" y="-371" font-family="Helvetica,sans-Serif" font-size="10.00">TH1F.h</text>
</g>
<!-- Node1&#45;&gt;Node46 -->
<g id="edge61" class="edge"><title>Node1&#45;&gt;Node46</title>
<path fill="none" stroke="midnightblue" d="M2129.21,-434.175C2227.45,-432.621 2396.1,-424.341 2536,-389 2538.36,-388.403 2540.77,-387.665 2543.16,-386.839"/>
<polygon fill="midnightblue" stroke="midnightblue" points="2544.68,-390.004 2552.72,-383.099 2542.13,-383.486 2544.68,-390.004"/>
</g>
<!-- Node4 -->
<g id="node4" class="node"><title>Node4</title>
<polygon fill="none" stroke="#bfbfbf" points="550,-297 550,-316 596,-316 596,-297 550,-297"/>
<text text-anchor="middle" x="573" y="-304" font-family="Helvetica,sans-Serif" font-size="10.00">chrono</text>
</g>
<!-- Node3&#45;&gt;Node4 -->
<g id="edge3" class="edge"><title>Node3&#45;&gt;Node4</title>
<path fill="none" stroke="midnightblue" d="M622.313,-363.734C613.339,-353.5 598.312,-336.364 587.199,-323.692"/>
<polygon fill="midnightblue" stroke="midnightblue" points="589.79,-321.338 580.565,-316.127 584.527,-325.954 589.79,-321.338"/>
</g>
<!-- Node5 -->
<g id="node5" class="node"><title>Node5</title>
<polygon fill="none" stroke="#bfbfbf" points="1392,-62 1392,-81 1444,-81 1444,-62 1392,-62"/>
<text text-anchor="middle" x="1418" y="-69" font-family="Helvetica,sans-Serif" font-size="10.00">memory</text>
</g>
<!-- Node3&#45;&gt;Node5 -->
<g id="edge4" class="edge"><title>Node3&#45;&gt;Node5</title>
<path fill="none" stroke="midnightblue" d="M693.765,-369.756C891.795,-360.395 1483,-325.767 1483,-246 1483,-246 1483,-246 1483,-188 1483,-148.187 1453.31,-109.428 1434.06,-88.4862"/>
<polygon fill="midnightblue" stroke="midnightblue" points="1436.47,-85.948 1427.04,-81.1278 1431.41,-90.7796 1436.47,-85.948"/>
</g>
<!-- Node6 -->
<g id="node6" class="node"><title>Node6</title>
<polygon fill="none" stroke="#bfbfbf" points="781,-297 781,-316 873,-316 873,-297 781,-297"/>
<text text-anchor="middle" x="827" y="-304" font-family="Helvetica,sans-Serif" font-size="10.00">Common/Timer.h</text>
</g>
<!-- Node3&#45;&gt;Node6 -->
<g id="edge5" class="edge"><title>Node3&#45;&gt;Node6</title>
<path fill="none" stroke="midnightblue" d="M656.16,-363.869C690.844,-352.424 752.199,-332.181 791.169,-319.322"/>
<polygon fill="midnightblue" stroke="midnightblue" points="792.646,-322.521 801.045,-316.064 790.452,-315.873 792.646,-322.521"/>
</g>
<!-- Node7 -->
<g id="node7" class="node"><title>Node7</title>
<polygon fill="none" stroke="#bfbfbf" points="1591.5,-56.5 1591.5,-86.5 1726.5,-86.5 1726.5,-56.5 1591.5,-56.5"/>
<text text-anchor="start" x="1599.5" y="-74.5" font-family="Helvetica,sans-Serif" font-size="10.00">Configuration/Configuration</text>
<text text-anchor="middle" x="1659" y="-63.5" font-family="Helvetica,sans-Serif" font-size="10.00">Interface.h</text>
</g>
<!-- Node3&#45;&gt;Node7 -->
<g id="edge6" class="edge"><title>Node3&#45;&gt;Node7</title>
<path fill="none" stroke="midnightblue" d="M693.539,-371.827C926.038,-368.537 1717,-349.722 1717,-246 1717,-246 1717,-246 1717,-188 1717,-152.542 1694.9,-116.85 1677.98,-94.7229"/>
<polygon fill="midnightblue" stroke="midnightblue" points="1680.54,-92.3177 1671.59,-86.6608 1675.06,-96.6694 1680.54,-92.3177"/>
</g>
<!-- Node8 -->
<g id="node8" class="node"><title>Node8</title>
<polygon fill="none" stroke="#bfbfbf" points="0,-297 0,-316 98,-316 98,-297 0,-297"/>
<text text-anchor="middle" x="49" y="-304" font-family="Helvetica,sans-Serif" font-size="10.00">Framework/Task.h</text>
</g>
<!-- Node3&#45;&gt;Node8 -->
<g id="edge7" class="edge"><title>Node3&#45;&gt;Node8</title>
<path fill="none" stroke="midnightblue" d="M591.499,-363.982C580.408,-361.766 568.263,-359.564 557,-358 358.267,-330.409 304.999,-354.442 107,-322 101.16,-321.043 95.0444,-319.793 89.0656,-318.428"/>
<polygon fill="midnightblue" stroke="midnightblue" points="89.7472,-314.992 79.2057,-316.054 88.1084,-321.798 89.7472,-314.992"/>
</g>
<!-- Node9 -->
<g id="node9" class="node"><title>Node9</title>
<polygon fill="none" stroke="#bfbfbf" points="116.5,-297 116.5,-316 267.5,-316 267.5,-297 116.5,-297"/>
<text text-anchor="middle" x="192" y="-304" font-family="Helvetica,sans-Serif" font-size="10.00">Monitoring/MonitoringFactory.h</text>
</g>
<!-- Node3&#45;&gt;Node9 -->
<g id="edge8" class="edge"><title>Node3&#45;&gt;Node9</title>
<path fill="none" stroke="midnightblue" d="M589.543,-363.97C578.976,-361.878 567.582,-359.742 557,-358 435.371,-337.982 403.972,-339.805 282,-322 272.702,-320.643 262.875,-319.135 253.265,-317.62"/>
<polygon fill="midnightblue" stroke="midnightblue" points="253.787,-314.159 243.361,-316.044 252.687,-321.072 253.787,-314.159"/>
</g>
<!-- Node10 -->
<g id="node10" class="node"><title>Node10</title>
<g id="a_node10"><a xlink:href="CheckInterface_8h.html" target="_top" xlink:title="QualityControl/CheckInterface.h">
<polygon fill="none" stroke="black" points="324.5,-179.5 324.5,-198.5 481.5,-198.5 481.5,-179.5 324.5,-179.5"/>
<text text-anchor="middle" x="403" y="-186.5" font-family="Helvetica,sans-Serif" font-size="10.00">QualityControl/CheckInterface.h</text>
</a>
</g>
</g>
<!-- Node3&#45;&gt;Node10 -->
<g id="edge9" class="edge"><title>Node3&#45;&gt;Node10</title>
<path fill="none" stroke="midnightblue" d="M604.168,-363.943C581.01,-355.51 546.808,-341.119 521,-322 475.486,-288.282 434.355,-234.712 414.88,-207.339"/>
<polygon fill="midnightblue" stroke="midnightblue" points="417.524,-205.012 408.923,-198.826 411.788,-209.026 417.524,-205.012"/>
</g>
<!-- Node11 -->
<g id="node11" class="node"><title>Node11</title>
<g id="a_node11"><a xlink:href="MonitorObject_8h.html" target="_top" xlink:title="QualityControl/MonitorObject.h">
<polygon fill="none" stroke="black" points="378.5,-123.5 378.5,-142.5 529.5,-142.5 529.5,-123.5 378.5,-123.5"/>
<text text-anchor="middle" x="454" y="-130.5" font-family="Helvetica,sans-Serif" font-size="10.00">QualityControl/MonitorObject.h</text>
</a>
</g>
</g>
<!-- Node3&#45;&gt;Node11 -->
<g id="edge24" class="edge"><title>Node3&#45;&gt;Node11</title>
<path fill="none" stroke="midnightblue" d="M584.305,-363.975C510.398,-347.347 367.602,-302.706 315,-199 300.176,-169.775 331.691,-153.628 368.434,-144.739"/>
<polygon fill="midnightblue" stroke="midnightblue" points="369.38,-148.114 378.381,-142.525 367.859,-141.281 369.38,-148.114"/>
</g>
<!-- Node19 -->
<g id="node19" class="node"><title>Node19</title>
<g id="a_node19"><a xlink:href="DatabaseInterface_8h.html" target="_top" xlink:title="QualityControl/DatabaseInterface.h">
<polygon fill="none" stroke="black" points="500,-179.5 500,-198.5 670,-198.5 670,-179.5 500,-179.5"/>
<text text-anchor="middle" x="585" y="-186.5" font-family="Helvetica,sans-Serif" font-size="10.00">QualityControl/DatabaseInterface.h</text>
</a>
</g>
</g>
<!-- Node3&#45;&gt;Node19 -->
<g id="edge20" class="edge"><title>Node3&#45;&gt;Node19</title>
<path fill="none" stroke="midnightblue" d="M601.688,-363.912C581.46,-356.25 555.374,-342.947 541,-322 518.978,-289.908 514.491,-270.247 531,-235 537.045,-222.094 548.812,-211.599 559.823,-204"/>
<polygon fill="midnightblue" stroke="midnightblue" points="561.828,-206.872 568.367,-198.536 558.057,-200.975 561.828,-206.872"/>
</g>
<!-- Node21 -->
<g id="node21" class="node"><title>Node21</title>
<g id="a_node21"><a xlink:href="QcInfoLogger_8h.html" target="_top" xlink:title="QualityControl/QcInfoLogger.h">
<polygon fill="none" stroke="black" points="613.5,-297 613.5,-316 762.5,-316 762.5,-297 613.5,-297"/>
<text text-anchor="middle" x="688" y="-304" font-family="Helvetica,sans-Serif" font-size="10.00">QualityControl/QcInfoLogger.h</text>
</a>
</g>
</g>
<!-- Node3&#45;&gt;Node21 -->
<g id="edge25" class="edge"><title>Node3&#45;&gt;Node21</title>
<path fill="none" stroke="midnightblue" d="M637.822,-363.734C646.953,-353.5 662.244,-336.364 673.551,-323.692"/>
<polygon fill="midnightblue" stroke="midnightblue" points="676.255,-325.919 680.302,-316.127 671.032,-321.258 676.255,-325.919"/>
</g>
<!-- Node10&#45;&gt;Node11 -->
<g id="edge10" class="edge"><title>Node10&#45;&gt;Node11</title>
<path fill="none" stroke="midnightblue" d="M411.422,-179.083C418.848,-171.22 429.852,-159.569 438.812,-150.081"/>
<polygon fill="midnightblue" stroke="midnightblue" points="441.413,-152.424 445.735,-142.751 436.324,-147.618 441.413,-152.424"/>
</g>
<!-- Node16 -->
<g id="node16" class="node"><title>Node16</title>
<g id="a_node16"><a xlink:href="Quality_8h.html" target="_top" xlink:title="QualityControl/Quality.h">
<polygon fill="none" stroke="black" points="688.5,-62 688.5,-81 809.5,-81 809.5,-62 688.5,-62"/>
<text text-anchor="middle" x="749" y="-69" font-family="Helvetica,sans-Serif" font-size="10.00">QualityControl/Quality.h</text>
</a>
</g>
</g>
<!-- Node10&#45;&gt;Node16 -->
<g id="edge19" class="edge"><title>Node10&#45;&gt;Node16</title>
<path fill="none" stroke="midnightblue" d="M432.974,-179.441C460.654,-171.202 502.697,-157.834 538,-143 555.959,-135.454 558.908,-130.22 577,-123 618.566,-106.412 667.708,-92.5246 702.799,-83.5385"/>
<polygon fill="midnightblue" stroke="midnightblue" points="703.92,-86.8652 712.759,-81.0228 702.206,-80.0784 703.92,-86.8652"/>
</g>
<!-- Node12 -->
<g id="node12" class="node"><title>Node12</title>
<polygon fill="none" stroke="#bfbfbf" points="616,-62 616,-81 670,-81 670,-62 616,-62"/>
<text text-anchor="middle" x="643" y="-69" font-family="Helvetica,sans-Serif" font-size="10.00">iostream</text>
</g>
<!-- Node11&#45;&gt;Node12 -->
<g id="edge11" class="edge"><title>Node11&#45;&gt;Node12</title>
<path fill="none" stroke="midnightblue" d="M486.228,-123.499C517.389,-115.049 565.809,-101.315 607,-87 608.909,-86.3364 610.866,-85.6293 612.832,-84.8978"/>
<polygon fill="midnightblue" stroke="midnightblue" points="614.507,-88.0022 622.569,-81.1279 611.98,-81.4743 614.507,-88.0022"/>
</g>
<!-- Node13 -->
<g id="node13" class="node"><title>Node13</title>
<polygon fill="none" stroke="#bfbfbf" points="390.5,-62 390.5,-81 425.5,-81 425.5,-62 390.5,-62"/>
<text text-anchor="middle" x="408" y="-69" font-family="Helvetica,sans-Serif" font-size="10.00">map</text>
</g>
<!-- Node11&#45;&gt;Node13 -->
<g id="edge12" class="edge"><title>Node11&#45;&gt;Node13</title>
<path fill="none" stroke="midnightblue" d="M447.409,-123.475C440.509,-114.55 429.498,-100.307 420.866,-89.1425"/>
<polygon fill="midnightblue" stroke="midnightblue" points="423.464,-86.7798 414.578,-81.0091 417.926,-91.0612 423.464,-86.7798"/>
</g>
<!-- Node14 -->
<g id="node14" class="node"><title>Node14</title>
<polygon fill="none" stroke="#bfbfbf" points="535.5,-0.5 535.5,-19.5 594.5,-19.5 594.5,-0.5 535.5,-0.5"/>
<text text-anchor="middle" x="565" y="-7.5" font-family="Helvetica,sans-Serif" font-size="10.00">TObject.h</text>
</g>
<!-- Node11&#45;&gt;Node14 -->
<g id="edge13" class="edge"><title>Node11&#45;&gt;Node14</title>
<path fill="none" stroke="midnightblue" d="M453.896,-123.455C454.151,-108.221 456.743,-76.0863 473,-56 486.275,-39.5986 507.012,-28.7332 525.441,-21.7959"/>
<polygon fill="midnightblue" stroke="midnightblue" points="526.808,-25.0259 535.096,-18.4268 524.501,-18.4167 526.808,-25.0259"/>
</g>
<!-- Node15 -->
<g id="node15" class="node"><title>Node15</title>
<polygon fill="none" stroke="#bfbfbf" points="482,-62 482,-81 598,-81 598,-62 482,-62"/>
<text text-anchor="middle" x="540" y="-69" font-family="Helvetica,sans-Serif" font-size="10.00">Common/Exceptions.h</text>
</g>
<!-- Node11&#45;&gt;Node15 -->
<g id="edge14" class="edge"><title>Node11&#45;&gt;Node15</title>
<path fill="none" stroke="midnightblue" d="M466.322,-123.475C480.116,-113.931 502.699,-98.3073 519.232,-86.8683"/>
<polygon fill="midnightblue" stroke="midnightblue" points="521.469,-89.577 527.701,-81.0091 517.486,-83.8205 521.469,-89.577"/>
</g>
<!-- Node11&#45;&gt;Node16 -->
<g id="edge15" class="edge"><title>Node11&#45;&gt;Node16</title>
<path fill="none" stroke="midnightblue" d="M497.152,-123.461C542.458,-114.474 615.763,-99.8732 679,-87 685.145,-85.749 691.592,-84.4269 697.981,-83.1106"/>
<polygon fill="midnightblue" stroke="midnightblue" points="698.838,-86.5076 707.924,-81.0578 697.422,-79.6522 698.838,-86.5076"/>
</g>
<!-- Node16&#45;&gt;Node14 -->
<g id="edge16" class="edge"><title>Node16&#45;&gt;Node14</title>
<path fill="none" stroke="midnightblue" d="M722.637,-61.9751C690.665,-51.6362 636.624,-34.1611 600.878,-22.6017"/>
<polygon fill="midnightblue" stroke="midnightblue" points="601.906,-19.2558 591.314,-19.5091 599.752,-25.9162 601.906,-19.2558"/>
</g>
<!-- Node17 -->
<g id="node17" class="node"><title>Node17</title>
<polygon fill="none" stroke="#bfbfbf" points="723,-0.5 723,-19.5 775,-19.5 775,-0.5 723,-0.5"/>
<text text-anchor="middle" x="749" y="-7.5" font-family="Helvetica,sans-Serif" font-size="10.00">ostream</text>
</g>
<!-- Node16&#45;&gt;Node17 -->
<g id="edge17" class="edge"><title>Node16&#45;&gt;Node17</title>
<path fill="none" stroke="midnightblue" d="M749,-61.9751C749,-53.5803 749,-40.4806 749,-29.6631"/>
<polygon fill="midnightblue" stroke="midnightblue" points="752.5,-29.5091 749,-19.5091 745.5,-29.5091 752.5,-29.5091"/>
</g>
<!-- Node18 -->
<g id="node18" class="node"><title>Node18</title>
<polygon fill="none" stroke="#bfbfbf" points="1316.5,-0.5 1316.5,-19.5 1357.5,-19.5 1357.5,-0.5 1316.5,-0.5"/>
<text text-anchor="middle" x="1337" y="-7.5" font-family="Helvetica,sans-Serif" font-size="10.00">string</text>
</g>
<!-- Node16&#45;&gt;Node18 -->
<g id="edge18" class="edge"><title>Node16&#45;&gt;Node18</title>
<path fill="none" stroke="midnightblue" d="M802.292,-61.9757C816.475,-59.8599 831.8,-57.7107 846,-56 1019.7,-35.0748 1229.01,-18.8785 1306.35,-13.1982"/>
<polygon fill="midnightblue" stroke="midnightblue" points="1306.66,-16.6857 1316.37,-12.4671 1306.15,-9.70422 1306.66,-16.6857"/>
</g>
<!-- Node19&#45;&gt;Node5 -->
<g id="edge22" class="edge"><title>Node19&#45;&gt;Node5</title>
<path fill="none" stroke="midnightblue" d="M670.203,-182.11C685.77,-181.057 701.872,-179.983 717,-179 846.529,-170.585 1176,-181.373 1300,-143 1310.27,-139.822 1364.56,-106.182 1395.8,-86.5428"/>
<polygon fill="midnightblue" stroke="midnightblue" points="1397.72,-89.4708 1404.31,-81.1789 1393.98,-83.5482 1397.72,-89.4708"/>
</g>
<!-- Node19&#45;&gt;Node11 -->
<g id="edge21" class="edge"><title>Node19&#45;&gt;Node11</title>
<path fill="none" stroke="midnightblue" d="M564.243,-179.444C542.684,-170.557 508.737,-156.563 484.206,-146.451"/>
<polygon fill="midnightblue" stroke="midnightblue" points="485.239,-143.092 474.66,-142.516 482.572,-149.563 485.239,-143.092"/>
</g>
<!-- Node20 -->
<g id="node20" class="node"><title>Node20</title>
<polygon fill="none" stroke="#bfbfbf" points="586.5,-123.5 586.5,-142.5 669.5,-142.5 669.5,-123.5 586.5,-123.5"/>
<text text-anchor="middle" x="628" y="-130.5" font-family="Helvetica,sans-Serif" font-size="10.00">unordered_map</text>
</g>
<!-- Node19&#45;&gt;Node20 -->
<g id="edge23" class="edge"><title>Node19&#45;&gt;Node20</title>
<path fill="none" stroke="midnightblue" d="M592.101,-179.083C598.237,-171.377 607.27,-160.033 614.739,-150.653"/>
<polygon fill="midnightblue" stroke="midnightblue" points="617.54,-152.754 621.032,-142.751 612.064,-148.394 617.54,-152.754"/>
</g>
<!-- Node21&#45;&gt;Node12 -->
<g id="edge51" class="edge"><title>Node21&#45;&gt;Node12</title>
<path fill="none" stroke="midnightblue" d="M689.149,-296.819C692.36,-270.03 699.824,-186.632 678,-123 673.708,-110.485 665.359,-98.2427 657.892,-88.9466"/>
<polygon fill="midnightblue" stroke="midnightblue" points="660.559,-86.6805 651.424,-81.3144 655.219,-91.2062 660.559,-86.6805"/>
</g>
<!-- Node22 -->
<g id="node22" class="node"><title>Node22</title>
<g id="a_node22"><a xlink:href="TaskInterface_8h.html" target="_top" xlink:title="TaskInterface.h">
<polygon fill="none" stroke="black" points="1145.5,-235.5 1145.5,-254.5 1230.5,-254.5 1230.5,-235.5 1145.5,-235.5"/>
<text text-anchor="middle" x="1188" y="-242.5" font-family="Helvetica,sans-Serif" font-size="10.00">TaskInterface.h</text>
</a>
</g>
</g>
<!-- Node21&#45;&gt;Node22 -->
<g id="edge26" class="edge"><title>Node21&#45;&gt;Node22</title>
<path fill="none" stroke="midnightblue" d="M734.132,-296.997C746.414,-294.881 759.689,-292.727 772,-291 902.123,-272.75 1056.04,-257.824 1135.17,-250.636"/>
<polygon fill="midnightblue" stroke="midnightblue" points="1135.73,-254.1 1145.37,-249.715 1135.1,-247.129 1135.73,-254.1"/>
</g>
<!-- Node37 -->
<g id="node37" class="node"><title>Node37</title>
<polygon fill="none" stroke="#bfbfbf" points="540,-235.5 540,-254.5 670,-254.5 670,-235.5 540,-235.5"/>
<text text-anchor="middle" x="605" y="-242.5" font-family="Helvetica,sans-Serif" font-size="10.00">InfoLogger/InfoLogger.hxx</text>
</g>
<!-- Node21&#45;&gt;Node37 -->
<g id="edge50" class="edge"><title>Node21&#45;&gt;Node37</title>
<path fill="none" stroke="midnightblue" d="M676.108,-296.975C662.795,-287.431 641,-271.807 625.043,-260.368"/>
<polygon fill="midnightblue" stroke="midnightblue" points="627.036,-257.491 616.87,-254.509 622.958,-263.18 627.036,-257.491"/>
</g>
<!-- Node22&#45;&gt;Node5 -->
<g id="edge27" class="edge"><title>Node22&#45;&gt;Node5</title>
<path fill="none" stroke="midnightblue" d="M1230.63,-242.208C1292.06,-238.63 1400.79,-228.234 1425,-199 1450.51,-168.19 1436.24,-117.316 1425.84,-90.4323"/>
<polygon fill="midnightblue" stroke="midnightblue" points="1429.04,-89.0164 1422,-81.0978 1422.57,-91.6776 1429.04,-89.0164"/>
</g>
<!-- Node22&#45;&gt;Node7 -->
<g id="edge31" class="edge"><title>Node22&#45;&gt;Node7</title>
<path fill="none" stroke="midnightblue" d="M1230.87,-241.638C1337.06,-234.786 1607.54,-210.878 1660,-143 1670,-130.063 1669.29,-111.432 1666.33,-96.5715"/>
<polygon fill="midnightblue" stroke="midnightblue" points="1669.65,-95.4426 1663.89,-86.5526 1662.85,-97.0964 1669.65,-95.4426"/>
</g>
<!-- Node23 -->
<g id="node23" class="node"><title>Node23</title>
<polygon fill="none" stroke="#bfbfbf" points="1224.5,-179.5 1224.5,-198.5 1273.5,-198.5 1273.5,-179.5 1224.5,-179.5"/>
<text text-anchor="middle" x="1249" y="-186.5" font-family="Helvetica,sans-Serif" font-size="10.00">cassert</text>
</g>
<!-- Node22&#45;&gt;Node23 -->
<g id="edge28" class="edge"><title>Node22&#45;&gt;Node23</title>
<path fill="none" stroke="midnightblue" d="M1197.8,-235.324C1206.82,-227.341 1220.41,-215.313 1231.32,-205.653"/>
<polygon fill="midnightblue" stroke="midnightblue" points="1233.85,-208.083 1239.02,-198.834 1229.21,-202.842 1233.85,-208.083"/>
</g>
<!-- Node24 -->
<g id="node24" class="node"><title>Node24</title>
<polygon fill="none" stroke="#bfbfbf" points="1291.5,-179.5 1291.5,-198.5 1416.5,-198.5 1416.5,-179.5 1291.5,-179.5"/>
<text text-anchor="middle" x="1354" y="-186.5" font-family="Helvetica,sans-Serif" font-size="10.00">Framework/InitContext.h</text>
</g>
<!-- Node22&#45;&gt;Node24 -->
<g id="edge29" class="edge"><title>Node22&#45;&gt;Node24</title>
<path fill="none" stroke="midnightblue" d="M1214.3,-235.444C1242.35,-226.32 1286.94,-211.813 1318.18,-201.651"/>
<polygon fill="midnightblue" stroke="midnightblue" points="1319.39,-204.938 1327.82,-198.516 1317.23,-198.282 1319.39,-204.938"/>
</g>
<!-- Node25 -->
<g id="node25" class="node"><title>Node25</title>
<polygon fill="none" stroke="#bfbfbf" points="726,-179.5 726,-198.5 886,-198.5 886,-179.5 726,-179.5"/>
<text text-anchor="middle" x="806" y="-186.5" font-family="Helvetica,sans-Serif" font-size="10.00">Framework/ProcessingContext.h</text>
</g>
<!-- Node22&#45;&gt;Node25 -->
<g id="edge30" class="edge"><title>Node22&#45;&gt;Node25</title>
<path fill="none" stroke="midnightblue" d="M1145.29,-237.963C1080.17,-228.757 955.331,-211.11 876.592,-199.979"/>
<polygon fill="midnightblue" stroke="midnightblue" points="876.667,-196.455 866.275,-198.521 875.687,-203.386 876.667,-196.455"/>
</g>
<!-- Node26 -->
<g id="node26" class="node"><title>Node26</title>
<g id="a_node26"><a xlink:href="Activity_8h.html" target="_top" xlink:title="QualityControl/Activity.h">
<polygon fill="none" stroke="black" points="904.5,-179.5 904.5,-198.5 1027.5,-198.5 1027.5,-179.5 904.5,-179.5"/>
<text text-anchor="middle" x="966" y="-186.5" font-family="Helvetica,sans-Serif" font-size="10.00">QualityControl/Activity.h</text>
</a>
</g>
</g>
<!-- Node22&#45;&gt;Node26 -->
<g id="edge32" class="edge"><title>Node22&#45;&gt;Node26</title>
<path fill="none" stroke="midnightblue" d="M1152.82,-235.444C1114.42,-226.102 1052.82,-211.119 1010.94,-200.933"/>
<polygon fill="midnightblue" stroke="midnightblue" points="1011.56,-197.479 1001.01,-198.516 1009.9,-204.281 1011.56,-197.479"/>
</g>
<!-- Node27 -->
<g id="node27" class="node"><title>Node27</title>
<g id="a_node27"><a xlink:href="ObjectsManager_8h.html" target="_top" xlink:title="QualityControl/ObjectsManager.h">
<polygon fill="none" stroke="black" points="1045.5,-179.5 1045.5,-198.5 1206.5,-198.5 1206.5,-179.5 1045.5,-179.5"/>
<text text-anchor="middle" x="1126" y="-186.5" font-family="Helvetica,sans-Serif" font-size="10.00">QualityControl/ObjectsManager.h</text>
</a>
</g>
</g>
<!-- Node22&#45;&gt;Node27 -->
<g id="edge33" class="edge"><title>Node22&#45;&gt;Node27</title>
<path fill="none" stroke="midnightblue" d="M1178.04,-235.324C1168.87,-227.341 1155.06,-215.313 1143.97,-205.653"/>
<polygon fill="midnightblue" stroke="midnightblue" points="1145.98,-202.762 1136.14,-198.834 1141.38,-208.041 1145.98,-202.762"/>
</g>
<!-- Node27&#45;&gt;Node11 -->
<g id="edge34" class="edge"><title>Node27&#45;&gt;Node11</title>
<path fill="none" stroke="midnightblue" d="M1045.06,-179.819C1042,-179.537 1038.97,-179.263 1036,-179 942.134,-170.679 677.507,-150.7 539.754,-140.392"/>
<polygon fill="midnightblue" stroke="midnightblue" points="539.889,-136.892 529.655,-139.636 539.366,-143.873 539.889,-136.892"/>
</g>
<!-- Node27&#45;&gt;Node16 -->
<g id="edge35" class="edge"><title>Node27&#45;&gt;Node16</title>
<path fill="none" stroke="midnightblue" d="M1047.1,-179.472C977.371,-171.182 881.405,-157.716 846,-143 814.326,-129.835 783.242,-104.412 765.11,-87.9639"/>
<polygon fill="midnightblue" stroke="midnightblue" points="767.444,-85.3549 757.734,-81.1144 762.68,-90.4841 767.444,-85.3549"/>
</g>
<!-- Node27&#45;&gt;Node18 -->
<g id="edge49" class="edge"><title>Node27&#45;&gt;Node18</title>
<path fill="none" stroke="midnightblue" d="M1053.2,-179.492C984.448,-170.708 890.204,-156.43 879,-143 873.306,-136.175 874.46,-130.642 879,-123 910.792,-69.4797 942.834,-75.3545 1002,-56 1109.9,-20.7034 1246.03,-13.0554 1306.11,-11.4251"/>
<polygon fill="midnightblue" stroke="midnightblue" points="1306.5,-14.917 1316.42,-11.1855 1306.34,-7.91894 1306.5,-14.917"/>
</g>
<!-- Node28 -->
<g id="node28" class="node"><title>Node28</title>
<g id="a_node28"><a xlink:href="TaskConfig_8h.html" target="_top" xlink:title="QualityControl/TaskConfig.h">
<polygon fill="none" stroke="black" points="1511,-123.5 1511,-142.5 1651,-142.5 1651,-123.5 1511,-123.5"/>
<text text-anchor="middle" x="1581" y="-130.5" font-family="Helvetica,sans-Serif" font-size="10.00">QualityControl/TaskConfig.h</text>
</a>
</g>
</g>
<!-- Node27&#45;&gt;Node28 -->
<g id="edge36" class="edge"><title>Node27&#45;&gt;Node28</title>
<path fill="none" stroke="midnightblue" d="M1197.85,-179.473C1280.23,-169.696 1414.93,-153.71 1500.7,-143.53"/>
<polygon fill="midnightblue" stroke="midnightblue" points="1501.14,-147.003 1510.65,-142.349 1500.31,-140.052 1501.14,-147.003"/>
</g>
<!-- Node29 -->
<g id="node29" class="node"><title>Node29</title>
<g id="a_node29"><a xlink:href="ServiceDiscovery_8h_source.html" target="_top" xlink:title="QualityControl/ServiceDiscovery.h">
<polygon fill="none" stroke="black" points="1124.5,-123.5 1124.5,-142.5 1291.5,-142.5 1291.5,-123.5 1124.5,-123.5"/>
<text text-anchor="middle" x="1208" y="-130.5" font-family="Helvetica,sans-Serif" font-size="10.00">QualityControl/ServiceDiscovery.h</text>
</a>
</g>
</g>
<!-- Node27&#45;&gt;Node29 -->
<g id="edge39" class="edge"><title>Node27&#45;&gt;Node29</title>
<path fill="none" stroke="midnightblue" d="M1139.17,-179.324C1151.85,-170.979 1171.23,-158.212 1186.21,-148.352"/>
<polygon fill="midnightblue" stroke="midnightblue" points="1188.43,-151.078 1194.86,-142.655 1184.58,-145.231 1188.43,-151.078"/>
</g>
<!-- Node34 -->
<g id="node34" class="node"><title>Node34</title>
<polygon fill="none" stroke="#bfbfbf" points="1347.5,-123.5 1347.5,-142.5 1416.5,-142.5 1416.5,-123.5 1347.5,-123.5"/>
<text text-anchor="middle" x="1382" y="-130.5" font-family="Helvetica,sans-Serif" font-size="10.00">TObjArray.h</text>
</g>
<!-- Node27&#45;&gt;Node34 -->
<g id="edge46" class="edge"><title>Node27&#45;&gt;Node34</title>
<path fill="none" stroke="midnightblue" d="M1166.56,-179.444C1213.16,-169.615 1289.36,-153.54 1337.54,-143.378"/>
<polygon fill="midnightblue" stroke="midnightblue" points="1338.31,-146.793 1347.37,-141.304 1336.87,-139.944 1338.31,-146.793"/>
</g>
<!-- Node35 -->
<g id="node35" class="node"><title>Node35</title>
<polygon fill="none" stroke="#bfbfbf" points="888.5,-123.5 888.5,-142.5 959.5,-142.5 959.5,-123.5 888.5,-123.5"/>
<text text-anchor="middle" x="924" y="-130.5" font-family="Helvetica,sans-Serif" font-size="10.00">TObjString.h</text>
</g>
<!-- Node27&#45;&gt;Node35 -->
<g id="edge47" class="edge"><title>Node27&#45;&gt;Node35</title>
<path fill="none" stroke="midnightblue" d="M1093.99,-179.444C1059.27,-170.162 1003.71,-155.309 965.623,-145.127"/>
<polygon fill="midnightblue" stroke="midnightblue" points="966.422,-141.718 955.858,-142.516 964.615,-148.48 966.422,-141.718"/>
</g>
<!-- Node36 -->
<g id="node36" class="node"><title>Node36</title>
<polygon fill="none" stroke="#bfbfbf" points="978,-123.5 978,-142.5 1106,-142.5 1106,-123.5 978,-123.5"/>
<text text-anchor="middle" x="1042" y="-130.5" font-family="Helvetica,sans-Serif" font-size="10.00">boost/concept_check.hpp</text>
</g>
<!-- Node27&#45;&gt;Node36 -->
<g id="edge48" class="edge"><title>Node27&#45;&gt;Node36</title>
<path fill="none" stroke="midnightblue" d="M1112.5,-179.324C1099.4,-170.9 1079.29,-157.971 1063.89,-148.074"/>
<polygon fill="midnightblue" stroke="midnightblue" points="1065.77,-145.118 1055.46,-142.655 1061.98,-151.006 1065.77,-145.118"/>
</g>
<!-- Node28&#45;&gt;Node7 -->
<g id="edge38" class="edge"><title>Node28&#45;&gt;Node7</title>
<path fill="none" stroke="midnightblue" d="M1592.18,-123.475C1602.64,-115.492 1618.68,-103.254 1632.43,-92.7703"/>
<polygon fill="midnightblue" stroke="midnightblue" points="1634.79,-95.3708 1640.62,-86.523 1630.54,-89.8053 1634.79,-95.3708"/>
</g>
<!-- Node28&#45;&gt;Node18 -->
<g id="edge37" class="edge"><title>Node28&#45;&gt;Node18</title>
<path fill="none" stroke="midnightblue" d="M1567.95,-123.262C1545.24,-108.283 1496.69,-77.262 1453,-56 1424.62,-42.1871 1390.84,-29.4814 1367.08,-21.1194"/>
<polygon fill="midnightblue" stroke="midnightblue" points="1368.15,-17.7852 1357.55,-17.811 1365.85,-24.3979 1368.15,-17.7852"/>
</g>
<!-- Node29&#45;&gt;Node5 -->
<g id="edge42" class="edge"><title>Node29&#45;&gt;Node5</title>
<path fill="none" stroke="midnightblue" d="M1238.09,-123.475C1276.14,-112.692 1341.6,-94.1475 1382.19,-82.6467"/>
<polygon fill="midnightblue" stroke="midnightblue" points="1383.27,-85.9771 1391.94,-79.8836 1381.36,-79.2422 1383.27,-85.9771"/>
</g>
<!-- Node29&#45;&gt;Node18 -->
<g id="edge43" class="edge"><title>Node29&#45;&gt;Node18</title>
<path fill="none" stroke="midnightblue" d="M1252.55,-123.456C1274.83,-116.998 1300.5,-105.883 1317,-87 1330.86,-71.1415 1335.28,-46.7724 1336.6,-29.9238"/>
<polygon fill="midnightblue" stroke="midnightblue" points="1340.11,-29.8161 1337.1,-19.6579 1333.12,-29.4761 1340.11,-29.8161"/>
</g>
<!-- Node30 -->
<g id="node30" class="node"><title>Node30</title>
<polygon fill="none" stroke="#bfbfbf" points="1185,-62 1185,-81 1231,-81 1231,-62 1185,-62"/>
<text text-anchor="middle" x="1208" y="-69" font-family="Helvetica,sans-Serif" font-size="10.00">atomic</text>
</g>
<!-- Node29&#45;&gt;Node30 -->
<g id="edge40" class="edge"><title>Node29&#45;&gt;Node30</title>
<path fill="none" stroke="midnightblue" d="M1208,-123.475C1208,-115.08 1208,-101.981 1208,-91.1631"/>
<polygon fill="midnightblue" stroke="midnightblue" points="1211.5,-91.0091 1208,-81.0091 1204.5,-91.0091 1211.5,-91.0091"/>
</g>
<!-- Node31 -->
<g id="node31" class="node"><title>Node31</title>
<polygon fill="none" stroke="#bfbfbf" points="1249.5,-62 1249.5,-81 1308.5,-81 1308.5,-62 1249.5,-62"/>
<text text-anchor="middle" x="1279" y="-69" font-family="Helvetica,sans-Serif" font-size="10.00">curl/curl.h</text>
</g>
<!-- Node29&#45;&gt;Node31 -->
<g id="edge41" class="edge"><title>Node29&#45;&gt;Node31</title>
<path fill="none" stroke="midnightblue" d="M1218.17,-123.475C1229.35,-114.108 1247.52,-98.8839 1261.09,-87.5081"/>
<polygon fill="midnightblue" stroke="midnightblue" points="1263.43,-90.1148 1268.85,-81.0091 1258.93,-84.7496 1263.43,-90.1148"/>
</g>
<!-- Node32 -->
<g id="node32" class="node"><title>Node32</title>
<polygon fill="none" stroke="#bfbfbf" points="1011,-62 1011,-81 1055,-81 1055,-62 1011,-62"/>
<text text-anchor="middle" x="1033" y="-69" font-family="Helvetica,sans-Serif" font-size="10.00">thread</text>
</g>
<!-- Node29&#45;&gt;Node32 -->
<g id="edge44" class="edge"><title>Node29&#45;&gt;Node32</title>
<path fill="none" stroke="midnightblue" d="M1176.4,-123.453C1146.94,-115.173 1101.97,-101.736 1064,-87 1062.58,-86.4491 1061.13,-85.8633 1059.68,-85.255"/>
<polygon fill="midnightblue" stroke="midnightblue" points="1060.76,-81.9046 1050.2,-81.047 1057.92,-88.3028 1060.76,-81.9046"/>
</g>
<!-- Node33 -->
<g id="node33" class="node"><title>Node33</title>
<polygon fill="none" stroke="#bfbfbf" points="1073,-56.5 1073,-86.5 1167,-86.5 1167,-56.5 1073,-56.5"/>
<text text-anchor="start" x="1081" y="-74.5" font-family="Helvetica,sans-Serif" font-size="10.00">boost/asio/ip/host</text>
<text text-anchor="middle" x="1120" y="-63.5" font-family="Helvetica,sans-Serif" font-size="10.00">_name.hpp</text>
</g>
<!-- Node29&#45;&gt;Node33 -->
<g id="edge45" class="edge"><title>Node29&#45;&gt;Node33</title>
<path fill="none" stroke="midnightblue" d="M1195.39,-123.475C1183.36,-115.341 1164.8,-102.791 1149.1,-92.1788"/>
<polygon fill="midnightblue" stroke="midnightblue" points="1150.98,-89.2248 1140.74,-86.523 1147.06,-95.0237 1150.98,-89.2248"/>
</g>
<!-- Node38&#45;&gt;Node18 -->
<g id="edge53" class="edge"><title>Node38&#45;&gt;Node18</title>
<path fill="none" stroke="midnightblue" d="M1795.8,-358.218C1788.66,-348.489 1779.7,-335.052 1774,-322 1760.06,-290.095 1755,-280.817 1755,-246 1755,-246 1755,-246 1755,-132 1755,-97.0722 1761.42,-78.8473 1735,-56 1707.36,-32.0933 1456.71,-17.1039 1367.96,-12.5083"/>
<polygon fill="midnightblue" stroke="midnightblue" points="1367.9,-9.00054 1357.73,-11.9877 1367.54,-15.9915 1367.9,-9.00054"/>
</g>
<!-- Node39 -->
<g id="node39" class="node"><title>Node39</title>
<polygon fill="none" stroke="#bfbfbf" points="1955,-297 1955,-316 2095,-316 2095,-297 1955,-297"/>
<text text-anchor="middle" x="2025" y="-304" font-family="Helvetica,sans-Serif" font-size="10.00">Framework/WorkflowSpec.h</text>
</g>
<!-- Node38&#45;&gt;Node39 -->
<g id="edge54" class="edge"><title>Node38&#45;&gt;Node39</title>
<path fill="none" stroke="midnightblue" d="M1854.03,-358.476C1893.62,-346.673 1949.54,-330.001 1986.5,-318.979"/>
<polygon fill="midnightblue" stroke="midnightblue" points="1987.81,-322.24 1996.4,-316.029 1985.81,-315.532 1987.81,-322.24"/>
</g>
<!-- Node40 -->
<g id="node40" class="node"><title>Node40</title>
<polygon fill="none" stroke="#bfbfbf" points="1783.5,-297 1783.5,-316 1936.5,-316 1936.5,-297 1783.5,-297"/>
<text text-anchor="middle" x="1860" y="-304" font-family="Helvetica,sans-Serif" font-size="10.00">Framework/CompletionPolicy.h</text>
</g>
<!-- Node38&#45;&gt;Node40 -->
<g id="edge55" class="edge"><title>Node38&#45;&gt;Node40</title>
<path fill="none" stroke="midnightblue" d="M1818.5,-358.396C1826.68,-348.361 1837.71,-334.838 1846.34,-324.253"/>
<polygon fill="midnightblue" stroke="midnightblue" points="1849.3,-326.157 1852.91,-316.195 1843.88,-321.733 1849.3,-326.157"/>
</g>
<!-- Node42 -->
<g id="node42" class="node"><title>Node42</title>
<polygon fill="none" stroke="#bfbfbf" points="2113.5,-291.5 2113.5,-321.5 2248.5,-321.5 2248.5,-291.5 2113.5,-291.5"/>
<text text-anchor="start" x="2121.5" y="-309.5" font-family="Helvetica,sans-Serif" font-size="10.00">Configuration/Configuration</text>
<text text-anchor="middle" x="2181" y="-298.5" font-family="Helvetica,sans-Serif" font-size="10.00">Factory.h</text>
</g>
<!-- Node41&#45;&gt;Node42 -->
<g id="edge57" class="edge"><title>Node41&#45;&gt;Node42</title>
<path fill="none" stroke="midnightblue" d="M1992.82,-363.869C2026.29,-353.841 2082.33,-337.056 2124.57,-324.404"/>
<polygon fill="midnightblue" stroke="midnightblue" points="2125.59,-327.75 2134.17,-321.528 2123.58,-321.045 2125.59,-327.75"/>
</g>
</g>
</svg>
        <g id="navigator" transform="translate(0 0)" fill="#404254">
                <rect fill="#f2f5e9" fill-opacity="0.5" stroke="#606060" stroke-width=".5" x="0" y="0" width="60" height="60"/>
                <use id="zoomplus" xlink:href="#zoomPlus" x="17" y="9" onmousedown="handleZoom(evt,'in')"/>
                <use id="zoomminus" xlink:href="#zoomMin" x="42" y="9" onmousedown="handleZoom(evt,'out')"/>
                <use id="reset" xlink:href="#resetDef" x="30" y="36" onmousedown="handleReset()"/>
                <g id="arrowUp" xlink:href="#dirArrow" transform="translate(30 24)" onmousedown="handlePan(0,-1)">
                  <use xlink:href="#rim" fill="#404040">
                        <set attributeName="fill" to="#808080" begin="arrowUp.mouseover" end="arrowUp.mouseout"/>
                  </use>
                  <path fill="none" stroke="white" stroke-width="1.5" d="M0,-3.0v7 M-2.5,-0.5L0,-3.0L2.5,-0.5"/>
                </g>
                <g id="arrowRight" xlink:href="#dirArrow" transform="rotate(90) translate(36 -43)" onmousedown="handlePan(1,0)">
                  <use xlink:href="#rim" fill="#404040">
                        <set attributeName="fill" to="#808080" begin="arrowRight.mouseover" end="arrowRight.mouseout"/>
                  </use>
                  <path fill="none" stroke="white" stroke-width="1.5" d="M0,-3.0v7 M-2.5,-0.5L0,-3.0L2.5,-0.5"/>
                </g>
                <g id="arrowDown" xlink:href="#dirArrow" transform="rotate(180) translate(-30 -48)" onmousedown="handlePan(0,1)">
                  <use xlink:href="#rim" fill="#404040">
                        <set attributeName="fill" to="#808080" begin="arrowDown.mouseover" end="arrowDown.mouseout"/>
                  </use>
                  <path fill="none" stroke="white" stroke-width="1.5" d="M0,-3.0v7 M-2.5,-0.5L0,-3.0L2.5,-0.5"/>
                </g>
                <g id="arrowLeft" xlink:href="#dirArrow" transform="rotate(270) translate(-36 17)" onmousedown="handlePan(-1,0)">
                  <use xlink:href="#rim" fill="#404040">
                        <set attributeName="fill" to="#808080" begin="arrowLeft.mouseover" end="arrowLeft.mouseout"/>
                  </use>
                  <path fill="none" stroke="white" stroke-width="1.5" d="M0,-3.0v7 M-2.5,-0.5L0,-3.0L2.5,-0.5"/>
                </g>
        </g>
        <svg viewBox="0 0 15 15" width="100%" height="30px" preserveAspectRatio="xMaxYMin meet">
         <g id="arrow_out" transform="scale(0.3 0.3)">
          <a xlink:href="testWorkflow_8cxx__incl_org.svg" target="_base">
           <rect id="button" ry="5" rx="5" y="6" x="6" height="38" width="38"
                fill="#f2f5e9" fill-opacity="0.5" stroke="#606060" stroke-width="1.0"/>
           <path id="arrow"
             d="M 11.500037,31.436501 C 11.940474,20.09759 22.043105,11.32322 32.158766,21.979434 L 37.068811,17.246167 C 37.068811,17.246167 37.088388,32 37.088388,32 L 22.160133,31.978069 C 22.160133,31.978069 26.997745,27.140456 26.997745,27.140456 C 18.528582,18.264221 13.291696,25.230495 11.500037,31.436501 z"
             style="fill:#404040;"/>
          </a>
         </g>
        </svg>
</svg>
