<?xml version="1.0" encoding="UTF-8" standalone="no"?>
<!DOCTYPE svg PUBLIC "-//W3C//DTD SVG 1.1//EN"
 "http://www.w3.org/Graphics/SVG/1.1/DTD/svg11.dtd">
<!-- Generated by graphviz version 2.38.0 (20140413.2041)
 -->
<!-- Title: Framework/test/testCheckInterface.cxx Pages: 1 -->
<svg width="693pt" height="263pt"
 viewBox="0.00 0.00 692.50 263.00" xmlns="http://www.w3.org/2000/svg" xmlns:xlink="http://www.w3.org/1999/xlink">
<g id="graph0" class="graph" transform="scale(1 1) rotate(0) translate(4 259)">
<title>Framework/test/testCheckInterface.cxx</title>
<!-- Node1 -->
<g id="node1" class="node"><title>Node1</title>
<polygon fill="#bfbfbf" stroke="black" points="381.5,-224.5 381.5,-254.5 514.5,-254.5 514.5,-224.5 381.5,-224.5"/>
<text text-anchor="start" x="389.5" y="-242.5" font-family="Helvetica,sans-Serif" font-size="10.00">Framework/test/testCheck</text>
<text text-anchor="middle" x="448" y="-231.5" font-family="Helvetica,sans-Serif" font-size="10.00">Interface.cxx</text>
</g>
<!-- Node2 -->
<g id="node2" class="node"><title>Node2</title>
<g id="a_node2"><a xlink:href="CheckInterface_8h.html" target="_top" xlink:title="QualityControl/CheckInterface.h">
<polygon fill="none" stroke="black" points="262.5,-168.5 262.5,-187.5 419.5,-187.5 419.5,-168.5 262.5,-168.5"/>
<text text-anchor="middle" x="341" y="-175.5" font-family="Helvetica,sans-Serif" font-size="10.00">QualityControl/CheckInterface.h</text>
</a>
</g>
</g>
<!-- Node1&#45;&gt;Node2 -->
<g id="edge1" class="edge"><title>Node1&#45;&gt;Node2</title>
<path fill="none" stroke="midnightblue" d="M422.642,-224.399C405.331,-214.773 382.524,-202.09 365.416,-192.577"/>
<polygon fill="midnightblue" stroke="midnightblue" points="367.01,-189.459 356.569,-187.658 363.608,-195.577 367.01,-189.459"/>
</g>
<!-- Node4 -->
<g id="node4" class="node"><title>Node4</title>
<polygon fill="none" stroke="#bfbfbf" points="0,-56.5 0,-75.5 54,-75.5 54,-56.5 0,-56.5"/>
<text text-anchor="middle" x="27" y="-63.5" font-family="Helvetica,sans-Serif" font-size="10.00">iostream</text>
</g>
<!-- Node1&#45;&gt;Node4 -->
<g id="edge13" class="edge"><title>Node1&#45;&gt;Node4</title>
<path fill="none" stroke="midnightblue" d="M381.426,-229.121C306.902,-216.302 184.714,-188.173 94,-132 72.8068,-118.876 52.8938,-98.0582 40.3734,-83.5292"/>
<polygon fill="midnightblue" stroke="midnightblue" points="43.0077,-81.2235 33.902,-75.8072 37.6426,-85.7197 43.0077,-81.2235"/>
</g>
<!-- Node10 -->
<g id="node10" class="node"><title>Node10</title>
<polygon fill="none" stroke="#bfbfbf" points="415.5,-0.5 415.5,-19.5 456.5,-19.5 456.5,-0.5 415.5,-0.5"/>
<text text-anchor="middle" x="436" y="-7.5" font-family="Helvetica,sans-Serif" font-size="10.00">string</text>
</g>
<!-- Node1&#45;&gt;Node10 -->
<g id="edge15" class="edge"><title>Node1&#45;&gt;Node10</title>
<path fill="none" stroke="midnightblue" d="M447.249,-224.269C445.172,-184.895 439.349,-74.4866 437,-29.9655"/>
<polygon fill="midnightblue" stroke="midnightblue" points="440.493,-29.7287 436.471,-19.927 433.503,-30.0975 440.493,-29.7287"/>
</g>
<!-- Node11 -->
<g id="node11" class="node"><title>Node11</title>
<polygon fill="none" stroke="#bfbfbf" points="476.5,-168.5 476.5,-187.5 595.5,-187.5 595.5,-168.5 476.5,-168.5"/>
<text text-anchor="middle" x="536" y="-175.5" font-family="Helvetica,sans-Serif" font-size="10.00">boost/test/unit_test.hpp</text>
</g>
<!-- Node1&#45;&gt;Node11 -->
<g id="edge12" class="edge"><title>Node1&#45;&gt;Node11</title>
<path fill="none" stroke="midnightblue" d="M468.855,-224.399C482.697,-215.04 500.811,-202.792 514.736,-193.377"/>
<polygon fill="midnightblue" stroke="midnightblue" points="516.872,-196.158 523.195,-187.658 512.951,-190.36 516.872,-196.158"/>
</g>
<!-- Node12 -->
<g id="node12" class="node"><title>Node12</title>
<polygon fill="none" stroke="#bfbfbf" points="613.5,-168.5 613.5,-187.5 684.5,-187.5 684.5,-168.5 613.5,-168.5"/>
<text text-anchor="middle" x="649" y="-175.5" font-family="Helvetica,sans-Serif" font-size="10.00">TObjString.h</text>
</g>
<!-- Node1&#45;&gt;Node12 -->
<g id="edge14" class="edge"><title>Node1&#45;&gt;Node12</title>
<path fill="none" stroke="midnightblue" d="M495.38,-224.475C530.511,-214.075 577.794,-200.078 610.583,-190.372"/>
<polygon fill="midnightblue" stroke="midnightblue" points="611.669,-193.701 620.264,-187.506 609.682,-186.989 611.669,-193.701"/>
</g>
<!-- Node3 -->
<g id="node3" class="node"><title>Node3</title>
<g id="a_node3"><a xlink:href="MonitorObject_8h.html" target="_top" xlink:title="QualityControl/MonitorObject.h">
<polygon fill="none" stroke="black" points="103.5,-112.5 103.5,-131.5 254.5,-131.5 254.5,-112.5 103.5,-112.5"/>
<text text-anchor="middle" x="179" y="-119.5" font-family="Helvetica,sans-Serif" font-size="10.00">QualityControl/MonitorObject.h</text>
</a>
</g>
</g>
<!-- Node2&#45;&gt;Node3 -->
<g id="edge2" class="edge"><title>Node2&#45;&gt;Node3</title>
<path fill="none" stroke="midnightblue" d="M315.331,-168.444C288.077,-159.359 244.816,-144.939 214.349,-134.783"/>
<polygon fill="midnightblue" stroke="midnightblue" points="215.143,-131.358 204.549,-131.516 212.929,-137.999 215.143,-131.358"/>
</g>
<!-- Node8 -->
<g id="node8" class="node"><title>Node8</title>
<g id="a_node8"><a xlink:href="Quality_8h.html" target="_top" xlink:title="QualityControl/Quality.h">
<polygon fill="none" stroke="black" points="298.5,-56.5 298.5,-75.5 419.5,-75.5 419.5,-56.5 298.5,-56.5"/>
<text text-anchor="middle" x="359" y="-63.5" font-family="Helvetica,sans-Serif" font-size="10.00">QualityControl/Quality.h</text>
</a>
</g>
</g>
<!-- Node2&#45;&gt;Node8 -->
<g id="edge11" class="edge"><title>Node2&#45;&gt;Node8</title>
<path fill="none" stroke="midnightblue" d="M342.412,-168.368C345.317,-150.617 352.018,-109.666 355.957,-85.5974"/>
<polygon fill="midnightblue" stroke="midnightblue" points="359.433,-86.0254 357.594,-75.5914 352.525,-84.8949 359.433,-86.0254"/>
</g>
<!-- Node3&#45;&gt;Node4 -->
<g id="edge3" class="edge"><title>Node3&#45;&gt;Node4</title>
<path fill="none" stroke="midnightblue" d="M154.915,-112.444C129.455,-103.399 89.1062,-89.064 60.5409,-78.9158"/>
<polygon fill="midnightblue" stroke="midnightblue" points="61.5669,-75.5661 50.9722,-75.5164 59.2235,-82.1622 61.5669,-75.5661"/>
</g>
<!-- Node5 -->
<g id="node5" class="node"><title>Node5</title>
<polygon fill="none" stroke="#bfbfbf" points="72.5,-56.5 72.5,-75.5 107.5,-75.5 107.5,-56.5 72.5,-56.5"/>
<text text-anchor="middle" x="90" y="-63.5" font-family="Helvetica,sans-Serif" font-size="10.00">map</text>
</g>
<!-- Node3&#45;&gt;Node5 -->
<g id="edge4" class="edge"><title>Node3&#45;&gt;Node5</title>
<path fill="none" stroke="midnightblue" d="M164.701,-112.324C150.817,-103.9 129.508,-90.9709 113.196,-81.0741"/>
<polygon fill="midnightblue" stroke="midnightblue" points="114.629,-77.8495 104.264,-75.6545 110.998,-83.8341 114.629,-77.8495"/>
</g>
<!-- Node6 -->
<g id="node6" class="node"><title>Node6</title>
<polygon fill="none" stroke="#bfbfbf" points="181.5,-0.5 181.5,-19.5 240.5,-19.5 240.5,-0.5 181.5,-0.5"/>
<text text-anchor="middle" x="211" y="-7.5" font-family="Helvetica,sans-Serif" font-size="10.00">TObject.h</text>
</g>
<!-- Node3&#45;&gt;Node6 -->
<g id="edge5" class="edge"><title>Node3&#45;&gt;Node6</title>
<path fill="none" stroke="midnightblue" d="M171.436,-112.378C161.309,-99.7286 145.641,-75.526 155,-56 161.253,-42.9542 173.336,-32.4921 184.682,-24.9506"/>
<polygon fill="midnightblue" stroke="midnightblue" points="186.809,-27.7515 193.498,-19.5351 183.146,-21.7869 186.809,-27.7515"/>
</g>
<!-- Node7 -->
<g id="node7" class="node"><title>Node7</title>
<polygon fill="none" stroke="#bfbfbf" points="164,-56.5 164,-75.5 280,-75.5 280,-56.5 164,-56.5"/>
<text text-anchor="middle" x="222" y="-63.5" font-family="Helvetica,sans-Serif" font-size="10.00">Common/Exceptions.h</text>
</g>
<!-- Node3&#45;&gt;Node7 -->
<g id="edge6" class="edge"><title>Node3&#45;&gt;Node7</title>
<path fill="none" stroke="midnightblue" d="M186.101,-112.083C192.237,-104.377 201.27,-93.0333 208.739,-83.6531"/>
<polygon fill="midnightblue" stroke="midnightblue" points="211.54,-85.7542 215.032,-75.7511 206.064,-81.3936 211.54,-85.7542"/>
</g>
<!-- Node3&#45;&gt;Node8 -->
<g id="edge7" class="edge"><title>Node3&#45;&gt;Node8</title>
<path fill="none" stroke="midnightblue" d="M207.522,-112.444C238.066,-103.28 286.708,-88.6876 320.603,-78.5192"/>
<polygon fill="midnightblue" stroke="midnightblue" points="322.039,-81.7424 330.612,-75.5164 320.028,-75.0376 322.039,-81.7424"/>
</g>
<!-- Node8&#45;&gt;Node6 -->
<g id="edge8" class="edge"><title>Node8&#45;&gt;Node6</title>
<path fill="none" stroke="midnightblue" d="M335.549,-56.4435C310.867,-47.4381 271.815,-33.1891 244.023,-23.049"/>
<polygon fill="midnightblue" stroke="midnightblue" points="244.935,-19.6561 234.341,-19.5164 242.536,-26.2321 244.935,-19.6561"/>
</g>
<!-- Node9 -->
<g id="node9" class="node"><title>Node9</title>
<polygon fill="none" stroke="#bfbfbf" points="333,-0.5 333,-19.5 385,-19.5 385,-0.5 333,-0.5"/>
<text text-anchor="middle" x="359" y="-7.5" font-family="Helvetica,sans-Serif" font-size="10.00">ostream</text>
</g>
<!-- Node8&#45;&gt;Node9 -->
<g id="edge9" class="edge"><title>Node8&#45;&gt;Node9</title>
<path fill="none" stroke="midnightblue" d="M359,-56.083C359,-49.0059 359,-38.8611 359,-29.9865"/>
<polygon fill="midnightblue" stroke="midnightblue" points="362.5,-29.751 359,-19.7511 355.5,-29.7511 362.5,-29.751"/>
</g>
<!-- Node8&#45;&gt;Node10 -->
<g id="edge10" class="edge"><title>Node8&#45;&gt;Node10</title>
<path fill="none" stroke="midnightblue" d="M371.371,-56.324C383.158,-48.0577 401.132,-35.4527 415.136,-25.6322"/>
<polygon fill="midnightblue" stroke="midnightblue" points="417.482,-28.2619 423.659,-19.6545 413.462,-22.5307 417.482,-28.2619"/>
</g>
</g>
</svg>
