<?xml version="1.0" encoding="UTF-8" standalone="no"?>
<!DOCTYPE svg PUBLIC "-//W3C//DTD SVG 1.1//EN"
 "http://www.w3.org/Graphics/SVG/1.1/DTD/svg11.dtd">
<!-- Generated by graphviz version 2.38.0 (20140413.2041)
 -->
<!-- Title: Framework/test/testPublisher.cxx Pages: 1 -->
<!--zoomable 263 -->
<svg id="main" version="1.1" xmlns="http://www.w3.org/2000/svg" xmlns:xlink="http://www.w3.org/1999/xlink" xml:space="preserve" onload="init(evt)">
<style type="text/css"><![CDATA[
.edge:hover path { stroke: red; }
.edge:hover polygon { stroke: red; fill: red; }
]]></style>
<script type="text/javascript"><![CDATA[
var edges = document.getElementsByTagName('g');
if (edges && edges.length) {
  for (var i=0;i<edges.length;i++) {
    if (edges[i].id.substr(0,4)=='edge') {
      edges[i].setAttribute('class','edge');
    }
  }
}
]]></script>
        <defs>
                <circle id="rim" cx="0" cy="0" r="7"/>
                <circle id="rim2" cx="0" cy="0" r="3.5"/>
                <g id="zoomPlus">
                        <use xlink:href="#rim" fill="#404040">
                                <set attributeName="fill" to="#808080" begin="zoomplus.mouseover" end="zoomplus.mouseout"/>
                        </use>
                        <path d="M-4,0h8M0,-4v8" fill="none" stroke="white" stroke-width="1.5" pointer-events="none"/>
                </g>
                <g id="zoomMin">
                        <use xlink:href="#rim" fill="#404040">
                                <set attributeName="fill" to="#808080" begin="zoomminus.mouseover" end="zoomminus.mouseout"/>
                        </use>
                        <path d="M-4,0h8" fill="none" stroke="white" stroke-width="1.5" pointer-events="none"/>
                </g>
                <g id="dirArrow">
                        <path fill="none" stroke="white" stroke-width="1.5" d="M0,-3.0v7 M-2.5,-0.5L0,-3.0L2.5,-0.5"/>
                </g>
               <g id="resetDef">
                       <use xlink:href="#rim2" fill="#404040">
                               <set attributeName="fill" to="#808080" begin="reset.mouseover" end="reset.mouseout"/>
                       </use>
               </g>
        </defs>

<script type="text/javascript">
var viewWidth = 1138;
var viewHeight = 263;
var sectionId = 'dynsection-0';
</script>
<script xlink:href="svgpan.js"/>
<svg id="graph" class="graph">
<g id="viewport">
<title>Framework/test/testPublisher.cxx</title>
<!-- Node1 -->
<g id="node1" class="node"><title>Node1</title>
<polygon fill="#bfbfbf" stroke="black" points="664,-235.5 664,-254.5 828,-254.5 828,-235.5 664,-235.5"/>
<text text-anchor="middle" x="746" y="-242.5" font-family="Helvetica,sans-Serif" font-size="10.00">Framework/test/testPublisher.cxx</text>
</g>
<!-- Node2 -->
<g id="node2" class="node"><title>Node2</title>
<g id="a_node2"><a xlink:href="ObjectsManager_8h.html" target="_top" xlink:title="QualityControl/ObjectsManager.h">
<polygon fill="none" stroke="black" points="556.5,-179.5 556.5,-198.5 717.5,-198.5 717.5,-179.5 556.5,-179.5"/>
<text text-anchor="middle" x="637" y="-186.5" font-family="Helvetica,sans-Serif" font-size="10.00">QualityControl/ObjectsManager.h</text>
</a>
</g>
</g>
<!-- Node1&#45;&gt;Node2 -->
<g id="edge1" class="edge"><title>Node1&#45;&gt;Node2</title>
<path fill="none" stroke="midnightblue" d="M728.487,-235.324C710.928,-226.625 683.669,-213.12 663.469,-203.113"/>
<polygon fill="midnightblue" stroke="midnightblue" points="664.984,-199.958 654.469,-198.655 661.876,-206.23 664.984,-199.958"/>
</g>
<!-- Node4 -->
<g id="node4" class="node"><title>Node4</title>
<polygon fill="none" stroke="#bfbfbf" points="0,-62 0,-81 54,-81 54,-62 0,-62"/>
<text text-anchor="middle" x="27" y="-69" font-family="Helvetica,sans-Serif" font-size="10.00">iostream</text>
</g>
<!-- Node1&#45;&gt;Node4 -->
<g id="edge29" class="edge"><title>Node1&#45;&gt;Node4</title>
<path fill="none" stroke="midnightblue" d="M663.885,-244.209C539.534,-241.649 298.42,-225.3 114,-143 85.0124,-130.064 57.6098,-104.949 41.5628,-88.4542"/>
<polygon fill="midnightblue" stroke="midnightblue" points="44.0563,-85.9969 34.6402,-81.14 38.9723,-90.8088 44.0563,-85.9969"/>
</g>
<!-- Node20 -->
<g id="node20" class="node"><title>Node20</title>
<polygon fill="none" stroke="#bfbfbf" points="1058.5,-123.5 1058.5,-142.5 1129.5,-142.5 1129.5,-123.5 1058.5,-123.5"/>
<text text-anchor="middle" x="1094" y="-130.5" font-family="Helvetica,sans-Serif" font-size="10.00">TObjString.h</text>
</g>
<!-- Node1&#45;&gt;Node20 -->
<g id="edge27" class="edge"><title>Node1&#45;&gt;Node20</title>
<path fill="none" stroke="midnightblue" d="M745.607,-235.274C745.49,-221.105 747.528,-193.249 764,-179 810.111,-139.113 970.64,-151.943 1047.86,-142.842"/>
<polygon fill="midnightblue" stroke="midnightblue" points="1048.76,-146.251 1058.18,-141.405 1047.79,-139.318 1048.76,-146.251"/>
</g>
<!-- Node22 -->
<g id="node22" class="node"><title>Node22</title>
<polygon fill="none" stroke="#bfbfbf" points="773.5,-179.5 773.5,-198.5 932.5,-198.5 932.5,-179.5 773.5,-179.5"/>
<text text-anchor="middle" x="853" y="-186.5" font-family="Helvetica,sans-Serif" font-size="10.00">../include/Common/Exceptions.h</text>
</g>
<!-- Node1&#45;&gt;Node22 -->
<g id="edge26" class="edge"><title>Node1&#45;&gt;Node22</title>
<path fill="none" stroke="midnightblue" d="M763.191,-235.324C780.351,-226.664 806.946,-213.242 826.747,-203.249"/>
<polygon fill="midnightblue" stroke="midnightblue" points="828.501,-206.285 835.851,-198.655 825.347,-200.035 828.501,-206.285"/>
</g>
<!-- Node23 -->
<g id="node23" class="node"><title>Node23</title>
<polygon fill="none" stroke="#bfbfbf" points="950.5,-179.5 950.5,-198.5 1069.5,-198.5 1069.5,-179.5 950.5,-179.5"/>
<text text-anchor="middle" x="1010" y="-186.5" font-family="Helvetica,sans-Serif" font-size="10.00">boost/test/unit_test.hpp</text>
</g>
<!-- Node1&#45;&gt;Node23 -->
<g id="edge28" class="edge"><title>Node1&#45;&gt;Node23</title>
<path fill="none" stroke="midnightblue" d="M787.832,-235.444C834.079,-225.984 908.612,-210.738 958.436,-200.547"/>
<polygon fill="midnightblue" stroke="midnightblue" points="959.268,-203.949 968.364,-198.516 957.866,-197.091 959.268,-203.949"/>
</g>
<!-- Node3 -->
<g id="node3" class="node"><title>Node3</title>
<g id="a_node3"><a xlink:href="MonitorObject_8h.html" target="_top" xlink:title="QualityControl/MonitorObject.h">
<polygon fill="none" stroke="black" points="123.5,-123.5 123.5,-142.5 274.5,-142.5 274.5,-123.5 123.5,-123.5"/>
<text text-anchor="middle" x="199" y="-130.5" font-family="Helvetica,sans-Serif" font-size="10.00">QualityControl/MonitorObject.h</text>
</a>
</g>
</g>
<!-- Node2&#45;&gt;Node3 -->
<g id="edge2" class="edge"><title>Node2&#45;&gt;Node3</title>
<path fill="none" stroke="midnightblue" d="M567.598,-179.444C488.867,-169.737 360.726,-153.939 278.164,-143.76"/>
<polygon fill="midnightblue" stroke="midnightblue" points="278.431,-140.266 268.078,-142.516 277.574,-147.214 278.431,-140.266"/>
</g>
<!-- Node8 -->
<g id="node8" class="node"><title>Node8</title>
<g id="a_node8"><a xlink:href="Quality_8h.html" target="_top" xlink:title="QualityControl/Quality.h">
<polygon fill="none" stroke="black" points="298.5,-62 298.5,-81 419.5,-81 419.5,-62 298.5,-62"/>
<text text-anchor="middle" x="359" y="-69" font-family="Helvetica,sans-Serif" font-size="10.00">QualityControl/Quality.h</text>
</a>
</g>
</g>
<!-- Node2&#45;&gt;Node8 -->
<g id="edge11" class="edge"><title>Node2&#45;&gt;Node8</title>
<path fill="none" stroke="midnightblue" d="M556.458,-180.224C517.73,-174.024 471.658,-162.908 434,-143 408.94,-129.752 386.14,-105.854 372.421,-89.5902"/>
<polygon fill="midnightblue" stroke="midnightblue" points="374.814,-86.987 365.777,-81.4565 369.393,-91.4154 374.814,-86.987"/>
</g>
<!-- Node10 -->
<g id="node10" class="node"><title>Node10</title>
<polygon fill="none" stroke="#bfbfbf" points="446.5,-0.5 446.5,-19.5 487.5,-19.5 487.5,-0.5 446.5,-0.5"/>
<text text-anchor="middle" x="467" y="-7.5" font-family="Helvetica,sans-Serif" font-size="10.00">string</text>
</g>
<!-- Node2&#45;&gt;Node10 -->
<g id="edge25" class="edge"><title>Node2&#45;&gt;Node10</title>
<path fill="none" stroke="midnightblue" d="M578.39,-179.464C536.545,-172.055 485.388,-159.857 472,-143 446.051,-110.328 454.46,-57.4261 461.497,-29.5497"/>
<polygon fill="midnightblue" stroke="midnightblue" points="464.964,-30.1407 464.234,-19.571 458.214,-28.2888 464.964,-30.1407"/>
</g>
<!-- Node11 -->
<g id="node11" class="node"><title>Node11</title>
<g id="a_node11"><a xlink:href="TaskConfig_8h.html" target="_top" xlink:title="QualityControl/TaskConfig.h">
<polygon fill="none" stroke="black" points="481,-123.5 481,-142.5 621,-142.5 621,-123.5 481,-123.5"/>
<text text-anchor="middle" x="551" y="-130.5" font-family="Helvetica,sans-Serif" font-size="10.00">QualityControl/TaskConfig.h</text>
</a>
</g>
</g>
<!-- Node2&#45;&gt;Node11 -->
<g id="edge12" class="edge"><title>Node2&#45;&gt;Node11</title>
<path fill="none" stroke="midnightblue" d="M623.183,-179.324C609.767,-170.9 589.176,-157.971 573.414,-148.074"/>
<polygon fill="midnightblue" stroke="midnightblue" points="575.113,-145.008 564.783,-142.655 571.391,-150.936 575.113,-145.008"/>
</g>
<!-- Node13 -->
<g id="node13" class="node"><title>Node13</title>
<g id="a_node13"><a xlink:href="ServiceDiscovery_8h_source.html" target="_top" xlink:title="QualityControl/ServiceDiscovery.h">
<polygon fill="none" stroke="black" points="639.5,-123.5 639.5,-142.5 806.5,-142.5 806.5,-123.5 639.5,-123.5"/>
<text text-anchor="middle" x="723" y="-130.5" font-family="Helvetica,sans-Serif" font-size="10.00">QualityControl/ServiceDiscovery.h</text>
</a>
</g>
</g>
<!-- Node2&#45;&gt;Node13 -->
<g id="edge15" class="edge"><title>Node2&#45;&gt;Node13</title>
<path fill="none" stroke="midnightblue" d="M650.817,-179.324C664.233,-170.9 684.824,-157.971 700.586,-148.074"/>
<polygon fill="midnightblue" stroke="midnightblue" points="702.609,-150.936 709.217,-142.655 698.887,-145.008 702.609,-150.936"/>
</g>
<!-- Node19 -->
<g id="node19" class="node"><title>Node19</title>
<polygon fill="none" stroke="#bfbfbf" points="824.5,-123.5 824.5,-142.5 893.5,-142.5 893.5,-123.5 824.5,-123.5"/>
<text text-anchor="middle" x="859" y="-130.5" font-family="Helvetica,sans-Serif" font-size="10.00">TObjArray.h</text>
</g>
<!-- Node2&#45;&gt;Node19 -->
<g id="edge22" class="edge"><title>Node2&#45;&gt;Node19</title>
<path fill="none" stroke="midnightblue" d="M672.177,-179.444C710.692,-170.075 772.538,-155.031 814.424,-144.843"/>
<polygon fill="midnightblue" stroke="midnightblue" points="815.464,-148.192 824.353,-142.428 813.81,-141.39 815.464,-148.192"/>
</g>
<!-- Node2&#45;&gt;Node20 -->
<g id="edge23" class="edge"><title>Node2&#45;&gt;Node20</title>
<path fill="none" stroke="midnightblue" d="M717.691,-180.045C814.48,-170.36 972.165,-154.091 1048.04,-142.99"/>
<polygon fill="midnightblue" stroke="midnightblue" points="1048.82,-146.412 1058.19,-141.46 1047.78,-139.49 1048.82,-146.412"/>
</g>
<!-- Node21 -->
<g id="node21" class="node"><title>Node21</title>
<polygon fill="none" stroke="#bfbfbf" points="912,-123.5 912,-142.5 1040,-142.5 1040,-123.5 912,-123.5"/>
<text text-anchor="middle" x="976" y="-130.5" font-family="Helvetica,sans-Serif" font-size="10.00">boost/concept_check.hpp</text>
</g>
<!-- Node2&#45;&gt;Node21 -->
<g id="edge24" class="edge"><title>Node2&#45;&gt;Node21</title>
<path fill="none" stroke="midnightblue" d="M690.716,-179.444C750.969,-169.846 848.614,-154.292 912.571,-144.104"/>
<polygon fill="midnightblue" stroke="midnightblue" points="913.211,-147.546 922.536,-142.516 912.11,-140.633 913.211,-147.546"/>
</g>
<!-- Node3&#45;&gt;Node4 -->
<g id="edge3" class="edge"><title>Node3&#45;&gt;Node4</title>
<path fill="none" stroke="midnightblue" d="M171.472,-123.456C143.874,-114.757 100.246,-100.647 63,-87 61.102,-86.3046 59.1545,-85.573 57.1951,-84.8233"/>
<polygon fill="midnightblue" stroke="midnightblue" points="58.0611,-81.4033 47.4737,-81.0073 55.5033,-87.9193 58.0611,-81.4033"/>
</g>
<!-- Node5 -->
<g id="node5" class="node"><title>Node5</title>
<polygon fill="none" stroke="#bfbfbf" points="72.5,-62 72.5,-81 107.5,-81 107.5,-62 72.5,-62"/>
<text text-anchor="middle" x="90" y="-69" font-family="Helvetica,sans-Serif" font-size="10.00">map</text>
</g>
<!-- Node3&#45;&gt;Node5 -->
<g id="edge4" class="edge"><title>Node3&#45;&gt;Node5</title>
<path fill="none" stroke="midnightblue" d="M183.383,-123.475C165.414,-113.666 135.679,-97.4346 114.594,-85.925"/>
<polygon fill="midnightblue" stroke="midnightblue" points="116.042,-82.7284 105.588,-81.0091 112.689,-88.8726 116.042,-82.7284"/>
</g>
<!-- Node6 -->
<g id="node6" class="node"><title>Node6</title>
<polygon fill="none" stroke="#bfbfbf" points="181.5,-0.5 181.5,-19.5 240.5,-19.5 240.5,-0.5 181.5,-0.5"/>
<text text-anchor="middle" x="211" y="-7.5" font-family="Helvetica,sans-Serif" font-size="10.00">TObject.h</text>
</g>
<!-- Node3&#45;&gt;Node6 -->
<g id="edge5" class="edge"><title>Node3&#45;&gt;Node6</title>
<path fill="none" stroke="midnightblue" d="M186.219,-123.369C175.606,-115.36 161.269,-102.379 155,-87 149.799,-74.2416 149.045,-68.4244 155,-56 161.253,-42.9542 173.336,-32.4921 184.682,-24.9506"/>
<polygon fill="midnightblue" stroke="midnightblue" points="186.809,-27.7515 193.498,-19.5351 183.146,-21.7869 186.809,-27.7515"/>
</g>
<!-- Node7 -->
<g id="node7" class="node"><title>Node7</title>
<polygon fill="none" stroke="#bfbfbf" points="164,-62 164,-81 280,-81 280,-62 164,-62"/>
<text text-anchor="middle" x="222" y="-69" font-family="Helvetica,sans-Serif" font-size="10.00">Common/Exceptions.h</text>
</g>
<!-- Node3&#45;&gt;Node7 -->
<g id="edge6" class="edge"><title>Node3&#45;&gt;Node7</title>
<path fill="none" stroke="midnightblue" d="M202.295,-123.475C205.609,-114.904 210.818,-101.427 215.049,-90.483"/>
<polygon fill="midnightblue" stroke="midnightblue" points="218.37,-91.5984 218.711,-81.0091 211.841,-89.0745 218.37,-91.5984"/>
</g>
<!-- Node3&#45;&gt;Node8 -->
<g id="edge7" class="edge"><title>Node3&#45;&gt;Node8</title>
<path fill="none" stroke="midnightblue" d="M221.924,-123.475C249.37,-113.269 295.516,-96.108 326.599,-84.5492"/>
<polygon fill="midnightblue" stroke="midnightblue" points="327.965,-87.7752 336.118,-81.0091 325.526,-81.2142 327.965,-87.7752"/>
</g>
<!-- Node8&#45;&gt;Node6 -->
<g id="edge8" class="edge"><title>Node8&#45;&gt;Node6</title>
<path fill="none" stroke="midnightblue" d="M337.795,-61.9751C312.628,-51.8571 270.46,-34.9046 241.721,-23.3507"/>
<polygon fill="midnightblue" stroke="midnightblue" points="242.749,-19.9919 232.165,-19.5091 240.138,-26.4867 242.749,-19.9919"/>
</g>
<!-- Node9 -->
<g id="node9" class="node"><title>Node9</title>
<polygon fill="none" stroke="#bfbfbf" points="333,-0.5 333,-19.5 385,-19.5 385,-0.5 333,-0.5"/>
<text text-anchor="middle" x="359" y="-7.5" font-family="Helvetica,sans-Serif" font-size="10.00">ostream</text>
</g>
<!-- Node8&#45;&gt;Node9 -->
<g id="edge9" class="edge"><title>Node8&#45;&gt;Node9</title>
<path fill="none" stroke="midnightblue" d="M359,-61.9751C359,-53.5803 359,-40.4806 359,-29.6631"/>
<polygon fill="midnightblue" stroke="midnightblue" points="362.5,-29.5091 359,-19.5091 355.5,-29.5091 362.5,-29.5091"/>
</g>
<!-- Node8&#45;&gt;Node10 -->
<g id="edge10" class="edge"><title>Node8&#45;&gt;Node10</title>
<path fill="none" stroke="midnightblue" d="M374.474,-61.9751C392.278,-52.1664 421.741,-35.9346 442.632,-24.425"/>
<polygon fill="midnightblue" stroke="midnightblue" points="444.485,-27.4001 451.555,-19.5091 441.107,-21.269 444.485,-27.4001"/>
</g>
<!-- Node11&#45;&gt;Node10 -->
<g id="edge13" class="edge"><title>Node11&#45;&gt;Node10</title>
<path fill="none" stroke="midnightblue" d="M540.127,-123.211C530.103,-114.712 515.268,-101.082 505,-87 491.739,-68.8131 480.787,-45.3081 474.102,-29.2847"/>
<polygon fill="midnightblue" stroke="midnightblue" points="477.33,-27.9316 470.344,-19.9666 470.838,-30.5499 477.33,-27.9316"/>
</g>
<!-- Node12 -->
<g id="node12" class="node"><title>Node12</title>
<polygon fill="none" stroke="#bfbfbf" points="514.5,-56.5 514.5,-86.5 649.5,-86.5 649.5,-56.5 514.5,-56.5"/>
<text text-anchor="start" x="522.5" y="-74.5" font-family="Helvetica,sans-Serif" font-size="10.00">Configuration/Configuration</text>
<text text-anchor="middle" x="582" y="-63.5" font-family="Helvetica,sans-Serif" font-size="10.00">Interface.h</text>
</g>
<!-- Node11&#45;&gt;Node12 -->
<g id="edge14" class="edge"><title>Node11&#45;&gt;Node12</title>
<path fill="none" stroke="midnightblue" d="M555.442,-123.475C559.248,-116.17 564.91,-105.302 570.03,-95.475"/>
<polygon fill="midnightblue" stroke="midnightblue" points="573.177,-97.0087 574.694,-86.523 566.969,-93.7743 573.177,-97.0087"/>
</g>
<!-- Node13&#45;&gt;Node10 -->
<g id="edge19" class="edge"><title>Node13&#45;&gt;Node10</title>
<path fill="none" stroke="midnightblue" d="M718.181,-123.378C708.795,-107.424 686.466,-73.3475 658,-56 607.369,-25.1443 537.301,-15.4443 497.626,-12.3959"/>
<polygon fill="midnightblue" stroke="midnightblue" points="497.731,-8.89518 487.518,-11.7141 497.26,-15.8793 497.731,-8.89518"/>
</g>
<!-- Node14 -->
<g id="node14" class="node"><title>Node14</title>
<polygon fill="none" stroke="#bfbfbf" points="706,-62 706,-81 752,-81 752,-62 706,-62"/>
<text text-anchor="middle" x="729" y="-69" font-family="Helvetica,sans-Serif" font-size="10.00">atomic</text>
</g>
<!-- Node13&#45;&gt;Node14 -->
<g id="edge16" class="edge"><title>Node13&#45;&gt;Node14</title>
<path fill="none" stroke="midnightblue" d="M723.86,-123.475C724.706,-115.08 726.027,-101.981 727.118,-91.1631"/>
<polygon fill="midnightblue" stroke="midnightblue" points="730.621,-91.3098 728.142,-81.0091 723.656,-90.6074 730.621,-91.3098"/>
</g>
<!-- Node15 -->
<g id="node15" class="node"><title>Node15</title>
<polygon fill="none" stroke="#bfbfbf" points="770.5,-62 770.5,-81 829.5,-81 829.5,-62 770.5,-62"/>
<text text-anchor="middle" x="800" y="-69" font-family="Helvetica,sans-Serif" font-size="10.00">curl/curl.h</text>
</g>
<!-- Node13&#45;&gt;Node15 -->
<g id="edge17" class="edge"><title>Node13&#45;&gt;Node15</title>
<path fill="none" stroke="midnightblue" d="M734.032,-123.475C746.268,-114.02 766.229,-98.5961 780.993,-87.1871"/>
<polygon fill="midnightblue" stroke="midnightblue" points="783.215,-89.8931 788.988,-81.0091 778.935,-84.3541 783.215,-89.8931"/>
</g>
<!-- Node16 -->
<g id="node16" class="node"><title>Node16</title>
<polygon fill="none" stroke="#bfbfbf" points="848,-62 848,-81 900,-81 900,-62 848,-62"/>
<text text-anchor="middle" x="874" y="-69" font-family="Helvetica,sans-Serif" font-size="10.00">memory</text>
</g>
<!-- Node13&#45;&gt;Node16 -->
<g id="edge18" class="edge"><title>Node13&#45;&gt;Node16</title>
<path fill="none" stroke="midnightblue" d="M745.072,-123.438C768.242,-114.432 805.719,-99.8164 838,-87 839.636,-86.3504 841.313,-85.6824 843.006,-85.0065"/>
<polygon fill="midnightblue" stroke="midnightblue" points="844.714,-88.0924 852.694,-81.1223 842.109,-81.5952 844.714,-88.0924"/>
</g>
<!-- Node17 -->
<g id="node17" class="node"><title>Node17</title>
<polygon fill="none" stroke="#bfbfbf" points="918,-62 918,-81 962,-81 962,-62 918,-62"/>
<text text-anchor="middle" x="940" y="-69" font-family="Helvetica,sans-Serif" font-size="10.00">thread</text>
</g>
<!-- Node13&#45;&gt;Node17 -->
<g id="edge20" class="edge"><title>Node13&#45;&gt;Node17</title>
<path fill="none" stroke="midnightblue" d="M769.222,-123.5C807.314,-115.86 862.446,-103.334 909,-87 910.619,-86.432 912.267,-85.8077 913.917,-85.1469"/>
<polygon fill="midnightblue" stroke="midnightblue" points="915.43,-88.3056 923.2,-81.1033 912.635,-81.8879 915.43,-88.3056"/>
</g>
<!-- Node18 -->
<g id="node18" class="node"><title>Node18</title>
<polygon fill="none" stroke="#bfbfbf" points="980,-56.5 980,-86.5 1074,-86.5 1074,-56.5 980,-56.5"/>
<text text-anchor="start" x="988" y="-74.5" font-family="Helvetica,sans-Serif" font-size="10.00">boost/asio/ip/host</text>
<text text-anchor="middle" x="1027" y="-63.5" font-family="Helvetica,sans-Serif" font-size="10.00">_name.hpp</text>
</g>
<!-- Node13&#45;&gt;Node18 -->
<g id="edge21" class="edge"><title>Node13&#45;&gt;Node18</title>
<path fill="none" stroke="midnightblue" d="M776.442,-123.476C824.558,-115.536 897.42,-102.862 969.535,-87.2334"/>
<polygon fill="midnightblue" stroke="midnightblue" points="970.682,-90.5652 979.703,-85.0087 969.186,-83.727 970.682,-90.5652"/>
</g>
</g>
</svg>
        <g id="navigator" transform="translate(0 0)" fill="#404254">
                <rect fill="#f2f5e9" fill-opacity="0.5" stroke="#606060" stroke-width=".5" x="0" y="0" width="60" height="60"/>
                <use id="zoomplus" xlink:href="#zoomPlus" x="17" y="9" onmousedown="handleZoom(evt,'in')"/>
                <use id="zoomminus" xlink:href="#zoomMin" x="42" y="9" onmousedown="handleZoom(evt,'out')"/>
                <use id="reset" xlink:href="#resetDef" x="30" y="36" onmousedown="handleReset()"/>
                <g id="arrowUp" xlink:href="#dirArrow" transform="translate(30 24)" onmousedown="handlePan(0,-1)">
                  <use xlink:href="#rim" fill="#404040">
                        <set attributeName="fill" to="#808080" begin="arrowUp.mouseover" end="arrowUp.mouseout"/>
                  </use>
                  <path fill="none" stroke="white" stroke-width="1.5" d="M0,-3.0v7 M-2.5,-0.5L0,-3.0L2.5,-0.5"/>
                </g>
                <g id="arrowRight" xlink:href="#dirArrow" transform="rotate(90) translate(36 -43)" onmousedown="handlePan(1,0)">
                  <use xlink:href="#rim" fill="#404040">
                        <set attributeName="fill" to="#808080" begin="arrowRight.mouseover" end="arrowRight.mouseout"/>
                  </use>
                  <path fill="none" stroke="white" stroke-width="1.5" d="M0,-3.0v7 M-2.5,-0.5L0,-3.0L2.5,-0.5"/>
                </g>
                <g id="arrowDown" xlink:href="#dirArrow" transform="rotate(180) translate(-30 -48)" onmousedown="handlePan(0,1)">
                  <use xlink:href="#rim" fill="#404040">
                        <set attributeName="fill" to="#808080" begin="arrowDown.mouseover" end="arrowDown.mouseout"/>
                  </use>
                  <path fill="none" stroke="white" stroke-width="1.5" d="M0,-3.0v7 M-2.5,-0.5L0,-3.0L2.5,-0.5"/>
                </g>
                <g id="arrowLeft" xlink:href="#dirArrow" transform="rotate(270) translate(-36 17)" onmousedown="handlePan(-1,0)">
                  <use xlink:href="#rim" fill="#404040">
                        <set attributeName="fill" to="#808080" begin="arrowLeft.mouseover" end="arrowLeft.mouseout"/>
                  </use>
                  <path fill="none" stroke="white" stroke-width="1.5" d="M0,-3.0v7 M-2.5,-0.5L0,-3.0L2.5,-0.5"/>
                </g>
        </g>
        <svg viewBox="0 0 15 15" width="100%" height="30px" preserveAspectRatio="xMaxYMin meet">
         <g id="arrow_out" transform="scale(0.3 0.3)">
          <a xlink:href="testPublisher_8cxx__incl_org.svg" target="_base">
           <rect id="button" ry="5" rx="5" y="6" x="6" height="38" width="38"
                fill="#f2f5e9" fill-opacity="0.5" stroke="#606060" stroke-width="1.0"/>
           <path id="arrow"
             d="M 11.500037,31.436501 C 11.940474,20.09759 22.043105,11.32322 32.158766,21.979434 L 37.068811,17.246167 C 37.068811,17.246167 37.088388,32 37.088388,32 L 22.160133,31.978069 C 22.160133,31.978069 26.997745,27.140456 26.997745,27.140456 C 18.528582,18.264221 13.291696,25.230495 11.500037,31.436501 z"
             style="fill:#404040;"/>
          </a>
         </g>
        </svg>
</svg>
