<?xml version="1.0" encoding="UTF-8" standalone="no"?>
<!DOCTYPE svg PUBLIC "-//W3C//DTD SVG 1.1//EN"
 "http://www.w3.org/Graphics/SVG/1.1/DTD/svg11.dtd">
<!-- Generated by graphviz version 2.38.0 (20140413.2041)
 -->
<!-- Title: Modules/Example/test/testQcExample.cxx Pages: 1 -->
<!--zoomable 453 -->
<svg id="main" version="1.1" xmlns="http://www.w3.org/2000/svg" xmlns:xlink="http://www.w3.org/1999/xlink" xml:space="preserve" onload="init(evt)">
<style type="text/css"><![CDATA[
.edge:hover path { stroke: red; }
.edge:hover polygon { stroke: red; fill: red; }
]]></style>
<script type="text/javascript"><![CDATA[
var edges = document.getElementsByTagName('g');
if (edges && edges.length) {
  for (var i=0;i<edges.length;i++) {
    if (edges[i].id.substr(0,4)=='edge') {
      edges[i].setAttribute('class','edge');
    }
  }
}
]]></script>
        <defs>
                <circle id="rim" cx="0" cy="0" r="7"/>
                <circle id="rim2" cx="0" cy="0" r="3.5"/>
                <g id="zoomPlus">
                        <use xlink:href="#rim" fill="#404040">
                                <set attributeName="fill" to="#808080" begin="zoomplus.mouseover" end="zoomplus.mouseout"/>
                        </use>
                        <path d="M-4,0h8M0,-4v8" fill="none" stroke="white" stroke-width="1.5" pointer-events="none"/>
                </g>
                <g id="zoomMin">
                        <use xlink:href="#rim" fill="#404040">
                                <set attributeName="fill" to="#808080" begin="zoomminus.mouseover" end="zoomminus.mouseout"/>
                        </use>
                        <path d="M-4,0h8" fill="none" stroke="white" stroke-width="1.5" pointer-events="none"/>
                </g>
                <g id="dirArrow">
                        <path fill="none" stroke="white" stroke-width="1.5" d="M0,-3.0v7 M-2.5,-0.5L0,-3.0L2.5,-0.5"/>
                </g>
               <g id="resetDef">
                       <use xlink:href="#rim2" fill="#404040">
                               <set attributeName="fill" to="#808080" begin="reset.mouseover" end="reset.mouseout"/>
                       </use>
               </g>
        </defs>

<script type="text/javascript">
var viewWidth = 1251;
var viewHeight = 453;
var sectionId = 'dynsection-0';
</script>
<script xlink:href="svgpan.js"/>
<svg id="graph" class="graph">
<g id="viewport">
<title>Modules/Example/test/testQcExample.cxx</title>
<!-- Node1 -->
<g id="node1" class="node"><title>Node1</title>
<polygon fill="#bfbfbf" stroke="black" points="976,-414.5 976,-444.5 1090,-444.5 1090,-414.5 976,-414.5"/>
<text text-anchor="start" x="984" y="-432.5" font-family="Helvetica,sans-Serif" font-size="10.00">Modules/Example/test</text>
<text text-anchor="middle" x="1033" y="-421.5" font-family="Helvetica,sans-Serif" font-size="10.00">/testQcExample.cxx</text>
</g>
<!-- Node2 -->
<g id="node2" class="node"><title>Node2</title>
<g id="a_node2"><a xlink:href="ExampleTask_8h.html" target="_top" xlink:title="../include/Example\l/ExampleTask.h">
<polygon fill="none" stroke="black" points="347,-347.5 347,-377.5 445,-377.5 445,-347.5 347,-347.5"/>
<text text-anchor="start" x="355" y="-365.5" font-family="Helvetica,sans-Serif" font-size="10.00">../include/Example</text>
<text text-anchor="middle" x="396" y="-354.5" font-family="Helvetica,sans-Serif" font-size="10.00">/ExampleTask.h</text>
</a>
</g>
</g>
<!-- Node1&#45;&gt;Node2 -->
<g id="edge1" class="edge"><title>Node1&#45;&gt;Node2</title>
<path fill="none" stroke="midnightblue" d="M975.91,-422.674C855.735,-410.412 577.705,-382.041 455.474,-369.569"/>
<polygon fill="midnightblue" stroke="midnightblue" points="455.495,-366.053 445.191,-368.52 454.784,-373.017 455.495,-366.053"/>
</g>
<!-- Node28 -->
<g id="node28" class="node"><title>Node28</title>
<g id="a_node28"><a xlink:href="TaskFactory_8h.html" target="_top" xlink:title="QualityControl/TaskFactory.h">
<polygon fill="none" stroke="black" points="859.5,-353 859.5,-372 1004.5,-372 1004.5,-353 859.5,-353"/>
<text text-anchor="middle" x="932" y="-360" font-family="Helvetica,sans-Serif" font-size="10.00">QualityControl/TaskFactory.h</text>
</a>
</g>
</g>
<!-- Node1&#45;&gt;Node28 -->
<g id="edge34" class="edge"><title>Node1&#45;&gt;Node28</title>
<path fill="none" stroke="midnightblue" d="M1011.08,-414.396C994.147,-403.496 970.813,-388.479 953.884,-377.584"/>
<polygon fill="midnightblue" stroke="midnightblue" points="955.522,-374.476 945.219,-372.007 951.734,-380.362 955.522,-374.476"/>
</g>
<!-- Node31 -->
<g id="node31" class="node"><title>Node31</title>
<polygon fill="none" stroke="#bfbfbf" points="1147.5,-291.5 1147.5,-310.5 1212.5,-310.5 1212.5,-291.5 1147.5,-291.5"/>
<text text-anchor="middle" x="1180" y="-298.5" font-family="Helvetica,sans-Serif" font-size="10.00">TSystem.h</text>
</g>
<!-- Node1&#45;&gt;Node31 -->
<g id="edge46" class="edge"><title>Node1&#45;&gt;Node31</title>
<path fill="none" stroke="midnightblue" d="M1032.41,-414.256C1032.44,-396.355 1035.22,-365.715 1052,-347 1063.68,-333.966 1104.95,-320.899 1137.5,-312.23"/>
<polygon fill="midnightblue" stroke="midnightblue" points="1138.49,-315.59 1147.28,-309.686 1136.72,-308.816 1138.49,-315.59"/>
</g>
<!-- Node34 -->
<g id="node34" class="node"><title>Node34</title>
<polygon fill="none" stroke="#bfbfbf" points="1061.5,-353 1061.5,-372 1180.5,-372 1180.5,-353 1061.5,-353"/>
<text text-anchor="middle" x="1121" y="-360" font-family="Helvetica,sans-Serif" font-size="10.00">boost/test/unit_test.hpp</text>
</g>
<!-- Node1&#45;&gt;Node34 -->
<g id="edge47" class="edge"><title>Node1&#45;&gt;Node34</title>
<path fill="none" stroke="midnightblue" d="M1052.09,-414.396C1066.58,-403.697 1086.43,-389.033 1101.11,-378.193"/>
<polygon fill="midnightblue" stroke="midnightblue" points="1103.52,-380.764 1109.48,-372.007 1099.36,-375.133 1103.52,-380.764"/>
</g>
<!-- Node35 -->
<g id="node35" class="node"><title>Node35</title>
<polygon fill="none" stroke="#bfbfbf" points="1199,-353 1199,-372 1243,-372 1243,-353 1199,-353"/>
<text text-anchor="middle" x="1221" y="-360" font-family="Helvetica,sans-Serif" font-size="10.00">TH1.h</text>
</g>
<!-- Node1&#45;&gt;Node35 -->
<g id="edge48" class="edge"><title>Node1&#45;&gt;Node35</title>
<path fill="none" stroke="midnightblue" d="M1082,-414.478C1113.26,-405.11 1154.42,-391.978 1190,-378 1191.42,-377.443 1192.86,-376.853 1194.31,-376.241"/>
<polygon fill="midnightblue" stroke="midnightblue" points="1196.08,-379.286 1203.79,-372.021 1193.23,-372.891 1196.08,-379.286"/>
</g>
<!-- Node3 -->
<g id="node3" class="node"><title>Node3</title>
<g id="a_node3"><a xlink:href="TaskInterface_8h.html" target="_top" xlink:title="QualityControl/TaskInterface.h">
<polygon fill="none" stroke="black" points="362,-235.5 362,-254.5 512,-254.5 512,-235.5 362,-235.5"/>
<text text-anchor="middle" x="437" y="-242.5" font-family="Helvetica,sans-Serif" font-size="10.00">QualityControl/TaskInterface.h</text>
</a>
</g>
</g>
<!-- Node2&#45;&gt;Node3 -->
<g id="edge2" class="edge"><title>Node2&#45;&gt;Node3</title>
<path fill="none" stroke="midnightblue" d="M401.027,-347.337C408.448,-326.433 422.336,-287.31 430.515,-264.27"/>
<polygon fill="midnightblue" stroke="midnightblue" points="433.876,-265.264 433.923,-254.669 427.279,-262.922 433.876,-265.264"/>
</g>
<!-- Node4 -->
<g id="node4" class="node"><title>Node4</title>
<polygon fill="none" stroke="#bfbfbf" points="1048,-62 1048,-81 1100,-81 1100,-62 1048,-62"/>
<text text-anchor="middle" x="1074" y="-69" font-family="Helvetica,sans-Serif" font-size="10.00">memory</text>
</g>
<!-- Node3&#45;&gt;Node4 -->
<g id="edge3" class="edge"><title>Node3&#45;&gt;Node4</title>
<path fill="none" stroke="midnightblue" d="M512.103,-235.928C515.108,-235.613 518.082,-235.303 521,-235 680.5,-218.458 724.157,-236.773 880,-199 945.932,-183.019 968.218,-184.351 1022,-143 1040.59,-128.704 1055.66,-106.047 1064.69,-90.2913"/>
<polygon fill="midnightblue" stroke="midnightblue" points="1068,-91.5422 1069.74,-81.0912 1061.86,-88.176 1068,-91.5422"/>
</g>
<!-- Node5 -->
<g id="node5" class="node"><title>Node5</title>
<polygon fill="none" stroke="#bfbfbf" points="66.5,-179.5 66.5,-198.5 115.5,-198.5 115.5,-179.5 66.5,-179.5"/>
<text text-anchor="middle" x="91" y="-186.5" font-family="Helvetica,sans-Serif" font-size="10.00">cassert</text>
</g>
<!-- Node3&#45;&gt;Node5 -->
<g id="edge4" class="edge"><title>Node3&#45;&gt;Node5</title>
<path fill="none" stroke="midnightblue" d="M361.923,-235.846C300.597,-228.58 211.538,-216.651 125.696,-199.16"/>
<polygon fill="midnightblue" stroke="midnightblue" points="126.288,-195.708 115.787,-197.113 124.872,-202.564 126.288,-195.708"/>
</g>
<!-- Node6 -->
<g id="node6" class="node"><title>Node6</title>
<polygon fill="none" stroke="#bfbfbf" points="133.5,-179.5 133.5,-198.5 258.5,-198.5 258.5,-179.5 133.5,-179.5"/>
<text text-anchor="middle" x="196" y="-186.5" font-family="Helvetica,sans-Serif" font-size="10.00">Framework/InitContext.h</text>
</g>
<!-- Node3&#45;&gt;Node6 -->
<g id="edge5" class="edge"><title>Node3&#45;&gt;Node6</title>
<path fill="none" stroke="midnightblue" d="M398.813,-235.444C356.859,-226.043 289.406,-210.929 243.929,-200.739"/>
<polygon fill="midnightblue" stroke="midnightblue" points="244.532,-197.288 234.009,-198.516 243.001,-204.118 244.532,-197.288"/>
</g>
<!-- Node7 -->
<g id="node7" class="node"><title>Node7</title>
<polygon fill="none" stroke="#bfbfbf" points="277,-179.5 277,-198.5 437,-198.5 437,-179.5 277,-179.5"/>
<text text-anchor="middle" x="357" y="-186.5" font-family="Helvetica,sans-Serif" font-size="10.00">Framework/ProcessingContext.h</text>
</g>
<!-- Node3&#45;&gt;Node7 -->
<g id="edge6" class="edge"><title>Node3&#45;&gt;Node7</title>
<path fill="none" stroke="midnightblue" d="M424.147,-235.324C411.784,-226.979 392.87,-214.212 378.263,-204.352"/>
<polygon fill="midnightblue" stroke="midnightblue" points="380.068,-201.348 369.821,-198.655 376.152,-207.15 380.068,-201.348"/>
</g>
<!-- Node8 -->
<g id="node8" class="node"><title>Node8</title>
<polygon fill="none" stroke="#bfbfbf" points="894.5,-56.5 894.5,-86.5 1029.5,-86.5 1029.5,-56.5 894.5,-56.5"/>
<text text-anchor="start" x="902.5" y="-74.5" font-family="Helvetica,sans-Serif" font-size="10.00">Configuration/Configuration</text>
<text text-anchor="middle" x="962" y="-63.5" font-family="Helvetica,sans-Serif" font-size="10.00">Interface.h</text>
</g>
<!-- Node3&#45;&gt;Node8 -->
<g id="edge7" class="edge"><title>Node3&#45;&gt;Node8</title>
<path fill="none" stroke="midnightblue" d="M512.128,-235.767C579.021,-227.951 679.411,-215.029 766,-199 873.276,-179.141 937.224,-228.493 1005,-143 1017.4,-127.359 1003.6,-107.88 988.421,-93.3633"/>
<polygon fill="midnightblue" stroke="midnightblue" points="990.75,-90.7505 980.971,-86.6739 986.074,-95.9591 990.75,-90.7505"/>
</g>
<!-- Node9 -->
<g id="node9" class="node"><title>Node9</title>
<g id="a_node9"><a xlink:href="Activity_8h.html" target="_top" xlink:title="QualityControl/Activity.h">
<polygon fill="none" stroke="black" points="455.5,-179.5 455.5,-198.5 578.5,-198.5 578.5,-179.5 455.5,-179.5"/>
<text text-anchor="middle" x="517" y="-186.5" font-family="Helvetica,sans-Serif" font-size="10.00">QualityControl/Activity.h</text>
</a>
</g>
</g>
<!-- Node3&#45;&gt;Node9 -->
<g id="edge8" class="edge"><title>Node3&#45;&gt;Node9</title>
<path fill="none" stroke="midnightblue" d="M449.853,-235.324C462.216,-226.979 481.13,-214.212 495.737,-204.352"/>
<polygon fill="midnightblue" stroke="midnightblue" points="497.848,-207.15 504.179,-198.655 493.932,-201.348 497.848,-207.15"/>
</g>
<!-- Node10 -->
<g id="node10" class="node"><title>Node10</title>
<g id="a_node10"><a xlink:href="ObjectsManager_8h.html" target="_top" xlink:title="QualityControl/ObjectsManager.h">
<polygon fill="none" stroke="black" points="596.5,-179.5 596.5,-198.5 757.5,-198.5 757.5,-179.5 596.5,-179.5"/>
<text text-anchor="middle" x="677" y="-186.5" font-family="Helvetica,sans-Serif" font-size="10.00">QualityControl/ObjectsManager.h</text>
</a>
</g>
</g>
<!-- Node3&#45;&gt;Node10 -->
<g id="edge9" class="edge"><title>Node3&#45;&gt;Node10</title>
<path fill="none" stroke="midnightblue" d="M475.029,-235.444C516.808,-226.043 583.982,-210.929 629.27,-200.739"/>
<polygon fill="midnightblue" stroke="midnightblue" points="630.161,-204.126 639.149,-198.516 628.625,-197.297 630.161,-204.126"/>
</g>
<!-- Node11 -->
<g id="node11" class="node"><title>Node11</title>
<g id="a_node11"><a xlink:href="MonitorObject_8h.html" target="_top" xlink:title="QualityControl/MonitorObject.h">
<polygon fill="none" stroke="black" points="66.5,-123.5 66.5,-142.5 217.5,-142.5 217.5,-123.5 66.5,-123.5"/>
<text text-anchor="middle" x="142" y="-130.5" font-family="Helvetica,sans-Serif" font-size="10.00">QualityControl/MonitorObject.h</text>
</a>
</g>
</g>
<!-- Node10&#45;&gt;Node11 -->
<g id="edge10" class="edge"><title>Node10&#45;&gt;Node11</title>
<path fill="none" stroke="midnightblue" d="M596.047,-179.904C592.993,-179.599 589.969,-179.296 587,-179 429.848,-163.307 388.083,-159.733 227.78,-143.179"/>
<polygon fill="midnightblue" stroke="midnightblue" points="227.86,-139.668 217.553,-142.121 227.141,-146.631 227.86,-139.668"/>
</g>
<!-- Node16 -->
<g id="node16" class="node"><title>Node16</title>
<g id="a_node16"><a xlink:href="Quality_8h.html" target="_top" xlink:title="QualityControl/Quality.h">
<polygon fill="none" stroke="black" points="190.5,-62 190.5,-81 311.5,-81 311.5,-62 190.5,-62"/>
<text text-anchor="middle" x="251" y="-69" font-family="Helvetica,sans-Serif" font-size="10.00">QualityControl/Quality.h</text>
</a>
</g>
</g>
<!-- Node10&#45;&gt;Node16 -->
<g id="edge19" class="edge"><title>Node10&#45;&gt;Node16</title>
<path fill="none" stroke="midnightblue" d="M660.63,-179.325C628.776,-162.498 560.559,-126.744 549,-123 451.403,-91.3881 421.923,-105.41 321,-87 314.355,-85.788 307.373,-84.436 300.495,-83.0583"/>
<polygon fill="midnightblue" stroke="midnightblue" points="301.044,-79.5982 290.547,-81.0347 299.649,-86.4578 301.044,-79.5982"/>
</g>
<!-- Node18 -->
<g id="node18" class="node"><title>Node18</title>
<polygon fill="none" stroke="#bfbfbf" points="788.5,-0.5 788.5,-19.5 829.5,-19.5 829.5,-0.5 788.5,-0.5"/>
<text text-anchor="middle" x="809" y="-7.5" font-family="Helvetica,sans-Serif" font-size="10.00">string</text>
</g>
<!-- Node10&#45;&gt;Node18 -->
<g id="edge33" class="edge"><title>Node10&#45;&gt;Node18</title>
<path fill="none" stroke="midnightblue" d="M751.037,-179.489C773.301,-173.071 795.403,-162 809,-143 833.146,-109.258 823.138,-57.2179 815.208,-29.6398"/>
<polygon fill="midnightblue" stroke="midnightblue" points="818.446,-28.2626 812.144,-19.7457 811.759,-30.3336 818.446,-28.2626"/>
</g>
<!-- Node19 -->
<g id="node19" class="node"><title>Node19</title>
<g id="a_node19"><a xlink:href="TaskConfig_8h.html" target="_top" xlink:title="QualityControl/TaskConfig.h">
<polygon fill="none" stroke="black" points="856,-123.5 856,-142.5 996,-142.5 996,-123.5 856,-123.5"/>
<text text-anchor="middle" x="926" y="-130.5" font-family="Helvetica,sans-Serif" font-size="10.00">QualityControl/TaskConfig.h</text>
</a>
</g>
</g>
<!-- Node10&#45;&gt;Node19 -->
<g id="edge20" class="edge"><title>Node10&#45;&gt;Node19</title>
<path fill="none" stroke="midnightblue" d="M716.455,-179.444C759.892,-170.023 829.786,-154.866 876.776,-144.675"/>
<polygon fill="midnightblue" stroke="midnightblue" points="877.699,-148.056 886.73,-142.516 876.215,-141.215 877.699,-148.056"/>
</g>
<!-- Node20 -->
<g id="node20" class="node"><title>Node20</title>
<g id="a_node20"><a xlink:href="ServiceDiscovery_8h_source.html" target="_top" xlink:title="QualityControl/ServiceDiscovery.h">
<polygon fill="none" stroke="black" points="633.5,-123.5 633.5,-142.5 800.5,-142.5 800.5,-123.5 633.5,-123.5"/>
<text text-anchor="middle" x="717" y="-130.5" font-family="Helvetica,sans-Serif" font-size="10.00">QualityControl/ServiceDiscovery.h</text>
</a>
</g>
</g>
<!-- Node10&#45;&gt;Node20 -->
<g id="edge23" class="edge"><title>Node10&#45;&gt;Node20</title>
<path fill="none" stroke="midnightblue" d="M683.605,-179.083C689.255,-171.455 697.545,-160.264 704.451,-150.941"/>
<polygon fill="midnightblue" stroke="midnightblue" points="707.378,-152.87 710.518,-142.751 701.753,-148.703 707.378,-152.87"/>
</g>
<!-- Node25 -->
<g id="node25" class="node"><title>Node25</title>
<polygon fill="none" stroke="#bfbfbf" points="235.5,-123.5 235.5,-142.5 304.5,-142.5 304.5,-123.5 235.5,-123.5"/>
<text text-anchor="middle" x="270" y="-130.5" font-family="Helvetica,sans-Serif" font-size="10.00">TObjArray.h</text>
</g>
<!-- Node10&#45;&gt;Node25 -->
<g id="edge30" class="edge"><title>Node10&#45;&gt;Node25</title>
<path fill="none" stroke="midnightblue" d="M596.48,-179.993C524.847,-172.422 417.041,-159.937 314.584,-143.156"/>
<polygon fill="midnightblue" stroke="midnightblue" points="315.124,-139.698 304.687,-141.519 313.982,-146.604 315.124,-139.698"/>
</g>
<!-- Node26 -->
<g id="node26" class="node"><title>Node26</title>
<polygon fill="none" stroke="#bfbfbf" points="322.5,-123.5 322.5,-142.5 393.5,-142.5 393.5,-123.5 322.5,-123.5"/>
<text text-anchor="middle" x="358" y="-130.5" font-family="Helvetica,sans-Serif" font-size="10.00">TObjString.h</text>
</g>
<!-- Node10&#45;&gt;Node26 -->
<g id="edge31" class="edge"><title>Node10&#45;&gt;Node26</title>
<path fill="none" stroke="midnightblue" d="M621.537,-179.468C568.283,-171.146 485.322,-157.841 403.776,-143.09"/>
<polygon fill="midnightblue" stroke="midnightblue" points="404.305,-139.629 393.84,-141.284 403.053,-146.516 404.305,-139.629"/>
</g>
<!-- Node27 -->
<g id="node27" class="node"><title>Node27</title>
<polygon fill="none" stroke="#bfbfbf" points="412,-123.5 412,-142.5 540,-142.5 540,-123.5 412,-123.5"/>
<text text-anchor="middle" x="476" y="-130.5" font-family="Helvetica,sans-Serif" font-size="10.00">boost/concept_check.hpp</text>
</g>
<!-- Node10&#45;&gt;Node27 -->
<g id="edge32" class="edge"><title>Node10&#45;&gt;Node27</title>
<path fill="none" stroke="midnightblue" d="M645.151,-179.444C610.602,-170.162 555.318,-155.309 517.417,-145.127"/>
<polygon fill="midnightblue" stroke="midnightblue" points="518.266,-141.731 507.7,-142.516 516.449,-148.491 518.266,-141.731"/>
</g>
<!-- Node12 -->
<g id="node12" class="node"><title>Node12</title>
<polygon fill="none" stroke="#bfbfbf" points="11,-62 11,-81 65,-81 65,-62 11,-62"/>
<text text-anchor="middle" x="38" y="-69" font-family="Helvetica,sans-Serif" font-size="10.00">iostream</text>
</g>
<!-- Node11&#45;&gt;Node12 -->
<g id="edge11" class="edge"><title>Node11&#45;&gt;Node12</title>
<path fill="none" stroke="midnightblue" d="M127.099,-123.475C110.032,-113.711 81.8386,-97.5807 61.7379,-86.0808"/>
<polygon fill="midnightblue" stroke="midnightblue" points="63.291,-82.9371 52.873,-81.0091 59.8148,-89.013 63.291,-82.9371"/>
</g>
<!-- Node13 -->
<g id="node13" class="node"><title>Node13</title>
<polygon fill="none" stroke="#bfbfbf" points="137.5,-62 137.5,-81 172.5,-81 172.5,-62 137.5,-62"/>
<text text-anchor="middle" x="155" y="-69" font-family="Helvetica,sans-Serif" font-size="10.00">map</text>
</g>
<!-- Node11&#45;&gt;Node13 -->
<g id="edge12" class="edge"><title>Node11&#45;&gt;Node13</title>
<path fill="none" stroke="midnightblue" d="M143.863,-123.475C145.716,-114.992 148.619,-101.704 150.997,-90.8222"/>
<polygon fill="midnightblue" stroke="midnightblue" points="154.426,-91.5257 153.141,-81.0091 147.587,-90.0315 154.426,-91.5257"/>
</g>
<!-- Node14 -->
<g id="node14" class="node"><title>Node14</title>
<polygon fill="none" stroke="#bfbfbf" points="113.5,-0.5 113.5,-19.5 172.5,-19.5 172.5,-0.5 113.5,-0.5"/>
<text text-anchor="middle" x="143" y="-7.5" font-family="Helvetica,sans-Serif" font-size="10.00">TObject.h</text>
</g>
<!-- Node11&#45;&gt;Node14 -->
<g id="edge13" class="edge"><title>Node11&#45;&gt;Node14</title>
<path fill="none" stroke="midnightblue" d="M138.4,-123.222C134.944,-114.285 129.967,-99.9424 128,-87 125.93,-73.3786 125.793,-69.5999 128,-56 129.468,-46.9568 132.492,-37.275 135.444,-29.2176"/>
<polygon fill="midnightblue" stroke="midnightblue" points="138.763,-30.3393 139.144,-19.7514 132.244,-27.7907 138.763,-30.3393"/>
</g>
<!-- Node15 -->
<g id="node15" class="node"><title>Node15</title>
<polygon fill="none" stroke="#bfbfbf" points="330,-62 330,-81 446,-81 446,-62 330,-62"/>
<text text-anchor="middle" x="388" y="-69" font-family="Helvetica,sans-Serif" font-size="10.00">Common/Exceptions.h</text>
</g>
<!-- Node11&#45;&gt;Node15 -->
<g id="edge14" class="edge"><title>Node11&#45;&gt;Node15</title>
<path fill="none" stroke="midnightblue" d="M177.246,-123.475C220.905,-112.915 295.343,-94.911 343.063,-83.3689"/>
<polygon fill="midnightblue" stroke="midnightblue" points="343.923,-86.762 352.82,-81.0091 342.277,-79.9582 343.923,-86.762"/>
</g>
<!-- Node11&#45;&gt;Node16 -->
<g id="edge15" class="edge"><title>Node11&#45;&gt;Node16</title>
<path fill="none" stroke="midnightblue" d="M157.617,-123.475C175.586,-113.666 205.321,-97.4346 226.406,-85.925"/>
<polygon fill="midnightblue" stroke="midnightblue" points="228.311,-88.8726 235.412,-81.0091 224.958,-82.7284 228.311,-88.8726"/>
</g>
<!-- Node16&#45;&gt;Node14 -->
<g id="edge16" class="edge"><title>Node16&#45;&gt;Node14</title>
<path fill="none" stroke="midnightblue" d="M235.526,-61.9751C217.722,-52.1664 188.259,-35.9346 167.368,-24.425"/>
<polygon fill="midnightblue" stroke="midnightblue" points="168.893,-21.269 158.445,-19.5091 165.515,-27.4001 168.893,-21.269"/>
</g>
<!-- Node17 -->
<g id="node17" class="node"><title>Node17</title>
<polygon fill="none" stroke="#bfbfbf" points="225,-0.5 225,-19.5 277,-19.5 277,-0.5 225,-0.5"/>
<text text-anchor="middle" x="251" y="-7.5" font-family="Helvetica,sans-Serif" font-size="10.00">ostream</text>
</g>
<!-- Node16&#45;&gt;Node17 -->
<g id="edge17" class="edge"><title>Node16&#45;&gt;Node17</title>
<path fill="none" stroke="midnightblue" d="M251,-61.9751C251,-53.5803 251,-40.4806 251,-29.6631"/>
<polygon fill="midnightblue" stroke="midnightblue" points="254.5,-29.5091 251,-19.5091 247.5,-29.5091 254.5,-29.5091"/>
</g>
<!-- Node16&#45;&gt;Node18 -->
<g id="edge18" class="edge"><title>Node16&#45;&gt;Node18</title>
<path fill="none" stroke="midnightblue" d="M288.279,-61.9688C298.816,-59.7783 310.321,-57.5933 321,-56 492.64,-30.392 700.561,-17.0238 777.989,-12.6476"/>
<polygon fill="midnightblue" stroke="midnightblue" points="778.655,-16.116 788.446,-12.0668 778.267,-9.1268 778.655,-16.116"/>
</g>
<!-- Node19&#45;&gt;Node8 -->
<g id="edge22" class="edge"><title>Node19&#45;&gt;Node8</title>
<path fill="none" stroke="midnightblue" d="M931.158,-123.475C935.624,-116.094 942.289,-105.077 948.283,-95.1714"/>
<polygon fill="midnightblue" stroke="midnightblue" points="951.333,-96.8907 953.516,-86.523 945.344,-93.267 951.333,-96.8907"/>
</g>
<!-- Node19&#45;&gt;Node18 -->
<g id="edge21" class="edge"><title>Node19&#45;&gt;Node18</title>
<path fill="none" stroke="midnightblue" d="M917.586,-123.298C898.106,-103.153 849.666,-53.056 824.592,-27.1247"/>
<polygon fill="midnightblue" stroke="midnightblue" points="826.806,-24.3791 817.338,-19.6232 821.773,-29.245 826.806,-24.3791"/>
</g>
<!-- Node20&#45;&gt;Node4 -->
<g id="edge26" class="edge"><title>Node20&#45;&gt;Node4</title>
<path fill="none" stroke="midnightblue" d="M800.576,-125.899C866.018,-119.782 958.896,-108.136 1038,-87 1040.51,-86.3304 1043.07,-85.5342 1045.62,-84.6647"/>
<polygon fill="midnightblue" stroke="midnightblue" points="1047.1,-87.8483 1055.24,-81.0603 1044.65,-81.2939 1047.1,-87.8483"/>
</g>
<!-- Node20&#45;&gt;Node18 -->
<g id="edge27" class="edge"><title>Node20&#45;&gt;Node18</title>
<path fill="none" stroke="midnightblue" d="M730.329,-123.278C742.16,-115.024 759.332,-101.732 771,-87 785.125,-69.1659 796.022,-45.2381 802.454,-29.0305"/>
<polygon fill="midnightblue" stroke="midnightblue" points="805.744,-30.2274 806.026,-19.6364 799.201,-27.74 805.744,-30.2274"/>
</g>
<!-- Node21 -->
<g id="node21" class="node"><title>Node21</title>
<polygon fill="none" stroke="#bfbfbf" points="576,-62 576,-81 622,-81 622,-62 576,-62"/>
<text text-anchor="middle" x="599" y="-69" font-family="Helvetica,sans-Serif" font-size="10.00">atomic</text>
</g>
<!-- Node20&#45;&gt;Node21 -->
<g id="edge24" class="edge"><title>Node20&#45;&gt;Node21</title>
<path fill="none" stroke="midnightblue" d="M700.093,-123.475C680.466,-113.578 647.869,-97.1416 625.01,-85.6151"/>
<polygon fill="midnightblue" stroke="midnightblue" points="626.38,-82.3863 615.875,-81.0091 623.228,-88.6367 626.38,-82.3863"/>
</g>
<!-- Node22 -->
<g id="node22" class="node"><title>Node22</title>
<polygon fill="none" stroke="#bfbfbf" points="640.5,-62 640.5,-81 699.5,-81 699.5,-62 640.5,-62"/>
<text text-anchor="middle" x="670" y="-69" font-family="Helvetica,sans-Serif" font-size="10.00">curl/curl.h</text>
</g>
<!-- Node20&#45;&gt;Node22 -->
<g id="edge25" class="edge"><title>Node20&#45;&gt;Node22</title>
<path fill="none" stroke="midnightblue" d="M710.266,-123.475C703.216,-114.55 691.965,-100.307 683.146,-89.1425"/>
<polygon fill="midnightblue" stroke="midnightblue" points="685.667,-86.6867 676.721,-81.0091 680.174,-91.0258 685.667,-86.6867"/>
</g>
<!-- Node23 -->
<g id="node23" class="node"><title>Node23</title>
<polygon fill="none" stroke="#bfbfbf" points="718,-62 718,-81 762,-81 762,-62 718,-62"/>
<text text-anchor="middle" x="740" y="-69" font-family="Helvetica,sans-Serif" font-size="10.00">thread</text>
</g>
<!-- Node20&#45;&gt;Node23 -->
<g id="edge28" class="edge"><title>Node20&#45;&gt;Node23</title>
<path fill="none" stroke="midnightblue" d="M720.295,-123.475C723.609,-114.904 728.818,-101.427 733.049,-90.483"/>
<polygon fill="midnightblue" stroke="midnightblue" points="736.37,-91.5984 736.711,-81.0091 729.841,-89.0745 736.37,-91.5984"/>
</g>
<!-- Node24 -->
<g id="node24" class="node"><title>Node24</title>
<polygon fill="none" stroke="#bfbfbf" points="464,-56.5 464,-86.5 558,-86.5 558,-56.5 464,-56.5"/>
<text text-anchor="start" x="472" y="-74.5" font-family="Helvetica,sans-Serif" font-size="10.00">boost/asio/ip/host</text>
<text text-anchor="middle" x="511" y="-63.5" font-family="Helvetica,sans-Serif" font-size="10.00">_name.hpp</text>
</g>
<!-- Node20&#45;&gt;Node24 -->
<g id="edge29" class="edge"><title>Node20&#45;&gt;Node24</title>
<path fill="none" stroke="midnightblue" d="M687.485,-123.475C656.541,-114.537 607.133,-100.267 568.455,-89.095"/>
<polygon fill="midnightblue" stroke="midnightblue" points="568.942,-85.5927 558.364,-86.1803 567,-92.3178 568.942,-85.5927"/>
</g>
<!-- Node28&#45;&gt;Node4 -->
<g id="edge36" class="edge"><title>Node28&#45;&gt;Node4</title>
<path fill="none" stroke="midnightblue" d="M982.113,-352.892C1037.5,-340.167 1119,-310.488 1119,-246 1119,-246 1119,-246 1119,-188 1119,-150.883 1098.57,-111.352 1085.24,-89.5083"/>
<polygon fill="midnightblue" stroke="midnightblue" points="1088.19,-87.6154 1079.88,-81.038 1082.27,-91.3595 1088.19,-87.6154"/>
</g>
<!-- Node28&#45;&gt;Node12 -->
<g id="edge35" class="edge"><title>Node28&#45;&gt;Node12</title>
<path fill="none" stroke="midnightblue" d="M859.256,-360.104C639.911,-354.94 0,-332.464 0,-246 0,-246 0,-246 0,-188 0,-151.754 17.0946,-112.171 28.3527,-90.0327"/>
<polygon fill="midnightblue" stroke="midnightblue" points="31.4613,-91.641 33.0322,-81.1633 25.2702,-88.3745 31.4613,-91.641"/>
</g>
<!-- Node28&#45;&gt;Node15 -->
<g id="edge45" class="edge"><title>Node28&#45;&gt;Node15</title>
<path fill="none" stroke="midnightblue" d="M915.803,-352.973C899.689,-343.973 874.857,-328.662 857,-311 806.338,-260.891 824.497,-219.69 766,-179 712.551,-141.822 685.026,-165.69 624,-143 605.37,-136.073 602.617,-129.963 584,-123 556.96,-112.887 483.886,-94.9515 435.011,-83.4016"/>
<polygon fill="midnightblue" stroke="midnightblue" points="435.51,-79.9235 424.974,-81.039 433.906,-86.7373 435.51,-79.9235"/>
</g>
<!-- Node28&#45;&gt;Node19 -->
<g id="edge44" class="edge"><title>Node28&#45;&gt;Node19</title>
<path fill="none" stroke="midnightblue" d="M955.617,-352.993C973.57,-345.128 996.996,-331.523 1008,-311 1012.2,-303.166 1010.12,-299.633 1008,-291 994.435,-235.727 957.625,-178.315 938.27,-150.746"/>
<polygon fill="midnightblue" stroke="midnightblue" points="941.099,-148.685 932.434,-142.587 935.405,-152.757 941.099,-148.685"/>
</g>
<!-- Node29 -->
<g id="node29" class="node"><title>Node29</title>
<polygon fill="none" stroke="#bfbfbf" points="866,-291.5 866,-310.5 922,-310.5 922,-291.5 866,-291.5"/>
<text text-anchor="middle" x="894" y="-298.5" font-family="Helvetica,sans-Serif" font-size="10.00">TClass.h</text>
</g>
<!-- Node28&#45;&gt;Node29 -->
<g id="edge37" class="edge"><title>Node28&#45;&gt;Node29</title>
<path fill="none" stroke="midnightblue" d="M926.556,-352.975C920.912,-344.138 911.939,-330.089 904.841,-318.975"/>
<polygon fill="midnightblue" stroke="midnightblue" points="907.767,-317.053 899.434,-310.509 901.867,-320.821 907.767,-317.053"/>
</g>
<!-- Node30 -->
<g id="node30" class="node"><title>Node30</title>
<polygon fill="none" stroke="#bfbfbf" points="940.5,-291.5 940.5,-310.5 999.5,-310.5 999.5,-291.5 940.5,-291.5"/>
<text text-anchor="middle" x="970" y="-298.5" font-family="Helvetica,sans-Serif" font-size="10.00">TROOT.h</text>
</g>
<!-- Node28&#45;&gt;Node30 -->
<g id="edge38" class="edge"><title>Node28&#45;&gt;Node30</title>
<path fill="none" stroke="midnightblue" d="M937.444,-352.975C943.088,-344.138 952.061,-330.089 959.159,-318.975"/>
<polygon fill="midnightblue" stroke="midnightblue" points="962.133,-320.821 964.566,-310.509 956.233,-317.053 962.133,-320.821"/>
</g>
<!-- Node28&#45;&gt;Node31 -->
<g id="edge39" class="edge"><title>Node28&#45;&gt;Node31</title>
<path fill="none" stroke="midnightblue" d="M967.532,-352.975C1012.42,-342.205 1089.59,-323.692 1137.54,-312.188"/>
<polygon fill="midnightblue" stroke="midnightblue" points="1138.39,-315.582 1147.3,-309.845 1136.76,-308.775 1138.39,-315.582"/>
</g>
<!-- Node32 -->
<g id="node32" class="node"><title>Node32</title>
<g id="a_node32"><a xlink:href="QcInfoLogger_8h.html" target="_top" xlink:title="QualityControl/QcInfoLogger.h">
<polygon fill="none" stroke="black" points="441.5,-291.5 441.5,-310.5 590.5,-310.5 590.5,-291.5 441.5,-291.5"/>
<text text-anchor="middle" x="516" y="-298.5" font-family="Helvetica,sans-Serif" font-size="10.00">QualityControl/QcInfoLogger.h</text>
</a>
</g>
</g>
<!-- Node28&#45;&gt;Node32 -->
<g id="edge40" class="edge"><title>Node28&#45;&gt;Node32</title>
<path fill="none" stroke="midnightblue" d="M872.397,-352.975C796.559,-342.128 665.803,-323.426 585.509,-311.942"/>
<polygon fill="midnightblue" stroke="midnightblue" points="585.887,-308.46 575.492,-310.509 584.896,-315.39 585.887,-308.46"/>
</g>
<!-- Node32&#45;&gt;Node3 -->
<g id="edge41" class="edge"><title>Node32&#45;&gt;Node3</title>
<path fill="none" stroke="midnightblue" d="M503.307,-291.324C491.099,-282.979 472.422,-270.212 457.997,-260.352"/>
<polygon fill="midnightblue" stroke="midnightblue" points="459.892,-257.408 449.661,-254.655 455.942,-263.187 459.892,-257.408"/>
</g>
<!-- Node32&#45;&gt;Node12 -->
<g id="edge43" class="edge"><title>Node32&#45;&gt;Node12</title>
<path fill="none" stroke="midnightblue" d="M441.086,-293.68C324.706,-282.254 108.467,-254.065 57,-199 29.6658,-169.755 31.4043,-118.98 34.8264,-91.4912"/>
<polygon fill="midnightblue" stroke="midnightblue" points="38.3376,-91.6671 36.3162,-81.2669 31.4108,-90.6577 38.3376,-91.6671"/>
</g>
<!-- Node33 -->
<g id="node33" class="node"><title>Node33</title>
<polygon fill="none" stroke="#bfbfbf" points="530,-235.5 530,-254.5 660,-254.5 660,-235.5 530,-235.5"/>
<text text-anchor="middle" x="595" y="-242.5" font-family="Helvetica,sans-Serif" font-size="10.00">InfoLogger/InfoLogger.hxx</text>
</g>
<!-- Node32&#45;&gt;Node33 -->
<g id="edge42" class="edge"><title>Node32&#45;&gt;Node33</title>
<path fill="none" stroke="midnightblue" d="M528.693,-291.324C540.901,-282.979 559.578,-270.212 574.003,-260.352"/>
<polygon fill="midnightblue" stroke="midnightblue" points="576.058,-263.187 582.339,-254.655 572.108,-257.408 576.058,-263.187"/>
</g>
</g>
</svg>
        <g id="navigator" transform="translate(0 0)" fill="#404254">
                <rect fill="#f2f5e9" fill-opacity="0.5" stroke="#606060" stroke-width=".5" x="0" y="0" width="60" height="60"/>
                <use id="zoomplus" xlink:href="#zoomPlus" x="17" y="9" onmousedown="handleZoom(evt,'in')"/>
                <use id="zoomminus" xlink:href="#zoomMin" x="42" y="9" onmousedown="handleZoom(evt,'out')"/>
                <use id="reset" xlink:href="#resetDef" x="30" y="36" onmousedown="handleReset()"/>
                <g id="arrowUp" xlink:href="#dirArrow" transform="translate(30 24)" onmousedown="handlePan(0,-1)">
                  <use xlink:href="#rim" fill="#404040">
                        <set attributeName="fill" to="#808080" begin="arrowUp.mouseover" end="arrowUp.mouseout"/>
                  </use>
                  <path fill="none" stroke="white" stroke-width="1.5" d="M0,-3.0v7 M-2.5,-0.5L0,-3.0L2.5,-0.5"/>
                </g>
                <g id="arrowRight" xlink:href="#dirArrow" transform="rotate(90) translate(36 -43)" onmousedown="handlePan(1,0)">
                  <use xlink:href="#rim" fill="#404040">
                        <set attributeName="fill" to="#808080" begin="arrowRight.mouseover" end="arrowRight.mouseout"/>
                  </use>
                  <path fill="none" stroke="white" stroke-width="1.5" d="M0,-3.0v7 M-2.5,-0.5L0,-3.0L2.5,-0.5"/>
                </g>
                <g id="arrowDown" xlink:href="#dirArrow" transform="rotate(180) translate(-30 -48)" onmousedown="handlePan(0,1)">
                  <use xlink:href="#rim" fill="#404040">
                        <set attributeName="fill" to="#808080" begin="arrowDown.mouseover" end="arrowDown.mouseout"/>
                  </use>
                  <path fill="none" stroke="white" stroke-width="1.5" d="M0,-3.0v7 M-2.5,-0.5L0,-3.0L2.5,-0.5"/>
                </g>
                <g id="arrowLeft" xlink:href="#dirArrow" transform="rotate(270) translate(-36 17)" onmousedown="handlePan(-1,0)">
                  <use xlink:href="#rim" fill="#404040">
                        <set attributeName="fill" to="#808080" begin="arrowLeft.mouseover" end="arrowLeft.mouseout"/>
                  </use>
                  <path fill="none" stroke="white" stroke-width="1.5" d="M0,-3.0v7 M-2.5,-0.5L0,-3.0L2.5,-0.5"/>
                </g>
        </g>
        <svg viewBox="0 0 15 15" width="100%" height="30px" preserveAspectRatio="xMaxYMin meet">
         <g id="arrow_out" transform="scale(0.3 0.3)">
          <a xlink:href="testQcExample_8cxx__incl_org.svg" target="_base">
           <rect id="button" ry="5" rx="5" y="6" x="6" height="38" width="38"
                fill="#f2f5e9" fill-opacity="0.5" stroke="#606060" stroke-width="1.0"/>
           <path id="arrow"
             d="M 11.500037,31.436501 C 11.940474,20.09759 22.043105,11.32322 32.158766,21.979434 L 37.068811,17.246167 C 37.068811,17.246167 37.088388,32 37.088388,32 L 22.160133,31.978069 C 22.160133,31.978069 26.997745,27.140456 26.997745,27.140456 C 18.528582,18.264221 13.291696,25.230495 11.500037,31.436501 z"
             style="fill:#404040;"/>
          </a>
         </g>
        </svg>
</svg>
