<?xml version="1.0" encoding="UTF-8" standalone="no"?>
<!DOCTYPE svg PUBLIC "-//W3C//DTD SVG 1.1//EN"
 "http://www.w3.org/Graphics/SVG/1.1/DTD/svg11.dtd">
<!-- Generated by graphviz version 2.38.0 (20140413.2041)
 -->
<!-- Title: Framework/test/testInfrastructureGenerator.cxx Pages: 1 -->
<svg width="701pt" height="162pt"
 viewBox="0.00 0.00 700.50 162.00" xmlns="http://www.w3.org/2000/svg" xmlns:xlink="http://www.w3.org/1999/xlink">
<g id="graph0" class="graph" transform="scale(1 1) rotate(0) translate(4 158)">
<title>Framework/test/testInfrastructureGenerator.cxx</title>
<!-- Node1 -->
<g id="node1" class="node"><title>Node1</title>
<polygon fill="#bfbfbf" stroke="black" points="245.5,-123.5 245.5,-153.5 407.5,-153.5 407.5,-123.5 245.5,-123.5"/>
<text text-anchor="start" x="253.5" y="-141.5" font-family="Helvetica,sans-Serif" font-size="10.00">Framework/test/testInfrastructure</text>
<text text-anchor="middle" x="326.5" y="-130.5" font-family="Helvetica,sans-Serif" font-size="10.00">Generator.cxx</text>
</g>
<!-- Node2 -->
<g id="node2" class="node"><title>Node2</title>
<polygon fill="none" stroke="#bfbfbf" points="0,-62 0,-81 119,-81 119,-62 0,-62"/>
<text text-anchor="middle" x="59.5" y="-69" font-family="Helvetica,sans-Serif" font-size="10.00">boost/test/unit_test.hpp</text>
</g>
<!-- Node1&#45;&gt;Node2 -->
<g id="edge1" class="edge"><title>Node1&#45;&gt;Node2</title>
<path fill="none" stroke="midnightblue" d="M268.894,-123.476C219.581,-111.471 149.58,-94.4295 104.35,-83.4187"/>
<polygon fill="midnightblue" stroke="midnightblue" points="105.077,-79.9934 94.5331,-81.0287 103.421,-86.7948 105.077,-79.9934"/>
</g>
<!-- Node3 -->
<g id="node3" class="node"><title>Node3</title>
<polygon fill="none" stroke="#bfbfbf" points="137,-56.5 137,-86.5 238,-86.5 238,-56.5 137,-56.5"/>
<text text-anchor="start" x="145" y="-74.5" font-family="Helvetica,sans-Serif" font-size="10.00">boost/property_tree</text>
<text text-anchor="middle" x="187.5" y="-63.5" font-family="Helvetica,sans-Serif" font-size="10.00">/json_parser.hpp</text>
</g>
<!-- Node1&#45;&gt;Node3 -->
<g id="edge2" class="edge"><title>Node1&#45;&gt;Node3</title>
<path fill="none" stroke="midnightblue" d="M296.339,-123.396C275.938,-113.856 248.795,-101.163 226.719,-90.8397"/>
<polygon fill="midnightblue" stroke="midnightblue" points="228.143,-87.6421 217.602,-86.5765 225.178,-93.983 228.143,-87.6421"/>
</g>
<!-- Node4 -->
<g id="node4" class="node"><title>Node4</title>
<g id="a_node4"><a xlink:href="InfrastructureGenerator_8h.html" target="_top" xlink:title="QualityControl/Infrastructure\lGenerator.h">
<polygon fill="none" stroke="black" points="256.5,-56.5 256.5,-86.5 396.5,-86.5 396.5,-56.5 256.5,-56.5"/>
<text text-anchor="start" x="264.5" y="-74.5" font-family="Helvetica,sans-Serif" font-size="10.00">QualityControl/Infrastructure</text>
<text text-anchor="middle" x="326.5" y="-63.5" font-family="Helvetica,sans-Serif" font-size="10.00">Generator.h</text>
</a>
</g>
</g>
<!-- Node1&#45;&gt;Node4 -->
<g id="edge3" class="edge"><title>Node1&#45;&gt;Node4</title>
<path fill="none" stroke="midnightblue" d="M326.5,-123.396C326.5,-115.645 326.5,-105.812 326.5,-96.8601"/>
<polygon fill="midnightblue" stroke="midnightblue" points="330,-96.5765 326.5,-86.5765 323,-96.5765 330,-96.5765"/>
</g>
<!-- Node8 -->
<g id="node8" class="node"><title>Node8</title>
<polygon fill="none" stroke="#bfbfbf" points="415,-62 415,-81 534,-81 534,-62 415,-62"/>
<text text-anchor="middle" x="474.5" y="-69" font-family="Helvetica,sans-Serif" font-size="10.00">getTestDataDirectory.h</text>
</g>
<!-- Node1&#45;&gt;Node8 -->
<g id="edge7" class="edge"><title>Node1&#45;&gt;Node8</title>
<path fill="none" stroke="midnightblue" d="M358.614,-123.396C384.582,-111.991 420.812,-96.0794 445.816,-85.0976"/>
<polygon fill="midnightblue" stroke="midnightblue" points="447.382,-88.2328 455.13,-81.007 444.567,-81.8237 447.382,-88.2328"/>
</g>
<!-- Node9 -->
<g id="node9" class="node"><title>Node9</title>
<polygon fill="none" stroke="#bfbfbf" points="552.5,-62 552.5,-81 692.5,-81 692.5,-62 552.5,-62"/>
<text text-anchor="middle" x="622.5" y="-69" font-family="Helvetica,sans-Serif" font-size="10.00">Framework/DataSpecUtils.h</text>
</g>
<!-- Node1&#45;&gt;Node9 -->
<g id="edge8" class="edge"><title>Node1&#45;&gt;Node9</title>
<path fill="none" stroke="midnightblue" d="M390.363,-123.476C445.377,-111.395 523.615,-94.2145 573.723,-83.2112"/>
<polygon fill="midnightblue" stroke="midnightblue" points="574.645,-86.5921 583.662,-81.0287 573.144,-79.755 574.645,-86.5921"/>
</g>
<!-- Node5 -->
<g id="node5" class="node"><title>Node5</title>
<polygon fill="none" stroke="#bfbfbf" points="197,-0.5 197,-19.5 238,-19.5 238,-0.5 197,-0.5"/>
<text text-anchor="middle" x="217.5" y="-7.5" font-family="Helvetica,sans-Serif" font-size="10.00">string</text>
</g>
<!-- Node4&#45;&gt;Node5 -->
<g id="edge4" class="edge"><title>Node4&#45;&gt;Node5</title>
<path fill="none" stroke="midnightblue" d="M300.669,-56.3993C283.033,-46.7728 259.8,-34.0902 242.372,-24.5772"/>
<polygon fill="midnightblue" stroke="midnightblue" points="243.815,-21.3771 233.36,-19.6578 240.461,-27.5213 243.815,-21.3771"/>
</g>
<!-- Node6 -->
<g id="node6" class="node"><title>Node6</title>
<polygon fill="none" stroke="#bfbfbf" points="256.5,-0.5 256.5,-19.5 396.5,-19.5 396.5,-0.5 256.5,-0.5"/>
<text text-anchor="middle" x="326.5" y="-7.5" font-family="Helvetica,sans-Serif" font-size="10.00">Framework/WorkflowSpec.h</text>
</g>
<!-- Node4&#45;&gt;Node6 -->
<g id="edge5" class="edge"><title>Node4&#45;&gt;Node6</title>
<path fill="none" stroke="midnightblue" d="M326.5,-56.3993C326.5,-48.4664 326.5,-38.458 326.5,-29.8583"/>
<polygon fill="midnightblue" stroke="midnightblue" points="330,-29.6577 326.5,-19.6578 323,-29.6578 330,-29.6577"/>
</g>
<!-- Node7 -->
<g id="node7" class="node"><title>Node7</title>
<polygon fill="none" stroke="#bfbfbf" points="415,-0.5 415,-19.5 568,-19.5 568,-0.5 415,-0.5"/>
<text text-anchor="middle" x="491.5" y="-7.5" font-family="Helvetica,sans-Serif" font-size="10.00">Framework/CompletionPolicy.h</text>
</g>
<!-- Node4&#45;&gt;Node7 -->
<g id="edge6" class="edge"><title>Node4&#45;&gt;Node7</title>
<path fill="none" stroke="midnightblue" d="M365.603,-56.3993C393.658,-46.2826 431.073,-32.7905 457.809,-23.1493"/>
<polygon fill="midnightblue" stroke="midnightblue" points="459.271,-26.3426 467.491,-19.6578 456.897,-19.7576 459.271,-26.3426"/>
</g>
</g>
</svg>
