<?xml version="1.0" encoding="UTF-8" standalone="no"?>
<!DOCTYPE svg PUBLIC "-//W3C//DTD SVG 1.1//EN"
 "http://www.w3.org/Graphics/SVG/1.1/DTD/svg11.dtd">
<!-- Generated by graphviz version 2.38.0 (20140413.2041)
 -->
<!-- Title: Framework/test/testMonitorObject.cxx Pages: 1 -->
<svg width="691pt" height="218pt"
 viewBox="0.00 0.00 690.50 218.00" xmlns="http://www.w3.org/2000/svg" xmlns:xlink="http://www.w3.org/1999/xlink">
<g id="graph0" class="graph" transform="scale(1 1) rotate(0) translate(4 214)">
<title>Framework/test/testMonitorObject.cxx</title>
<!-- Node1 -->
<g id="node1" class="node"><title>Node1</title>
<polygon fill="#bfbfbf" stroke="black" points="374.5,-179.5 374.5,-209.5 511.5,-209.5 511.5,-179.5 374.5,-179.5"/>
<text text-anchor="start" x="382.5" y="-197.5" font-family="Helvetica,sans-Serif" font-size="10.00">Framework/test/testMonitor</text>
<text text-anchor="middle" x="443" y="-186.5" font-family="Helvetica,sans-Serif" font-size="10.00">Object.cxx</text>
</g>
<!-- Node2 -->
<g id="node2" class="node"><title>Node2</title>
<g id="a_node2"><a xlink:href="MonitorObject_8h.html" target="_top" xlink:title="../include/QualityControl\l/MonitorObject.h">
<polygon fill="none" stroke="black" points="75,-112.5 75,-142.5 197,-142.5 197,-112.5 75,-112.5"/>
<text text-anchor="start" x="83" y="-130.5" font-family="Helvetica,sans-Serif" font-size="10.00">../include/QualityControl</text>
<text text-anchor="middle" x="136" y="-119.5" font-family="Helvetica,sans-Serif" font-size="10.00">/MonitorObject.h</text>
</a>
</g>
</g>
<!-- Node1&#45;&gt;Node2 -->
<g id="edge1" class="edge"><title>Node1&#45;&gt;Node2</title>
<path fill="none" stroke="midnightblue" d="M376.764,-179.476C326.775,-168.892 258.297,-154.394 207.149,-143.564"/>
<polygon fill="midnightblue" stroke="midnightblue" points="207.669,-140.097 197.161,-141.449 206.219,-146.945 207.669,-140.097"/>
</g>
<!-- Node10 -->
<g id="node10" class="node"><title>Node10</title>
<polygon fill="none" stroke="#bfbfbf" points="215.5,-118 215.5,-137 334.5,-137 334.5,-118 215.5,-118"/>
<text text-anchor="middle" x="275" y="-125" font-family="Helvetica,sans-Serif" font-size="10.00">boost/test/unit_test.hpp</text>
</g>
<!-- Node1&#45;&gt;Node10 -->
<g id="edge10" class="edge"><title>Node1&#45;&gt;Node10</title>
<path fill="none" stroke="midnightblue" d="M406.547,-179.396C376.678,-167.84 334.85,-151.656 306.436,-140.663"/>
<polygon fill="midnightblue" stroke="midnightblue" points="307.577,-137.351 296.987,-137.007 305.051,-143.88 307.577,-137.351"/>
</g>
<!-- Node11 -->
<g id="node11" class="node"><title>Node11</title>
<polygon fill="none" stroke="#bfbfbf" points="352.5,-118 352.5,-137 401.5,-137 401.5,-118 352.5,-118"/>
<text text-anchor="middle" x="377" y="-125" font-family="Helvetica,sans-Serif" font-size="10.00">cassert</text>
</g>
<!-- Node1&#45;&gt;Node11 -->
<g id="edge11" class="edge"><title>Node1&#45;&gt;Node11</title>
<path fill="none" stroke="midnightblue" d="M428.679,-179.396C418.184,-169.06 403.932,-155.024 393.052,-144.309"/>
<polygon fill="midnightblue" stroke="midnightblue" points="395.409,-141.718 385.828,-137.195 390.497,-146.705 395.409,-141.718"/>
</g>
<!-- Node12 -->
<g id="node12" class="node"><title>Node12</title>
<polygon fill="none" stroke="#bfbfbf" points="420,-118 420,-137 466,-137 466,-118 420,-118"/>
<text text-anchor="middle" x="443" y="-125" font-family="Helvetica,sans-Serif" font-size="10.00">chrono</text>
</g>
<!-- Node1&#45;&gt;Node12 -->
<g id="edge12" class="edge"><title>Node1&#45;&gt;Node12</title>
<path fill="none" stroke="midnightblue" d="M443,-179.396C443,-170.064 443,-157.714 443,-147.517"/>
<polygon fill="midnightblue" stroke="midnightblue" points="446.5,-147.195 443,-137.195 439.5,-147.195 446.5,-147.195"/>
</g>
<!-- Node13 -->
<g id="node13" class="node"><title>Node13</title>
<polygon fill="none" stroke="#bfbfbf" points="484,-118 484,-137 534,-137 534,-118 484,-118"/>
<text text-anchor="middle" x="509" y="-125" font-family="Helvetica,sans-Serif" font-size="10.00">TH1F.h</text>
</g>
<!-- Node1&#45;&gt;Node13 -->
<g id="edge13" class="edge"><title>Node1&#45;&gt;Node13</title>
<path fill="none" stroke="midnightblue" d="M457.321,-179.396C467.816,-169.06 482.068,-155.024 492.948,-144.309"/>
<polygon fill="midnightblue" stroke="midnightblue" points="495.503,-146.705 500.172,-137.195 490.591,-141.718 495.503,-146.705"/>
</g>
<!-- Node14 -->
<g id="node14" class="node"><title>Node14</title>
<polygon fill="none" stroke="#bfbfbf" points="552.5,-118 552.5,-137 599.5,-137 599.5,-118 552.5,-118"/>
<text text-anchor="middle" x="576" y="-125" font-family="Helvetica,sans-Serif" font-size="10.00">TFile.h</text>
</g>
<!-- Node1&#45;&gt;Node14 -->
<g id="edge14" class="edge"><title>Node1&#45;&gt;Node14</title>
<path fill="none" stroke="midnightblue" d="M471.859,-179.396C494.886,-168.142 526.89,-152.501 549.323,-141.538"/>
<polygon fill="midnightblue" stroke="midnightblue" points="551.146,-144.543 558.593,-137.007 548.072,-138.253 551.146,-144.543"/>
</g>
<!-- Node15 -->
<g id="node15" class="node"><title>Node15</title>
<polygon fill="none" stroke="#bfbfbf" points="617.5,-118 617.5,-137 682.5,-137 682.5,-118 617.5,-118"/>
<text text-anchor="middle" x="650" y="-125" font-family="Helvetica,sans-Serif" font-size="10.00">TSystem.h</text>
</g>
<!-- Node1&#45;&gt;Node15 -->
<g id="edge15" class="edge"><title>Node1&#45;&gt;Node15</title>
<path fill="none" stroke="midnightblue" d="M491.122,-179.478C524.356,-169.643 569.509,-155.983 609,-143 611.448,-142.195 613.971,-141.348 616.507,-140.482"/>
<polygon fill="midnightblue" stroke="midnightblue" points="617.913,-143.699 626.213,-137.114 615.619,-137.086 617.913,-143.699"/>
</g>
<!-- Node3 -->
<g id="node3" class="node"><title>Node3</title>
<polygon fill="none" stroke="#bfbfbf" points="0,-56.5 0,-75.5 54,-75.5 54,-56.5 0,-56.5"/>
<text text-anchor="middle" x="27" y="-63.5" font-family="Helvetica,sans-Serif" font-size="10.00">iostream</text>
</g>
<!-- Node2&#45;&gt;Node3 -->
<g id="edge2" class="edge"><title>Node2&#45;&gt;Node3</title>
<path fill="none" stroke="midnightblue" d="M110.169,-112.399C92.5334,-102.773 69.2996,-90.0902 51.8724,-80.5772"/>
<polygon fill="midnightblue" stroke="midnightblue" points="53.3149,-77.3771 42.8605,-75.6578 49.9609,-83.5213 53.3149,-77.3771"/>
</g>
<!-- Node4 -->
<g id="node4" class="node"><title>Node4</title>
<polygon fill="none" stroke="#bfbfbf" points="72.5,-56.5 72.5,-75.5 107.5,-75.5 107.5,-56.5 72.5,-56.5"/>
<text text-anchor="middle" x="90" y="-63.5" font-family="Helvetica,sans-Serif" font-size="10.00">map</text>
</g>
<!-- Node2&#45;&gt;Node4 -->
<g id="edge3" class="edge"><title>Node2&#45;&gt;Node4</title>
<path fill="none" stroke="midnightblue" d="M125.099,-112.399C118.414,-103.753 109.824,-92.642 102.815,-83.576"/>
<polygon fill="midnightblue" stroke="midnightblue" points="105.579,-81.4284 96.6934,-75.6578 100.041,-85.7099 105.579,-81.4284"/>
</g>
<!-- Node5 -->
<g id="node5" class="node"><title>Node5</title>
<polygon fill="none" stroke="#bfbfbf" points="164.5,-0.5 164.5,-19.5 223.5,-19.5 223.5,-0.5 164.5,-0.5"/>
<text text-anchor="middle" x="194" y="-7.5" font-family="Helvetica,sans-Serif" font-size="10.00">TObject.h</text>
</g>
<!-- Node2&#45;&gt;Node5 -->
<g id="edge4" class="edge"><title>Node2&#45;&gt;Node5</title>
<path fill="none" stroke="midnightblue" d="M137.904,-112.299C140.312,-97.5476 145.36,-74.1321 155,-56 160.678,-45.32 169.313,-35.0027 177.015,-26.9473"/>
<polygon fill="midnightblue" stroke="midnightblue" points="179.655,-29.2571 184.262,-19.7164 174.711,-24.3017 179.655,-29.2571"/>
</g>
<!-- Node6 -->
<g id="node6" class="node"><title>Node6</title>
<polygon fill="none" stroke="#bfbfbf" points="164,-56.5 164,-75.5 280,-75.5 280,-56.5 164,-56.5"/>
<text text-anchor="middle" x="222" y="-63.5" font-family="Helvetica,sans-Serif" font-size="10.00">Common/Exceptions.h</text>
</g>
<!-- Node2&#45;&gt;Node6 -->
<g id="edge5" class="edge"><title>Node2&#45;&gt;Node6</title>
<path fill="none" stroke="midnightblue" d="M156.381,-112.399C169.908,-103.04 187.611,-90.7924 201.22,-81.3771"/>
<polygon fill="midnightblue" stroke="midnightblue" points="203.254,-84.2257 209.486,-75.6578 199.271,-78.4692 203.254,-84.2257"/>
</g>
<!-- Node7 -->
<g id="node7" class="node"><title>Node7</title>
<g id="a_node7"><a xlink:href="Quality_8h.html" target="_top" xlink:title="QualityControl/Quality.h">
<polygon fill="none" stroke="black" points="298.5,-56.5 298.5,-75.5 419.5,-75.5 419.5,-56.5 298.5,-56.5"/>
<text text-anchor="middle" x="359" y="-63.5" font-family="Helvetica,sans-Serif" font-size="10.00">QualityControl/Quality.h</text>
</a>
</g>
</g>
<!-- Node2&#45;&gt;Node7 -->
<g id="edge6" class="edge"><title>Node2&#45;&gt;Node7</title>
<path fill="none" stroke="midnightblue" d="M188.566,-112.475C227.878,-101.986 280.906,-87.8367 317.316,-78.1221"/>
<polygon fill="midnightblue" stroke="midnightblue" points="318.359,-81.4661 327.119,-75.5064 316.555,-74.7027 318.359,-81.4661"/>
</g>
<!-- Node7&#45;&gt;Node5 -->
<g id="edge7" class="edge"><title>Node7&#45;&gt;Node5</title>
<path fill="none" stroke="midnightblue" d="M332.855,-56.4435C304.977,-47.3196 260.652,-32.8133 229.6,-22.6509"/>
<polygon fill="midnightblue" stroke="midnightblue" points="230.615,-19.3005 220.022,-19.5164 228.438,-25.9533 230.615,-19.3005"/>
</g>
<!-- Node8 -->
<g id="node8" class="node"><title>Node8</title>
<polygon fill="none" stroke="#bfbfbf" points="300,-0.5 300,-19.5 352,-19.5 352,-0.5 300,-0.5"/>
<text text-anchor="middle" x="326" y="-7.5" font-family="Helvetica,sans-Serif" font-size="10.00">ostream</text>
</g>
<!-- Node7&#45;&gt;Node8 -->
<g id="edge8" class="edge"><title>Node7&#45;&gt;Node8</title>
<path fill="none" stroke="midnightblue" d="M353.551,-56.083C348.986,-48.6127 342.332,-37.7244 336.707,-28.5199"/>
<polygon fill="midnightblue" stroke="midnightblue" points="339.549,-26.4588 331.348,-19.7511 333.576,-30.109 339.549,-26.4588"/>
</g>
<!-- Node9 -->
<g id="node9" class="node"><title>Node9</title>
<polygon fill="none" stroke="#bfbfbf" points="370.5,-0.5 370.5,-19.5 411.5,-19.5 411.5,-0.5 370.5,-0.5"/>
<text text-anchor="middle" x="391" y="-7.5" font-family="Helvetica,sans-Serif" font-size="10.00">string</text>
</g>
<!-- Node7&#45;&gt;Node9 -->
<g id="edge9" class="edge"><title>Node7&#45;&gt;Node9</title>
<path fill="none" stroke="midnightblue" d="M364.284,-56.083C368.711,-48.6127 375.163,-37.7244 380.618,-28.5199"/>
<polygon fill="midnightblue" stroke="midnightblue" points="383.727,-30.1383 385.814,-19.7511 377.705,-26.5697 383.727,-30.1383"/>
</g>
</g>
</svg>
