<?xml version="1.0" encoding="UTF-8" standalone="no"?>
<!DOCTYPE svg PUBLIC "-//W3C//DTD SVG 1.1//EN"
 "http://www.w3.org/Graphics/SVG/1.1/DTD/svg11.dtd">
<!-- Generated by graphviz version 2.38.0 (20140413.2041)
 -->
<!-- Title: Modules/TOF/src/TOFTask.cxx Pages: 1 -->
<!--zoomable 375 -->
<svg id="main" version="1.1" xmlns="http://www.w3.org/2000/svg" xmlns:xlink="http://www.w3.org/1999/xlink" xml:space="preserve" onload="init(evt)">
<style type="text/css"><![CDATA[
.edge:hover path { stroke: red; }
.edge:hover polygon { stroke: red; fill: red; }
]]></style>
<script type="text/javascript"><![CDATA[
var edges = document.getElementsByTagName('g');
if (edges && edges.length) {
  for (var i=0;i<edges.length;i++) {
    if (edges[i].id.substr(0,4)=='edge') {
      edges[i].setAttribute('class','edge');
    }
  }
}
]]></script>
        <defs>
                <circle id="rim" cx="0" cy="0" r="7"/>
                <circle id="rim2" cx="0" cy="0" r="3.5"/>
                <g id="zoomPlus">
                        <use xlink:href="#rim" fill="#404040">
                                <set attributeName="fill" to="#808080" begin="zoomplus.mouseover" end="zoomplus.mouseout"/>
                        </use>
                        <path d="M-4,0h8M0,-4v8" fill="none" stroke="white" stroke-width="1.5" pointer-events="none"/>
                </g>
                <g id="zoomMin">
                        <use xlink:href="#rim" fill="#404040">
                                <set attributeName="fill" to="#808080" begin="zoomminus.mouseover" end="zoomminus.mouseout"/>
                        </use>
                        <path d="M-4,0h8" fill="none" stroke="white" stroke-width="1.5" pointer-events="none"/>
                </g>
                <g id="dirArrow">
                        <path fill="none" stroke="white" stroke-width="1.5" d="M0,-3.0v7 M-2.5,-0.5L0,-3.0L2.5,-0.5"/>
                </g>
               <g id="resetDef">
                       <use xlink:href="#rim2" fill="#404040">
                               <set attributeName="fill" to="#808080" begin="reset.mouseover" end="reset.mouseout"/>
                       </use>
               </g>
        </defs>

<script type="text/javascript">
var viewWidth = 1263;
var viewHeight = 375;
var sectionId = 'dynsection-0';
</script>
<script xlink:href="svgpan.js"/>
<svg id="graph" class="graph">
<g id="viewport">
<title>Modules/TOF/src/TOFTask.cxx</title>
<!-- Node1 -->
<g id="node1" class="node"><title>Node1</title>
<polygon fill="#bfbfbf" stroke="black" points="194,-347.5 194,-366.5 349,-366.5 349,-347.5 194,-347.5"/>
<text text-anchor="middle" x="271.5" y="-354.5" font-family="Helvetica,sans-Serif" font-size="10.00">Modules/TOF/src/TOFTask.cxx</text>
</g>
<!-- Node2 -->
<g id="node2" class="node"><title>Node2</title>
<polygon fill="none" stroke="#bfbfbf" points="0,-291.5 0,-310.5 65,-310.5 65,-291.5 0,-291.5"/>
<text text-anchor="middle" x="32.5" y="-298.5" font-family="Helvetica,sans-Serif" font-size="10.00">TCanvas.h</text>
</g>
<!-- Node1&#45;&gt;Node2 -->
<g id="edge1" class="edge"><title>Node1&#45;&gt;Node2</title>
<path fill="none" stroke="midnightblue" d="M233.63,-347.444C190.433,-337.684 119.978,-321.765 74.9564,-311.593"/>
<polygon fill="midnightblue" stroke="midnightblue" points="75.7261,-308.178 65.2006,-309.388 74.1833,-315.006 75.7261,-308.178"/>
</g>
<!-- Node3 -->
<g id="node3" class="node"><title>Node3</title>
<polygon fill="none" stroke="#bfbfbf" points="83.5,-291.5 83.5,-310.5 127.5,-310.5 127.5,-291.5 83.5,-291.5"/>
<text text-anchor="middle" x="105.5" y="-298.5" font-family="Helvetica,sans-Serif" font-size="10.00">TH1.h</text>
</g>
<!-- Node1&#45;&gt;Node3 -->
<g id="edge2" class="edge"><title>Node1&#45;&gt;Node3</title>
<path fill="none" stroke="midnightblue" d="M245.197,-347.444C215.912,-337.917 168.589,-322.523 137.262,-312.332"/>
<polygon fill="midnightblue" stroke="midnightblue" points="138.288,-308.986 127.696,-309.22 136.123,-315.642 138.288,-308.986"/>
</g>
<!-- Node4 -->
<g id="node4" class="node"><title>Node4</title>
<polygon fill="none" stroke="#bfbfbf" points="145.5,-291.5 145.5,-310.5 195.5,-310.5 195.5,-291.5 145.5,-291.5"/>
<text text-anchor="middle" x="170.5" y="-298.5" font-family="Helvetica,sans-Serif" font-size="10.00">TH1F.h</text>
</g>
<!-- Node1&#45;&gt;Node4 -->
<g id="edge3" class="edge"><title>Node1&#45;&gt;Node4</title>
<path fill="none" stroke="midnightblue" d="M255.273,-347.324C239.149,-338.703 214.2,-325.364 195.536,-315.386"/>
<polygon fill="midnightblue" stroke="midnightblue" points="197.156,-312.283 186.687,-310.655 193.856,-318.456 197.156,-312.283"/>
</g>
<!-- Node5 -->
<g id="node5" class="node"><title>Node5</title>
<polygon fill="none" stroke="#bfbfbf" points="213.5,-291.5 213.5,-310.5 263.5,-310.5 263.5,-291.5 213.5,-291.5"/>
<text text-anchor="middle" x="238.5" y="-298.5" font-family="Helvetica,sans-Serif" font-size="10.00">TH2F.h</text>
</g>
<!-- Node1&#45;&gt;Node5 -->
<g id="edge4" class="edge"><title>Node1&#45;&gt;Node5</title>
<path fill="none" stroke="midnightblue" d="M266.051,-347.083C261.486,-339.613 254.832,-328.724 249.207,-319.52"/>
<polygon fill="midnightblue" stroke="midnightblue" points="252.049,-317.459 243.848,-310.751 246.076,-321.109 252.049,-317.459"/>
</g>
<!-- Node6 -->
<g id="node6" class="node"><title>Node6</title>
<polygon fill="none" stroke="#bfbfbf" points="282,-291.5 282,-310.5 329,-310.5 329,-291.5 282,-291.5"/>
<text text-anchor="middle" x="305.5" y="-298.5" font-family="Helvetica,sans-Serif" font-size="10.00">TH1I.h</text>
</g>
<!-- Node1&#45;&gt;Node6 -->
<g id="edge5" class="edge"><title>Node1&#45;&gt;Node6</title>
<path fill="none" stroke="midnightblue" d="M277.114,-347.083C281.867,-339.534 288.818,-328.495 294.652,-319.23"/>
<polygon fill="midnightblue" stroke="midnightblue" points="297.624,-321.078 299.99,-310.751 291.7,-317.349 297.624,-321.078"/>
</g>
<!-- Node7 -->
<g id="node7" class="node"><title>Node7</title>
<polygon fill="none" stroke="#bfbfbf" points="347,-291.5 347,-310.5 394,-310.5 394,-291.5 347,-291.5"/>
<text text-anchor="middle" x="370.5" y="-298.5" font-family="Helvetica,sans-Serif" font-size="10.00">TH2I.h</text>
</g>
<!-- Node1&#45;&gt;Node7 -->
<g id="edge6" class="edge"><title>Node1&#45;&gt;Node7</title>
<path fill="none" stroke="midnightblue" d="M287.406,-347.324C303.138,-338.743 327.442,-325.486 345.709,-315.522"/>
<polygon fill="midnightblue" stroke="midnightblue" points="347.53,-318.516 354.633,-310.655 344.178,-312.37 347.53,-318.516"/>
</g>
<!-- Node8 -->
<g id="node8" class="node"><title>Node8</title>
<g id="a_node8"><a xlink:href="QcInfoLogger_8h.html" target="_top" xlink:title="QualityControl/QcInfoLogger.h">
<polygon fill="none" stroke="black" points="519,-291.5 519,-310.5 668,-310.5 668,-291.5 519,-291.5"/>
<text text-anchor="middle" x="593.5" y="-298.5" font-family="Helvetica,sans-Serif" font-size="10.00">QualityControl/QcInfoLogger.h</text>
</a>
</g>
</g>
<!-- Node1&#45;&gt;Node8 -->
<g id="edge7" class="edge"><title>Node1&#45;&gt;Node8</title>
<path fill="none" stroke="midnightblue" d="M322.522,-347.444C379.518,-337.885 471.739,-322.419 532.5,-312.23"/>
<polygon fill="midnightblue" stroke="midnightblue" points="533.433,-315.622 542.717,-310.516 532.276,-308.719 533.433,-315.622"/>
</g>
<!-- Node35 -->
<g id="node35" class="node"><title>Node35</title>
<g id="a_node35"><a xlink:href="TOFTask_8h.html" target="_top" xlink:title="TOF/TOFTask.h">
<polygon fill="none" stroke="black" points="412,-291.5 412,-310.5 501,-310.5 501,-291.5 412,-291.5"/>
<text text-anchor="middle" x="456.5" y="-298.5" font-family="Helvetica,sans-Serif" font-size="10.00">TOF/TOFTask.h</text>
</a>
</g>
</g>
<!-- Node1&#45;&gt;Node35 -->
<g id="edge42" class="edge"><title>Node1&#45;&gt;Node35</title>
<path fill="none" stroke="midnightblue" d="M300.814,-347.444C332.342,-338.241 382.631,-323.562 417.486,-313.388"/>
<polygon fill="midnightblue" stroke="midnightblue" points="418.705,-316.678 427.323,-310.516 416.743,-309.959 418.705,-316.678"/>
</g>
<!-- Node9 -->
<g id="node9" class="node"><title>Node9</title>
<g id="a_node9"><a xlink:href="TaskInterface_8h.html" target="_top" xlink:title="TaskInterface.h">
<polygon fill="none" stroke="black" points="414,-235.5 414,-254.5 499,-254.5 499,-235.5 414,-235.5"/>
<text text-anchor="middle" x="456.5" y="-242.5" font-family="Helvetica,sans-Serif" font-size="10.00">TaskInterface.h</text>
</a>
</g>
</g>
<!-- Node8&#45;&gt;Node9 -->
<g id="edge8" class="edge"><title>Node8&#45;&gt;Node9</title>
<path fill="none" stroke="midnightblue" d="M571.792,-291.444C549.145,-282.517 513.428,-268.439 487.748,-258.317"/>
<polygon fill="midnightblue" stroke="midnightblue" points="488.693,-254.927 478.106,-254.516 486.126,-261.44 488.693,-254.927"/>
</g>
<!-- Node18 -->
<g id="node18" class="node"><title>Node18</title>
<polygon fill="none" stroke="#bfbfbf" points="1200.5,-62 1200.5,-81 1254.5,-81 1254.5,-62 1200.5,-62"/>
<text text-anchor="middle" x="1227.5" y="-69" font-family="Helvetica,sans-Serif" font-size="10.00">iostream</text>
</g>
<!-- Node8&#45;&gt;Node18 -->
<g id="edge41" class="edge"><title>Node8&#45;&gt;Node18</title>
<path fill="none" stroke="midnightblue" d="M668.274,-293.425C824.289,-277.998 1175.98,-233.725 1247.5,-143 1259.63,-127.61 1249.92,-105.218 1240.27,-89.8202"/>
<polygon fill="midnightblue" stroke="midnightblue" points="1242.97,-87.5688 1234.45,-81.2624 1237.18,-91.5015 1242.97,-87.5688"/>
</g>
<!-- Node34 -->
<g id="node34" class="node"><title>Node34</title>
<polygon fill="none" stroke="#bfbfbf" points="528.5,-235.5 528.5,-254.5 658.5,-254.5 658.5,-235.5 528.5,-235.5"/>
<text text-anchor="middle" x="593.5" y="-242.5" font-family="Helvetica,sans-Serif" font-size="10.00">InfoLogger/InfoLogger.hxx</text>
</g>
<!-- Node8&#45;&gt;Node34 -->
<g id="edge40" class="edge"><title>Node8&#45;&gt;Node34</title>
<path fill="none" stroke="midnightblue" d="M593.5,-291.083C593.5,-284.006 593.5,-273.861 593.5,-264.986"/>
<polygon fill="midnightblue" stroke="midnightblue" points="597,-264.751 593.5,-254.751 590,-264.751 597,-264.751"/>
</g>
<!-- Node10 -->
<g id="node10" class="node"><title>Node10</title>
<polygon fill="none" stroke="#bfbfbf" points="96.5,-62 96.5,-81 148.5,-81 148.5,-62 96.5,-62"/>
<text text-anchor="middle" x="122.5" y="-69" font-family="Helvetica,sans-Serif" font-size="10.00">memory</text>
</g>
<!-- Node9&#45;&gt;Node10 -->
<g id="edge9" class="edge"><title>Node9&#45;&gt;Node10</title>
<path fill="none" stroke="midnightblue" d="M413.962,-244.458C334.705,-244.333 169.054,-239.14 131.5,-199 104.266,-169.89 111.052,-118.681 117.36,-91.1926"/>
<polygon fill="midnightblue" stroke="midnightblue" points="120.803,-91.8533 119.85,-81.3014 114.015,-90.1446 120.803,-91.8533"/>
</g>
<!-- Node11 -->
<g id="node11" class="node"><title>Node11</title>
<polygon fill="none" stroke="#bfbfbf" points="281,-179.5 281,-198.5 330,-198.5 330,-179.5 281,-179.5"/>
<text text-anchor="middle" x="305.5" y="-186.5" font-family="Helvetica,sans-Serif" font-size="10.00">cassert</text>
</g>
<!-- Node9&#45;&gt;Node11 -->
<g id="edge10" class="edge"><title>Node9&#45;&gt;Node11</title>
<path fill="none" stroke="midnightblue" d="M432.574,-235.444C407.281,-226.399 367.198,-212.064 338.82,-201.916"/>
<polygon fill="midnightblue" stroke="midnightblue" points="339.909,-198.588 329.314,-198.516 337.552,-205.179 339.909,-198.588"/>
</g>
<!-- Node12 -->
<g id="node12" class="node"><title>Node12</title>
<polygon fill="none" stroke="#bfbfbf" points="348,-179.5 348,-198.5 473,-198.5 473,-179.5 348,-179.5"/>
<text text-anchor="middle" x="410.5" y="-186.5" font-family="Helvetica,sans-Serif" font-size="10.00">Framework/InitContext.h</text>
</g>
<!-- Node9&#45;&gt;Node12 -->
<g id="edge11" class="edge"><title>Node9&#45;&gt;Node12</title>
<path fill="none" stroke="midnightblue" d="M448.904,-235.083C442.273,-227.298 432.479,-215.801 424.442,-206.367"/>
<polygon fill="midnightblue" stroke="midnightblue" points="427.104,-204.094 417.955,-198.751 421.775,-208.633 427.104,-204.094"/>
</g>
<!-- Node13 -->
<g id="node13" class="node"><title>Node13</title>
<polygon fill="none" stroke="#bfbfbf" points="529.5,-179.5 529.5,-198.5 689.5,-198.5 689.5,-179.5 529.5,-179.5"/>
<text text-anchor="middle" x="609.5" y="-186.5" font-family="Helvetica,sans-Serif" font-size="10.00">Framework/ProcessingContext.h</text>
</g>
<!-- Node9&#45;&gt;Node13 -->
<g id="edge12" class="edge"><title>Node9&#45;&gt;Node13</title>
<path fill="none" stroke="midnightblue" d="M480.743,-235.444C506.371,-226.399 546.985,-212.064 575.738,-201.916"/>
<polygon fill="midnightblue" stroke="midnightblue" points="577.105,-205.145 585.37,-198.516 574.775,-198.544 577.105,-205.145"/>
</g>
<!-- Node14 -->
<g id="node14" class="node"><title>Node14</title>
<polygon fill="none" stroke="#bfbfbf" points="532,-56.5 532,-86.5 667,-86.5 667,-56.5 532,-56.5"/>
<text text-anchor="start" x="540" y="-74.5" font-family="Helvetica,sans-Serif" font-size="10.00">Configuration/Configuration</text>
<text text-anchor="middle" x="599.5" y="-63.5" font-family="Helvetica,sans-Serif" font-size="10.00">Interface.h</text>
</g>
<!-- Node9&#45;&gt;Node14 -->
<g id="edge13" class="edge"><title>Node9&#45;&gt;Node14</title>
<path fill="none" stroke="midnightblue" d="M461.64,-235.46C467.001,-226.472 475.572,-211.871 482.5,-199 500.399,-165.746 495.236,-151.07 520.5,-123 531.756,-110.494 546.8,-99.8549 560.74,-91.6132"/>
<polygon fill="midnightblue" stroke="midnightblue" points="562.71,-94.5195 569.689,-86.5479 559.262,-88.4276 562.71,-94.5195"/>
</g>
<!-- Node15 -->
<g id="node15" class="node"><title>Node15</title>
<g id="a_node15"><a xlink:href="Activity_8h.html" target="_top" xlink:title="QualityControl/Activity.h">
<polygon fill="none" stroke="black" points="140,-179.5 140,-198.5 263,-198.5 263,-179.5 140,-179.5"/>
<text text-anchor="middle" x="201.5" y="-186.5" font-family="Helvetica,sans-Serif" font-size="10.00">QualityControl/Activity.h</text>
</a>
</g>
</g>
<!-- Node9&#45;&gt;Node15 -->
<g id="edge14" class="edge"><title>Node9&#45;&gt;Node15</title>
<path fill="none" stroke="midnightblue" d="M416.094,-235.444C371.517,-226.004 299.732,-210.802 251.608,-200.611"/>
<polygon fill="midnightblue" stroke="midnightblue" points="252.225,-197.164 241.716,-198.516 250.774,-204.012 252.225,-197.164"/>
</g>
<!-- Node16 -->
<g id="node16" class="node"><title>Node16</title>
<g id="a_node16"><a xlink:href="ObjectsManager_8h.html" target="_top" xlink:title="QualityControl/ObjectsManager.h">
<polygon fill="none" stroke="black" points="763,-179.5 763,-198.5 924,-198.5 924,-179.5 763,-179.5"/>
<text text-anchor="middle" x="843.5" y="-186.5" font-family="Helvetica,sans-Serif" font-size="10.00">QualityControl/ObjectsManager.h</text>
</a>
</g>
</g>
<!-- Node9&#45;&gt;Node16 -->
<g id="edge15" class="edge"><title>Node9&#45;&gt;Node16</title>
<path fill="none" stroke="midnightblue" d="M499.196,-237.878C505.988,-236.91 512.936,-235.925 519.5,-235 606.107,-222.799 705.773,-208.992 771.439,-199.927"/>
<polygon fill="midnightblue" stroke="midnightblue" points="772.251,-203.348 781.679,-198.513 771.294,-196.414 772.251,-203.348"/>
</g>
<!-- Node17 -->
<g id="node17" class="node"><title>Node17</title>
<g id="a_node17"><a xlink:href="MonitorObject_8h.html" target="_top" xlink:title="QualityControl/MonitorObject.h">
<polygon fill="none" stroke="black" points="872,-123.5 872,-142.5 1023,-142.5 1023,-123.5 872,-123.5"/>
<text text-anchor="middle" x="947.5" y="-130.5" font-family="Helvetica,sans-Serif" font-size="10.00">QualityControl/MonitorObject.h</text>
</a>
</g>
</g>
<!-- Node16&#45;&gt;Node17 -->
<g id="edge16" class="edge"><title>Node16&#45;&gt;Node17</title>
<path fill="none" stroke="midnightblue" d="M860.209,-179.324C876.812,-170.703 902.502,-157.364 921.72,-147.386"/>
<polygon fill="midnightblue" stroke="midnightblue" points="923.57,-150.369 930.832,-142.655 920.344,-144.156 923.57,-150.369"/>
</g>
<!-- Node22 -->
<g id="node22" class="node"><title>Node22</title>
<g id="a_node22"><a xlink:href="Quality_8h.html" target="_top" xlink:title="QualityControl/Quality.h">
<polygon fill="none" stroke="black" points="1022,-62 1022,-81 1143,-81 1143,-62 1022,-62"/>
<text text-anchor="middle" x="1082.5" y="-69" font-family="Helvetica,sans-Serif" font-size="10.00">QualityControl/Quality.h</text>
</a>
</g>
</g>
<!-- Node16&#45;&gt;Node22 -->
<g id="edge25" class="edge"><title>Node16&#45;&gt;Node22</title>
<path fill="none" stroke="midnightblue" d="M924.026,-181.683C959.666,-175.792 1000.63,-164.515 1032.5,-143 1051.86,-129.928 1066.17,-106.681 1074.4,-90.4699"/>
<polygon fill="midnightblue" stroke="midnightblue" points="1077.57,-91.9688 1078.74,-81.4391 1071.26,-88.939 1077.57,-91.9688"/>
</g>
<!-- Node24 -->
<g id="node24" class="node"><title>Node24</title>
<polygon fill="none" stroke="#bfbfbf" points="719,-0.5 719,-19.5 760,-19.5 760,-0.5 719,-0.5"/>
<text text-anchor="middle" x="739.5" y="-7.5" font-family="Helvetica,sans-Serif" font-size="10.00">string</text>
</g>
<!-- Node16&#45;&gt;Node24 -->
<g id="edge39" class="edge"><title>Node16&#45;&gt;Node24</title>
<path fill="none" stroke="midnightblue" d="M842.451,-179.424C840.552,-166.41 835.655,-141.26 824.5,-123 812.372,-103.147 801.185,-105.044 786.5,-87 771.416,-68.4664 757.469,-44.7217 748.751,-28.7464"/>
<polygon fill="midnightblue" stroke="midnightblue" points="751.834,-27.0905 744.035,-19.9196 745.66,-30.3891 751.834,-27.0905"/>
</g>
<!-- Node25 -->
<g id="node25" class="node"><title>Node25</title>
<g id="a_node25"><a xlink:href="TaskConfig_8h.html" target="_top" xlink:title="QualityControl/TaskConfig.h">
<polygon fill="none" stroke="black" points="529.5,-123.5 529.5,-142.5 669.5,-142.5 669.5,-123.5 529.5,-123.5"/>
<text text-anchor="middle" x="599.5" y="-130.5" font-family="Helvetica,sans-Serif" font-size="10.00">QualityControl/TaskConfig.h</text>
</a>
</g>
</g>
<!-- Node16&#45;&gt;Node25 -->
<g id="edge26" class="edge"><title>Node16&#45;&gt;Node25</title>
<path fill="none" stroke="midnightblue" d="M804.837,-179.444C762.362,-170.043 694.069,-154.929 648.026,-144.739"/>
<polygon fill="midnightblue" stroke="midnightblue" points="648.502,-141.26 637.982,-142.516 646.989,-148.095 648.502,-141.26"/>
</g>
<!-- Node26 -->
<g id="node26" class="node"><title>Node26</title>
<g id="a_node26"><a xlink:href="ServiceDiscovery_8h_source.html" target="_top" xlink:title="QualityControl/ServiceDiscovery.h">
<polygon fill="none" stroke="black" points="258,-123.5 258,-142.5 425,-142.5 425,-123.5 258,-123.5"/>
<text text-anchor="middle" x="341.5" y="-130.5" font-family="Helvetica,sans-Serif" font-size="10.00">QualityControl/ServiceDiscovery.h</text>
</a>
</g>
</g>
<!-- Node16&#45;&gt;Node26 -->
<g id="edge29" class="edge"><title>Node16&#45;&gt;Node26</title>
<path fill="none" stroke="midnightblue" d="M764.234,-179.473C673.597,-169.724 525.566,-153.8 430.895,-143.616"/>
<polygon fill="midnightblue" stroke="midnightblue" points="431.081,-140.116 420.764,-142.526 430.332,-147.076 431.081,-140.116"/>
</g>
<!-- Node31 -->
<g id="node31" class="node"><title>Node31</title>
<polygon fill="none" stroke="#bfbfbf" points="1080,-123.5 1080,-142.5 1149,-142.5 1149,-123.5 1080,-123.5"/>
<text text-anchor="middle" x="1114.5" y="-130.5" font-family="Helvetica,sans-Serif" font-size="10.00">TObjArray.h</text>
</g>
<!-- Node16&#45;&gt;Node31 -->
<g id="edge36" class="edge"><title>Node16&#45;&gt;Node31</title>
<path fill="none" stroke="midnightblue" d="M886.441,-179.444C936.567,-169.455 1019.07,-153.016 1069.9,-142.888"/>
<polygon fill="midnightblue" stroke="midnightblue" points="1070.81,-146.275 1079.93,-140.889 1069.44,-139.41 1070.81,-146.275"/>
</g>
<!-- Node32 -->
<g id="node32" class="node"><title>Node32</title>
<polygon fill="none" stroke="#bfbfbf" points="1167,-123.5 1167,-142.5 1238,-142.5 1238,-123.5 1167,-123.5"/>
<text text-anchor="middle" x="1202.5" y="-130.5" font-family="Helvetica,sans-Serif" font-size="10.00">TObjString.h</text>
</g>
<!-- Node16&#45;&gt;Node32 -->
<g id="edge37" class="edge"><title>Node16&#45;&gt;Node32</title>
<path fill="none" stroke="midnightblue" d="M911.584,-179.47C973.199,-171.479 1066.67,-158.678 1156.87,-143.204"/>
<polygon fill="midnightblue" stroke="midnightblue" points="1157.74,-146.606 1166.99,-141.453 1156.54,-139.708 1157.74,-146.606"/>
</g>
<!-- Node33 -->
<g id="node33" class="node"><title>Node33</title>
<polygon fill="none" stroke="#bfbfbf" points="687.5,-123.5 687.5,-142.5 815.5,-142.5 815.5,-123.5 687.5,-123.5"/>
<text text-anchor="middle" x="751.5" y="-130.5" font-family="Helvetica,sans-Serif" font-size="10.00">boost/concept_check.hpp</text>
</g>
<!-- Node16&#45;&gt;Node33 -->
<g id="edge38" class="edge"><title>Node16&#45;&gt;Node33</title>
<path fill="none" stroke="midnightblue" d="M828.719,-179.324C814.233,-170.822 791.927,-157.729 775.007,-147.797"/>
<polygon fill="midnightblue" stroke="midnightblue" points="776.641,-144.698 766.245,-142.655 773.097,-150.735 776.641,-144.698"/>
</g>
<!-- Node17&#45;&gt;Node18 -->
<g id="edge17" class="edge"><title>Node17&#45;&gt;Node18</title>
<path fill="none" stroke="midnightblue" d="M987.617,-123.475C1041.77,-111.967 1137.53,-91.6186 1190.2,-80.4269"/>
<polygon fill="midnightblue" stroke="midnightblue" points="1191.08,-83.8182 1200.13,-78.316 1189.62,-76.9711 1191.08,-83.8182"/>
</g>
<!-- Node19 -->
<g id="node19" class="node"><title>Node19</title>
<polygon fill="none" stroke="#bfbfbf" points="930,-62 930,-81 965,-81 965,-62 930,-62"/>
<text text-anchor="middle" x="947.5" y="-69" font-family="Helvetica,sans-Serif" font-size="10.00">map</text>
</g>
<!-- Node17&#45;&gt;Node19 -->
<g id="edge18" class="edge"><title>Node17&#45;&gt;Node19</title>
<path fill="none" stroke="midnightblue" d="M947.5,-123.475C947.5,-115.08 947.5,-101.981 947.5,-91.1631"/>
<polygon fill="midnightblue" stroke="midnightblue" points="951,-91.0091 947.5,-81.0091 944,-91.0091 951,-91.0091"/>
</g>
<!-- Node20 -->
<g id="node20" class="node"><title>Node20</title>
<polygon fill="none" stroke="#bfbfbf" points="971,-0.5 971,-19.5 1030,-19.5 1030,-0.5 971,-0.5"/>
<text text-anchor="middle" x="1000.5" y="-7.5" font-family="Helvetica,sans-Serif" font-size="10.00">TObject.h</text>
</g>
<!-- Node17&#45;&gt;Node20 -->
<g id="edge19" class="edge"><title>Node17&#45;&gt;Node20</title>
<path fill="none" stroke="midnightblue" d="M953.451,-123.339C959.346,-114.493 968.357,-100.22 974.5,-87 983.296,-68.072 990.694,-45.2982 995.322,-29.6456"/>
<polygon fill="midnightblue" stroke="midnightblue" points="998.793,-30.2407 998.183,-19.6634 992.063,-28.3122 998.793,-30.2407"/>
</g>
<!-- Node21 -->
<g id="node21" class="node"><title>Node21</title>
<polygon fill="none" stroke="#bfbfbf" points="795.5,-62 795.5,-81 911.5,-81 911.5,-62 795.5,-62"/>
<text text-anchor="middle" x="853.5" y="-69" font-family="Helvetica,sans-Serif" font-size="10.00">Common/Exceptions.h</text>
</g>
<!-- Node17&#45;&gt;Node21 -->
<g id="edge20" class="edge"><title>Node17&#45;&gt;Node21</title>
<path fill="none" stroke="midnightblue" d="M934.032,-123.475C918.815,-113.843 893.813,-98.0175 875.699,-86.5517"/>
<polygon fill="midnightblue" stroke="midnightblue" points="877.264,-83.4002 866.943,-81.0091 873.521,-89.3149 877.264,-83.4002"/>
</g>
<!-- Node17&#45;&gt;Node22 -->
<g id="edge21" class="edge"><title>Node17&#45;&gt;Node22</title>
<path fill="none" stroke="midnightblue" d="M966.842,-123.475C989.599,-113.445 1027.59,-96.7002 1053.79,-85.1546"/>
<polygon fill="midnightblue" stroke="midnightblue" points="1055.45,-88.2449 1063.19,-81.0091 1052.63,-81.8395 1055.45,-88.2449"/>
</g>
<!-- Node22&#45;&gt;Node20 -->
<g id="edge22" class="edge"><title>Node22&#45;&gt;Node20</title>
<path fill="none" stroke="midnightblue" d="M1070.75,-61.9751C1057.72,-52.5199 1036.46,-37.0961 1020.74,-25.6871"/>
<polygon fill="midnightblue" stroke="midnightblue" points="1022.38,-22.5492 1012.23,-19.5091 1018.27,-28.2149 1022.38,-22.5492"/>
</g>
<!-- Node23 -->
<g id="node23" class="node"><title>Node23</title>
<polygon fill="none" stroke="#bfbfbf" points="1056.5,-0.5 1056.5,-19.5 1108.5,-19.5 1108.5,-0.5 1056.5,-0.5"/>
<text text-anchor="middle" x="1082.5" y="-7.5" font-family="Helvetica,sans-Serif" font-size="10.00">ostream</text>
</g>
<!-- Node22&#45;&gt;Node23 -->
<g id="edge23" class="edge"><title>Node22&#45;&gt;Node23</title>
<path fill="none" stroke="midnightblue" d="M1082.5,-61.9751C1082.5,-53.5803 1082.5,-40.4806 1082.5,-29.6631"/>
<polygon fill="midnightblue" stroke="midnightblue" points="1086,-29.5091 1082.5,-19.5091 1079,-29.5091 1086,-29.5091"/>
</g>
<!-- Node22&#45;&gt;Node24 -->
<g id="edge24" class="edge"><title>Node22&#45;&gt;Node24</title>
<path fill="none" stroke="midnightblue" d="M1033.36,-61.9751C961.361,-49.486 829.336,-26.5838 769.907,-16.2747"/>
<polygon fill="midnightblue" stroke="midnightblue" points="770.468,-12.8197 760.016,-14.559 769.271,-19.7167 770.468,-12.8197"/>
</g>
<!-- Node25&#45;&gt;Node14 -->
<g id="edge28" class="edge"><title>Node25&#45;&gt;Node14</title>
<path fill="none" stroke="midnightblue" d="M599.5,-123.475C599.5,-116.471 599.5,-106.192 599.5,-96.6956"/>
<polygon fill="midnightblue" stroke="midnightblue" points="603,-96.5229 599.5,-86.523 596,-96.523 603,-96.5229"/>
</g>
<!-- Node25&#45;&gt;Node24 -->
<g id="edge27" class="edge"><title>Node25&#45;&gt;Node24</title>
<path fill="none" stroke="midnightblue" d="M618.093,-123.453C634.462,-115.409 658.439,-102.33 676.5,-87 697.035,-69.5712 716.1,-44.8996 727.761,-28.4461"/>
<polygon fill="midnightblue" stroke="midnightblue" points="730.914,-30.0399 733.726,-19.825 725.158,-26.0568 730.914,-30.0399"/>
</g>
<!-- Node26&#45;&gt;Node10 -->
<g id="edge32" class="edge"><title>Node26&#45;&gt;Node10</title>
<path fill="none" stroke="midnightblue" d="M306.565,-123.468C271.522,-114.779 216.073,-100.676 168.5,-87 165.18,-86.0457 161.736,-85.0225 158.294,-83.9773"/>
<polygon fill="midnightblue" stroke="midnightblue" points="159.29,-80.6218 148.702,-81.0127 157.223,-87.3097 159.29,-80.6218"/>
</g>
<!-- Node26&#45;&gt;Node24 -->
<g id="edge33" class="edge"><title>Node26&#45;&gt;Node24</title>
<path fill="none" stroke="midnightblue" d="M381.899,-123.49C411.432,-116.285 451.86,-104.336 484.5,-87 504.055,-76.6138 503.453,-65.4011 523.5,-56 585.205,-27.0633 665.475,-16.6125 708.698,-12.9293"/>
<polygon fill="midnightblue" stroke="midnightblue" points="709.16,-16.4039 718.855,-12.1316 708.612,-9.4254 709.16,-16.4039"/>
</g>
<!-- Node27 -->
<g id="node27" class="node"><title>Node27</title>
<polygon fill="none" stroke="#bfbfbf" points="177.5,-62 177.5,-81 223.5,-81 223.5,-62 177.5,-62"/>
<text text-anchor="middle" x="200.5" y="-69" font-family="Helvetica,sans-Serif" font-size="10.00">atomic</text>
</g>
<!-- Node26&#45;&gt;Node27 -->
<g id="edge30" class="edge"><title>Node26&#45;&gt;Node27</title>
<path fill="none" stroke="midnightblue" d="M320.746,-123.491C298.965,-114.529 263.752,-99.9474 233.5,-87 232.134,-86.4152 230.737,-85.8141 229.327,-85.2048"/>
<polygon fill="midnightblue" stroke="midnightblue" points="230.582,-81.9342 220.017,-81.1495 227.787,-88.3518 230.582,-81.9342"/>
</g>
<!-- Node28 -->
<g id="node28" class="node"><title>Node28</title>
<polygon fill="none" stroke="#bfbfbf" points="242,-62 242,-81 301,-81 301,-62 242,-62"/>
<text text-anchor="middle" x="271.5" y="-69" font-family="Helvetica,sans-Serif" font-size="10.00">curl/curl.h</text>
</g>
<!-- Node26&#45;&gt;Node28 -->
<g id="edge31" class="edge"><title>Node26&#45;&gt;Node28</title>
<path fill="none" stroke="midnightblue" d="M331.471,-123.475C320.451,-114.108 302.54,-98.8839 289.157,-87.5081"/>
<polygon fill="midnightblue" stroke="midnightblue" points="291.397,-84.8188 281.511,-81.0091 286.863,-90.1524 291.397,-84.8188"/>
</g>
<!-- Node29 -->
<g id="node29" class="node"><title>Node29</title>
<polygon fill="none" stroke="#bfbfbf" points="319.5,-62 319.5,-81 363.5,-81 363.5,-62 319.5,-62"/>
<text text-anchor="middle" x="341.5" y="-69" font-family="Helvetica,sans-Serif" font-size="10.00">thread</text>
</g>
<!-- Node26&#45;&gt;Node29 -->
<g id="edge34" class="edge"><title>Node26&#45;&gt;Node29</title>
<path fill="none" stroke="midnightblue" d="M341.5,-123.475C341.5,-115.08 341.5,-101.981 341.5,-91.1631"/>
<polygon fill="midnightblue" stroke="midnightblue" points="345,-91.0091 341.5,-81.0091 338,-91.0091 345,-91.0091"/>
</g>
<!-- Node30 -->
<g id="node30" class="node"><title>Node30</title>
<polygon fill="none" stroke="#bfbfbf" points="381.5,-56.5 381.5,-86.5 475.5,-86.5 475.5,-56.5 381.5,-56.5"/>
<text text-anchor="start" x="389.5" y="-74.5" font-family="Helvetica,sans-Serif" font-size="10.00">boost/asio/ip/host</text>
<text text-anchor="middle" x="428.5" y="-63.5" font-family="Helvetica,sans-Serif" font-size="10.00">_name.hpp</text>
</g>
<!-- Node26&#45;&gt;Node30 -->
<g id="edge35" class="edge"><title>Node26&#45;&gt;Node30</title>
<path fill="none" stroke="midnightblue" d="M353.965,-123.475C365.858,-115.341 384.209,-102.791 399.726,-92.1788"/>
<polygon fill="midnightblue" stroke="midnightblue" points="401.717,-95.0571 407.996,-86.523 397.766,-89.2792 401.717,-95.0571"/>
</g>
<!-- Node35&#45;&gt;Node9 -->
<g id="edge43" class="edge"><title>Node35&#45;&gt;Node9</title>
<path fill="none" stroke="midnightblue" d="M456.5,-291.083C456.5,-284.006 456.5,-273.861 456.5,-264.986"/>
<polygon fill="midnightblue" stroke="midnightblue" points="460,-264.751 456.5,-254.751 453,-264.751 460,-264.751"/>
</g>
</g>
</svg>
        <g id="navigator" transform="translate(0 0)" fill="#404254">
                <rect fill="#f2f5e9" fill-opacity="0.5" stroke="#606060" stroke-width=".5" x="0" y="0" width="60" height="60"/>
                <use id="zoomplus" xlink:href="#zoomPlus" x="17" y="9" onmousedown="handleZoom(evt,'in')"/>
                <use id="zoomminus" xlink:href="#zoomMin" x="42" y="9" onmousedown="handleZoom(evt,'out')"/>
                <use id="reset" xlink:href="#resetDef" x="30" y="36" onmousedown="handleReset()"/>
                <g id="arrowUp" xlink:href="#dirArrow" transform="translate(30 24)" onmousedown="handlePan(0,-1)">
                  <use xlink:href="#rim" fill="#404040">
                        <set attributeName="fill" to="#808080" begin="arrowUp.mouseover" end="arrowUp.mouseout"/>
                  </use>
                  <path fill="none" stroke="white" stroke-width="1.5" d="M0,-3.0v7 M-2.5,-0.5L0,-3.0L2.5,-0.5"/>
                </g>
                <g id="arrowRight" xlink:href="#dirArrow" transform="rotate(90) translate(36 -43)" onmousedown="handlePan(1,0)">
                  <use xlink:href="#rim" fill="#404040">
                        <set attributeName="fill" to="#808080" begin="arrowRight.mouseover" end="arrowRight.mouseout"/>
                  </use>
                  <path fill="none" stroke="white" stroke-width="1.5" d="M0,-3.0v7 M-2.5,-0.5L0,-3.0L2.5,-0.5"/>
                </g>
                <g id="arrowDown" xlink:href="#dirArrow" transform="rotate(180) translate(-30 -48)" onmousedown="handlePan(0,1)">
                  <use xlink:href="#rim" fill="#404040">
                        <set attributeName="fill" to="#808080" begin="arrowDown.mouseover" end="arrowDown.mouseout"/>
                  </use>
                  <path fill="none" stroke="white" stroke-width="1.5" d="M0,-3.0v7 M-2.5,-0.5L0,-3.0L2.5,-0.5"/>
                </g>
                <g id="arrowLeft" xlink:href="#dirArrow" transform="rotate(270) translate(-36 17)" onmousedown="handlePan(-1,0)">
                  <use xlink:href="#rim" fill="#404040">
                        <set attributeName="fill" to="#808080" begin="arrowLeft.mouseover" end="arrowLeft.mouseout"/>
                  </use>
                  <path fill="none" stroke="white" stroke-width="1.5" d="M0,-3.0v7 M-2.5,-0.5L0,-3.0L2.5,-0.5"/>
                </g>
        </g>
        <svg viewBox="0 0 15 15" width="100%" height="30px" preserveAspectRatio="xMaxYMin meet">
         <g id="arrow_out" transform="scale(0.3 0.3)">
          <a xlink:href="TOFTask_8cxx__incl_org.svg" target="_base">
           <rect id="button" ry="5" rx="5" y="6" x="6" height="38" width="38"
                fill="#f2f5e9" fill-opacity="0.5" stroke="#606060" stroke-width="1.0"/>
           <path id="arrow"
             d="M 11.500037,31.436501 C 11.940474,20.09759 22.043105,11.32322 32.158766,21.979434 L 37.068811,17.246167 C 37.068811,17.246167 37.088388,32 37.088388,32 L 22.160133,31.978069 C 22.160133,31.978069 26.997745,27.140456 26.997745,27.140456 C 18.528582,18.264221 13.291696,25.230495 11.500037,31.436501 z"
             style="fill:#404040;"/>
          </a>
         </g>
        </svg>
</svg>
